<?xml version="1.0" encoding="UTF-8" standalone="no"?>
<svg
   xmlns:dc="http://purl.org/dc/elements/1.1/"
   xmlns:cc="http://creativecommons.org/ns#"
   xmlns:rdf="http://www.w3.org/1999/02/22-rdf-syntax-ns#"
   xmlns:svg="http://www.w3.org/2000/svg"
   xmlns="http://www.w3.org/2000/svg"
   xmlns:sodipodi="http://sodipodi.sourceforge.net/DTD/sodipodi-0.dtd"
   xmlns:inkscape="http://www.inkscape.org/namespaces/inkscape"
   version="1.1"
   id="Layer_1"
   x="0px"
   y="0px"
   viewBox="0 0 100 100"
   enable-background="new 0 0 100 100"
   xml:space="preserve"
   sodipodi:docname="Agave color.svg"
   inkscape:version="1.0.1 (3bc2e813f5, 2020-09-07)"><metadata
   id="metadata9"><rdf:RDF><cc:Work
       rdf:about=""><dc:format>image/svg+xml</dc:format><dc:type
         rdf:resource="http://purl.org/dc/dcmitype/StillImage" /><dc:title></dc:title></cc:Work></rdf:RDF></metadata><defs
   id="defs7" /><sodipodi:namedview
   pagecolor="#ffffff"
   bordercolor="#666666"
   borderopacity="1"
   objecttolerance="10"
   gridtolerance="10"
   guidetolerance="10"
   inkscape:pageopacity="0"
   inkscape:pageshadow="2"
   inkscape:window-width="1920"
   inkscape:window-height="1017"
   id="namedview5"
   showgrid="false"
   inkscape:zoom="6.58"
   inkscape:cx="2.062212"
   inkscape:cy="45.391705"
   inkscape:window-x="-8"
   inkscape:window-y="-8"
   inkscape:window-maximized="1"
   inkscape:current-layer="Layer_1" />
<path
   fill="#2C3136"
   d="m -50.460829,91.582488 c -0.1,0 -0.2,0 -0.3,0 0,0 0,0 0,0 h -0.1 c -0.3,0 -0.5,0 -0.9,-0.1 -5,-0.7 -30.6,-8.2 -40.7,-15.8 l -3.2,-2.4 3.8,-0.4 c 0,0 0.7,-0.1 2,-0.1 3.2,0 10.8,0.5 21.2,4.1 -8.1,-7.5 -20.3,-19.7 -25.6,-28.6 l -2.2,-3.8 3.7,1.4 c 0.4,0.2 8.8,3.5 20.7,13.9 -4.2,-8.1 -9,-18.2 -10.9,-25.8 l -1.1,-4.3 3.2,2.7 c 0.4,0.3 8,6.8 16.9,21.8 -2,-9 -4,-20 -4,-27.7 v -4.5 l 2.4,3.6 c 0.2,0.4 5.3,8.1 10,23.5 0.8,-16.6 3.1,-31 3.1,-31.2 l 0.8,-5.1 1.7,4.8 c 0.2,0.5 3.8,10.9 3.6,34 4.8,-17.1 10.4,-25.6 10.7,-26 l 2.4,-3.6 v 4.5 c 0,7.7 -2,18.7 -4,27.7 8.9,-15.1 16.5,-21.5 16.9,-21.8 l 3.2,-2.7 -1.1,4.3 c -2,7.6 -6.8,17.8 -10.9,25.8 11.9,-10.3 20.2999995,-13.6 20.6999995,-13.8 l 3.7,-1.4 -2.2,3.7 c -4.7999995,8.1 -15.2999995,19.2 -25.0999995,28.6 10.2,-3.5 17.7,-4 20.8,-4 1.2999995,0 1.9999995,0.1 1.9999995,0.1 l 3.8,0.4 -3.2,2.4 c -10.1999995,7.5 -35.6999995,15 -40.7999995,15.7 -0.4,0.1 -0.7,0.1 -1,0.1 z m -0.3,-3 h 0.4 c 0.1,0 0.2,0 0.6,-0.1 5.2,-0.8 24,-6.4 35.1,-12.5 -4.9,0.4 -13.2,1.9 -23.7,6.5 l -8.4,3.7 7.1,-6.3 c 9.4,-8.4 20.8,-19.7 27.4,-28.7 -4.6,2.6 -12.3,7.8 -21.3,16.7 l -6.9,6.9 4.9,-8.8 c 3.7,-6.6 9.6,-17.9 13,-27.3 -3.9,4.4 -10.4,12.7 -17.1,25.8 l -5.4,10.6 2.9,-11.8 c 1.9,-7.6 4.9,-20.7 5.9,-30.9 -2.9,5.9 -8.5,20.6 -11.6,36.9 v 0 c 1.3,-19.6 -1.7,-36.6 -3,-43.7 -0.9,7.5 -2.2,20.1 -2.4,32.6 l -0.1,10.8 -2.5,-10.4 c -3,-12.5 -6.7,-21.3 -9.1,-26.2 1,10.2 3.9,23.3 5.9,30.9 l 3,11.8 -5.4,-10.6 c -6.7,-13.1 -13.3,-21.4 -17.2,-25.8 3.4,9.4 9.4,20.7 13,27.3 l 4.9,8.8 -6.9,-6.9 c -9,-8.9 -16.6,-14.1 -21.2,-16.7 8.2,11 23.1,24.6 27.9,29 l 7.2,6.4 -8.5,-3.9 c -10.7,-4.8 -19.2,-6.3 -24.2,-6.7 11.1,6 30.1,11.8 35.1,12.5 0.2,0.1 0.4,0.1 0.6,0.1 z"
   id="path2" />
<path
   style="fill:#550000;stroke:#000000;stroke-width:0.115389"
   d="M 47.624119,90.132595 C 46.742929,89.983271 43.468412,89.182743 41.518129,88.63985 29.69507,85.348716 17.644169,80.665436 10.872967,76.730378 9.0538863,75.673227 8.5025646,75.302424 6.0957139,73.517339 L 4.1410418,72.06762 5.9229029,71.855192 c 6.2444011,-0.744435 14.5152191,0.40371 23.1485901,3.213459 1.043175,0.339503 1.912993,0.600967 1.932929,0.581031 0.01994,-0.01994 -0.36698,-0.422136 -0.859815,-0.893778 C 22.279783,67.229294 18.306798,63.166476 13.901149,58.145173 11.154175,55.014332 8.2774229,51.339825 6.6717152,48.910938 5.5737504,47.250092 3.3845911,43.504804 3.4886615,43.465261 c 0.044771,-0.01701 0.9080224,0.284179 1.9183371,0.669309 4.7182524,1.798591 9.9962704,4.917289 15.9452584,9.421802 1.913525,1.448902 4.710347,3.705249 5.629698,4.54178 0.274113,0.249419 0.523373,0.428504 0.553912,0.397966 0.03054,-0.03054 -0.654129,-1.47389 -1.521483,-3.207449 -5.15052,-10.294228 -7.732868,-16.694206 -9.544316,-23.654227 -0.411627,-1.581564 -0.732914,-2.89107 -0.713973,-2.910012 0.01894,-0.01894 0.885073,0.685958 1.924734,1.566444 5.537709,4.689867 11.241839,11.769266 16.978333,21.07182 0.558025,0.90492 1.030213,1.629685 1.049308,1.610592 0.01909,-0.0191 -0.192254,-1.096464 -0.46966,-2.394155 -2.449219,-11.457292 -3.511358,-19.59031 -3.512772,-26.898047 l -5.36e-4,-2.764416 1.211093,1.814451 c 3.651303,5.470352 7.07178,12.948231 10.124627,22.13455 0.481944,1.450218 0.876262,2.707418 0.876262,2.793779 0,0.08636 0.04519,0.15702 0.100422,0.15702 0.05523,0 0.135909,-0.686924 0.179281,-1.526498 0.406383,-7.866519 1.437229,-18.290309 2.714444,-27.448157 0.380874,-2.730931 1.02496,-6.88009 1.075926,-6.931057 0.07301,-0.07301 1.938402,5.397494 2.265216,6.643039 1.059475,4.037852 2.00273,10.373533 2.469895,16.589861 0.270371,3.597701 0.320902,4.71983 0.456206,10.130999 l 0.12801,5.119478 0.389761,-1.375238 c 0.61363,-2.165144 2.674153,-8.317527 3.528067,-10.534225 1.604434,-4.164996 3.647166,-8.658393 5.263602,-11.578341 0.385852,-0.697004 1.381103,-2.30237 2.211672,-3.567478 1.225522,-1.866695 1.518008,-2.24666 1.551956,-2.016129 0.107503,0.730037 -0.09667,8.379822 -0.265873,9.961487 -0.656568,6.137413 -1.638264,12.078052 -3.183788,19.266407 -0.24839,1.15528 -0.451618,2.188266 -0.451618,2.295524 0,0.10726 0.586431,-0.760205 1.303181,-1.927697 4.138387,-6.740897 8.6506,-12.722613 12.950872,-17.16861 1.264899,-1.307763 5.552742,-5.105065 5.652219,-5.005588 0.0573,0.0573 -0.970818,4.054049 -1.468355,5.708167 -1.616806,5.375256 -4.467764,12.134732 -8.767899,20.788251 -0.879813,1.77052 -1.577823,3.240964 -1.551134,3.267652 0.02669,0.02669 0.504925,-0.334987 1.062748,-0.803726 7.765069,-6.525006 15.213368,-11.270154 21.212047,-13.51373 0.970556,-0.362999 1.785348,-0.639298 1.810647,-0.613997 0.0589,0.0589 -2.577662,4.465582 -3.398222,5.679698 -4.051141,5.994137 -11.126615,14.02107 -20.391721,23.133849 -1.791083,1.761636 -3.233668,3.22582 -3.205746,3.253743 0.02792,0.02792 0.591193,-0.13206 1.251711,-0.355519 4.669143,-1.579608 10.196645,-2.812519 14.926079,-3.329268 3.065817,-0.334978 5.020331,-0.35216 7.703435,-0.06772 1.330645,0.141062 2.434538,0.270828 2.453094,0.288368 0.06452,0.06099 -3.842474,2.909442 -4.930053,3.594334 -6.820584,4.295202 -20.175074,9.554182 -33.290414,13.109719 -4.272589,1.158288 -6.535405,1.508417 -8.069033,1.248531 z m 3.49024,-3.084571 c 6.610777,-1.375499 18.06528,-5.12902 26.118055,-8.558614 3.388249,-1.443021 8.020091,-3.710024 7.758391,-3.797258 -0.203368,-0.06779 -3.756982,0.394657 -5.526207,0.719147 -3.627894,0.665386 -8.276063,1.945499 -12.183545,3.355368 -2.823935,1.018911 -3.664792,1.3652 -8.978226,3.697489 -2.522448,1.107209 -4.61012,1.989255 -4.639271,1.960104 -0.02915,-0.02915 1.490316,-1.420968 3.376592,-3.092925 10.265152,-9.098829 18.219573,-16.922296 24.485413,-24.082311 2.656962,-3.036127 5.951598,-7.175523 5.817716,-7.309404 -0.165463,-0.165465 -5.234573,3.121192 -8.152337,5.285728 -5.23123,3.880772 -8.717203,6.953897 -15.236175,13.431735 -2.328629,2.313936 -4.233871,4.168441 -4.233871,4.121122 0,-0.04732 1.289916,-2.403978 2.866479,-5.23702 5.796631,-10.416386 9.118397,-16.994993 12.112067,-23.98739 1.197538,-2.797124 2.440249,-5.980943 2.391532,-6.127094 -0.01904,-0.05711 -0.425323,0.351988 -0.902861,0.909098 -5.071303,5.916337 -10.143743,13.448308 -14.531426,21.577443 -0.666911,1.235599 -2.447801,4.669139 -3.95753,7.63009 -1.50973,2.96095 -2.761237,5.367271 -2.781128,5.347381 -0.01989,-0.01989 0.764779,-3.2979 1.743709,-7.284467 3.774993,-15.373181 5.375078,-23.204474 6.405721,-31.351513 0.368694,-2.914452 0.39449,-3.247918 0.238264,-3.079971 -0.195051,0.209684 -1.611393,3.469515 -2.700505,6.215438 -3.205735,8.08246 -6.322526,18.388849 -8.082942,26.728111 -0.227394,1.077189 -0.43022,2.010369 -0.450725,2.073733 -0.0205,0.06336 -0.01168,-2.476959 0.0196,-5.645162 0.115023,-11.647916 -0.613508,-20.67432 -2.640778,-32.718894 -0.554101,-3.292076 -0.620185,-3.616048 -0.714793,-3.504224 -0.05561,0.06572 -0.705572,6.066901 -1.053328,9.725422 -0.961388,10.114179 -1.403046,19.320503 -1.448041,30.184332 l -0.01193,2.880185 -0.564447,-2.304148 C 45.347386,63.542274 44.619029,60.561283 44.039262,58.185131 41.592613,48.157656 38.946937,40.178044 35.85114,33.488976 35.407224,32.529811 34.985872,31.60247 34.914801,31.428219 c -0.193585,-0.474633 -0.331947,-0.381824 -0.25763,0.172811 0.03608,0.269297 0.118239,0.956221 0.182567,1.526497 0.744361,6.598891 2.744253,17.135104 4.88742,25.748848 0.338959,1.362328 1.272843,5.061376 2.075301,8.220108 0.802458,3.158732 1.442624,5.758539 1.422593,5.777349 -0.02003,0.01881 -1.358425,-2.562431 -2.974208,-5.73609 -1.615784,-3.173659 -3.527316,-6.836255 -4.24785,-8.139101 -4.259808,-7.702445 -9.094514,-14.788232 -13.947243,-20.441193 -0.5863,-0.682985 -1.091373,-1.216421 -1.122381,-1.185411 -0.08141,0.08141 1.960509,5.162542 3.127679,7.782965 2.93146,6.581451 6.279667,13.132515 11.770655,23.030338 1.416702,2.553686 2.575822,4.677803 2.575822,4.720258 0,0.04246 -2.086694,-1.998609 -4.637097,-4.535698 -2.550403,-2.537091 -5.207373,-5.129362 -5.904378,-5.760604 -2.900695,-2.627013 -6.387934,-5.504323 -9.158986,-7.557051 -2.749636,-2.036863 -7.754794,-5.279754 -7.909746,-5.124803 -0.125409,0.125409 2.858455,3.827049 5.537951,6.870118 6.118265,6.948432 15.663999,16.304629 25.85179,25.338481 1.666877,1.478076 3.011597,2.706499 2.988266,2.729831 -0.02333,0.02333 -1.568592,-0.660501 -3.433912,-1.519628 -1.86532,-0.859126 -4.036717,-1.847836 -4.825325,-2.197134 -7.008565,-3.104297 -14.374864,-5.287108 -20.685983,-6.129754 -2.756675,-0.368065 -3.088999,-0.395824 -2.9992,-0.250526 0.183002,0.296104 5.095204,2.608772 8.924818,4.201811 9.123811,3.795315 23.643759,8.311145 26.85088,8.350856 0.411866,0.0051 1.360355,-0.117964 2.107751,-0.273473 z"
   id="path834" /></svg>
