<?xml version="1.0" encoding="utf-8"?>
<!-- Generator: Adobe Illustrator 18.0.0, SVG Export Plug-In . SVG Version: 6.00 Build 0)  -->
<!DOCTYPE svg PUBLIC "-//W3C//DTD SVG 1.1//EN" "http://www.w3.org/Graphics/SVG/1.1/DTD/svg11.dtd">
<svg version="1.1" id="Layer_1" xmlns="http://www.w3.org/2000/svg" xmlns:xlink="http://www.w3.org/1999/xlink" x="0px" y="0px"
	 viewBox="0 0 100 100" enable-background="new 0 0 100 100" xml:space="preserve">
<path fill="#FFFFFF" d="M50,90.2c-0.1,0-0.2,0-0.3,0c0,0,0,0,0,0h-0.1c-0.3,0-0.5,0-0.9-0.1C43.7,89.4,18.1,81.9,8,74.3l-3.2-2.4
	l3.8-0.4c0,0,0.7-0.1,2-0.1c3.2,0,10.8,0.5,21.2,4.1C23.7,68,11.5,55.8,6.2,46.9L4,43.1l3.7,1.4c0.4,0.2,8.8,3.5,20.7,13.9
	c-4.2-8.1-9-18.2-10.9-25.8l-1.1-4.3l3.2,2.7c0.4,0.3,8,6.8,16.9,21.8c-2-9-4-20-4-27.7v-4.5l2.4,3.6c0.2,0.4,5.3,8.1,10,23.5
	c0.8-16.6,3.1-31,3.1-31.2l0.8-5.1l1.7,4.8c0.2,0.5,3.8,10.9,3.6,34c4.8-17.1,10.4-25.6,10.7-26l2.4-3.6v4.5c0,7.7-2,18.7-4,27.7
	c8.9-15.1,16.5-21.5,16.9-21.8l3.2-2.7l-1.1,4.3c-2,7.6-6.8,17.8-10.9,25.8C83.2,48.1,91.6,44.8,92,44.6l3.7-1.4l-2.2,3.7
	C88.7,55,78.2,66.1,68.4,75.5c10.2-3.5,17.7-4,20.8-4c1.3,0,2,0.1,2,0.1l3.8,0.4l-3.2,2.4C81.6,81.9,56.1,89.4,51,90.1
	C50.6,90.2,50.3,90.2,50,90.2z M49.7,87.2l0.4,0c0.1,0,0.2,0,0.6-0.1c5.2-0.8,24-6.4,35.1-12.5c-4.9,0.4-13.2,1.9-23.7,6.5l-8.4,3.7
	l7.1-6.3c9.4-8.4,20.8-19.7,27.4-28.7c-4.6,2.6-12.3,7.8-21.3,16.7L60,73.4l4.9-8.8c3.7-6.6,9.6-17.9,13-27.3
	C74,41.7,67.5,50,60.8,63.1l-5.4,10.6l2.9-11.8c1.9-7.6,4.9-20.7,5.9-30.9c-2.9,5.9-8.5,20.6-11.6,36.9l0,0
	c1.3-19.6-1.7-36.6-3-43.7c-0.9,7.5-2.2,20.1-2.4,32.6l-0.1,10.8l-2.5-10.4c-3-12.5-6.7-21.3-9.1-26.2c1,10.2,3.9,23.3,5.9,30.9
	l3,11.8l-5.4-10.6C32.3,50,25.7,41.7,21.8,37.3c3.4,9.4,9.4,20.7,13,27.3l4.9,8.8l-6.9-6.9c-9-8.9-16.6-14.1-21.2-16.7
	c8.2,11,23.1,24.6,27.9,29l7.2,6.4l-8.5-3.9C27.5,76.5,19,75,14,74.6c11.1,6,30.1,11.8,35.1,12.5C49.3,87.2,49.5,87.2,49.7,87.2
	L49.7,87.2z"/>
</svg>
