<?xml version="1.0" encoding="utf-8"?>
<!-- Generator: Adobe Illustrator 18.0.0, SVG Export Plug-In . SVG Version: 6.00 Build 0)  -->
<!DOCTYPE svg PUBLIC "-//W3C//DTD SVG 1.1//EN" "http://www.w3.org/Graphics/SVG/1.1/DTD/svg11.dtd">
<svg version="1.1" id="Layer_1" xmlns="http://www.w3.org/2000/svg" xmlns:xlink="http://www.w3.org/1999/xlink" x="0px" y="0px"
	 viewBox="0 0 100 100" enable-background="new 0 0 100 100" xml:space="preserve">
<g>
	<path fill="#2C3136" d="M65.4,32.8c-3.8,0-10.6-4.7-13.4-6.8c-0.6-0.4-1.1-0.8-1.4-1c-6.3-4.4-13.1-3.9-18.5-1.1
		c-1-3.2-3.2-6.6-6.4-9.8C20.7,9.3,13,4.5,6.8,4.5c0,0,0,0,0,0c-1.6,0-2.9,1.3-2.9,2.9c0,1.6,1.3,2.9,2.9,2.9c0,0,0,0,0,0
		c3.9,0,10,3.3,14.7,7.9c0.4,0.4,0.8,0.9,1.2,1.3c-1.8-0.6-3.5-0.7-5-0.7c-4.9,0.1-9.7,2.5-13.3,6.8c-0.4,0.5-0.7,1.2-0.7,1.9
		c0,4.6,2.5,9,6.5,12c2.9,2.1,6.2,3.1,9.6,3.1c0.4,0,0.9-0.1,1.3-0.1c0.2,2.9,1.2,5.8,3.3,8.7c0.1,0.1,0.2,0.2,0.3,0.4
		c2.6,2.6,7.4,10.2,7.4,14.5c0,0,0,0.1,0,0.1c0.8,17,14.8,30.3,31.8,30.3c17.6,0,31.8-14.3,31.8-31.8C95.8,47.6,82.5,33.6,65.4,32.8
		z M37.9,66C37.9,66,37.9,65.9,37.9,66c-0.1-6.5-5.8-15.2-9-18.4c-4.2-6-1.6-12.2,2-15.8c3.9-4,10.5-6.1,16.3-2
		c0.4,0.2,0.8,0.6,1.4,1c5.4,3.8,11.5,7.8,16.6,7.8c0,0,0,0,0,0c13.9,0.7,24.8,12.1,24.8,26.1C90.1,79,78.4,90.7,64,90.7
		C50.1,90.7,38.6,79.9,37.9,66z M13.6,34.8c-2.2-1.6-3.7-3.9-4.1-6.3c2.4-2.5,5.3-3.9,8.3-3.9c2.9-0.1,5.8,1.2,8.5,3.7
		c-2.1,2.3-3.8,5.2-4.7,8.3C18.9,37.1,16,36.5,13.6,34.8z"/>
	<path fill="#2C3136" d="M76.1,77.1c-3.3,3.2-7.6,4.9-12.2,4.9c-9.3,0-16.9-7.2-17.4-16.4c-0.2-9.4-7.2-19.6-10.9-23.6
		c-1.1-1.2-2.9-1.3-4.1-0.2c-1.2,1.1-1.3,2.9-0.2,4.1c3.6,3.9,9.3,12.8,9.4,19.9C41.4,78.2,51.6,87.8,64,87.8
		c6.1,0,11.8-2.3,16.2-6.6c1.1-1.1,1.2-2.9,0.1-4.1C79.1,76.1,77.3,76,76.1,77.1z"/>
	
		<ellipse transform="matrix(-0.7071 0.7071 -0.7071 -0.7071 152.7428 51.9663)" fill="#2C3136" cx="65.6" cy="57.6" rx="10.2" ry="14.2"/>
</g>
</svg>
