<?xml version="1.0" encoding="UTF-8" standalone="no"?>
<svg
   xmlns:dc="http://purl.org/dc/elements/1.1/"
   xmlns:cc="http://creativecommons.org/ns#"
   xmlns:rdf="http://www.w3.org/1999/02/22-rdf-syntax-ns#"
   xmlns:svg="http://www.w3.org/2000/svg"
   xmlns="http://www.w3.org/2000/svg"
   xmlns:sodipodi="http://sodipodi.sourceforge.net/DTD/sodipodi-0.dtd"
   xmlns:inkscape="http://www.inkscape.org/namespaces/inkscape"
   version="1.1"
   id="Layer_1"
   x="0px"
   y="0px"
   viewBox="0 0 100 100"
   enable-background="new 0 0 100 100"
   xml:space="preserve"
   sodipodi:docname="Aguacate color.svg"
   inkscape:version="1.0.1 (3bc2e813f5, 2020-09-07)"><metadata
   id="metadata15"><rdf:RDF><cc:Work
       rdf:about=""><dc:format>image/svg+xml</dc:format><dc:type
         rdf:resource="http://purl.org/dc/dcmitype/StillImage" /><dc:title></dc:title></cc:Work></rdf:RDF></metadata><defs
   id="defs13" /><sodipodi:namedview
   pagecolor="#ffffff"
   bordercolor="#666666"
   borderopacity="1"
   objecttolerance="10"
   gridtolerance="10"
   guidetolerance="10"
   inkscape:pageopacity="0"
   inkscape:pageshadow="2"
   inkscape:window-width="1920"
   inkscape:window-height="1017"
   id="namedview11"
   showgrid="false"
   inkscape:zoom="4.99"
   inkscape:cx="5.5992714"
   inkscape:cy="50"
   inkscape:window-x="-8"
   inkscape:window-y="-8"
   inkscape:window-maximized="1"
   inkscape:current-layer="Layer_1" />
<g
   id="g8"
   transform="translate(-104.60922,-2.8056112)">
	<path
   fill="#2c3136"
   d="M 65.4,32.8 C 61.6,32.8 54.8,28.1 52,26 51.4,25.6 50.9,25.2 50.6,25 44.3,20.6 37.5,21.1 32.1,23.9 31.1,20.7 28.9,17.3 25.7,14.1 20.7,9.3 13,4.5 6.8,4.5 c 0,0 0,0 0,0 -1.6,0 -2.9,1.3 -2.9,2.9 0,1.6 1.3,2.9 2.9,2.9 0,0 0,0 0,0 3.9,0 10,3.3 14.7,7.9 0.4,0.4 0.8,0.9 1.2,1.3 -1.8,-0.6 -3.5,-0.7 -5,-0.7 -4.9,0.1 -9.7,2.5 -13.3,6.8 -0.4,0.5 -0.7,1.2 -0.7,1.9 0,4.6 2.5,9 6.5,12 2.9,2.1 6.2,3.1 9.6,3.1 0.4,0 0.9,-0.1 1.3,-0.1 0.2,2.9 1.2,5.8 3.3,8.7 0.1,0.1 0.2,0.2 0.3,0.4 2.6,2.6 7.4,10.2 7.4,14.5 0,0 0,0.1 0,0.1 0.8,17 14.8,30.3 31.8,30.3 17.6,0 31.8,-14.3 31.8,-31.8 C 95.8,47.6 82.5,33.6 65.4,32.8 Z M 37.9,66 c 0,0 0,-0.1 0,0 -0.1,-6.5 -5.8,-15.2 -9,-18.4 -4.2,-6 -1.6,-12.2 2,-15.8 3.9,-4 10.5,-6.1 16.3,-2 0.4,0.2 0.8,0.6 1.4,1 5.4,3.8 11.5,7.8 16.6,7.8 0,0 0,0 0,0 C 79.1,39.3 90,50.7 90,64.7 90.1,79 78.4,90.7 64,90.7 50.1,90.7 38.6,79.9 37.9,66 Z M 13.6,34.8 c -2.2,-1.6 -3.7,-3.9 -4.1,-6.3 2.4,-2.5 5.3,-3.9 8.3,-3.9 2.9,-0.1 5.8,1.2 8.5,3.7 -2.1,2.3 -3.8,5.2 -4.7,8.3 -2.7,0.5 -5.6,-0.1 -8,-1.8 z"
   id="path2" />
	<path
   fill="#2c3136"
   d="M 76.1,77.1 C 72.8,80.3 68.5,82 63.9,82 54.6,82 47,74.8 46.5,65.6 46.3,56.2 39.3,46 35.6,42 c -1.1,-1.2 -2.9,-1.3 -4.1,-0.2 -1.2,1.1 -1.3,2.9 -0.2,4.1 3.6,3.9 9.3,12.8 9.4,19.9 0.7,12.4 10.9,22 23.3,22 6.1,0 11.8,-2.3 16.2,-6.6 1.1,-1.1 1.2,-2.9 0.1,-4.1 -1.2,-1 -3,-1.1 -4.2,0 z"
   id="path4" />
	
		<ellipse
   transform="matrix(-0.7071,0.7071,-0.7071,-0.7071,152.7428,51.9663)"
   fill="#2c3136"
   cx="65.599998"
   cy="57.599998"
   rx="10.2"
   ry="14.2"
   id="ellipse6" />
</g>
<path
   style="fill:#00ff00;stroke:#000000;stroke-width:0.200716"
   d="M 61.222445,96.074068 C 50.131192,95.237415 40.079088,88.392515 35.19229,78.349046 33.40629,74.678411 32.420342,70.993198 32.066894,66.667128 31.83107,63.780737 31.26993,61.880072 29.8023,58.996625 28.509755,56.457166 26.930096,54.065346 25.051723,51.803607 24.233703,50.818635 23.260056,49.339505 22.743206,48.296593 21.868531,46.531655 21.042084,43.854371 21.042084,42.785787 v -0.536871 l -1.853707,-0.02307 C 12.054362,42.137038 5.4760649,36.874274 3.9321349,30.020559 3.4413899,27.842076 3.5003992,26.799377 4.1743473,25.740637 c 1.2345,-1.939339 4.6957339,-4.601641 7.4908997,-5.761828 2.864069,-1.188786 6.663455,-1.575719 9.276637,-0.944741 0.661322,0.159683 1.33507,0.293544 1.497216,0.29747 0.440932,0.01068 -2.048317,-2.444166 -4.099275,-4.042616 -3.987948,-3.108077 -7.8704,-4.917336 -11.3257969,-5.27793 C 6.2975952,9.9362282 5.4719269,9.7354401 5.1792096,9.5647972 4.5274833,9.1848659 3.8076152,7.9528727 3.8076152,7.2174299 c 0,-0.8503113 0.5785973,-1.8601488 1.3328967,-2.3263314 1.9935917,-1.2321074 7.7694421,0.3334375 13.0436401,3.5354797 6.108231,3.7083948 11.347257,9.3180828 13.108864,14.0363168 0.243216,0.651419 0.466453,1.217304 0.496082,1.257521 0.02963,0.04022 0.727878,-0.207467 1.551661,-0.550409 2.376022,-0.989141 4.5249,-1.423712 7.040002,-1.423712 4.165205,0 6.943848,1.026752 11.428984,4.223186 3.640143,2.594232 6.075295,4.10393 8.451525,5.239609 2.200044,1.051477 3.542836,1.376741 7.1736,1.737665 4.670248,0.464257 9.871955,2.359918 13.859955,5.050992 9.282926,6.264054 14.514602,16.602297 14.034666,27.733716 C 94.553475,83.73005 79.157266,97.426956 61.222445,96.074068 Z M 68.429038,90.1571 c 6.888948,-1.11978 13.34313,-5.384234 17.253088,-11.399585 1.380225,-2.123431 1.922912,-3.232461 2.75094,-5.621784 1.880256,-5.425579 1.893379,-11.824877 0.03536,-17.239154 C 86.355982,49.740938 81.775687,44.404288 75.943641,41.303551 72.742186,39.601427 69.526609,38.748513 64.228457,38.196166 63.124348,38.08106 61.516473,37.748054 60.647839,37.454585 57.65196,36.442423 53.394411,33.997721 48.296593,30.362449 c -3.510974,-2.50369 -5.240701,-3.098175 -8.617234,-2.96164 -2.426289,0.09811 -3.974319,0.54999 -6.027576,1.759483 -3.088547,1.819345 -5.449102,4.742782 -6.713739,8.314658 -0.450645,1.272809 -0.51888,5.215018 -0.110998,6.412825 0.531375,1.560469 1.455789,3.15861 2.589571,4.476892 3.497878,4.067086 6.767916,10.104239 7.731373,14.273677 0.167216,0.723636 0.394703,2.346882 0.505531,3.607215 0.576976,6.561421 2.841807,11.712818 7.117188,16.188172 6.130956,6.417722 14.627195,9.191357 23.658329,7.723369 z M 21.870755,35.397695 c 0.576452,-1.697878 1.71968,-3.839767 2.845042,-5.330318 0.569638,-0.754489 1.150964,-1.525473 1.291836,-1.713295 0.225022,-0.300022 0.09305,-0.467391 -1.086579,-1.378054 -1.576938,-1.217381 -3.333946,-2.088966 -4.903914,-2.432647 -1.557136,-0.340874 -4.39271,-0.161836 -5.866682,0.37042 -1.399456,0.505349 -3.371267,1.751503 -4.3195648,2.729898 -0.668981,0.690213 -0.675569,0.714307 -0.426234,1.558736 0.6722648,2.276781 2.5700968,4.731885 4.5636498,5.903705 1.844023,1.083924 3.353456,1.468653 5.552072,1.415134 l 1.985311,-0.04833 z"
   id="path840" /><path
   style="fill:#00ff00;stroke:#000000;stroke-width:0.200716"
   d="m 66.507253,69.467838 c -6.689096,-1.859331 -12.363888,-8.256314 -13.09226,-14.758419 -0.306007,-2.73169 0.699131,-5.545187 2.602533,-7.284789 5.561439,-5.082842 17.104745,-0.01204 20.761472,9.120198 1.36009,3.396666 1.416357,6.452266 0.166106,9.020643 -0.764186,1.56986 -2.382847,3.082581 -3.949781,3.691272 -1.607428,0.624421 -4.645489,0.723267 -6.48807,0.211095 z"
   id="path842" /><path
   style="fill:#00ff00;stroke:#000000;stroke-width:0.200716"
   d="M 60.039495,87.353381 C 51.028792,85.726174 43.740558,78.967379 41.484499,70.146277 41.2694,69.305246 40.959995,67.291505 40.796932,65.671293 40.62144,63.927585 40.287388,61.989439 39.978335,60.921844 38.788859,56.812918 36.088005,51.703179 33.106937,47.921862 32.257841,46.844831 31.36022,45.686128 31.112224,45.346966 c -1.598658,-2.186344 1.352463,-5.201896 3.693696,-3.774339 1.259515,0.767984 4.440726,5.009273 6.670236,8.892964 2.978528,5.188441 4.54796,9.961974 4.92025,14.965271 0.442113,5.941655 3.278869,10.857885 8.012412,13.885883 2.785968,1.782155 5.137855,2.51378 8.617234,2.680648 4.850772,0.232637 8.989794,-1.164485 12.506465,-4.221545 1.36688,-1.188235 2.115812,-1.462846 3.355351,-1.230307 1.389194,0.260615 2.336831,1.820249 1.982459,3.262762 -0.16906,0.68817 -2.415295,2.902523 -4.01662,3.959607 -3.984322,2.630174 -8.363589,3.927531 -13.126252,3.888651 -1.157315,-0.0094 -2.816896,-0.145878 -3.68796,-0.30318 z"
   id="path844" /></svg>
