<?xml version="1.0" encoding="utf-8"?>
<!-- Generator: Adobe Illustrator 18.0.0, SVG Export Plug-In . SVG Version: 6.00 Build 0)  -->
<!DOCTYPE svg PUBLIC "-//W3C//DTD SVG 1.1//EN" "http://www.w3.org/Graphics/SVG/1.1/DTD/svg11.dtd">
<svg version="1.1" id="Layer_1" xmlns="http://www.w3.org/2000/svg" xmlns:xlink="http://www.w3.org/1999/xlink" x="0px" y="0px"
	 viewBox="0 0 100 100" enable-background="new 0 0 100 100" xml:space="preserve">
<g>
	<path fill="#2C3136" d="M71.2,36.2c-0.1-0.1-11.2-6.9-11.2-19.3l0.2-9.4c0-1.4-0.7-2.8-2-3.5c-1.3-0.8-2.9-0.8-4.2,0l-11.7,6.8
		c-1.7,1-2.4,2.9-1.8,4.7c0.4,1.3,1.9,8.6-12.2,21.2c-1.1,0.9-13.9,11.8-13.9,23.9c0,9.1,3.7,23.7,26.3,26.8l-1.5,1.7
		c-0.9,1-0.8,2.6,0.2,3.5c0.5,0.4,1.1,0.6,1.6,0.6c0.7,0,1.4-0.3,1.8-0.8l3.9-4.4c0.1,0,0.2,0,0.3,0v6.1c0,1.4,1.1,2.5,2.5,2.5
		c1.4,0,2.5-1.1,2.5-2.5v-6.1c0.1,0,0.2,0,0.3,0l3.9,4.4c0.5,0.5,1.2,0.8,1.8,0.8c0.6,0,1.2-0.2,1.6-0.6c1-0.9,1.1-2.5,0.2-3.5
		l-1.4-1.6c8.3-1,14.9-3.7,19.7-7.8c5.3-4.7,8.1-11.1,8.1-18.6C86.5,45.8,71.9,36.6,71.2,36.2z M49.9,81.6
		c-19.4,0-29.3-7.1-29.3-21.2c0-9.5,11.6-19.1,11.7-19.2c0,0,0.1-0.1,0.1-0.1c13.9-12.4,15.1-21.4,14.4-25.9L54,11l-0.1,5.7
		c0,0,0,0,0,0.1c0,15.9,13.6,24.3,14.1,24.6c0.1,0.1,12.3,7.8,12.3,19.4C80.3,68.6,76.4,81.6,49.9,81.6z"/>
	<path fill="#2C3136" d="M49.2,41.9c-1,0-1.8,0.8-1.8,1.8v29c0,1,0.8,1.8,1.8,1.8c1,0,1.8-0.8,1.8-1.8v-29
		C51,42.7,50.2,41.9,49.2,41.9z"/>
	<path fill="#2C3136" d="M36.4,54.1c0.4-0.9,0.1-2-0.9-2.5c-0.9-0.4-2-0.1-2.5,0.9c-4,8.3-3.2,16.2,2.2,21.6
		c0.4,0.4,0.8,0.5,1.3,0.5c0.5,0,0.9-0.2,1.3-0.5c0.7-0.7,0.7-1.9,0-2.6C31.9,65.4,34.8,57.3,36.4,54.1z"/>
	<path fill="#2C3136" d="M69,63.6c-1-0.2-2,0.5-2.2,1.5c-0.4,2.4-1.7,4.6-3.5,6.5c-0.7,0.7-0.7,1.9,0,2.6c0.4,0.4,0.8,0.5,1.3,0.5
		c0.5,0,1-0.2,1.3-0.5c2.4-2.4,3.9-5.3,4.5-8.4C70.6,64.7,70,63.8,69,63.6z"/>
</g>
</svg>
