<?xml version="1.0" encoding="UTF-8" standalone="no"?>
<svg
   xmlns:dc="http://purl.org/dc/elements/1.1/"
   xmlns:cc="http://creativecommons.org/ns#"
   xmlns:rdf="http://www.w3.org/1999/02/22-rdf-syntax-ns#"
   xmlns:svg="http://www.w3.org/2000/svg"
   xmlns="http://www.w3.org/2000/svg"
   xmlns:sodipodi="http://sodipodi.sourceforge.net/DTD/sodipodi-0.dtd"
   xmlns:inkscape="http://www.inkscape.org/namespaces/inkscape"
   version="1.1"
   id="Layer_1"
   x="0px"
   y="0px"
   viewBox="0 0 100 100"
   enable-background="new 0 0 100 100"
   xml:space="preserve"
   sodipodi:docname="Ajo color.svg"
   inkscape:version="1.0.1 (3bc2e813f5, 2020-09-07)"><metadata
   id="metadata17"><rdf:RDF><cc:Work
       rdf:about=""><dc:format>image/svg+xml</dc:format><dc:type
         rdf:resource="http://purl.org/dc/dcmitype/StillImage" /><dc:title></dc:title></cc:Work></rdf:RDF></metadata><defs
   id="defs15" /><sodipodi:namedview
   pagecolor="#ffffff"
   bordercolor="#666666"
   borderopacity="1"
   objecttolerance="10"
   gridtolerance="10"
   guidetolerance="10"
   inkscape:pageopacity="0"
   inkscape:pageshadow="2"
   inkscape:window-width="1920"
   inkscape:window-height="1017"
   id="namedview13"
   showgrid="false"
   inkscape:zoom="5.35"
   inkscape:cx="50"
   inkscape:cy="50"
   inkscape:window-x="-8"
   inkscape:window-y="-8"
   inkscape:window-maximized="1"
   inkscape:current-layer="Layer_1" />
<g
   id="g10"
   transform="translate(-89.906542,-1.1214953)">
	<path
   fill="#2c3136"
   d="M 71.2,36.2 C 71.1,36.1 60,29.3 60,16.9 L 60.2,7.5 C 60.2,6.1 59.5,4.7 58.2,4 56.9,3.2 55.3,3.2 54,4 l -11.7,6.8 c -1.7,1 -2.4,2.9 -1.8,4.7 0.4,1.3 1.9,8.6 -12.2,21.2 -1.1,0.9 -13.9,11.8 -13.9,23.9 0,9.1 3.7,23.7 26.3,26.8 l -1.5,1.7 c -0.9,1 -0.8,2.6 0.2,3.5 0.5,0.4 1.1,0.6 1.6,0.6 0.7,0 1.4,-0.3 1.8,-0.8 L 46.7,88 c 0.1,0 0.2,0 0.3,0 v 6.1 c 0,1.4 1.1,2.5 2.5,2.5 1.4,0 2.5,-1.1 2.5,-2.5 V 88 c 0.1,0 0.2,0 0.3,0 l 3.9,4.4 c 0.5,0.5 1.2,0.8 1.8,0.8 0.6,0 1.2,-0.2 1.6,-0.6 1,-0.9 1.1,-2.5 0.2,-3.5 l -1.4,-1.6 c 8.3,-1 14.9,-3.7 19.7,-7.8 C 83.4,75 86.2,68.6 86.2,61.1 86.5,45.8 71.9,36.6 71.2,36.2 Z M 49.9,81.6 c -19.4,0 -29.3,-7.1 -29.3,-21.2 0,-9.5 11.6,-19.1 11.7,-19.2 0,0 0.1,-0.1 0.1,-0.1 C 46.3,28.7 47.5,19.7 46.8,15.2 L 54,11 53.9,16.7 c 0,0 0,0 0,0.1 0,15.9 13.6,24.3 14.1,24.6 0.1,0.1 12.3,7.8 12.3,19.4 0,7.8 -3.9,20.8 -30.4,20.8 z"
   id="path2" />
	<path
   fill="#2c3136"
   d="m 49.2,41.9 c -1,0 -1.8,0.8 -1.8,1.8 v 29 c 0,1 0.8,1.8 1.8,1.8 1,0 1.8,-0.8 1.8,-1.8 v -29 c 0,-1 -0.8,-1.8 -1.8,-1.8 z"
   id="path4" />
	<path
   fill="#2c3136"
   d="m 36.4,54.1 c 0.4,-0.9 0.1,-2 -0.9,-2.5 -0.9,-0.4 -2,-0.1 -2.5,0.9 -4,8.3 -3.2,16.2 2.2,21.6 0.4,0.4 0.8,0.5 1.3,0.5 0.5,0 0.9,-0.2 1.3,-0.5 0.7,-0.7 0.7,-1.9 0,-2.6 -5.9,-6.1 -3,-14.2 -1.4,-17.4 z"
   id="path6" />
	<path
   fill="#2c3136"
   d="m 69,63.6 c -1,-0.2 -2,0.5 -2.2,1.5 -0.4,2.4 -1.7,4.6 -3.5,6.5 -0.7,0.7 -0.7,1.9 0,2.6 0.4,0.4 0.8,0.5 1.3,0.5 0.5,0 1,-0.2 1.3,-0.5 2.4,-2.4 3.9,-5.3 4.5,-8.4 0.2,-1.1 -0.4,-2 -1.4,-2.2 z"
   id="path8" />
</g>
<path
   style="fill:#e3dbdb;stroke:#000000;stroke-width:0.115389"
   d="m 48.302466,96.57914 c -0.547239,-0.174272 -1.337841,-0.989545 -1.489599,-1.536085 -0.07404,-0.266646 -0.123458,-1.745599 -0.123844,-3.706318 -5.76e-4,-3.117822 -0.01016,-3.260987 -0.215088,-3.225806 -0.117944,0.02025 -1.129071,1.073681 -2.246949,2.340962 -2.343217,2.656386 -2.619949,2.864008 -3.728633,2.797446 -1.215944,-0.073 -2.053519,-0.880781 -2.192587,-2.114587 -0.08631,-0.765732 0.21522,-1.398926 1.184658,-2.487707 0.470188,-0.528071 0.856386,-0.995835 0.858219,-1.039476 0.0018,-0.04364 -0.242924,-0.112855 -0.543904,-0.153811 C 38.47957,87.273436 35.206173,86.565946 33.72755,86.140275 23.464732,83.185788 17.09478,76.969192 14.889798,67.75604 14.324296,65.393183 14.154895,63.869818 14.15315,61.131616 c -0.0014,-2.260861 0.02573,-2.605169 0.311409,-3.946536 0.724846,-3.403377 2.075135,-6.485961 4.359026,-9.951246 2.173925,-3.298438 5.115437,-6.69143 8.161301,-9.413943 2.407638,-2.152044 3.854871,-3.540907 5.343738,-5.128216 4.311456,-4.596524 7.038808,-9.067063 7.858337,-12.880995 0.258323,-1.202193 0.263811,-3.213642 0.0113,-4.145001 -0.424974,-1.567512 -0.131357,-2.853872 0.884944,-3.877013 0.475143,-0.478342 1.839877,-1.320529 6.755213,-4.1686898 3.387877,-1.9630841 6.446231,-3.6665071 6.796341,-3.7853844 1.833837,-0.622665 4.124496,0.5163038 4.834089,2.4036216 0.296697,0.7891288 0.293177,0.6356353 0.172942,7.5431726 -0.08602,4.94202 -0.02508,5.866209 0.538194,8.161559 1.402807,5.716478 5.331498,10.990614 10.990549,14.754446 1.895627,1.260778 3.874428,2.898641 5.645265,4.672611 4.992869,5.001701 7.987329,10.639989 8.753038,16.481155 0.201172,1.534621 0.228224,4.441367 0.05749,6.177239 -1.246729,12.675717 -10.753733,21.121442 -26.374276,23.430085 -0.661983,0.09784 -1.224864,0.199146 -1.250847,0.22513 -0.02598,0.02598 0.326518,0.471398 0.783337,0.989812 0.952003,1.080364 1.152681,1.480403 1.152681,2.297793 0,0.924963 -0.62086,1.879241 -1.41879,2.180721 -0.558908,0.21117 -1.471357,0.145706 -1.979827,-0.142043 -0.274477,-0.155331 -1.287068,-1.191149 -2.504029,-2.561469 -1.146745,-1.291254 -2.145054,-2.316832 -2.275346,-2.337494 -0.228325,-0.03621 -0.232146,0.01933 -0.232146,3.374406 0,3.149352 -0.01717,3.444869 -0.223628,3.849565 -0.572729,1.122642 -1.793484,1.628777 -3.000995,1.244238 z m 6.738449,-14.944072 c 10.413237,-0.884665 17.348229,-3.894243 21.42246,-9.296706 0.848752,-1.125452 2.098094,-3.539068 2.528947,-4.885702 1.271321,-3.973506 1.292432,-8.286913 0.05885,-12.023809 -0.715826,-2.168458 -2.288392,-4.9588 -4.025531,-7.142857 -1.62578,-2.044047 -4.376052,-4.628742 -6.558438,-6.163594 -3.414918,-2.401682 -5.254275,-3.950766 -7.059681,-5.94558 -4.492944,-4.964304 -7.089601,-10.592845 -7.700324,-16.691296 -0.09081,-0.906761 -0.118576,-2.578541 -0.08085,-4.867511 0.0316,-1.917518 0.03503,-3.486397 0.0076,-3.486397 -0.03662,0 -7.159422,4.120506 -7.248273,4.193094 -0.0081,0.0066 0.02554,0.478565 0.07467,1.048842 0.251966,2.924544 -0.508694,6.240124 -2.246622,9.792627 -2.404031,4.914086 -6.171871,9.558013 -12.214312,15.054348 -6.499407,5.912001 -10.074574,10.9766 -11.413841,16.168902 -0.369628,1.433037 -0.486574,3.750025 -0.290641,5.758316 1.129476,11.576995 9.509189,17.693704 25.486495,18.603676 2.06997,0.117892 7.271559,0.05253 9.259462,-0.116353 z"
   id="path842" /><path
   style="fill:#e3dbdb;stroke:#000000;stroke-width:0.115389"
   d="m 35.687982,74.350556 c -0.81315,-0.4009 -2.624579,-2.80097 -3.553091,-4.707699 -0.697432,-1.4322 -1.08701,-2.682524 -1.377938,-4.422404 -0.285484,-1.707319 -0.185536,-4.715518 0.220532,-6.637504 0.496479,-2.349911 1.776025,-5.806314 2.400416,-6.48418 1.089948,-1.183295 3.085233,-0.443502 3.085233,1.143912 0,0.348643 -0.158469,0.868656 -0.504928,1.656909 -2.767064,6.295548 -2.249073,12.020954 1.473947,16.291669 0.721722,0.827894 0.916338,1.338576 0.764225,2.00536 -0.244542,1.071943 -1.501687,1.650267 -2.508396,1.153937 z"
   id="path844" /><path
   style="fill:#e3dbdb;stroke:#000000;stroke-width:0.115389"
   d="M 48.323957,74.164355 C 48.11208,74.02157 47.832235,73.723471 47.702081,73.501912 47.466654,73.101147 47.465438,73.02243 47.465438,58.179724 c 0,-14.750619 0.0026,-14.923916 0.232347,-15.322581 0.303595,-0.526873 1.173176,-0.975611 1.698271,-0.876374 0.625386,0.11819 1.120746,0.497773 1.362335,1.043927 0.218989,0.495061 0.223563,0.857832 0.193776,15.368688 l -0.03051,14.861659 -0.241008,0.325243 c -0.624264,0.842455 -1.610556,1.086891 -2.356694,0.584069 z"
   id="path846" /><path
   style="fill:#e3dbdb;stroke:#000000;stroke-width:0.115389"
   d="M 63.792417,74.462778 C 63.345783,74.242641 62.9865,73.774664 62.888699,73.28566 c -0.134828,-0.674137 0.05213,-1.129686 0.844786,-2.058382 1.568561,-1.837778 2.525562,-3.601759 3.002607,-5.534523 0.269573,-1.092178 0.465106,-1.44173 0.983301,-1.757828 0.583987,-0.356231 1.026426,-0.39131 1.620578,-0.128488 1.132697,0.501045 1.267389,1.556971 0.49231,3.859486 -0.766826,2.277997 -2.059335,4.451122 -3.625013,6.094818 -0.839191,0.881008 -1.601879,1.102733 -2.414851,0.702035 z"
   id="path848" /></svg>
