<?xml version="1.0" encoding="utf-8"?>
<!-- Generator: Adobe Illustrator 18.0.0, SVG Export Plug-In . SVG Version: 6.00 Build 0)  -->
<!DOCTYPE svg PUBLIC "-//W3C//DTD SVG 1.1//EN" "http://www.w3.org/Graphics/SVG/1.1/DTD/svg11.dtd">
<svg version="1.1" id="Layer_1" xmlns="http://www.w3.org/2000/svg" xmlns:xlink="http://www.w3.org/1999/xlink" x="0px" y="0px"
	 viewBox="0 0 100 100" enable-background="new 0 0 100 100" xml:space="preserve">
<g>
	<path fill="#2C3136" d="M95.3,55.3c-0.6-2.1-2.1-3.7-4.1-4.3c-6.8-2.1-12.3-2.7-16.8-2.3c6.4-10.4,5-23.9,3.4-31.2
		c-0.4-2-1.8-3.7-3.8-4.5c-1.9-0.8-4.1-0.5-5.8,0.7C58.4,20.5,51.8,28,48.6,35.8C41,23.3,22.1,18,11.3,16c-2.1-0.4-4.2,0.3-5.7,1.9
		c-1.5,1.6-2,3.7-1.4,5.8c4.7,17.4,12.3,28.9,22.6,34.3c4.8,2.4,9.3,3.1,13,3.1c2.4,0,4.4-0.3,5.8-0.6c0.5,2.9,0.4,5.9-0.6,9
		c-0.9,1.9-1.9,3.7-2.9,5.6c-0.5,0.7-1.1,1.4-1.7,2.1c-0.6,0.7-0.5,1.8,0.2,2.4c0.1,0.1,0.2,0.1,0.3,0.2c0,0,0.1,0.1,0.1,0.1
		c0,0,0,0,0.1,0.1c0,0,0,0,0,0.1c0,0,0,0,0.1,0c0.1,0,0.1,0.1,0.2,0.1c0,0,0.1,0.1,0.1,0.1c0,0,0,0,0.1,0c0,0,0.1,0,0.1,0
		c0.1,0,0.1,0.1,0.2,0.1c0.1,0,0.1,0,0.2,0c0.1,0,0.1,0,0.2,0c0,0,0.1,0,0.1,0c0,0,0,0,0.1,0c0,0,0,0,0,0c0.1,0,0.2,0,0.3,0
		c0,0,0,0,0.1,0c0.1,0,0.2-0.1,0.3-0.1c0,0,0,0,0,0c0.1,0,0.2-0.1,0.3-0.1c0,0,0,0,0,0c0.1-0.1,0.2-0.1,0.3-0.2
		c3.2-3.4,6.7-4.8,10.1-5.2c0.2,2.4,1.1,6.9,4.9,11c4.8,5.1,12.4,7.7,22.7,7.8c0,0,0,0,0,0c2.2,0,4.2-1.1,5.3-3.1
		c1.1-1.9,1.1-4.2,0-6.2c-2.3-4.1-5.6-8.8-9.6-12.2c7.2-1.6,13.1-6.6,17-10.9C95.4,59.5,95.9,57.3,95.3,55.3z M82.9,54.8
		c-4.9,0.4-11.7,1.4-18.5,3.8C67.5,55.7,73.2,53.1,82.9,54.8z M54.6,70.9l-0.3,0.2c-2,0.1-3.9,0.5-5.7,1.1c2.4-2.6,5.3-4.8,8.3-6.6
		c0.9,0.8,1.8,1.5,2.7,2.2C57.9,68.7,56.3,69.6,54.6,70.9z M52.5,61.7l0.3-0.1c1-0.1,1.9-0.3,2.9-0.5c-0.2,0.5-0.4,0.9-0.4,1
		l-0.3,0.8c-1.6,0.9-3.2,2-4.6,3.2C51.1,64.6,51.8,63.1,52.5,61.7z M71.6,18.3c0.1-0.1,0.2-0.1,0.3-0.1c0.1,0,0.1,0,0.2,0
		c0.1,0,0.3,0.1,0.3,0.4c1.4,6.7,2.8,19.2-3.3,28c-3,4.3-7.5,7.2-13.5,8.7c1.5-3,3-5.9,4.6-8.8c0.5-0.8,0.2-1.9-0.6-2.3
		c-0.8-0.5-1.9-0.2-2.3,0.6c-1.5,2.6-2.9,5.4-4.3,8.2C50.9,46.5,50.5,33,71.6,18.3z M29.3,52.8c-8.8-4.6-15.4-14.9-19.6-30.6
		c0-0.2,0-0.3,0.1-0.5c0.1-0.1,0.2-0.2,0.4-0.2c0,0,0.1,0,0.1,0c8.1,1.6,27.6,6.4,34,18c2,3.6,2.5,7.5,1.6,11.9
		c-1.3-2.3-2.8-4.7-4.8-7c-0.6-0.7-1.7-0.8-2.4-0.2c-0.7,0.6-0.8,1.7-0.2,2.4c2,2.4,4,5.2,5.4,8.4C40.9,55.6,35.3,55.9,29.3,52.8z
		 M48.8,59.5l0.4-0.2l0.1-0.1c0.1,0.2,0.2,0.4,0.3,0.6c-0.1,0.1-0.1,0.2-0.2,0.4c-0.1,0.3-0.3,0.6-0.4,0.8
		C49,60.5,48.9,60,48.8,59.5z M81.5,87c0.1,0.2,0.1,0.3,0,0.5c-0.1,0.2-0.3,0.2-0.4,0.2c-8.6,0-14.8-2-18.5-5.9
		c-2.3-2.5-3.1-5.2-3.4-6.8c3.2,0.7,6,2,7.7,3c1.8,1,3.7,2.3,5.5,3.7c0.3,0.2,0.7,0.4,1,0.4c0.5,0,1-0.2,1.3-0.7
		c0.6-0.7,0.4-1.8-0.3-2.4c-2-1.5-3.9-2.9-5.9-4c-1.7-0.9-3.3-1.7-4.9-2.3c1-0.2,2-0.1,3,0.1C73.3,74,78.8,82.2,81.5,87z M72.8,66.8
		c-3.5,0.1-7-1.2-10.3-3.7c11-4.6,22.8-5.1,26.6-5.2C85.8,61.4,79.7,66.6,72.8,66.8z"/>
	<path fill="#2C3136" d="M35,38.5c-5.7-4.5-10.7-8.2-16.1-11.3c-0.8-0.5-1.9-0.2-2.3,0.6c-0.5,0.8-0.2,1.9,0.6,2.3
		c5.2,3,10.1,6.6,15.7,11c0.3,0.2,0.7,0.4,1.1,0.4c0.5,0,1-0.2,1.3-0.6C35.9,40.1,35.7,39,35,38.5z"/>
	<path fill="#2C3136" d="M61,40.8c0.2,0.1,0.5,0.2,0.7,0.2c0.6,0,1.2-0.4,1.5-1c2-4.1,4-8.2,6-12.4c0.4-0.8,0.1-1.9-0.8-2.3
		c-0.8-0.4-1.9-0.1-2.3,0.8c-2,4.1-4,8.2-6,12.4C59.8,39.4,60.2,40.4,61,40.8z"/>
</g>
</svg>
