<?xml version="1.0" encoding="UTF-8" standalone="no"?>
<svg
   xmlns:dc="http://purl.org/dc/elements/1.1/"
   xmlns:cc="http://creativecommons.org/ns#"
   xmlns:rdf="http://www.w3.org/1999/02/22-rdf-syntax-ns#"
   xmlns:svg="http://www.w3.org/2000/svg"
   xmlns="http://www.w3.org/2000/svg"
   xmlns:sodipodi="http://sodipodi.sourceforge.net/DTD/sodipodi-0.dtd"
   xmlns:inkscape="http://www.inkscape.org/namespaces/inkscape"
   version="1.1"
   id="Layer_1"
   x="0px"
   y="0px"
   viewBox="0 0 100 100"
   enable-background="new 0 0 100 100"
   xml:space="preserve"
   sodipodi:docname="Alfalfa color.svg"
   inkscape:version="1.0.1 (3bc2e813f5, 2020-09-07)"><metadata
   id="metadata15"><rdf:RDF><cc:Work
       rdf:about=""><dc:format>image/svg+xml</dc:format><dc:type
         rdf:resource="http://purl.org/dc/dcmitype/StillImage" /><dc:title></dc:title></cc:Work></rdf:RDF></metadata><defs
   id="defs13" /><sodipodi:namedview
   pagecolor="#ffffff"
   bordercolor="#666666"
   borderopacity="1"
   objecttolerance="10"
   gridtolerance="10"
   guidetolerance="10"
   inkscape:pageopacity="0"
   inkscape:pageshadow="2"
   inkscape:window-width="1920"
   inkscape:window-height="1017"
   id="namedview11"
   showgrid="false"
   inkscape:zoom="4.06"
   inkscape:cx="14.753613"
   inkscape:cy="50"
   inkscape:window-x="-8"
   inkscape:window-y="-8"
   inkscape:window-maximized="1"
   inkscape:current-layer="Layer_1" />
<g
   id="g8"
   transform="translate(-101.72414,-0.24630542)">
	<path
   fill="#2C3136"
   d="M 95.3,55.3 C 94.7,53.2 93.2,51.6 91.2,51 84.4,48.9 78.9,48.3 74.4,48.7 80.8,38.3 79.4,24.8 77.8,17.5 77.4,15.5 76,13.8 74,13 72.1,12.2 69.9,12.5 68.2,13.7 58.4,20.5 51.8,28 48.6,35.8 41,23.3 22.1,18 11.3,16 9.2,15.6 7.1,16.3 5.6,17.9 c -1.5,1.6 -2,3.7 -1.4,5.8 4.7,17.4 12.3,28.9 22.6,34.3 4.8,2.4 9.3,3.1 13,3.1 2.4,0 4.4,-0.3 5.8,-0.6 0.5,2.9 0.4,5.9 -0.6,9 -0.9,1.9 -1.9,3.7 -2.9,5.6 -0.5,0.7 -1.1,1.4 -1.7,2.1 -0.6,0.7 -0.5,1.8 0.2,2.4 0.1,0.1 0.2,0.1 0.3,0.2 0,0 0.1,0.1 0.1,0.1 0,0 0,0 0.1,0.1 0,0 0,0 0,0.1 0,0 0,0 0.1,0 0.1,0 0.1,0.1 0.2,0.1 0,0 0.1,0.1 0.1,0.1 0,0 0,0 0.1,0 0,0 0.1,0 0.1,0 0.1,0 0.1,0.1 0.2,0.1 0.1,0 0.1,0 0.2,0 0.1,0 0.1,0 0.2,0 0,0 0.1,0 0.1,0 0,0 0,0 0.1,0 0,0 0,0 0,0 0.1,0 0.2,0 0.3,0 0,0 0,0 0.1,0 0.1,0 0.2,-0.1 0.3,-0.1 0,0 0,0 0,0 0.1,0 0.2,-0.1 0.3,-0.1 0,0 0,0 0,0 0.1,-0.1 0.2,-0.1 0.3,-0.2 3.2,-3.4 6.7,-4.8 10.1,-5.2 0.2,2.4 1.1,6.9 4.9,11 4.8,5.1 12.4,7.7 22.7,7.8 0,0 0,0 0,0 2.2,0 4.2,-1.1 5.3,-3.1 1.1,-1.9 1.1,-4.2 0,-6.2 -2.3,-4.1 -5.6,-8.8 -9.6,-12.2 7.2,-1.6 13.1,-6.6 17,-10.9 1.2,-1.7 1.7,-3.9 1.1,-5.9 z M 82.9,54.8 c -4.9,0.4 -11.7,1.4 -18.5,3.8 3.1,-2.9 8.8,-5.5 18.5,-3.8 z m -28.3,16.1 -0.3,0.2 c -2,0.1 -3.9,0.5 -5.7,1.1 2.4,-2.6 5.3,-4.8 8.3,-6.6 0.9,0.8 1.8,1.5 2.7,2.2 -1.7,0.9 -3.3,1.8 -5,3.1 z m -2.1,-9.2 0.3,-0.1 c 1,-0.1 1.9,-0.3 2.9,-0.5 -0.2,0.5 -0.4,0.9 -0.4,1 L 55,62.9 c -1.6,0.9 -3.2,2 -4.6,3.2 0.7,-1.5 1.4,-3 2.1,-4.4 z M 71.6,18.3 c 0.1,-0.1 0.2,-0.1 0.3,-0.1 0.1,0 0.1,0 0.2,0 0.1,0 0.3,0.1 0.3,0.4 1.4,6.7 2.8,19.2 -3.3,28 -3,4.3 -7.5,7.2 -13.5,8.7 1.5,-3 3,-5.9 4.6,-8.8 0.5,-0.8 0.2,-1.9 -0.6,-2.3 C 58.8,43.7 57.7,44 57.3,44.8 55.8,47.4 54.4,50.2 53,53 50.9,46.5 50.5,33 71.6,18.3 Z M 29.3,52.8 C 20.5,48.2 13.9,37.9 9.7,22.2 c 0,-0.2 0,-0.3 0.1,-0.5 0.1,-0.1 0.2,-0.2 0.4,-0.2 0,0 0.1,0 0.1,0 8.1,1.6 27.6,6.4 34,18 2,3.6 2.5,7.5 1.6,11.9 -1.3,-2.3 -2.8,-4.7 -4.8,-7 -0.6,-0.7 -1.7,-0.8 -2.4,-0.2 -0.7,0.6 -0.8,1.7 -0.2,2.4 2,2.4 4,5.2 5.4,8.4 -3,0.6 -8.6,0.9 -14.6,-2.2 z m 19.5,6.7 0.4,-0.2 0.1,-0.1 c 0.1,0.2 0.2,0.4 0.3,0.6 -0.1,0.1 -0.1,0.2 -0.2,0.4 -0.1,0.3 -0.3,0.6 -0.4,0.8 0,-0.5 -0.1,-1 -0.2,-1.5 z M 81.5,87 c 0.1,0.2 0.1,0.3 0,0.5 -0.1,0.2 -0.3,0.2 -0.4,0.2 -8.6,0 -14.8,-2 -18.5,-5.9 -2.3,-2.5 -3.1,-5.2 -3.4,-6.8 3.2,0.7 6,2 7.7,3 1.8,1 3.7,2.3 5.5,3.7 0.3,0.2 0.7,0.4 1,0.4 0.5,0 1,-0.2 1.3,-0.7 0.6,-0.7 0.4,-1.8 -0.3,-2.4 -2,-1.5 -3.9,-2.9 -5.9,-4 -1.7,-0.9 -3.3,-1.7 -4.9,-2.3 1,-0.2 2,-0.1 3,0.1 6.7,1.2 12.2,9.4 14.9,14.2 z M 72.8,66.8 c -3.5,0.1 -7,-1.2 -10.3,-3.7 11,-4.6 22.8,-5.1 26.6,-5.2 -3.3,3.5 -9.4,8.7 -16.3,8.9 z"
   id="path2" />
	<path
   fill="#2C3136"
   d="M 35,38.5 C 29.3,34 24.3,30.3 18.9,27.2 18.1,26.7 17,27 16.6,27.8 c -0.5,0.8 -0.2,1.9 0.6,2.3 5.2,3 10.1,6.6 15.7,11 0.3,0.2 0.7,0.4 1.1,0.4 0.5,0 1,-0.2 1.3,-0.6 0.6,-0.8 0.4,-1.9 -0.3,-2.4 z"
   id="path4" />
	<path
   fill="#2C3136"
   d="m 61,40.8 c 0.2,0.1 0.5,0.2 0.7,0.2 0.6,0 1.2,-0.4 1.5,-1 2,-4.1 4,-8.2 6,-12.4 0.4,-0.8 0.1,-1.9 -0.8,-2.3 -0.8,-0.4 -1.9,-0.1 -2.3,0.8 -2,4.1 -4,8.2 -6,12.4 -0.3,0.9 0.1,1.9 0.9,2.3 z"
   id="path6" />
</g>
<path
   style="fill:#ff2a2a;stroke:#000000;stroke-width:0.246693"
   d="M 77.932983,93.37565 C 77.594313,93.326729 76.319682,93.163591 75.10047,93.013118 63.915852,91.632744 56.151864,85.391983 54.505904,76.459027 c -0.347064,-1.883581 -0.344801,-1.882544 -2.7492,-1.259502 -2.543635,0.659123 -6.075763,2.736318 -7.667315,4.509044 -1.040603,1.159062 -3.656406,0.258746 -3.656406,-1.258473 0,-0.389431 0.441529,-1.213889 1.113827,-2.07983 1.470857,-1.894512 3.763596,-6.483527 4.231897,-8.47033 0.39799,-1.688497 0.513726,-6.536052 0.169027,-7.079559 -0.166219,-0.262086 -0.613202,-0.267429 -2.397707,-0.02865 -1.301507,0.17415 -3.34517,0.234719 -5.025911,0.148953 C 26.660349,60.335288 16.830285,52.659948 10.076521,38.728727 7.0895525,32.567402 4.0974758,23.494778 4.3778601,21.449152 4.6684639,19.328965 6.2100084,17.338575 8.2106364,16.5004 c 1.371211,-0.574477 4.2063026,-0.260311 9.3074796,1.031394 15.138751,3.833389 25.596167,9.88512 30.892869,17.877776 0.222261,0.335388 0.443936,0.554378 0.492611,0.486644 0.04868,-0.06773 0.564566,-1.083494 1.146426,-2.257246 3.018783,-6.089626 8.505537,-12.297376 15.550951,-17.594451 3.892313,-2.926423 4.408056,-3.180776 6.42068,-3.166517 1.897495,0.01344 3.209704,0.602908 4.426054,1.988253 1.109298,1.263421 1.352707,1.947666 2.004874,5.635873 0.770209,4.355779 0.83699,13.204465 0.128259,16.995074 -0.60916,3.258051 -1.909037,7.189985 -3.117862,9.431071 -0.53805,0.997507 -0.978271,1.856387 -0.978271,1.908623 0,0.05223 0.692734,0.03164 1.539409,-0.04577 1.978268,-0.180872 6.455007,0.273322 9.912938,1.005731 6.034214,1.278077 7.595771,2.043333 8.866185,4.344956 0.624278,1.131012 0.73631,1.599887 0.731108,3.059825 -0.008,2.252101 -0.724204,3.64351 -2.98265,5.794791 -4.63165,4.411872 -8.633936,6.991295 -13.017729,8.389766 -0.948276,0.302507 -1.819064,0.632618 -1.935084,0.733576 -0.11602,0.100958 0.26298,0.609572 0.842222,1.130251 2.407084,2.163722 6.607554,7.751951 8.406542,11.183917 0.664923,1.26849 0.813384,1.827805 0.808872,3.047372 -0.0094,2.544298 -1.629244,4.854192 -3.996436,5.69896 -0.845931,0.301882 -4.198124,0.416246 -5.727101,0.195384 z m 3.940886,-5.964019 c 0,-0.250264 -0.618421,-1.441766 -1.374266,-2.647784 C 75.492877,76.775205 69.879364,72.389394 64.987039,72.643961 l -1.439731,0.07491 3.067221,1.511455 c 3.611094,1.779466 8.036042,4.771995 8.375193,5.664025 0.158032,0.41566 0.142051,0.790029 -0.04924,1.153453 -0.659022,1.252037 -1.338571,1.197719 -3.377032,-0.269929 -2.262807,-1.62917 -3.80481,-2.578326 -5.834369,-3.591249 -1.915825,-0.956163 -5.214887,-2.12785 -5.991276,-2.12785 -0.484177,0 -0.487322,0.03458 -0.117569,1.293103 2.113008,7.191998 9.365904,11.310456 20.221614,11.482562 1.823495,0.02891 2.032019,-0.01448 2.032019,-0.42281 z M 50.885359,71.858532 c 1.126193,-0.269988 2.402535,-0.491662 2.836316,-0.492611 0.528941,-0.0012 1.299574,-0.356643 2.339901,-1.079374 0.853165,-0.592707 2.014749,-1.311567 2.581296,-1.597466 0.566547,-0.285899 1.090625,-0.617773 1.16462,-0.737497 0.07399,-0.119724 -0.512889,-0.726323 -1.304182,-1.347998 l -1.438717,-1.13032 -2.320128,1.577618 c -2.084667,1.41751 -6.498394,5.25818 -6.075854,5.286998 0.09302,0.0064 1.090556,-0.209365 2.216748,-0.47935 z M 76.075766,66.55902 c 3.574283,-0.757145 9.052453,-4.09552 12.325197,-7.510926 l 1.231527,-1.285212 -2.586207,0.163204 c -6.583813,0.415481 -12.573342,1.374579 -17.867138,2.86105 -2.918421,0.819477 -6.518261,2.148532 -6.514943,2.405307 0.0034,0.261422 2.698539,1.926895 4.061884,2.510037 2.860764,1.223629 6.180879,1.527791 9.34968,0.85654 z M 51.906308,65.358623 c 0.564672,-0.458236 1.589244,-1.176295 2.276825,-1.595682 0.959157,-0.585034 1.315618,-0.975837 1.531409,-1.678948 0.154692,-0.504032 0.253699,-0.943981 0.220017,-0.977663 -0.03368,-0.03368 -0.799842,0.06528 -1.702579,0.219909 l -1.64134,0.28115 -0.998778,2.14967 c -1.332783,2.86854 -1.320966,2.928722 0.314446,1.601564 z m -2.060872,-5.617822 c 0.01066,-0.509197 -0.285279,-0.72054 -0.673234,-0.480771 -0.186311,0.115147 -0.234606,0.513709 -0.135931,1.121778 0.150832,0.92947 0.157761,0.93469 0.476749,0.359333 0.178029,-0.321114 0.327618,-0.771266 0.332416,-1.00034 z m 17.95484,-1.924739 c 3.228859,-1.003131 8.779662,-2.126604 12.375544,-2.504791 1.611266,-0.169461 2.929576,-0.386527 2.929576,-0.482372 0,-0.310416 -3.247315,-0.584027 -6.40394,-0.539581 -4.540082,0.06392 -8.084739,1.122148 -11.022168,3.290559 -1.025332,0.756901 -1.416446,1.417293 -0.669667,1.130727 0.207421,-0.0796 1.463216,-0.482141 2.790655,-0.894542 z M 44.004222,55.145173 c 0.431935,-0.431936 -2.021441,-4.672897 -4.416008,-7.633606 -1.144869,-1.41555 -1.333598,-2.288621 -0.656465,-3.036845 0.817369,-0.903185 1.686541,-0.586333 3.096803,1.128921 0.714184,0.868643 1.926448,2.591227 2.693916,3.827966 0.767468,1.236738 1.468015,2.131115 1.556771,1.987504 0.08876,-0.14361 0.224534,-1.458357 0.301731,-2.92166 0.16469,-3.12181 -0.252138,-5.439936 -1.423554,-7.916894 -3.927239,-8.304145 -15.085483,-14.78816 -31.990338,-18.589472 -3.8036056,-0.855299 -3.7574946,-0.914131 -2.513411,3.20689 3.68637,12.211077 8.780606,20.669875 15.461362,25.673045 2.948429,2.208057 6.978579,3.915119 10.561796,4.473692 1.726054,0.269067 7.002478,0.125377 7.327397,-0.199541 z m 15.455854,-0.793121 c 6.166035,-2.37819 10.614074,-6.954907 12.693636,-13.06085 1.983581,-5.824127 2.308327,-13.094719 0.931315,-20.850653 -0.334308,-1.882959 -0.481672,-2.278325 -0.849209,-2.278325 -0.820902,0 -6.4645,4.511149 -9.696924,7.751133 -1.761084,1.765202 -3.949168,4.262414 -4.862409,5.54936 -4.133382,5.824788 -6.055328,12.151204 -5.374901,17.692421 0.315128,2.56631 0.719945,4.119495 0.997529,3.827256 0.111934,-0.117842 0.954727,-1.655145 1.872872,-3.416229 2.735672,-5.247251 3.233264,-5.837155 4.411244,-5.229589 1.315559,0.678525 1.189795,1.210143 -1.475783,6.238328 -1.285821,2.42549 -2.338776,4.505443 -2.339902,4.622121 -0.0031,0.323258 1.636261,-0.05189 3.692532,-0.844973 z"
   id="path876" /><path
   style="fill:#ff2a2a;stroke:#000000;stroke-width:0.246693"
   d="m 60.629307,40.313118 c -0.224198,-0.247736 -0.407632,-0.745876 -0.407632,-1.106978 0,-0.361102 1.429971,-3.589518 3.177714,-7.174258 2.744844,-5.629864 3.265142,-6.539653 3.819528,-6.678795 0.746774,-0.187428 1.752818,0.368298 1.983711,1.095776 0.101784,0.320694 -0.869339,2.600634 -2.966558,6.96469 -1.714833,3.568359 -3.288004,6.68189 -3.495936,6.918959 -0.492528,0.561543 -1.594246,0.551421 -2.110827,-0.01939 z"
   id="path878" /><path
   style="fill:#ff2a2a;stroke:#000000;stroke-width:0.246693"
   d="m 29.347932,38.194649 c -4.03884,-3.039077 -8.749681,-6.290281 -11.075431,-7.643749 -0.652096,-0.379486 -1.352043,-0.943957 -1.55544,-1.254379 -0.329265,-0.502522 -0.328628,-0.644045 0.0058,-1.290782 0.786282,-1.520502 1.508693,-1.253184 7.53821,2.789411 4.660946,3.125013 10.437862,7.535059 11.005652,8.401617 0.374219,0.571129 0.380088,0.706635 0.05576,1.28728 -0.246628,0.441532 -0.603728,0.67272 -1.117233,0.723301 -0.636163,0.06266 -1.399312,-0.410671 -4.857327,-3.012699 z"
   id="path880" /></svg>
