<?xml version="1.0" encoding="UTF-8" standalone="no"?>
<svg
   xmlns:dc="http://purl.org/dc/elements/1.1/"
   xmlns:cc="http://creativecommons.org/ns#"
   xmlns:rdf="http://www.w3.org/1999/02/22-rdf-syntax-ns#"
   xmlns:svg="http://www.w3.org/2000/svg"
   xmlns="http://www.w3.org/2000/svg"
   xmlns:sodipodi="http://sodipodi.sourceforge.net/DTD/sodipodi-0.dtd"
   xmlns:inkscape="http://www.inkscape.org/namespaces/inkscape"
   version="1.1"
   id="Layer_1"
   x="0px"
   y="0px"
   viewBox="0 0 100 100"
   enable-background="new 0 0 100 100"
   xml:space="preserve"
   sodipodi:docname="Algodón color.svg"
   inkscape:version="1.0.1 (3bc2e813f5, 2020-09-07)"><metadata
   id="metadata15"><rdf:RDF><cc:Work
       rdf:about=""><dc:format>image/svg+xml</dc:format><dc:type
         rdf:resource="http://purl.org/dc/dcmitype/StillImage" /><dc:title /></cc:Work></rdf:RDF></metadata><defs
   id="defs13" /><sodipodi:namedview
   pagecolor="#ffffff"
   bordercolor="#666666"
   borderopacity="1"
   objecttolerance="10"
   gridtolerance="10"
   guidetolerance="10"
   inkscape:pageopacity="0"
   inkscape:pageshadow="2"
   inkscape:window-width="1920"
   inkscape:window-height="1017"
   id="namedview11"
   showgrid="false"
   inkscape:zoom="8.5"
   inkscape:cx="26.470792"
   inkscape:cy="45.294118"
   inkscape:window-x="-8"
   inkscape:window-y="-8"
   inkscape:window-maximized="1"
   inkscape:current-layer="Layer_1"
   inkscape:document-rotation="0" />




<path
   style="fill:#ffd5d5;stroke:#ffffff;stroke-width:0.117647"
   d="m 40.635272,89.185544 c -6.485784,-0.67321 -11.952567,-4.446273 -14.178145,-9.785462 -0.323919,-0.777086 -0.333689,-0.786998 -0.69577,-0.705883 -0.201982,0.04525 -1.426063,0.08112 -2.72018,0.07972 -2.655722,-0.0029 -3.79548,-0.160784 -6.058824,-0.839369 -1.509041,-0.452433 -3.777211,-1.497447 -5.082237,-2.341541 -3.3386528,-2.159447 -5.9150698,-5.39256 -7.0788468,-8.883157 -1.248243,-3.743943 -0.920806,-8.093791 0.86594,-11.503606 l 0.462583,-0.882788 -0.400576,-0.911074 c -1.037036,-2.358645 -1.413461,-4.434205 -1.319873,-7.27762 0.09182,-2.789645 0.584823,-4.759723 1.779486,-7.110935 1.142096,-2.247755 2.828181,-4.264572 4.8159338,-5.760598 0.546717,-0.411472 0.898766,-0.760856 0.898766,-0.891965 0,-0.53223 0.656363,-2.424258 1.294895,-3.73266 2.704147,-5.541001 8.451922,-9.302548 15.352164,-10.046997 1.591426,-0.171694 4.12542,-0.07366 5.82353,0.225294 l 1.235294,0.217477 0.681223,-0.740414 c 4.846209,-5.267289 13.438505,-7.437644 20.848186,-5.266109 3.29148,0.964624 6.06867,2.615433 8.47059,5.035058 l 1.41177,1.422171 1,-0.265568 c 2.09679,-0.556842 3.00301,-0.667162 5.47058,-0.665974 2.75652,0.0013 4.27713,0.230736 6.58824,0.993946 7.719,2.549087 12.67107,9.0162 12.51712,16.346628 l -0.0284,1.352941 0.68573,1 c 2.5614,3.735287 3.28322,8.337572 2.00202,12.764706 -0.41325,1.427961 -1.41817,3.430432 -2.33207,4.647059 l -0.75118,1 -0.081,1.117647 c -0.12395,1.710259 -0.29592,2.654717 -0.71925,3.950101 -1.40554,4.301 -4.57232,7.828567 -9.04102,10.071065 -3.38948,1.700922 -7.84563,2.490179 -11.49314,2.035621 l -0.41767,-0.05205 -0.14363,1.137203 c -0.67125,5.314573 -4.85588,10.085067 -10.60054,12.084653 -1.96358,0.683478 -3.21193,0.900631 -5.59735,0.973668 -1.32152,0.04046 -2.503549,0.01355 -3.143171,-0.07157 l -1.025138,-0.136421 -1.386238,0.471587 c -2.365169,0.804612 -5.572212,1.187852 -7.909789,0.945215 z m 4.941625,-3.528006 c 1.261943,-0.257167 2.532008,-0.67801 3.46428,-1.14791 l 0.588235,-0.296492 1.352941,0.221229 c 4.977508,0.813907 9.825488,-0.666136 13.007638,-3.971116 1.29929,-1.349448 2.11157,-2.712013 2.6567,-4.456551 0.23375,-0.748036 0.27433,-1.12861 0.27549,-2.583168 7e-4,-0.938235 -0.0577,-1.984407 -0.12989,-2.324825 l -0.13123,-0.618942 0.89594,-0.629559 c 1.18604,-0.833405 2.65293,-2.382322 3.38918,-3.578683 0.32736,-0.531939 0.77233,-1.482996 0.98882,-2.113459 0.38365,-1.117254 0.39367,-1.195477 0.39572,-3.087473 0.002,-2.211454 -0.12448,-2.850771 -0.87548,-4.411765 -1.4503,-3.014528 -4.26963,-5.31575 -8.00116,-6.530787 l -1.35408,-0.440906 0.0588,-0.6318 c 0.0323,-0.34749 0.0551,-1.452389 0.0506,-2.45533 -0.01,-2.167823 -0.20678,-3.038905 -1.10566,-4.890165 -1.66189,-3.422704 -4.8106,-6.087801 -8.74959,-7.405728 -1.916634,-0.64128 -3.093889,-0.805319 -5.842363,-0.814073 -2.113058,-0.0067 -2.56302,0.02618 -3.633,0.265751 -2.338433,0.523573 -4.159081,1.299235 -6.079152,2.589936 -2.776669,1.866521 -4.636251,4.34007 -5.542115,7.371926 -0.28693,0.96033 -0.316659,1.239393 -0.319604,3 -0.003,1.824182 0.01961,2.025528 0.375937,3.340748 0.208551,0.769763 0.364873,1.41218 0.347382,1.42759 -0.01749,0.01541 -0.533935,0.279143 -1.147654,0.586069 -3.615231,1.808008 -5.858058,4.35616 -6.78126,7.704416 -0.294439,1.067866 -0.296344,3.861371 -0.0034,4.941177 0.326314,1.202684 1.273188,3.017289 2.129044,4.080137 0.722617,0.897384 2.061244,2.096619 2.880546,2.580591 0.446002,0.263461 0.478311,0.354035 0.354713,0.994379 -0.157253,0.814704 -0.123938,3.264028 0.05594,4.112476 1.047078,4.938931 5.73943,8.737238 11.629075,9.413363 1.243893,0.142797 3.461766,0.03138 4.798651,-0.241056 z M 25.452941,74.406811 v -1.016717 l -1.323529,-1.367482 c -1.479614,-1.528748 -2.212357,-2.554296 -2.970772,-4.157901 -2.055092,-4.345315 -1.663876,-9.118722 1.086066,-13.251632 1.124527,-1.690058 3.393056,-3.784697 4.990652,-4.608098 l 0.429474,-0.221352 -0.125653,-0.503579 c -0.214304,-0.858854 -0.170625,-4.124226 0.07047,-5.268285 0.43954,-2.085729 1.338578,-4.198264 2.574292,-6.049001 0.659237,-0.987342 2.995127,-3.26727 4.270698,-4.16838 1.332958,-0.941652 3.745898,-2.140655 5.351243,-2.659065 1.418286,-0.458003 3.307596,-0.844633 4.691279,-0.960028 0.525679,-0.04384 0.95578,-0.110759 0.95578,-0.148709 0,-0.03795 -0.194699,-0.387691 -0.432664,-0.777203 -1.474553,-2.413603 -3.834563,-4.506625 -6.4374,-5.70914 -1.176424,-0.54351 -3.225631,-1.187822 -4.732703,-1.488059 -1.495652,-0.297961 -4.854526,-0.296359 -6.456056,0.0031 -3.498979,0.654206 -6.399621,2.142858 -8.712427,4.471349 -2.123085,2.137482 -3.238489,4.307637 -3.607816,7.019446 -0.08315,0.610509 -0.203984,1.071928 -0.289293,1.104663 -0.468793,0.179893 -1.991451,1.306805 -2.791776,2.06618 -2.7774498,2.635338 -4.2053828,5.957401 -4.2228018,9.824279 -0.01154,2.561707 0.392924,4.235684 1.58464,6.558448 l 0.627709,1.223445 -0.676601,1.047493 c -1.218646,1.886671 -1.812942,3.695756 -1.932782,5.883554 -0.326097,5.953182 3.7005538,11.217939 10.2115738,13.3514 1.791613,0.587058 3.282235,0.7977 5.721338,0.808492 l 2.147059,0.0095 z m 51,-4.16515 c 5.95224,-1.148663 10.55231,-5.083629 11.90006,-10.17947 0.25175,-0.951874 0.31521,-1.483009 0.34287,-2.869601 l 0.0339,-1.701527 0.7267,-0.886708 c 1.45679,-1.777549 2.31,-3.507486 2.72851,-5.532197 0.33094,-1.601023 0.24945,-4.104366 -0.18004,-5.530981 -0.52817,-1.754386 -1.22974,-3.078259 -2.44816,-4.619674 l -0.48583,-0.614622 0.10274,-0.941676 c 0.30186,-2.76683 0.004,-4.945888 -0.95081,-6.962087 -1.97965,-4.179087 -5.8661,-7.055239 -11.0565,-8.182315 -2.26396,-0.491613 -7.72931,-0.288303 -8.23575,0.306369 -0.0686,0.08059 -0.85634,0.454935 -1.75046,0.831871 -4.66221,1.965456 -7.61085,5.079966 -8.83081,9.327567 l -0.17693,0.616022 0.72847,0.559731 c 4.24581,3.262335 6.78709,7.909879 6.78734,12.412841 l 5e-5,0.854208 1.26465,0.585666 c 4.95902,2.29653 8.25633,6.537288 8.96645,11.531981 0.51274,3.606415 -0.70135,7.531905 -3.28981,10.636859 l -0.629,0.754505 1.59441,-0.07647 c 0.87693,-0.04206 2.16299,-0.186191 2.85791,-0.320296 z m -21.1188,-40.053425 c 1.25157,-3.494931 4.21697,-6.941933 7.59924,-8.833408 0.41517,-0.232176 0.75485,-0.465935 0.75485,-0.519466 0,-0.193882 -1.93525,-1.889288 -2.86802,-2.512567 -3.29571,-2.20221 -6.97468,-3.122957 -11.131976,-2.786025 -1.67632,0.135859 -3.447818,0.504394 -4.711068,0.980072 -1.799152,0.677472 -3.992658,1.965027 -5.267969,3.09222 l -0.626096,0.553379 1.214331,0.604439 c 3.820915,1.901878 6.746122,4.774877 8.274928,8.127238 0.236067,0.517647 0.468948,1.018344 0.517513,1.112659 0.05681,0.110322 0.45584,0.224542 1.118812,0.320251 1.203458,0.173735 2.889255,0.61261 3.891315,1.013055 0.62544,0.249938 0.71438,0.260712 0.78042,0.09453 0.041,-0.103155 0.24517,-0.664025 0.45372,-1.246377 z"
   id="path17" /><path
   style="fill:#ff8080;stroke:#ffffff;stroke-width:0.117647"
   d="M 40.411968,89.053778 C 34.224616,88.302333 29.166686,84.847742 26.710014,79.695274 L 26.166733,78.55583 24.43641,78.636371 C 20.198253,78.833643 17.059347,78.173785 13.431372,76.322904 8.5917259,73.853865 5.1008935,69.1941 4.3617546,64.216256 3.9069093,61.153029 4.4140766,57.978339 5.7975322,55.22879 l 0.4582312,-0.910712 -0.50871,-1.252304 C 4.6442012,50.350856 4.2882405,47.60235 4.6487224,44.58515 5.1705148,40.217796 7.3238002,36.399672 10.891456,33.515771 c 0.703935,-0.569022 1.076584,-0.954638 1.116639,-1.155491 0.148424,-0.74427 0.824015,-2.629162 1.28874,-3.595574 2.31253,-4.808983 7.002691,-8.346041 12.771443,-9.631511 2.712298,-0.60439 5.357076,-0.667251 8.283707,-0.196887 l 1.292958,0.207802 1.122757,-1.130878 c 2.639616,-2.658708 6.1896,-4.48607 10.350151,-5.327763 1.199846,-0.242732 1.672443,-0.273044 4.17647,-0.267873 2.473267,0.0051 2.97677,0.03877 4.058824,0.271363 2.775223,0.596545 5.552368,1.789164 7.641231,3.281458 0.6115,0.436859 1.776205,1.432006 2.588235,2.211438 l 1.476416,1.417148 1,-0.271591 c 2.013931,-0.546966 3.107741,-0.653248 6.046932,-0.58756 2.964502,0.06625 3.538329,0.152924 5.776598,0.872486 4.937931,1.587453 8.88186,4.834899 10.972404,9.034721 1.090015,2.189794 1.533482,4.041566 1.634119,6.82353 l 0.06809,1.882353 0.677217,1.058823 c 1.240595,1.939661 1.836877,3.367684 2.223688,5.325451 0.3251,1.645434 0.396069,2.866024 0.250086,4.301171 -0.293529,2.885655 -1.237606,5.301449 -3.065369,7.843966 l -0.549731,0.764706 -0.136934,1.535591 c -0.207118,2.322637 -0.681988,3.925496 -1.794504,6.057089 -0.785903,1.505803 -1.559462,2.52875 -2.976983,3.936732 -2.678265,2.660243 -6.17603,4.490408 -9.987812,5.226006 -2.375566,0.458437 -4.872915,0.568873 -6.503966,0.287613 l -0.36616,-0.06314 -0.08423,0.854837 c -0.201327,2.043151 -1.033813,4.277063 -2.301315,6.175406 -0.83307,1.247692 -2.969211,3.354326 -4.293894,4.234581 -1.926509,1.28017 -4.078995,2.181387 -6.330776,2.650616 -0.979911,0.204195 -1.649464,0.252635 -3.669224,0.265456 -1.358824,0.0086 -2.788236,-0.0087 -3.176471,-0.03841 -0.584698,-0.04481 -0.948251,0.02203 -2.117647,0.38929 -2.487211,0.781143 -5.802419,1.1548 -7.941177,0.895052 z m 3.220537,-3.055594 c 2.064432,-0.171034 4.075205,-0.690548 5.514239,-1.424688 0.46859,-0.239057 0.504742,-0.240256 1.688095,-0.05595 1.52738,0.237886 4.167838,0.244079 5.493594,0.01289 4.919452,-0.857881 8.922785,-4.048207 10.335214,-8.236314 0.249927,-0.741079 0.277733,-1.029658 0.277733,-2.882353 0,-1.132353 -0.03453,-2.245961 -0.07673,-2.474686 -0.07397,-0.400887 -0.05288,-0.432528 0.585584,-0.878699 1.680889,-1.17463 3.342683,-3.097123 4.130706,-4.778722 0.772485,-1.648439 0.864172,-2.177302 0.801873,-4.625278 -0.0592,-2.326035 -0.125343,-2.624049 -0.941676,-4.242615 C 69.965293,53.48557 67.113564,51.2155 63.372501,49.988867 l -1.137003,-0.372804 v -2.602149 c 0,-3.01758 -0.09542,-3.476395 -1.151455,-5.536654 -1.765629,-3.444626 -4.794373,-5.953004 -8.809638,-7.29606 -1.932849,-0.646513 -3.218651,-0.796095 -6.333025,-0.736744 -2.425488,0.04622 -2.74061,0.07679 -3.764706,0.365162 -2.460741,0.692918 -4.309471,1.583778 -6.144129,2.960711 -2.355413,1.767765 -3.960408,4.03876 -4.843545,6.853391 -0.284237,0.905891 -0.306089,1.131803 -0.301562,3.117647 0.0045,1.961457 0.03273,2.247598 0.337015,3.412386 l 0.332134,1.271401 -0.954662,0.477963 c -3.309798,1.65709 -5.635013,4.064294 -6.658758,6.893548 -0.730571,2.019034 -0.73199,4.938533 -0.0033,6.828042 0.822482,2.13277 2.597189,4.411677 4.352568,5.589146 l 0.645154,0.432756 0.0058,2.382578 c 0.0056,2.294559 0.01814,2.41952 0.339149,3.382578 0.183326,0.55 0.466831,1.264706 0.630009,1.588235 1.883818,3.734987 6.068609,6.442918 10.806325,6.992652 1.156201,0.134158 1.356479,0.134538 2.913621,0.0055 z M 25.588439,74.457582 v -1.071831 l -1.167515,-1.22284 c -1.464252,-1.533638 -2.221536,-2.535882 -2.87877,-3.809969 -1.112143,-2.155955 -1.534314,-3.883217 -1.524008,-6.235295 0.01041,-2.376153 0.599326,-4.522831 1.809004,-6.594084 1.212628,-2.076307 3.335957,-4.199309 5.358689,-5.357863 0.573901,-0.328711 0.593046,-0.356053 0.486704,-0.695111 -0.192363,-0.61333 -0.134864,-4.592545 0.08051,-5.571531 0.440492,-2.00228 1.5882,-4.606914 2.656748,-6.029285 0.837408,-1.114694 3.234241,-3.382329 4.382811,-4.14656 1.197268,-0.796635 3.812094,-2.074657 5.089946,-2.487763 1.118129,-0.36147 3.429554,-0.837744 4.603657,-0.948593 1.197271,-0.113038 1.21199,-0.13421 0.690292,-0.993017 -1.009639,-1.662043 -2.555673,-3.309197 -4.209841,-4.485187 -1.772149,-1.259866 -4.77232,-2.44345 -7.305926,-2.882228 -1.39254,-0.241165 -5.580441,-0.164972 -6.837006,0.124389 -3.341508,0.769481 -5.961982,2.183469 -8.17647,4.411963 -2.271989,2.286356 -3.066513,3.849145 -3.772129,7.419576 -0.124808,0.631537 -0.147738,0.659759 -0.955829,1.176471 -1.105384,0.706807 -2.800769,2.31322 -3.654564,3.462776 C 9.3611882,39.738151 8.4990304,41.52926 8.109044,43 7.8542595,43.960859 7.7859252,44.527678 7.7361828,46.092806 7.6435975,49.005973 7.9082805,50.282619 9.1318073,52.82432 L 9.8401012,54.2957 9.1232633,55.471379 C 7.57998,58.002505 6.9786441,60.70127 7.3485822,63.436057 c 0.6777752,5.01049 4.1944148,9.04273 9.6516218,11.066716 2.068976,0.767349 3.4965,0.985364 6.617647,1.010665 l 1.970588,0.01597 z M 74.66421,70.582003 c 2.398543,-0.243881 4.140367,-0.724067 6.159523,-1.698059 1.66803,-0.804617 3.097939,-1.830687 4.324863,-3.103426 1.12106,-1.162922 1.732077,-2.018762 2.423408,-3.394419 0.795239,-1.582421 1.075484,-2.739916 1.198334,-4.949467 l 0.106545,-1.916309 0.768797,-0.984558 c 2.270024,-2.907092 3.136441,-5.778461 2.772305,-9.187607 -0.232471,-2.176464 -1.010707,-4.110511 -2.412238,-5.994814 l -0.700339,-0.941579 -0.0099,-2.588235 c -0.01167,-3.065953 -0.138685,-3.69103 -1.171347,-5.764706 -0.778445,-1.563185 -1.488289,-2.521979 -2.798162,-3.77951 -1.707671,-1.639436 -3.589574,-2.74734 -6.077334,-3.577818 -1.979961,-0.660962 -3.074319,-0.819143 -5.667166,-0.819143 -2.799093,0 -3.807597,0.133478 -4.875455,0.645279 -0.452941,0.217085 -1.45664,0.69169 -2.230442,1.054677 -1.635196,0.767063 -2.238751,1.131235 -3.549726,2.141824 -2.159331,1.664559 -3.68881,3.87629 -4.576182,6.617474 -0.173549,0.536105 -0.270249,1.013722 -0.21489,1.06137 0.05536,0.04765 0.497711,0.405994 0.983005,0.796323 0.485294,0.39033 1.385294,1.234817 2,1.876638 2.821329,2.945781 4.466776,6.739421 4.469894,10.305508 l 7.06e-4,0.793211 1.441176,0.721534 c 1.928103,0.965318 3.330536,1.943565 4.618339,3.221456 2.335737,2.31776 3.785502,5.263897 4.191611,8.517966 0.180463,1.446024 0.02216,3.203091 -0.432381,4.799146 -0.44495,1.562373 -1.534235,3.657015 -2.634098,5.065241 l -0.941826,1.205883 h 0.8073 c 0.444016,0 1.355558,-0.05575 2.025649,-0.12388 z M 55.355843,30.467173 c 1.309411,-3.458428 3.764263,-6.519982 6.782584,-8.458862 1.94651,-1.250379 1.806664,-1.09528 1.391189,-1.542936 -1.219288,-1.313726 -3.549411,-2.933323 -5.329556,-3.70441 -2.395343,-1.037567 -4.502429,-1.404415 -7.549803,-1.314438 -2.242133,0.0662 -3.661765,0.283844 -5.236531,0.802808 -1.011579,0.333366 -3.146366,1.398935 -4.178228,2.085543 -0.875602,0.582633 -2.143099,1.607081 -2.212782,1.788473 -0.01997,0.05199 0.50944,0.374406 1.17647,0.716486 2.691868,1.380499 5.077155,3.316517 6.628627,5.380128 0.419843,0.558431 1.085008,1.650624 1.478147,2.427094 0.393139,0.776471 0.750958,1.449903 0.795154,1.496515 0.0442,0.04661 0.765646,0.221108 1.603223,0.387765 0.837576,0.166658 2.027674,0.479 2.644661,0.694094 0.616987,0.215096 1.225429,0.384719 1.352094,0.376943 0.178859,-0.01098 0.325109,-0.264549 0.654751,-1.135203 z"
   id="path20" /></svg>
