<?xml version="1.0" encoding="utf-8"?>
<!-- Generator: Adobe Illustrator 18.0.0, SVG Export Plug-In . SVG Version: 6.00 Build 0)  -->
<!DOCTYPE svg PUBLIC "-//W3C//DTD SVG 1.1//EN" "http://www.w3.org/Graphics/SVG/1.1/DTD/svg11.dtd">
<svg version="1.1" id="Layer_1" xmlns="http://www.w3.org/2000/svg" xmlns:xlink="http://www.w3.org/1999/xlink" x="0px" y="0px"
	 viewBox="0 0 100 100" enable-background="new 0 0 100 100" xml:space="preserve">
<path fill="#FFFFFF" d="M73.1,76.6c-1.6,0-3.2-0.2-4.8-0.5l-1.2-0.3L67,74.5c0-0.2,0-0.3-0.1-0.5L66.7,73l0.9-0.6
	c0.3-0.2,0.6-0.4,0.8-0.6c2.7-2.2,4.1-5.1,4.1-8.2c0-1.5-0.3-3-1-4.4c-1.5-3-4.4-5.4-8.1-6.5l-1.4-0.4l0.2-1.5
	c0.1-0.5,0.1-1,0.1-1.4c0-0.7-0.1-1.4-0.2-2.1l0,0l0-0.1c-0.4-2-1.4-4-2.8-5.7c-1.1-1.3-2.5-2.4-4-3.3l-1-0.6l0.1-1.1
	C55,30.3,59.4,25,65.7,22.5c2.5-1,5.1-1.5,7.8-1.5c10.6,0,19.2,7.6,19.2,16.9c0,0.6,0,1.2-0.1,1.8c2.2,2.8,3.4,6.1,3.4,9.6
	c0,3.6-1.3,7.2-3.8,10c0,0.1,0,0.2,0,0.4C92.3,69,83.6,76.6,73.1,76.6z M72,73.1c0.3,0,0.7,0,1,0c8.7,0,15.7-6,15.7-13.4
	c0-0.3,0-0.6,0-0.8l-0.1-0.8l0.5-0.6c2.2-2.4,3.3-5.2,3.3-8.3c0-2.9-1.1-5.6-3.1-7.9L89,40.7l0.1-0.8c0.1-0.7,0.2-1.3,0.2-2
	c0-7.4-7.1-13.4-15.7-13.4c-2.3,0-4.5,0.4-6.6,1.2c-4.8,1.9-8.1,5.6-9,10c1.5,1,2.8,2.1,3.9,3.4c1.8,2.1,3.1,4.6,3.6,7.2
	c0,0.1,0,0.2,0,0.2c0.2,0.9,0.3,1.8,0.3,2.7c0,0.2,0,0.3,0,0.5c4,1.5,7.2,4.3,8.9,7.8c0.9,1.9,1.4,3.8,1.4,5.9
	C76,67,74.6,70.4,72,73.1z"/>
<path fill="#FFFFFF" d="M42.4,91.9c-9.3,0-17-6.7-17-14.9c0-0.4,0-0.8,0-1.1c-2.7-2.2-4.6-5.1-5.3-8.3c-0.2-0.9-0.3-1.8-0.3-2.8
	c0-5,2.8-9.7,7.6-12.4c0.1,0,0.1-0.1,0.2-0.1c-0.2-0.9-0.3-1.9-0.3-2.9c0-2.7,0.7-5.3,2.1-7.7c0.8-1.5,1.9-2.8,3.3-4
	c1.3-1.2,2.8-2.2,4.5-3c2.8-1.4,6.1-2.1,9.4-2.1c0.4,0,0.8,0,1.2,0c3.3,0.2,6.4,1.1,9.2,2.7c1.9,1.1,3.6,2.4,4.9,4
	c1.8,2.1,3.1,4.6,3.6,7.2c0,0.1,0,0.2,0,0.2c0.2,0.9,0.3,1.8,0.3,2.7c0,0.2,0,0.3,0,0.5c4,1.5,7.2,4.3,8.9,7.8
	c0.9,1.9,1.4,3.8,1.4,5.9c0,4.1-2,8.1-5.4,10.9c-0.1,0.1-0.1,0.1-0.2,0.2c0,0.4,0,0.7,0,1.1c0,8.2-7.6,14.9-17,14.9
	c-1.2,0-2.4-0.1-3.6-0.3C47.6,91.4,45,91.9,42.4,91.9z M46.6,36c-2.8,0-5.5,0.6-7.8,1.8c-1.4,0.7-2.6,1.5-3.7,2.5
	c-1.1,1-1.9,2-2.6,3.2c-1.1,1.9-1.6,3.9-1.6,5.9c0,1.1,0.2,2.2,0.5,3.3l0.4,1.4l-1.3,0.6c-0.4,0.2-0.8,0.4-1.1,0.6
	c-3.7,2.1-5.9,5.7-5.9,9.5c0,0.7,0.1,1.4,0.2,2.1c0.6,2.6,2.2,5,4.6,6.7l0.1,0.1l0.9,0.6l-0.2,1.1c-0.1,0.5-0.1,1.1-0.1,1.6
	c0,6.3,6,11.5,13.5,11.5c2.3,0,4.6-0.5,6.6-1.5l0.5-0.3l0.6,0.1c1.1,0.2,2.2,0.4,3.4,0.4C61,87.2,67,82.1,67,75.8
	c0-0.4,0-0.7-0.1-1.1l0-0.1c0-0.2,0-0.3-0.1-0.5l-0.2-1.1l0.9-0.6c0.3-0.2,0.6-0.4,0.8-0.6c2.7-2.2,4.1-5.1,4.1-8.2
	c0-1.5-0.3-3-1-4.4c-1.5-3-4.4-5.4-8.1-6.5L62,52.3l0.2-1.5c0.1-0.5,0.1-1,0.1-1.4c0-0.7-0.1-1.4-0.2-2.1l0,0l0-0.1
	c-0.4-2-1.4-4-2.8-5.7c-1.1-1.3-2.5-2.4-4-3.3c-2.3-1.3-4.9-2.1-7.7-2.2C47.2,36,46.9,36,46.6,36z"/>
<path fill="#FFFFFF" d="M57.8,39.6l-2.3-1.3c-2.3-1.3-4.9-2.1-7.7-2.2L46.6,36l-0.3-1.2c-1.2-4.5-5.2-8.2-10.4-9.6l-2.4-0.7l1.4-2
	c0.7-1,1.5-1.9,2.4-2.7c1.3-1.2,2.8-2.2,4.5-3c2.8-1.4,6.1-2.1,9.4-2.1c0.4,0,0.8,0,1.2,0c3.3,0.2,6.4,1.1,9.2,2.7
	c1.9,1.1,3.6,2.4,4.9,4c0.6,0.6,1.1,1.3,1.5,2l1.1,1.8l-1.9,0.8c-5.1,2-8.6,6.3-9.1,11L57.8,39.6z M49.2,32.7c2,0.2,4,0.7,5.8,1.5
	c1.2-4.4,4.4-8.3,8.8-10.6c0,0,0,0,0,0c-1.1-1.3-2.5-2.4-4-3.3c-2.3-1.3-4.9-2.1-7.7-2.2c-0.4,0-0.7,0-1,0c-2.8,0-5.5,0.6-7.8,1.8
	c-1.4,0.7-2.6,1.5-3.7,2.5c-0.1,0.1-0.3,0.2-0.4,0.4C44,24.7,47.6,28.3,49.2,32.7z"/>
<path fill="#FFFFFF" d="M23.2,81.5C12.6,81.5,4,73.9,4,64.6c0-2.7,0.7-5.4,2.1-7.7c-1.2-2.3-1.8-5-1.8-7.6c0-5.7,2.8-11,7.5-14.1
	C13.3,27,21.3,21,30.7,21c2,0,4,0.3,5.9,0.8c6.3,1.8,11.2,6.4,12.8,12.1l0.6,2.3L47.6,36c-0.4,0-0.7,0-1,0c-2.8,0-5.5,0.6-7.8,1.8
	c-1.4,0.7-2.6,1.5-3.7,2.5c-1.1,1-1.9,2-2.6,3.2c-1.1,1.9-1.6,3.9-1.6,5.9c0,1.1,0.2,2.2,0.5,3.3l0.4,1.4l-1.3,0.6
	c-0.4,0.2-0.8,0.4-1.1,0.6c-3.7,2.1-5.9,5.7-5.9,9.5c0,0.7,0.1,1.4,0.2,2.1c0.6,2.6,2.2,5,4.6,6.7l0.9,0.6l-0.2,1.1
	c-0.1,0.5-0.1,1.1-0.1,1.6c0,0.7,0.1,1.4,0.2,2.1l0.4,1.7L27.7,81C26.2,81.3,24.7,81.5,23.2,81.5z M30.7,24.4c-8,0-14.8,5.1-15.6,12
	L15,37.2l-0.7,0.4c-4,2.4-6.5,6.8-6.5,11.6c0,2.4,0.6,4.7,1.8,6.8l0.5,0.9l-0.6,0.9c-1.4,2-2.1,4.3-2.1,6.7C7.4,72,14.5,78,23.2,78
	c0.7,0,1.5,0,2.2-0.1c0-0.3,0-0.7,0-1c0-0.4,0-0.7,0-1.1c-2.7-2.2-4.5-5.1-5.1-8.2c-0.2-0.9-0.3-1.8-0.3-2.8c0-5,2.8-9.7,7.6-12.4
	c0.1,0,0.1-0.1,0.2-0.1c-0.2-0.9-0.3-1.9-0.3-2.9c0-2.7,0.7-5.3,2.1-7.7c0.8-1.5,1.9-2.8,3.3-4c1.3-1.2,2.8-2.2,4.5-3
	c2.4-1.2,5.2-1.9,8-2.1c-1.8-3.5-5.2-6.3-9.5-7.5C34.1,24.7,32.4,24.4,30.7,24.4z"/>
</svg>
