<?xml version="1.0" encoding="UTF-8" standalone="no"?>
<svg
   xmlns:dc="http://purl.org/dc/elements/1.1/"
   xmlns:cc="http://creativecommons.org/ns#"
   xmlns:rdf="http://www.w3.org/1999/02/22-rdf-syntax-ns#"
   xmlns:svg="http://www.w3.org/2000/svg"
   xmlns="http://www.w3.org/2000/svg"
   xmlns:sodipodi="http://sodipodi.sourceforge.net/DTD/sodipodi-0.dtd"
   xmlns:inkscape="http://www.inkscape.org/namespaces/inkscape"
   version="1.1"
   id="Layer_1"
   x="0px"
   y="0px"
   viewBox="0 0 100 100"
   enable-background="new 0 0 100 100"
   xml:space="preserve"
   sodipodi:docname="Arroz N.svg"
   inkscape:version="1.0.1 (3bc2e813f5, 2020-09-07)"><metadata
   id="metadata130"><rdf:RDF><cc:Work
       rdf:about=""><dc:format>image/svg+xml</dc:format><dc:type
         rdf:resource="http://purl.org/dc/dcmitype/StillImage" /></cc:Work></rdf:RDF></metadata><defs
   id="defs128" /><sodipodi:namedview
   pagecolor="#ffffff"
   bordercolor="#666666"
   borderopacity="1"
   objecttolerance="10"
   gridtolerance="10"
   guidetolerance="10"
   inkscape:pageopacity="0"
   inkscape:pageshadow="2"
   inkscape:window-width="1920"
   inkscape:window-height="1017"
   id="namedview126"
   showgrid="false"
   inkscape:zoom="8.5"
   inkscape:cx="40.941176"
   inkscape:cy="50"
   inkscape:window-x="-8"
   inkscape:window-y="-8"
   inkscape:window-maximized="1"
   inkscape:current-layer="Layer_1" />
<path
   fill="#2C3136"
   d="M23.8,87.2c-2,0-3.7-1.2-4.2-2.9C10,50.8,21.4,15.7,25.1,5.7c0.5-1.4,1.9-2.3,3.6-2.3c1.6,0,3,0.9,3.5,2.3  c3.8,10.8,5.8,22,5.8,33.5c0,9.9-1.4,19.9-4.2,29.8c-2,7-4.3,12.5-5.9,15.9C27.2,86.4,25.6,87.3,23.8,87.2z M28.6,9.9  c-4.1,11.9-12.8,42.7-4.7,72.3c1.5-3.3,3.5-8.2,5.2-14.4c2.7-9.5,4-19.1,4-28.5C33.2,29.2,31.7,19.3,28.6,9.9z"
   id="path119" />
<path
   fill="#2C3136"
   d="M34.9,76l2.1-7.6c2.6-9.5,3.8-19.1,3.7-28.6l0-0.7l0.4-0.6C51.5,22,64.2,10.2,69.2,5.9  c1.5-1.3,4-0.9,5.4,0.6c0.7,0.8,1,1.9,0.8,2.9C70.6,39,53.9,59.1,40.8,70.8L34.9,76z M45.4,40.5c0,7.1-0.6,14.3-2,21.4  C54.2,50.7,65.9,34,70.2,11.2C64.7,16.3,54.2,26.6,45.4,40.5z"
   id="path121" />
<path
   fill="#2c3136"
   d="m 35.858824,97.258824 v 0 c -1.5,0 -3,-0.8 -3.9,-2.2 -0.8,-1.2 -1,-2.5 -0.5,-3.7 12.7,-32.5 43,-53.5 52,-59.2 1.6,-1 3.9,-0.4 5,1.2 0.7,1 0.9,2.1 0.6,3.2 -11.5,36.1 -39.8,54.2 -51.4,60.2 -0.6,0.3 -1.2,0.5 -1.8,0.5 z m 47.9,-59.6 c -10.6,7 -36.1,26.3 -47.5,54.6 11.2,-6.1 36.2,-22.6 47.5,-54.6 z"
   id="path123" />
<g
   id="g134"
   style="display:none;opacity:1"><path
     style="color:#000000;font-style:normal;font-variant:normal;font-weight:normal;font-stretch:normal;font-size:medium;line-height:normal;font-family:sans-serif;font-variant-ligatures:normal;font-variant-position:normal;font-variant-caps:normal;font-variant-numeric:normal;font-variant-alternates:normal;font-variant-east-asian:normal;font-feature-settings:normal;font-variation-settings:normal;text-indent:0;text-align:start;text-decoration:none;text-decoration-line:none;text-decoration-style:solid;text-decoration-color:#000000;letter-spacing:normal;word-spacing:normal;text-transform:none;writing-mode:lr-tb;direction:ltr;text-orientation:mixed;dominant-baseline:auto;baseline-shift:baseline;text-anchor:start;white-space:normal;shape-padding:0;shape-margin:0;inline-size:0;clip-rule:nonzero;display:inline;overflow:visible;visibility:visible;isolation:auto;mix-blend-mode:normal;color-interpolation:sRGB;color-interpolation-filters:linearRGB;solid-color:#000000;solid-opacity:1;vector-effect:none;fill:#b3b3b3;fill-opacity:1;fill-rule:nonzero;stroke:none;stroke-width:0.117647;stroke-linecap:butt;stroke-linejoin:miter;stroke-miterlimit:4;stroke-dasharray:none;stroke-dashoffset:0;stroke-opacity:1;color-rendering:auto;image-rendering:auto;shape-rendering:auto;text-rendering:auto;enable-background:accumulate;stop-color:#000000;stop-opacity:1"
     d="m 29.470588,95.915056 c -0.712706,-0.247725 -1.689438,-0.904117 -2.124554,-1.427763 -0.195818,-0.235658 -0.525841,-0.771613 -0.733386,-1.191011 -0.329835,-0.666516 -0.375742,-0.873923 -0.364551,-1.647058 0.01157,-0.799535 0.08088,-1.048418 0.721351,-2.5904 2.210295,-5.321444 4.87788,-10.455808 7.944506,-15.290977 0.511887,-0.807096 1.00249,-1.606267 1.090228,-1.775934 0.377492,-0.729989 2.053952,-7.300509 2.744538,-10.756619 1.285315,-6.432498 2.015259,-13.692812 2.015808,-20.050041 l 1.78e-4,-2.050042 1.264706,-1.94965 C 48.929393,26.548662 58.710974,15.208567 68.07316,6.9922207 c 1.808725,-1.5873554 2.127008,-1.7540616 3.338605,-1.7486506 1.268235,0.00566 2.135211,0.3468844 2.948969,1.1606419 1.157225,1.1572256 1.223728,1.9929259 0.46402,5.831082 -1.964961,9.927271 -5.219093,19.201855 -9.698209,27.640813 -0.393129,0.740682 -0.71478,1.362137 -0.71478,1.381009 0,0.01887 0.727941,-0.537234 1.617647,-1.235792 3.74073,-2.93706 7.637953,-5.754522 10.89828,-7.87881 1.959999,-1.277052 2.304752,-1.43083 3.214954,-1.434048 2.009098,-0.0071 3.726938,1.565745 3.883383,3.555608 0.05015,0.637814 -0.0085,0.939824 -0.439676,2.265338 -3.580501,11.006383 -9.581249,21.957732 -17.179724,31.352941 -6.877521,8.503782 -15.450148,16.251062 -24.784177,22.398032 -3.561807,2.345646 -7.95796,4.905 -9.550447,5.560082 -0.781968,0.321669 -1.806086,0.351033 -2.601417,0.07459 z m 5.502367,-6.814317 c 5.655417,-3.393344 10.809041,-7.171653 16.085869,-11.793131 1.841364,-1.612679 7.32305,-7.093172 8.897778,-8.895843 8.130853,-9.3078 13.985974,-18.977243 18.114819,-29.915727 0.3802,-1.00726 0.666054,-1.856603 0.63523,-1.887426 -0.17955,-0.179551 -6.701653,4.536219 -10.692179,7.730916 -9.121583,7.302473 -17.737667,16.090746 -24.116578,24.59854 -4.135632,5.51585 -7.470481,10.916552 -10.193804,16.508606 -1.014518,2.083205 -2.586443,5.60871 -2.586443,5.800861 0,0.09968 1.546487,-0.761464 3.855308,-2.146796 z m 9.61528,-28.475945 c 1.138073,-1.337745 2.568572,-2.954947 4.513173,-5.102216 0.67048,-0.740359 2.074158,-2.484343 3.119283,-3.875519 7.942495,-10.572337 13.393385,-21.785537 16.662743,-34.277461 0.538781,-2.058636 1.421158,-6.193127 1.321727,-6.193127 -0.177902,0 -4.194873,3.907812 -7.074601,6.882353 -6.092387,6.292974 -11.640669,13.133617 -16.195004,19.967305 L 45.38922,40.346376 45.30713,43.2026 c -0.172996,6.018928 -0.624674,10.866404 -1.488414,15.973871 -0.191497,1.132353 -0.37884,2.204411 -0.416321,2.382353 -0.03748,0.177941 -0.02423,0.320611 0.02944,0.317045 0.05367,-0.0036 0.574054,-0.56655 1.156407,-1.251075 z"
     id="path136" /><path
     style="color:#000000;font-style:normal;font-variant:normal;font-weight:normal;font-stretch:normal;font-size:medium;line-height:normal;font-family:sans-serif;font-variant-ligatures:normal;font-variant-position:normal;font-variant-caps:normal;font-variant-numeric:normal;font-variant-alternates:normal;font-variant-east-asian:normal;font-feature-settings:normal;font-variation-settings:normal;text-indent:0;text-align:start;text-decoration:none;text-decoration-line:none;text-decoration-style:solid;text-decoration-color:#000000;letter-spacing:normal;word-spacing:normal;text-transform:none;writing-mode:lr-tb;direction:ltr;text-orientation:mixed;dominant-baseline:auto;baseline-shift:baseline;text-anchor:start;white-space:normal;shape-padding:0;shape-margin:0;inline-size:0;clip-rule:nonzero;display:inline;overflow:visible;visibility:visible;isolation:auto;mix-blend-mode:normal;color-interpolation:sRGB;color-interpolation-filters:linearRGB;solid-color:#000000;solid-opacity:1;vector-effect:none;fill:#ffffff;fill-opacity:1;fill-rule:nonzero;stroke:none;stroke-width:0.117647;stroke-linecap:butt;stroke-linejoin:miter;stroke-miterlimit:4;stroke-dasharray:none;stroke-dashoffset:0;stroke-opacity:1;color-rendering:auto;image-rendering:auto;shape-rendering:auto;text-rendering:auto;enable-background:accumulate;stop-color:#000000;stop-opacity:1"
     d="M 71.412109,5.1855469 C 70.80359,5.1828292 70.406106,5.2243326 69.939453,5.46875 69.4728,5.7131674 68.940037,6.153133 68.035156,6.9472656 58.668069,15.167913 48.883875,26.512118 41.980469,37.154297 l -1.275391,1.962891 v 2.068359 c -5.48e-4,6.35273 -0.729185,13.610708 -2.013672,20.039062 -0.344904,1.72611 -0.93781,4.23138 -1.490234,6.396485 -0.276212,1.082552 -0.54092,2.079773 -0.761719,2.851562 -0.220799,0.77179 -0.402286,1.325892 -0.488281,1.492188 -0.04063,0.07857 -0.185399,0.322952 -0.382813,0.644531 -0.197413,0.321579 -0.447332,0.723643 -0.703125,1.126953 -3.06845,4.838045 -5.737634,9.976232 -7.949218,15.300781 -0.320378,0.771333 -0.499326,1.219955 -0.59961,1.580079 -0.100284,0.360123 -0.121145,0.629871 -0.126953,1.03125 -0.01123,0.775615 0.04007,1.004909 0.371094,1.673828 0.209704,0.42376 0.537161,0.958735 0.740234,1.203125 0.447328,0.538342 1.42299,1.192479 2.150391,1.445312 0.811343,0.28201 1.845064,0.251892 2.642578,-0.07617 1.607114,-0.661099 5.996586,-3.217389 9.560547,-5.564453 9.339173,-6.150357 17.917263,-13.901373 24.798828,-22.410156 7.603007,-9.400813 13.606522,-20.359194 17.189453,-31.373047 0.431504,-1.326521 0.491951,-1.644276 0.441406,-2.287109 -0.158892,-2.020992 -1.90149,-3.616584 -3.941406,-3.609375 -0.458387,0.0016 -0.786558,0.04265 -1.238281,0.24414 -0.451723,0.201494 -1.027396,0.560421 -2.007813,1.199219 -3.262295,2.12557 -7.16233,4.942828 -10.904296,7.880859 -0.444688,0.349149 -0.847744,0.662974 -1.140626,0.886719 -0.12015,0.09179 -0.207543,0.157132 -0.285156,0.214844 0.032,-0.063 0.06176,-0.122708 0.107422,-0.210938 0.129415,-0.25004 0.307421,-0.590746 0.503906,-0.960937 4.481952,-8.444301 7.739071,-17.725643 9.705078,-27.658203 0.380076,-1.920197 0.555585,-3.0897866 0.488282,-3.9355471 C 75.303791,7.4647864 74.985564,6.946502 74.402344,6.3632812 73.579628,5.540566 72.690776,5.1912534 71.412109,5.1855469 Z m 0,0.1171875 c 1.257804,0.00561 2.10145,0.3377784 2.90625,1.1425781 0.574005,0.5740049 0.87022,1.0521118 0.935547,1.8730469 0.06533,0.8209351 -0.106695,1.9882906 -0.486328,3.9062496 -1.963914,9.921982 -5.217079,19.189433 -9.693359,27.623047 -0.196644,0.370491 -0.374214,0.712315 -0.503907,0.962891 -0.06485,0.125288 -0.117783,0.22786 -0.154296,0.300781 -0.01826,0.03646 -0.03304,0.06493 -0.04297,0.08594 -0.005,0.01051 -0.0087,0.01832 -0.01172,0.02539 -0.0015,0.0035 -0.0026,0.008 -0.0039,0.01172 -6.53e-4,0.0018 -0.0012,0.0029 -0.002,0.0059 -3.9e-4,0.0015 -0.0019,0.0056 -0.002,0.0059 -4e-5,2.21e-4 0,0.01157 0,0.01172 0,7.4e-5 0.0039,0.02143 0.0039,0.02148 2.2e-5,5.6e-5 0.01558,0.02145 0.01563,0.02148 4.4e-5,3.9e-5 0.02142,0.01365 0.02148,0.01367 6.7e-5,2.1e-5 0.01554,0.0019 0.01563,0.002 1.77e-4,8e-6 0.01536,-0.0019 0.01563,-0.002 2.64e-4,-6.1e-5 0.0058,-0.0012 0.0078,-0.002 0.0081,-0.003 0.01153,-0.0054 0.01563,-0.0078 0.0082,-0.0047 0.0179,-0.0098 0.0293,-0.01758 0.0228,-0.01555 0.05435,-0.03991 0.0957,-0.07031 0.0827,-0.06081 0.200898,-0.149604 0.347656,-0.261719 0.293515,-0.224229 0.699513,-0.53731 1.144531,-0.886719 3.739493,-2.936089 7.634219,-5.753947 10.892578,-7.876953 0.979583,-0.638254 1.555937,-0.99399 1.994141,-1.189453 0.438204,-0.195463 0.737639,-0.232777 1.189453,-0.234375 1.97828,-0.007 3.670221,1.543219 3.824219,3.501953 0.04976,0.632795 -0.0047,0.917681 -0.435547,2.242188 -3.578071,10.998912 -9.575979,21.944379 -17.169922,31.333984 -6.873476,8.498781 -15.442599,16.241183 -24.771484,22.384766 -3.559654,2.344228 -7.963156,4.905622 -9.541016,5.554687 -0.766422,0.315274 -1.779275,0.345098 -2.558594,0.07422 -0.698011,-0.242617 -1.676705,-0.901207 -2.099609,-1.410156 -0.188563,-0.226927 -0.519223,-0.764652 -0.724609,-1.179688 -0.328646,-0.664113 -0.37053,-0.848485 -0.359375,-1.61914 0.0058,-0.398157 0.02567,-0.652256 0.123047,-1.001953 0.09738,-0.349698 0.273656,-0.795757 0.59375,-1.566407 2.209005,-5.318338 4.874651,-10.45091 7.939453,-15.283203 0.256094,-0.403786 0.507284,-0.804755 0.705078,-1.126953 0.197794,-0.322198 0.341563,-0.561246 0.388672,-0.652344 0.102751,-0.198699 0.272853,-0.740176 0.49414,-1.513672 0.221288,-0.773496 0.489212,-1.772128 0.765625,-2.855468 0.552826,-2.16668 1.144553,-4.674297 1.490235,-6.404297 1.286143,-6.436642 2.017028,-13.698819 2.017578,-20.060547 v -2.033203 l 1.253906,-1.935547 C 48.974681,26.585178 58.754043,15.249155 68.111328,7.0371094 69.015172,6.2438866 69.546572,5.8066875 69.994141,5.5722656 70.44171,5.3378438 70.809032,5.300041 71.412109,5.3027344 Z m -1.207031,5.8144536 c -0.03248,-1e-6 -0.04062,0.01024 -0.05664,0.01953 -0.01602,0.0093 -0.03373,0.02169 -0.05469,0.03711 -0.04192,0.03084 -0.09724,0.07404 -0.164062,0.13086 -0.133649,0.113649 -0.315436,0.27961 -0.539063,0.486328 -0.447254,0.413434 -1.056551,0.995317 -1.75,1.669922 -1.386897,1.349209 -3.112317,3.068798 -4.552734,4.55664 C 56.9931,24.313035 51.443234,31.157181 46.886719,37.994141 l -1.556641,2.333984 -0.08203,2.873047 c -0.172938,6.016895 -0.625,10.860086 -1.488281,15.964844 -0.191463,1.132152 -0.378255,2.210861 -0.414063,2.380859 -0.01968,0.09344 -0.02766,0.177581 -0.02148,0.244141 0.0031,0.03328 0.0092,0.06276 0.02344,0.08984 0.0142,0.02709 0.04842,0.05536 0.08789,0.05273 8.38e-4,-5.7e-5 0.01134,-6.33e-4 0.01563,-0.002 0.0043,-0.0013 0.0086,-0.0024 0.01172,-0.0039 0.0063,-0.0029 0.01057,-0.0065 0.01563,-0.0098 0.01011,-0.0066 0.01993,-0.01401 0.03125,-0.02344 0.02265,-0.01886 0.05063,-0.04552 0.08398,-0.07813 0.0667,-0.06522 0.156521,-0.157676 0.261719,-0.271484 0.210396,-0.227616 0.485721,-0.540025 0.777343,-0.882813 1.137471,-1.337036 2.567348,-2.952593 4.511719,-5.099609 0.673912,-0.744149 2.07691,-2.488336 3.123047,-3.880859 7.946729,-10.577973 13.400645,-21.7978 16.671875,-34.296875 0.269841,-1.03104 0.62668,-2.579436 0.902344,-3.871094 0.137832,-0.645829 0.254693,-1.227686 0.332031,-1.648438 0.03867,-0.210375 0.06807,-0.381057 0.08398,-0.5 0.008,-0.05947 0.0124,-0.10606 0.01367,-0.140625 6.36e-4,-0.01728 4.14e-4,-0.02975 -0.002,-0.04492 -0.0012,-0.0076 -0.0012,-0.01508 -0.0078,-0.02734 -0.0017,-0.0031 -0.0075,-0.01134 -0.0078,-0.01172 -2.99e-4,-3.75e-4 -0.01139,-0.0095 -0.01172,-0.0098 -3.29e-4,-2.5e-4 -0.01527,-0.0096 -0.01563,-0.0098 -3.58e-4,-1.26e-4 -0.0211,-0.0039 -0.02148,-0.0039 z m -0.05664,0.162109 c -0.0022,0.02292 -0.0036,0.03888 -0.0078,0.07031 -0.01541,0.115204 -0.04354,0.284742 -0.08203,0.494141 -0.07698,0.418798 -0.19435,0.999408 -0.332032,1.644531 -0.275362,1.290246 -0.63145,2.839592 -0.90039,3.867188 -3.267486,12.484772 -8.714083,23.689158 -16.652344,34.255859 -1.044113,1.389829 -2.448186,3.134525 -3.115234,3.871094 -1.944831,2.147522 -3.37695,3.765062 -4.515625,5.103516 -0.29073,0.341737 -0.564638,0.653015 -0.773438,0.878906 -0.1044,0.112945 -0.193647,0.204838 -0.257812,0.267578 -0.02786,0.02725 -0.04868,0.04721 -0.06641,0.0625 -0.0012,-0.0063 -0.0032,-0.0075 -0.0039,-0.01563 -0.0045,-0.04837 -2.2e-4,-0.124485 0.01758,-0.208985 0.03916,-0.185885 0.226438,-1.252212 0.417969,-2.384765 0.864198,-5.110176 1.315227,-9.959508 1.488281,-15.980469 l 0.08203,-2.839844 1.537109,-2.30664 c 4.552155,-6.830417 10.097517,-13.668493 16.1875,-19.958985 1.439311,-1.486699 3.164785,-3.206355 4.550781,-4.554687 0.692998,-0.674166 1.300139,-1.255734 1.746094,-1.667969 0.222977,-0.206117 0.405779,-0.370744 0.537109,-0.482422 0.05979,-0.05085 0.105644,-0.08744 0.142579,-0.115234 z m 8.548828,25.265625 c -0.01438,-0.0011 -0.0248,0.0013 -0.03711,0.0039 -0.02463,0.0052 -0.05073,0.01375 -0.08203,0.02734 -0.0626,0.02719 -0.145359,0.07126 -0.248047,0.130859 -0.205375,0.119198 -0.491731,0.301409 -0.841797,0.535157 -0.700132,0.467495 -1.656154,1.139779 -2.732422,1.917968 -2.152535,1.556378 -4.780898,3.534518 -6.777343,5.132813 -9.12545,7.305568 -17.744455,16.096796 -24.126954,24.609375 -4.137582,5.518451 -7.476099,10.923886 -10.201171,16.519531 -0.507742,1.042594 -1.153788,2.444983 -1.673829,3.611328 -0.26002,0.583172 -0.488825,1.107247 -0.652343,1.498047 -0.08176,0.1954 -0.146011,0.356562 -0.191407,0.476562 -0.0227,0.06 -0.04043,0.10986 -0.05273,0.148438 -0.0123,0.03858 -0.02148,0.05974 -0.02148,0.0918 0,7.79e-4 0.0018,0.01692 0.002,0.01758 1.88e-4,6.62e-4 0.0094,0.01899 0.0098,0.01953 3.77e-4,5.45e-4 0.01311,0.01324 0.01367,0.01367 5.63e-4,4.29e-4 0.0109,0.0078 0.01563,0.0098 0.01889,0.0079 0.03008,0.0069 0.04102,0.0059 0.02187,-0.0022 0.04284,-0.0085 0.06836,-0.01758 0.05105,-0.01823 0.121415,-0.05106 0.212891,-0.0957 0.182951,-0.08928 0.449015,-0.229704 0.787109,-0.417969 0.67619,-0.37653 1.640154,-0.939932 2.794922,-1.632812 5.658417,-3.395144 10.814596,-7.175313 16.09375,-11.798829 1.847526,-1.618075 7.321981,-7.091268 8.902344,-8.90039 8.134927,-9.312464 13.995664,-18.988636 18.126953,-29.933594 0.190309,-0.504184 0.357183,-0.969399 0.472656,-1.3125 0.05774,-0.171551 0.101988,-0.312725 0.13086,-0.414062 0.01444,-0.05067 0.02506,-0.09199 0.03125,-0.123047 0.0031,-0.01553 0.0051,-0.02808 0.0059,-0.04102 3.91e-4,-0.0065 0.0012,-0.01279 0,-0.02148 -6.01e-4,-0.0043 -0.0036,-0.01475 -0.0039,-0.01563 -3.28e-4,-8.79e-4 -0.01514,-0.02296 -0.01563,-0.02344 -0.01636,-0.01636 -0.0364,-0.02041 -0.05078,-0.02148 z m -0.06055,0.136719 c -0.0055,0.02287 -0.01,0.04268 -0.01953,0.07617 -0.02794,0.09806 -0.07151,0.239611 -0.128907,0.410157 -0.114797,0.341091 -0.282765,0.803564 -0.472656,1.30664 -4.126401,10.93201 -9.976737,20.595302 -18.103516,29.898438 -1.569093,1.79622 -7.057375,7.283342 -8.892578,8.890625 -5.274501,4.61944 -10.423754,8.395565 -16.076172,11.787109 -1.154053,0.692452 -2.118709,1.253451 -2.792968,1.628907 -0.33713,0.187727 -0.602084,0.328578 -0.78125,0.416015 -0.07571,0.03695 -0.127246,0.05941 -0.169922,0.07617 0.01106,-0.03335 0.02379,-0.07236 0.04297,-0.123047 0.04453,-0.117717 0.109945,-0.277969 0.191406,-0.472656 0.162922,-0.389375 0.390615,-0.91347 0.65039,-1.496094 0.519552,-1.165247 1.167052,-2.566811 1.673828,-3.607422 2.721575,-5.588462 6.053819,-10.986751 10.1875,-16.5 6.375324,-8.503009 14.987753,-17.288513 24.105469,-24.58789 1.994081,-1.596403 4.622403,-3.573613 6.773438,-5.128907 1.075517,-0.777646 2.032504,-1.449968 2.730469,-1.916015 0.348982,-0.233024 0.632726,-0.414442 0.833984,-0.53125 0.100629,-0.0584 0.181715,-0.09933 0.236328,-0.123047 0.0054,-0.0023 0.0068,-0.0019 0.01172,-0.0039 z"
     id="path138" /></g></svg>
