<?xml version="1.0" encoding="UTF-8" standalone="no"?>
<svg
   xmlns:dc="http://purl.org/dc/elements/1.1/"
   xmlns:cc="http://creativecommons.org/ns#"
   xmlns:rdf="http://www.w3.org/1999/02/22-rdf-syntax-ns#"
   xmlns:svg="http://www.w3.org/2000/svg"
   xmlns="http://www.w3.org/2000/svg"
   xmlns:sodipodi="http://sodipodi.sourceforge.net/DTD/sodipodi-0.dtd"
   xmlns:inkscape="http://www.inkscape.org/namespaces/inkscape"
   version="1.1"
   id="Layer_1"
   x="0px"
   y="0px"
   viewBox="0 0 100 100"
   enable-background="new 0 0 100 100"
   xml:space="preserve"
   sodipodi:docname="Arroz color.svg"
   inkscape:version="1.0.1 (3bc2e813f5, 2020-09-07)"><metadata
   id="metadata130"><rdf:RDF><cc:Work
       rdf:about=""><dc:format>image/svg+xml</dc:format><dc:type
         rdf:resource="http://purl.org/dc/dcmitype/StillImage" /><dc:title></dc:title></cc:Work></rdf:RDF></metadata><defs
   id="defs128" /><sodipodi:namedview
   pagecolor="#ffffff"
   bordercolor="#666666"
   borderopacity="1"
   objecttolerance="10"
   gridtolerance="10"
   guidetolerance="10"
   inkscape:pageopacity="0"
   inkscape:pageshadow="2"
   inkscape:window-width="1920"
   inkscape:window-height="1017"
   id="namedview126"
   showgrid="false"
   inkscape:zoom="8.5"
   inkscape:cx="40.941176"
   inkscape:cy="54.705882"
   inkscape:window-x="-8"
   inkscape:window-y="-8"
   inkscape:window-maximized="1"
   inkscape:current-layer="Layer_1" />



<path
   style="fill:#cccccc;stroke:#ffffff;stroke-width:0.117647"
   d="m 30.058823,93.209177 c -0.712706,-0.24773 -1.689438,-0.90412 -2.124554,-1.42777 -0.195818,-0.23565 -0.525841,-0.77161 -0.733386,-1.19101 -0.329835,-0.66651 -0.375742,-0.87392 -0.364551,-1.647056 0.01157,-0.799535 0.08088,-1.048418 0.721351,-2.5904 3.199298,-7.702538 7.405058,-15.084335 12.598628,-22.112655 6.64752,-8.995913 15.734096,-18.348865 25.138488,-25.875434 4.065844,-3.253996 8.630347,-6.588623 12.221127,-8.928221 1.96,-1.277051 2.30475,-1.43083 3.21496,-1.434048 2.00909,-0.0071 3.72693,1.565745 3.88338,3.555608 0.0502,0.637814 -0.008,0.939823 -0.43968,2.265338 -3.5805,11.006383 -9.581247,21.957732 -17.179722,31.352941 -6.877521,8.503782 -15.450148,16.251062 -24.784177,22.398032 -3.561807,2.345645 -7.95796,4.904995 -9.550447,5.560085 -0.781968,0.32167 -1.806086,0.35103 -2.601417,0.0746 z m 5.502367,-6.814321 c 5.655417,-3.393344 10.809041,-7.171653 16.085869,-11.793131 1.841364,-1.612679 7.32305,-7.093172 8.897778,-8.895843 8.130853,-9.3078 13.985974,-18.977243 18.114819,-29.915727 0.3802,-1.00726 0.66605,-1.856602 0.63523,-1.887427 -0.17955,-0.179549 -6.701653,4.536219 -10.692179,7.730917 -4.404281,3.525939 -7.956719,6.713701 -12.138066,10.892031 -9.691984,9.684993 -17.071826,19.741802 -22.172316,30.215115 -1.014518,2.083205 -2.586443,5.60871 -2.586443,5.800861 0,0.09968 1.546487,-0.761464 3.855308,-2.146796 z"
   id="path140" /><path
   style="fill:#cccccc;stroke:#ffffff;stroke-width:0.117647"
   d="m 36.882353,68.687643 c 0,-0.03591 0.264448,-1.032647 0.587663,-2.214965 2.579619,-9.436218 3.881961,-18.78621 3.882748,-27.875661 l 1.77e-4,-2.050042 1.264706,-1.94965 C 49.517628,23.960426 59.299209,12.620331 68.661395,4.4039854 70.47012,2.81663 70.788403,2.6499238 72,2.6553348 c 1.268235,0.00566 2.135211,0.3468844 2.948969,1.1606419 1.157225,1.1572256 1.223728,1.9929259 0.46402,5.831082 -1.958203,9.8931323 -5.108136,18.8948473 -9.627002,27.5115533 -0.638993,1.21845 -0.777818,1.39831 -1.589116,2.058824 -3.147865,2.562821 -6.748301,5.795315 -10.129225,9.094083 -1.137205,1.109572 -2.084019,2.002024 -2.10403,1.983225 -0.02001,-0.0188 0.598259,-0.887651 1.373933,-1.930785 8.358308,-11.240328 14.335465,-24.40986 17.070684,-37.612008 0.246553,-1.1900443 0.419876,-2.1637153 0.385163,-2.1637153 -0.177902,0 -4.194873,3.9078113 -7.074601,6.8823523 -6.092387,6.292974 -11.640669,13.133617 -16.195004,19.967305 l -1.546336,2.320247 -0.08209,2.856224 c -0.177758,6.184619 -0.628753,10.929713 -1.550649,16.314998 l -0.410843,2.39995 -1.329562,1.658873 c -1.58235,1.974273 -3.331774,4.326699 -4.602029,6.188285 -0.954893,1.399416 -1.119926,1.622105 -1.119926,1.511173 z"
   id="path142" /><path
   style="fill:#cccccc;stroke:#ffffff;stroke-width:0.117647"
   d="M 23.267022,86.706944 C 22.442223,86.531854 21.746568,86.165133 21.110365,85.570039 20.34116,84.850538 20.170447,84.504312 19.666788,82.642298 17.859612,75.961212 16.8232,69.226754 16.399476,61.411764 16.245771,58.576898 16.320841,50.055232 16.523324,47.35294 17.344676,36.391377 19.122281,26.420697 22.175952,15.647058 23.260183,11.821787 25.449817,5.3517434 25.875931,4.7141684 26.964068,3.0860369 29.52038,2.6191949 31.173042,3.7467927 c 0.866426,0.5911546 1.168422,1.1429695 1.989244,3.6348002 2.685515,8.1526131 4.235572,15.9881591 4.916652,24.8537001 0.192749,2.508987 0.196118,10.865934 0.0054,13.411765 -0.961796,12.839229 -3.822298,24.807653 -8.591082,35.945332 -1.549518,3.618957 -1.907847,4.146021 -3.243714,4.771148 -0.812564,0.380245 -2.106933,0.529278 -2.982528,0.343406 z m 1.443812,-5.709645 c 0.803527,-1.763222 2.325276,-5.696952 3.116482,-8.056123 2.940977,-8.769223 4.659897,-17.203385 5.43079,-26.647059 0.208456,-2.553655 0.209214,-13.143461 0.0011,-15.470588 -0.51474,-5.756525 -1.416463,-11.181079 -2.620514,-15.764706 -0.529464,-2.015582 -1.52796,-5.3384363 -1.639124,-5.4547693 -0.218309,-0.228463 -2.65171,7.7949053 -3.874145,12.7737683 -2.153164,8.769634 -3.34639,16.336811 -4.03094,25.563354 -0.196752,2.651882 -0.197081,12.794801 -4.94e-4,15.235294 0.501362,6.224054 1.249501,11.162009 2.439352,16.100508 0.539751,2.240246 0.639705,2.605374 0.713221,2.605374 0.03354,0 0.242481,-0.398274 0.464314,-0.885053 z"
   id="path144" /></svg>
