<?xml version="1.0" encoding="utf-8"?>
<!-- Generator: Adobe Illustrator 18.0.0, SVG Export Plug-In . SVG Version: 6.00 Build 0)  -->
<!DOCTYPE svg PUBLIC "-//W3C//DTD SVG 1.1//EN" "http://www.w3.org/Graphics/SVG/1.1/DTD/svg11.dtd">
<svg version="1.1" id="Layer_1" xmlns="http://www.w3.org/2000/svg" xmlns:xlink="http://www.w3.org/1999/xlink" x="0px" y="0px"
	 viewBox="0 0 100 100" enable-background="new 0 0 100 100" xml:space="preserve">
<path fill="#FFFFFF" d="M23.8,87.2c-2,0-3.7-1.2-4.2-2.9C10,50.8,21.4,15.7,25.1,5.7c0.5-1.4,1.9-2.3,3.6-2.3c1.6,0,3,0.9,3.5,2.3
	c3.8,10.8,5.8,22,5.8,33.5c0,9.9-1.4,19.9-4.2,29.8c-2,7-4.3,12.5-5.9,15.9C27.2,86.4,25.6,87.3,23.8,87.2z M28.6,9.9
	c-4.1,11.9-12.8,42.7-4.7,72.3c1.5-3.3,3.5-8.2,5.2-14.4c2.7-9.5,4-19.1,4-28.5C33.2,29.2,31.7,19.3,28.6,9.9z"/>
<path fill="#FFFFFF" d="M34.9,76l2.1-7.6c2.6-9.5,3.8-19.1,3.7-28.6l0-0.7l0.4-0.6C51.5,22,64.2,10.2,69.2,5.9
	c1.5-1.3,4-0.9,5.4,0.6c0.7,0.8,1,1.9,0.8,2.9C70.6,39,53.9,59.1,40.8,70.8L34.9,76z M45.4,40.5c0,7.1-0.6,14.3-2,21.4
	C54.2,50.7,65.9,34,70.2,11.2C64.7,16.3,54.2,26.6,45.4,40.5z"/>
<path fill="#FFFFFF" d="M30.8,96.2L30.8,96.2c-1.5,0-3-0.8-3.9-2.2c-0.8-1.2-1-2.5-0.5-3.7c12.7-32.5,43-53.5,52-59.2
	c1.6-1,3.9-0.4,5,1.2c0.7,1,0.9,2.1,0.6,3.2C72.5,71.6,44.2,89.7,32.6,95.7C32,96,31.4,96.2,30.8,96.2z M78.7,36.6
	c-10.6,7-36.1,26.3-47.5,54.6C42.4,85.1,67.4,68.6,78.7,36.6z"/>
</svg>
