<?xml version="1.0" encoding="utf-8"?>
<!-- Generator: Adobe Illustrator 18.0.0, SVG Export Plug-In . SVG Version: 6.00 Build 0)  -->
<!DOCTYPE svg PUBLIC "-//W3C//DTD SVG 1.1//EN" "http://www.w3.org/Graphics/SVG/1.1/DTD/svg11.dtd">
<svg version="1.1" id="Layer_1" xmlns="http://www.w3.org/2000/svg" xmlns:xlink="http://www.w3.org/1999/xlink" x="0px" y="0px"
	 viewBox="0 0 100 100" enable-background="new 0 0 100 100" xml:space="preserve">
<g>
	<path fill="#2C3136" d="M41.3,29.4c3.2,0,5.7-2.6,5.7-5.7c0-3.2-5.4-8.6-8.6-8.6c-3.2,0-5.7,2.6-5.7,5.7
		C32.7,24,38.1,29.4,41.3,29.4z"/>
	<path fill="#2C3136" d="M87.7,31.6c-8-8-19.8-10-29.7-5.8C55.6,13.2,44.5,3.7,31.3,3.7c-15,0-27.2,12.2-27.2,27.2
		c0,7.2,2.8,13.7,7.4,18.6C6.9,54.3,4.1,60.8,4.1,68c0,15,12.2,27.2,27.2,27.2c12.3,0,22.8-8.3,26.1-19.6c3.5,1.6,7.3,2.4,11.1,2.4
		c7,0,13.9-2.6,19.2-7.9C98.2,59.5,98.2,42.2,87.7,31.6z M58.3,69.7c0-0.6,0.1-1.2,0.1-1.8c0-0.5,0-1-0.1-1.6c2.9,1.9,6.4,3,10.1,3
		c10.2,0,18.6-8.3,18.6-18.6c0-1.6-1.3-2.9-2.9-2.9c-1.6,0-2.9,1.3-2.9,2.9c0,7.1-5.8,12.9-12.9,12.9c-7.1,0-12.9-5.8-12.9-12.9
		c0-1.6-1.3-2.9-2.9-2.9c-0.8,0-1.6,0.4-2.1,1c-1-1-2-1.9-3.1-2.7c0.8-3.9,2.8-7.6,5.8-10.6c4.2-4.2,9.7-6.3,15.2-6.3
		c5.5,0,11,2.1,15.2,6.3c8.4,8.4,8.4,22,0,30.3C76.8,72.8,66.5,74.1,58.3,69.7z M31.3,89.4C19.4,89.4,9.8,79.8,9.8,68
		c0-11.8,9.6-21.4,21.4-21.4c11.8,0,21.4,9.6,21.4,21.4C52.7,79.8,43.1,89.4,31.3,89.4z M31.3,9.4c11.1,0,20.3,8.5,21.3,19.4
		c-1.2,0.8-2.3,1.8-3.4,2.8c-2.3,2.3-4.1,5-5.4,7.9c-1.1-0.6-2.5-0.5-3.4,0.4c-0.7,0.7-1.5,1.3-2.3,1.8c-2.2-0.6-4.4-0.9-6.8-0.9
		c-2.3,0-4.6,0.3-6.8,0.9c-0.8-0.5-1.6-1.1-2.3-1.8c-2.4-2.4-3.8-5.7-3.8-9.1s1.3-6.7,3.8-9.1c1.1-1.1,1.1-2.9,0-4
		c-1.1-1.1-2.9-1.1-4,0c-3.5,3.5-5.4,8.2-5.4,13.1c0,5,1.9,9.6,5.4,13.1c0.1,0.1,0.1,0.1,0.2,0.2c-0.9,0.5-1.7,1-2.5,1.5
		c-3.7-3.9-6-9.1-6-14.8C9.8,19,19.4,9.4,31.3,9.4z"/>
	<path fill="#2C3136" d="M74.5,42.7c2.2-2.2,2.2-5.9,0-8.1c-2.2-2.2-9.9-2.2-12.1,0c-2.2,2.2-2.2,5.9,0,8.1
		C64.6,45,72.3,45,74.5,42.7z"/>
	<path fill="#2C3136" d="M49.9,68c0-5-1.9-9.6-5.4-13.1c-3.5-3.5-8.2-5.4-13.1-5.4c-5,0-9.6,1.9-13.1,5.4c-1.1,1.1-1.1,2.9,0,4
		c1.1,1.1,2.9,1.1,4,0c2.4-2.4,5.7-3.8,9.1-3.8c3.4,0,6.7,1.3,9.1,3.8c2.4,2.4,3.8,5.7,3.8,9.1s-1.3,6.7-3.8,9.1
		c-1.1,1.1-1.1,2.9,0,4c0.6,0.6,1.3,0.8,2,0.8c0.7,0,1.5-0.3,2-0.8C47.9,77.6,49.9,73,49.9,68z"/>
	<path fill="#2C3136" d="M21.3,69.4c-3.2,0-5.7,2.6-5.7,5.7c0,3.2,5.4,8.6,8.6,8.6c3.2,0,5.7-2.6,5.7-5.7
		C29.8,74.8,24.4,69.4,21.3,69.4z"/>
</g>
</svg>
