<?xml version="1.0" encoding="UTF-8" standalone="no"?>
<svg
   xmlns:dc="http://purl.org/dc/elements/1.1/"
   xmlns:cc="http://creativecommons.org/ns#"
   xmlns:rdf="http://www.w3.org/1999/02/22-rdf-syntax-ns#"
   xmlns:svg="http://www.w3.org/2000/svg"
   xmlns="http://www.w3.org/2000/svg"
   xmlns:sodipodi="http://sodipodi.sourceforge.net/DTD/sodipodi-0.dtd"
   xmlns:inkscape="http://www.inkscape.org/namespaces/inkscape"
   version="1.1"
   id="Layer_1"
   x="0px"
   y="0px"
   viewBox="0 0 100 100"
   enable-background="new 0 0 100 100"
   xml:space="preserve"
   sodipodi:docname="Arándano N.svg"
   inkscape:version="1.0.1 (3bc2e813f5, 2020-09-07)"><metadata
   id="metadata19"><rdf:RDF><cc:Work
       rdf:about=""><dc:format>image/svg+xml</dc:format><dc:type
         rdf:resource="http://purl.org/dc/dcmitype/StillImage" /><dc:title></dc:title></cc:Work></rdf:RDF></metadata><defs
   id="defs17" /><sodipodi:namedview
   pagecolor="#ffffff"
   bordercolor="#666666"
   borderopacity="1"
   objecttolerance="10"
   gridtolerance="10"
   guidetolerance="10"
   inkscape:pageopacity="0"
   inkscape:pageshadow="2"
   inkscape:window-width="1920"
   inkscape:window-height="1017"
   id="namedview15"
   showgrid="false"
   inkscape:zoom="4.34"
   inkscape:cx="-9.1263444"
   inkscape:cy="24.39615"
   inkscape:window-x="-8"
   inkscape:window-y="-8"
   inkscape:window-maximized="1"
   inkscape:current-layer="Layer_1" />
<g
   id="g12"
   transform="translate(-123.04147,-5.9907834)">
	<path
   fill="#2c3136"
   d="m 41.3,29.4 c 3.2,0 5.7,-2.6 5.7,-5.7 0,-3.2 -5.4,-8.6 -8.6,-8.6 -3.2,0 -5.7,2.6 -5.7,5.7 0,3.2 5.4,8.6 8.6,8.6 z"
   id="path2" />
	<path
   fill="#2c3136"
   d="M 87.7,31.6 C 79.7,23.6 67.9,21.6 58,25.8 55.6,13.2 44.5,3.7 31.3,3.7 16.3,3.7 4.1,15.9 4.1,30.9 c 0,7.2 2.8,13.7 7.4,18.6 -4.6,4.8 -7.4,11.3 -7.4,18.5 0,15 12.2,27.2 27.2,27.2 12.3,0 22.8,-8.3 26.1,-19.6 3.5,1.6 7.3,2.4 11.1,2.4 7,0 13.9,-2.6 19.2,-7.9 10.5,-10.6 10.5,-27.9 0,-38.5 z M 58.3,69.7 c 0,-0.6 0.1,-1.2 0.1,-1.8 0,-0.5 0,-1 -0.1,-1.6 2.9,1.9 6.4,3 10.1,3 10.2,0 18.6,-8.3 18.6,-18.6 0,-1.6 -1.3,-2.9 -2.9,-2.9 -1.6,0 -2.9,1.3 -2.9,2.9 0,7.1 -5.8,12.9 -12.9,12.9 -7.1,0 -12.9,-5.8 -12.9,-12.9 0,-1.6 -1.3,-2.9 -2.9,-2.9 -0.8,0 -1.6,0.4 -2.1,1 -1,-1 -2,-1.9 -3.1,-2.7 0.8,-3.9 2.8,-7.6 5.8,-10.6 4.2,-4.2 9.7,-6.3 15.2,-6.3 5.5,0 11,2.1 15.2,6.3 8.4,8.4 8.4,22 0,30.3 -6.7,7 -17,8.3 -25.2,3.9 z m -27,19.7 C 19.4,89.4 9.8,79.8 9.8,68 9.8,56.2 19.4,46.6 31.2,46.6 43,46.6 52.6,56.2 52.6,68 52.7,79.8 43.1,89.4 31.3,89.4 Z m 0,-80 c 11.1,0 20.3,8.5 21.3,19.4 -1.2,0.8 -2.3,1.8 -3.4,2.8 -2.3,2.3 -4.1,5 -5.4,7.9 -1.1,-0.6 -2.5,-0.5 -3.4,0.4 -0.7,0.7 -1.5,1.3 -2.3,1.8 -2.2,-0.6 -4.4,-0.9 -6.8,-0.9 -2.3,0 -4.6,0.3 -6.8,0.9 -0.8,-0.5 -1.6,-1.1 -2.3,-1.8 -2.4,-2.4 -3.8,-5.7 -3.8,-9.1 0,-3.4 1.3,-6.7 3.8,-9.1 1.1,-1.1 1.1,-2.9 0,-4 -1.1,-1.1 -2.9,-1.1 -4,0 -3.5,3.5 -5.4,8.2 -5.4,13.1 0,5 1.9,9.6 5.4,13.1 0.1,0.1 0.1,0.1 0.2,0.2 -0.9,0.5 -1.7,1 -2.5,1.5 -3.7,-3.9 -6,-9.1 -6,-14.8 C 9.8,19 19.4,9.4 31.3,9.4 Z"
   id="path4" />
	<path
   fill="#2c3136"
   d="m 74.5,42.7 c 2.2,-2.2 2.2,-5.9 0,-8.1 -2.2,-2.2 -9.9,-2.2 -12.1,0 -2.2,2.2 -2.2,5.9 0,8.1 2.2,2.3 9.9,2.3 12.1,0 z"
   id="path6" />
	<path
   fill="#2c3136"
   d="M 49.9,68 C 49.9,63 48,58.4 44.5,54.9 41,51.4 36.3,49.5 31.4,49.5 c -5,0 -9.6,1.9 -13.1,5.4 -1.1,1.1 -1.1,2.9 0,4 1.1,1.1 2.9,1.1 4,0 2.4,-2.4 5.7,-3.8 9.1,-3.8 3.4,0 6.7,1.3 9.1,3.8 2.4,2.4 3.8,5.7 3.8,9.1 0,3.4 -1.3,6.7 -3.8,9.1 -1.1,1.1 -1.1,2.9 0,4 0.6,0.6 1.3,0.8 2,0.8 0.7,0 1.5,-0.3 2,-0.8 3.4,-3.5 5.4,-8.1 5.4,-13.1 z"
   id="path8" />
	<path
   fill="#2c3136"
   d="m 21.3,69.4 c -3.2,0 -5.7,2.6 -5.7,5.7 0,3.2 5.4,8.6 8.6,8.6 3.2,0 5.7,-2.6 5.7,-5.7 -0.1,-3.2 -5.5,-8.6 -8.6,-8.6 z"
   id="path10" />
</g>
<path
   style="fill:#aaaaff;stroke:#000000;stroke-width:0.230778"
   d="M 28.431259,95.100014 C 19.872513,94.009101 12.135099,88.702424 7.9425563,81.047912 2.7129563,71.499997 3.9819369,59.158168 11.030623,51.014048 c 0.50929,-0.58844 0.925981,-1.173947 0.925981,-1.301131 0,-0.127182 -0.440668,-0.742772 -0.979262,-1.367977 C 6.5310199,43.183622 4.1614136,35.669673 4.8127074,28.797069 5.8163506,18.206394 12.788193,9.2170949 22.786098,5.6226793 29.470466,3.219536 37.449533,3.7201918 43.869047,6.9455536 c 4.946951,2.4855009 9.547935,7.0996134 12.07708,12.1115434 0.814862,1.614786 2.323841,5.94312 2.323841,6.66567 0,0.447025 0.06083,0.441046 1.900922,-0.186872 3.084705,-1.052631 5.302062,-1.42636 8.582949,-1.446633 3.390892,-0.02095 5.54212,0.297561 8.489134,1.256911 11.220431,3.652622 18.584599,13.867216 18.584599,25.778087 0,18.580867 -18.012857,31.465127 -35.598799,25.463159 -1.267129,-0.432463 -2.364622,-0.71359 -2.438876,-0.624728 -0.07425,0.08886 -0.322995,0.680002 -0.55276,1.313643 -1.315376,3.627493 -3.30083,6.745811 -6.21448,9.760348 -5.921622,6.126663 -14.306384,9.119355 -22.591398,8.063332 z m 8.381795,-5.978818 c 3.628532,-0.835779 7.414935,-2.968295 10.164767,-5.724834 8.187606,-8.207579 8.240429,-21.788113 0.117032,-30.087812 -2.934454,-2.99814 -6.043686,-4.829142 -10.03844,-5.911559 -2.803647,-0.759676 -7.995048,-0.759676 -10.798695,0 -4.006477,1.085592 -7.119499,2.921647 -10.038441,5.920656 -6.17502,6.344401 -7.8016297,15.970604 -4.051075,23.974079 1.13914,2.430861 2.004669,3.680394 4.016125,5.797935 1.732785,1.824171 4.549115,3.836793 6.700089,4.788055 4.251176,1.880072 9.2337,2.324887 13.928638,1.24348 z M 74.283793,71.887949 C 80.666678,70.216742 86.472061,64.98809 88.89939,58.724327 90.034141,55.796085 90.376805,53.546299 90.230902,49.982182 90.080369,46.30497 89.608588,44.384392 88.105791,41.331021 82.84565,30.643514 69.663017,26.267503 58.961213,31.656398 53.760738,34.275099 49.5098,39.399601 47.98324,44.890339 l -0.391168,1.406951 1.340984,1.203809 c 1.806336,1.621555 1.823055,1.628329 2.699783,1.093799 0.914424,-0.557509 1.58777,-0.586795 2.511295,-0.109221 0.92321,0.47741 1.588464,1.626406 1.594413,2.753791 0.02861,5.4225 4.118057,10.652481 9.559071,12.22505 1.947763,0.562945 5.300482,0.515102 7.258065,-0.103574 5.258659,-1.661944 9.192569,-6.787988 9.214046,-12.006269 0.0051,-1.245555 0.630161,-2.370673 1.593816,-2.868998 0.953919,-0.49329 1.663119,-0.446896 2.576366,0.168542 1.207101,0.813465 1.406246,1.381069 1.270832,3.622115 -0.386975,6.40417 -4.292572,12.211309 -10.161973,15.109592 -2.838403,1.401592 -5.111866,1.941099 -8.179723,1.941099 -3.049818,0 -5.338772,-0.53832 -8.12212,-1.910175 l -2.016129,-0.993707 v 1.793682 1.793682 l 1.09447,0.548057 c 1.388541,0.695314 3.030862,1.233014 5.042124,1.650811 2.259314,0.469323 7.016473,0.306938 9.416401,-0.321426 z M 17.774577,45.128675 c 0.601958,-0.378009 1.09447,-0.774714 1.09447,-0.881569 0,-0.106855 -0.219672,-0.391802 -0.48816,-0.633217 -0.268487,-0.241417 -0.930225,-1.061057 -1.470528,-1.821426 -3.551557,-4.998108 -4.443586,-10.89468 -2.521017,-16.664659 0.94956,-2.849803 3.261659,-6.362903 4.916126,-7.469768 1.832473,-1.225953 4.534991,0.751538 3.926527,2.873127 -0.101785,0.354906 -0.645563,1.188266 -1.208394,1.85191 -2.21984,2.61745 -3.192387,5.270501 -3.18067,8.676671 0.01425,4.143399 1.69228,7.627217 4.891976,10.156431 l 1.096551,0.866772 1.454278,-0.367694 c 2.019516,-0.510608 8.937246,-0.515 10.943002,-0.0069 l 1.424207,0.360746 1.110355,-0.88129 c 0.610696,-0.484712 1.330212,-1.042576 1.598924,-1.239698 0.551392,-0.404491 1.528901,-0.520334 2.406394,-0.285175 0.532042,0.14258 0.643044,0.05008 1.115811,-0.929781 1.492809,-3.094005 4.681627,-6.966063 7.264401,-8.820869 1.056848,-0.75897 1.065592,-0.776134 0.925535,-1.816265 -0.606747,-4.506028 -2.839021,-9.001085 -6.078936,-12.241 C 43.45278,12.312371 38.830471,10.133514 33.890616,9.6776923 25.650405,8.917332 18.088671,12.542006 13.613373,19.397476 11.38891,22.80501 10.343701,26.502127 10.343701,30.96297 c 0,4.255433 0.90946,7.612362 3.014449,11.1267 1.10117,1.838436 2.654379,3.737116 3.051866,3.730673 0.14855,-0.0024 0.762602,-0.313659 1.364561,-0.691668 z"
   id="path844" /><path
   style="fill:#aaaaff;stroke:#000000;stroke-width:0.230778"
   d="m 65.067204,43.901014 c -2.259694,-0.742855 -3.336899,-1.77098 -3.948574,-3.768668 -0.376971,-1.231159 -0.255884,-2.741371 0.310035,-3.866801 1.180842,-2.348312 3.36516,-3.225364 7.652173,-3.072516 2.435385,0.08683 2.849737,0.165851 4.072311,0.776622 3.212057,1.604673 3.835395,5.767364 1.26095,8.420705 -0.631943,0.651309 -1.419958,1.197535 -1.973623,1.36805 -1.360922,0.419129 -6.244783,0.513589 -7.373272,0.142608 z"
   id="path846" /><path
   style="fill:#aaaaff;stroke:#000000;stroke-width:0.230778"
   d="m 39.133182,28.617707 c -1.660816,-0.816767 -4.774915,-3.930866 -5.591683,-5.591682 -2.31069,-4.698558 2.636088,-9.531521 7.198293,-7.032675 2.538339,1.390318 5.23657,4.416772 5.885267,6.601172 0.690577,2.325426 -0.489101,4.806061 -2.856515,6.006697 -1.640178,0.831819 -2.967866,0.836541 -4.635362,0.01649 z"
   id="path848" /><path
   style="fill:#aaaaff;stroke:#000000;stroke-width:0.230778"
   d="m 41.16457,81.408733 c -0.744557,-0.403993 -1.328267,-1.431534 -1.326568,-2.335242 0.0013,-0.712138 0.379394,-1.369472 1.656432,-2.880083 1.973323,-2.334242 3.096708,-5.834859 2.868977,-8.940115 -0.512002,-6.981509 -6.048775,-12.20517 -12.93676,-12.20517 -3.164211,0 -5.882307,1.008974 -8.617754,3.198963 -1.704336,1.364485 -2.225498,1.547783 -3.347699,1.177424 -1.12004,-0.369647 -1.744224,-1.314981 -1.744224,-2.641649 0,-0.970077 0.09988,-1.164911 1.09447,-2.134946 2.159991,-2.106665 5.391174,-3.846446 8.527428,-4.591463 2.260169,-0.536903 6.145331,-0.480448 8.465659,0.123015 3.026904,0.787226 5.780553,2.288075 7.97106,4.344548 4.230399,3.971545 6.201892,8.763219 5.89662,14.331619 -0.07327,1.336455 -0.300765,3.052037 -0.505551,3.812406 -0.867931,3.222613 -3.759313,7.900698 -5.411133,8.754887 -0.839123,0.433928 -1.774514,0.428804 -2.590957,-0.01419 z"
   id="path850" /><path
   style="fill:#aaaaff;stroke:#000000;stroke-width:0.230778"
   d="m 22.181917,82.958849 c -2.637231,-1.273463 -5.750798,-4.777034 -6.352733,-7.148475 -0.306049,-1.205736 0.227462,-3.056479 1.229906,-4.266528 0.890224,-1.074589 2.726656,-1.981066 4.019699,-1.984154 3.216968,-0.0077 8.619751,5.395476 8.619751,8.620351 0,2.685257 -2.216438,5.041266 -5.027279,5.343849 -0.875048,0.0942 -1.345043,-0.01248 -2.489344,-0.565043 z"
   id="path852" /></svg>
