<?xml version="1.0" encoding="utf-8"?>
<!-- Generator: Adobe Illustrator 18.0.0, SVG Export Plug-In . SVG Version: 6.00 Build 0)  -->
<!DOCTYPE svg PUBLIC "-//W3C//DTD SVG 1.1//EN" "http://www.w3.org/Graphics/SVG/1.1/DTD/svg11.dtd">
<svg version="1.1" id="Layer_1" xmlns="http://www.w3.org/2000/svg" xmlns:xlink="http://www.w3.org/1999/xlink" x="0px" y="0px"
	 viewBox="0 0 100 100" enable-background="new 0 0 100 100" xml:space="preserve">
<g>
	<path fill="#FFFFFF" d="M26.3,90.6C26.3,90.6,26.3,90.6,26.3,90.6c-5,0-9.5-7.9-10-8.8c-0.2-0.3-6.1-9.9-4.8-43.5
		C12.9,3.5,26.4,8,26.7,8.1l0.6,0.2l4.1,78.6l-0.2,0.3C29.9,89.4,28.2,90.6,26.3,90.6z M25,9.8c-2.5,0-10.6,2.1-11.6,28.6
		c-1.3,32.8,4.5,42.3,4.5,42.4c1.2,2.2,5.1,7.8,8.4,7.8l0,0c1.2,0,2.2-0.7,3.2-2.3l-4-76.5C25.3,9.8,25.2,9.8,25,9.8z"/>
	<path fill="#FFFFFF" d="M29.5,86.7l-4-76.9c-0.8-0.1-2.3,0-3.9,1.2c-3.3,2.3-7.4,8.9-8.1,27.4l-1.9-0.1c0.6-15.5,3.7-25.3,9-29
		c3.2-2.2,6.1-1.3,6.2-1.2l0.6,0.2l4.1,78.3L29.5,86.7z"/>
	<path fill="#FFFFFF" d="M38.5,90.6l-0.2,0c-1.6,0-3.2-1-4.6-2.8l-0.2-0.2L28.8,4.4l0.5-0.3c0.1-0.1,1.2-0.6,3-0.6
		c4.5,0,12.6,3.9,16.5,29.7c0.2,1.3,0.4,2.5,0.5,3.7c4.3,32.1-0.4,42.4-0.6,42.9C48.3,80.7,44.1,90.6,38.5,90.6z M35.4,86.8
		c1,1.2,2,1.8,3,1.8l0.2,1v-1c3.7,0,7.3-7,8.4-9.7c0.1-0.2,4.7-10.4,0.5-41.8c-0.2-1.2-0.3-2.4-0.5-3.6C43.1,8.1,35.5,5.4,32.4,5.4
		c-0.6,0-1.1,0.1-1.5,0.2L35.4,86.8z"/>
	<path fill="#FFFFFF" d="M40.9,91.6c-1.2,0-2.3-0.4-3.2-1.3l-2.1-1.8l2.8,0.1c0,0,0,0,0,0c3.8,0,7.5-7,8.6-9.7
		c0.1-0.2,4.7-10.4,0.5-41.8l0-0.3l0.1-0.3c9.3-18.1,16.7-21.9,21.3-21.9c2.9,0,4.5,1.5,4.6,1.6l0.5,0.4L45.2,89.9L45,90.1
		C43.5,91.1,42.2,91.6,40.9,91.6z M44.2,87.3c-0.8,0.9-1.6,1.7-2.5,2.2c0.6-0.1,1.3-0.4,2-0.9L44.2,87.3z M49.4,37.1
		c2.2,16.3,2,27,1.3,33.5l20.9-53.4c-0.5-0.3-1.5-0.7-2.7-0.7C65.5,16.6,58.6,19.3,49.4,37.1z"/>
	<path fill="#FFFFFF" d="M45.3,89.6l-1.8-0.7l28-71.7c-0.7-0.4-2-0.9-4-0.6c-3.9,0.7-10.2,4.9-18.3,20.7l-1.7-0.9
		C54.3,23.2,61,15.9,67.3,14.8c3.8-0.7,6,1.4,6.1,1.4l0.5,0.4L45.3,89.6z"/>
	<path fill="#FFFFFF" d="M52.3,96.6c-1.9,0-4.4-0.9-5.5-5l-0.1-0.3l30.1-77.6l0.6,0c0,0,0,0,0,0c0.8,0,3.8,0.2,6.2,3.3
		c4,5.3,3.8,15.8-0.5,31.2c-9.7,34-18.9,42-19.3,42.3C63.7,90.7,57.4,96.6,52.3,96.6z M48.8,91.4c0.8,2.9,2.4,3.3,3.5,3.3
		c4.2,0,10.2-5.6,10.3-5.7c0.1-0.1,9.2-8.1,18.7-41.4c5.2-18.4,3.3-26.2,0.8-29.5c-1.4-1.9-3.1-2.4-4-2.5L48.8,91.4z"/>
</g>
</svg>
