<?xml version="1.0" encoding="UTF-8" standalone="no"?>
<svg
   xmlns:dc="http://purl.org/dc/elements/1.1/"
   xmlns:cc="http://creativecommons.org/ns#"
   xmlns:rdf="http://www.w3.org/1999/02/22-rdf-syntax-ns#"
   xmlns:svg="http://www.w3.org/2000/svg"
   xmlns="http://www.w3.org/2000/svg"
   xmlns:sodipodi="http://sodipodi.sourceforge.net/DTD/sodipodi-0.dtd"
   xmlns:inkscape="http://www.inkscape.org/namespaces/inkscape"
   version="1.1"
   id="Layer_1"
   x="0px"
   y="0px"
   viewBox="0 0 100 100"
   enable-background="new 0 0 100 100"
   xml:space="preserve"
   sodipodi:docname="Avena Grano color.svg"
   inkscape:version="1.0.1 (3bc2e813f5, 2020-09-07)"><metadata
   id="metadata21"><rdf:RDF><cc:Work
       rdf:about=""><dc:format>image/svg+xml</dc:format><dc:type
         rdf:resource="http://purl.org/dc/dcmitype/StillImage" /><dc:title></dc:title></cc:Work></rdf:RDF></metadata><defs
   id="defs19" /><sodipodi:namedview
   pagecolor="#ffffff"
   bordercolor="#666666"
   borderopacity="1"
   objecttolerance="10"
   gridtolerance="10"
   guidetolerance="10"
   inkscape:pageopacity="0"
   inkscape:pageshadow="2"
   inkscape:window-width="1920"
   inkscape:window-height="1017"
   id="namedview17"
   showgrid="false"
   inkscape:zoom="8.5"
   inkscape:cx="34.004193"
   inkscape:cy="50"
   inkscape:window-x="-8"
   inkscape:window-y="-8"
   inkscape:window-maximized="1"
   inkscape:current-layer="Layer_1" />
<g
   id="g14"
   transform="translate(-125.76471,-12.470588)">
	<path
   fill="#2c3136"
   d="m -19.935294,90.247059 c 0,0 0,0 0,0 -5,0 -9.5,-7.9 -10,-8.8 -0.2,-0.3 -6.1,-9.9 -4.8,-43.5 1.4,-34.8000002 14.9,-30.3000002 15.2,-30.2000002 l 0.6,0.2 4.1,78.6000002 -0.2,0.3 c -1.3,2.2 -3,3.4 -4.9,3.4 z m -1.3,-80.8000002 c -2.5,0 -10.6,2.1000002 -11.6,28.6000002 -1.3,32.8 4.5,42.3 4.5,42.4 1.2,2.2 5.1,7.8 8.4,7.8 v 0 c 1.2,0 2.2,-0.7 3.2,-2.3 l -4,-76.5000002 c -0.2,0 -0.3,0 -0.5,0 z"
   id="path2" />
	<path
   fill="#2c3136"
   d="m -20.735294,84.347059 -4,-76.9000002 c -0.8,-0.1 -2.3,0 -3.9,1.2 -3.3,2.3000002 -7.4,8.9000002 -8.1,27.4000002 l -1.9,-0.1 c 0.6,-15.5 3.7,-25.3 9,-29.0000002 3.2,-2.2 6.1,-1.3 6.2,-1.2 l 0.6,0.2 4.1,78.3000002 z"
   id="path4" />
	<path
   fill="#2c3136"
   d="m -27.735294,90.6 h -0.2 c -1.6,0 -3.2,-1 -4.6,-2.8 l -0.2,-0.2 -4.7,-83.2 0.5,-0.3 c 0.1,-0.1 1.2,-0.6 3,-0.6 4.5,0 12.6,3.9 16.5,29.7 0.2,1.3 0.4,2.5 0.5,3.7 4.3,32.1 -0.4,42.4 -0.6,42.9 -0.4,0.9 -4.6,10.8 -10.2,10.8 z m -3.1,-3.8 c 1,1.2 2,1.8 3,1.8 l 0.2,1 v -1 c 3.7,0 7.3,-7 8.4,-9.7 0.1,-0.2 4.7,-10.4 0.5,-41.8 -0.2,-1.2 -0.3,-2.4 -0.5,-3.6 -3.9,-25.4 -11.5,-28.1 -14.6,-28.1 -0.6,0 -1.1,0.1 -1.5,0.2 z"
   id="path6" />
	<path
   fill="#2c3136"
   d="m -47.335294,92.070588 c -1.2,0 -2.3,-0.4 -3.2,-1.3 l -2.1,-1.8 2.8,0.1 c 0,0 0,0 0,0 3.8,0 7.5,-7 8.6,-9.7 0.1,-0.2 4.7,-10.4 0.5,-41.8 v -0.3 l 0.1,-0.3 c 9.3,-18.1 16.7,-21.9 21.3,-21.9 2.9,0 4.5,1.5 4.6,1.6 l 0.5,0.4 -28.8,73.3 -0.2,0.2 c -1.5,1 -2.8,1.5 -4.1,1.5 z m 3.3,-4.3 c -0.8,0.9 -1.6,1.7 -2.5,2.2 0.6,-0.1 1.3,-0.4 2,-0.9 z m 5.2,-50.2 c 2.2,16.3 2,27 1.3,33.5 l 20.9,-53.4 c -0.5,-0.3 -1.5,-0.7 -2.7,-0.7 -3.4,0.1 -10.3,2.8 -19.5,20.6 z"
   id="path8" />
	<path
   fill="#2c3136"
   d="m -42.935294,86.894118 -1.8,-0.7 28,-71.7 c -0.7,-0.4 -2,-0.9 -4,-0.6 -3.9,0.7 -10.2,4.9 -18.3,20.7 l -1.7,-0.9 c 6.8,-13.2 13.5,-20.5 19.8,-21.6 3.8,-0.7 6,1.4 6.1,1.4 l 0.5,0.4 z"
   id="path10" />
	<path
   fill="#2c3136"
   d="m 52.3,96.6 c -1.9,0 -4.4,-0.9 -5.5,-5 L 46.7,91.3 76.8,13.7 h 0.6 c 0,0 0,0 0,0 0.8,0 3.8,0.2 6.2,3.3 4,5.3 3.8,15.8 -0.5,31.2 -9.7,34 -18.9,42 -19.3,42.3 -0.1,0.2 -6.4,6.1 -11.5,6.1 z m -3.5,-5.2 c 0.8,2.9 2.4,3.3 3.5,3.3 4.2,0 10.2,-5.6 10.3,-5.7 0.1,-0.1 9.2,-8.1 18.7,-41.4 5.2,-18.4 3.3,-26.2 0.8,-29.5 -1.4,-1.9 -3.1,-2.4 -4,-2.5 z"
   id="path12" />
</g>
<path
   style="fill:#ffe680;stroke:#ffffff;stroke-width:0.117647"
   d="M 50.644058,96.468484 C 48.703504,96.145637 47.132123,94.598831 46.33781,92.22958 L 46.036133,91.329747 61.068067,52.582521 76.1,13.835294 l 0.947348,0.01852 c 1.781919,0.03484 3.382053,0.793629 4.925583,2.335739 1.156866,1.1558 1.916796,2.400609 2.532345,4.148133 2.334212,6.626739 1.154924,17.189107 -3.661195,32.791725 -4.947167,16.027169 -10.512469,28.381951 -15.844251,35.173704 -0.983036,1.252215 -2.916303,3.0987 -4.462753,4.262425 -3.025642,2.276838 -5.735832,3.589417 -8.070471,3.908631 -1.018566,0.139267 -0.94997,0.139481 -1.822548,-0.0057 z m 3.374448,-2.202911 c 2.449426,-0.908606 5.997769,-3.298168 8.213606,-5.531292 2.951068,-2.97409 7.002631,-10.004368 10.484723,-18.193104 3.975327,-9.348661 8.415752,-23.359003 10.011548,-31.588236 2.222061,-11.458761 1.262901,-19.371603 -2.701936,-22.290351 -0.734082,-0.5404 -1.746459,-0.98342 -2.361532,-1.033414 l -0.358937,-0.02918 -14.591369,37.705883 c -8.616396,22.265817 -14.596167,37.874494 -14.603084,38.117647 -0.01351,0.474921 0.555052,1.759894 1.024043,2.314382 0.173613,0.205262 0.592359,0.513828 0.930547,0.6857 0.572555,0.290981 0.695878,0.308869 1.791356,0.259839 0.938813,-0.04202 1.375362,-0.126434 2.161035,-0.417878 z"
   id="path23" /><path
   style="fill:#ffe680;stroke:#ffffff;stroke-width:0.117647"
   d="M 39.985012,91.560439 C 39.712344,91.475219 39.247065,91.263571 38.951058,91.090099 38.655051,90.916628 38.11446,90.696972 37.749743,90.601976 36.711809,90.331629 35.974779,89.868095 34.93376,88.830946 34.016237,87.916833 33.968,87.842504 33.903059,87.242711 33.843136,86.689259 29.24273,5.2537385 29.244705,4.7813815 c 8.71e-4,-0.2084446 0.735174,-0.6042813 1.530185,-0.8248686 0.291176,-0.080791 1.111764,-0.1501285 1.823529,-0.1540831 1.456075,-0.00809 2.436821,0.2299205 3.818462,0.9266764 5.609873,2.8290352 9.956924,12.1792158 12.307542,26.4725978 0.234106,1.423529 0.448961,2.663554 0.477455,2.755611 0.02849,0.09206 0.517288,-0.64912 1.086208,-1.647059 5.782018,-10.142192 11.68162,-16.091659 17.083611,-17.228002 0.976962,-0.20551 2.663697,-0.227602 3.544461,-0.04642 0.798992,0.164359 2.380906,0.934367 2.936345,1.429288 l 0.430554,0.383643 -12.227178,31.117647 c -6.724947,17.114706 -13.181921,33.552648 -14.34883,36.52876 -1.166909,2.976113 -2.231815,5.528376 -2.366458,5.671696 -0.350612,0.37321 -1.941014,1.174162 -2.749719,1.384802 -0.830082,0.216209 -1.93026,0.219912 -2.60586,0.0088 z m 3.361649,-2.274084 c 0.567719,-0.288044 0.658631,-0.389389 0.911765,-1.0164 0.154644,-0.383051 0.28117,-0.720562 0.28117,-0.750023 0,-0.02946 -0.351224,0.30113 -0.780496,0.734647 -0.429273,0.433518 -0.985155,0.923652 -1.235294,1.089186 -0.25014,0.165534 -0.454799,0.326146 -0.454799,0.356914 0,0.112496 0.663211,-0.102574 1.277654,-0.414324 z m -2.681955,-0.980473 c 1.462957,-0.779749 3.146267,-2.647622 4.714452,-5.231359 1.69298,-2.789347 2.519446,-4.908621 3.139032,-8.04929 1.444179,-7.32052 1.529747,-17.733898 0.249901,-30.411764 C 47.288587,29.957851 45.16488,20.35025 41.954723,13.789939 40.717813,11.262178 39.595092,9.5963364 38.188444,8.2017044 36.631862,6.6584188 35.248646,5.8824497 33.597406,5.6261819 c -0.734691,-0.114022 -2.140605,-0.027958 -2.309969,0.1414067 -0.0441,0.044103 0.932361,18.3543754 2.169921,40.6894944 l 2.25011,40.609307 0.504299,0.518223 c 1.318738,1.355151 2.810354,1.596757 4.452939,0.721269 z M 54.574601,61.848763 c 1.906875,-4.885294 6.56732,-16.82353 10.356549,-26.529412 3.789228,-9.705882 6.905679,-17.723465 6.925446,-17.816849 0.06016,-0.284192 -1.24207,-0.733805 -2.320372,-0.801143 -3.697425,-0.230895 -8.480068,3.210274 -13.040363,9.382698 -1.838005,2.487767 -4.175957,6.272968 -6.119935,9.908321 l -0.67445,1.261264 0.359808,2.915207 c 0.456813,3.701155 0.884692,8.19772 1.145007,12.032855 0.354232,5.218767 0.276163,14.549192 -0.1511,18.058824 -0.03939,0.323529 -0.04372,0.561764 -0.0096,0.529411 0.03409,-0.03235 1.622159,-4.055882 3.529033,-8.941176 z"
   id="path25" /><path
   style="fill:#ffe680;stroke:#ffffff;stroke-width:0.117647"
   d="M 25.801556,88.971581 C 23.252774,88.533862 20.059922,85.700187 17.453484,81.562618 16.171756,79.527948 15.510864,77.989725 14.723924,75.20958 12.574443,67.615775 11.496526,56.172259 11.71044,43.217448 11.877587,33.094927 12.362918,27.630001 13.606761,21.864507 15.722126,12.059305 20.018315,6.4113561 25.373118,6.3959621 c 0.68153,-0.002 2.020558,0.270839 2.197875,0.44777 0.06853,0.06838 4.00796,74.1848079 4.118818,77.4913629 0.03068,0.914967 0.01901,0.960487 -0.419027,1.634635 -1.486389,2.287592 -3.4268,3.35261 -5.469228,3.001851 z m 2.145503,-2.136283 c 0.51256,-0.256933 1.438928,-1.164496 1.72411,-1.689111 0.171195,-0.314923 0.04639,-2.993242 -1.661298,-35.651922 C 26.994352,30.072984 26.094699,12.846918 26.010642,11.214119 l -0.152829,-2.9687259 -0.891753,0.06123 c -4.061282,0.278871 -7.474166,5.0159729 -9.344091,12.9696449 -2.442454,10.388909 -2.884312,31.082027 -0.952662,44.615108 0.741116,5.192228 1.760067,9.390698 3.026872,12.471864 1.045855,2.543763 4.223113,6.512497 6.26048,7.820004 1.608243,1.032112 2.832974,1.232239 3.9904,0.65205 z"
   id="path27" /></svg>
