<?xml version="1.0" encoding="UTF-8" standalone="no"?>
<svg
   xmlns:dc="http://purl.org/dc/elements/1.1/"
   xmlns:cc="http://creativecommons.org/ns#"
   xmlns:rdf="http://www.w3.org/1999/02/22-rdf-syntax-ns#"
   xmlns:svg="http://www.w3.org/2000/svg"
   xmlns="http://www.w3.org/2000/svg"
   xmlns:sodipodi="http://sodipodi.sourceforge.net/DTD/sodipodi-0.dtd"
   xmlns:inkscape="http://www.inkscape.org/namespaces/inkscape"
   version="1.1"
   id="Layer_1"
   x="0px"
   y="0px"
   viewBox="0 0 100 100"
   enable-background="new 0 0 100 100"
   xml:space="preserve"
   sodipodi:docname="Berenjena color.svg"
   inkscape:version="1.0.1 (3bc2e813f5, 2020-09-07)"><metadata
   id="metadata11"><rdf:RDF><cc:Work
       rdf:about=""><dc:format>image/svg+xml</dc:format><dc:type
         rdf:resource="http://purl.org/dc/dcmitype/StillImage" /><dc:title></dc:title></cc:Work></rdf:RDF></metadata><defs
   id="defs9" /><sodipodi:namedview
   pagecolor="#ffffff"
   bordercolor="#666666"
   borderopacity="1"
   objecttolerance="10"
   gridtolerance="10"
   guidetolerance="10"
   inkscape:pageopacity="0"
   inkscape:pageshadow="2"
   inkscape:window-width="1920"
   inkscape:window-height="1017"
   id="namedview7"
   showgrid="false"
   inkscape:zoom="8.5"
   inkscape:cx="52.55662"
   inkscape:cy="50"
   inkscape:window-x="-8"
   inkscape:window-y="-8"
   inkscape:window-maximized="1"
   inkscape:current-layer="Layer_1" />
<g
   id="g4"
   transform="translate(219.64706,9.5294118)">
	<path
   fill="#2c3136"
   d="M 86.3,49.9 C 86.2,49.8 86.1,49.7 86,49.7 70.2,40.3 63.2,36 55.1,28.1 c 0.2,-0.3 0.4,-0.6 0.6,-1 0.3,-1.2 -0.2,-2.6 -1.3,-3.2 l -7.6,-4.6 c -0.7,-0.8 -1.4,-1.6 -2.1,-2.4 l 5.1,-3.6 c 1,-0.7 1.5,-2.1 1,-3.3 C 50.4,8.8 49.2,8 47.9,8.1 L 34.5,9 32.5,5 C 32,4 31.1,3.4 30.1,3.3 c -1,-0.1 -2,0.4 -2.6,1.2 l -4.9,6.8 C 18.7,6.9 12.6,3.3 6.8,3.3 5.3,3.3 4,4.6 4,6.2 c 0,1.6 1.3,2.9 2.9,2.9 4.4,0 9,3.2 11.7,6.4 -0.8,0.6 -1.5,1.3 -2.1,2 l -11,6.3 c -1,0.5 -1.5,1.5 -1.5,2.6 0,1.1 0.6,2 1.6,2.5 L 9.4,30.8 6.9,43 c -0.3,1.3 0.4,2.6 1.6,3.2 1.2,0.5 2.7,0.2 3.5,-0.9 l 3,-4 c 7.8,18.7 18.9,37.4 42.2,51.2 0.1,0.1 0.2,0.1 0.3,0.2 4.2,1.8 8.2,2.6 12,2.6 10.2,0 18.4,-5.8 22.7,-12.8 5.6,-9.3 5.9,-22.9 -5.9,-32.6 z M 21.4,21.3 c 0.3,1.2 1.4,2.1 2.7,2.1 1.6,0 2.9,-1.3 2.9,-2.9 0,-1.3 -0.3,-2.7 -1,-4.1 l 3.4,-4.7 0.7,1.5 c 0.5,1 1.6,1.6 2.8,1.6 l 5.1,-0.3 -1.2,0.9 c -0.8,0.6 -1.2,1.5 -1.2,2.5 0,1 0.6,1.9 1.4,2.4 l 5.5,3.3 h -9.7 c -1.4,0 -2.6,1.1 -2.8,2.5 l -2,13.3 -7.3,-9.2 c -0.5,-0.7 -1.4,-1.1 -2.2,-1.1 0,0 0,0 0,0 -0.9,0 -1.7,0.4 -2.3,1.2 l -1,1.4 0.4,-1.9 c 0.3,-1.3 -0.4,-2.6 -1.5,-3.1 L 13,26.1 Z M 87.3,79.4 C 82.5,87.2 72.3,92.7 60,87.4 38.2,74.5 27.7,56.8 20.3,39.1 l 7.3,9.1 c 0,0 0,0 0,0 7.5,14.8 17.3,27 33.9,36.8 2.3,1.1 4.7,1.6 7.2,1.6 9,0 16,-6.9 18,-13.4 0.5,-1.5 -0.4,-3.1 -1.9,-3.6 -1.5,-0.5 -3.1,0.4 -3.6,1.9 -1.4,4.5 -6.6,9.4 -12.5,9.4 -1.6,0 -3.2,-0.4 -4.5,-1 C 49.1,70.9 39.9,59.5 32.9,45.7 l 2.4,-16.6 h 12.8 c 10,10.3 17,14.8 34.7,25.3 9.6,8.1 8.4,18.5 4.5,25 z"
   id="path2" />
</g>
<path
   style="fill:#bc5fd3;stroke:#ffffff;stroke-width:0.117647"
   d="M 67.764706,94.861455 C 64.669871,94.688337 61.150746,93.911275 58.228814,92.75583 55.706643,91.758464 48.481813,86.840438 43.882353,82.990026 36.541787,76.844912 30.010045,69.314752 24.804644,60.99617 21.3529,55.48005 17.576428,48.088239 14.783957,41.382353 c -0.101043,-0.242647 -0.226123,-0.43861 -0.277954,-0.435473 -0.05183,0.0031 -0.835415,0.995784 -1.741297,2.205883 -1.48362,1.981854 -1.711267,2.233217 -2.294118,2.533124 C 9.8984448,45.980286 9.7303808,46.012665 9.0189871,45.965555 8.0787886,45.903295 7.466304,45.54806 6.8931897,44.732618 6.2727465,43.849835 6.2966444,43.612686 7.6938162,36.787646 c 0.6860482,-3.351274 1.2473603,-6.168639 1.2473603,-6.260809 0,-0.09958 -0.9061515,-0.624456 -2.2331788,-1.293527 -2.043833,-1.030477 -2.2656156,-1.172889 -2.6157435,-1.679626 -0.325122,-0.470547 -0.3890147,-0.678138 -0.4255225,-1.382539 -0.047655,-0.919491 0.1007929,-1.40833 0.6116431,-2.014135 0.2015261,-0.238986 2.3469368,-1.538946 5.9884162,-3.628537 5.557493,-3.189059 5.697893,-3.278605 6.81552,-4.346873 l 1.141134,-1.090736 -1.010425,-1.02416 C 13.995178,10.805125 10.586959,9.0326194 6.9309667,8.7193369 5.5505249,8.6010467 5.0098232,8.3939796 4.3883155,7.7456034 3.8809514,7.2163054 3.6470589,6.6098234 3.6470589,5.8235294 c 0,-0.7999502 0.1968741,-1.2971628 0.7607537,-1.9213101 0.670105,-0.7417262 1.203753,-0.8900817 2.9183817,-0.8113174 3.6094797,0.1658072 7.9173687,1.9892174 11.5561587,4.8914017 0.452941,0.3612517 1.357752,1.1747827 2.01069,1.8078472 0.652937,0.6330642 1.218903,1.1510262 1.257701,1.1510262 0.0388,0 1.088355,-1.416177 2.332349,-3.1470594 2.88751,-4.0176556 2.951071,-4.0948293 3.674501,-4.4614194 1.131997,-0.5736256 2.409518,-0.3215616 3.282573,0.6476748 0.244571,0.2715133 0.9114,1.4300227 1.50062,2.6070839 0.583249,1.165134 1.08022,2.1184254 1.104381,2.1184254 0.02416,0 3.143243,-0.2101491 6.931293,-0.4669981 7.880793,-0.5343576 7.665566,-0.5442254 8.604286,0.3944944 1.087589,1.0875882 1.16742,2.6415254 0.192101,3.7392604 -0.230949,0.259936 -1.554465,1.275077 -2.941148,2.255868 -1.386683,0.980792 -2.539495,1.840224 -2.561806,1.909848 -0.02231,0.06963 0.417071,0.649009 0.976402,1.287518 l 1.016962,1.160927 3.956607,2.397488 c 2.176133,1.318619 4.075255,2.508319 4.220272,2.643778 0.447042,0.41758 0.773321,1.238462 0.783268,1.97062 0.0074,0.542421 -0.05215,0.762327 -0.313034,1.156549 -0.177174,0.267729 -0.322135,0.53272 -0.322135,0.588872 0,0.106914 1.628469,1.64094 3.529425,3.324736 3.604207,3.192468 7.796376,6.2687 13.411751,9.841603 2.669747,1.698684 9.491792,5.857251 12.653922,7.713551 4.060317,2.383571 7.970831,7.22553 9.745954,12.06734 1.061431,2.895147 1.41091,4.920647 1.413276,8.191016 0.0015,2.066724 -0.04264,2.720599 -0.26996,4 -0.357964,2.014642 -0.940794,4.009913 -1.70875,5.849762 -3.398484,8.142008 -11.193413,14.290931 -20.019673,15.792248 -1.00508,0.17096 -4.182924,0.437052 -4.697122,0.393307 -0.129412,-0.01101 -0.526471,-0.03631 -0.882353,-0.05622 z m 3.767792,-5.808849 c 2.496529,-0.310191 4.35477,-0.869693 6.643973,-2.000451 2.021589,-0.998568 3.484305,-2.029655 5.139392,-3.622822 2.666634,-2.566867 4.31697,-5.124489 5.393636,-8.358829 0.810988,-2.436238 0.982287,-3.512213 0.985169,-6.188151 0.0022,-2.014948 -0.03596,-2.530387 -0.265443,-3.588235 C 88.729917,62.070552 87.3754,59.365759 85.13467,56.718455 83.460357,54.740343 82.79602,54.244659 77.82353,51.263367 63.041972,42.40098 57.449476,38.324278 49.991505,30.974952 l -2.302614,-2.269069 -6.462092,2.35e-4 -6.462093,2.35e-4 -1.197212,8.313326 -1.197211,8.313326 0.594274,1.186467 c 0.706513,1.410551 2.424974,4.460948 3.485186,6.186467 6.692023,10.891419 15.056684,19.332246 25.76018,25.994745 2.209613,1.37534 3.84391,1.887551 6.022724,1.887551 5.135672,0 10.409701,-3.818328 12.412081,-8.986184 0.627992,-1.620754 1.594526,-2.435864 2.870064,-2.420417 1.466556,0.01776 2.763518,1.340511 2.756676,2.81149 -0.0075,1.614135 -1.922638,5.225553 -4.006457,7.555088 -4.81421,5.381882 -11.577698,7.700514 -17.977995,6.163142 C 61.980903,85.157419 60.541458,84.412298 56.375965,81.61624 44.405321,73.58103 35.658581,63.704188 28.271093,49.880148 27.162836,47.80629 26.9801,47.543097 24.47288,44.40956 c -3.520801,-4.400314 -4.609594,-5.723826 -4.663987,-5.669433 -0.02501,0.02501 0.329071,0.914303 0.786847,1.976203 5.861278,13.596367 12.390613,23.731984 20.747078,32.206104 4.581226,4.645729 8.814843,8.137379 14.068947,11.603279 3.048283,2.010819 4.037407,2.582944 5.295747,3.063145 1.689029,0.644557 4.472211,1.329821 6.116018,1.50586 0.925826,0.09915 3.777282,0.07365 4.708968,-0.04211 z M 28.572546,32.5 c 0.538628,-3.607353 1.03378,-6.784947 1.100337,-7.06132 0.166757,-0.692442 0.681347,-1.360382 1.351569,-1.754343 l 0.563784,-0.331396 5.286681,-0.05882 5.286681,-0.05882 -2.885431,-1.729651 c -1.586987,-0.95131 -3.078664,-1.928597 -3.314839,-2.17175 -1.139448,-1.173119 -0.978989,-3.016483 0.360526,-4.141739 0.308274,-0.258964 0.719323,-0.610587 0.91344,-0.781383 l 0.352942,-0.310537 -1.176471,0.06598 c -4.387387,0.246075 -4.560509,0.243713 -5.245537,-0.07157 -0.849298,-0.390887 -1.306712,-0.888561 -1.775992,-1.932309 -0.21463,-0.477368 -0.428766,-0.854769 -0.475858,-0.83867 -0.136775,0.04676 -3.384966,4.595331 -3.384966,4.740103 0,0.07202 0.128713,0.447718 0.286029,0.834877 0.396562,0.975941 0.691411,2.525955 0.631526,3.319905 -0.119702,1.587009 -1.284447,2.717453 -2.799908,2.717453 -0.375309,0 -0.844694,-0.09001 -1.117647,-0.214323 -0.54358,-0.247566 -1.312826,-1.050303 -1.421533,-1.483427 -0.04101,-0.163395 -0.128334,-0.297083 -0.194055,-0.297083 -0.156207,0 -8.443236,4.734621 -8.443236,4.823868 0,0.03756 0.285519,0.208323 0.634487,0.379474 1.154123,0.566034 1.825827,1.345212 2.009949,2.331541 0.04659,0.249588 -0.02067,0.851087 -0.174395,1.559525 -0.137631,0.634278 -0.23278,1.205608 -0.211442,1.269623 0.02134,0.06402 0.361497,-0.327375 0.755909,-0.869757 0.579483,-0.796891 0.837611,-1.046199 1.344989,-1.299037 0.954053,-0.475424 1.932883,-0.395337 2.771869,0.226792 0.201664,0.149539 2.049592,2.392227 4.106507,4.983753 2.056917,2.591526 3.772453,4.711865 3.812305,4.711865 0.03985,0 0.513153,-2.951471 1.05178,-6.558824 z"
   id="path836" /></svg>
