<?xml version="1.0" encoding="utf-8"?>
<!-- Generator: Adobe Illustrator 18.0.0, SVG Export Plug-In . SVG Version: 6.00 Build 0)  -->
<!DOCTYPE svg PUBLIC "-//W3C//DTD SVG 1.1//EN" "http://www.w3.org/Graphics/SVG/1.1/DTD/svg11.dtd">
<svg version="1.1" id="Layer_1" xmlns="http://www.w3.org/2000/svg" xmlns:xlink="http://www.w3.org/1999/xlink" x="0px" y="0px"
	 viewBox="0 0 100 100" enable-background="new 0 0 100 100" xml:space="preserve">
<g>
	<path fill="#FFFFFF" d="M86.3,49.9c-0.1-0.1-0.2-0.2-0.3-0.2C70.2,40.3,63.2,36,55.1,28.1c0.2-0.3,0.4-0.6,0.6-1
		c0.3-1.2-0.2-2.6-1.3-3.2l-7.6-4.6c-0.7-0.8-1.4-1.6-2.1-2.4l5.1-3.6c1-0.7,1.5-2.1,1-3.3c-0.4-1.2-1.6-2-2.9-1.9L34.5,9l-2-4
		C32,4,31.1,3.4,30.1,3.3c-1-0.1-2,0.4-2.6,1.2l-4.9,6.8c-3.9-4.4-10-8-15.8-8C5.3,3.3,4,4.6,4,6.2c0,1.6,1.3,2.9,2.9,2.9
		c4.4,0,9,3.2,11.7,6.4c-0.8,0.6-1.5,1.3-2.1,2l-11,6.3C4.5,24.3,4,25.3,4,26.4c0,1.1,0.6,2,1.6,2.5l3.8,1.9L6.9,43
		c-0.3,1.3,0.4,2.6,1.6,3.2c1.2,0.5,2.7,0.2,3.5-0.9l3-4C22.8,60,33.9,78.7,57.2,92.5c0.1,0.1,0.2,0.1,0.3,0.2
		c4.2,1.8,8.2,2.6,12,2.6c10.2,0,18.4-5.8,22.7-12.8C97.8,73.2,98.1,59.6,86.3,49.9z M21.4,21.3c0.3,1.2,1.4,2.1,2.7,2.1
		c1.6,0,2.9-1.3,2.9-2.9c0-1.3-0.3-2.7-1-4.1l3.4-4.7l0.7,1.5c0.5,1,1.6,1.6,2.8,1.6l5.1-0.3l-1.2,0.9c-0.8,0.6-1.2,1.5-1.2,2.5
		c0,1,0.6,1.9,1.4,2.4l5.5,3.3h-9.7c-1.4,0-2.6,1.1-2.8,2.5L28,39.4l-7.3-9.2c-0.5-0.7-1.4-1.1-2.2-1.1c0,0,0,0,0,0
		c-0.9,0-1.7,0.4-2.3,1.2l-1,1.4l0.4-1.9c0.3-1.3-0.4-2.6-1.5-3.1L13,26.1L21.4,21.3z M87.3,79.4c-4.8,7.8-15,13.3-27.3,8
		C38.2,74.5,27.7,56.8,20.3,39.1l7.3,9.1c0,0,0,0,0,0C35.1,63,44.9,75.2,61.5,85c2.3,1.1,4.7,1.6,7.2,1.6c9,0,16-6.9,18-13.4
		c0.5-1.5-0.4-3.1-1.9-3.6c-1.5-0.5-3.1,0.4-3.6,1.9c-1.4,4.5-6.6,9.4-12.5,9.4c-1.6,0-3.2-0.4-4.5-1c-15.1-9-24.3-20.4-31.3-34.2
		l2.4-16.6h12.8c10,10.3,17,14.8,34.7,25.3C92.4,62.5,91.2,72.9,87.3,79.4z"/>
</g>
</svg>
