<?xml version="1.0" encoding="UTF-8" standalone="no"?>
<svg
   xmlns:dc="http://purl.org/dc/elements/1.1/"
   xmlns:cc="http://creativecommons.org/ns#"
   xmlns:rdf="http://www.w3.org/1999/02/22-rdf-syntax-ns#"
   xmlns:svg="http://www.w3.org/2000/svg"
   xmlns="http://www.w3.org/2000/svg"
   xmlns:sodipodi="http://sodipodi.sourceforge.net/DTD/sodipodi-0.dtd"
   xmlns:inkscape="http://www.inkscape.org/namespaces/inkscape"
   version="1.1"
   id="Layer_1"
   x="0px"
   y="0px"
   viewBox="0 0 100 100"
   enable-background="new 0 0 100 100"
   xml:space="preserve"
   sodipodi:docname="Brócoli color.svg"
   inkscape:version="1.0.1 (3bc2e813f5, 2020-09-07)"><metadata
   id="metadata29"><rdf:RDF><cc:Work
       rdf:about=""><dc:format>image/svg+xml</dc:format><dc:type
         rdf:resource="http://purl.org/dc/dcmitype/StillImage" /><dc:title></dc:title></cc:Work></rdf:RDF></metadata><defs
   id="defs27" /><sodipodi:namedview
   pagecolor="#ffffff"
   bordercolor="#666666"
   borderopacity="1"
   objecttolerance="10"
   gridtolerance="10"
   guidetolerance="10"
   inkscape:pageopacity="0"
   inkscape:pageshadow="2"
   inkscape:window-width="1920"
   inkscape:window-height="1017"
   id="namedview25"
   showgrid="false"
   inkscape:zoom="8.5"
   inkscape:cx="74.752932"
   inkscape:cy="45.294118"
   inkscape:window-x="-8"
   inkscape:window-y="-8"
   inkscape:window-maximized="1"
   inkscape:current-layer="Layer_1" />
<g
   id="g22"
   transform="translate(102.23529,8.4723895)">
	<path
   fill="#2c3136"
   d="M 92.3,68.6 C 92.2,68.5 92.1,68.4 92,68.3 86.6,62.7 79,52.4 73.5,39.7 76.7,36 78.6,31.1 78.6,25.9 78.6,14 69,4.4 57.1,4.4 52.6,4.4 48.5,5.8 45,8.1 41,5.7 36.3,4.4 31.3,4.4 16.3,4.4 4.1,16.6 4.1,31.6 c 0,5 1.4,9.7 3.7,13.7 -2.3,3.4 -3.7,7.6 -3.7,12.1 0,11.9 9.6,21.5 21.5,21.5 5.3,0 10.1,-1.9 13.9,-5.1 10.6,4.2 20,10.3 28.5,18.6 0.1,0.1 0.2,0.2 0.3,0.3 3.3,2.4 6.7,3.4 10,3.4 4.8,0 9.2,-2.2 12.2,-5.3 5.1,-5.2 7.8,-14.3 1.8,-22.2 z M 64.6,53.1 58,47.3 c 1.6,-0.1 3.2,-0.3 4.8,-0.7 z M 11.5,50.3 c 0.7,0.7 1.4,1.4 2.2,2.1 -0.7,1.6 -1,3.3 -1,5 0,3.4 1.3,6.7 3.8,9.1 2.4,2.4 5.7,3.8 9.1,3.8 3.4,0 6.7,-1.3 9.1,-3.8 1.1,-1.1 1.1,-2.9 0,-4.1 -1.1,-1.1 -2.9,-1.1 -4.1,0 -2.7,2.7 -7.4,2.7 -10.1,0 -1.4,-1.4 -2.1,-3.1 -2.1,-5.1 0,-0.6 0.1,-1.2 0.2,-1.7 3.8,2 8.1,3.1 12.7,3.1 3.5,0 6.9,-0.7 10,-1.9 0,0.2 0,0.3 0,0.5 0,8.7 -7.1,15.8 -15.8,15.8 -8.7,0 -15.7,-7 -15.7,-15.7 0,-2.6 0.6,-5 1.7,-7.1 z M 31.3,10.1 c 11.9,0 21.5,9.6 21.5,21.5 0,11.9 -9.6,21.5 -21.5,21.5 C 19.4,53.1 9.8,43.4 9.8,31.6 9.8,19.8 19.5,10.1 31.3,10.1 Z m 25.8,31.5 c -0.2,0 -0.3,0 -0.5,0 0.4,-0.9 0.7,-1.9 1,-2.9 3.1,-0.1 6.3,-1.3 8.7,-3.7 1.1,-1.1 1.1,-2.9 0,-4.1 -1.1,-1.1 -2.9,-1.1 -4.1,0 -1,1 -2.3,1.7 -3.7,2 0,-0.4 0.1,-0.9 0.1,-1.3 0,-7.8 -3.3,-14.8 -8.6,-19.8 2.1,-1.1 4.6,-1.7 7.1,-1.7 8.7,0 15.8,7.1 15.8,15.8 0,8.7 -7.1,15.7 -15.8,15.7 z M 47,58.2 52.8,64.8 46.3,63 C 46.7,61.4 47,59.9 47,58.2 Z M 86.5,86.8 C 83.3,90 77.7,92.3 71.9,88.2 63.3,79.9 54,73.7 43.5,69.2 c 0.2,-0.3 0.4,-0.6 0.6,-0.9 L 60.6,73 c 0.3,0.1 0.5,0.1 0.8,0.1 1,0 1.9,-0.5 2.4,-1.3 0.7,-1.1 0.6,-2.5 -0.3,-3.4 L 49.2,52 c 0.9,-0.8 1.7,-1.6 2.5,-2.5 l 16.4,14.3 c 0.5,0.5 1.2,0.7 1.9,0.7 0.5,0 1.1,-0.1 1.5,-0.4 1.1,-0.7 1.6,-2 1.2,-3.2 L 68,44.3 c 0.3,-0.2 0.7,-0.4 1,-0.6 5.7,12.6 13.2,22.8 18.8,28.4 3.9,5.3 2.1,11.1 -1.3,14.7 z"
   id="path2" />
	<path
   fill="#2c3136"
   d="m 18.1,44.8 c 3.5,3.5 8.2,5.4 13.2,5.4 5,0 9.7,-1.9 13.2,-5.4 1.1,-1.1 1.1,-2.9 0,-4.1 -1.1,-1.1 -2.9,-1.1 -4.1,0 -2.4,2.4 -5.7,3.8 -9.1,3.8 -3.4,0 -6.7,-1.3 -9.1,-3.8 -2.4,-2.4 -3.8,-5.7 -3.8,-9.1 0,-3.4 1.3,-6.7 3.8,-9.1 1.1,-1.1 1.1,-2.9 0,-4.1 -1.1,-1.1 -2.9,-1.1 -4.1,0 -3.5,3.5 -5.4,8.2 -5.4,13.2 0,5 1.9,9.6 5.4,13.2 z"
   id="path4" />
	<path
   fill="#2c3136"
   d="m 78.6,81.7 c -0.9,-0.1 -3.3,-1.6 -9.5,-7.8 -1.1,-1.1 -2.9,-1.1 -4.1,0 -1.1,1.1 -1.1,2.9 0,4.1 6,6 10.1,9.4 13.5,9.4 1.6,0 2.9,-1.3 2.9,-2.9 0.1,-1.5 -1.2,-2.8 -2.8,-2.8 z"
   id="path6" />
	<circle
   fill="#2c3136"
   cx="32.700001"
   cy="18.700001"
   r="2.9000001"
   id="circle8" />
	<circle
   fill="#2c3136"
   cx="27"
   cy="27.299999"
   r="2.9000001"
   id="circle10" />
	<circle
   fill="#2c3136"
   cx="35.599998"
   cy="33"
   r="2.9000001"
   id="circle12" />
	<circle
   fill="#2c3136"
   cx="44.200001"
   cy="24.4"
   r="2.9000001"
   id="circle14" />
	<circle
   fill="#2c3136"
   cx="67.099998"
   cy="24.4"
   r="2.9000001"
   id="circle16" />
	<circle
   fill="#2c3136"
   cx="61.400002"
   cy="15.8"
   r="2.9000001"
   id="circle18" />
	<circle
   fill="#2c3136"
   cx="47.099998"
   cy="35.900002"
   r="2.9000001"
   id="circle20" />
</g>
<path
   style="fill:#008080;stroke:#ffffff;stroke-width:0.117647"
   d="M 75.000558,95.641166 C 72.468791,95.156348 69.946634,94.103918 68.154116,92.784325 67.817984,92.536877 66.679749,91.531024 65.624704,90.549097 58.031969,83.482565 49.685568,78.075797 40.320947,74.157412 l -1.503142,-0.628951 -0.320388,0.254931 c -0.176214,0.140212 -0.929212,0.668309 -1.673329,1.17355 -2.635997,1.78979 -5.297996,2.846265 -8.705883,3.455126 -1.16452,0.208057 -5.286509,0.206751 -6.470588,-0.002 -3.189748,-0.562479 -6.10244,-1.684164 -8.46228,-3.258846 -1.347942,-0.899461 -2.1062,-1.522633 -3.4015101,-2.795521 C 4.0574854,66.728435 2.002324,58.164934 4.5412848,50.510888 4.9895809,49.159438 6.0824367,46.805679 6.7359724,45.784039 L 7.1507691,45.135607 6.3697818,43.555093 C 3.3395943,37.422785 2.6603613,30.736562 4.4164704,24.327121 5.6558297,19.803711 8.0028721,15.725265 11.268209,12.42088 15.258256,8.3831197 20.1641,5.7710442 25.765264,4.7020432 c 2.541827,-0.4851164 6.27342,-0.5407946 8.941177,-0.1334093 2.810703,0.4292143 5.881283,1.434102 8.355607,2.7344818 l 1.237959,0.650609 1.232629,-0.7091768 c 5.036962,-2.8979521 10.740308,-3.694374 16.261549,-2.2707818 11.827687,3.0496406 18.732853,15.5468559 15.01065,27.1668119 -0.865244,2.701113 -1.907828,4.597014 -3.991821,7.25898 -0.205813,0.262892 3.11014,7.025107 5.291058,10.790046 3.867032,6.675691 7.950444,12.326715 12.431295,17.203637 1.383168,1.505431 1.97084,2.340896 2.755297,3.917078 2.2532,4.527273 2.193067,9.654536 -0.169302,14.435863 -2.419418,4.89679 -6.659919,8.345044 -11.88551,9.664955 -0.986072,0.249068 -1.519187,0.304489 -3.294117,0.342445 -1.457406,0.03117 -2.374407,-0.0039 -2.941177,-0.112416 z m 5.176471,-5.705081 c 1.173585,-0.319065 1.773243,-0.552643 2.645982,-1.030657 2.971485,-1.627534 5.26518,-4.518821 6.160099,-7.76503 0.431894,-1.566648 0.443695,-3.825287 0.02845,-5.446132 -0.472902,-1.845932 -1.307583,-3.237187 -3.059158,-5.099041 -5.930788,-6.304194 -12.408541,-16.072357 -16.613851,-25.052948 -0.492877,-1.052558 -0.936533,-1.957952 -0.9859,-2.011987 -0.116157,-0.127138 -1.057975,0.465224 -1.057975,0.665421 0,0.08385 1.034269,3.802306 2.298376,8.263229 1.264109,4.460925 2.351164,8.342633 2.41568,8.62602 0.234059,1.02809 -0.425188,2.321631 -1.46073,2.866167 -0.676397,0.355683 -1.835194,0.356275 -2.48862,0.0013 -0.258824,-0.140617 -4.20221,-3.513526 -8.763079,-7.495356 L 51.003812,49.217383 49.73748,50.47979 c -0.696484,0.694326 -1.266333,1.295144 -1.266333,1.335153 0,0.04001 3.295588,3.853645 7.323529,8.474745 4.027941,4.621101 7.386422,8.541906 7.463292,8.712901 0.561766,1.249646 -0.03086,2.88259 -1.276836,3.518239 -1.041245,0.531203 -0.838545,0.572601 -10.076602,-2.05792 -4.679287,-1.332418 -8.523722,-2.422579 -8.54319,-2.422579 -0.04217,0 -0.654899,0.916734 -0.654899,0.979828 0,0.02403 0.357353,0.192717 0.794117,0.374853 1.302652,0.54322 5.150793,2.42041 6.852942,3.342984 6.962787,3.773867 13.118234,8.223588 19.479114,14.081288 2.291734,2.110446 3.9329,2.953658 6.579709,3.380581 0.710747,0.114641 2.94992,-0.04223 3.764706,-0.263749 z M 27.743629,72.68555 c 5.603533,-1.069183 10.279483,-5.159591 12.080336,-10.567588 0.21892,-0.65742 0.475809,-1.67178 0.570864,-2.254132 0.16502,-1.010998 0.358974,-3.352942 0.277681,-3.352942 -0.02127,0 -0.476565,0.159809 -1.011756,0.35513 -1.184438,0.432266 -3.309149,0.977215 -4.89549,1.255603 -0.917206,0.16096 -1.85056,0.206854 -4.235294,0.208251 -2.694839,0.0016 -3.240816,-0.03089 -4.588235,-0.272874 -2.552314,-0.458367 -5.426448,-1.392619 -7.469977,-2.428152 -0.552164,-0.279804 -0.599764,-0.286232 -0.679536,-0.09177 -0.04718,0.11501 -0.08344,0.870873 -0.08057,1.679697 0.0045,1.272246 0.04574,1.583279 0.305686,2.306122 0.610371,1.697279 1.90209,3.170147 3.453806,3.938165 2.592085,1.282947 5.613161,1.02525 7.78419,-0.66399 1.641454,-1.277187 2.389873,-1.540951 3.494668,-1.231628 1.546546,0.433006 2.446017,2.465753 1.720419,3.88804 -0.803506,1.575002 -3.701006,3.467487 -6.430194,4.199842 -1.029793,0.276337 -1.371218,0.310558 -3.098495,0.310558 -1.734019,0 -2.066726,-0.03364 -3.117647,-0.315193 -1.422333,-0.381061 -3.47746,-1.368032 -4.558359,-2.18914 -3.693534,-2.805808 -5.528698,-6.911968 -5.13493,-11.489357 0.09443,-1.097686 0.529458,-2.933356 0.826862,-3.489059 0.110617,-0.206691 -0.0083,-0.370466 -0.97203,-1.338173 -0.60394,-0.606461 -1.131594,-1.102658 -1.172565,-1.102658 -0.09271,0 -0.626465,1.18003 -0.9434281,2.085747 -0.7328109,2.093992 -1.0092489,5.260473 -0.6499638,7.445064 0.8297189,5.045007 3.8095009,9.251291 8.1974999,11.571655 1.688758,0.893012 3.752113,1.501778 5.995149,1.768788 0.787281,0.09372 3.358915,-0.04047 4.331306,-0.226004 z m 24.299302,-8.204073 c -0.04904,-0.08088 -1.362457,-1.597242 -2.918708,-3.369687 l -2.829547,-3.22263 -0.08166,0.987335 c -0.09044,1.093506 -0.265221,2.161089 -0.524913,3.206231 -0.09423,0.379218 -0.147575,0.713229 -0.118554,0.742251 0.06682,0.06682 6.200869,1.785955 6.408541,1.796063 0.093,0.0045 0.118687,-0.05075 0.06484,-0.139563 z M 32.656596,52.856311 C 42.299798,51.917113 50.111352,44.728132 51.823734,35.216771 52.08837,33.746861 52.18612,30.512839 52.010892,29.02469 51.397189,23.812708 49.263091,19.487828 45.513172,15.856666 41.837772,12.29766 37.311568,10.297663 32.07958,9.9207537 19.699702,9.0289147 9.0639763,18.951553 9.0639763,31.393241 c 0,12.718893 10.9637867,22.693052 23.5926197,21.46307 z m 31.044171,-0.904246 c -0.15583,-0.566177 -0.563753,-2.035294 -0.906498,-3.264706 l -0.623173,-2.235294 -0.349974,0.01048 c -0.192487,0.0058 -0.852917,0.100533 -1.467622,0.210594 -0.614706,0.110061 -1.541177,0.237698 -2.058824,0.283636 -0.517647,0.04594 -0.936994,0.133503 -0.931884,0.194589 0.0099,0.118641 6.406546,5.813898 6.541297,5.824071 0.044,0.0033 -0.04749,-0.457196 -0.203322,-1.023372 z M 58.805049,41.266985 C 61.986736,40.79455 64.97547,39.32992 67.355911,37.076634 70.642488,33.965615 72.360069,29.74034 72.200878,25.157947 72.169408,24.252065 72.054957,23.087359 71.946542,22.569712 70.620845,16.239913 65.717531,11.397126 59.358117,10.136682 57.955165,9.8586147 55.37992,9.8105287 53.941735,10.035544 c -1.708848,0.267363 -4.647059,1.261443 -4.647059,1.572231 0,0.07356 0.444524,0.5848 0.987831,1.13608 4.661633,4.730043 7.475256,11.56873 7.517348,18.271383 l 0.01093,1.739643 0.359596,-0.07145 c 0.718329,-0.142735 2.282524,-0.983277 3.064835,-1.646931 0.799249,-0.678029 1.677233,-1.113844 2.243921,-1.113844 1.855341,0 3.255909,1.857097 2.756468,3.654966 -0.172856,0.622242 -0.666599,1.216386 -1.711988,2.060116 -1.783642,1.439572 -4.535274,2.55376 -6.708632,2.716453 l -0.95028,0.07114 -0.460801,1.366311 c -0.253441,0.751472 -0.478226,1.432489 -0.499523,1.513371 -0.05539,0.210352 1.352217,0.191901 2.900669,-0.03802 z"
   id="path854" /><path
   style="fill:#008080;stroke:#ffffff;stroke-width:0.117647"
   d="M 27.179709,49.461949 C 20.241688,48.383036 14.619532,43.637588 12.415454,37 c -2.15188,-6.480391 -0.481949,-13.989459 4.158412,-18.698859 1.31626,-1.335843 2.902878,-1.510288 4.078265,-0.448396 0.689701,0.623103 0.964472,1.23077 0.970935,2.147255 0.0066,0.932352 -0.17247,1.30285 -1.137061,2.352941 -1.440539,1.568226 -2.430378,3.341181 -2.987681,5.3514 -0.36744,1.325373 -0.505624,4.026046 -0.278526,5.443523 0.667425,4.165881 3.440532,7.886357 7.214813,9.679588 4.746473,2.255139 10.256442,1.433202 14.259677,-2.127152 1.017231,-0.904694 1.662412,-1.210159 2.538806,-1.202014 1.069566,0.0099 2.098147,0.707076 2.513875,1.703818 0.248252,0.595203 0.229357,1.684727 -0.03934,2.268484 -0.617412,1.341347 -4.052381,3.812499 -6.776839,4.875327 -3.016443,1.176733 -6.67101,1.595007 -9.751079,1.116034 z"
   id="path856" /><path
   style="fill:#008080;stroke:#ffffff;stroke-width:0.117647"
   d="m 33.635285,35.277875 c -0.258824,-0.05978 -0.715163,-0.287855 -1.014087,-0.506834 -1.640478,-1.201742 -1.466479,-3.714688 0.323469,-4.671625 0.806919,-0.431393 1.34271,-0.501791 2.113554,-0.2777 2.705771,0.786589 2.729303,4.606315 0.03331,5.406939 -0.682623,0.202717 -0.777748,0.205932 -1.456245,0.04922 z"
   id="path858" /><path
   style="fill:#008080;stroke:#ffffff;stroke-width:0.117647"
   d="M 24.694108,29.471735 C 24.096852,29.262326 23.1999,28.307171 23.012201,27.68069 c -0.326204,-1.088775 0.01963,-2.23805 0.900302,-2.991872 1.097899,-0.939761 2.518046,-0.915251 3.628978,0.06263 0.663264,0.583829 0.970174,1.228952 0.973573,2.046448 0.0083,1.992472 -1.918561,3.340848 -3.820946,2.673839 z"
   id="path860" /><path
   style="fill:#008080;stroke:#ffffff;stroke-width:0.117647"
   d="m 30.15087,20.730266 c -2.092122,-1.092937 -2.088529,-3.932567 0.0063,-4.994972 1.597863,-0.810358 3.451572,0.02369 3.966935,1.784868 0.668552,2.284679 -1.849862,4.319378 -3.973254,3.210104 z"
   id="path862" /><path
   style="fill:#008080;stroke:#ffffff;stroke-width:0.117647"
   d="m 42.399991,26.713055 c -2.241126,-0.450418 -3.080036,-3.168623 -1.473685,-4.774975 1.777462,-1.777461 4.767802,-0.52113 4.767802,2.003096 0,0.360039 -0.07279,0.828825 -0.161753,1.041747 -0.497273,1.190141 -1.917106,1.974373 -3.132364,1.730132 z"
   id="path864" /><path
   style="fill:#008080;stroke:#ffffff;stroke-width:0.117647"
   d="m 44.537447,37.929014 c -2.124603,-1.058735 -2.036078,-4.043509 0.150119,-5.06152 1.466294,-0.682785 3.166005,0.06074 3.773152,1.65053 0.238609,0.624789 0.191342,1.586658 -0.10625,2.162136 -0.71749,1.387474 -2.420627,1.944706 -3.817021,1.248854 z"
   id="path866" /><path
   style="fill:#008080;stroke:#ffffff;stroke-width:0.117647"
   d="m 65.072165,26.655978 c -1.164588,-0.312692 -2.083939,-1.506975 -2.083939,-2.70714 0,-1.288496 0.981616,-2.488926 2.271244,-2.777533 1.25581,-0.281038 2.607513,0.439291 3.137896,1.672198 0.913211,2.122816 -1.085089,4.413946 -3.325201,3.812475 z"
   id="path868" /><path
   style="fill:#008080;stroke:#ffffff;stroke-width:0.117647"
   d="m 58.929402,17.898157 c -1.033069,-0.470495 -1.824353,-1.880511 -1.639378,-2.921261 0.122016,-0.686512 0.63278,-1.539923 1.14873,-1.919357 1.698049,-1.24876 4.102887,-0.219142 4.482968,1.919357 0.184975,1.04075 -0.60631,2.450766 -1.639378,2.921261 -0.620358,0.282533 -1.732584,0.282533 -2.352942,0 z"
   id="path870" /><path
   style="fill:#008080;stroke:#ffffff;stroke-width:0.117647"
   d="m 75.399991,86.543739 c -2.59068,-0.847055 -5.390651,-2.949981 -10.103007,-7.587887 -2.069273,-2.036582 -2.303591,-2.391097 -2.303591,-3.485264 0,-0.892093 0.2831,-1.531488 0.919137,-2.075911 0.820012,-0.7019 2.084171,-0.897218 3.016872,-0.466119 0.270355,0.124959 1.400606,1.112512 2.656313,2.320945 4.361707,4.197501 6.772025,6.042412 7.8986,6.045764 0.575073,0.0017 1.529001,0.495703 1.956327,1.013086 1.125096,1.362203 0.56946,3.532776 -1.099475,4.295067 -0.670058,0.306049 -1.898866,0.281115 -2.941176,-0.05968 z"
   id="path872" /></svg>
