<?xml version="1.0" encoding="utf-8"?>
<!-- Generator: Adobe Illustrator 18.0.0, SVG Export Plug-In . SVG Version: 6.00 Build 0)  -->
<!DOCTYPE svg PUBLIC "-//W3C//DTD SVG 1.1//EN" "http://www.w3.org/Graphics/SVG/1.1/DTD/svg11.dtd">
<svg version="1.1" id="Layer_1" xmlns="http://www.w3.org/2000/svg" xmlns:xlink="http://www.w3.org/1999/xlink" x="0px" y="0px"
	 viewBox="0 0 100 100" enable-background="new 0 0 100 100" xml:space="preserve">
<g>
	<path fill="#2C3136" d="M92.3,68.6c-0.1-0.1-0.2-0.2-0.3-0.3C86.6,62.7,79,52.4,73.5,39.7c3.2-3.7,5.1-8.6,5.1-13.8
		C78.6,14,69,4.4,57.1,4.4c-4.5,0-8.6,1.4-12.1,3.7c-4-2.4-8.7-3.7-13.7-3.7c-15,0-27.2,12.2-27.2,27.2c0,5,1.4,9.7,3.7,13.7
		c-2.3,3.4-3.7,7.6-3.7,12.1c0,11.9,9.6,21.5,21.5,21.5c5.3,0,10.1-1.9,13.9-5.1C50.1,78,59.5,84.1,68,92.4c0.1,0.1,0.2,0.2,0.3,0.3
		c3.3,2.4,6.7,3.4,10,3.4c4.8,0,9.2-2.2,12.2-5.3C95.6,85.6,98.3,76.5,92.3,68.6z M64.6,53.1l-6.6-5.8c1.6-0.1,3.2-0.3,4.8-0.7
		L64.6,53.1z M11.5,50.3c0.7,0.7,1.4,1.4,2.2,2.1c-0.7,1.6-1,3.3-1,5c0,3.4,1.3,6.7,3.8,9.1c2.4,2.4,5.7,3.8,9.1,3.8
		s6.7-1.3,9.1-3.8c1.1-1.1,1.1-2.9,0-4.1c-1.1-1.1-2.9-1.1-4.1,0c-2.7,2.7-7.4,2.7-10.1,0c-1.4-1.4-2.1-3.1-2.1-5.1
		c0-0.6,0.1-1.2,0.2-1.7c3.8,2,8.1,3.1,12.7,3.1c3.5,0,6.9-0.7,10-1.9c0,0.2,0,0.3,0,0.5c0,8.7-7.1,15.8-15.8,15.8
		S9.8,66.1,9.8,57.4C9.8,54.8,10.4,52.4,11.5,50.3z M31.3,10.1c11.9,0,21.5,9.6,21.5,21.5s-9.6,21.5-21.5,21.5S9.8,43.4,9.8,31.6
		S19.5,10.1,31.3,10.1z M57.1,41.6c-0.2,0-0.3,0-0.5,0c0.4-0.9,0.7-1.9,1-2.9c3.1-0.1,6.3-1.3,8.7-3.7c1.1-1.1,1.1-2.9,0-4.1
		c-1.1-1.1-2.9-1.1-4.1,0c-1,1-2.3,1.7-3.7,2c0-0.4,0.1-0.9,0.1-1.3c0-7.8-3.3-14.8-8.6-19.8c2.1-1.1,4.6-1.7,7.1-1.7
		c8.7,0,15.8,7.1,15.8,15.8S65.8,41.6,57.1,41.6z M47,58.2l5.8,6.6L46.3,63C46.7,61.4,47,59.9,47,58.2z M86.5,86.8
		c-3.2,3.2-8.8,5.5-14.6,1.4C63.3,79.9,54,73.7,43.5,69.2c0.2-0.3,0.4-0.6,0.6-0.9L60.6,73c0.3,0.1,0.5,0.1,0.8,0.1
		c1,0,1.9-0.5,2.4-1.3c0.7-1.1,0.6-2.5-0.3-3.4L49.2,52c0.9-0.8,1.7-1.6,2.5-2.5l16.4,14.3c0.5,0.5,1.2,0.7,1.9,0.7
		c0.5,0,1.1-0.1,1.5-0.4c1.1-0.7,1.6-2,1.2-3.2L68,44.3c0.3-0.2,0.7-0.4,1-0.6c5.7,12.6,13.2,22.8,18.8,28.4
		C91.7,77.4,89.9,83.2,86.5,86.8z"/>
	<path fill="#2C3136" d="M18.1,44.8c3.5,3.5,8.2,5.4,13.2,5.4c5,0,9.7-1.9,13.2-5.4c1.1-1.1,1.1-2.9,0-4.1c-1.1-1.1-2.9-1.1-4.1,0
		c-2.4,2.4-5.7,3.8-9.1,3.8s-6.7-1.3-9.1-3.8c-2.4-2.4-3.8-5.7-3.8-9.1c0-3.4,1.3-6.7,3.8-9.1c1.1-1.1,1.1-2.9,0-4.1
		c-1.1-1.1-2.9-1.1-4.1,0c-3.5,3.5-5.4,8.2-5.4,13.2C12.7,36.6,14.6,41.2,18.1,44.8z"/>
	<path fill="#2C3136" d="M78.6,81.7c-0.9-0.1-3.3-1.6-9.5-7.8c-1.1-1.1-2.9-1.1-4.1,0c-1.1,1.1-1.1,2.9,0,4.1c6,6,10.1,9.4,13.5,9.4
		c1.6,0,2.9-1.3,2.9-2.9C81.5,83,80.2,81.7,78.6,81.7z"/>
	<circle fill="#2C3136" cx="32.7" cy="18.7" r="2.9"/>
	<circle fill="#2C3136" cx="27" cy="27.3" r="2.9"/>
	<circle fill="#2C3136" cx="35.6" cy="33" r="2.9"/>
	<circle fill="#2C3136" cx="44.2" cy="24.4" r="2.9"/>
	<circle fill="#2C3136" cx="67.1" cy="24.4" r="2.9"/>
	<circle fill="#2C3136" cx="61.4" cy="15.8" r="2.9"/>
	<circle fill="#2C3136" cx="47.1" cy="35.9" r="2.9"/>
</g>
</svg>
