<?xml version="1.0" encoding="utf-8"?>
<!-- Generator: Adobe Illustrator 18.0.0, SVG Export Plug-In . SVG Version: 6.00 Build 0)  -->
<!DOCTYPE svg PUBLIC "-//W3C//DTD SVG 1.1//EN" "http://www.w3.org/Graphics/SVG/1.1/DTD/svg11.dtd">
<svg version="1.1" id="Layer_1" xmlns="http://www.w3.org/2000/svg" xmlns:xlink="http://www.w3.org/1999/xlink" x="0px" y="0px"
	 viewBox="0 0 100 100" enable-background="new 0 0 100 100" xml:space="preserve">
<g>
	<path fill="#FFFFFF" d="M88.8,54.9c-2.5-2.3-5.3-4-8.4-5c-1.3-5.3-4.5-10-9.1-13.2c-0.2-0.2-0.5-0.4-0.7-0.6l-0.9-0.5l-0.4-0.2
		l0.4,0.2l-0.4-0.2c-12.2-6.5-15.1-8-24.2-22c-0.1-0.2-0.3-0.3-0.4-0.5c-4.1-6.1-10.9-9.7-18.3-9.7c-12.2,0-22.2,9.9-22.2,22.2
		c0,7.4,3.7,14.3,9.8,18.4c0.3,0.3,0.7,0.5,1.1,0.7c2.3,1.4,4.9,2.3,7.5,2.8c2.7,1.1,4.8,2.2,6.6,3.4c-5.8,0-11.3,2.3-15.5,6.4
		C9.4,61.2,7,66.8,7,72.7c0,5.9,2.3,11.5,6.5,15.8c4.2,4.2,9.8,6.5,15.5,6.5c1.7,0,3.4-0.2,5-0.6l0,0c0.1,0,0.2,0,0.3-0.1v0
		c2.7-0.7,5.3-1.8,7.6-3.5c8.7-3.7,12.7-3.3,21.4-0.2c1.3,0.6,2.7,1.2,4.1,1.5l0.3,0.1c0.3,0.1,0.7,0.2,1.1,0.2
		c6.9,1.3,14.3-0.9,19.8-6c4.5-4.2,7-9.8,7-15.7C95.8,64.7,93.3,59.1,88.8,54.9z M69.6,86.5c-0.1,0-0.1,0-0.2,0
		c-0.1,0-0.2-0.1-0.2-0.1c-1.1-0.3-2.2-0.7-3.2-1.2c-0.1-0.1-0.2-0.1-0.3-0.1C55.5,81.5,50,81,39.4,85.5c-0.2,0.1-0.4,0.2-0.6,0.3
		c-1.7,1.3-3.7,2.2-5.8,2.7c0,0-0.1,0-0.1,0c-0.1,0-0.1,0-0.2,0c-5.4,1.3-11-0.3-15-4.4c-3.1-3.1-4.8-7.2-4.8-11.6
		c0-4.3,1.7-8.4,4.8-11.4c3.1-3.1,7.2-4.8,11.5-4.8c1.2,0,2.4,0.1,3.6,0.4c0.2,0,0.4,0.1,0.7,0.1c17.3,3.5,21.8,2.2,35.2-1.9
		l0.6-0.2c0.1,0,0.3,0,0.4-0.1c5.3-1.2,10.8,0.4,15.1,4.4c3.3,3.1,5.1,7.2,5.1,11.5c0,4.3-1.8,8.3-5.1,11.4
		C80.4,86,74.9,87.7,69.6,86.5z M17.7,39.2c0,0-0.1,0-0.1-0.1c-4.7-3-7.6-8.1-7.6-13.7c0-9,7.3-16.3,16.3-16.3
		C31.9,9.1,37,12,40,16.7c0.1,0.2,0.3,0.4,0.4,0.5c9.7,14.7,13.9,17,26.1,23.5c0,0,0.3,0.2,0.4,0.2l0.3,0.2c0.1,0.1,0.2,0.2,0.3,0.2
		c2.8,1.8,4.9,4.3,6.2,7.3c-1.6-0.1-3.2,0-4.7,0.3c-0.4,0-0.6,0-0.9,0.1l-1.4,0.4c-2.5,0.8-4.6,1.4-6.6,1.9c0.2-0.7,0.2-1.4-0.1-2.1
		c-4.2-8.7-10.9-15.9-18.9-20.2l-0.7-0.4c-3.9-2.1-7.5-4-10.6-6.9c-1.2-1.1-3.1-1.1-4.2,0.1c-1.1,1.2-1.1,3.1,0.1,4.2
		c3.6,3.4,7.8,5.7,11.8,7.8l0.7,0.4C45.2,38,51,44.2,54.7,51.8c0.1,0.3,0.3,0.5,0.5,0.7c-1.8,0.3-3.5,0.5-5.3,0.5
		c-0.4-0.6-0.7-1.2-1.1-1.7l-0.7-1.2c-1.8-3-3.6-6.2-6.4-8.7c-3-2.7-6.7-4.3-10.2-5.8l-0.9-0.4c-3.2-1.4-6.6-3-8.7-5.5
		c-1.7-2.1-1.9-5-0.5-7.1c0.9-1.4,0.5-3.2-0.8-4.1c-1.4-0.9-3.2-0.5-4.1,0.8c-2.8,4.3-2.5,10.1,0.9,14.2c3,3.6,7.2,5.6,10.9,7.2
		l0.9,0.4c3.2,1.4,6.2,2.7,8.6,4.7c2,1.8,3.5,4.2,5,6.8c-1.2-0.2-2.5-0.4-3.8-0.6c-3.2-4.5-7.2-7.4-14.4-10.3
		c-0.2-0.1-0.4-0.1-0.7-0.2c-2.1-0.3-4.2-1.1-6-2.2C17.8,39.2,17.7,39.2,17.7,39.2z"/>
	<path fill="#FFFFFF" d="M81.5,65.6C81.5,65.6,81.5,65.6,81.5,65.6c-1.7,0.1-3,1.4-3,3.1c0.1,2.4-3,6.5-5.3,7.2
		c-3,0.8-6.5,0.2-9.8-0.6l-1.4-0.4c-3.4-0.9-6.9-1.8-10.7-1.6c-4.1,0.2-7.8,1.7-11.3,3.1l-0.9,0.4c-3.3,1.3-6.7,2.6-10,2.2
		c-2.7-0.2-4.9-2.2-5.4-4.7c-0.3-1.6-1.9-2.6-3.5-2.3c-1.6,0.3-2.6,1.9-2.3,3.5c1,5,5.4,8.9,10.6,9.4c0.5,0,1.1,0.1,1.6,0.1
		c4,0,7.9-1.4,11.2-2.7l0.9-0.4c3.2-1.3,6.3-2.5,9.4-2.7c2.8-0.2,5.8,0.6,8.9,1.4l1.5,0.4c4.1,1,8.5,1.8,12.8,0.6
		c5-1.4,9.8-7.9,9.6-13C84.4,66.8,83.1,65.6,81.5,65.6z"/>
	<path fill="#FFFFFF" d="M29.2,73.6C29.3,73.6,29.3,73.6,29.2,73.6c5-0.1,9.6-1.5,14-2.8l0.8-0.2c7.5-2.3,16-2,24,0.8
		c1.5,0.5,3.2-0.3,3.8-1.8c0.5-1.5-0.3-3.2-1.8-3.8c-9.1-3.2-18.9-3.5-27.6-0.9l-0.8,0.3c-4.2,1.3-8.2,2.5-12.3,2.6
		c-1.6,0-2.9,1.4-2.9,3C26.3,72.3,27.6,73.6,29.2,73.6z"/>
</g>
</svg>
