<?xml version="1.0" encoding="UTF-8" standalone="no"?>
<svg
   xmlns:dc="http://purl.org/dc/elements/1.1/"
   xmlns:cc="http://creativecommons.org/ns#"
   xmlns:rdf="http://www.w3.org/1999/02/22-rdf-syntax-ns#"
   xmlns:svg="http://www.w3.org/2000/svg"
   xmlns="http://www.w3.org/2000/svg"
   xmlns:sodipodi="http://sodipodi.sourceforge.net/DTD/sodipodi-0.dtd"
   xmlns:inkscape="http://www.inkscape.org/namespaces/inkscape"
   version="1.1"
   id="Layer_1"
   x="0px"
   y="0px"
   viewBox="0 0 100 100"
   enable-background="new 0 0 100 100"
   xml:space="preserve"
   sodipodi:docname="Cacahuate color.svg"
   inkscape:version="1.0.1 (3bc2e813f5, 2020-09-07)"><metadata
   id="metadata15"><rdf:RDF><cc:Work
       rdf:about=""><dc:format>image/svg+xml</dc:format><dc:type
         rdf:resource="http://purl.org/dc/dcmitype/StillImage" /><dc:title></dc:title></cc:Work></rdf:RDF></metadata><defs
   id="defs13" /><sodipodi:namedview
   pagecolor="#ffffff"
   bordercolor="#666666"
   borderopacity="1"
   objecttolerance="10"
   gridtolerance="10"
   guidetolerance="10"
   inkscape:pageopacity="0"
   inkscape:pageshadow="2"
   inkscape:window-width="1920"
   inkscape:window-height="1017"
   id="namedview11"
   showgrid="false"
   inkscape:zoom="4.34"
   inkscape:cx="71.84085"
   inkscape:cy="56.808373"
   inkscape:window-x="-8"
   inkscape:window-y="-8"
   inkscape:window-maximized="1"
   inkscape:current-layer="Layer_1" />
<g
   id="g8"
   transform="translate(-97.695853,-0.69124424)">
	<path
   fill="#2c3136"
   d="m 88.8,54.9 c -2.5,-2.3 -5.3,-4 -8.4,-5 -1.3,-5.3 -4.5,-10 -9.1,-13.2 -0.2,-0.2 -0.5,-0.4 -0.7,-0.6 l -0.9,-0.5 -0.4,-0.2 0.4,0.2 -0.4,-0.2 C 57.1,28.9 54.2,27.4 45.1,13.4 45,13.2 44.8,13.1 44.7,12.9 40.6,6.8 33.8,3.2 26.4,3.2 14.2,3.2 4.2,13.1 4.2,25.4 c 0,7.4 3.7,14.3 9.8,18.4 0.3,0.3 0.7,0.5 1.1,0.7 2.3,1.4 4.9,2.3 7.5,2.8 2.7,1.1 4.8,2.2 6.6,3.4 -5.8,0 -11.3,2.3 -15.5,6.4 C 9.4,61.2 7,66.8 7,72.7 c 0,5.9 2.3,11.5 6.5,15.8 4.2,4.2 9.8,6.5 15.5,6.5 1.7,0 3.4,-0.2 5,-0.6 v 0 c 0.1,0 0.2,0 0.3,-0.1 v 0 c 2.7,-0.7 5.3,-1.8 7.6,-3.5 8.7,-3.7 12.7,-3.3 21.4,-0.2 1.3,0.6 2.7,1.2 4.1,1.5 l 0.3,0.1 c 0.3,0.1 0.7,0.2 1.1,0.2 6.9,1.3 14.3,-0.9 19.8,-6 4.5,-4.2 7,-9.8 7,-15.7 0.2,-6 -2.3,-11.6 -6.8,-15.8 z M 69.6,86.5 c -0.1,0 -0.1,0 -0.2,0 -0.1,0 -0.2,-0.1 -0.2,-0.1 C 68.1,86.1 67,85.7 66,85.2 65.9,85.1 65.8,85.1 65.7,85.1 55.5,81.5 50,81 39.4,85.5 c -0.2,0.1 -0.4,0.2 -0.6,0.3 -1.7,1.3 -3.7,2.2 -5.8,2.7 0,0 -0.1,0 -0.1,0 -0.1,0 -0.1,0 -0.2,0 -5.4,1.3 -11,-0.3 -15,-4.4 -3.1,-3.1 -4.8,-7.2 -4.8,-11.6 0,-4.3 1.7,-8.4 4.8,-11.4 3.1,-3.1 7.2,-4.8 11.5,-4.8 1.2,0 2.4,0.1 3.6,0.4 0.2,0 0.4,0.1 0.7,0.1 17.3,3.5 21.8,2.2 35.2,-1.9 l 0.6,-0.2 c 0.1,0 0.3,0 0.4,-0.1 5.3,-1.2 10.8,0.4 15.1,4.4 3.3,3.1 5.1,7.2 5.1,11.5 0,4.3 -1.8,8.3 -5.1,11.4 -4.4,4.1 -9.9,5.8 -15.2,4.6 z M 17.7,39.2 c 0,0 -0.1,0 -0.1,-0.1 C 12.9,36.1 10,31 10,25.4 10,16.4 17.3,9.1 26.3,9.1 31.9,9.1 37,12 40,16.7 c 0.1,0.2 0.3,0.4 0.4,0.5 9.7,14.7 13.9,17 26.1,23.5 0,0 0.3,0.2 0.4,0.2 l 0.3,0.2 c 0.1,0.1 0.2,0.2 0.3,0.2 2.8,1.8 4.9,4.3 6.2,7.3 -1.6,-0.1 -3.2,0 -4.7,0.3 -0.4,0 -0.6,0 -0.9,0.1 l -1.4,0.4 c -2.5,0.8 -4.6,1.4 -6.6,1.9 C 60.3,50.6 60.3,49.9 60,49.2 55.8,40.5 49.1,33.3 41.1,29 l -0.7,-0.4 c -3.9,-2.1 -7.5,-4 -10.6,-6.9 -1.2,-1.1 -3.1,-1.1 -4.2,0.1 -1.1,1.2 -1.1,3.1 0.1,4.2 3.6,3.4 7.8,5.7 11.8,7.8 l 0.7,0.4 c 7,3.8 12.8,10 16.5,17.6 0.1,0.3 0.3,0.5 0.5,0.7 -1.8,0.3 -3.5,0.5 -5.3,0.5 -0.4,-0.6 -0.7,-1.2 -1.1,-1.7 l -0.7,-1.2 c -1.8,-3 -3.6,-6.2 -6.4,-8.7 -3,-2.7 -6.7,-4.3 -10.2,-5.8 l -0.9,-0.4 c -3.2,-1.4 -6.6,-3 -8.7,-5.5 -1.7,-2.1 -1.9,-5 -0.5,-7.1 0.9,-1.4 0.5,-3.2 -0.8,-4.1 -1.4,-0.9 -3.2,-0.5 -4.1,0.8 -2.8,4.3 -2.5,10.1 0.9,14.2 3,3.6 7.2,5.6 10.9,7.2 l 0.9,0.4 c 3.2,1.4 6.2,2.7 8.6,4.7 2,1.8 3.5,4.2 5,6.8 C 41.6,52.4 40.3,52.2 39,52 35.8,47.5 31.8,44.6 24.6,41.7 c -0.2,-0.1 -0.4,-0.1 -0.7,-0.2 -2.1,-0.3 -4.2,-1.1 -6,-2.2 -0.1,-0.1 -0.2,-0.1 -0.2,-0.1 z"
   id="path2" />
	<path
   fill="#2c3136"
   d="m 81.5,65.6 c 0,0 0,0 0,0 -1.7,0.1 -3,1.4 -3,3.1 0.1,2.4 -3,6.5 -5.3,7.2 -3,0.8 -6.5,0.2 -9.8,-0.6 L 62,74.9 C 58.6,74 55.1,73.1 51.3,73.3 47.2,73.5 43.5,75 40,76.4 l -0.9,0.4 c -3.3,1.3 -6.7,2.6 -10,2.2 -2.7,-0.2 -4.9,-2.2 -5.4,-4.7 -0.3,-1.6 -1.9,-2.6 -3.5,-2.3 -1.6,0.3 -2.6,1.9 -2.3,3.5 1,5 5.4,8.9 10.6,9.4 0.5,0 1.1,0.1 1.6,0.1 4,0 7.9,-1.4 11.2,-2.7 l 0.9,-0.4 c 3.2,-1.3 6.3,-2.5 9.4,-2.7 2.8,-0.2 5.8,0.6 8.9,1.4 L 62,81 c 4.1,1 8.5,1.8 12.8,0.6 5,-1.4 9.8,-7.9 9.6,-13 0,-1.8 -1.3,-3 -2.9,-3 z"
   id="path4" />
	<path
   fill="#2c3136"
   d="m 29.2,73.6 c 0.1,0 0.1,0 0,0 5,-0.1 9.6,-1.5 14,-2.8 L 44,70.6 c 7.5,-2.3 16,-2 24,0.8 1.5,0.5 3.2,-0.3 3.8,-1.8 C 72.3,68.1 71.5,66.4 70,65.8 60.9,62.6 51.1,62.3 42.4,64.9 l -0.8,0.3 c -4.2,1.3 -8.2,2.5 -12.3,2.6 -1.6,0 -2.9,1.4 -2.9,3 -0.1,1.5 1.2,2.8 2.8,2.8 z"
   id="path6" />
</g>
<path
   style="fill:#483e37;stroke:#000000;stroke-width:0.115389"
   d="M 26.465899,94.991244 C 22.472766,94.53932 18.29779,92.763331 15.115291,90.162817 11.228705,86.986973 8.4219456,82.355648 7.4014626,77.434527 6.4142886,72.674029 6.9642206,68.001883 9.0197476,63.685803 11.013678,59.499063 14.49309,55.875944 18.747005,53.55679 c 2.73635,-1.491806 6.6773,-2.562288 9.432989,-2.562288 0.514621,0 0.935675,-0.04281 0.935675,-0.09513 0,-0.120512 -2.057112,-1.341828 -3.327967,-1.975824 -1.92705,-0.961359 -3.094585,-1.418367 -4.563738,-1.78639 C 18.311957,46.407701 15.593039,45.166316 13.343427,43.539115 11.756091,42.390954 9.3468266,39.982123 8.2979086,38.494502 3.6605616,31.917612 2.8361946,23.777603 6.0734326,16.529452 8.1399846,11.902459 11.783832,8.1308728 16.459305,5.7794926 24.00249,1.9858876 33.121247,2.8974863 39.825449,8.1153977 c 2.194735,1.7081715 3.65698,3.4388413 6.588928,7.7984583 3.269922,4.862163 5.278309,7.434286 7.697078,9.857574 0.921096,0.922818 2.115389,2.029138 2.653983,2.458491 2.198777,1.752802 5.488159,3.757211 10.887097,6.63413 1.457373,0.776588 2.934908,1.637322 3.28341,1.912744 2.04753,1.618165 2.582845,2.08403 3.582658,3.117862 2.380726,2.461727 4.068817,5.249346 5.181979,8.557225 0.246708,0.733118 0.449323,1.41088 0.450256,1.506136 0.001,0.109932 0.285747,0.271223 0.779347,0.441569 1.979772,0.683241 4.794059,2.301456 6.549638,3.766044 3.370441,2.81178 5.674926,6.139715 6.943976,10.027904 0.74338,2.277581 0.87857,3.26975 0.87804,6.443824 -4.6e-4,2.458012 -0.0308,2.912064 -0.27344,4.089862 -1.21918,5.917086 -4.65733,10.906978 -9.864343,14.316414 -3.832222,2.509255 -8.034793,3.795346 -12.442396,3.807686 -3.276155,0.0092 -5.580573,-0.448653 -8.561064,-1.700846 -2.763707,-1.161115 -6.598582,-2.283968 -9.065665,-2.654428 -1.4771,-0.221805 -4.055483,-0.221558 -5.529953,5.76e-4 -2.92783,0.440992 -6.79412,1.786453 -8.755761,3.046987 -4.250852,2.731562 -9.507161,3.995013 -14.343318,3.447681 z m 5.414747,-6.101037 c 2.296484,-0.377952 4.26291,-1.138961 6.127118,-2.371202 1.259465,-0.832506 3.904262,-1.923808 6.657114,-2.746874 2.975893,-0.889753 5.027298,-1.205966 7.837888,-1.208167 2.360344,-0.0019 4.199464,0.233245 6.75696,0.863745 1.838179,0.453166 6.385133,1.895878 7.059541,2.239934 0.816946,0.416776 2.73887,1.018725 3.871889,1.212681 1.302259,0.222928 3.747536,0.250417 4.974243,0.05592 3.692806,-0.585503 6.971569,-2.310411 9.8335,-5.173256 2.511031,-2.511833 3.851909,-4.938986 4.555188,-8.245445 0.27365,-1.286558 0.277062,-4.249781 0.0065,-5.618652 -0.604285,-3.05697 -2.004801,-5.756507 -4.151806,-8.002727 -2.628381,-2.749841 -5.667008,-4.476855 -9.209166,-5.234059 -0.954625,-0.204069 -1.550208,-0.250594 -3.189909,-0.249183 -2.411154,0.0021 -2.490346,0.01777 -7.133385,1.413649 -7.55874,2.272454 -10.917011,2.941841 -15.44726,3.079024 -4.296052,0.130091 -8.187496,-0.298002 -15.956221,-1.755325 -1.203917,-0.225841 -2.5,-0.468105 -2.880184,-0.538364 -1.102589,-0.203763 -4.205604,-0.16168 -5.410567,0.07338 -2.276779,0.44414 -4.570553,1.391249 -6.374665,2.632123 -1.139236,0.783572 -3.08335,2.654736 -3.941544,3.793644 -2.312929,3.06949 -3.351086,6.731596 -3.085074,10.882622 0.415665,6.486315 4.937399,12.295246 11.202686,14.391741 0.648911,0.217139 1.615493,0.467807 2.147958,0.557038 1.499107,0.251222 4.045941,0.228077 5.749224,-0.05224 z m 21.774193,-35.93239 c 0.538595,-0.07401 1.098951,-0.16359 1.245235,-0.199068 0.264776,-0.06422 0.26496,-0.06561 0.04097,-0.309539 -0.123752,-0.134767 -0.461913,-0.719841 -0.75147,-1.300165 -2.059507,-4.127626 -5.409886,-8.544791 -8.759797,-11.548989 -2.601768,-2.333263 -4.744415,-3.840693 -7.961574,-5.601256 -6.245458,-3.417774 -9.001799,-5.220365 -11.42517,-7.471832 -1.000326,-0.929366 -1.305666,-1.500881 -1.304119,-2.440959 0.0029,-1.769722 1.426682,-3.07668 3.157104,-2.898085 0.804301,0.08301 1.104964,0.248602 2.258788,1.24403 1.930055,1.665101 3.999879,3.062887 7.026999,4.745452 0.854524,0.47497 2.460938,1.367841 3.569809,1.984158 3.239966,1.800791 5.419819,3.327691 8.064516,5.648871 4.147034,3.639742 8.104255,8.831432 10.623488,13.937523 0.545903,1.106461 0.566855,1.184963 0.529205,1.982798 l -0.0392,0.830724 0.290029,-0.06781 c 0.159516,-0.03729 1.430582,-0.396614 2.824591,-0.798489 4.795948,-1.382612 5.302395,-1.516016 6.278802,-1.653914 0.538595,-0.07606 1.71803,-0.167365 2.620968,-0.202889 0.902938,-0.03552 1.64071,-0.09632 1.639494,-0.13511 -0.0066,-0.210477 -1.244092,-2.36451 -1.809782,-3.150184 C 70.920847,44.36854 68.942405,42.470046 67.705747,41.649492 67.169566,41.293727 65.600425,40.39682 64.218761,39.656365 56.564109,35.554119 53.35074,33.324802 49.735605,29.608482 47.033035,26.83027 44.62473,23.743108 41.119478,18.563626 38.884071,15.260512 37.453302,13.6245 35.6891,12.354265 33.698208,10.920812 31.126554,9.8406421 28.790594,9.4566914 27.029339,9.1672023 23.962225,9.2709245 22.367845,9.6738928 15.881514,11.313267 11.203633,16.289762 10.028855,22.800543 c -0.2626524,1.455656 -0.2540444,4.162961 0.01785,5.613313 1.257293,6.706761 6.32292,11.816537 13.123676,13.238059 1.722329,0.360008 5.115387,1.874532 7.891801,3.522583 2.617127,1.5535 4.974238,3.573535 6.71986,5.758896 0.507679,0.635567 0.955811,1.191572 0.995851,1.235565 0.08762,0.09627 3.8252,0.699104 3.895927,0.628377 0.06948,-0.06948 -1.671655,-2.911982 -2.469311,-4.031278 -0.364415,-0.511356 -1.181005,-1.455885 -1.814646,-2.09895 -1.88716,-1.915232 -3.529395,-2.864868 -9.767503,-5.648136 -4.633076,-2.067149 -6.688957,-3.211612 -8.736612,-4.863478 -1.070491,-0.863578 -2.602549,-2.465464 -3.200145,-3.345998 -2.469178,-3.638244 -2.839178,-8.061363 -0.999869,-11.952823 0.272429,-0.576382 0.6968,-1.271441 0.943045,-1.544576 1.116921,-1.238883 2.820602,-1.376181 4.016317,-0.323669 0.685887,0.603742 0.982095,1.252723 0.982095,2.151741 0,0.627838 -0.07095,0.861363 -0.564558,1.858201 -1.740697,3.515329 -0.600455,6.643791 3.399674,9.327619 1.591461,1.067768 3.108003,1.858274 6.093455,3.176246 5.409941,2.3883 6.684926,3.035456 8.75576,4.444244 3.139685,2.135926 4.978637,4.3264 8.259512,9.838345 0.603458,1.013825 1.33196,2.206221 1.618892,2.64977 l 0.521694,0.806451 1.48198,-0.07433 c 0.815087,-0.04088 1.922646,-0.134886 2.46124,-0.208895 z"
   id="path840" /><path
   style="fill:#483e37;stroke:#000000;stroke-width:0.115389"
   d="m 28.110599,73.3189 c -1.461223,-0.631941 -2.053381,-2.403334 -1.291159,-3.862394 0.364547,-0.697824 1.087033,-1.310848 1.728031,-1.466224 0.234951,-0.05695 1.15299,-0.16005 2.040087,-0.229109 0.887096,-0.06906 2.105414,-0.210012 2.707373,-0.313229 1.531773,-0.262653 5.127875,-1.196113 7.315668,-1.898969 5.237363,-1.682569 8.942811,-2.292892 13.950391,-2.297763 4.888866,-0.0048 9.700163,0.747413 14.287386,2.233605 1.782875,0.577625 2.46564,1.116103 2.870639,2.263991 0.492862,1.396919 -0.192803,2.82811 -1.66915,3.484028 -0.79423,0.352865 -1.464404,0.291575 -3.344796,-0.305896 -4.185672,-1.329945 -7.65899,-1.854706 -12.269585,-1.853731 -4.48419,9.45e-4 -6.71316,0.364826 -12.557604,2.050022 -3.270393,0.942989 -4.657723,1.297922 -6.56682,1.680044 -3.364764,0.673488 -6.342398,0.886716 -7.200461,0.515625 z"
   id="path842" /><path
   style="fill:#483e37;stroke:#000000;stroke-width:0.115389"
   d="m 27.817926,84.748588 c -4.410253,-0.721391 -8.118605,-3.84168 -9.499191,-7.992828 -0.600502,-1.805588 -0.495881,-2.819962 0.392231,-3.802997 1.1341,-1.255313 3.066605,-1.231348 4.226405,0.05241 0.419315,0.464131 0.505261,0.647125 0.900459,1.917237 0.599841,1.927802 2.294068,3.503073 4.272769,3.972767 0.941764,0.223551 2.442666,0.28108 3.629032,0.139097 2.195772,-0.262784 4.512376,-0.997006 9.101383,-2.884585 2.455508,-1.010014 5.521011,-2.010446 7.200461,-2.349882 4.19033,-0.846913 7.594948,-0.553467 14.10476,1.215698 3.787323,1.029277 6.773984,1.444381 8.998967,1.250731 2.22042,-0.193253 2.904944,-0.479987 4.318613,-1.808989 1.22477,-1.151416 2.334049,-2.804567 2.835422,-4.22561 0.09014,-0.255476 0.21141,-0.923858 0.269496,-1.485294 0.120328,-1.163054 0.419834,-1.798559 1.119401,-2.375202 1.432984,-1.181186 3.45444,-0.783941 4.337394,0.852359 0.219024,0.405897 0.247394,0.632495 0.237996,1.900922 -0.01318,1.779294 -0.301496,2.853931 -1.313628,4.896313 -1.630326,3.289837 -4.498042,6.10366 -7.373859,7.235283 -1.218676,0.479543 -2.879499,0.772901 -4.781106,0.844501 -2.838666,0.106883 -5.108709,-0.243155 -10.599078,-1.63437 -4.572017,-1.158512 -5.18054,-1.258585 -7.661291,-1.259929 -1.811463,-0.001 -2.312886,0.03912 -3.341014,0.267163 -1.52391,0.338016 -4.42861,1.305216 -6.451613,2.148243 -3.562314,1.48449 -6.255205,2.381837 -8.680993,2.892753 -1.723281,0.362955 -4.759542,0.47686 -6.243016,0.234207 z"
   id="path844" /></svg>
