<?xml version="1.0" encoding="UTF-8" standalone="no"?>
<svg
   xmlns:dc="http://purl.org/dc/elements/1.1/"
   xmlns:cc="http://creativecommons.org/ns#"
   xmlns:rdf="http://www.w3.org/1999/02/22-rdf-syntax-ns#"
   xmlns:svg="http://www.w3.org/2000/svg"
   xmlns="http://www.w3.org/2000/svg"
   xmlns:sodipodi="http://sodipodi.sourceforge.net/DTD/sodipodi-0.dtd"
   xmlns:inkscape="http://www.inkscape.org/namespaces/inkscape"
   version="1.1"
   id="Layer_1"
   x="0px"
   y="0px"
   viewBox="0 0 100 100"
   enable-background="new 0 0 100 100"
   xml:space="preserve"
   sodipodi:docname="Cacao color.svg"
   inkscape:version="1.0.1 (3bc2e813f5, 2020-09-07)"><metadata
   id="metadata21"><rdf:RDF><cc:Work
       rdf:about=""><dc:format>image/svg+xml</dc:format><dc:type
         rdf:resource="http://purl.org/dc/dcmitype/StillImage" /><dc:title></dc:title></cc:Work></rdf:RDF></metadata><defs
   id="defs19" /><sodipodi:namedview
   pagecolor="#ffffff"
   bordercolor="#666666"
   borderopacity="1"
   objecttolerance="10"
   gridtolerance="10"
   guidetolerance="10"
   inkscape:pageopacity="0"
   inkscape:pageshadow="2"
   inkscape:window-width="1920"
   inkscape:window-height="1017"
   id="namedview17"
   showgrid="false"
   inkscape:zoom="4.99"
   inkscape:cx="4.8094123"
   inkscape:cy="50"
   inkscape:window-x="-8"
   inkscape:window-y="-8"
   inkscape:window-maximized="1"
   inkscape:current-layer="Layer_1" />
<g
   id="g14"
   transform="translate(-111.02204,-5.6112224)">
	<path
   fill="#2c3136"
   d="m 49.9,44.7 c 0.1,0 0.1,0 0.2,0 1.5,0 2.7,-1.2 2.9,-2.7 0.1,-1.6 -1.1,-2.9 -2.7,-3 C 47.8,38.8 44.6,37.3 42.2,35.2 40.6,33.8 39.3,30.8 38.6,27 38.3,25.4 36.8,24.4 35.3,24.7 33.7,25 32.7,26.5 33,28 c 0.7,3.6 2.1,8.5 5.4,11.4 2.6,2.4 7,5 11.5,5.3 z"
   id="path2" />
	<path
   fill="#2c3136"
   d="m 47.7,33.2 c 2,-0.3 4.6,0.5 6,2 1.9,2 4.2,5.4 5.2,7.8 0.5,1.1 1.5,1.7 2.6,1.7 0.4,0 0.8,-0.1 1.2,-0.2 1.4,-0.6 2.1,-2.3 1.5,-3.8 -1.3,-2.9 -3.9,-6.9 -6.2,-9.4 -2.7,-2.9 -7.2,-4.4 -11.2,-3.7 -1.6,0.3 -2.6,1.7 -2.3,3.3 0.2,1.5 1.6,2.6 3.2,2.3 z"
   id="path4" />
	<path
   fill="#2c3136"
   d="M 88.1,55.1 C 87.2,54.5 86.4,53.8 85.6,53.2 83.6,51.6 81.3,49.8 78.3,49 78.2,48.2 78.1,47.4 78,46.6 77.7,43.6 77.3,40.1 75,37.1 74,35.8 73.1,34.5 72.1,33 68.7,28.2 64.8,22.8 60.2,19.3 55.4,15.7 48.7,13.5 42.8,11.5 41.6,11.1 40.5,10.7 39.5,10.4 36.8,9.4 33.9,8.9 31,8.3 27.7,7.6 24.6,7 21.9,5.9 17.4,4 13.2,4.1 9.2,6 6,7.6 4.1,11.3 4.1,16 c 0,6.3 3.2,12.6 6.3,16 1.5,4.2 3.3,7.4 5.8,11.4 3.1,5 7.3,9.8 12,14.1 -1,0.6 -2,1.3 -3,1.9 -2.8,1.9 -5.4,3.6 -8.1,4.7 -2.4,1 -4.1,3 -6,5.4 -0.7,0.8 -1.4,1.7 -2.2,2.7 -1.2,1.4 -1.8,3 -1.6,4.7 0.2,2.4 1.7,4.7 4.6,7 4.5,4.4 11.1,6.5 15.6,6.7 4,1.9 7.5,2.9 12.2,4 4.6,1.1 9.5,1.6 14.6,1.6 5,0 10.1,-0.5 15,-1.6 C 75.1,93.3 79.7,91.8 84.6,88 89.2,84.5 94.8,78.8 95.8,72 96.6,65.4 93.7,58.9 88.1,55.1 Z M 90,71.2 c -0.7,5.2 -6,9.9 -9,12.3 -4.1,3.1 -7.9,4.4 -13,5.5 -8.9,1.9 -18.7,1.9 -27,0 -4.6,-1.1 -7.7,-2 -11.5,-3.8 -0.4,-0.2 -0.8,-0.3 -1.3,-0.3 -3.5,0 -9,-1.8 -12.4,-5.2 -0.1,-0.1 -0.2,-0.1 -0.2,-0.2 -2.4,-2 -2.6,-3 -2.6,-3.1 0,-0.1 0,-0.2 0.2,-0.4 0.9,-1 1.7,-2 2.4,-2.9 1.5,-1.8 2.6,-3.2 3.7,-3.7 3.2,-1.3 6.2,-3.3 9.1,-5.2 2.3,-1.6 4.5,-3 6.8,-4.1 1,-0.5 2.1,-1 3.2,-1.6 C 43.6,55.9 49.5,53 54.6,52.2 55.8,52 57,52 58.2,52 c 4,0 8.4,0.7 12.7,1.5 1.8,0.3 3.5,0.6 5.1,0.8 2.1,0.3 3.9,1.7 6,3.4 0.9,0.8 1.9,1.5 2.9,2.2 3.8,2.5 5.7,6.8 5.1,11.3 z M 14.9,28.4 C 12.4,25.9 9.8,20.7 9.8,16 c 0,-1.9 0.6,-4.2 1.9,-4.8 1.2,-0.6 2.5,-0.9 3.8,-0.9 1.3,0 2.6,0.3 4.1,0.9 3.2,1.4 6.8,2.1 10.2,2.8 2.7,0.6 5.3,1.1 7.7,1.9 1.1,0.4 2.2,0.8 3.4,1.2 5.5,1.9 11.8,4 15.8,7 3.9,2.9 7.4,7.7 10.7,12.4 1,1.5 2.1,2.9 3,4.2 1.3,1.7 1.6,4 1.8,6.6 0,0.2 0.1,0.4 0.1,0.7 -0.2,0 -0.4,-0.1 -0.6,-0.1 -5.8,-1 -12.4,-2.1 -18.1,-1.2 -2.3,0.3 -4.6,1 -7,1.9 C 46.2,48.4 45.7,48.2 45.3,48 39.6,45.7 34.9,41.9 32.4,37.7 c -0.6,-1 -1.3,-2.1 -2,-3.3 -3.5,-6 -7.9,-13.4 -13,-17.5 -1.2,-1 -3,-0.8 -4,0.4 -1,1.2 -0.8,3 0.4,4 4.3,3.4 8.4,10.4 11.7,15.9 0.7,1.2 1.4,2.3 2,3.3 2.7,4.4 6.9,8.2 12.2,10.9 C 38.4,52 37,52.7 35.8,53.3 35,53.7 34.2,54.1 33.5,54.4 28.6,50.2 24.2,45.3 21,40.2 18.5,36.2 16.9,33.3 15.6,29.3 15.5,29.1 15.2,28.7 14.9,28.4 Z"
   id="path6" />
	<path
   fill="#2c3136"
   d="m 82.4,71.3 c -3.6,3.6 -8.3,4.9 -12.9,6 -2.2,0.6 -4.3,1.1 -6.2,1.9 -4.5,1.9 -9.1,1.4 -15.4,-0.1 -6.2,-1.5 -18.7,-3.8 -26.7,-2.9 -1.6,0.2 -2.7,1.6 -2.5,3.1 0.2,1.6 1.6,2.7 3.1,2.5 6.3,-0.7 17.2,1 24.8,2.8 3.3,0.8 6.8,1.5 10.3,1.5 2.8,0 5.7,-0.4 8.6,-1.7 1.5,-0.6 3.4,-1.1 5.4,-1.7 4.8,-1.2 10.7,-2.8 15.5,-7.5 1.1,-1.1 1.1,-2.9 0,-4 -1.1,-1.1 -2.9,-1.1 -4,0.1 z"
   id="path8" />
	<path
   fill="#2c3136"
   d="m 62.5,68.3 c -1.4,1.2 -5.7,2.1 -10.1,2.1 0,0 0,0 0,0 -5.1,0 -10.1,-1 -12.1,-2.3 -1.3,-0.9 -3.1,-0.6 -4,0.7 -0.9,1.3 -0.6,3.1 0.7,4 4.5,3.1 12.8,3.4 15.3,3.4 0,0 0,0 0,0 2.3,0 10.1,-0.3 13.9,-3.6 1.2,-1 1.3,-2.8 0.3,-4 -1,-1.3 -2.8,-1.4 -4,-0.3 z"
   id="path10" />
	<path
   fill="#2c3136"
   d="m 60.6,56.6 c -0.1,0 -0.2,0 -0.3,0 -3.9,0 -10.3,3.3 -12.6,6.5 -0.9,1.3 -0.6,3.1 0.7,4 0.5,0.4 1.1,0.5 1.6,0.5 0.9,0 1.8,-0.4 2.3,-1.2 1.2,-1.7 5.9,-4.1 8,-4.1 2.1,0.1 5.2,0.9 8.7,2.2 1.5,0.6 3.1,-0.2 3.7,-1.6 0.6,-1.5 -0.2,-3.1 -1.6,-3.7 -2.9,-1.1 -7,-2.5 -10.5,-2.6 z"
   id="path12" />
</g>
<path
   style="fill:#502d16;stroke:#000000;stroke-width:0.200716"
   d="M 49.621607,95.011733 C 43.202324,94.448435 35.965876,92.865292 31.084533,90.956314 29.982328,90.525268 28.719803,90.036942 28.278922,89.871142 27.83804,89.705345 26.574721,89.429326 25.471549,89.257769 21.532168,88.64515 17.390548,86.955034 14.406005,84.74213 11.816488,82.82212 9.0973618,80.028208 8.3319388,78.501004 c -0.821177,-1.638445 -1.00894,-3.459377 -0.511225,-4.957858 0.392075,-1.180427 3.7794912,-5.538114 6.1203422,-7.873417 1.33949,-1.336314 1.844115,-1.673559 4.418026,-2.952585 2.327321,-1.156491 7.721527,-4.43717 9.683952,-5.889643 0.336284,-0.248898 0.14503,-0.493339 -2.406726,-3.075996 C 21.198527,49.259984 18.590343,45.922621 15.42142,40.680811 13.541053,37.570441 12.06309,34.677106 11.144764,32.308619 10.888352,31.647296 10.393382,30.745493 10.044831,30.304611 7.6343088,27.255543 5.9109091,23.750743 4.920638,19.883769 4.5440879,18.413355 4.4579969,17.543352 4.4546182,15.174351 4.4508755,12.550171 4.5025836,12.112148 4.9881303,10.65493 6.5614872,5.932989 10.4179,3.5828599 16.248317,3.7928812 c 2.15268,0.077543 2.637101,0.1671771 4.515575,0.8355317 3.442996,1.2250066 5.76238,1.860022 9.95613,2.7258503 5.879625,1.2138887 7.237573,1.5911715 13.390733,3.7203858 11.415495,3.950173 15.408119,6.11162 19.857365,10.749992 1.921419,2.00309 4.733565,5.511579 7.198487,8.980972 0.978864,1.377756 2.36609,3.316633 3.082725,4.308617 2.467503,3.415579 3.120521,5.209501 3.746614,10.292419 0.298178,2.420752 0.399697,2.833834 0.696449,2.833834 0.869394,0 4.130142,1.960072 7.502358,4.509749 4.336135,3.278481 5.191094,4.08695 6.706269,6.341581 2.15723,3.210033 3.132419,6.657562 2.961777,10.470592 -0.149992,3.351633 -1.223621,6.247497 -3.579921,9.656006 -2.917413,4.220188 -8.767732,9.13023 -13.46367,11.299759 -3.96485,1.831768 -9.803086,3.34112 -15.971148,4.129008 -2.378637,0.303838 -11.160116,0.54588 -13.226453,0.364555 z M 62.94826,89.029797 c 10.543243,-1.440388 16.127261,-3.897068 21.857618,-9.616222 4.751314,-4.742026 6.329224,-9.017695 5.100669,-13.821301 -0.765309,-2.992328 -2.064972,-4.687819 -5.695395,-7.429994 -1.223649,-0.924262 -2.765898,-2.099751 -3.42722,-2.612202 -2.335425,-1.809689 -2.822227,-1.967088 -9.53364,-3.082561 -7.720984,-1.283269 -8.966272,-1.418736 -13.011451,-1.415441 -5.801845,0.0047 -9.087308,1.075176 -20.04008,6.529347 -4.807779,2.394138 -5.725326,2.926026 -11.359861,6.58513 -1.522618,0.9888 -3.98583,2.421872 -5.473806,3.184607 -1.487976,0.762738 -2.877837,1.531876 -3.08858,1.709201 -0.210743,0.177324 -1.488025,1.650066 -2.838404,3.272759 -1.980384,2.379746 -2.433133,3.038635 -2.340963,3.406814 0.176738,0.705988 3.586052,4.00104 5.251162,5.07517 2.706634,1.746 6.008456,2.881665 9.32941,3.208866 0.972325,0.0958 2.017778,0.399507 3.406814,0.989691 4.897425,2.08086 11.672322,3.751423 17.48122,4.310545 2.75498,0.265175 11.613876,0.08383 14.382507,-0.294409 z M 36.894389,52.001202 c 1.599168,-0.797336 2.907579,-1.510629 2.907579,-1.585094 0,-0.07446 -0.658397,-0.496739 -1.463104,-0.938389 C 35.196513,47.753098 31.678306,44.753892 29.482529,41.927858 28.797415,41.046094 27.037643,38.340683 25.571928,35.915833 20.373742,27.316072 18.129653,24.169852 15.178009,21.34353 13.142318,19.394271 12.74998,18.630412 13.131106,17.358329 c 0.27277,-0.910425 1.273588,-1.752037 2.277124,-1.914888 1.028224,-0.166858 1.898597,0.343583 3.812051,2.235626 3.307641,3.270626 5.76453,6.72449 10.962679,15.411183 2.779104,4.644203 3.309942,5.404648 5.044016,7.225748 1.06592,1.119415 2.734256,2.603687 3.707415,3.298387 1.780657,1.271136 7.091681,4.024895 7.762599,4.024895 0.198268,0 1.147847,-0.263789 2.110178,-0.5862 5.307495,-1.778174 10.33797,-1.968802 18.65011,-0.706737 1.818638,0.27613 3.69664,0.557917 4.173339,0.626194 l 0.866725,0.124138 -0.134511,-1.482204 C 72.182431,43.626579 71.759733,41.795617 71.250988,40.798397 71.020817,40.347222 69.39613,37.964471 67.640573,35.503393 60.605683,25.641326 57.504409,22.672065 51.382775,19.937638 46.256385,17.647769 36.786369,14.440147 32.286938,13.469619 26.282952,12.17456 22.522263,11.200261 20.321619,10.369709 17.779488,9.4102754 16.145274,9.1425914 14.351066,9.3917344 c -3.337765,0.46348 -4.4865382,2.0086376 -4.4481732,5.9830166 0.038,3.936266 1.7765912,8.334525 4.6134082,11.670908 0.81323,0.956439 1.247016,1.731623 1.823682,3.258952 2.632676,6.972778 8.503179,15.301619 14.914369,21.15993 1.195606,1.092499 2.29952,1.986363 2.453143,1.986363 0.153621,0 1.587723,-0.652367 3.186894,-1.449702 z"
   id="path846" /><path
   style="fill:#502d16;stroke:#000000;stroke-width:0.200716"
   d="m 48.581155,67.056978 c -0.700292,-0.427037 -1.286566,-1.506414 -1.286566,-2.368671 0,-2.073916 4.498118,-5.629369 9.05668,-7.158683 2.961694,-0.993594 5.21623,-1.018292 8.867272,-0.09714 2.328934,0.587587 5.732718,1.777969 6.377669,2.230419 1.49199,1.04667 1.512471,3.176667 0.04167,4.333601 -0.954167,0.750546 -1.476339,0.719758 -4.538668,-0.267606 -3.864247,-1.245921 -6.369856,-1.672919 -7.914922,-1.348838 -2.182587,0.457802 -5.972426,2.579352 -6.928819,3.87875 -0.873831,1.187224 -2.468306,1.53359 -3.674316,0.798166 z"
   id="path848" /><path
   style="fill:#502d16;stroke:#000000;stroke-width:0.200716"
   d="m 46.893788,75.76441 c -4.887167,-0.627862 -9.232238,-2.154573 -10.41638,-3.659966 -1.230202,-1.563948 -0.27839,-4.011245 1.704763,-4.383287 0.55527,-0.104169 1.003501,0.01584 2.224065,0.595487 2.899149,1.376799 7.011792,2.113686 11.833772,2.120325 4.729647,0.0065 8.039377,-0.643244 10.331709,-2.028292 1.480572,-0.894575 2.244954,-0.955881 3.299888,-0.264662 0.728792,0.477523 1.313722,1.921112 1.144315,2.824131 -0.340517,1.815112 -3.316419,3.478164 -8.035126,4.490349 -2.550465,0.547087 -8.949189,0.709034 -12.087006,0.305915 z"
   id="path850" /><path
   style="fill:#502d16;stroke:#000000;stroke-width:0.200716"
   d="M 54.030331,85.859203 C 53.050619,85.758077 50.931381,85.39856 49.320912,85.060277 41.119327,83.337513 38.736966,82.876286 36.072144,82.4953 c -4.930158,-0.704856 -7.16476,-0.877786 -11.322645,-0.876227 -4.434607,0.0017 -4.828473,-0.08526 -5.519135,-1.217981 -0.579347,-0.95016 -0.518123,-2.165158 0.149057,-2.958056 0.782261,-0.929664 1.52418,-1.160695 4.194725,-1.306219 5.194348,-0.283051 14.103988,0.800609 23.219441,2.82413 5.402962,1.199393 7.407591,1.498216 10.057038,1.499169 2.484034,9.02e-4 4.267736,-0.309459 6.375828,-1.109352 1.885527,-0.715443 3.174583,-1.103075 7.314629,-2.199585 5.886984,-1.559195 8.799828,-2.922904 11.664623,-5.461036 0.628968,-0.55725 1.417736,-1.073397 1.752812,-1.146992 1.859208,-0.408351 3.622884,1.564147 3.023212,3.381166 -0.462164,1.400373 -4.250268,4.350198 -7.471645,5.818227 -2.217367,1.010487 -3.894076,1.575083 -8.067198,2.716459 -2.094189,0.572774 -4.845988,1.429416 -6.11511,1.903647 -3.806127,1.422233 -7.402299,1.898611 -11.297445,1.496553 z"
   id="path852" /><path
   style="fill:#502d16;stroke:#000000;stroke-width:0.200716"
   d="M 47.410176,44.170172 C 45.454724,43.689891 42.48578,42.304285 40.711119,41.043724 36.823785,38.282509 35.040263,35.541098 33.654318,30.196878 32.95962,27.518115 32.938291,27.065841 33.465851,26.200573 c 0.799205,-1.3108 2.194377,-1.760442 3.516175,-1.133208 0.95201,0.451759 1.265749,1.043363 1.891568,3.566852 0.600778,2.422514 1.413997,4.370295 2.358602,5.649199 1.42749,1.932685 5.189861,4.066819 8.252871,4.681284 2.107753,0.422833 2.630486,0.71309 3.112123,1.728066 0.883584,1.862015 -0.62586,3.924314 -2.841254,3.881903 -0.416867,-0.008 -1.472459,-0.190004 -2.34576,-0.404497 z"
   id="path854" /><path
   style="fill:#502d16;stroke:#000000;stroke-width:0.200716"
   d="m 60.12024,44.151542 c -0.48967,-0.330462 -1.004108,-1.04667 -1.704171,-2.372568 -1.857914,-3.518833 -4.387947,-6.770108 -6.006295,-7.718523 -1.120839,-0.656856 -3.325481,-1.116595 -4.628917,-0.965281 -2.320749,0.269414 -3.886739,-1.77989 -2.906872,-3.804026 0.5888,-1.216298 1.366113,-1.600506 3.438535,-1.699589 2.043212,-0.09769 4.274844,0.39323 6.358949,1.39885 2.578615,1.244229 6.197293,5.541897 8.669557,10.296266 1.048665,2.016669 1.151012,2.527134 0.712858,3.555437 -0.688417,1.615643 -2.557823,2.237932 -3.933644,1.309434 z"
   id="path856" /></svg>
