<?xml version="1.0" encoding="utf-8"?>
<!-- Generator: Adobe Illustrator 18.0.0, SVG Export Plug-In . SVG Version: 6.00 Build 0)  -->
<!DOCTYPE svg PUBLIC "-//W3C//DTD SVG 1.1//EN" "http://www.w3.org/Graphics/SVG/1.1/DTD/svg11.dtd">
<svg version="1.1" id="Layer_1" xmlns="http://www.w3.org/2000/svg" xmlns:xlink="http://www.w3.org/1999/xlink" x="0px" y="0px"
	 viewBox="0 0 100 100" enable-background="new 0 0 100 100" xml:space="preserve">
<g>
	<path fill="#2C3136" d="M49.9,44.7c0.1,0,0.1,0,0.2,0c1.5,0,2.7-1.2,2.9-2.7c0.1-1.6-1.1-2.9-2.7-3c-2.5-0.2-5.7-1.7-8.1-3.8
		c-1.6-1.4-2.9-4.4-3.6-8.2c-0.3-1.6-1.8-2.6-3.3-2.3c-1.6,0.3-2.6,1.8-2.3,3.3c0.7,3.6,2.1,8.5,5.4,11.4
		C41,41.8,45.4,44.4,49.9,44.7z"/>
	<path fill="#2C3136" d="M47.7,33.2c2-0.3,4.6,0.5,6,2c1.9,2,4.2,5.4,5.2,7.8c0.5,1.1,1.5,1.7,2.6,1.7c0.4,0,0.8-0.1,1.2-0.2
		c1.4-0.6,2.1-2.3,1.5-3.8c-1.3-2.9-3.9-6.9-6.2-9.4c-2.7-2.9-7.2-4.4-11.2-3.7c-1.6,0.3-2.6,1.7-2.3,3.3
		C44.7,32.4,46.1,33.5,47.7,33.2z"/>
	<path fill="#2C3136" d="M88.1,55.1c-0.9-0.6-1.7-1.3-2.5-1.9c-2-1.6-4.3-3.4-7.3-4.2c-0.1-0.8-0.2-1.6-0.3-2.4
		c-0.3-3-0.7-6.5-3-9.5c-1-1.3-1.9-2.6-2.9-4.1c-3.4-4.8-7.3-10.2-11.9-13.7c-4.8-3.6-11.5-5.8-17.4-7.8c-1.2-0.4-2.3-0.8-3.3-1.1
		c-2.7-1-5.6-1.5-8.5-2.1c-3.3-0.7-6.4-1.3-9.1-2.4C17.4,4,13.2,4.1,9.2,6C6,7.6,4.1,11.3,4.1,16c0,6.3,3.2,12.6,6.3,16
		c1.5,4.2,3.3,7.4,5.8,11.4c3.1,5,7.3,9.8,12,14.1c-1,0.6-2,1.3-3,1.9c-2.8,1.9-5.4,3.6-8.1,4.7c-2.4,1-4.1,3-6,5.4
		c-0.7,0.8-1.4,1.7-2.2,2.7c-1.2,1.4-1.8,3-1.6,4.7c0.2,2.4,1.7,4.7,4.6,7c4.5,4.4,11.1,6.5,15.6,6.7c4,1.9,7.5,2.9,12.2,4
		c4.6,1.1,9.5,1.6,14.6,1.6c5,0,10.1-0.5,15-1.6c5.8-1.3,10.4-2.8,15.3-6.6c4.6-3.5,10.2-9.2,11.2-16C96.6,65.4,93.7,58.9,88.1,55.1
		z M90,71.2c-0.7,5.2-6,9.9-9,12.3c-4.1,3.1-7.9,4.4-13,5.5c-8.9,1.9-18.7,1.9-27,0c-4.6-1.1-7.7-2-11.5-3.8
		c-0.4-0.2-0.8-0.3-1.3-0.3c-3.5,0-9-1.8-12.4-5.2c-0.1-0.1-0.2-0.1-0.2-0.2c-2.4-2-2.6-3-2.6-3.1c0-0.1,0-0.2,0.2-0.4
		c0.9-1,1.7-2,2.4-2.9c1.5-1.8,2.6-3.2,3.7-3.7c3.2-1.3,6.2-3.3,9.1-5.2c2.3-1.6,4.5-3,6.8-4.1c1-0.5,2.1-1,3.2-1.6
		c5.2-2.6,11.1-5.5,16.2-6.3c1.2-0.2,2.4-0.2,3.6-0.2c4,0,8.4,0.7,12.7,1.5c1.8,0.3,3.5,0.6,5.1,0.8c2.1,0.3,3.9,1.7,6,3.4
		c0.9,0.8,1.9,1.5,2.9,2.2C88.7,62.4,90.6,66.7,90,71.2z M14.9,28.4c-2.5-2.5-5.1-7.7-5.1-12.4c0-1.9,0.6-4.2,1.9-4.8
		c1.2-0.6,2.5-0.9,3.8-0.9c1.3,0,2.6,0.3,4.1,0.9c3.2,1.4,6.8,2.1,10.2,2.8c2.7,0.6,5.3,1.1,7.7,1.9c1.1,0.4,2.2,0.8,3.4,1.2
		c5.5,1.9,11.8,4,15.8,7c3.9,2.9,7.4,7.7,10.7,12.4c1,1.5,2.1,2.9,3,4.2c1.3,1.7,1.6,4,1.8,6.6c0,0.2,0.1,0.4,0.1,0.7
		c-0.2,0-0.4-0.1-0.6-0.1c-5.8-1-12.4-2.1-18.1-1.2c-2.3,0.3-4.6,1-7,1.9c-0.4-0.2-0.9-0.4-1.3-0.6c-5.7-2.3-10.4-6.1-12.9-10.3
		c-0.6-1-1.3-2.1-2-3.3c-3.5-6-7.9-13.4-13-17.5c-1.2-1-3-0.8-4,0.4c-1,1.2-0.8,3,0.4,4c4.3,3.4,8.4,10.4,11.7,15.9
		c0.7,1.2,1.4,2.3,2,3.3c2.7,4.4,6.9,8.2,12.2,10.9c-1.3,0.6-2.7,1.3-3.9,1.9c-0.8,0.4-1.6,0.8-2.3,1.1c-4.9-4.2-9.3-9.1-12.5-14.2
		c-2.5-4-4.1-6.9-5.4-10.9C15.5,29.1,15.2,28.7,14.9,28.4z"/>
	<path fill="#2C3136" d="M82.4,71.3c-3.6,3.6-8.3,4.9-12.9,6c-2.2,0.6-4.3,1.1-6.2,1.9c-4.5,1.9-9.1,1.4-15.4-0.1
		c-6.2-1.5-18.7-3.8-26.7-2.9c-1.6,0.2-2.7,1.6-2.5,3.1c0.2,1.6,1.6,2.7,3.1,2.5c6.3-0.7,17.2,1,24.8,2.8c3.3,0.8,6.8,1.5,10.3,1.5
		c2.8,0,5.7-0.4,8.6-1.7c1.5-0.6,3.4-1.1,5.4-1.7c4.8-1.2,10.7-2.8,15.5-7.5c1.1-1.1,1.1-2.9,0-4C85.3,70.1,83.5,70.1,82.4,71.3z"/>
	<path fill="#2C3136" d="M62.5,68.3c-1.4,1.2-5.7,2.1-10.1,2.1c0,0,0,0,0,0c-5.1,0-10.1-1-12.1-2.3c-1.3-0.9-3.1-0.6-4,0.7
		c-0.9,1.3-0.6,3.1,0.7,4c4.5,3.1,12.8,3.4,15.3,3.4c0,0,0,0,0,0c2.3,0,10.1-0.3,13.9-3.6c1.2-1,1.3-2.8,0.3-4
		C65.5,67.3,63.7,67.2,62.5,68.3z"/>
	<path fill="#2C3136" d="M60.6,56.6c-0.1,0-0.2,0-0.3,0c-3.9,0-10.3,3.3-12.6,6.5c-0.9,1.3-0.6,3.1,0.7,4c0.5,0.4,1.1,0.5,1.6,0.5
		c0.9,0,1.8-0.4,2.3-1.2c1.2-1.7,5.9-4.1,8-4.1c2.1,0.1,5.2,0.9,8.7,2.2c1.5,0.6,3.1-0.2,3.7-1.6c0.6-1.5-0.2-3.1-1.6-3.7
		C68.2,58.1,64.1,56.7,60.6,56.6z"/>
</g>
</svg>
