<?xml version="1.0" encoding="UTF-8" standalone="no"?>
<svg
   xmlns:dc="http://purl.org/dc/elements/1.1/"
   xmlns:cc="http://creativecommons.org/ns#"
   xmlns:rdf="http://www.w3.org/1999/02/22-rdf-syntax-ns#"
   xmlns:svg="http://www.w3.org/2000/svg"
   xmlns="http://www.w3.org/2000/svg"
   xmlns:sodipodi="http://sodipodi.sourceforge.net/DTD/sodipodi-0.dtd"
   xmlns:inkscape="http://www.inkscape.org/namespaces/inkscape"
   version="1.1"
   id="Layer_1"
   x="0px"
   y="0px"
   viewBox="0 0 100 100"
   enable-background="new 0 0 100 100"
   xml:space="preserve"
   sodipodi:docname="Café color.svg"
   inkscape:version="1.0.1 (3bc2e813f5, 2020-09-07)"><metadata
   id="metadata27"><rdf:RDF><cc:Work
       rdf:about=""><dc:format>image/svg+xml</dc:format><dc:type
         rdf:resource="http://purl.org/dc/dcmitype/StillImage" /><dc:title></dc:title></cc:Work></rdf:RDF></metadata><defs
   id="defs25" /><sodipodi:namedview
   pagecolor="#ffffff"
   bordercolor="#666666"
   borderopacity="1"
   objecttolerance="10"
   gridtolerance="10"
   guidetolerance="10"
   inkscape:pageopacity="0"
   inkscape:pageshadow="2"
   inkscape:window-width="1920"
   inkscape:window-height="1017"
   id="namedview23"
   showgrid="false"
   inkscape:zoom="4.34"
   inkscape:cx="28.531496"
   inkscape:cy="30.012576"
   inkscape:window-x="-8"
   inkscape:window-y="-8"
   inkscape:window-maximized="1"
   inkscape:current-layer="Layer_1" />
<g
   id="g20"
   transform="translate(-103.45622,9.9078341)">
	<path
   fill="#2C3136"
   d="M 41.4,60.8 C 35.4,60.8 29.9,57.9 25.2,52 24.5,51.2 23.9,50.4 23.4,49.6 16.3,39.5 18.3,33 19.5,30.7 21,27.8 23.8,26 26.8,26 c 0.3,0 0.7,0 1,0.1 l 0.6,0.1 25.9,29.8 -1.4,1 c -0.2,0.1 -4.6,3.5 -10.7,3.8 -0.3,0 -0.5,0 -0.8,0 z M 26.7,29.3 c -1.7,0 -3.3,1.1 -4.2,2.9 -0.9,1.8 -2.4,6.8 3.7,15.4 0.5,0.7 1.1,1.5 1.7,2.2 4,5 8.6,7.5 13.5,7.5 0.2,0 0.4,0 0.7,0 3.1,-0.1 5.7,-1.3 7.3,-2.1 z"
   id="path2" />
	<path
   fill="#2C3136"
   d="m 55.6,54.6 c -0.3,0 -0.7,0 -1,-0.1 H 54 L 28,24.7 29.4,23.6 c 0.2,-0.2 5,-3.8 11.5,-3.8 5.5,0 10.6,2.5 15,7.4 0.4,0.4 0.8,0.9 1.1,1.3 8.5,10.5 8,18.7 4.7,22.9 -1.4,2.1 -3.7,3.2 -6.1,3.2 z M 33,25.3 l 22.6,26 c 1.3,0 2.6,-0.7 3.6,-1.9 2.5,-3.1 2.6,-9.7 -4.7,-18.7 -0.3,-0.4 -0.7,-0.8 -1,-1.2 -3.8,-4.2 -8,-6.3 -12.5,-6.3 -3.4,0 -6.3,1.2 -8,2.1 z"
   id="path4" />
	<path
   fill="#2C3136"
   d="m 74.3,59 c -5.5,0 -10.6,-2.5 -15,-7.4 l -0.9,-1.1 0.9,-1.1 c 2.5,-3.1 2.6,-9.7 -4.7,-18.7 -0.3,-0.4 -0.7,-0.8 -1,-1.2 l -1,-1.1 0.9,-1.1 c 1.6,-2 3.9,-3.2 6.3,-3.2 0.3,0 0.7,0 1,0.1 l 0.6,0.1 25.9,29.8 -1.4,1.1 C 85.7,55.4 80.9,59 74.3,59 Z M 62.7,50.2 c 3.5,3.6 7.5,5.4 11.6,5.4 3.4,0 6.3,-1.2 8,-2.1 l -22.6,-26 c -0.9,0 -1.8,0.3 -2.6,0.9 0,0 0.1,0.1 0.1,0.1 7.7,9.7 8,17.3 5.5,21.7 z"
   id="path6" />
	<path
   fill="#2C3136"
   d="m 88.5,52.8 c -0.3,0 -0.7,0 -1,-0.1 L 86.9,52.6 61,22.9 62.4,21.8 c 0.2,-0.2 5,-3.8 11.5,-3.8 6,0 11.5,2.9 16.2,8.8 9,11.2 7.1,18.4 5.9,21 -1.5,3.1 -4.4,5 -7.5,5 z m -22.6,-29.3 22.6,26 c 1.8,0 3.4,-1.2 4.3,-3.1 1,-2 2.4,-7.8 -5.5,-17.5 -4,-5 -8.6,-7.5 -13.5,-7.5 -3.3,0 -6.2,1.2 -7.9,2.1 z"
   id="path8" />
	<path
   fill="#2C3136"
   d="m 25.9,87.9 c -6,0 -11.5,-2.9 -16.2,-8.8 -9,-11.2 -7.1,-18.4 -5.9,-21 1.5,-3.1 4.3,-5 7.4,-5 0.3,0 0.7,0 1,0.1 l 0.6,0.1 26.1,29.7 -1.4,1.1 c -0.2,0.2 -5,3.8 -11.6,3.8 z M 11.3,56.4 c -1.8,0 -3.4,1.2 -4.3,3.1 -1,2 -2.4,7.8 5.5,17.5 4,5 8.6,7.5 13.5,7.5 3.4,0 6.3,-1.2 8,-2.1 z"
   id="path10" />
	<path
   fill="#2C3136"
   d="m 40.1,81.7 c -0.3,0 -0.7,0 -1,-0.1 L 38.5,81.5 12.6,51.8 14,50.7 c 0.2,-0.1 4.6,-3.5 10.7,-3.8 h 0.9 l 0.5,0.8 c 0.5,0.7 1.1,1.5 1.7,2.2 4,5 8.6,7.5 13.5,7.5 0.2,0 0.4,0 0.7,0 h 0.9 l 0.5,0.8 c 7.1,10.1 5.1,16.6 3.9,18.9 -1.4,2.8 -4.2,4.6 -7.2,4.6 z m -22.5,-29.3 22.6,26 c 1.7,0 3.3,-1.1 4.2,-2.9 0.9,-1.7 2.3,-6.6 -3.1,-14.7 -6,0 -11.4,-3 -16,-8.8 -0.4,-0.6 -0.9,-1.1 -1.3,-1.6 -2.8,0.3 -5,1.3 -6.4,2 z"
   id="path12" />
	<path
   fill="#2C3136"
   d="M 12,72.7 C 11.5,72.7 11,72.5 10.7,72 6.8,67 7.9,60.5 7.9,60.2 c 0.2,-0.9 1,-1.5 1.9,-1.4 0.9,0.2 1.5,1 1.4,1.9 0,0.1 -0.8,5.4 2.1,9.3 0.6,0.7 0.4,1.8 -0.3,2.4 -0.2,0.2 -0.6,0.3 -1,0.3 z"
   id="path14" />
	<path
   fill="#2C3136"
   d="m 49.3,32.9 c -0.5,0 -1,-0.2 -1.3,-0.7 -2.9,-3.9 -8.3,-4.5 -8.4,-4.5 -0.9,-0.1 -1.6,-0.9 -1.5,-1.9 0.1,-0.9 0.9,-1.6 1.8,-1.5 0.3,0 6.9,0.8 10.7,5.9 0.6,0.7 0.4,1.8 -0.3,2.4 -0.3,0.2 -0.7,0.3 -1,0.3 z"
   id="path16" />
	<path
   fill="#2C3136"
   d="m 89.9,47.5 c -0.2,0 -0.4,0 -0.5,-0.1 -0.9,-0.3 -1.3,-1.3 -1,-2.1 1.6,-4.7 -0.9,-9.4 -0.9,-9.5 -0.4,-0.8 -0.1,-1.8 0.7,-2.3 0.8,-0.4 1.8,-0.1 2.3,0.7 0.1,0.2 3.2,6.1 1.1,12.2 -0.3,0.7 -1,1.1 -1.7,1.1 z"
   id="path18" />
</g>
<path
   style="fill:#ac939d;stroke:#000000;stroke-width:0.115389"
   d="M 72.73521,58.865264 C 68.702149,58.506296 64.847267,56.689135 61.198885,53.427127 l -0.741234,-0.662735 -0.757012,0.507631 c -1.387454,0.930389 -2.544702,1.244967 -4.401298,1.196416 L 54.039165,54.435484 41.071637,39.57184 28.104109,24.708196 28.904251,24.076449 c 1.204604,-0.95109 1.826973,-1.334646 3.469021,-2.137905 5.468024,-2.674854 11.098828,-2.754735 16.342362,-0.231839 1.701058,0.818455 3.421566,2.007432 5.223974,3.610091 l 0.829011,0.737136 0.706131,-0.479524 c 1.673551,-1.136487 3.62803,-1.606652 5.436194,-1.307718 0.398727,0.06592 1.278089,1.049493 13.248847,14.81893 7.051977,8.111578 12.860608,14.814174 12.90807,14.894656 0.05731,0.09719 -0.166073,0.344659 -0.66518,0.736892 -2.95361,2.321152 -6.676756,3.779016 -10.596229,4.149142 -1.382996,0.1306 -1.592973,0.130529 -3.071242,-10e-4 z m 4.626541,-3.512944 c 1.896362,-0.413537 5.028297,-1.615353 4.935455,-1.893881 -0.02167,-0.06501 -5.113744,-5.955953 -11.315718,-13.090982 l -11.276316,-12.972778 -0.474707,0.07319 c -0.736106,0.113494 -1.478981,0.387074 -1.843478,0.678901 l -0.331905,0.265735 1.080753,1.453787 c 2.214786,2.979239 3.945445,6.156557 4.854518,8.912409 0.82627,2.504837 0.946741,3.228181 0.947885,5.691343 0.0012,2.391747 -0.166017,3.288613 -0.914843,4.909349 l -0.385742,0.834887 0.766428,0.732244 c 2.556972,2.44293 5.57972,4.028786 8.629219,4.52724 1.274816,0.208375 4.112587,0.143696 5.328451,-0.121446 z M 57.121297,51.03377 c 0.716398,-0.27221 1.719885,-1.032613 2.171717,-1.645642 2.882446,-3.910792 1.493949,-10.459903 -3.677534,-17.345796 -3.335765,-4.441611 -6.379152,-6.896815 -10.087028,-8.137548 -2.989265,-1.00027 -6.357658,-0.977065 -9.548899,0.06578 -1.366387,0.446515 -3.00567,1.218361 -2.948958,1.388499 0.02453,0.07359 5.09692,5.958072 11.271979,13.07663 l 11.22738,12.942833 0.51828,-0.06698 c 0.285054,-0.03684 0.767932,-0.16184 1.073063,-0.277781 z"
   id="path852" /><path
   style="fill:#ac939d;stroke:#000000;stroke-width:0.115389"
   d="M 87.417471,52.639053 C 86.955579,52.528259 86.297343,51.79518 74.018721,37.716816 l -12.912994,-14.805721 0.315549,-0.25163 c 2.709726,-2.160833 5.587562,-3.534453 8.855222,-4.226688 1.657774,-0.35119 4.432361,-0.433691 6.136492,-0.182465 3.202418,0.472107 6.197154,1.784973 8.98733,3.939967 2.045164,1.579583 4.649804,4.460007 6.688785,7.397002 5.36431,7.72688 6.361322,15.376819 2.618557,20.091828 -0.988942,1.245836 -2.737165,2.390888 -4.269874,2.796682 -0.878371,0.232555 -2.390645,0.3143 -3.020317,0.163262 z m 2.919285,-3.522311 c 0.986372,-0.478755 1.89435,-1.441089 2.448785,-2.595384 2.009178,-4.182964 0.33049,-10.192003 -4.660473,-16.682648 -3.151795,-4.098845 -6.259468,-6.569679 -9.703075,-7.714677 -1.688661,-0.561479 -2.690952,-0.723691 -4.516463,-0.73095 -1.939989,-0.0077 -3.194214,0.186394 -4.976214,0.770134 -1.385618,0.453895 -3.110826,1.215788 -3.063194,1.352779 0.01787,0.0514 5.109846,5.9339 11.315496,13.072217 l 11.283001,12.978759 0.59981,-0.06191 c 0.329895,-0.03405 0.902442,-0.208795 1.272327,-0.388325 z"
   id="path854" /><path
   style="fill:#ac939d;stroke:#000000;stroke-width:0.115389"
   d="m 48.732719,32.722679 c -0.126728,-0.05325 -0.638478,-0.545533 -1.137223,-1.093964 -0.975643,-1.07284 -2.080647,-1.919138 -3.337416,-2.556053 -1.014139,-0.513953 -2.905635,-1.143084 -3.935499,-1.308987 -1.038798,-0.167342 -1.343513,-0.288509 -1.723815,-0.685458 -0.328678,-0.343067 -0.491908,-1.035067 -0.364188,-1.543946 0.113567,-0.452486 0.625647,-0.978123 1.073314,-1.10173 0.921308,-0.254385 4.12604,0.630752 6.268847,1.731437 1.868986,0.960032 3.449154,2.209885 4.595476,3.634845 0.599692,0.74546 0.69184,0.924553 0.69184,1.344602 0,1.183392 -1.112186,2.007487 -2.131336,1.579254 z"
   id="path856" /><path
   style="fill:#ac939d;stroke:#000000;stroke-width:0.115389"
   d="m 39.116891,81.562626 c -0.308711,-0.06449 -0.637663,-0.234881 -0.82255,-0.426061 -1.262462,-1.305439 -25.563627,-29.33621 -25.4879,-29.399641 2.308409,-1.933573 5.172531,-3.405018 8.13638,-4.180073 0.520619,-0.136142 0.960987,-0.257055 0.978596,-0.268693 0.01761,-0.01164 -0.185815,-0.404219 -0.452054,-0.872401 -1.236371,-2.174171 -2.310459,-4.905209 -2.753267,-7.000616 -0.302266,-1.430352 -0.418832,-3.971958 -0.236806,-5.163329 0.586126,-3.836231 2.82055,-6.739111 6.002277,-7.797934 1.091963,-0.363386 2.389446,-0.487391 3.24382,-0.310023 l 0.645845,0.134077 12.91217,14.853993 12.912171,14.853993 -0.715298,0.507401 c -1.416796,1.005013 -2.437367,1.611618 -3.810899,2.265111 -1.390435,0.661534 -3.542783,1.420845 -4.429427,1.562626 l -0.464871,0.07434 0.404423,0.706682 c 1.362414,2.380659 2.434718,5.101533 2.934614,7.446313 0.347825,1.631479 0.376546,4.449627 0.05929,5.817972 -0.988877,4.265157 -3.890053,6.990526 -7.715653,7.248095 -0.454531,0.0306 -1.057922,0.0073 -1.340866,-0.05183 z m 2.942523,-3.568113 c 0.940947,-0.456262 1.897907,-1.471392 2.410768,-2.557309 0.638348,-1.35162 0.796217,-2.127091 0.792616,-3.893425 -0.0035,-1.707529 -0.185615,-2.809277 -0.752297,-4.550691 -0.388859,-1.194968 -1.932975,-4.373011 -2.658849,-5.472351 l -0.49445,-0.748848 -1.150952,-0.07204 c -5.572134,-0.348784 -10.522674,-3.274 -15.085991,-8.914135 -0.563932,-0.697004 -1.061456,-1.310042 -1.105608,-1.362306 -0.120684,-0.142855 -2.027694,0.219017 -3.297169,0.625666 -1.143845,0.366406 -3.149119,1.231541 -3.147412,1.357888 5.18e-4,0.0385 0.768083,0.951333 1.705697,2.028522 0.937613,1.077189 6.024318,6.928342 11.303789,13.002561 l 9.59904,11.044037 0.590426,-0.07408 c 0.324734,-0.04074 0.90541,-0.226813 1.290392,-0.413489 z m 1.64314,-20.802483 c 0.671332,-0.09968 1.714852,-0.339346 2.318932,-0.532583 1.049027,-0.335568 3.460081,-1.333045 3.460081,-1.431469 0,-0.02577 -5.11667,-5.884722 -11.370376,-13.019885 l -11.370374,-12.973022 -0.597811,0.0617 c -1.887458,0.194802 -3.631306,1.997642 -4.257367,4.401386 -0.49386,1.896162 -0.303272,4.379942 0.528715,6.890305 1.575181,4.752806 6.045918,10.849194 10.074125,13.737279 1.994277,1.429827 4.507142,2.512824 6.509217,2.805349 0.47523,0.06944 0.993663,0.145273 1.152074,0.168526 0.738747,0.108439 2.446131,0.05673 3.552784,-0.107586 z"
   id="path858" /><path
   style="fill:#ac939d;stroke:#000000;stroke-width:0.115389"
   d="m 89.228111,47.240646 c -0.483732,-0.257456 -0.831081,-0.808948 -0.8252,-1.310183 0.0024,-0.201271 0.112474,-0.780693 0.244694,-1.287606 0.674135,-2.584523 0.347651,-5.258892 -1.090876,-8.935825 -0.285897,-0.730766 -0.164581,-1.29449 0.400102,-1.859174 0.366773,-0.366773 0.515537,-0.43772 0.917825,-0.43772 1.167603,0 1.713009,0.703868 2.527813,3.262241 0.650584,2.042747 0.761801,2.816254 0.756741,5.263105 -0.0043,2.070427 -0.02896,2.336351 -0.314821,3.392125 -0.347928,1.285006 -0.735223,1.822009 -1.459094,2.023105 -0.550929,0.153052 -0.687157,0.140095 -1.157184,-0.110068 z"
   id="path860" /><path
   style="fill:#ac939d;stroke:#000000;stroke-width:0.115389"
   d="M 23.112903,87.940077 C 17.401263,86.928462 12.755058,83.613378 8.2111011,77.307587 2.0178564,68.713029 1.1140913,60.336502 5.8803911,55.705453 7.5503061,54.082924 10.119145,53.192355 12.089909,53.552729 l 0.711934,0.130184 12.96083,14.757094 c 7.128456,8.116401 12.975397,14.790191 12.993203,14.830645 0.05371,0.122026 -2.041798,1.658496 -3.027765,2.220024 -1.70653,0.971901 -3.902542,1.79885 -6.048387,2.277634 -1.397203,0.311745 -5.212972,0.411554 -6.566821,0.171767 z m 6.278802,-3.466344 c 0.760369,-0.171044 1.71947,-0.437019 2.131337,-0.591057 0.966232,-0.36137 2.535577,-1.094809 2.531072,-1.182904 -0.0019,-0.03753 -5.100815,-5.900612 -11.330881,-13.029068 l -11.327393,-12.96083 -0.621883,0.02745 c -1.8005349,0.07946 -3.6402799,1.958557 -4.3254959,4.418013 -0.15628,0.560937 -0.205355,1.155039 -0.203781,2.466984 0.0018,1.481617 0.04577,1.903364 0.30844,2.956774 0.598251,2.399239 1.746213,4.860238 3.4980319,7.499078 4.400788,6.629096 8.988322,10.036302 14.44424,10.72788 1.094348,0.138717 3.540347,-0.0273 4.896313,-0.332316 z"
   id="path862" /><path
   style="fill:#ac939d;stroke:#000000;stroke-width:0.115389"
   d="M 11.511242,72.51274 C 11.038819,72.350328 10.912704,72.219447 10.189036,71.140553 9.289522,69.799497 8.5463276,67.975136 8.1944129,66.24424 7.7171914,63.89702 7.688057,60.780426 8.1346406,59.85023 c 0.5773888,-1.202651 2.0563354,-1.289794 2.7424364,-0.161591 0.194138,0.319233 0.217213,0.590219 0.208555,2.44921 -0.01062,2.279326 0.137115,3.359969 0.682797,4.994617 0.366314,1.097333 0.60787,1.589695 1.277563,2.604044 0.488187,0.73943 0.515158,0.82164 0.465602,1.41921 -0.04244,0.511801 -0.119356,0.701067 -0.398228,0.979939 -0.442364,0.442364 -1.018079,0.577866 -1.602124,0.377081 z"
   id="path864" /></svg>
