<?xml version="1.0" encoding="utf-8"?>
<!-- Generator: Adobe Illustrator 18.0.0, SVG Export Plug-In . SVG Version: 6.00 Build 0)  -->
<!DOCTYPE svg PUBLIC "-//W3C//DTD SVG 1.1//EN" "http://www.w3.org/Graphics/SVG/1.1/DTD/svg11.dtd">
<svg version="1.1" id="Layer_1" xmlns="http://www.w3.org/2000/svg" xmlns:xlink="http://www.w3.org/1999/xlink" x="0px" y="0px"
	 viewBox="0 0 100 100" enable-background="new 0 0 100 100" xml:space="preserve">
<g>
	<path fill="#2C3136" d="M41.4,60.8c-6,0-11.5-2.9-16.2-8.8c-0.7-0.8-1.3-1.6-1.8-2.4c-7.1-10.1-5.1-16.6-3.9-18.9
		c1.5-2.9,4.3-4.7,7.3-4.7c0.3,0,0.7,0,1,0.1l0.6,0.1l25.9,29.8L52.9,57c-0.2,0.1-4.6,3.5-10.7,3.8C41.9,60.8,41.7,60.8,41.4,60.8z
		 M26.7,29.3c-1.7,0-3.3,1.1-4.2,2.9c-0.9,1.8-2.4,6.8,3.7,15.4c0.5,0.7,1.1,1.5,1.7,2.2c4,5,8.6,7.5,13.5,7.5c0.2,0,0.4,0,0.7,0
		c3.1-0.1,5.7-1.3,7.3-2.1L26.7,29.3z"/>
	<path fill="#2C3136" d="M55.6,54.6c-0.3,0-0.7,0-1-0.1L54,54.5L28,24.7l1.4-1.1c0.2-0.2,5-3.8,11.5-3.8c5.5,0,10.6,2.5,15,7.4
		c0.4,0.4,0.8,0.9,1.1,1.3c8.5,10.5,8,18.7,4.7,22.9C60.3,53.5,58,54.6,55.6,54.6z M33,25.3l22.6,26c1.3,0,2.6-0.7,3.6-1.9
		c2.5-3.1,2.6-9.7-4.7-18.7c-0.3-0.4-0.7-0.8-1-1.2c-3.8-4.2-8-6.3-12.5-6.3C37.6,23.2,34.7,24.4,33,25.3z"/>
	<path fill="#2C3136" d="M74.3,59c-5.5,0-10.6-2.5-15-7.4l-0.9-1.1l0.9-1.1c2.5-3.1,2.6-9.7-4.7-18.7c-0.3-0.4-0.7-0.8-1-1.2l-1-1.1
		l0.9-1.1c1.6-2,3.9-3.2,6.3-3.2c0.3,0,0.7,0,1,0.1l0.6,0.1l25.9,29.8l-1.4,1.1C85.7,55.4,80.9,59,74.3,59z M62.7,50.2
		c3.5,3.6,7.5,5.4,11.6,5.4c3.4,0,6.3-1.2,8-2.1l-22.6-26c-0.9,0-1.8,0.3-2.6,0.9c0,0,0.1,0.1,0.1,0.1
		C64.9,38.2,65.2,45.8,62.7,50.2z"/>
	<path fill="#2C3136" d="M88.5,52.8c-0.3,0-0.7,0-1-0.1l-0.6-0.1L61,22.9l1.4-1.1c0.2-0.2,5-3.8,11.5-3.8c6,0,11.5,2.9,16.2,8.8
		c9,11.2,7.1,18.4,5.9,21C94.5,50.9,91.6,52.8,88.5,52.8z M65.9,23.5l22.6,26c1.8,0,3.4-1.2,4.3-3.1c1-2,2.4-7.8-5.5-17.5
		c-4-5-8.6-7.5-13.5-7.5C70.5,21.4,67.6,22.6,65.9,23.5z"/>
	<path fill="#2C3136" d="M25.9,87.9c-6,0-11.5-2.9-16.2-8.8c-9-11.2-7.1-18.4-5.9-21c1.5-3.1,4.3-5,7.4-5c0.3,0,0.7,0,1,0.1l0.6,0.1
		L38.9,83l-1.4,1.1C37.3,84.3,32.5,87.9,25.9,87.9z M11.3,56.4c-1.8,0-3.4,1.2-4.3,3.1c-1,2-2.4,7.8,5.5,17.5c4,5,8.6,7.5,13.5,7.5
		c3.4,0,6.3-1.2,8-2.1L11.3,56.4z"/>
	<path fill="#2C3136" d="M40.1,81.7c-0.3,0-0.7,0-1-0.1l-0.6-0.1L12.6,51.8l1.4-1.1c0.2-0.1,4.6-3.5,10.7-3.8l0.9,0l0.5,0.8
		c0.5,0.7,1.1,1.5,1.7,2.2c4,5,8.6,7.5,13.5,7.5c0.2,0,0.4,0,0.7,0l0.9,0l0.5,0.8c7.1,10.1,5.1,16.6,3.9,18.9
		C45.9,79.9,43.1,81.7,40.1,81.7z M17.6,52.4l22.6,26c1.7,0,3.3-1.1,4.2-2.9c0.9-1.7,2.3-6.6-3.1-14.7c-6,0-11.4-3-16-8.8
		c-0.4-0.6-0.9-1.1-1.3-1.6C21.2,50.7,19,51.7,17.6,52.4z"/>
	<path fill="#2C3136" d="M12,72.7c-0.5,0-1-0.2-1.3-0.7C6.8,67,7.9,60.5,7.9,60.2c0.2-0.9,1-1.5,1.9-1.4c0.9,0.2,1.5,1,1.4,1.9
		c0,0.1-0.8,5.4,2.1,9.3c0.6,0.7,0.4,1.8-0.3,2.4C12.8,72.6,12.4,72.7,12,72.7z"/>
	<path fill="#2C3136" d="M49.3,32.9c-0.5,0-1-0.2-1.3-0.7c-2.9-3.9-8.3-4.5-8.4-4.5c-0.9-0.1-1.6-0.9-1.5-1.9
		c0.1-0.9,0.9-1.6,1.8-1.5c0.3,0,6.9,0.8,10.7,5.9c0.6,0.7,0.4,1.8-0.3,2.4C50,32.8,49.6,32.9,49.3,32.9z"/>
	<path fill="#2C3136" d="M89.9,47.5c-0.2,0-0.4,0-0.5-0.1c-0.9-0.3-1.3-1.3-1-2.1c1.6-4.7-0.9-9.4-0.9-9.5c-0.4-0.8-0.1-1.8,0.7-2.3
		c0.8-0.4,1.8-0.1,2.3,0.7c0.1,0.2,3.2,6.1,1.1,12.2C91.3,47.1,90.6,47.5,89.9,47.5z"/>
</g>
</svg>
