<?xml version="1.0" encoding="utf-8"?>
<!-- Generator: Adobe Illustrator 18.0.0, SVG Export Plug-In . SVG Version: 6.00 Build 0)  -->
<!DOCTYPE svg PUBLIC "-//W3C//DTD SVG 1.1//EN" "http://www.w3.org/Graphics/SVG/1.1/DTD/svg11.dtd">
<svg version="1.1" id="Layer_1" xmlns="http://www.w3.org/2000/svg" xmlns:xlink="http://www.w3.org/1999/xlink" x="0px" y="0px"
	 viewBox="0 0 100 100" enable-background="new 0 0 100 100" xml:space="preserve">
<g>
	<path fill="#FFFFFF" d="M85.4,50.8c-0.1-0.1-0.2-0.2-0.4-0.2l-6.3-3.7c-17.5-10.4-20.2-12-34.2-28c-3.6-4.5-8.4-7-13.8-7L20.5,3.6
		C20,3.2,19.3,3,18.7,3C11.6,3,3.9,9.9,3.9,14.7c0,0.5,0.1,0.9,0.3,1.3l6.1,12.1c-1,4.6-0.3,9.7,2.3,14.5l0.8,1.4
		c10.2,19.1,19.8,37.1,42.2,50.3c0.1,0.1,0.2,0.1,0.3,0.2c4.3,1.9,8.4,2.7,12.3,2.7c10.4,0,18.9-5.9,23.3-13.2
		C97.2,74.7,97.5,60.7,85.4,50.8z M58.4,89.2C37.5,76.8,28.3,59.6,18.6,41.3l-0.8-1.4c-2.7-5.1-2.7-10.4-0.1-14.3
		c3.2-4.7,7.9-7.6,12.6-7.8c3.8-0.1,7.1,1.5,9.8,4.9c14.7,16.8,18.3,18.9,35.7,29.3l6.1,3.6c9.9,8.2,8.6,18.9,4.6,25.6
		C81.5,89,70.9,94.6,58.4,89.2z M17.7,8.9l5.6,4.5c-3.7,1.6-7.2,4.3-9.8,8l-3.5-7C10.7,12.7,14.1,9.4,17.7,8.9z"/>
	<path fill="#FFFFFF" d="M83.7,72.3c-1.5-0.5-3.2,0.3-3.8,1.8c-1.5,4.2-5.7,8.4-11.8,8.4c-1.9,0-3.8-0.4-5.8-1.2
		C44,70.2,35.8,54.9,26.4,37.1l-0.8-1.4c-0.2-0.3-1.8-3.5-0.6-5.3c0.9-1.4,0.5-3.2-0.8-4.1c-1.4-0.9-3.2-0.5-4.1,0.8
		c-3,4.4-0.5,9.8,0.3,11.3l0.8,1.4C31,58.5,39.6,74.5,59.5,86.5c0.1,0.1,0.3,0.1,0.4,0.2c2.8,1.1,5.5,1.7,8.2,1.7
		c8.9,0,15.1-6.2,17.3-12.3C86,74.6,85.2,72.9,83.7,72.3z"/>
</g>
</svg>
