<?xml version="1.0" encoding="UTF-8" standalone="no"?>
<svg
   xmlns:dc="http://purl.org/dc/elements/1.1/"
   xmlns:cc="http://creativecommons.org/ns#"
   xmlns:rdf="http://www.w3.org/1999/02/22-rdf-syntax-ns#"
   xmlns:svg="http://www.w3.org/2000/svg"
   xmlns="http://www.w3.org/2000/svg"
   xmlns:sodipodi="http://sodipodi.sourceforge.net/DTD/sodipodi-0.dtd"
   xmlns:inkscape="http://www.inkscape.org/namespaces/inkscape"
   version="1.1"
   id="Layer_1"
   x="0px"
   y="0px"
   viewBox="0 0 100 100"
   enable-background="new 0 0 100 100"
   xml:space="preserve"
   sodipodi:docname="Calabacita color.svg"
   inkscape:version="1.0.1 (3bc2e813f5, 2020-09-07)"><metadata
   id="metadata13"><rdf:RDF><cc:Work
       rdf:about=""><dc:format>image/svg+xml</dc:format><dc:type
         rdf:resource="http://purl.org/dc/dcmitype/StillImage" /><dc:title></dc:title></cc:Work></rdf:RDF></metadata><defs
   id="defs11" /><sodipodi:namedview
   pagecolor="#ffffff"
   bordercolor="#666666"
   borderopacity="1"
   objecttolerance="10"
   gridtolerance="10"
   guidetolerance="10"
   inkscape:pageopacity="0"
   inkscape:pageshadow="2"
   inkscape:window-width="1920"
   inkscape:window-height="1017"
   id="namedview9"
   showgrid="false"
   inkscape:zoom="8.5"
   inkscape:cx="27.018788"
   inkscape:cy="50"
   inkscape:window-x="-8"
   inkscape:window-y="-8"
   inkscape:window-maximized="1"
   inkscape:current-layer="Layer_1" />
<g
   id="g6"
   transform="translate(-103.05882,-3.7647059)">
	<path
   fill="#2c3136"
   d="M 85.4,50.8 C 85.3,50.7 85.2,50.6 85,50.6 l -6.3,-3.7 c -17.5,-10.4 -20.2,-12 -34.2,-28 -3.6,-4.5 -8.4,-7 -13.8,-7 L 20.5,3.6 C 20,3.2 19.3,3 18.7,3 11.6,3 3.9,9.9 3.9,14.7 3.9,15.2 4,15.6 4.2,16 l 6.1,12.1 c -1,4.6 -0.3,9.7 2.3,14.5 l 0.8,1.4 c 10.2,19.1 19.8,37.1 42.2,50.3 0.1,0.1 0.2,0.1 0.3,0.2 4.3,1.9 8.4,2.7 12.3,2.7 10.4,0 18.9,-5.9 23.3,-13.2 5.7,-9.3 6,-23.3 -6.1,-33.2 z m -27,38.4 C 37.5,76.8 28.3,59.6 18.6,41.3 l -0.8,-1.4 c -2.7,-5.1 -2.7,-10.4 -0.1,-14.3 3.2,-4.7 7.9,-7.6 12.6,-7.8 3.8,-0.1 7.1,1.5 9.8,4.9 14.7,16.8 18.3,18.9 35.7,29.3 l 6.1,3.6 c 9.9,8.2 8.6,18.9 4.6,25.6 -5,7.8 -15.6,13.4 -28.1,8 z M 17.7,8.9 l 5.6,4.5 c -3.7,1.6 -7.2,4.3 -9.8,8 l -3.5,-7 c 0.7,-1.7 4.1,-5 7.7,-5.5 z"
   id="path2" />
	<path
   fill="#2c3136"
   d="m 83.7,72.3 c -1.5,-0.5 -3.2,0.3 -3.8,1.8 -1.5,4.2 -5.7,8.4 -11.8,8.4 -1.9,0 -3.8,-0.4 -5.8,-1.2 C 44,70.2 35.8,54.9 26.4,37.1 L 25.6,35.7 C 25.4,35.4 23.8,32.2 25,30.4 25.9,29 25.5,27.2 24.2,26.3 22.8,25.4 21,25.8 20.1,27.1 c -3,4.4 -0.5,9.8 0.3,11.3 l 0.8,1.4 c 9.8,18.7 18.4,34.7 38.3,46.7 0.1,0.1 0.3,0.1 0.4,0.2 2.8,1.1 5.5,1.7 8.2,1.7 8.9,0 15.1,-6.2 17.3,-12.3 0.6,-1.5 -0.2,-3.2 -1.7,-3.8 z"
   id="path4" />
</g>
<path
   style="fill:#ffb380;stroke:#ffffff;stroke-width:0.117647"
   d="M 66.588235,97.106099 C 63.003275,96.794694 59.882194,96.069825 56.976802,94.873848 54.851508,93.998992 48.841702,89.995025 45,86.894434 41.383964,83.975976 36.572926,79.294144 33.620135,75.820188 27.533021,68.658702 22.834089,61.379912 15.470522,47.705882 14.320651,45.570588 13.151104,43.425276 12.871531,42.938522 10.428852,38.685675 9.4491405,33.645661 10.187508,29.130875 L 10.358509,28.085279 7.1792545,21.755136 C 4.0197783,15.464375 4.0000087,15.42038 4.0013963,14.683086 c 0.00378,-2.007363 1.1408769,-4.095045 3.5142824,-6.4521236 2.6686873,-2.65033 5.9466423,-4.4164909 9.2737393,-4.9966881 1.297237,-0.2262193 2.318366,-0.2134561 2.946577,0.03683 0.300085,0.1195566 2.589846,1.9005576 5.714814,4.4450432 l 5.214113,4.2455585 1.285186,0.07825 c 3.86507,0.235341 7.64579,1.976799 10.623296,4.893253 0.565985,0.55438 2.152688,2.291909 3.526005,3.861178 4.977969,5.688244 9.384449,10.230189 12.529991,12.915193 3.046178,2.600187 6.712955,5.18224 11.723541,8.255425 4.340318,2.662084 14.611397,8.740873 14.769091,8.740873 0.282239,0 2.986432,2.631224 4.292294,4.176471 6.914412,8.181933 7.716679,19.663951 2.030385,29.058823 -1.501844,2.48134 -3.978778,5.317225 -6.209417,7.109266 -3.828423,3.075665 -8.606052,5.164678 -13.313289,5.821225 -1.312204,0.18302 -4.37559,0.317664 -5.33377,0.234432 z m 4.118369,-5.866407 c 4.580794,-0.536259 8.688274,-2.442613 12.212531,-5.668051 1.695863,-1.552072 3.395899,-3.744168 4.307278,-5.553979 2.486707,-4.938093 2.972436,-10.464757 1.340555,-15.252956 -1.367297,-4.01187 -4.556697,-8.031472 -7.928609,-9.992433 C 73.918995,50.864576 64.744276,45.240274 61.764706,43.202313 54.998142,38.574131 49.719416,33.582572 40.8356,23.411765 c -2.470004,-2.827831 -3.603979,-3.790273 -5.495494,-4.664207 -1.291319,-0.596626 -2.486552,-0.872416 -4.104812,-0.94715 -2.332555,-0.10772 -4.23912,0.325152 -6.588235,1.495814 -4.021853,2.004259 -7.590154,6.061752 -8.53384,9.703778 -0.503701,1.943962 -0.476697,4.677965 0.06768,6.852089 0.398449,1.591326 0.948386,2.939157 1.932422,4.736146 0.442914,0.808824 1.743324,3.217647 2.8898,5.352941 3.777548,7.035629 6.905662,12.377625 9.632973,16.450585 5.303198,7.919785 10.59346,13.927157 16.952142,19.25005 4.178703,3.498017 9.866245,7.337013 12.032414,8.121676 3.95349,1.432093 7.46665,1.899906 11.085954,1.476205 z M 14.164192,20.633587 c 1.866821,-2.522254 5.003317,-5.110879 7.982867,-6.588447 0.630882,-0.312857 1.147059,-0.608198 1.147059,-0.656314 0,-0.04812 -1.254983,-1.095352 -2.788849,-2.327192 -3.177742,-2.5520262 -2.767523,-2.3955569 -4.577937,-1.7461567 -1.144566,0.4105585 -2.50286,1.2295977 -3.656006,2.2045387 -0.924575,0.781693 -2.111761,2.213183 -2.23166,2.690901 -0.059879,0.238576 0.284412,1.022285 1.647943,3.751215 0.947999,1.897299 1.763459,3.449632 1.812131,3.449632 0.04867,-2e-6 0.347676,-0.35018 0.664452,-0.778177 z"
   id="path838" /><path
   style="fill:#ffb380;stroke:#ffffff;stroke-width:0.117647"
   d="M 66.275103,88.820837 C 63.725649,88.49831 60.817674,87.611413 59.234476,86.673531 53.206575,83.102621 46.691532,77.698069 41.754252,72.172817 34.974738,64.585942 30.283796,57.163214 20.64133,38.764706 c -1.729114,-3.299272 -2.13208,-6.695103 -1.113899,-9.38693 0.386242,-1.021133 1.151067,-2.084934 1.773312,-2.466514 1.460414,-0.895573 3.333917,-0.315764 4.067057,1.258666 0.403496,0.866515 0.369721,1.541279 -0.132863,2.654393 -0.535851,1.186789 -0.603507,1.736941 -0.360869,2.93441 0.239355,1.181265 0.499528,1.857092 1.169863,3.038843 0.283375,0.499569 1.375669,2.523014 2.427319,4.496543 2.628035,4.931774 4.55928,8.385202 6.513338,11.647059 7.825122,13.062274 15.679827,21.499163 26.277987,28.225688 2.123126,1.347524 4.282064,1.935384 7.090366,1.930647 1.801884,-0.003 2.897194,-0.196537 4.490491,-0.793291 2.91158,-1.090506 5.567294,-3.63202 6.946068,-6.647376 0.689278,-1.507437 0.690285,-1.509177 1.12485,-1.943744 0.529924,-0.529923 1.120742,-0.801834 1.882812,-0.866524 0.86774,-0.07366 1.544318,0.210547 2.177346,0.914626 0.927414,1.031508 1.002058,1.86024 0.32055,3.558909 -0.96341,2.40131 -2.430698,4.523689 -4.508065,6.520751 -2.623273,2.521865 -5.488165,4.029979 -9.022287,4.74944 -1.407281,0.286489 -4.140134,0.401255 -5.489603,0.230535 z"
   id="path840" /></svg>
