<?xml version="1.0" encoding="utf-8"?>
<!-- Generator: Adobe Illustrator 18.0.0, SVG Export Plug-In . SVG Version: 6.00 Build 0)  -->
<!DOCTYPE svg PUBLIC "-//W3C//DTD SVG 1.1//EN" "http://www.w3.org/Graphics/SVG/1.1/DTD/svg11.dtd">
<svg version="1.1" id="Layer_1" xmlns="http://www.w3.org/2000/svg" xmlns:xlink="http://www.w3.org/1999/xlink" x="0px" y="0px"
	 viewBox="0 0 100 100" enable-background="new 0 0 100 100" xml:space="preserve">
<g>
	<g>
		<path fill="#2C3136" d="M44.3,52.3h-9.9c-0.5,0-0.9-0.2-1.2-0.6c-0.3-0.4-0.4-0.9-0.2-1.3c4.4-14,0-28.9,0-29
			c-0.1-0.5,0-0.9,0.2-1.3s0.7-0.6,1.2-0.6h9.9c0.6,0,1.1,0.3,1.3,0.8c0.3,0.5,0.2,1.1-0.1,1.6c-2.5,3.3-1.2,19.4,0.3,28.8
			c0.1,0.4-0.1,0.9-0.3,1.2C45.1,52.1,44.7,52.3,44.3,52.3z M36.4,49.3h6.1C41.8,43.9,40,29.2,42,22.4h-5.6
			C37.4,26.8,39.4,38,36.4,49.3z"/>
		<path fill="#2C3136" d="M44.3,82.2h-9.9c-0.5,0-0.9-0.2-1.2-0.6c-0.3-0.4-0.4-0.9-0.2-1.3c4.4-13.9,0-28.9,0-29
			c-0.1-0.5,0-0.9,0.2-1.3c0.3-0.4,0.7-0.6,1.2-0.6h9.9c0.6,0,1.1,0.3,1.3,0.8s0.2,1.1-0.1,1.6C43,55,44.3,71.1,45.8,80.5
			c0.1,0.4-0.1,0.9-0.3,1.2C45.1,82,44.7,82.2,44.3,82.2z M36.4,79.2h6.1C41.8,73.9,40,59.1,42,52.3h-5.6
			C37.4,56.7,39.4,67.9,36.4,79.2z"/>
		<path fill="#2C3136" d="M42.7,97.2h-6.3c-0.8,0-1.5-0.7-1.5-1.5c-0.1-8.2-2-14.5-2-14.6c-0.1-0.5,0-0.9,0.2-1.3
			c0.3-0.4,0.7-0.6,1.2-0.6h9.9c0.6,0,1.1,0.3,1.3,0.8s0.2,1.1-0.1,1.6c-0.6,0.8-1.8,3.6-1.3,14c0,0.4-0.1,0.8-0.4,1.1
			C43.5,97,43.1,97.2,42.7,97.2z M37.9,94.2h3.2c-0.2-5.4,0-9.4,0.8-12h-5.6C36.9,84.6,37.7,88.9,37.9,94.2z"/>
	</g>
	<g>
		<path fill="#2C3136" d="M66.5,80.6C66.5,80.6,66.5,80.6,66.5,80.6h-9.9c-0.5,0-0.9-0.2-1.2-0.6c-0.3-0.4-0.4-0.9-0.2-1.3
			c0-0.1,4.4-15.1,0-29c-0.1-0.5-0.1-1,0.2-1.3c0.3-0.4,0.7-0.6,1.2-0.6h9.9c0.4,0,0.9,0.2,1.1,0.5c0.3,0.3,0.4,0.8,0.3,1.2
			c-1.4,9.2-2.7,24.9-0.4,28.6c0.3,0.3,0.5,0.7,0.5,1.1C68,79.9,67.3,80.6,66.5,80.6z M58.5,77.6h5.6c-2-6.8-0.2-21.6,0.6-26.9h-6.1
			C61.6,62,59.6,73.2,58.5,77.6z"/>
		<path fill="#2C3136" d="M66.5,50.7C66.5,50.7,66.5,50.7,66.5,50.7h-9.9c-0.5,0-0.9-0.2-1.2-0.6c-0.3-0.4-0.4-0.9-0.2-1.3
			c0-0.1,4.4-15.1,0-29c-0.1-0.5-0.1-1,0.2-1.3c0.3-0.4,0.7-0.6,1.2-0.6h9.9c0.4,0,0.9,0.2,1.1,0.5c0.3,0.3,0.4,0.8,0.3,1.2
			c-1.4,9.2-2.7,24.9-0.4,28.6c0.3,0.3,0.5,0.7,0.5,1.1C68,50,67.3,50.7,66.5,50.7z M58.5,47.7h5.6c-2-6.8-0.2-21.6,0.6-26.9h-6.1
			C61.6,32,59.6,43.2,58.5,47.7z"/>
		<path fill="#2C3136" d="M66.5,20.7C66.5,20.7,66.5,20.7,66.5,20.7h-9.9c-0.5,0-0.9-0.2-1.2-0.6c-0.3-0.4-0.4-0.9-0.2-1.3
			c0-0.1,1.9-6.4,2-14.6c0-0.8,0.7-1.5,1.5-1.5h6.3c0.4,0,0.8,0.2,1.1,0.5s0.4,0.7,0.4,1.1c-0.5,9.6,0.5,12.8,1.1,13.8
			c0.3,0.3,0.5,0.7,0.5,1.1C68,20.1,67.3,20.7,66.5,20.7z M58.5,17.7h5.6c-0.8-2.6-1-6.5-0.8-12h-3.2C59.9,11,59.1,15.4,58.5,17.7z"
			/>
	</g>
	<path fill="#2C3136" d="M66.4,40.1c-0.4,0-0.9-0.2-1.2-0.6c-1.3-1.7-3-5.6,0.1-8.8c0.7-0.8,7.9-8.6,13-9.4c0.5-0.1,1.1,0.1,1.4,0.6
		c0.3,0.4,0.4,1,0.2,1.5c-0.2,0.6-5.9,13.9-13,16.6C66.8,40.1,66.6,40.1,66.4,40.1z M75.5,25.8c-3.1,2-6.6,5.5-8,7
		c-1.3,1.3-1,2.8-0.5,3.8C70.3,34.6,73.5,29.6,75.5,25.8z"/>
	<path fill="#2C3136" d="M65.9,46.5c-0.7,0-1.4-0.5-1.6-1.2c-0.2-0.9-0.1-3.8,0-5.5c0-0.4,0.2-0.8,0.5-1C65.3,38.3,78.5,26,89.3,26
		l0.4,0c0.5,0,0.9,0.2,1.2,0.6c0.3,0.4,0.4,0.9,0.2,1.3C88.5,36.1,68.1,46.5,65.9,46.5z M67.2,40.6c0,0.8-0.1,1.7-0.1,2.4
		c4.3-1.9,15.9-8.3,19.8-13.8C78.9,30.6,69.4,38.7,67.2,40.6z"/>
	<path fill="#2C3136" d="M77.4,52.3c-2.3,0-11-0.6-11.8-2.5c0-0.1-0.1-0.2-0.1-0.3c0,0,0-0.1-0.1-0.1c-0.5-0.8-1.4-2.3-0.9-3.9
		c0.3-1,1-1.7,2.1-2.2c0.5-0.2,4.7-1.2,9.4-1.2c6.4,0,11.4,1.7,14.5,4.9c0.3,0.3,0.5,0.8,0.4,1.3c-0.1,0.5-0.4,0.9-0.8,1.1
		C86.8,51.3,82.4,52.3,77.4,52.3z M68.2,48c1.3,0.4,4.9,1.2,9.2,1.2c3.6,0,6.7-0.5,9.4-1.6c-3.2-2.1-7.4-2.6-10.7-2.6
		c-4.2,0-7.8,0.8-8.3,1c-0.2,0.1-0.3,0.3-0.4,0.3c-0.1,0.3,0.4,1.2,0.6,1.5C68.1,47.9,68.2,48,68.2,48z"/>
	<path fill="#2C3136" d="M34.9,71.1c-0.2,0-0.4,0-0.5-0.1c-7.1-2.7-12.8-16-13-16.6c-0.2-0.5-0.1-1.1,0.2-1.5
		c0.3-0.4,0.9-0.6,1.4-0.6c5.1,0.8,12.3,8.6,13.1,9.5c3.1,3.1,1.4,7,0.1,8.7C35.8,70.9,35.3,71.1,34.9,71.1z M25.8,56.8
		c2,3.8,5.2,8.9,8.5,10.9c0.4-1,0.8-2.5-0.5-3.8C32.4,62.3,28.9,58.8,25.8,56.8z"/>
	<path fill="#2C3136" d="M35.5,77.6L35.5,77.6c-2.3,0-22.6-10.4-25.2-18.6c-0.1-0.5-0.1-0.9,0.2-1.3c0.3-0.4,0.7-0.6,1.2-0.6l0.3,0
		c10.8,0,24,12.3,24.5,12.8c0.3,0.3,0.5,0.6,0.5,1c0.1,1.7,0.2,4.6,0,5.5C36.8,77.1,36.1,77.6,35.5,77.6z M14.3,60.3
		c4,5.5,15.6,11.9,19.8,13.8c0-0.7,0-1.6-0.1-2.4C32,69.8,22.5,61.7,14.3,60.3z"/>
	<path fill="#2C3136" d="M23.9,83.3L23.9,83.3c-5,0-9.4-1-12.9-3c-0.4-0.2-0.7-0.6-0.8-1.1c-0.1-0.5,0.1-0.9,0.4-1.3
		c3.1-3.2,8.2-4.9,14.5-4.9c4.7,0,8.9,0.9,9.4,1.2c1.1,0.5,1.8,1.3,2.1,2.2c0.5,1.6-0.4,3.1-0.9,3.9c0,0,0,0.1-0.1,0.1
		c0,0.1,0,0.2-0.1,0.3C35,82.7,26.2,83.3,23.9,83.3z M14.5,78.7c2.7,1.1,5.9,1.6,9.4,1.6c4.2,0,7.9-0.8,9.2-1.2
		c0-0.1,0.1-0.2,0.1-0.2c0.2-0.3,0.7-1.2,0.6-1.5c0-0.1-0.2-0.2-0.5-0.4c-0.3-0.1-3.9-0.9-8.1-0.9C22,76.1,17.7,76.6,14.5,78.7z"/>
</g>
</svg>
