<?xml version="1.0" encoding="UTF-8" standalone="no"?>
<svg
   xmlns:dc="http://purl.org/dc/elements/1.1/"
   xmlns:cc="http://creativecommons.org/ns#"
   xmlns:rdf="http://www.w3.org/1999/02/22-rdf-syntax-ns#"
   xmlns:svg="http://www.w3.org/2000/svg"
   xmlns="http://www.w3.org/2000/svg"
   xmlns:sodipodi="http://sodipodi.sourceforge.net/DTD/sodipodi-0.dtd"
   xmlns:inkscape="http://www.inkscape.org/namespaces/inkscape"
   version="1.1"
   id="Layer_1"
   x="0px"
   y="0px"
   viewBox="0 0 100 100"
   enable-background="new 0 0 100 100"
   xml:space="preserve"
   sodipodi:docname="Caña de Azúcar color.svg"
   inkscape:version="1.0.1 (3bc2e813f5, 2020-09-07)"><metadata
   id="metadata37"><rdf:RDF><cc:Work
       rdf:about=""><dc:format>image/svg+xml</dc:format><dc:type
         rdf:resource="http://purl.org/dc/dcmitype/StillImage" /><dc:title></dc:title></cc:Work></rdf:RDF></metadata><defs
   id="defs35" /><sodipodi:namedview
   pagecolor="#ffffff"
   bordercolor="#666666"
   borderopacity="1"
   objecttolerance="10"
   gridtolerance="10"
   guidetolerance="10"
   inkscape:pageopacity="0"
   inkscape:pageshadow="2"
   inkscape:window-width="1920"
   inkscape:window-height="1017"
   id="namedview33"
   showgrid="false"
   inkscape:zoom="6.14"
   inkscape:cx="15.449299"
   inkscape:cy="50"
   inkscape:window-x="-8"
   inkscape:window-y="-8"
   inkscape:window-maximized="1"
   inkscape:current-layer="Layer_1" />
<g
   id="g30"
   transform="translate(-93.202765,-3.1105991)">
	<g
   id="g8">
		<path
   fill="#2c3136"
   d="m 44.3,52.3 h -9.9 c -0.5,0 -0.9,-0.2 -1.2,-0.6 -0.3,-0.4 -0.4,-0.9 -0.2,-1.3 4.4,-14 0,-28.9 0,-29 -0.1,-0.5 0,-0.9 0.2,-1.3 0.2,-0.4 0.7,-0.6 1.2,-0.6 h 9.9 c 0.6,0 1.1,0.3 1.3,0.8 0.3,0.5 0.2,1.1 -0.1,1.6 -2.5,3.3 -1.2,19.4 0.3,28.8 0.1,0.4 -0.1,0.9 -0.3,1.2 -0.4,0.2 -0.8,0.4 -1.2,0.4 z m -7.9,-3 h 6.1 C 41.8,43.9 40,29.2 42,22.4 h -5.6 c 1,4.4 3,15.6 0,26.9 z"
   id="path2" />
		<path
   fill="#2c3136"
   d="m 44.3,82.2 h -9.9 c -0.5,0 -0.9,-0.2 -1.2,-0.6 -0.3,-0.4 -0.4,-0.9 -0.2,-1.3 4.4,-13.9 0,-28.9 0,-29 -0.1,-0.5 0,-0.9 0.2,-1.3 0.3,-0.4 0.7,-0.6 1.2,-0.6 h 9.9 c 0.6,0 1.1,0.3 1.3,0.8 0.2,0.5 0.2,1.1 -0.1,1.6 -2.5,3.2 -1.2,19.3 0.3,28.7 0.1,0.4 -0.1,0.9 -0.3,1.2 -0.4,0.3 -0.8,0.5 -1.2,0.5 z m -7.9,-3 h 6.1 C 41.8,73.9 40,59.1 42,52.3 h -5.6 c 1,4.4 3,15.6 0,26.9 z"
   id="path4" />
		<path
   fill="#2c3136"
   d="m 42.7,97.2 h -6.3 c -0.8,0 -1.5,-0.7 -1.5,-1.5 -0.1,-8.2 -2,-14.5 -2,-14.6 -0.1,-0.5 0,-0.9 0.2,-1.3 0.3,-0.4 0.7,-0.6 1.2,-0.6 h 9.9 c 0.6,0 1.1,0.3 1.3,0.8 0.2,0.5 0.2,1.1 -0.1,1.6 -0.6,0.8 -1.8,3.6 -1.3,14 0,0.4 -0.1,0.8 -0.4,1.1 -0.2,0.3 -0.6,0.5 -1,0.5 z m -4.8,-3 h 3.2 c -0.2,-5.4 0,-9.4 0.8,-12 h -5.6 c 0.6,2.4 1.4,6.7 1.6,12 z"
   id="path6" />
	</g>
	<g
   id="g16">
		<path
   fill="#2c3136"
   d="m 66.5,80.6 c 0,0 0,0 0,0 h -9.9 c -0.5,0 -0.9,-0.2 -1.2,-0.6 -0.3,-0.4 -0.4,-0.9 -0.2,-1.3 0,-0.1 4.4,-15.1 0,-29 -0.1,-0.5 -0.1,-1 0.2,-1.3 0.3,-0.4 0.7,-0.6 1.2,-0.6 h 9.9 c 0.4,0 0.9,0.2 1.1,0.5 0.3,0.3 0.4,0.8 0.3,1.2 -1.4,9.2 -2.7,24.9 -0.4,28.6 0.3,0.3 0.5,0.7 0.5,1.1 0,0.7 -0.7,1.4 -1.5,1.4 z m -8,-3 h 5.6 C 62.1,70.8 63.9,56 64.7,50.7 h -6.1 c 3,11.3 1,22.5 -0.1,26.9 z"
   id="path10" />
		<path
   fill="#2c3136"
   d="m 66.5,50.7 c 0,0 0,0 0,0 h -9.9 c -0.5,0 -0.9,-0.2 -1.2,-0.6 -0.3,-0.4 -0.4,-0.9 -0.2,-1.3 0,-0.1 4.4,-15.1 0,-29 -0.1,-0.5 -0.1,-1 0.2,-1.3 0.3,-0.4 0.7,-0.6 1.2,-0.6 h 9.9 c 0.4,0 0.9,0.2 1.1,0.5 0.3,0.3 0.4,0.8 0.3,1.2 -1.4,9.2 -2.7,24.9 -0.4,28.6 0.3,0.3 0.5,0.7 0.5,1.1 0,0.7 -0.7,1.4 -1.5,1.4 z m -8,-3 h 5.6 c -2,-6.8 -0.2,-21.6 0.6,-26.9 h -6.1 c 3,11.2 1,22.4 -0.1,26.9 z"
   id="path12" />
		<path
   fill="#2c3136"
   d="m 66.5,20.7 c 0,0 0,0 0,0 h -9.9 c -0.5,0 -0.9,-0.2 -1.2,-0.6 -0.3,-0.4 -0.4,-0.9 -0.2,-1.3 0,-0.1 1.9,-6.4 2,-14.6 0,-0.8 0.7,-1.5 1.5,-1.5 H 65 c 0.4,0 0.8,0.2 1.1,0.5 0.3,0.3 0.4,0.7 0.4,1.1 -0.5,9.6 0.5,12.8 1.1,13.8 0.3,0.3 0.5,0.7 0.5,1.1 -0.1,0.9 -0.8,1.5 -1.6,1.5 z m -8,-3 h 5.6 c -0.8,-2.6 -1,-6.5 -0.8,-12 h -3.2 c -0.2,5.3 -1,9.7 -1.6,12 z"
   id="path14" />
	</g>
	<path
   fill="#2c3136"
   d="m 66.4,40.1 c -0.4,0 -0.9,-0.2 -1.2,-0.6 -1.3,-1.7 -3,-5.6 0.1,-8.8 0.7,-0.8 7.9,-8.6 13,-9.4 0.5,-0.1 1.1,0.1 1.4,0.6 0.3,0.4 0.4,1 0.2,1.5 -0.2,0.6 -5.9,13.9 -13,16.6 -0.1,0.1 -0.3,0.1 -0.5,0.1 z m 9.1,-14.3 c -3.1,2 -6.6,5.5 -8,7 -1.3,1.3 -1,2.8 -0.5,3.8 3.3,-2 6.5,-7 8.5,-10.8 z"
   id="path18" />
	<path
   fill="#2c3136"
   d="m 65.9,46.5 c -0.7,0 -1.4,-0.5 -1.6,-1.2 -0.2,-0.9 -0.1,-3.8 0,-5.5 0,-0.4 0.2,-0.8 0.5,-1 C 65.3,38.3 78.5,26 89.3,26 h 0.4 c 0.5,0 0.9,0.2 1.2,0.6 0.3,0.4 0.4,0.9 0.2,1.3 -2.6,8.2 -23,18.6 -25.2,18.6 z m 1.3,-5.9 c 0,0.8 -0.1,1.7 -0.1,2.4 4.3,-1.9 15.9,-8.3 19.8,-13.8 -8,1.4 -17.5,9.5 -19.7,11.4 z"
   id="path20" />
	<path
   fill="#2c3136"
   d="m 77.4,52.3 c -2.3,0 -11,-0.6 -11.8,-2.5 0,-0.1 -0.1,-0.2 -0.1,-0.3 0,0 0,-0.1 -0.1,-0.1 -0.5,-0.8 -1.4,-2.3 -0.9,-3.9 0.3,-1 1,-1.7 2.1,-2.2 0.5,-0.2 4.7,-1.2 9.4,-1.2 6.4,0 11.4,1.7 14.5,4.9 0.3,0.3 0.5,0.8 0.4,1.3 -0.1,0.5 -0.4,0.9 -0.8,1.1 -3.3,1.9 -7.7,2.9 -12.7,2.9 z M 68.2,48 c 1.3,0.4 4.9,1.2 9.2,1.2 3.6,0 6.7,-0.5 9.4,-1.6 C 83.6,45.5 79.4,45 76.1,45 c -4.2,0 -7.8,0.8 -8.3,1 -0.2,0.1 -0.3,0.3 -0.4,0.3 -0.1,0.3 0.4,1.2 0.6,1.5 0.1,0.1 0.2,0.2 0.2,0.2 z"
   id="path22" />
	<path
   fill="#2c3136"
   d="m 34.9,71.1 c -0.2,0 -0.4,0 -0.5,-0.1 -7.1,-2.7 -12.8,-16 -13,-16.6 -0.2,-0.5 -0.1,-1.1 0.2,-1.5 0.3,-0.4 0.9,-0.6 1.4,-0.6 5.1,0.8 12.3,8.6 13.1,9.5 3.1,3.1 1.4,7 0.1,8.7 -0.4,0.4 -0.9,0.6 -1.3,0.6 z M 25.8,56.8 c 2,3.8 5.2,8.9 8.5,10.9 0.4,-1 0.8,-2.5 -0.5,-3.8 -1.4,-1.6 -4.9,-5.1 -8,-7.1 z"
   id="path24" />
	<path
   fill="#2c3136"
   d="m 35.5,77.6 v 0 C 33.2,77.6 12.9,67.2 10.3,59 c -0.1,-0.5 -0.1,-0.9 0.2,-1.3 0.3,-0.4 0.7,-0.6 1.2,-0.6 H 12 c 10.8,0 24,12.3 24.5,12.8 0.3,0.3 0.5,0.6 0.5,1 0.1,1.7 0.2,4.6 0,5.5 -0.2,0.7 -0.9,1.2 -1.5,1.2 z M 14.3,60.3 c 4,5.5 15.6,11.9 19.8,13.8 0,-0.7 0,-1.6 -0.1,-2.4 -2,-1.9 -11.5,-10 -19.7,-11.4 z"
   id="path26" />
	<path
   fill="#2c3136"
   d="m 23.9,83.3 v 0 c -5,0 -9.4,-1 -12.9,-3 -0.4,-0.2 -0.7,-0.6 -0.8,-1.1 -0.1,-0.5 0.1,-0.9 0.4,-1.3 3.1,-3.2 8.2,-4.9 14.5,-4.9 4.7,0 8.9,0.9 9.4,1.2 1.1,0.5 1.8,1.3 2.1,2.2 0.5,1.6 -0.4,3.1 -0.9,3.9 0,0 0,0.1 -0.1,0.1 0,0.1 0,0.2 -0.1,0.3 -0.5,2 -9.3,2.6 -11.6,2.6 z m -9.4,-4.6 c 2.7,1.1 5.9,1.6 9.4,1.6 4.2,0 7.9,-0.8 9.2,-1.2 0,-0.1 0.1,-0.2 0.1,-0.2 0.2,-0.3 0.7,-1.2 0.6,-1.5 0,-0.1 -0.2,-0.2 -0.5,-0.4 -0.3,-0.1 -3.9,-0.9 -8.1,-0.9 -3.2,0 -7.5,0.5 -10.7,2.6 z"
   id="path28" />
</g>
<path
   style="fill:#008000;stroke:#000000;stroke-width:0.115389"
   d="m 55.866355,80.31271 c -0.195163,-0.119011 -0.443237,-0.402662 -0.551275,-0.630334 -0.192186,-0.405002 -0.187692,-0.449514 0.20781,-2.058533 1.786341,-7.267353 2.162524,-16.030502 0.977775,-22.777156 -0.304327,-1.733016 -0.731121,-3.536235 -1.103643,-4.662935 -0.291735,-0.882355 -0.295494,-0.928999 -0.120711,-1.497696 0.485896,-1.580979 1.212538,-5.513496 1.513454,-8.190664 0.818757,-7.284276 0.429838,-13.604833 -1.203737,-19.562654 l -0.459485,-1.675789 0.288499,-1.074327 c 0.929811,-3.462481 1.775458,-9.4500689 1.786979,-12.6526681 0.005,-1.4017696 0.128165,-1.9109707 0.56861,-2.3516122 l 0.355603,-0.3557611 3.533747,-0.033675 c 3.749404,-0.03573 3.933341,-0.014422 4.42887,0.5130559 l 0.270596,0.2880433 0.0072,4.743016 c 0.0057,3.8000672 0.0455,5.0072382 0.200021,6.0720482 0.266028,1.833186 0.598203,3.063557 1.003841,3.718207 0.465091,0.750603 0.50518,0.979156 0.298894,1.704079 -0.182425,0.641075 -0.759357,5.05246 -1.027105,7.853532 l -0.151641,1.586418 0.410455,-0.383652 c 2.247887,-2.101099 2.876092,-2.66228 3.92428,-3.505597 2.849887,-2.292868 5.355812,-3.675129 7.272871,-4.011693 0.812026,-0.142561 1.596768,0.578653 1.597665,1.468331 4.61e-4,0.426473 -0.498558,1.675619 -1.331488,3.333185 -0.465241,0.925849 -1.890641,3.498154 -2.200475,3.971021 -0.185812,0.283585 -0.163869,0.278648 0.546131,-0.122883 4.352039,-2.461241 8.689688,-3.874996 11.990688,-3.908084 1.281441,-0.01284 1.357532,-2.3e-4 1.656553,0.274555 0.172381,0.158411 0.384474,0.454779 0.471321,0.658596 0.136531,0.320422 0.132926,0.445165 -0.02663,0.921659 -0.866654,2.588115 -3.785565,5.82837 -8.340689,9.258918 -1.43233,1.078715 -4.828549,3.33696 -6.319547,4.202052 l -1.179887,0.684582 1.898566,0.0762 c 5.530039,0.221945 9.578343,1.557077 12.658696,4.174842 0.857412,0.728652 1.122116,1.131141 1.121465,1.70522 -8.07e-4,0.696584 -0.355207,1.074455 -1.580315,1.684886 -2.026424,1.009701 -3.815079,1.579521 -6.48377,2.065567 -1.567064,0.285407 -1.888095,0.304332 -5.184332,0.305614 -4.243765,0.0016 -5.75078,-0.160683 -9.74185,-1.049388 -0.218304,-0.04861 -0.248012,0.02838 -0.372151,0.964466 -1.274694,9.611936 -1.631771,19.085693 -0.88152,23.387954 0.220014,1.261649 0.559752,2.267594 0.982226,2.908309 0.398788,0.604796 0.430726,1.124676 0.09529,1.551115 -0.514529,0.654118 -0.445685,0.646913 -6.176502,0.646445 -4.959216,-4.61e-4 -5.297794,-0.01344 -5.631302,-0.216813 z m 8.246548,-2.75474 c 0,-0.05049 -0.09943,-0.555962 -0.220947,-1.123272 -0.524532,-2.448738 -0.687471,-5.382729 -0.565923,-10.190458 0.104322,-4.126411 0.6333,-10.081502 1.291995,-14.544931 l 0.148766,-1.008065 h -3.106323 -3.106324 l 0.06743,0.316821 c 0.03708,0.174251 0.199272,0.887096 0.360417,1.584101 0.808685,3.497805 1.151597,7.368871 1.065284,12.025768 -0.08098,4.368948 -0.485717,7.992175 -1.294797,11.590963 -0.156604,0.696577 -0.284735,1.305735 -0.284735,1.353687 0,0.04795 1.270161,0.08719 2.822581,0.08719 1.552419,0 2.82258,-0.04131 2.82258,-0.0918 z M 79.781106,49.139018 c 1.561515,-0.07125 3.093749,-0.30357 4.608295,-0.698707 1.237162,-0.322771 2.419355,-0.736159 2.419355,-0.846 0,-0.172967 -1.890838,-1.128953 -2.94131,-1.487093 -3.509432,-1.196481 -8.307499,-1.47925 -13.076873,-0.770672 -2.511632,0.37315 -3.451863,0.6723 -3.451863,1.09827 0,0.126908 0.155225,0.538243 0.344947,0.914078 0.386237,0.765131 0.327105,0.735888 2.323562,1.149109 2.346486,0.485671 6.027818,0.832206 7.815362,0.735685 0.348502,-0.01882 1.229838,-0.06142 1.958525,-0.09467 z M 64.112903,47.626076 c 0,-0.101741 -0.07493,-0.477605 -0.166513,-0.835253 -1.071353,-4.183868 -0.824548,-14.191669 0.604156,-24.498196 l 0.207612,-1.497696 -3.047287,-0.03072 c -1.676009,-0.01689 -3.07059,-0.0074 -3.099071,0.02107 -0.02848,0.02848 0.07975,0.612735 0.240522,1.298341 0.378238,1.613024 0.700954,3.48287 0.960857,5.567297 0.299309,2.400466 0.299615,9.289172 5.3e-4,11.922814 -0.260883,2.297237 -0.677053,4.931489 -1.055988,6.684143 -0.15949,0.737662 -0.289979,1.388898 -0.289979,1.447193 0,0.06163 1.181298,0.105991 2.822581,0.105991 2.514703,0 2.82258,-0.02018 2.82258,-0.184984 z m 5.173204,-5.616617 c 4.857605,-2.44437 9.719529,-5.496727 13.184879,-8.277579 1.814802,-1.456329 4.623446,-4.33714 4.423464,-4.537123 -0.09658,-0.09658 -1.864376,0.355887 -3.196293,0.818099 -4.215584,1.462923 -9.753296,4.886179 -15.178572,9.382961 l -1.41129,1.169759 -0.0016,1.001774 c -9.22e-4,0.550976 -0.03283,1.118422 -0.07104,1.260991 -0.03821,0.142569 -0.02955,0.259217 0.01925,0.259217 0.04879,0 1.052824,-0.485144 2.23118,-1.078099 z m -1.657841,-5.762704 c 1.552122,-1.051476 3.351741,-3.075757 5.184746,-5.832008 1.348251,-2.027338 2.768456,-4.468456 2.661755,-4.575156 -0.273797,-0.273797 -5.687031,4.339619 -7.67398,6.540131 -0.947011,1.048798 -1.262481,1.666382 -1.265999,2.4784 -0.0026,0.599045 0.28616,1.777823 0.435499,1.777823 0.04591,0 0.342004,-0.175136 0.657979,-0.38919 z m -3.515363,-18.6322 c 0,-0.07006 -0.08152,-0.441959 -0.181147,-0.826447 -0.400889,-1.547083 -0.530803,-3.113651 -0.59207,-7.1394905 L 63.278756,5.6451613 H 61.686758 60.09476 l -0.0597,0.4896313 c -0.03283,0.2692973 -0.0901,1.0339862 -0.127255,1.6993088 -0.141306,2.5301956 -0.703229,6.5756896 -1.213447,8.7360556 -0.124642,0.527755 -0.226621,1.007306 -0.226621,1.065668 0,0.06179 1.178976,0.10611 2.822581,0.10611 1.984731,0 2.82258,-0.03781 2.82258,-0.12738 z"
   id="path862" /><path
   style="fill:#008000;stroke:#000000;stroke-width:0.115389"
   d="m 34.517371,96.115205 c -0.598929,-0.36517 -0.687937,-0.733204 -0.826022,-3.41545 -0.140177,-2.72288 -0.437256,-5.338436 -0.876431,-7.716297 -0.343932,-1.862184 -0.699599,-3.493732 -0.778895,-3.573028 -0.03072,-0.03073 -0.670572,0.07294 -1.421883,0.230367 -0.751311,0.157428 -2.056937,0.369708 -2.901392,0.471734 -6.72447,0.81245 -12.447115,0.07321 -16.968161,-2.191925 -2.4593522,-1.232183 -2.2268564,-2.403983 0.891678,-4.494136 2.84689,-1.908087 6.44199,-2.899124 11.387313,-3.139061 l 1.609558,-0.07809 -1.120381,-0.668006 C 21.875017,70.564841 19.1965,68.768185 17.604922,67.578544 12.826195,64.006633 9.3786944,60.033052 9.1694974,57.855893 c -0.04711,-0.49025 -0.01484,-0.580471 0.350034,-0.978614 0.371203,-0.405053 0.458087,-0.442076 1.1366856,-0.484372 1.056445,-0.06585 3.271623,0.253281 4.93983,0.71165 2.02089,0.555276 3.640509,1.205414 6.098674,2.448095 1.168209,0.590568 2.135955,1.061824 2.150542,1.047235 0.01459,-0.01459 -0.259599,-0.519033 -0.609306,-1.120989 -1.057492,-1.820276 -2.931801,-5.71166 -3.001559,-6.231746 -0.119233,-0.888949 0.528137,-1.610186 1.456782,-1.623001 0.246135,-0.0034 0.802899,0.110864 1.237253,0.253912 2.389841,0.787066 5.2752,2.766391 8.883052,6.093679 1.43668,1.324957 1.641705,1.477527 1.641705,1.221688 0,-1.014468 -1.014216,-6.795776 -1.435416,-8.182268 -0.243127,-0.800314 -0.22538,-1.055758 0.164522,-2.368219 0.455141,-1.532065 0.98057,-4.13661 1.276972,-6.329937 0.309522,-2.290419 0.431129,-7.727855 0.234642,-10.491574 -0.247446,-3.480494 -0.756847,-6.838064 -1.5247,-10.049623 -0.389359,-1.628504 -0.377609,-2.066425 0.06939,-2.586229 l 0.272839,-0.317275 5.481825,-0.03205 c 6.030016,-0.03526 5.981948,-0.04028 6.34507,0.661925 0.274063,0.52998 0.210188,0.981252 -0.2828,1.997935 -0.830993,1.71375 -1.152212,4.156867 -1.154086,8.777725 -0.0021,5.179741 0.484107,11.387327 1.383179,17.65947 0.356788,2.489043 0.354319,2.53989 -0.161787,3.332752 -0.767475,1.179023 -1.107409,3.363186 -1.189637,7.643711 -0.104472,5.438497 0.341383,11.64762 1.350187,18.803124 0.362806,2.573399 0.353502,2.752735 -0.171718,3.309791 -0.922048,0.97794 -1.365676,4.562379 -1.307264,10.562475 0.0363,3.728564 0.03127,3.830848 -0.203822,4.147465 -0.442451,0.595878 -0.534857,0.609149 -4.251085,0.610512 -3.24856,0.0012 -3.478808,-0.0125 -3.832132,-0.227928 z m 5.415497,-4.925473 c -0.08961,-3.482152 0.253831,-7.713821 0.766711,-9.447005 l 0.110798,-0.374424 h -2.884631 -2.884632 l 0.08153,0.31682 c 0.669906,2.603284 1.196626,6.352103 1.505386,10.714286 l 0.07543,1.065668 h 1.643982 1.643981 z M 27.980839,79.199657 c 1.925686,-0.301475 3.759788,-0.70005 3.954273,-0.859316 0.240324,-0.196804 0.583456,-0.940253 0.662706,-1.435858 0.06893,-0.431075 0.05311,-0.461857 -0.331212,-0.644228 -0.221982,-0.105337 -0.991952,-0.291503 -1.711044,-0.413701 -5.352982,-0.909653 -10.594911,-0.697139 -14.222367,0.57659 -1.116896,0.392182 -3.041296,1.338046 -3.041296,1.494831 0,0.157277 2.366266,0.877103 3.74424,1.139009 2.121321,0.403192 2.870364,0.453085 6.221198,0.414393 2.534506,-0.02927 3.546767,-0.0875 4.723502,-0.27172 z M 41.35321,78.056091 c -0.343516,-2.134112 -1.005834,-8.912238 -1.215361,-12.437943 -0.152037,-2.558317 -0.150852,-7.894845 0.0021,-9.595467 0.101056,-1.123393 0.385338,-2.962831 0.645433,-4.176267 l 0.06791,-0.316821 h -2.849447 -2.849448 l 0.07051,0.259217 c 0.03878,0.142569 0.199343,0.93318 0.356811,1.756912 1.510529,7.901731 1.551207,15.692026 0.117744,22.548598 -0.215639,1.031452 -0.426494,1.992013 -0.468566,2.134582 l -0.0765,0.259217 h 3.134162 3.134163 z m -8.37448,-5.702765 c -0.0075,-0.522753 -0.04638,-1.0842 -0.08641,-1.247659 -0.0828,-0.338154 -0.915619,-1.108195 -3.059601,-2.828972 -5.691715,-4.56822 -12.199214,-8.058626 -16.292022,-8.7385 -0.497097,-0.08257 -0.499214,-0.08147 -0.358954,0.188038 0.0776,0.149106 0.924741,1.050337 1.882535,2.002736 2.438615,2.424881 5.651193,4.806809 10.103047,7.490786 2.969762,1.790439 7.273236,4.077686 7.681022,4.082375 0.104791,0.0012 0.140297,-0.257182 0.130379,-0.948804 z m 0.353597,-5.760368 c 0.25594,-0.725481 0.281075,-1.734772 0.05979,-2.400994 -0.180809,-0.544362 -0.442916,-0.861686 -2.11757,-2.563663 -1.051171,-1.06832 -2.52571,-2.468527 -3.276751,-3.111568 -1.381362,-1.182721 -3.124574,-2.494052 -3.315456,-2.494052 -0.329402,0 2.414927,4.520234 4.091774,6.739631 1.20106,1.589669 3.896401,4.205069 4.333598,4.205069 0.05089,0 0.151963,-0.16849 0.224615,-0.374423 z m 8.022136,-18.375577 c -0.120894,-0.57733 -0.859882,-7.533224 -1.067898,-10.051843 -0.295774,-3.581183 -0.296211,-11.567124 -6.91e-4,-13.536866 0.114059,-0.760369 0.282363,-1.67511 0.374008,-2.032759 0.286166,-1.116958 0.539142,-1.020237 -2.668491,-1.020237 h -2.83507 l 0.06266,0.259217 c 0.188917,0.781497 0.672038,3.467722 0.878926,4.886964 0.836657,5.739431 0.836536,12.378871 -3.46e-4,17.376861 -0.199759,1.193028 -0.650343,3.347567 -0.873394,4.176267 l -0.06977,0.259217 h 3.133189 3.13319 l -0.06634,-0.316821 z"
   id="path864" /></svg>
