<?xml version="1.0" encoding="UTF-8" standalone="no"?>
<svg
   xmlns:dc="http://purl.org/dc/elements/1.1/"
   xmlns:cc="http://creativecommons.org/ns#"
   xmlns:rdf="http://www.w3.org/1999/02/22-rdf-syntax-ns#"
   xmlns:svg="http://www.w3.org/2000/svg"
   xmlns="http://www.w3.org/2000/svg"
   xmlns:sodipodi="http://sodipodi.sourceforge.net/DTD/sodipodi-0.dtd"
   xmlns:inkscape="http://www.inkscape.org/namespaces/inkscape"
   version="1.1"
   id="Layer_1"
   x="0px"
   y="0px"
   viewBox="0 0 100 100"
   enable-background="new 0 0 100 100"
   xml:space="preserve"
   sodipodi:docname="Cebolla B.svg"
   inkscape:version="1.0.1 (3bc2e813f5, 2020-09-07)"><metadata
   id="metadata9"><rdf:RDF><cc:Work
       rdf:about=""><dc:format>image/svg+xml</dc:format><dc:type
         rdf:resource="http://purl.org/dc/dcmitype/StillImage" /><dc:title></dc:title></cc:Work></rdf:RDF></metadata><defs
   id="defs7" /><sodipodi:namedview
   pagecolor="#ffffff"
   bordercolor="#666666"
   borderopacity="1"
   objecttolerance="10"
   gridtolerance="10"
   guidetolerance="10"
   inkscape:pageopacity="0"
   inkscape:pageshadow="2"
   inkscape:window-width="1920"
   inkscape:window-height="1017"
   id="namedview5"
   showgrid="false"
   inkscape:zoom="8.68"
   inkscape:cx="50"
   inkscape:cy="50"
   inkscape:window-x="-8"
   inkscape:window-y="-8"
   inkscape:window-maximized="1"
   inkscape:current-layer="Layer_1"
   inkscape:document-rotation="0" />
<path
   fill="#d3cec9"
   d="M59.4,24.1c2.1-2.6,5.5-5.8,10.1-6.8c1.3-0.3,2.1-1.6,1.8-2.9c-0.3-1.3-1.6-2.1-2.9-1.8  c-3.3,0.7-6,2.2-8.2,3.9c0.9-3.4,2.1-7,3.8-9.9c0.7-1.2,0.2-2.7-1-3.3c-1.2-0.7-2.7-0.2-3.3,1c-1.7,3.1-3,6.7-4,10.2  c-0.2-2.6-0.6-5.3-1.4-7.9c-0.5-1.7-2.1-3-4.2-3.4c-2-0.4-5-0.4-7.7,1.4c-1.1,0.7-1.8,1.7-2,2.9c-0.2,1.1,0,2.2,0.7,3.1  c0.9,1.2,2.3,3.7,3.5,7.1c-1.3-1.8-3-3.6-5.1-5.2c-1.1-0.8-2.6-0.6-3.4,0.5c-0.8,1.1-0.6,2.6,0.5,3.4c3.1,2.3,5,5.2,6.1,7.5  C24.2,27,10.3,42,10.3,60c0,20.4,17.9,36.9,39.8,36.9C72.1,96.9,90,80.3,90,60C90,42.6,76.9,28,59.4,24.1z M37.6,60.4  c0-11.8,2.7-21.3,6.1-26.7c1.3,0.2,2.8,0.3,4.4,0.3c-0.4,9.2-1.5,36.5-0.1,56.7c-0.5,0-0.9-0.1-1.3-0.1  C41.9,86.8,37.6,75.5,37.6,60.4z M53.6,90.6c-0.6,0.1-1.2,0.1-1.8,0.1c-1.4-20.1-0.3-47.7,0.1-56.7c1.7,0,3.3-0.2,4.7-0.3  c3.5,5.4,6.1,14.9,6.1,26.7C62.7,75.5,58.4,86.8,53.6,90.6z M38.9,32.7c0.3,0.1,0.6,0.2,1,0.3C36.3,39.4,34,49.2,34,60.4  c0,12.2,2.7,22.7,6.9,29c-8.5-4.8-14.4-16-14.4-29C26.5,48.5,31.5,38,38.9,32.7z M59.4,89.5c4.2-6.3,6.9-16.8,6.9-29  c0-11.2-2.3-21-5.9-27.4c0.4-0.1,0.7-0.2,1-0.3c7.4,5.3,12.4,15.8,12.4,27.8C73.8,73.5,67.9,84.7,59.4,89.5z M49.3,7.8  c0.2,0,0.3,0.1,0.4,0.1c1.4,5.1,1.5,11.1,1.3,15.1c-0.1,0-0.1,0-0.2,0c-0.8-7.1-3.6-12.3-5.2-14.8C46.9,7.6,48.3,7.7,49.3,7.8z   M16.4,60c0-11,6.3-20.6,15.8-26.1c-5.8,6.5-9.4,16-9.4,26.5c0,9.6,3,18.2,7.8,24.6C22,79.4,16.4,70.3,16.4,60z M69.7,85  c4.8-6.4,7.8-15,7.8-24.6c0-10.6-3.7-20.1-9.4-26.5C77.6,39.4,83.9,49,83.9,60C83.9,70.3,78.3,79.4,69.7,85z"
   id="path2"
   style="fill:#ffffff;fill-opacity:1" />
</svg>
