<?xml version="1.0" encoding="UTF-8" standalone="no"?>
<svg
   xmlns:dc="http://purl.org/dc/elements/1.1/"
   xmlns:cc="http://creativecommons.org/ns#"
   xmlns:rdf="http://www.w3.org/1999/02/22-rdf-syntax-ns#"
   xmlns:svg="http://www.w3.org/2000/svg"
   xmlns="http://www.w3.org/2000/svg"
   xmlns:sodipodi="http://sodipodi.sourceforge.net/DTD/sodipodi-0.dtd"
   xmlns:inkscape="http://www.inkscape.org/namespaces/inkscape"
   version="1.1"
   id="Layer_1"
   x="0px"
   y="0px"
   viewBox="0 0 100 100"
   enable-background="new 0 0 100 100"
   xml:space="preserve"
   sodipodi:docname="Cebolla B.svg"
   inkscape:version="1.0.1 (3bc2e813f5, 2020-09-07)"><metadata
   id="metadata1337"><rdf:RDF><cc:Work
       rdf:about=""><dc:format>image/svg+xml</dc:format><dc:type
         rdf:resource="http://purl.org/dc/dcmitype/StillImage" /></cc:Work></rdf:RDF></metadata><defs
   id="defs1335" /><sodipodi:namedview
   pagecolor="#ffffff"
   bordercolor="#666666"
   borderopacity="1"
   objecttolerance="10"
   gridtolerance="10"
   guidetolerance="10"
   inkscape:pageopacity="0"
   inkscape:pageshadow="2"
   inkscape:window-width="1920"
   inkscape:window-height="1017"
   id="namedview1333"
   showgrid="false"
   inkscape:zoom="6.0104076"
   inkscape:cx="-1.5570804"
   inkscape:cy="55.337115"
   inkscape:window-x="-8"
   inkscape:window-y="-8"
   inkscape:window-maximized="1"
   inkscape:current-layer="Layer_1"
   inkscape:document-rotation="0" />

<path
   style="fill:#ffccff;fill-opacity:1;stroke:#ffffff;stroke-width:0.117647;stroke-opacity:1"
   d="m 46.814219,96.639556 c -11.790985,-0.798033 -22.806053,-6.63624 -29.635957,-15.70765 -3.027017,-4.020455 -5.270742,-8.83899 -6.325926,-13.58531 -0.626364,-2.817443 -0.721574,-3.803329 -0.720289,-7.458521 0.0013,-3.655421 0.09862,-4.662254 0.721635,-7.464522 3.097986,-13.934487 14.938931,-25.13009 29.864684,-28.237031 0.882746,-0.183751 1.631327,-0.360428 1.663513,-0.392615 0.138247,-0.138247 -1.37158,-2.623365 -2.372982,-3.905832 -0.737688,-0.944739 -2.369238,-2.581863 -3.597238,-3.609528 -0.765796,-0.640864 -1.045517,-1.152658 -1.045517,-1.912938 0,-1.392567 1.373407,-2.585007 2.716051,-2.358169 0.551623,0.0932 1.070614,0.434269 2.400767,1.577749 1.150384,0.98894 2.968902,2.968736 3.6732,3.998965 0.01843,0.02696 0.06258,0.01995 0.09811,-0.01558 C 44.477035,17.34581 42.222776,12.556836 41.099332,10.866186 40.682861,10.239436 40.274273,9.4843607 40.191364,9.1882377 39.966875,8.38644 40.090163,7.1526745 40.47296,6.3702664 c 1.068116,-2.1831518 4.738402,-3.6970793 8.128476,-3.3528519 1.842807,0.1871182 2.978291,0.6273929 4.009723,1.5547392 0.728627,0.6550979 1.119876,1.3638409 1.505776,2.7276863 0.529119,1.8700077 1.13156,5.421955 1.13156,6.671584 0,0.245335 0.04151,0.446063 0.09223,0.446063 0.05073,0 0.244416,-0.516176 0.43042,-1.147059 0.991094,-3.3615723 3.004507,-8.2103863 3.908574,-9.4128504 0.625535,-0.831999 1.883901,-1.116005 2.822698,-0.6370668 0.950153,0.4847319 1.569824,1.563915 1.385384,2.4127032 -0.04452,0.2048796 -0.415802,1.0416843 -0.825071,1.859566 -0.40927,0.8178817 -0.95767,2.0001527 -1.218669,2.627268 -0.740549,1.779359 -2.108256,6.118084 -1.971674,6.254666 0.02687,0.02687 0.546008,-0.289236 1.153652,-0.702449 2.052531,-1.395772 3.973546,-2.30035 6.070339,-2.858433 1.411552,-0.3757 2.16797,-0.345122 2.831124,0.114444 0.949319,0.657878 1.280592,1.944991 0.762082,2.960953 -0.392063,0.768203 -0.865922,1.078979 -2.15219,1.411499 -2.539564,0.656515 -5.132675,2.180318 -7.377353,4.33519 -1.092314,1.048613 -2.20671,2.290328 -2.127015,2.370023 0.02778,0.02778 0.656739,0.208431 1.397692,0.401452 9.660153,2.516499 17.95369,8.316153 23.256288,16.263074 8.084408,12.115975 7.851805,27.423392 -0.597719,39.335255 C 75.1159,91.246345 61.227047,97.61504 46.814217,96.639556 Z m 0.904202,-6.07501 c -3.53e-4,-0.04853 -0.07772,-1.411765 -0.171909,-3.029412 -0.369058,-6.338555 -0.46232,-10.629456 -0.460269,-21.176471 0.0012,-5.888235 0.06569,-12.902941 0.143423,-15.588235 0.186057,-6.427034 0.466342,-14.36211 0.557226,-15.775554 l 0.07256,-1.128496 -1.629008,-0.07623 C 45.334488,33.748218 44.305859,33.680431 43.9446,33.639505 l -0.656833,-0.07441 -0.307236,0.52426 c -3.042937,5.192378 -5.020877,12.772474 -5.624645,21.555427 -0.175801,2.557369 -0.07431,9.368505 0.175562,11.782185 0.901583,8.708927 3.135239,15.958266 6.286325,20.402287 0.809592,1.141779 2.330927,2.68289 2.705027,2.74019 0.570237,0.08734 1.196292,0.08478 1.195619,-0.0049 z m 5.493003,-0.03625 c 0.442263,-0.166229 1.19482,-0.906189 2.086926,-2.051989 4.39333,-5.642692 7.119065,-16.382397 7.125478,-28.075185 0.0056,-10.283083 -1.955238,-19.483852 -5.508933,-25.84886 l -0.548753,-0.982868 -1.117647,0.07344 c -0.614706,0.04039 -1.705731,0.106556 -2.424499,0.14703 l -1.306852,0.07359 -0.07633,1.600544 c -0.423713,8.884832 -0.672907,20.379147 -0.67234,31.012309 5.88e-4,10.415722 0.120059,15.331481 0.555564,22.852941 l 0.07663,1.323529 h 0.739782 c 0.40688,0 0.888817,-0.05602 1.070969,-0.124481 z m 8.039469,-2.473527 c 5.137807,-3.770922 9.061219,-9.947338 10.94208,-17.225521 0.88114,-3.409665 1.165009,-5.505394 1.254024,-9.258136 0.07761,-3.271787 -0.05056,-5.288365 -0.510738,-8.035982 C 71.538473,45.189291 67.649054,37.920492 62.220984,33.509733 l -1.091696,-0.887094 -0.528632,0.148008 c -0.290747,0.0814 -0.528632,0.195031 -0.528632,0.252502 0,0.05747 0.26647,0.635499 0.592156,1.284503 3.029967,6.037915 4.838343,14.178247 5.163488,23.243239 0.43044,12.000643 -1.867193,23.556244 -6.086838,30.612835 -0.400196,0.669255 -0.727629,1.241427 -0.727629,1.271493 0,0.117436 1.234378,-0.644059 2.237692,-1.380446 z m -20.817169,0.921538 c -6.651872,-10.188056 -8.667098,-30.51963 -4.587782,-46.286036 0.773922,-2.991182 2.257492,-6.955126 3.350918,-8.953308 0.222516,-0.40664 0.404576,-0.779482 0.404576,-0.828541 0,-0.04906 -0.241415,-0.153765 -0.536479,-0.232683 l -0.536477,-0.143485 -0.728228,0.550104 c -1.119326,0.845544 -3.697169,3.494069 -4.682025,4.810404 -5.645478,7.545608 -8.075984,18.080286 -6.567503,28.465897 0.899199,6.190817 3.100405,11.697165 6.513703,16.294118 0.9821,1.322671 3.179159,3.620967 4.419362,4.623 0.909297,0.734673 2.91353,2.082882 3.096391,2.082882 0.05675,0 -0.0092,-0.172058 -0.146456,-0.382352 z M 30.23367,84.741016 c -0.04814,-0.08088 -0.279697,-0.411764 -0.514563,-0.735294 -1.474199,-2.030714 -3.158772,-5.186921 -4.269867,-8 -4.143323,-10.490106 -3.839828,-23.238639 0.79332,-33.32404 1.301255,-2.832561 3.16585,-5.847421 4.885947,-7.900075 0.455741,-0.543852 0.806732,-1.010711 0.77998,-1.037462 -0.02675,-0.02675 -0.47662,0.219581 -0.999706,0.547406 -6.564341,4.113961 -11.36212,10.102161 -13.539187,16.898518 -1.580997,4.935547 -1.770574,10.551273 -0.523979,15.521536 0.723212,2.8835 2.263572,6.391691 3.90002,8.882353 2.1462,3.266497 5.319327,6.514238 8.494397,8.694134 0.873664,0.599828 1.158311,0.729577 0.993638,0.452924 z m 40.269424,-0.534197 c 5.358447,-3.747272 9.67019,-9.406163 11.624563,-15.256505 1.084652,-3.246861 1.410785,-5.341795 1.410785,-9.062239 0,-3.170027 -0.146178,-4.427019 -0.82284,-7.075681 -1.884682,-7.377212 -6.88671,-14.061766 -13.721214,-18.336601 -0.663548,-0.415035 -1.224753,-0.736308 -1.247121,-0.71394 -0.02237,0.02237 0.405102,0.594816 0.949935,1.272109 4.445247,5.525972 7.23104,12.53721 8.154424,20.522914 0.277375,2.398827 0.278222,7.11454 0.0017,9.485927 -0.809642,6.943358 -2.904795,12.871892 -6.41049,18.13939 -0.55983,0.841176 -1.035521,1.569118 -1.057089,1.617647 -0.08916,0.200602 0.208073,0.04285 1.117343,-0.593021 z M 50.707033,19.171808 C 50.692363,14.599641 50.475595,12.380804 49.704561,8.9102791 49.415369,7.6085906 49.394584,7.5939577 47.834862,7.5939577 c -1.125698,0 -2.083498,0.1585482 -2.412906,0.3994172 -0.189659,0.1386823 -0.158864,0.228942 0.402185,1.1788188 2.151326,3.6422723 3.733029,8.0769343 4.367508,12.2452933 0.06894,0.452941 0.15268,0.998988 0.186083,1.213436 0.03601,0.231189 0.117847,0.370633 0.201041,0.342558 0.105069,-0.03546 0.137283,-0.990302 0.12826,-3.801673 z"
   id="path1345" /></svg>
