<?xml version="1.0" encoding="UTF-8" standalone="no"?>
<svg
   xmlns:dc="http://purl.org/dc/elements/1.1/"
   xmlns:cc="http://creativecommons.org/ns#"
   xmlns:rdf="http://www.w3.org/1999/02/22-rdf-syntax-ns#"
   xmlns:svg="http://www.w3.org/2000/svg"
   xmlns="http://www.w3.org/2000/svg"
   xmlns:sodipodi="http://sodipodi.sourceforge.net/DTD/sodipodi-0.dtd"
   xmlns:inkscape="http://www.inkscape.org/namespaces/inkscape"
   version="1.1"
   id="Layer_1"
   x="0px"
   y="0px"
   viewBox="0 0 100 100"
   enable-background="new 0 0 100 100"
   xml:space="preserve"
   sodipodi:docname="Chile Verde color.svg"
   inkscape:version="1.0.1 (3bc2e813f5, 2020-09-07)"><metadata
   id="metadata13"><rdf:RDF><cc:Work
       rdf:about=""><dc:format>image/svg+xml</dc:format><dc:type
         rdf:resource="http://purl.org/dc/dcmitype/StillImage" /><dc:title></dc:title></cc:Work></rdf:RDF></metadata><defs
   id="defs11" /><sodipodi:namedview
   pagecolor="#ffffff"
   bordercolor="#666666"
   borderopacity="1"
   objecttolerance="10"
   gridtolerance="10"
   guidetolerance="10"
   inkscape:pageopacity="0"
   inkscape:pageshadow="2"
   inkscape:window-width="1920"
   inkscape:window-height="1017"
   id="namedview9"
   showgrid="false"
   inkscape:zoom="8.5"
   inkscape:cx="52.553468"
   inkscape:cy="50"
   inkscape:window-x="-8"
   inkscape:window-y="-8"
   inkscape:window-maximized="1"
   inkscape:current-layer="Layer_1" />
<g
   id="g6"
   transform="translate(-99.03204,-0.67149)">
	<path
   fill="#2c3136"
   d="M 97.2,78.3 C 96.6,77 95.2,76.4 93.8,76.8 84.5,79.2 74,76.4 67,69.6 59.5,62.3 57.1,54.2 54.4,44.7 53.1,40.3 51.8,35.7 49.9,31 48,26.3 43,21.1 38.3,18.8 32.2,15.8 23,17.3 15.6,23.4 c -4,-3.7 -7,-8.5 -7,-15 0,-1.6 -1.3,-3 -3,-3 -1.6,0 -3,1.3 -3,3 0,7.3 3.1,13.8 8.8,19.2 -0.8,0.9 -1.5,1.9 -2.2,3 -4.9,7.8 -4.8,16.8 0,24.3 9.2,14 23.8,27.4 39,35.9 4.2,2.4 9.3,3.5 14.8,3.5 10.8,0 23.1,-4.3 33.3,-12.3 1.1,-0.9 1.5,-2.5 0.9,-3.7 z m -46.1,7.3 c -14.2,-7.9 -28.3,-21 -36.9,-34 -3.6,-5.5 -3.6,-12 0,-17.8 0.5,-0.9 1.1,-1.7 1.8,-2.4 1.9,1.3 3.8,2.5 6.1,3.5 0.4,0.2 0.8,0.3 1.3,0.3 1.1,0 2.2,-0.6 2.7,-1.7 0.7,-1.5 0.1,-3.2 -1.4,-4 -1.4,-0.7 -2.8,-1.4 -4.3,-2.3 3.7,-2.6 7.7,-3.8 11,-3.8 1.6,0 3.1,0.3 4.2,0.9 3.4,1.6 7.4,5.8 8.7,9.1 1.8,4.4 3.1,8.8 4.3,13 2.7,9.4 5.5,19.1 14.2,27.5 5.5,5.3 12.8,8.6 20.2,9.4 -11.4,5.6 -23.9,6.7 -31.9,2.3 z"
   id="path2" />
	<path
   fill="#2c3136"
   d="m 22.7,45.2 c -1,-1.3 -2.8,-1.6 -4.2,-0.6 -1.3,1 -1.6,2.8 -0.6,4.2 12.8,16.9 25.4,29.4 34.6,34.4 2.8,1.5 6.4,2.3 10.3,2.3 1.6,0 3,-1.3 3,-3 0,-1.6 -1.3,-3 -3,-3 -3,0 -5.6,-0.6 -7.5,-1.6 C 47.1,73.5 34.9,61.2 22.7,45.2 Z"
   id="path4" />
</g>
<path
   style="fill:#8a916f;stroke:#ffffff;stroke-width:0.117647"
   d="m -38.705883,93.577483 c -0.22647,-0.02684 -0.941176,-0.105186 -1.588235,-0.174111 -3.523961,-0.375369 -6.9898,-1.399275 -9.882353,-2.919523 -3.990511,-2.097306 -10.012495,-6.076791 -14.682585,-9.702636 -9.483396,-7.362882 -18.566109,-16.934441 -24.351202,-25.661826 -3.088005,-4.658558 -4.337924,-8.747134 -4.167407,-13.631889 0.06761,-1.936653 0.217441,-3.004398 0.671005,-4.781615 0.737687,-2.890516 2.510233,-6.406225 4.486703,-8.899034 0.315094,-0.397411 0.572898,-0.760986 0.572898,-0.807946 0,-0.04696 -0.577448,-0.686051 -1.283218,-1.4202 -4.734421,-4.924802 -7.422664,-11.143265 -7.422664,-17.1701643 0,-1.1644756 0.03229,-1.3683145 0.302722,-1.9110015 0.516247,-1.0359711 1.909117,-1.7935116 2.955676,-1.6075038 0.630301,0.1120251 1.545275,0.6277586 1.859507,1.0481286 0.587296,0.7856653 0.672834,1.1047669 0.771631,2.8785775 0.281699,5.0576975 2.091879,9.0233095 5.977477,13.0950255 0.478549,0.501471 0.925945,0.911765 0.994216,0.911765 0.06827,0 0.418599,-0.230847 0.778507,-0.512994 2.850442,-2.234571 6.576499,-4.055612 10.019456,-4.896825 2.066321,-0.50486 3.366854,-0.631573 5.67432,-0.552857 3.377911,0.115235 5.429703,0.765571 8.313546,2.635064 2.84951,1.847234 6.018153,5.042443 7.912264,7.978596 1.702687,2.63942 3.155244,6.662435 6.264068,17.349016 2.170793,7.462097 3.24798,10.458342 5.075471,14.117647 1.95215,3.90892 4.068957,6.837676 7.11817,9.848504 3.252637,3.211692 6.768778,5.366859 11.100615,6.803959 3.093724,1.026353 5.842131,1.465184 9.176471,1.465184 2.3727005,0 4.1680385,-0.188974 6.2821625,-0.66125 1.431243,-0.319725 1.856271,-0.307921 2.594719,0.07206 0.862857,0.444001 1.527418,1.501242 1.5323,2.437716 0.004,0.758524 -0.395576,1.679805 -0.96688,2.229533 -1.072339,1.031844 -4.879696,3.632855 -7.5011255,5.124422 -6.545345,3.724238 -13.468323,6.099092 -20.52728,7.041664 -1.68375,0.224829 -6.963043,0.404613 -8.060955,0.274512 z M -33,87.641541 c 3.843632,-0.328714 8.1119,-1.301824 11.921198,-2.717881 2.17044,-0.806831 5.116998,-2.112117 4.998416,-2.21423 -0.05285,-0.04551 -0.731379,-0.174597 -1.50785,-0.286866 -4.864399,-0.703334 -10.352684,-2.901574 -14.529412,-5.819508 -3.490738,-2.438692 -7.166445,-6.249829 -9.741775,-10.100706 -2.749061,-4.110659 -4.623881,-8.193912 -6.712755,-14.619997 -0.262918,-0.808823 -1.118364,-3.667647 -1.900992,-6.352941 -2.185208,-7.497726 -3.85938,-12.295507 -4.96838,-14.238203 -1.160675,-2.03322 -3.496619,-4.617978 -5.55845,-6.150515 -1.314876,-0.97733 -3.132415,-1.88517 -4.294118,-2.14486 -1.994137,-0.445775 -5.074444,-0.180547 -7.658447,0.659426 -1.730107,0.5624 -5.753318,2.627977 -5.753318,2.95384 0,0.08514 2.170446,1.299043 3.646458,2.039412 1.186593,0.595197 1.55358,0.894399 1.91778,1.563553 0.433076,0.795705 0.502067,1.381994 0.260433,2.213186 -0.418216,1.438612 -1.910712,2.365469 -3.306179,2.053178 -0.874661,-0.19574 -3.541487,-1.572144 -5.327291,-2.749525 l -1.517358,-1.000394 -0.471851,0.488687 c -1.57748,1.633764 -3.363446,5.435612 -3.873909,8.24652 -0.264502,1.456506 -0.259745,4.146357 0.0098,5.52146 0.495382,2.527548 1.275622,4.303429 3.034481,6.906694 8.047196,11.910552 20.863063,23.92998 33.804141,31.703389 4.347302,2.611326 7.132292,3.601232 11.352941,4.03533 1.426812,0.146749 4.524382,0.152241 6.176471,0.01095 z"
   id="path838" /><path
   style="fill:#aad400;stroke:#ffffff;stroke-width:0.117647"
   d="m 59.470588,85.227939 c -3.412541,-0.462888 -5.923735,-1.37408 -8.836894,-3.206484 -8.77801,-5.52145 -19.670681,-16.465164 -31.22806,-31.374396 -1.787306,-2.305657 -1.994728,-2.684565 -1.991286,-3.637586 0.0079,-2.19482 2.238021,-3.56967 4.202403,-2.590777 0.538636,0.268413 0.865445,0.63508 3.014683,3.382353 5.742938,7.340937 10.404787,12.658913 16.009793,18.263073 4.417993,4.417326 7.215885,6.8784 10.652891,9.370463 1.6003,1.160327 3.71789,2.44099 4.788473,2.895943 1.603702,0.681507 4.235654,1.198884 6.098851,1.198884 0.459072,0 1.115493,0.08339 1.458716,0.18532 1.283213,0.381073 2.274907,1.885982 2.073363,3.146361 -0.168754,1.055336 -0.970212,2.043351 -1.938203,2.389363 -0.550144,0.196652 -2.774745,0.185016 -4.30473,-0.02252 z"
   id="path840" /><path
   style="fill:#88aa00;stroke:#ffffff;stroke-width:0.117647"
   d="M 59.529412,93.521739 C 53.014181,92.691213 50.175979,91.586431 43.294118,87.202078 36.298372,82.74517 30.259071,77.966647 24.069967,71.991205 17.311617,65.466167 10.499073,56.970934 7.9802725,51.927377 6.5905011,49.144546 6.0062063,47.097788 5.7446564,44.096113 5.5788088,42.192764 5.7391201,39.530173 6.122321,37.82353 c 0.7210794,-3.211437 2.355542,-6.668294 4.546503,-9.615769 0.420091,-0.565142 0.745872,-1.074808 0.723959,-1.132588 -0.02191,-0.05778 -0.65743,-0.786568 -1.412261,-1.619527 C 7.6264198,22.857885 6.5298251,21.285854 5.2310874,18.647059 3.5308211,15.192433 2.7058823,11.854651 2.7058823,8.4298358 c 0,-0.981204 0.037259,-1.180172 0.3236692,-1.7284233 0.5255939,-1.006102 1.8724236,-1.7713878 2.7744107,-1.5764555 0.9883311,0.2135925 1.9202745,0.9420845 2.2686638,1.7733947 0.08504,0.2029171 0.210954,1.0764465 0.279809,1.9411765 0.365734,4.5931208 1.46235,7.5736358 4.034986,10.9667748 0.784655,1.034908 2.869403,3.252521 3.057651,3.252521 0.06716,0 0.55037,-0.310598 1.073809,-0.690218 3.461587,-2.510488 6.999287,-4.143218 10.628841,-4.905453 2.584279,-0.542719 6.018658,-0.492221 8.448772,0.124227 1.968892,0.499451 4.596313,1.962804 6.744618,3.756443 1.375209,1.148175 3.733941,3.632465 4.802761,5.05842 2.312589,3.08531 3.582099,6.412694 7.387438,19.362463 1.951142,6.639838 2.95297,9.416217 4.648466,12.882353 2.092424,4.277587 4.001158,6.979468 7.165455,10.142955 3.380233,3.379369 6.796257,5.507862 11.204728,6.981562 2.913261,0.973868 5.192579,1.376585 8.391217,1.482587 2.480252,0.08219 4.206505,-0.05369 6.854057,-0.539518 2.174067,-0.398945 2.53127,-0.364541 3.332084,0.320927 0.549616,0.470451 1.046251,1.413214 1.048003,1.989427 0.0023,0.755281 -0.439004,1.627545 -1.159135,2.291115 -1.452359,1.33829 -5.520071,4.022336 -8.663245,5.71637 -6.37211,3.434292 -13.998802,5.834596 -20.235294,6.368537 -2.084494,0.178466 -6.574839,0.2499 -7.588235,0.120718 z m 7.941176,-5.813241 c 4.21476,-0.554517 8.353587,-1.663954 12.304054,-3.298177 1.967065,-0.81373 3.087158,-1.367468 3.141476,-1.553041 0.0479,-0.16366 0.06313,-0.159783 -2.210236,-0.562873 C 75.64072,81.396303 70.202644,79.086253 66.290797,76.171001 61.391846,72.520124 57.253214,67.460331 54.252312,61.453039 52.429804,57.804688 51.11392,54.16643 48.833466,46.470588 46.0541,37.091066 44.678179,33.17679 43.410381,31.04277 c -1.140034,-1.918962 -3.823756,-4.793784 -5.660382,-6.063443 -1.216181,-0.840746 -2.882301,-1.65345 -3.949048,-1.926277 -1.011172,-0.258616 -3.253685,-0.310539 -4.683304,-0.10844 -1.405361,0.198669 -3.226456,0.70332 -4.522541,1.253258 -2.036045,0.86391 -4.477459,2.233726 -4.477459,2.512191 0,0.153153 0.589177,0.509581 2.705882,1.636951 2.220816,1.182818 2.515377,1.398534 2.869573,2.101462 0.416913,0.827396 0.46788,1.224599 0.252291,1.966198 -0.349134,1.200982 -1.443754,2.085366 -2.59104,2.093398 -0.98294,0.0069 -3.34026,-1.134684 -6.222562,-3.013367 l -1.279976,-0.834285 -0.462942,0.522732 c -1.468302,1.657943 -2.917238,4.52013 -3.690051,7.289228 -0.264924,0.94926 -0.320541,1.426705 -0.372509,3.197855 -0.06755,2.302147 0.04537,3.406203 0.513614,5.02203 0.7231,2.495267 2.124586,4.869678 5.493855,9.307739 7.708809,10.154183 18.758259,20.200054 29.725042,27.025234 5.365831,3.339427 8.524698,4.498807 13.352941,4.900853 1.204079,0.100263 5.695127,-0.03817 7.058823,-0.217589 z"
   id="path842" /><path
   style="fill:#88aa00;stroke:#ffffff;stroke-width:0.117647"
   d="M 60.352941,85.217629 C 57.957405,84.996754 55.127691,84.211893 53,83.178187 49.931972,81.687632 45.332455,78.301251 40.718761,74.136156 38.742784,72.352307 33.406389,66.979639 31.261821,64.614933 26.220832,59.056492 18.635311,49.770629 17.821129,48.161427 c -0.28123,-0.555841 -0.315213,-0.733298 -0.259046,-1.352722 0.16107,-1.776299 1.925387,-2.993771 3.557757,-2.45504 0.700324,0.231128 1.235406,0.800967 3.921048,4.175747 5.76418,7.243274 9.362358,11.356017 14.603187,16.691553 4.241594,4.318242 7.466089,7.223883 10.715116,9.655553 4.630562,3.465653 6.994909,4.447222 11.464338,4.759474 1.822735,0.127343 2.361109,0.31317 2.995575,1.033961 0.644387,0.732062 0.900687,1.542967 0.72637,2.298151 -0.180174,0.780555 -0.732799,1.547628 -1.394214,1.935243 -0.502181,0.294298 -0.658892,0.322377 -1.908012,0.341865 -0.748493,0.01168 -1.59913,-7.06e-4 -1.890307,-0.02758 z"
   id="path844" /></svg>
