<?xml version="1.0" encoding="utf-8"?>
<!-- Generator: Adobe Illustrator 18.0.0, SVG Export Plug-In . SVG Version: 6.00 Build 0)  -->
<!DOCTYPE svg PUBLIC "-//W3C//DTD SVG 1.1//EN" "http://www.w3.org/Graphics/SVG/1.1/DTD/svg11.dtd">
<svg version="1.1" id="Layer_1" xmlns="http://www.w3.org/2000/svg" xmlns:xlink="http://www.w3.org/1999/xlink" x="0px" y="0px"
	 viewBox="0 0 100 100" enable-background="new 0 0 100 100" xml:space="preserve">
<g>
	<path fill="#2C3136" d="M97.2,78.3c-0.6-1.3-2-1.9-3.4-1.5c-9.3,2.4-19.8-0.4-26.8-7.2c-7.5-7.3-9.9-15.4-12.6-24.9
		c-1.3-4.4-2.6-9-4.5-13.7c-1.9-4.7-6.9-9.9-11.6-12.2c-6.1-3-15.3-1.5-22.7,4.6c-4-3.7-7-8.5-7-15c0-1.6-1.3-3-3-3
		c-1.6,0-3,1.3-3,3c0,7.3,3.1,13.8,8.8,19.2c-0.8,0.9-1.5,1.9-2.2,3c-4.9,7.8-4.8,16.8,0,24.3c9.2,14,23.8,27.4,39,35.9
		c4.2,2.4,9.3,3.5,14.8,3.5c10.8,0,23.1-4.3,33.3-12.3C97.4,81.1,97.8,79.5,97.2,78.3z M51.1,85.6c-14.2-7.9-28.3-21-36.9-34
		c-3.6-5.5-3.6-12,0-17.8c0.5-0.9,1.1-1.7,1.8-2.4c1.9,1.3,3.8,2.5,6.1,3.5c0.4,0.2,0.8,0.3,1.3,0.3c1.1,0,2.2-0.6,2.7-1.7
		c0.7-1.5,0.1-3.2-1.4-4c-1.4-0.7-2.8-1.4-4.3-2.3c3.7-2.6,7.7-3.8,11-3.8c1.6,0,3.1,0.3,4.2,0.9c3.4,1.6,7.4,5.8,8.7,9.1
		c1.8,4.4,3.1,8.8,4.3,13c2.7,9.4,5.5,19.1,14.2,27.5c5.5,5.3,12.8,8.6,20.2,9.4C71.6,88.9,59.1,90,51.1,85.6z"/>
	<path fill="#2C3136" d="M22.7,45.2c-1-1.3-2.8-1.6-4.2-0.6c-1.3,1-1.6,2.8-0.6,4.2c12.8,16.9,25.4,29.4,34.6,34.4
		c2.8,1.5,6.4,2.3,10.3,2.3c1.6,0,3-1.3,3-3c0-1.6-1.3-3-3-3c-3,0-5.6-0.6-7.5-1.6C47.1,73.5,34.9,61.2,22.7,45.2z"/>
</g>
</svg>
