<?xml version="1.0" encoding="UTF-8" standalone="no"?>
<svg
   xmlns:dc="http://purl.org/dc/elements/1.1/"
   xmlns:cc="http://creativecommons.org/ns#"
   xmlns:rdf="http://www.w3.org/1999/02/22-rdf-syntax-ns#"
   xmlns:svg="http://www.w3.org/2000/svg"
   xmlns="http://www.w3.org/2000/svg"
   xmlns:sodipodi="http://sodipodi.sourceforge.net/DTD/sodipodi-0.dtd"
   xmlns:inkscape="http://www.inkscape.org/namespaces/inkscape"
   version="1.1"
   id="Layer_1"
   x="0px"
   y="0px"
   viewBox="0 0 100 100"
   enable-background="new 0 0 100 100"
   xml:space="preserve"
   sodipodi:docname="Chícharo color.svg"
   inkscape:version="1.0.1 (3bc2e813f5, 2020-09-07)"><metadata
   id="metadata13"><rdf:RDF><cc:Work
       rdf:about=""><dc:format>image/svg+xml</dc:format><dc:type
         rdf:resource="http://purl.org/dc/dcmitype/StillImage" /><dc:title></dc:title></cc:Work></rdf:RDF></metadata><defs
   id="defs11" /><sodipodi:namedview
   pagecolor="#ffffff"
   bordercolor="#666666"
   borderopacity="1"
   objecttolerance="10"
   gridtolerance="10"
   guidetolerance="10"
   inkscape:pageopacity="0"
   inkscape:pageshadow="2"
   inkscape:window-width="1920"
   inkscape:window-height="1017"
   id="namedview9"
   showgrid="false"
   inkscape:zoom="6.1376869"
   inkscape:cx="1.777667"
   inkscape:cy="56.680864"
   inkscape:window-x="-8"
   inkscape:window-y="-8"
   inkscape:window-maximized="1"
   inkscape:current-layer="Layer_1" />
<g
   id="g6"
   transform="translate(-105.74016,-4.0731957)">
	<path
   fill="#2c3136"
   d="m 95.3,63.6 c -0.2,-1.5 -1.5,-2.5 -3,-2.4 -0.2,0 -17.3,1 -32,-10.7 C 52.2,44 47.1,35.3 41.8,26.1 c -1.1,-2 -2.3,-4 -3.5,-6 C 28.1,3.1 8.3,4.6 7.4,4.6 6.1,4.7 5.1,5.6 4.9,6.9 4.6,8.2 5.3,9.4 6.4,10 c 4.2,2.1 6.4,4.2 1.8,15.2 -6,14.6 -3.6,34.6 5.8,48.8 6.4,9.6 18.9,21.1 41.7,21.1 15.4,0 26.7,-3.9 33.3,-11.6 7.8,-8.9 6.3,-19.4 6.3,-19.9 z M 55.7,89.5 C 35.4,89.5 24.4,79.4 18.7,70.9 10.2,58.2 8,40.3 13.4,27.4 c 2.7,-6.6 4,-12.1 1.9,-16.5 5.7,1.1 13.4,4.1 18.2,12.2 1.2,2 2.3,3.9 3.4,5.9 5.3,9.2 10.8,18.8 19.8,26 12.8,10.2 27,11.8 33,12 -0.1,3 -0.9,8.3 -5,12.9 -5.5,6.3 -15.3,9.6 -29,9.6 z"
   id="path2" />
	<path
   fill="#2c3136"
   d="M 73.4,64.6 C 72.2,64.2 71,64 69.9,64 c -2.9,0 -5.6,1.1 -7.7,3.1 -1.5,-2.4 -3.8,-4.3 -6.7,-5.3 -1.3,-0.4 -2.6,-0.6 -3.9,-0.6 -1.6,0 -3.1,0.3 -4.5,0.9 1.1,-6.2 -2.4,-12.4 -8.5,-14.4 -0.7,-0.2 -1.3,-0.4 -2,-0.5 0.7,-1 1.3,-2.1 1.7,-3.3 1.4,-4.2 0.4,-8.5 -2.1,-11.8 -1.5,-1.9 -3.6,-3.5 -6.1,-4.3 -1.3,-0.4 -2.6,-0.6 -3.9,-0.6 -5.4,0 -10.3,3.4 -12.1,8.8 -2.2,6.7 1.5,13.9 8.2,16 0.7,0.2 1.3,0.4 2,0.5 -0.7,1 -1.3,2.1 -1.7,3.3 -2.2,6.7 1.5,13.9 8.2,16 1.3,0.4 2.6,0.6 3.9,0.6 1.6,0 3.1,-0.3 4.5,-0.9 -1.3,6.3 2.2,12.5 8.3,14.5 1.3,0.4 2.6,0.6 3.9,0.6 3.8,0 7.4,-1.8 9.8,-4.7 -0.1,0.1 -0.2,0.3 -0.3,0.4 1.3,1.7 3.2,3 5.4,3.7 1.2,0.4 2.3,0.6 3.5,0.6 4.8,0 9.2,-3 10.8,-7.8 1.2,-3.7 0.4,-7.6 -1.8,-10.5 -1.4,-1.7 -3.2,-3 -5.4,-3.7 z m -27.7,-2 c -0.1,0 -0.1,0.1 -0.2,0.1 0.1,-0.1 0.2,-0.1 0.2,-0.1 z m -1.9,1.2 c -0.2,0.1 -0.4,0.3 -0.6,0.5 0.3,-0.2 0.4,-0.4 0.6,-0.5 z m -1.6,1.5 c -0.2,0.2 -0.4,0.4 -0.5,0.6 0.1,-0.2 0.3,-0.4 0.5,-0.6 z m -6,-18.1 c -0.2,0 -0.5,0 -0.7,-0.1 0.2,0 0.4,0 0.7,0.1 z m -2.4,-0.1 c -0.3,0 -0.5,0 -0.8,0.1 0.3,-0.1 0.6,-0.1 0.8,-0.1 z m -9.1,4.7 c 0.2,-0.2 0.3,-0.4 0.5,-0.6 -0.2,0.1 -0.4,0.3 -0.5,0.6 z m 1.6,-1.7 c 0.2,-0.2 0.4,-0.3 0.6,-0.5 -0.2,0.2 -0.4,0.3 -0.6,0.5 z m 2.3,-1.6 c 0.1,0 0.1,-0.1 0.2,-0.1 -0.1,0.1 -0.2,0.1 -0.2,0.1 z m 2.2,-0.9 c 0.2,-0.1 0.4,-0.1 0.7,-0.2 -0.2,0.1 -0.4,0.1 -0.7,0.2 z M 19.7,43.2 c -0.9,-1.7 -1,-3.6 -0.4,-5.4 1,-2.9 3.7,-4.9 6.7,-4.9 0.7,0 1.5,0.1 2.2,0.4 1.8,0.6 3.3,1.8 4.1,3.5 0.9,1.7 1,3.6 0.4,5.4 -1,2.9 -3.7,4.9 -6.7,4.9 -0.7,0 -1.5,-0.1 -2.2,-0.4 C 22,46.1 20.6,44.9 19.7,43.2 Z M 28.2,63 c -0.9,-1.7 -1,-3.6 -0.4,-5.4 1,-2.9 3.7,-4.9 6.7,-4.9 0.7,0 1.5,0.1 2.2,0.4 1.8,0.6 3.3,1.8 4.1,3.5 0.9,1.7 1,3.6 0.4,5.4 -1,2.9 -3.7,4.9 -6.7,4.9 -0.7,0 -1.5,-0.1 -2.2,-0.4 -1.8,-0.6 -3.2,-1.8 -4.1,-3.5 z m 12.5,4.2 c -0.1,0.2 -0.3,0.4 -0.4,0.6 0.1,-0.2 0.3,-0.4 0.4,-0.6 z m 4.5,9.9 c -0.9,-1.7 -1,-3.6 -0.4,-5.4 1,-2.9 3.7,-4.9 6.7,-4.9 0.7,0 1.5,0.1 2.2,0.4 1.8,0.6 3.3,1.8 4.1,3.5 0.9,1.7 1,3.6 0.4,5.4 C 57.2,79 54.5,81 51.5,81 50.8,81 50,80.9 49.3,80.6 47.5,80 46,78.8 45.2,77.1 Z m 17,3.5 c 0.1,-0.2 0.3,-0.4 0.4,-0.6 -0.1,0.2 -0.2,0.4 -0.4,0.6 z m 2.3,-7 c 0.8,-2.3 2.9,-3.9 5.4,-3.9 0.6,0 1.2,0.1 1.8,0.3 3,1 4.6,4.2 3.6,7.1 -0.8,2.3 -2.9,3.9 -5.4,3.9 -0.6,0 -1.2,-0.1 -1.8,-0.3 -3,-1 -4.6,-4.2 -3.6,-7.1 z"
   id="path4" />
</g>
<path
   style="fill:#37c837;stroke:#000000;stroke-width:0.163184"
   d="M 50.89545,95.023793 C 44.186529,94.36625 39.710623,93.335549 34.761382,91.308479 25.304388,87.435159 17.335626,80.332994 12.087063,71.099977 8.5090481,64.805708 6.0814541,57.138509 5.1744951,49.267648 c -0.370246,-3.213106 -0.371341,-9.097981 -0.0023,-12.11205 0.543157,-4.435577 1.33918,-7.534704 3.133271,-12.198646 1.9277849,-5.011498 2.4390699,-7.086806 2.3136169,-9.390986 -0.09142,-1.67902 -0.534017,-2.708116 -1.5918909,-3.701309 -0.435982,-0.409326 -1.244461,-0.985018 -1.796619,-1.279315 -1.951208,-1.0399836 -2.54406,-1.8444297 -2.407405,-3.2666287 0.09455,-0.9839863 0.728536,-1.8873249 1.573684,-2.2422687 0.855298,-0.359206 6.0741149,-0.1977381 8.7358939,0.2702847 9.059462,1.5929331 16.025376,5.6212217 20.987837,12.1369627 1.148046,1.507392 2.270821,3.31714 4.910516,7.915029 6.407353,11.160489 10.00332,16.419762 14.356219,20.996653 7.532431,7.920031 17.69903,12.985957 29.315611,14.60771 1.075324,0.150123 3.422526,0.322136 5.216004,0.382251 3.026725,0.101452 3.304941,0.136537 3.874602,0.488606 0.883617,0.546105 1.211297,1.310257 1.340877,3.126885 0.28868,4.047318 -0.82268,9.296639 -2.805887,13.253133 -4.944288,9.863848 -15.340471,15.485317 -30.907204,16.712275 -1.919049,0.151257 -9.165596,0.190884 -10.525917,0.05756 z m 9.371132,-5.439338 c 10.522192,-0.689979 18.270135,-3.45971 23.222276,-8.301489 3.617112,-3.536503 5.558721,-7.78228 6.084652,-13.305499 l 0.08013,-0.841522 -1.416301,-0.105587 C 80.504561,66.453868 73.430789,64.612101 66.880881,61.469867 60.926014,58.613095 56.290162,55.275509 51.708226,50.546296 46.870286,45.552853 43.118643,40.135383 36.719139,28.901669 32.70428,21.853968 31.930768,20.708486 29.593689,18.34969 26.47678,15.203815 22.679104,13.02261 17.902224,11.634666 17.095919,11.40039 16.128716,11.166088 15.752884,11.113994 l -0.683331,-0.09472 0.431239,1.202124 c 0.399489,1.113619 0.43153,1.400044 0.435205,3.890432 0.0035,2.378312 -0.04587,2.885581 -0.428243,4.399052 -0.430604,1.704386 -1.4405,4.677572 -2.732344,8.044167 -4.9009379,12.772035 -2.557846,30.240678 5.708908,42.562072 3.283604,4.894132 7.716373,9.213626 12.477753,12.158895 8.044146,4.975906 17.752869,7.065919 29.304511,6.308435 z"
   id="path838" /><path
   style="fill:#37c837;stroke:#000000;stroke-width:0.163184"
   d="m 47.287631,86.250429 c -4.571547,-0.910596 -8.326323,-4.480918 -9.507918,-9.040839 -0.346782,-1.338278 -0.479853,-3.570109 -0.284136,-4.765459 0.177676,-1.085169 0.219148,-1.065455 -1.263631,-0.600675 -2.923999,0.916534 -6.762613,0.390797 -9.643651,-1.320798 -5.938884,-3.528226 -7.929051,-11.338297 -4.365165,-17.130349 0.277546,-0.451071 0.474178,-0.850579 0.436959,-0.887797 -0.03722,-0.03722 -0.609664,-0.216019 -1.272102,-0.397334 -4.579709,-1.253506 -8.014861,-4.756678 -9.098973,-9.279142 -0.801799,-3.344769 -0.167223,-6.860402 1.769938,-9.805687 0.747814,-1.136985 2.317348,-2.7738 3.35483,-3.498639 0.766848,-0.53576 2.344539,-1.293858 3.502948,-1.683204 1.521375,-0.511342 4.5496,-0.629819 6.291838,-0.246165 2.357463,0.519131 4.849254,1.919047 6.423298,3.60868 3.379413,3.62758 4.448376,8.67026 2.778071,13.105143 -0.187659,0.498256 -0.599918,1.335568 -0.916134,1.860696 -0.316215,0.525128 -0.517775,1.002223 -0.447911,1.06021 0.06986,0.05799 0.53027,0.201164 1.023126,0.318166 0.492857,0.117003 1.434274,0.458601 2.092039,0.759106 3.061792,1.398809 5.334051,3.798361 6.527562,6.893237 0.660184,1.711917 0.876982,3.123187 0.804608,5.237687 -0.0531,1.551506 -0.02845,1.774678 0.185848,1.682308 0.135894,-0.05857 0.723641,-0.252505 1.306108,-0.430959 1.244513,-0.381288 4.300201,-0.455469 5.615057,-0.136313 1.329023,0.322595 3.125879,1.106249 4.205441,1.834096 1.126717,0.759641 2.846179,2.42907 3.309211,3.212919 0.165345,0.27991 0.354257,0.508928 0.419801,0.508928 0.06554,0 0.581289,-0.348967 1.146098,-0.775483 3.464015,-2.615842 7.863673,-2.923854 11.884466,-0.832007 5.9553,3.098289 7.682495,10.931081 3.628253,16.454064 -1.486414,2.024903 -4.248275,3.792269 -6.74672,4.317353 -2.524335,0.530525 -5.480136,0.03015 -7.949105,-1.345662 -1.349901,-0.752222 -3.148593,-2.42435 -3.010212,-2.7984 0.05593,-0.151192 -0.412753,0.207432 -1.041526,0.796946 -3.113447,2.919047 -7.15356,4.123071 -11.158316,3.325373 z m 3.855428,-5.307702 c 3.833252,-0.708615 6.50656,-4.638485 5.720354,-8.409147 -0.497209,-2.384626 -1.779013,-4.019553 -3.972614,-5.067024 -1.218738,-0.581962 -1.323848,-0.602703 -3.054379,-0.602703 -1.674157,0 -1.863889,0.03396 -2.8805,0.515589 -4.01724,1.9032 -5.402229,6.660616 -3.051341,10.481298 0.635893,1.033457 1.585334,1.846395 2.87751,2.463806 1.591107,0.760243 2.723868,0.920816 4.36097,0.618181 z m 18.577057,-0.07244 c 2.697101,-0.693676 4.49492,-3.229547 4.270622,-6.023826 -0.391776,-4.880705 -6.588865,-6.991888 -9.918986,-3.379133 -1.029086,1.116427 -1.512459,2.322562 -1.51781,3.787309 -0.0061,1.661855 0.379153,2.707367 1.415234,3.841003 1.570285,1.718144 3.570615,2.335412 5.75094,1.774647 z m -8.760369,-0.819354 c -0.05461,-0.05461 -0.187121,0.07195 -0.294457,0.281244 -0.186572,0.363795 -0.182203,0.368165 0.0993,0.0993 0.161952,-0.154685 0.249775,-0.325929 0.195161,-0.380542 z M 35.417307,66.481439 c 1.783009,-0.693304 3.381096,-2.28659 4.110453,-4.098101 0.294783,-0.732159 0.361639,-1.22399 0.365427,-2.688309 0.0045,-1.74006 -0.0129,-1.82807 -0.597981,-3.024778 -1.032206,-2.111245 -2.979301,-3.528312 -5.423217,-3.946937 -5.401608,-0.925255 -9.853908,5.070702 -7.484431,10.079363 0.512577,1.083499 1.821157,2.543767 2.786487,3.109487 1.856807,1.088161 4.329072,1.313588 6.243262,0.569275 z M 29.633369,47.556905 c 0.314164,-0.135 0.313046,-0.140435 -0.03112,-0.151475 -0.196334,-0.0063 -0.402285,0.06186 -0.457667,0.151475 -0.119101,0.192708 0.04033,0.192708 0.488783,0 z m -4.062387,-0.503979 c 2.855797,-0.526176 5.192168,-2.809492 5.782837,-5.651519 0.662068,-3.185577 -0.928016,-6.366249 -3.911977,-7.825184 -1.20065,-0.587029 -1.274603,-0.601358 -3.103627,-0.601358 -1.792114,0 -1.921939,0.0236 -2.982579,0.542202 -2.123304,1.038194 -3.636631,3.080688 -4.034608,5.445395 -0.505982,3.006452 1.181262,6.146788 4.020672,7.48337 1.573948,0.740897 2.658285,0.896548 4.229282,0.607094 z m 8.912591,0.07125 c -0.110307,-0.04463 -0.33026,-0.04734 -0.488784,-0.006 -0.158524,0.04131 -0.06827,0.07782 0.200559,0.08114 0.268831,0.0033 0.398532,-0.03048 0.288225,-0.07511 z"
   id="path840" /></svg>
