<?xml version="1.0" encoding="utf-8"?>
<!-- Generator: Adobe Illustrator 18.0.0, SVG Export Plug-In . SVG Version: 6.00 Build 0)  -->
<!DOCTYPE svg PUBLIC "-//W3C//DTD SVG 1.1//EN" "http://www.w3.org/Graphics/SVG/1.1/DTD/svg11.dtd">
<svg version="1.1" id="Layer_1" xmlns="http://www.w3.org/2000/svg" xmlns:xlink="http://www.w3.org/1999/xlink" x="0px" y="0px"
	 viewBox="0 0 100 100" enable-background="new 0 0 100 100" xml:space="preserve">
<g>
	<path fill="#FFFFFF" d="M95.3,63.6c-0.2-1.5-1.5-2.5-3-2.4c-0.2,0-17.3,1-32-10.7C52.2,44,47.1,35.3,41.8,26.1c-1.1-2-2.3-4-3.5-6
		C28.1,3.1,8.3,4.6,7.4,4.6c-1.3,0.1-2.3,1-2.5,2.3C4.6,8.2,5.3,9.4,6.4,10c4.2,2.1,6.4,4.2,1.8,15.2C2.2,39.8,4.6,59.8,14,74
		c6.4,9.6,18.9,21.1,41.7,21.1c15.4,0,26.7-3.9,33.3-11.6C96.8,74.6,95.3,64.1,95.3,63.6z M55.7,89.5c-20.3,0-31.3-10.1-37-18.6
		c-8.5-12.7-10.7-30.6-5.3-43.5c2.7-6.6,4-12.1,1.9-16.5C21,12,28.7,15,33.5,23.1c1.2,2,2.3,3.9,3.4,5.9c5.3,9.2,10.8,18.8,19.8,26
		c12.8,10.2,27,11.8,33,12c-0.1,3-0.9,8.3-5,12.9C79.2,86.2,69.4,89.5,55.7,89.5z"/>
	<path fill="#FFFFFF" d="M73.4,64.6C72.2,64.2,71,64,69.9,64c-2.9,0-5.6,1.1-7.7,3.1c-1.5-2.4-3.8-4.3-6.7-5.3
		c-1.3-0.4-2.6-0.6-3.9-0.6c-1.6,0-3.1,0.3-4.5,0.9c1.1-6.2-2.4-12.4-8.5-14.4c-0.7-0.2-1.3-0.4-2-0.5c0.7-1,1.3-2.1,1.7-3.3
		c1.4-4.2,0.4-8.5-2.1-11.8c-1.5-1.9-3.6-3.5-6.1-4.3c-1.3-0.4-2.6-0.6-3.9-0.6c-5.4,0-10.3,3.4-12.1,8.8c-2.2,6.7,1.5,13.9,8.2,16
		c0.7,0.2,1.3,0.4,2,0.5c-0.7,1-1.3,2.1-1.7,3.3c-2.2,6.7,1.5,13.9,8.2,16c1.3,0.4,2.6,0.6,3.9,0.6c1.6,0,3.1-0.3,4.5-0.9
		C37.9,77.8,41.4,84,47.5,86c1.3,0.4,2.6,0.6,3.9,0.6c3.8,0,7.4-1.8,9.8-4.7c-0.1,0.1-0.2,0.3-0.3,0.4c1.3,1.7,3.2,3,5.4,3.7
		c1.2,0.4,2.3,0.6,3.5,0.6c4.8,0,9.2-3,10.8-7.8c1.2-3.7,0.4-7.6-1.8-10.5C77.4,66.6,75.6,65.3,73.4,64.6z M45.7,62.6
		c-0.1,0-0.1,0.1-0.2,0.1C45.6,62.6,45.7,62.6,45.7,62.6z M43.8,63.8c-0.2,0.1-0.4,0.3-0.6,0.5C43.5,64.1,43.6,63.9,43.8,63.8z
		 M42.2,65.3c-0.2,0.2-0.4,0.4-0.5,0.6C41.8,65.7,42,65.5,42.2,65.3z M36.2,47.2c-0.2,0-0.5,0-0.7-0.1
		C35.7,47.1,35.9,47.1,36.2,47.2z M33.8,47.1c-0.3,0-0.5,0-0.8,0.1C33.3,47.1,33.6,47.1,33.8,47.1z M24.7,51.8
		c0.2-0.2,0.3-0.4,0.5-0.6C25,51.3,24.8,51.5,24.7,51.8z M26.3,50.1c0.2-0.2,0.4-0.3,0.6-0.5C26.7,49.8,26.5,49.9,26.3,50.1z
		 M28.6,48.5c0.1,0,0.1-0.1,0.2-0.1C28.7,48.5,28.6,48.5,28.6,48.5z M30.8,47.6c0.2-0.1,0.4-0.1,0.7-0.2
		C31.3,47.5,31.1,47.5,30.8,47.6z M19.7,43.2c-0.9-1.7-1-3.6-0.4-5.4c1-2.9,3.7-4.9,6.7-4.9c0.7,0,1.5,0.1,2.2,0.4
		c1.8,0.6,3.3,1.8,4.1,3.5c0.9,1.7,1,3.6,0.4,5.4c-1,2.9-3.7,4.9-6.7,4.9c-0.7,0-1.5-0.1-2.2-0.4C22,46.1,20.6,44.9,19.7,43.2z
		 M28.2,63c-0.9-1.7-1-3.6-0.4-5.4c1-2.9,3.7-4.9,6.7-4.9c0.7,0,1.5,0.1,2.2,0.4c1.8,0.6,3.3,1.8,4.1,3.5c0.9,1.7,1,3.6,0.4,5.4
		c-1,2.9-3.7,4.9-6.7,4.9c-0.7,0-1.5-0.1-2.2-0.4C30.5,65.9,29.1,64.7,28.2,63z M40.7,67.2c-0.1,0.2-0.3,0.4-0.4,0.6
		C40.4,67.6,40.6,67.4,40.7,67.2z M45.2,77.1c-0.9-1.7-1-3.6-0.4-5.4c1-2.9,3.7-4.9,6.7-4.9c0.7,0,1.5,0.1,2.2,0.4
		c1.8,0.6,3.3,1.8,4.1,3.5c0.9,1.7,1,3.6,0.4,5.4c-1,2.9-3.7,4.9-6.7,4.9c-0.7,0-1.5-0.1-2.2-0.4C47.5,80,46,78.8,45.2,77.1z
		 M62.2,80.6c0.1-0.2,0.3-0.4,0.4-0.6C62.5,80.2,62.4,80.4,62.2,80.6z M64.5,73.6c0.8-2.3,2.9-3.9,5.4-3.9c0.6,0,1.2,0.1,1.8,0.3
		c3,1,4.6,4.2,3.6,7.1c-0.8,2.3-2.9,3.9-5.4,3.9c-0.6,0-1.2-0.1-1.8-0.3C65.1,79.7,63.5,76.5,64.5,73.6z"/>
</g>
</svg>
