<?xml version="1.0" encoding="UTF-8" standalone="no"?>
<svg
   xmlns:dc="http://purl.org/dc/elements/1.1/"
   xmlns:cc="http://creativecommons.org/ns#"
   xmlns:rdf="http://www.w3.org/1999/02/22-rdf-syntax-ns#"
   xmlns:svg="http://www.w3.org/2000/svg"
   xmlns="http://www.w3.org/2000/svg"
   xmlns:sodipodi="http://sodipodi.sourceforge.net/DTD/sodipodi-0.dtd"
   xmlns:inkscape="http://www.inkscape.org/namespaces/inkscape"
   version="1.1"
   id="Layer_1"
   x="0px"
   y="0px"
   viewBox="0 0 100 100"
   enable-background="new 0 0 100 100"
   xml:space="preserve"
   sodipodi:docname="Clavel color.svg"
   inkscape:version="1.0.1 (3bc2e813f5, 2020-09-07)"><metadata
   id="metadata9"><rdf:RDF><cc:Work
       rdf:about=""><dc:format>image/svg+xml</dc:format><dc:type
         rdf:resource="http://purl.org/dc/dcmitype/StillImage" /><dc:title></dc:title></cc:Work></rdf:RDF></metadata><defs
   id="defs7" /><sodipodi:namedview
   pagecolor="#ffffff"
   bordercolor="#666666"
   borderopacity="1"
   objecttolerance="10"
   gridtolerance="10"
   guidetolerance="10"
   inkscape:pageopacity="0"
   inkscape:pageshadow="2"
   inkscape:window-width="1920"
   inkscape:window-height="1017"
   id="namedview5"
   showgrid="false"
   inkscape:zoom="6.1376869"
   inkscape:cx="54.715211"
   inkscape:cy="60.259898"
   inkscape:window-x="-8"
   inkscape:window-y="-8"
   inkscape:window-maximized="1"
   inkscape:current-layer="Layer_1" />
<path
   fill="#2c3136"
   d="m -61.659908,24.123963 4.4,3.2 -0.8,6.8 c -0.1,0.8 0.2,1.7 0.8,2.2 0.6,0.5 1.5,0.7 2.3,0.5 l 8.4,-2.5 c 3.9,2.6 12,5.1 21,0 l 8.9,3.5 c 0.3,0.1 0.6,0.2 0.9,0.2 0.5,0 1,-0.1 1.4,-0.4 0.7,-0.4 1.1,-1.2 1.1,-2 l 0.2,-6.6 4.5000002,-4.5 c 0.5,-0.5 0.7,-1.1 0.7,-1.8 0,-0.7 -0.3,-1.3 -0.8,-1.8 l -4.0000002,-3.7 -0.6,-7.2 c -0.1,-0.7999999 -0.5,-1.4999999 -1.2,-1.9999999 -0.7,-0.4 -1.6,-0.4 -2.3,-0.1 l -5.6,2.5999999 -3.2,-6.6999999 c -0.3,-0.6 -0.8,-1.1 -1.5,-1.3 -0.6,-0.2 -1.3,-0.1 -1.9,0.2 l -6.6,3.5 -7.2,-3.8 c -0.6,-0.3 -1.4,-0.4 -2.1,-0.1 -0.7,0.3 -1.2,0.8 -1.5,1.5 l -2,5.3 -6.3,-2.2 c -0.8,-0.3 -1.7,-0.1 -2.4,0.4 -0.7,0.5 -1,1.3 -0.9,2.2 l 0.7,7.5999999 -4.4,3.1 c -0.7,0.5 -1.1,1.2 -1.1,2 0.1,0.6 0.5,1.4 1.1,1.9 z m 8.5,-3.9 c 0.7,-0.5 1.1,-1.4 1.1,-2.3 l -0.5,-5.2 5,1.7 c 1.3,0.4 2.7,-0.2 3.2,-1.5 l 1.8,-4.8999999 5.9,3.1999999 c 0.7,0.4 1.6,0.4 2.3,0 l 5.5,-2.7999999 3.2,6.5999999 c 0.6,1.2 2.1,1.7 3.3,1.2 l 4.5,-2.1 0.4,4.6 c 0,0.6 0.3,1.2 0.8,1.6 l 2.8,2.6 -3.3,3.3 c -0.4,0.4 -0.7,1 -0.7,1.7 l -0.2,4 -6.8,-2.6 c -0.7,-0.3 -1.5,-0.2 -2.2,0.2 -9.9,6.2 -17,0.5 -17.4,0.2 -0.6,-0.5 -1.5,-0.7 -2.3,-0.5 l -6,1.7 0.6,-4.4 c 0.1,-0.9 -0.3,-1.8 -1,-2.3 l -2.8,-2 z m 46.7000002,55.8 c -0.2,0 -16.2000002,-3.6 -26.5000002,7.3 2,-19 21,-19.3 21.8,-19.3 1.4000002,0 2.5000002,-1.1 2.5000002,-2.5 0,-1.4 -1.1,-2.5 -2.5000002,-2.5 -0.2,0 -14.3,0.2 -22,10.7 v -14.5 c 5.7,-1.1 10,-6.1 10,-12.1 v -1.9 c 0,-1.4 -1.1,-2.5 -2.5,-2.5 -1.4,0 -2.5,1.1 -2.5,2.5 v 1.9 c 0,4.1 -3.3,7.4 -7.4,7.4 -4.1,0 -7.4,-3.3 -7.4,-7.4 v -1.9 c 0,-1.4 -1.1,-2.5 -2.5,-2.5 -1.4,0 -2.5,1.1 -2.5,2.5 v 1.9 c 0,5.9 4.1,10.8 9.6,12 v 20.3 c -2.6,-4.1 -5.9,-7.1 -9.7,-8.8 -8.5,-3.9 -16.5,-0.2 -16.9,0 -1.2,0.6 -1.8,2.1 -1.2,3.3 0.6,1.2 2.1,1.8 3.3,1.2 0.1,0 6.3,-2.9 12.7,0 5.3,2.4 9.2,8 11.7,16.7 v 4.3 c 0,0 0,0 0,0 v 2 c 0,1.4 1.1,2.5 2.5,2.5 1.4,0 2.5,-1.1 2.5,-2.5 v -1.4 c 7.1,-15.7 24.7000002,-11.9 25.5000002,-11.7 1.3,0.3 2.7,-0.5 3,-1.9 0.6,-1.4 -0.2,-2.8 -1.5,-3.1 z"
   id="path2" />
<path
   style="fill:#decd87;stroke:#000000;stroke-width:0.115389"
   d="m 69.093159,38.2 c -0.311113,-0.08265 -2.509785,-0.921133 -4.885937,-1.863297 l -4.320276,-1.713026 -1.209678,0.599739 c -3.440735,1.705862 -6.697508,2.446704 -10.195852,2.319328 -0.950461,-0.03461 -2.182349,-0.145824 -2.73753,-0.24715 -2.10642,-0.384441 -4.452338,-1.228337 -6.049901,-2.176328 l -0.838122,-0.49734 -4.403814,1.313922 c -4.69901,1.401996 -4.896266,1.436211 -5.759485,0.999001 -0.504216,-0.255379 -0.765294,-0.498016 -0.978547,-0.909426 -0.368847,-0.711584 -0.365837,-1.068468 0.03767,-4.466895 0.217593,-1.832591 0.395623,-3.473052 0.395623,-3.645468 0,-0.274273 -0.270189,-0.509618 -2.160138,-1.881558 -1.188076,-0.86244 -2.297004,-1.714382 -2.464284,-1.893204 -0.526638,-0.562973 -0.822752,-1.28255 -0.75933,-1.845229 0.09926,-0.8806 0.461613,-1.24631 3.003956,-3.031759 2.320925,-1.629951 2.377024,-1.678853 2.377542,-2.072565 2.88e-4,-0.221774 -0.154251,-2.058013 -0.343427,-4.080531 -0.360918,-3.8586276 -0.355898,-4.115651 0.09468,-4.8480958 0.116958,-0.1901228 0.487922,-0.4954994 0.824365,-0.6786147 1.005856,-0.5474556 1.309692,-0.4976775 5.069194,0.8304983 1.804445,0.6374832 3.288986,1.1492487 3.298982,1.1372568 0.01,-0.011992 0.461065,-1.1966006 1.002378,-2.6324636 1.167102,-3.0958089 1.199798,-3.1632584 1.793246,-3.6994029 0.536422,-0.4846245 1.249383,-0.7120844 1.910069,-0.6093799 0.2746,0.042687 1.990315,0.8743947 4.181504,2.0270218 2.043708,1.0750481 3.788031,1.954633 3.876273,1.954633 0.08824,0 1.677015,-0.8065815 3.530608,-1.7924034 1.853592,-0.9858219 3.587062,-1.8329236 3.852154,-1.8824481 0.303311,-0.056665 0.691991,-0.036811 1.048489,0.053557 0.946017,0.2398034 1.277837,0.7298763 3.086369,4.5583418 0.879013,1.8607763 1.611235,3.3982837 1.627157,3.4166847 0.01592,0.0184 1.318619,-0.566925 2.894881,-1.3007219 1.576262,-0.7337973 3.071646,-1.3809616 3.323076,-1.4381426 0.642445,-0.1461074 1.489057,0.058887 1.963466,0.4754231 0.779129,0.6840848 0.846367,0.9745413 1.199226,5.1805144 l 0.320894,3.824957 0.354377,0.298892 c 0.194908,0.164392 1.162261,1.048496 2.149676,1.964676 1.941264,1.801217 2.253372,2.238262 2.253372,3.155398 0,0.961105 -0.220329,1.265667 -2.763044,3.819373 l -2.40894,2.419355 -0.07296,2.937788 c -0.09386,3.779528 -0.174683,4.499505 -0.562089,5.007421 C 70.990068,38.152278 70.103676,38.468449 69.093155,38.2 Z M 51.894456,32.559455 c 1.939356,-0.367661 4.010642,-1.181568 6.418129,-2.521988 1.175073,-0.654248 1.317823,-0.629017 5.491411,0.97061 l 3.571429,1.368835 0.02727,-0.307217 c 0.015,-0.168969 0.07518,-1.22043 0.133726,-2.336581 0.08767,-1.671376 0.147477,-2.10832 0.339011,-2.476958 0.127907,-0.246177 1.013871,-1.224596 1.968809,-2.174265 0.954938,-0.949669 1.73625,-1.75877 1.73625,-1.798004 0,-0.03923 -0.700857,-0.713846 -1.557461,-1.499137 -0.990359,-0.907911 -1.637541,-1.595599 -1.77739,-1.888631 -0.166934,-0.349786 -0.267543,-1.043809 -0.417527,-2.880185 -0.108678,-1.330645 -0.229072,-2.454337 -0.267541,-2.497094 -0.03847,-0.04276 -1.132644,0.417532 -2.431503,1.022864 -1.298858,0.605333 -2.555845,1.126663 -2.793304,1.158514 -0.597493,0.08014 -1.362986,-0.158143 -1.881754,-0.585756 -0.36148,-0.297962 -0.730118,-0.96062 -2.140599,-3.847903 -0.937155,-1.918373 -1.741941,-3.4879519 -1.788415,-3.4879519 -0.04647,0 -1.420455,0.6758311 -3.053293,1.5018469 -3.052288,1.544085 -3.462645,1.683122 -4.239699,1.436495 -0.14809,-0.047 -1.64296,-0.83148 -3.321934,-1.743284 -1.678974,-0.911804 -3.069914,-1.6405921 -3.090976,-1.6195292 -0.02106,0.021063 -0.477099,1.2268562 -1.013413,2.6795402 -0.90201,2.443227 -1.012857,2.676994 -1.478524,3.118083 -0.386509,0.366107 -0.659552,0.511781 -1.175805,0.627314 l -0.672397,0.150475 -2.816152,-0.951254 c -1.548883,-0.523191 -2.83111,-0.93509 -2.849393,-0.915333 -0.01828,0.01976 0.08625,1.247677 0.232295,2.728709 0.37843,3.837631 0.355769,3.897914 -2.129807,5.665943 -0.825719,0.587345 -1.501307,1.100804 -1.501307,1.141019 0,0.04021 0.583238,0.48484 1.296083,0.988056 1.791396,1.26459 2.110715,1.573524 2.340029,2.263925 0.18728,0.563845 0.18304,0.661705 -0.129382,2.98635 -0.177653,1.321871 -0.300047,2.426361 -0.271987,2.454421 0.02806,0.02806 1.424337,-0.338088 3.102838,-0.813662 3.896264,-1.103936 4.004827,-1.105852 5.47883,-0.09671 1.892124,1.2954 4.237752,2.139999 6.674373,2.403266 0.80826,0.08733 2.991607,-0.03572 3.989077,-0.224821 z"
   id="path834" /><path
   style="fill:#decd87;stroke:#000000;stroke-width:0.115389"
   d="m 49.193548,96.936141 c -0.52077,-0.225572 -1.001373,-0.685562 -1.277831,-1.223026 -0.201911,-0.392534 -0.219864,-0.708647 -0.219864,-3.871238 v -3.4438 L 47.117676,86.640793 C 43.948364,77.00812 39.040513,71.69302 32.269824,70.560879 c -2.531902,-0.423364 -6.120335,-0.05235 -8.560844,0.885129 -0.488287,0.187566 -1.060437,0.369045 -1.271443,0.403286 -1.409529,0.228735 -2.918736,-1.30868 -2.678798,-2.728865 0.108627,-0.642955 0.656809,-1.430487 1.228865,-1.765414 1.310688,-0.767384 4.59811,-1.588939 7.217496,-1.803717 4.198021,-0.344217 8.717989,0.783511 12.254084,3.057384 2.47475,1.591379 5.225487,4.378688 6.902953,6.99473 0.151862,0.236831 0.314994,0.431244 0.362517,0.432028 0.04752,8.07e-4 0.08641,-4.578207 0.08641,-10.175538 V 55.682938 l -0.72005,-0.199725 C 45.236923,54.968931 43.274207,53.83123 41.861847,52.452094 40.128167,50.7592 38.933321,48.578578 38.404494,46.142346 38.163409,45.031699 38.06181,42.023902 38.240253,41.280067 c 0.26627,-1.109938 1.212602,-1.879145 2.311853,-1.879145 1.019931,0 1.762831,0.443047 2.221561,1.324884 0.205871,0.395756 0.250631,0.753665 0.316975,2.534563 0.06365,1.708612 0.122582,2.205582 0.334705,2.82258 0.403291,1.173047 0.897069,1.944628 1.852083,2.894082 2.419842,2.405755 6.109106,2.859744 9.081395,1.11753 0.863476,-0.506129 2.045562,-1.710308 2.58547,-2.633792 0.744485,-1.273406 0.905867,-1.972998 0.995526,-4.315608 0.08551,-2.234142 0.149278,-2.486037 0.776852,-3.068645 0.584795,-0.542893 1.040326,-0.704705 1.840446,-0.653757 0.895921,0.05705 1.562433,0.47633 1.962838,1.234762 0.251552,0.476481 0.267908,0.632576 0.265568,2.534562 -0.0027,2.211186 -0.165912,3.266172 -0.741223,4.791788 -0.870249,2.307732 -2.55729,4.460795 -4.561964,5.822143 -0.982718,0.667351 -2.685562,1.456069 -3.699624,1.71358 l -0.844926,0.214563 -0.02966,7.352676 c -0.01631,4.043972 0.0124,7.303039 0.06382,7.24237 0.05141,-0.06067 0.385425,-0.474879 0.742248,-0.920465 0.774801,-0.967541 2.752535,-2.905381 3.716687,-3.641716 2.918619,-2.228985 6.772195,-4.062214 10.642971,-5.063092 2.925522,-0.75646 6.657882,-1.208961 7.548214,-0.915125 0.565661,0.186685 1.174979,0.72874 1.470651,1.308304 0.339675,0.66582 0.260237,1.687841 -0.182804,2.351898 -0.519295,0.77835 -1.166248,1.017494 -3.177189,1.174438 -4.711498,0.367709 -9.111646,1.914348 -12.710482,4.467692 -1.265414,0.897802 -3.302072,2.955758 -4.251501,4.29596 -1.382485,1.951501 -2.497243,4.461118 -3.123494,7.031824 -0.285719,1.172851 -0.668765,3.469752 -0.591881,3.549162 0.02104,0.02173 0.443861,-0.351689 0.939603,-0.829824 3.705417,-3.573807 8.521724,-5.826827 14.316734,-6.697224 2.934271,-0.440722 6.713878,-0.439042 9.932024,0.0044 1.546816,0.213149 2.188286,0.48522 2.595766,1.100964 0.817844,1.235845 0.120271,3.315594 -1.29314,3.85538 -0.564105,0.215434 -0.934616,0.199315 -2.991048,-0.130129 -1.782696,-0.285591 -5.928429,-0.291192 -7.821879,-0.01056 -6.645068,0.984849 -11.620195,4.171279 -14.888155,9.535449 -1.134564,1.862324 -1.310144,2.322698 -1.313143,3.443089 -0.0029,1.100722 -0.206208,1.691693 -0.760683,2.21163 -0.685685,0.642975 -1.750508,0.843259 -2.577892,0.484879 z"
   id="path836" /></svg>
