<?xml version="1.0" encoding="utf-8"?>
<!-- Generator: Adobe Illustrator 18.0.0, SVG Export Plug-In . SVG Version: 6.00 Build 0)  -->
<!DOCTYPE svg PUBLIC "-//W3C//DTD SVG 1.1//EN" "http://www.w3.org/Graphics/SVG/1.1/DTD/svg11.dtd">
<svg version="1.1" id="Layer_1" xmlns="http://www.w3.org/2000/svg" xmlns:xlink="http://www.w3.org/1999/xlink" x="0px" y="0px"
	 viewBox="0 0 100 100" enable-background="new 0 0 100 100" xml:space="preserve">
<path fill="#FFFFFF" d="M24.4,24.7l4.4,3.2L28,34.7c-0.1,0.8,0.2,1.7,0.8,2.2c0.6,0.5,1.5,0.7,2.3,0.5l8.4-2.5c3.9,2.6,12,5.1,21,0
	l8.9,3.5c0.3,0.1,0.6,0.2,0.9,0.2c0.5,0,1-0.1,1.4-0.4c0.7-0.4,1.1-1.2,1.1-2l0.2-6.6l4.5-4.5c0.5-0.5,0.7-1.1,0.7-1.8
	c0-0.7-0.3-1.3-0.8-1.8l-4-3.7l-0.6-7.2c-0.1-0.8-0.5-1.5-1.2-2c-0.7-0.4-1.6-0.4-2.3-0.1l-5.6,2.6l-3.2-6.7
	c-0.3-0.6-0.8-1.1-1.5-1.3c-0.6-0.2-1.3-0.1-1.9,0.2l-6.6,3.5L43.3,3c-0.6-0.3-1.4-0.4-2.1-0.1c-0.7,0.3-1.2,0.8-1.5,1.5l-2,5.3
	l-6.3-2.2c-0.8-0.3-1.7-0.1-2.4,0.4c-0.7,0.5-1,1.3-0.9,2.2l0.7,7.6l-4.4,3.1c-0.7,0.5-1.1,1.2-1.1,2C23.4,23.4,23.8,24.2,24.4,24.7
	z M32.9,20.8c0.7-0.5,1.1-1.4,1.1-2.3l-0.5-5.2l5,1.7c1.3,0.4,2.7-0.2,3.2-1.5l1.8-4.9l5.9,3.2c0.7,0.4,1.6,0.4,2.3,0L57.2,9
	l3.2,6.6c0.6,1.2,2.1,1.7,3.3,1.2l4.5-2.1l0.4,4.6c0,0.6,0.3,1.2,0.8,1.6l2.8,2.6l-3.3,3.3c-0.4,0.4-0.7,1-0.7,1.7L68,32.5l-6.8-2.6
	c-0.7-0.3-1.5-0.2-2.2,0.2c-9.9,6.2-17,0.5-17.4,0.2c-0.6-0.5-1.5-0.7-2.3-0.5l-6,1.7l0.6-4.4c0.1-0.9-0.3-1.8-1-2.3l-2.8-2
	L32.9,20.8z M79.6,76.6c-0.2,0-16.2-3.6-26.5,7.3c2-19,21-19.3,21.8-19.3c1.4,0,2.5-1.1,2.5-2.5c0-1.4-1.1-2.5-2.5-2.5
	c-0.2,0-14.3,0.2-22,10.7V55.8c5.7-1.1,10-6.1,10-12.1v-1.9c0-1.4-1.1-2.5-2.5-2.5c-1.4,0-2.5,1.1-2.5,2.5v1.9
	c0,4.1-3.3,7.4-7.4,7.4c-4.1,0-7.4-3.3-7.4-7.4v-1.9c0-1.4-1.1-2.5-2.5-2.5c-1.4,0-2.5,1.1-2.5,2.5v1.9c0,5.9,4.1,10.8,9.6,12v20.3
	c-2.6-4.1-5.9-7.1-9.7-8.8c-8.5-3.9-16.5-0.2-16.9,0c-1.2,0.6-1.8,2.1-1.2,3.3c0.6,1.2,2.1,1.8,3.3,1.2c0.1,0,6.3-2.9,12.7,0
	c5.3,2.4,9.2,8,11.7,16.7v4.3c0,0,0,0,0,0v2c0,1.4,1.1,2.5,2.5,2.5c1.4,0,2.5-1.1,2.5-2.5v-1.4c7.1-15.7,24.7-11.9,25.5-11.7
	c1.3,0.3,2.7-0.5,3-1.9C81.7,78.3,80.9,76.9,79.6,76.6z"/>
</svg>
