<?xml version="1.0" encoding="utf-8"?>
<!-- Generator: Adobe Illustrator 18.0.0, SVG Export Plug-In . SVG Version: 6.00 Build 0)  -->
<!DOCTYPE svg PUBLIC "-//W3C//DTD SVG 1.1//EN" "http://www.w3.org/Graphics/SVG/1.1/DTD/svg11.dtd">
<svg version="1.1" id="Layer_1" xmlns="http://www.w3.org/2000/svg" xmlns:xlink="http://www.w3.org/1999/xlink" x="0px" y="0px"
	 viewBox="0 0 100 100" enable-background="new 0 0 100 100" xml:space="preserve">
<g>
	<path fill="#2C3136" d="M97.2,44.1c0-14.5-5.5-20.3-8.8-22.4c0.1-2.8-0.2-7.7-3.4-11.4c-2.6-3.1-6.5-4.7-11.5-4.7
		c-5.5,0-9.4,1.9-12.1,4.5c-9.6-8.3-22-8.9-30.5-5.6c-8,3.2-12.9,9.7-13.3,17.6C12.4,24.6,8,28.8,5.5,34.4
		c-4.2,9.2-2.8,20.3,3.6,28.4c-1.9,2.6-3.2,6-3.2,10.5c0,5,1.6,8.9,4.7,11.5c3.7,3.1,8.6,3.4,11.4,3.4C24,91.5,29.8,97,44.3,97
		c8.5,0,14.5-2.9,18.5-6.3c1.3,0.1,2.5,0.2,3.7,0.2c7.2,0,13.4-2.4,18-7c5.2-5.3,7.4-12.8,6.4-21.3C94.2,58.6,97.2,52.6,97.2,44.1z
		 M73.5,11.6c3.2,0,5.5,0.9,7,2.6c2.8,3.3,1.9,8.8,1.9,8.8c-0.2,1.4,0.7,2.8,2,3.3c0.3,0.1,6.9,2.6,6.9,17.9c0,8.7-3.7,14-7.1,17
		c0.7-2.7,1.1-5.4,1.1-8.3c0-2.4-0.3-4.7-0.8-6.9c0.3-0.3,0.5-0.6,0.6-1l2.9-8.8c0.5-1.5-0.3-3.2-1.9-3.7c-1.6-0.5-3.2,0.3-3.7,1.9
		l-1.1,3.2c-1.9-3.6-4.5-6.8-7.6-9.4l2.5-10c0.4-1.6-0.6-3.2-2.1-3.6c-1.6-0.4-3.2,0.6-3.6,2.1l-2,7.8c-2.1-1.2-4.4-2.1-6.7-2.8
		C62.5,18.4,64.7,11.6,73.5,11.6z M53,79.3c-11.6,0-21.4-7.5-25-17.9c0.9-0.5,1.5-1.4,1.5-2.5c0-3.8,1.5-5.9,2.9-5.9
		c1.6,0,2.9-1.3,2.9-2.9c0-1.6-1.3-2.9-2.9-2.9c-2.1,0-4.1,0.9-5.7,2.7c1.2-10.4,8.5-19,18.2-22.1c-0.4,1.4-0.7,2.9-0.7,4.7
		c0,1.6,1.3,2.9,2.9,2.9c1.6,0,2.9-1.3,2.9-2.9c0-3.8,1.5-5.9,2.9-5.9c0.2,0,0.3-0.1,0.5-0.1c14.3,0.3,25.9,12,25.9,26.4
		C79.4,67.4,67.5,79.3,53,79.3z M10.8,36.8c3-6.5,8.7-10.4,15.7-10.6c1.6-0.1,2.9-1.4,2.8-3c-0.1-1.6-1.4-2.9-3-2.8
		c-0.9,0-1.7,0.1-2.6,0.3c0.9-4.7,4.2-8.5,9.3-10.5c6.7-2.7,17-2.1,24.9,4.9c-1,1.9-1.5,3.9-1.9,5.7c-1-0.1-2.1-0.2-3.1-0.2
		c-2.2,0-4.4,0.2-6.5,0.7L44,13.8c-0.5-1.5-2.2-2.4-3.7-1.9c-1.5,0.5-2.4,2.2-1.9,3.7l2.4,7.2c-8.1,3.3-14.6,9.8-17.9,17.9l-7.2-2.4
		c-1.5-0.5-3.2,0.3-3.7,1.9c-0.5,1.5,0.3,3.2,1.9,3.7l7.4,2.5c-0.4,2.1-0.6,4.2-0.6,6.4c0,1.1,0.1,2.1,0.2,3.1
		c-2.3,0.4-5,1.3-7.4,2.9C8.6,52.4,7.6,43.9,10.8,36.8z M26.4,84.3c-0.4-1.4-1.9-2.3-3.3-2.1c-0.1,0-5.5,0.9-8.8-1.9
		c-1.7-1.5-2.6-3.8-2.6-7c0-8.8,6.8-11.1,10.2-11.7c0.7,2.4,1.6,4.7,2.9,6.9L17,70.5c-1.6,0.4-2.5,2-2.1,3.6
		c0.3,1.3,1.5,2.2,2.8,2.2c0.2,0,0.5,0,0.7-0.1l9.9-2.5c2.6,3,5.7,5.6,9.3,7.5l-3.2,1.1c-1.5,0.5-2.4,2.2-1.9,3.7
		c0.4,1.2,1.6,2,2.8,2c0.3,0,0.6,0,0.9-0.2l8.8-2.9c0.4-0.1,0.7-0.3,1-0.6c2.2,0.5,4.5,0.7,6.9,0.7c2.9,0,5.7-0.4,8.3-1.1
		c-3.1,3.4-8.4,7.1-17,7.1C29,91.1,26.5,84.5,26.4,84.3z M80.3,79.8c-3.1,3.1-7.4,4.9-12.4,5.2c1.7-2.5,2.4-4.4,2.5-4.6
		c0-0.1,0-0.3,0.1-0.4c3.8-2.5,7.1-5.8,9.6-9.6c0.1,0,0.3,0,0.4-0.1c0.2-0.1,2.2-0.8,4.7-2.5C85,72.5,83.3,76.7,80.3,79.8z"/>
	<path fill="#2C3136" d="M61.8,44.1c0-3.8,1.5-5.9,2.9-5.9c1.6,0,2.9-1.3,2.9-2.9c0-1.6-1.3-2.9-2.9-2.9c-4.4,0-8.8,4-8.8,11.8
		c0,1.6,1.3,2.9,2.9,2.9C60.5,47.1,61.8,45.7,61.8,44.1z"/>
	<path fill="#2C3136" d="M44.2,52.9c0-3.8,1.5-5.9,2.9-5.9c1.6,0,2.9-1.3,2.9-2.9c0-1.6-1.3-2.9-2.9-2.9c-4.4,0-8.8,4-8.8,11.8
		c0,1.6,1.3,2.9,2.9,2.9C42.9,55.9,44.2,54.6,44.2,52.9z"/>
	<path fill="#2C3136" d="M50.1,58.8c-4.4,0-8.8,4-8.8,11.8c0,1.6,1.3,2.9,2.9,2.9c1.6,0,2.9-1.3,2.9-2.9c0-3.8,1.5-5.9,2.9-5.9
		c1.6,0,2.9-1.3,2.9-2.9C53,60.1,51.7,58.8,50.1,58.8z"/>
	<path fill="#2C3136" d="M67.7,52.9c-4.4,0-8.8,4-8.8,11.8c0,1.6,1.3,2.9,2.9,2.9c1.6,0,2.9-1.3,2.9-2.9c0-3.8,1.5-5.9,2.9-5.9
		c1.6,0,2.9-1.3,2.9-2.9C70.6,54.2,69.3,52.9,67.7,52.9z"/>
</g>
</svg>
