<?xml version="1.0" encoding="UTF-8" standalone="no"?>
<svg
   xmlns:dc="http://purl.org/dc/elements/1.1/"
   xmlns:cc="http://creativecommons.org/ns#"
   xmlns:rdf="http://www.w3.org/1999/02/22-rdf-syntax-ns#"
   xmlns:svg="http://www.w3.org/2000/svg"
   xmlns="http://www.w3.org/2000/svg"
   xmlns:sodipodi="http://sodipodi.sourceforge.net/DTD/sodipodi-0.dtd"
   xmlns:inkscape="http://www.inkscape.org/namespaces/inkscape"
   version="1.1"
   id="Layer_1"
   x="0px"
   y="0px"
   viewBox="0 0 100 100"
   enable-background="new 0 0 100 100"
   xml:space="preserve"
   sodipodi:docname="Col (Repollo) color.svg"
   inkscape:version="1.0.1 (3bc2e813f5, 2020-09-07)"><metadata
   id="metadata19"><rdf:RDF><cc:Work
       rdf:about=""><dc:format>image/svg+xml</dc:format><dc:type
         rdf:resource="http://purl.org/dc/dcmitype/StillImage" /></cc:Work></rdf:RDF></metadata><defs
   id="defs17" /><sodipodi:namedview
   pagecolor="#ffffff"
   bordercolor="#666666"
   borderopacity="1"
   objecttolerance="10"
   gridtolerance="10"
   guidetolerance="10"
   inkscape:pageopacity="0"
   inkscape:pageshadow="2"
   inkscape:window-width="1920"
   inkscape:window-height="1017"
   id="namedview15"
   showgrid="false"
   inkscape:zoom="4.34"
   inkscape:cx="-4.6047209"
   inkscape:cy="57.955651"
   inkscape:window-x="-8"
   inkscape:window-y="-8"
   inkscape:window-maximized="1"
   inkscape:current-layer="Layer_1" />
<g
   id="g12"
   transform="translate(-107.14286,2.5345622)">
	<path
   fill="#2C3136"
   d="M 97.2,44.1 C 97.2,29.6 91.7,23.8 88.4,21.7 88.5,18.9 88.2,14 85,10.3 82.4,7.2 78.5,5.6 73.5,5.6 68,5.6 64.1,7.5 61.4,10.1 51.8,1.8 39.4,1.2 30.9,4.5 22.9,7.7 18,14.2 17.6,22.1 12.4,24.6 8,28.8 5.5,34.4 1.3,43.6 2.7,54.7 9.1,62.8 c -1.9,2.6 -3.2,6 -3.2,10.5 0,5 1.6,8.9 4.7,11.5 3.7,3.1 8.6,3.4 11.4,3.4 2,3.3 7.8,8.8 22.3,8.8 8.5,0 14.5,-2.9 18.5,-6.3 1.3,0.1 2.5,0.2 3.7,0.2 7.2,0 13.4,-2.4 18,-7 5.2,-5.3 7.4,-12.8 6.4,-21.3 3.3,-4 6.3,-10 6.3,-18.5 z M 73.5,11.6 c 3.2,0 5.5,0.9 7,2.6 2.8,3.3 1.9,8.8 1.9,8.8 -0.2,1.4 0.7,2.8 2,3.3 0.3,0.1 6.9,2.6 6.9,17.9 0,8.7 -3.7,14 -7.1,17 0.7,-2.7 1.1,-5.4 1.1,-8.3 0,-2.4 -0.3,-4.7 -0.8,-6.9 0.3,-0.3 0.5,-0.6 0.6,-1 L 88,36.2 C 88.5,34.7 87.7,33 86.1,32.5 84.5,32 82.9,32.8 82.4,34.4 l -1.1,3.2 C 79.4,34 76.8,30.8 73.7,28.2 l 2.5,-10 c 0.4,-1.6 -0.6,-3.2 -2.1,-3.6 -1.6,-0.4 -3.2,0.6 -3.6,2.1 l -2,7.8 C 66.4,23.3 64.1,22.4 61.8,21.7 62.5,18.4 64.7,11.6 73.5,11.6 Z M 53,79.3 c -11.6,0 -21.4,-7.5 -25,-17.9 0.9,-0.5 1.5,-1.4 1.5,-2.5 0,-3.8 1.5,-5.9 2.9,-5.9 1.6,0 2.9,-1.3 2.9,-2.9 0,-1.6 -1.3,-2.9 -2.9,-2.9 -2.1,0 -4.1,0.9 -5.7,2.7 1.2,-10.4 8.5,-19 18.2,-22.1 -0.4,1.4 -0.7,2.9 -0.7,4.7 0,1.6 1.3,2.9 2.9,2.9 1.6,0 2.9,-1.3 2.9,-2.9 0,-3.8 1.5,-5.9 2.9,-5.9 0.2,0 0.3,-0.1 0.5,-0.1 14.3,0.3 25.9,12 25.9,26.4 C 79.4,67.4 67.5,79.3 53,79.3 Z M 10.8,36.8 c 3,-6.5 8.7,-10.4 15.7,-10.6 1.6,-0.1 2.9,-1.4 2.8,-3 -0.1,-1.6 -1.4,-2.9 -3,-2.8 -0.9,0 -1.7,0.1 -2.6,0.3 0.9,-4.7 4.2,-8.5 9.3,-10.5 6.7,-2.7 17,-2.1 24.9,4.9 -1,1.9 -1.5,3.9 -1.9,5.7 -1,-0.1 -2.1,-0.2 -3.1,-0.2 -2.2,0 -4.4,0.2 -6.5,0.7 L 44,13.8 c -0.5,-1.5 -2.2,-2.4 -3.7,-1.9 -1.5,0.5 -2.4,2.2 -1.9,3.7 l 2.4,7.2 c -8.1,3.3 -14.6,9.8 -17.9,17.9 l -7.2,-2.4 c -1.5,-0.5 -3.2,0.3 -3.7,1.9 -0.5,1.5 0.3,3.2 1.9,3.7 l 7.4,2.5 c -0.4,2.1 -0.6,4.2 -0.6,6.4 0,1.1 0.1,2.1 0.2,3.1 -2.3,0.4 -5,1.3 -7.4,2.9 C 8.6,52.4 7.6,43.9 10.8,36.8 Z M 26.4,84.3 C 26,82.9 24.5,82 23.1,82.2 c -0.1,0 -5.5,0.9 -8.8,-1.9 -1.7,-1.5 -2.6,-3.8 -2.6,-7 0,-8.8 6.8,-11.1 10.2,-11.7 0.7,2.4 1.6,4.7 2.9,6.9 l -7.8,2 c -1.6,0.4 -2.5,2 -2.1,3.6 0.3,1.3 1.5,2.2 2.8,2.2 0.2,0 0.5,0 0.7,-0.1 l 9.9,-2.5 c 2.6,3 5.7,5.6 9.3,7.5 l -3.2,1.1 c -1.5,0.5 -2.4,2.2 -1.9,3.7 0.4,1.2 1.6,2 2.8,2 0.3,0 0.6,0 0.9,-0.2 L 45,84.9 c 0.4,-0.1 0.7,-0.3 1,-0.6 2.2,0.5 4.5,0.7 6.9,0.7 2.9,0 5.7,-0.4 8.3,-1.1 C 58.1,87.3 52.8,91 44.2,91 29,91.1 26.5,84.5 26.4,84.3 Z m 53.9,-4.5 c -3.1,3.1 -7.4,4.9 -12.4,5.2 1.7,-2.5 2.4,-4.4 2.5,-4.6 0,-0.1 0,-0.3 0.1,-0.4 3.8,-2.5 7.1,-5.8 9.6,-9.6 0.1,0 0.3,0 0.4,-0.1 0.2,-0.1 2.2,-0.8 4.7,-2.5 -0.2,4.7 -1.9,8.9 -4.9,12 z"
   id="path2" />
	<path
   fill="#2C3136"
   d="m 61.8,44.1 c 0,-3.8 1.5,-5.9 2.9,-5.9 1.6,0 2.9,-1.3 2.9,-2.9 0,-1.6 -1.3,-2.9 -2.9,-2.9 -4.4,0 -8.8,4 -8.8,11.8 0,1.6 1.3,2.9 2.9,2.9 1.7,0 3,-1.4 3,-3 z"
   id="path4" />
	<path
   fill="#2C3136"
   d="m 44.2,52.9 c 0,-3.8 1.5,-5.9 2.9,-5.9 1.6,0 2.9,-1.3 2.9,-2.9 0,-1.6 -1.3,-2.9 -2.9,-2.9 -4.4,0 -8.8,4 -8.8,11.8 0,1.6 1.3,2.9 2.9,2.9 1.7,0 3,-1.3 3,-3 z"
   id="path6" />
	<path
   fill="#2C3136"
   d="m 50.1,58.8 c -4.4,0 -8.8,4 -8.8,11.8 0,1.6 1.3,2.9 2.9,2.9 1.6,0 2.9,-1.3 2.9,-2.9 0,-3.8 1.5,-5.9 2.9,-5.9 1.6,0 2.9,-1.3 2.9,-2.9 0.1,-1.7 -1.2,-3 -2.8,-3 z"
   id="path8" />
	<path
   fill="#2C3136"
   d="m 67.7,52.9 c -4.4,0 -8.8,4 -8.8,11.8 0,1.6 1.3,2.9 2.9,2.9 1.6,0 2.9,-1.3 2.9,-2.9 0,-3.8 1.5,-5.9 2.9,-5.9 1.6,0 2.9,-1.3 2.9,-2.9 0.1,-1.7 -1.2,-3 -2.8,-3 z"
   id="path10" />
</g>
<path
   style="fill:#aa0088;stroke:#000000;stroke-width:0.230778"
   d="M 40.405511,97.309321 C 34.061815,96.562102 30.04591,95.371111 26.80338,93.275362 25.12675,92.191706 23.296176,90.520104 22.661502,89.49318 22.220664,88.77989 22.124265,88.742982 20.301397,88.589588 13.892208,88.050261 9.6883703,85.618369 7.5769763,81.2286 c -1.228845,-2.554874 -1.567333,-4.484892 -1.439299,-8.206719 0.122371,-3.557217 0.708137,-5.803443 2.121079,-8.133659 0.445692,-0.735032 0.81035,-1.429949 0.81035,-1.54426 0,-0.114309 -0.454267,-0.860846 -1.009483,-1.658968 C 4.9549363,57.222003 3.2885689,51.819512 3.2791888,46.186459 3.263181,36.573358 8.0771803,28.08825 16.096755,23.594343 c 1.43141,-0.802115 1.728111,-1.158775 1.728111,-2.077339 0,-1.337829 0.907916,-4.352106 1.941098,-6.444432 C 24.352646,5.7839464 36.4612,1.2429104 48.61758,4.2524342 c 4.339862,1.0744085 8.151143,2.9273092 11.551111,5.6157141 l 1.214795,0.9605547 1.089352,-0.9012097 c 2.338661,-1.9347467 5.04577,-3.0364107 8.594818,-3.4976812 5.275643,-0.6856761 10.005295,0.7270067 13.155873,3.9294789 2.480367,2.521224 3.667505,5.48071 4.01644,10.01282 l 0.159659,2.073733 1.116533,0.866289 c 2.119168,1.644209 4.119447,4.627259 5.44477,8.119886 1.8815,4.958314 2.58486,12.776774 1.66175,18.471848 -0.61872,3.817173 -2.392271,8.246546 -4.58187,11.443044 l -1.13157,1.651928 -0.110707,4.493088 c -0.09687,3.931433 -0.185834,4.761138 -0.711723,6.637424 -1.135722,4.052076 -2.790097,7.006917 -5.555871,9.923212 -2.726189,2.874555 -6.067374,4.9085 -10.024047,6.102138 -2.823735,0.851855 -4.512619,1.066242 -8.415071,1.068205 l -3.461157,0.0018 -1.517239,1.106126 c -4.518798,3.294374 -9.52744,4.835415 -16.214827,4.988917 -2.02765,0.04654 -4.04954,0.04188 -4.493088,-0.01037 z m 7.051127,-5.856406 c 3.427878,-0.42982 6.343781,-1.41244 9.165166,-3.088539 1.555746,-0.924221 4.747481,-3.666659 4.521034,-3.884615 -0.06336,-0.06099 -1.048387,0.0941 -2.18894,0.344641 -2.591972,0.569366 -8.800684,0.686693 -11.355332,0.214583 -1.0872,-0.20092 -1.776702,-0.232083 -1.958525,-0.08852 -0.331952,0.262106 -10.047113,3.509203 -10.499366,3.509203 -0.170874,0 -0.677325,-0.173984 -1.125447,-0.386631 -1.081837,-0.513367 -1.762127,-1.959715 -1.443805,-3.069639 0.34933,-1.218037 1.082689,-1.792096 3.149111,-2.465053 1.056,-0.343901 1.915647,-0.681668 1.910327,-0.750594 -0.0053,-0.06892 -1.058463,-0.799281 -2.340318,-1.623014 -1.347145,-0.865687 -3.338576,-2.458124 -4.719177,-3.773666 l -2.388528,-2.27597 -5.024642,1.296707 c -2.763554,0.713189 -5.275549,1.296321 -5.582212,1.295846 -0.884567,-0.0014 -2.050015,-0.851954 -2.437285,-1.77882 -0.284398,-0.680662 -0.303569,-1.017221 -0.09718,-1.706085 0.418864,-1.398044 1.247497,-1.891904 4.545966,-2.709369 1.628486,-0.40359 3.493465,-0.885092 4.144396,-1.070005 l 1.183512,-0.336207 -0.891972,-1.775523 c -0.490584,-0.976537 -1.161238,-2.584058 -1.490342,-3.572267 -0.576495,-1.731058 -0.620847,-1.791503 -1.213199,-1.653411 -5.0656,1.180929 -8.25118,4.005609 -9.372509,8.310682 -0.500152,1.920212 -0.446388,5.219623 0.114652,7.03606 1.210245,3.918318 3.94098,5.477005 9.595418,5.477005 2.672478,0 2.848869,0.02926 3.505068,0.581415 0.380034,0.319776 0.913978,1.042085 1.186542,1.605129 1.124496,2.322894 4.511761,4.490479 8.662703,5.543451 3.738719,0.948404 8.690221,1.264 12.444885,0.793205 z m 24.746108,-6.483808 c 6.319855,-1.598281 10.863698,-6.10912 12.406813,-12.316698 0.5103,-2.052814 0.838042,-4.469238 0.606166,-4.469238 -0.0846,0 -0.440389,0.204053 -0.790638,0.453454 -0.350249,0.249399 -1.503719,0.872678 -2.563267,1.385062 -1.710321,0.827092 -2.055701,1.105811 -3.078507,2.484334 -1.535074,2.06895 -4.948615,5.464911 -6.844896,6.809643 -1.159176,0.822021 -1.625348,1.32041 -1.917109,2.049588 -0.212025,0.529901 -0.792961,1.661129 -1.29097,2.513839 -0.498009,0.852709 -0.905472,1.617516 -0.905472,1.699571 0,0.223035 2.415624,-0.113304 4.37788,-0.609555 z M 57.367407,79.577653 c 4.177115,-0.728429 7.872936,-2.305113 11.263122,-4.804991 5.493855,-4.051097 9.196229,-10.03327 10.3423,-16.71074 1.420629,-8.277166 -1.117701,-16.710896 -6.856148,-22.779912 -4.249986,-4.494813 -10.116186,-7.435035 -16.27597,-8.157742 -2.801965,-0.328744 -3.683085,-0.164074 -4.57841,0.855643 -0.791149,0.901071 -1.121898,1.933615 -1.392606,4.347518 -0.103159,0.919864 -0.300543,1.883592 -0.438636,2.14162 -0.38699,0.723099 -1.413691,1.288484 -2.339806,1.288484 -2.40806,0 -3.313972,-2.207005 -2.43677,-5.936516 0.178597,-0.759325 0.287381,-1.417929 0.241742,-1.463569 -0.163885,-0.163883 -2.365686,0.681389 -4.144428,1.591046 -7.257182,3.711362 -12.403134,10.652928 -13.958595,18.829274 -0.151417,0.795922 -0.212827,1.509606 -0.13647,1.585963 0.07636,0.07636 0.508099,-0.185389 0.959429,-0.581661 1.867306,-1.639516 4.534115,-2.331072 5.982108,-1.551277 2.435903,1.311821 1.731154,4.64627 -1.093541,5.17398 -0.606099,0.113232 -1.296049,0.381488 -1.533219,0.596124 -0.730007,0.660647 -1.349493,2.453654 -1.583491,4.583168 -0.187378,1.705231 -0.320569,2.13524 -0.824198,2.660917 -0.330387,0.34485 -0.600705,0.794321 -0.600705,0.998825 0,0.795525 2.612829,5.534553 4.143156,7.514657 4.068724,5.264567 10.412894,8.979901 16.939793,9.920445 2.266703,0.326638 6.137728,0.279534 8.321343,-0.101256 z M 84.638903,61.504485 c 0.890094,-0.476367 3.340212,-3.86833 4.414101,-6.110927 1.789454,-3.736898 2.150866,-5.591327 2.155182,-11.058313 0.004,-5.037138 -0.217403,-6.788707 -1.281601,-10.140124 C 88.816893,30.700434 87.064317,28.241853 84.735052,26.91224 82.7107,25.756681 82.705732,25.745065 82.543453,21.788712 82.37714,17.734005 81.97649,16.34645 80.481677,14.648252 78.353783,12.230838 73.942995,11.384425 69.675119,12.574519 c -2.600714,0.725206 -4.463076,2.129787 -6.037864,4.553719 -0.833647,1.283157 -2.185912,4.896464 -1.92873,5.153646 0.06467,0.06467 0.715576,0.318112 1.446456,0.563201 0.730878,0.245089 2.202986,0.853759 3.271348,1.3526 1.068364,0.498841 2.014136,0.827181 2.101717,0.729645 0.08758,-0.09754 0.597799,-1.888168 1.13382,-3.979182 0.536021,-2.091014 1.140993,-4.085306 1.344382,-4.431761 0.408406,-0.695679 1.545401,-1.32908 2.383394,-1.327746 1.227182,0.002 2.730155,1.519287 2.730155,2.756244 0,0.261714 -0.585855,2.817855 -1.301901,5.680313 l -1.301899,5.204469 1.114373,0.952536 c 1.496648,1.279298 4.398475,4.813208 5.502632,6.701229 0.492643,0.842382 0.974852,1.580513 1.071576,1.640292 0.09672,0.05978 0.450521,-0.716039 0.786216,-1.724039 0.72954,-2.190608 1.255558,-2.919357 2.319208,-3.213046 1.803673,-0.498018 3.560947,0.780099 3.560947,2.589979 0,0.891141 -2.53291,8.992049 -3.203069,10.244251 -0.212,0.396127 -0.193749,1.030728 0.08331,2.896611 0.576328,3.881373 0.342434,9.076157 -0.543237,12.06523 -0.241613,0.815429 -0.203645,0.861399 0.430952,0.521775 z M 15.226696,58.52868 c 1.750563,-0.878087 4.57348,-1.866435 5.329814,-1.866055 0.333945,1.68e-4 0.378955,-0.38982 0.378955,-3.28341 0,-1.805982 0.08711,-4.023604 0.193579,-4.928051 l 0.193579,-1.644447 -3.995422,-1.331322 c -4.216108,-1.404855 -5.072868,-1.925814 -5.323517,-3.236998 -0.31088,-1.626267 0.996021,-3.317899 2.563302,-3.317899 0.469826,0 2.536144,0.562964 4.591819,1.25103 l 3.737591,1.251033 0.918174,-1.923765 c 3.069123,-6.430443 8.820637,-12.164844 15.266056,-15.220636 0.982143,-0.465637 1.785714,-0.9164 1.785714,-1.001694 0,-0.0853 -0.570276,-1.858844 -1.267281,-3.941221 -0.697004,-2.082377 -1.266894,-3.997046 -1.266419,-4.254821 0.0014,-0.761284 0.858896,-1.944314 1.700039,-2.345427 0.97803,-0.466391 2.11741,-0.284528 2.928341,0.467408 0.695629,0.645025 0.769459,0.822592 2.201044,5.293774 l 1.096173,3.423607 1.048292,-0.152033 c 2.993422,-0.434132 5.152954,-0.573888 6.849222,-0.443252 l 1.88388,0.145084 0.255007,-1.009566 c 0.140251,-0.555262 0.516813,-1.735373 0.836802,-2.62247 0.319988,-0.887097 0.637912,-1.787349 0.706497,-2.000562 0.179155,-0.556945 -2.446122,-2.445132 -5.566067,-4.0033 -8.594106,-4.2920825 -19.319794,-3.2477708 -25.001887,2.43432 -1.527129,1.527131 -2.382991,2.884389 -3.148218,4.992565 -0.660525,1.819725 -0.682255,2.225711 -0.109399,2.043893 0.931093,-0.295517 3.264633,-0.175541 3.833336,0.197087 1.347293,0.88278 1.633355,3.046983 0.554532,4.195336 -0.597124,0.63561 -1.501225,0.904693 -3.737402,1.112343 -3.844447,0.356993 -7.147329,1.997454 -10.187482,5.059869 -2.383055,2.400504 -3.782461,4.800707 -4.8583757,8.332882 -0.566462,1.859668 -0.628865,2.417291 -0.643045,5.746166 -0.01691,3.968761 0.257079,5.445542 1.6165497,8.713284 0.548073,1.317396 2.539131,4.765979 2.751664,4.765979 0.05106,0 0.899107,-0.404429 1.884553,-0.898731 z"
   id="path854" /><path
   style="fill:#aa0088;stroke:#000000;stroke-width:0.230778"
   d="m 56.892975,46.112333 c -0.758547,-0.758547 -0.78341,-0.841107 -0.78341,-2.60136 0,-4.485476 2.211587,-8.656887 5.414746,-10.213086 0.762674,-0.370532 1.679648,-0.590266 2.712951,-0.650103 1.545917,-0.08952 1.568552,-0.08225 2.361751,0.758786 0.671325,0.711812 0.800874,1.01797 0.800874,1.892676 0,0.875898 -0.123647,1.167149 -0.769828,1.81333 -0.423406,0.423406 -1.071447,0.831604 -1.440092,0.907108 -1.445646,0.29609 -1.827228,0.500416 -2.331234,1.24831 -0.661118,0.981034 -0.951821,2.019387 -1.135629,4.05632 -0.228247,2.529399 -1.126883,3.571429 -3.079966,3.571429 -0.792225,0 -1.108182,-0.141429 -1.750163,-0.78341 z"
   id="path856" /><path
   style="fill:#aa0088;stroke:#000000;stroke-width:0.230778"
   d="m 40.532483,55.615784 c -0.980676,-0.261165 -1.892424,-1.234116 -2.076632,-2.216033 -0.245732,-1.309862 0.496309,-5.177661 1.327447,-6.919153 0.862815,-1.807866 2.607913,-3.643994 4.186693,-4.405084 0.630373,-0.303886 1.732093,-0.584747 2.551901,-0.650553 1.369136,-0.109901 1.485395,-0.07825 2.282204,0.62136 1.04049,0.913562 1.311273,2.017814 0.772076,3.148522 -0.438491,0.919526 -1.603184,1.698823 -2.540783,1.700039 -1.460439,0.0019 -2.907391,2.681685 -2.907391,5.384562 0,2.294325 -1.674337,3.84797 -3.595515,3.33634 z"
   id="path858" /><path
   style="fill:#aa0088;stroke:#000000;stroke-width:0.230778"
   d="m 42.789248,72.926703 c -0.85119,-0.518957 -1.430339,-1.666186 -1.418188,-2.809274 0.03266,-3.072654 1.490504,-6.923362 3.31341,-8.751954 2.898372,-2.907412 7.017986,-3.213131 7.898471,-0.586149 0.569548,1.699285 -0.626356,3.548908 -2.453018,3.793915 -1.828598,0.245266 -2.770556,1.833861 -3.127927,5.275194 -0.194549,1.873429 -0.625995,2.718555 -1.631416,3.195659 -0.989546,0.46957 -1.669304,0.438657 -2.581332,-0.117391 z"
   id="path860" /><path
   style="fill:#aa0088;stroke:#000000;stroke-width:0.230778"
   d="M 60.462853,67.057746 C 59.42768,66.4951 59.104956,65.741702 59.104956,63.887743 c 0,-5.691227 3.533025,-10.444351 7.975628,-10.729939 1.628624,-0.104694 2.231754,0.144428 2.865334,1.18352 1.095368,1.796441 0.04962,3.838466 -2.20547,4.306622 -0.665875,0.138235 -1.373847,0.431632 -1.573272,0.651994 -0.701557,0.775212 -1.331289,2.604879 -1.46296,4.250587 -0.149766,1.871862 -0.472756,2.670644 -1.363057,3.370954 -0.71205,0.560099 -1.987436,0.620478 -2.878306,0.136265 z"
   id="path862" /></svg>
