<?xml version="1.0" encoding="UTF-8" standalone="no"?>
<svg
   xmlns:dc="http://purl.org/dc/elements/1.1/"
   xmlns:cc="http://creativecommons.org/ns#"
   xmlns:rdf="http://www.w3.org/1999/02/22-rdf-syntax-ns#"
   xmlns:svg="http://www.w3.org/2000/svg"
   xmlns="http://www.w3.org/2000/svg"
   xmlns:sodipodi="http://sodipodi.sourceforge.net/DTD/sodipodi-0.dtd"
   xmlns:inkscape="http://www.inkscape.org/namespaces/inkscape"
   version="1.1"
   id="Layer_1"
   x="0px"
   y="0px"
   viewBox="0 0 100 100"
   enable-background="new 0 0 100 100"
   xml:space="preserve"
   sodipodi:docname="Crisantemo color.svg"
   inkscape:version="1.0.1 (3bc2e813f5, 2020-09-07)"><metadata
   id="metadata25"><rdf:RDF><cc:Work
       rdf:about=""><dc:format>image/svg+xml</dc:format><dc:type
         rdf:resource="http://purl.org/dc/dcmitype/StillImage" /><dc:title></dc:title></cc:Work></rdf:RDF></metadata><defs
   id="defs23" /><sodipodi:namedview
   pagecolor="#ffffff"
   bordercolor="#666666"
   borderopacity="1"
   objecttolerance="10"
   gridtolerance="10"
   guidetolerance="10"
   inkscape:pageopacity="0"
   inkscape:pageshadow="2"
   inkscape:window-width="1920"
   inkscape:window-height="1017"
   id="namedview21"
   showgrid="false"
   inkscape:zoom="8.5"
   inkscape:cx="34.278824"
   inkscape:cy="50"
   inkscape:window-x="-8"
   inkscape:window-y="-8"
   inkscape:window-maximized="1"
   inkscape:current-layer="Layer_1" />
<g
   id="g18"
   transform="translate(-84,0.35294118)">
	<g
   id="g6">
		<path
   fill="#2c3136"
   d="m 51.8,35 c -0.7,0 -1.3,-0.1 -2,-0.2 -4.1,-0.8 -7.4,-4 -8.1,-8.1 -0.6,-3.1 0.2,-6.2 2.2,-8.6 2.4,-2.9 6.2,-4.3 10,-3.6 4.1,0.8 7.4,4 8.1,8.1 0.6,3.1 -0.2,6.2 -2.2,8.6 -2,2.4 -4.9,3.8 -8,3.8 z m 0,-16.1 c -1.7,0 -3.4,0.8 -4.5,2.1 -1.1,1.4 -1.6,3.1 -1.2,4.9 0.4,2.3 2.3,4.1 4.5,4.5 2.2,0.4 4.3,-0.4 5.6,-2 1.1,-1.4 1.6,-3.1 1.2,-4.9 C 57,21.2 55.1,19.4 52.9,19 52.6,18.9 52.2,18.9 51.8,18.9 Z"
   id="path2" />
		<path
   fill="#2c3136"
   d="m 57.6,46.9 c -1.4,0 -2.7,-0.6 -3.8,-1.2 -0.7,-0.3 -1.6,-0.8 -2,-0.8 -0.4,0 -1.3,0.4 -2,0.8 -1.5,0.7 -3.5,1.5 -5.2,1 -2,-0.6 -2.9,-2.4 -3.7,-3.9 -0.3,-0.6 -0.8,-1.5 -1.1,-1.7 -0.3,-0.2 -1.3,-0.4 -2,-0.5 -1.6,-0.3 -3.6,-0.7 -4.8,-2.3 -1.2,-1.6 -0.9,-3.6 -0.7,-5.3 0.1,-0.8 0.2,-1.7 0.1,-2.1 -0.1,-0.3 -0.8,-1 -1.2,-1.5 -1.2,-1.2 -2.6,-2.7 -2.6,-4.8 0,-2.1 1.4,-3.6 2.6,-4.8 0.5,-0.5 1.1,-1.2 1.2,-1.5 0.1,-0.4 0,-1.3 -0.1,-2.1 -0.2,-1.6 -0.5,-3.6 0.7,-5.3 1.2,-1.7 3.2,-2 4.8,-2.3 0.7,-0.1 1.7,-0.3 2,-0.5 0.3,-0.2 0.8,-1.1 1.1,-1.7 0.8,-1.5 1.7,-3.3 3.7,-3.9 1.7,-0.5 3.7,0.2 5.2,1 0.7,0.3 1.6,0.8 2,0.8 0.4,0 1.3,-0.4 2,-0.8 1.5,-0.7 3.5,-1.5 5.2,-1 2,0.6 2.9,2.5 3.7,3.9 0.3,0.8 0.8,1.6 1.1,1.8 0.3,0.2 1.3,0.4 2,0.5 1.6,0.3 3.6,0.7 4.8,2.3 1.2,1.6 0.9,3.7 0.7,5.3 -0.1,0.7 -0.2,1.7 -0.1,2.1 0.1,0.3 0.8,1 1.2,1.5 1.2,1.2 2.6,2.7 2.6,4.8 0,2.1 -1.4,3.6 -2.6,4.8 -0.5,0.5 -1.1,1.2 -1.2,1.5 -0.1,0.4 0,1.3 0.1,2.1 0.2,1.6 0.5,3.6 -0.7,5.3 -1.2,1.7 -3.2,2 -4.8,2.3 -0.7,0.1 -1.7,0.3 -2,0.5 -0.3,0.2 -0.8,1.1 -1.1,1.7 -0.8,1.5 -1.7,3.3 -3.7,3.9 -0.5,0.1 -0.9,0.1 -1.4,0.1 z m -5.8,-6.4 c 1.5,0 2.8,0.6 3.9,1.2 0.6,0.3 1.5,0.7 1.9,0.7 v 2.3 -2.3 c 0.2,-0.1 0.8,-1.1 1.1,-1.7 0.6,-1.1 1.3,-2.4 2.4,-3.2 1.1,-0.8 2.6,-1.1 3.8,-1.3 0.7,-0.1 1.7,-0.3 2,-0.5 0.1,-0.3 0,-1.3 -0.1,-2 -0.2,-1.3 -0.4,-2.7 0.1,-4.1 0.4,-1.3 1.4,-2.3 2.3,-3.2 0.4,-0.5 1.3,-1.3 1.3,-1.7 0,-0.3 -0.9,-1.2 -1.3,-1.6 -0.9,-0.9 -1.8,-1.9 -2.3,-3.2 -0.4,-1.4 -0.2,-2.8 -0.1,-4.1 0.1,-0.6 0.2,-1.7 0.1,-2 -0.2,-0.2 -1.3,-0.4 -2,-0.5 C 63.6,13.1 62.2,12.8 61.1,12 60,11 59.3,9.8 58.7,8.7 58.4,8.1 57.9,7.1 57.6,6.9 57.3,6.9 56.4,7.3 55.8,7.6 54.6,8.2 53.3,8.8 51.9,8.8 50.4,8.8 49.1,8.2 48,7.6 47.4,7.3 46.5,6.9 46.1,6.9 45.9,7 45.3,8 45,8.6 c -0.6,1.1 -1.3,2.4 -2.4,3.2 -1.1,0.8 -2.6,1.1 -3.8,1.3 -0.7,0.1 -1.7,0.3 -2,0.5 -0.1,0.3 0,1.3 0.1,2 0.2,1.3 0.4,2.7 -0.1,4.1 -0.4,1.3 -1.4,2.3 -2.3,3.2 -0.4,0.5 -1.3,1.3 -1.3,1.7 0,0.3 0.9,1.2 1.3,1.6 0.9,0.9 1.9,1.9 2.3,3.2 0.4,1.4 0.2,2.8 0.1,4.1 -0.1,0.6 -0.2,1.7 -0.1,2 0.2,0.2 1.3,0.4 2,0.5 1.3,0.2 2.7,0.5 3.8,1.3 1.1,0.8 1.8,2.1 2.4,3.2 0.3,0.6 0.8,1.6 1.1,1.7 0.3,0 1.2,-0.4 1.8,-0.7 1.1,-0.3 2.4,-1 3.9,-1 z"
   id="path4" />
	</g>
	<path
   fill="#2c3136"
   d="m 46.4,97.3 c -0.8,0 -1.6,-0.5 -2,-1.3 C 34.6,75.8 40.9,48.1 43,44 c 0.2,-0.4 0.7,-1.5 2,-1.7 1.2,-0.2 2.4,0.6 2.6,1.8 0.2,0.8 -0.1,1.5 -0.6,2 -1.6,3.2 -7.5,29.3 1.5,47.9 0.5,1.1 0.1,2.5 -1,3 -0.4,0.2 -0.8,0.3 -1.1,0.3 z"
   id="path8" />
	<path
   fill="#2c3136"
   d="m 42.1,76.3 c -0.1,0 -0.2,0 -0.2,0 -1.2,0 -2.2,-1.1 -2.2,-2.3 0,-1.2 1,-2.2 2.3,-2.2 0,0 0,0 0,0 0.5,0 10.3,-0.2 21.3,-12.6 0.8,-0.9 2.3,-1 3.2,-0.2 0.9,0.8 1,2.3 0.2,3.2 -12,13.6 -23,14.1 -24.6,14.1 z"
   id="path10" />
	<path
   fill="#2c3136"
   d="m 57.7,75.6 v 0 c -5,0 -8,-2.3 -8.3,-2.6 -0.6,-0.5 -0.9,-1.3 -0.8,-2 3,-23.3 23,-25.1 29,-25.1 1.2,0 1.9,0.1 1.9,0.1 1.1,0.1 2,1 2,2.2 0,0.6 0.4,14.4 -11.4,22.9 -4.2,2.9 -8.4,4.5 -12.4,4.5 z m -4.5,-5.5 c 0.9,0.4 2.4,1 4.4,1 3.1,0 6.4,-1.3 9.8,-3.7 7.4,-5.3 9.1,-13.3 9.5,-17 -6.6,0 -20.7,2.4 -23.7,19.7 z"
   id="path12" />
	<path
   fill="#2c3136"
   d="m 42,86.3 c -0.5,0 -0.9,-0.1 -1.4,-0.5 -10.5,-7.9 -15,-20.9 -15.2,-21.4 -0.4,-1.2 0.2,-2.5 1.4,-2.9 1.2,-0.4 2.5,0.2 2.9,1.4 0,0.1 4.3,12.2 13.7,19.3 1,0.7 1.2,2.2 0.4,3.2 -0.4,0.6 -1.1,0.9 -1.8,0.9 z"
   id="path14" />
	<path
   fill="#2c3136"
   d="m 34.5,77.7 c 0,0 -0.1,0 -0.1,0 C 29.3,77.4 25.2,75.3 22.2,71.5 14.6,62 17.4,45 17.5,44.3 c 0.1,-0.7 0.6,-1.3 1.2,-1.6 0.6,-0.3 1.4,-0.3 2,0 0.5,0.2 4.8,2.4 12.6,12 8.5,10.4 3.4,21.3 3.2,21.8 -0.4,0.7 -1.2,1.2 -2,1.2 z M 21.6,48.8 c -0.4,5.1 -0.3,14.4 4.1,20 1.8,2.3 4.2,3.7 7.3,4.2 0.9,-2.8 1.9,-9.2 -3.2,-15.5 -3.6,-4.4 -6.3,-7.1 -8.2,-8.7 z"
   id="path16" />
</g>
<path
   style="fill:#37c8ab;stroke:#ffffff;stroke-width:0.117647"
   d="M 46.353872,96.835734 C 45.536487,96.662663 45.074118,96.212096 44.520947,95.049587 43.455764,92.811071 42.426965,89.96061 41.6227,87.01951 L 41.236642,85.607745 40.17251,84.784216 c -1.50486,-1.164607 -4.633415,-4.313849 -6.076107,-6.116285 l -1.223071,-1.528048 -1.126529,-0.25522 C 28.687168,76.19149 26.205628,74.83712 24.025505,72.670547 21.687789,70.34736 20.218757,67.872781 19.029508,64.254804 17.706055,60.22855 17.085456,54.721549 17.367774,49.509101 c 0.143825,-2.655443 0.412192,-5.17896 0.618522,-5.816108 0.438406,-1.3538 1.919029,-1.832648 3.34587,-1.082086 2.671218,1.405142 7.428728,5.946891 11.739903,11.20748 2.868809,3.500582 4.319327,6.453273 5.098026,10.377594 0.161722,0.815014 0.209846,1.627712 0.208994,3.529412 -0.0012,2.782994 -0.152672,3.904357 -0.829901,6.145734 -0.219726,0.727213 -0.399503,1.373558 -0.399503,1.436326 0,0.125716 0.947733,1.27933 2.088236,2.541874 0.530043,0.586761 0.733936,0.748751 0.730428,0.580315 -0.0027,-0.128514 -0.08458,-0.974838 -0.182021,-1.88072 -0.247374,-2.299895 -0.350807,-9.677 -0.176021,-12.554289 0.408378,-6.72263 1.366469,-12.554269 3.021454,-18.390779 l 0.201261,-0.709773 -0.417827,-0.584345 C 42.18539,43.988348 41.69578,43.16951 41.327174,42.490098 c -1.021033,-1.881954 -1.016433,-1.8785 -3.001018,-2.253158 -3.124092,-0.58978 -4.508162,-1.367803 -5.302052,-2.980422 -0.476223,-0.967345 -0.585049,-2.09258 -0.385701,-3.988025 0.08246,-0.783999 0.151814,-1.745132 0.154129,-2.135851 l 0.0042,-0.710399 -0.970576,-1.090734 c -2.316744,-2.603525 -2.690641,-3.248925 -2.771182,-4.783455 -0.08875,-1.69084 0.429989,-2.803398 2.171283,-4.656847 0.511212,-0.544139 1.081666,-1.190074 1.267677,-1.435413 l 0.338201,-0.446069 -0.08894,-1.259814 c -0.04891,-0.692896 -0.123051,-1.630401 -0.164751,-2.083342 -0.199055,-2.162132 0.255546,-3.649288 1.448944,-4.7399856 0.82439,-0.7534465 1.710308,-1.1023176 3.967447,-1.5623659 0.987856,-0.2013441 1.930693,-0.4356799 2.095193,-0.5207461 0.171617,-0.088747 0.520299,-0.5479994 0.818113,-1.0775486 1.279543,-2.275178 1.499099,-2.6112738 2.15032,-3.291709 0.956237,-0.9991366 1.812666,-1.381256 3.091224,-1.3792381 1.182713,0.00187 1.906097,0.2118631 4.027005,1.1690296 0.920734,0.4155279 1.81749,0.7555053 1.99279,0.7555053 0.1753,0 0.930795,-0.2848761 1.678878,-0.6330581 3.02118,-1.4061548 4.548338,-1.6310572 6.070812,-0.8940401 1.110617,0.5376402 1.917072,1.5288138 3.203161,3.9368466 0.47547,0.8902524 0.797419,1.3544009 1.035193,1.4924183 0.189806,0.1101743 1.033338,0.3365223 1.874514,0.5029956 1.978114,0.3914792 2.844305,0.6852433 3.694465,1.2529585 0.7914,0.5284756 1.194142,1.0113076 1.620657,1.9429376 0.41049,0.896628 0.471944,2.113326 0.2198,4.351634 -0.245652,2.180668 -0.260595,2.135204 1.233474,3.75319 1.322028,1.431677 1.925513,2.330803 2.233341,3.327436 0.295495,0.956702 0.295495,1.682542 0,2.639245 -0.310098,1.00398 -0.920683,1.911563 -2.213295,3.289884 -1.531345,1.632882 -1.494109,1.526938 -1.268649,3.60948 0.232046,2.14338 0.234219,2.95856 0.01018,3.818707 -0.577577,2.21747 -1.893366,3.18553 -5.225107,3.844248 -0.99703,0.197122 -1.948551,0.423477 -2.114491,0.50301 -0.303233,0.145335 -0.797465,0.894953 -1.778609,2.697674 -0.725373,1.332774 -1.82083,2.439878 -2.764706,2.794099 -0.608348,0.228304 -0.860312,0.256777 -1.82353,0.206066 -1.26694,-0.0667 -1.676922,-0.196524 -3.985698,-1.262093 -1.833999,-0.846446 -1.727506,-0.846381 -3.544209,-0.0022 -0.686104,0.318833 -1.615202,0.693593 -2.064661,0.832801 -1.359793,0.421159 -1.271416,0.339996 -1.614733,1.482966 -1.047939,3.488813 -1.978612,8.878258 -2.435019,14.10099 -0.301556,3.450756 -0.450111,9.256834 -0.245135,9.580772 0.0923,0.145874 0.241014,0.14039 1.086434,-0.04007 1.187928,-0.253565 3.753991,-1.092023 3.930405,-1.284254 0.07006,-0.07634 0.265618,-0.853511 0.434571,-1.72704 1.775828,-9.181458 6.682464,-15.768528 14.521321,-19.494609 2.578277,-1.225546 6.261319,-2.26991 9.740254,-2.761954 0.603225,-0.08532 2.22313,-0.150926 3.764706,-0.152477 2.611962,-0.0026 2.722287,0.0067 3.178491,0.26825 0.259935,0.149035 0.604052,0.463457 0.764706,0.698712 0.281824,0.412695 0.291652,0.49212 0.279434,2.258436 -0.03462,5.005812 -1.891983,10.790022 -4.880209,15.19799 -1.81742,2.680897 -4.40848,5.234195 -7.165952,7.061513 -1.423683,0.943444 -4.566434,2.521686 -5.941176,2.983566 -4.01111,1.347636 -7.781034,1.315409 -11.297632,-0.09658 L 51.4,73.705882 50.71602,73.9869 c -1.383789,0.568536 -3.542633,1.226696 -4.975074,1.516733 -0.809265,0.163857 -1.493538,0.32007 -1.520607,0.34714 -0.02707,0.02707 0.04185,0.83051 0.153152,1.785424 0.661156,5.672346 1.99842,10.764524 3.97803,15.147973 0.640683,1.418662 0.751902,2.17722 0.414385,2.826283 -0.448713,0.862903 -1.529766,1.412043 -2.412033,1.225235 z M 28.456725,69.990098 c -0.843865,-1.589841 -2.155492,-4.521209 -2.55993,-5.721213 -0.264944,-0.786115 -0.279279,-0.923942 -0.151493,-1.456614 0.26199,-1.092095 1.400999,-1.871111 2.448463,-1.674607 1.046012,0.196233 1.404919,0.596158 2.123682,2.366392 1.255456,3.092051 3.350961,7.102578 3.587536,6.866081 0.227248,-0.227173 0.162766,-4.479123 -0.08538,-5.630009 -0.4785,-2.219245 -1.282896,-4.182417 -2.440389,-5.955912 -1.405134,-2.152927 -5.566909,-6.878726 -8.11188,-9.211241 l -1.352941,-1.239998 -0.07547,0.696208 c -0.123615,1.140395 -0.110161,5.218813 0.02255,6.836858 0.501904,6.119158 2.222482,10.823686 4.977286,13.609259 0.655141,0.662458 2.067193,1.794161 2.286284,1.832365 0.0188,0.0033 -0.281942,-0.589627 -0.668324,-1.317569 z m 30.928255,0.731539 c 4.02442,-0.520583 8.836485,-3.273686 12.022895,-6.878597 3.001205,-3.395384 5.238606,-8.468042 5.807147,-13.166022 l 0.08416,-0.695434 -1.473166,0.07466 c -9.305885,0.471645 -16.433736,4.838371 -20.047,12.281362 -0.580367,1.195505 -1.881731,4.821657 -1.770373,4.933014 0.08785,0.08785 2.77318,-1.857684 4.276404,-3.098268 0.831434,-0.686168 2.491109,-2.237727 3.688168,-3.447909 1.197059,-1.210181 2.282353,-2.25347 2.411765,-2.318417 1.515444,-0.760547 3.308316,0.573378 3.073477,2.286717 -0.0881,0.642754 -0.300565,0.935966 -2.009442,2.773125 -2.004238,2.15469 -4.959784,4.736602 -7.287225,6.36599 -0.679935,0.476006 -1.203461,0.898251 -1.16339,0.938321 0.107727,0.107729 1.37828,0.08188 2.38658,-0.04855 z M 58.174638,41.872451 c 0.133342,-0.145588 0.522182,-0.767647 0.864089,-1.382353 1.838453,-3.30531 2.679593,-3.915642 6.324962,-4.589403 1.985062,-0.366893 1.903772,-0.313042 1.902962,-1.260626 -3.53e-4,-0.438366 -0.05476,-1.114676 -0.120851,-1.502912 -0.06609,-0.388235 -0.121663,-1.208823 -0.123486,-1.823529 -0.006,-2.01661 0.489094,-3.038051 2.505495,-5.16936 0.577865,-0.610794 1.127852,-1.259803 1.222193,-1.442239 0.224834,-0.434779 0.124919,-0.617165 -0.953948,-1.741342 -2.551045,-2.658184 -2.928544,-3.614752 -2.664925,-6.752822 0.07665,-0.912418 0.138652,-1.928504 0.137783,-2.257968 -0.0016,-0.590486 -0.0079,-0.600857 -0.442756,-0.727548 -0.242647,-0.07069 -1.061707,-0.238063 -1.820134,-0.371944 -1.46347,-0.25834 -2.470932,-0.581837 -3.159958,-1.014668 C 61.119476,11.37931 60.156945,10.189893 59.353127,8.755169 58.927051,7.9946746 58.439229,7.168946 58.269075,6.9202168 57.889294,6.3650566 57.88352,6.3660088 55.841285,7.3205733 54.106542,8.131413 53.274088,8.3724518 52.208509,8.3724518 c -1.072721,0 -1.935758,-0.2488404 -3.647059,-1.051561 -0.808823,-0.3793952 -1.63694,-0.7244833 -1.840258,-0.7668626 -0.441096,-0.091941 -0.49632,-0.02618 -1.577931,1.8790087 -1.695874,2.9871711 -2.594544,3.6351981 -5.875929,4.2371111 -0.55,0.100888 -1.277941,0.261952 -1.617647,0.357919 l -0.617647,0.174487 v 0.560262 c 0,0.308144 0.0852,1.166959 0.189344,1.908478 0.222138,1.58172 0.165296,2.689194 -0.19117,3.72469 -0.300903,0.874094 -0.728254,1.466263 -2.321703,3.217131 -0.766297,0.841999 -1.205882,1.419835 -1.205882,1.585132 0,0.334178 0.263185,0.672821 1.658867,2.134464 0.863916,0.904747 1.251716,1.418276 1.594308,2.111196 l 0.452707,0.915641 v 1.65351 c 0,0.909431 -0.04713,2.216795 -0.104725,2.905253 -0.09776,1.168525 -0.08986,1.259694 0.118804,1.37137 0.12294,0.0658 0.942515,0.256874 1.821279,0.424617 1.766357,0.337176 2.719568,0.630503 3.461105,1.065073 0.70881,0.41539 1.682078,1.524017 2.283452,2.601026 1.615633,2.893459 1.412768,2.722396 2.628305,2.216288 0.403126,-0.167848 1.34178,-0.51731 2.085898,-0.776583 2.366195,-0.824454 3.778484,-0.742562 5.936109,0.344206 0.853618,0.429955 2.143382,0.956942 2.366913,0.967099 0.0696,0.0032 0.235648,-0.113367 0.368989,-0.258956 z"
   id="path850" /><path
   style="fill:#37c8ab;stroke:#ffffff;stroke-width:0.117647"
   d="m 49.968686,34.762986 c -1.934609,-0.366927 -3.691671,-1.253606 -5.119329,-2.583404 -1.094517,-1.019491 -1.676851,-1.80028 -2.26667,-3.039129 -1.560356,-3.277359 -1.285742,-7.12955 0.719847,-10.097771 1.488677,-2.203202 3.750873,-3.75896 6.419488,-4.41481 1.18713,-0.291754 3.462779,-0.261697 4.689743,0.06194 1.234542,0.325639 3.107679,1.26319 4.034879,2.019555 1.526672,1.245388 2.654756,2.96976 3.272515,5.002319 0.284768,0.93695 0.320936,1.247531 0.328139,2.817724 0.0069,1.499133 -0.03226,1.906344 -0.260042,2.705882 -0.5904,2.072355 -1.918924,4.086293 -3.555965,5.390565 -0.976212,0.777772 -2.869478,1.733132 -3.995997,2.016417 -1.093052,0.274871 -3.147367,0.332991 -4.266608,0.12071 z m 3.004232,-4.347607 c 0.894587,-0.189567 1.96319,-0.716479 2.656369,-1.309814 1.134798,-0.971344 1.925411,-2.752312 1.924721,-4.335709 -7.06e-4,-1.736942 -0.453066,-2.927163 -1.563495,-4.114215 -2.247512,-2.402597 -5.972856,-2.423475 -8.375397,-0.04694 -0.854236,0.84499 -1.473659,2.091053 -1.650838,3.320908 -0.25942,1.80072 0.406091,3.720269 1.730868,4.992386 1.459183,1.401178 3.28066,1.916577 5.277772,1.493381 z"
   id="path852" /></svg>
