<?xml version="1.0" encoding="utf-8"?>
<!-- Generator: Adobe Illustrator 18.0.0, SVG Export Plug-In . SVG Version: 6.00 Build 0)  -->
<!DOCTYPE svg PUBLIC "-//W3C//DTD SVG 1.1//EN" "http://www.w3.org/Graphics/SVG/1.1/DTD/svg11.dtd">
<svg version="1.1" id="Layer_1" xmlns="http://www.w3.org/2000/svg" xmlns:xlink="http://www.w3.org/1999/xlink" x="0px" y="0px"
	 viewBox="0 0 100 100" enable-background="new 0 0 100 100" xml:space="preserve">
<g>
	<g>
		<path fill="#FFFFFF" d="M51.8,35c-0.7,0-1.3-0.1-2-0.2c-4.1-0.8-7.4-4-8.1-8.1c-0.6-3.1,0.2-6.2,2.2-8.6c2.4-2.9,6.2-4.3,10-3.6
			c4.1,0.8,7.4,4,8.1,8.1c0.6,3.1-0.2,6.2-2.2,8.6C57.8,33.6,54.9,35,51.8,35z M51.8,18.9c-1.7,0-3.4,0.8-4.5,2.1
			c-1.1,1.4-1.6,3.1-1.2,4.9c0.4,2.3,2.3,4.1,4.5,4.5c2.2,0.4,4.3-0.4,5.6-2c1.1-1.4,1.6-3.1,1.2-4.9c-0.4-2.3-2.3-4.1-4.5-4.5
			C52.6,18.9,52.2,18.9,51.8,18.9z"/>
		<path fill="#FFFFFF" d="M57.6,46.9c-1.4,0-2.7-0.6-3.8-1.2c-0.7-0.3-1.6-0.8-2-0.8c-0.4,0-1.3,0.4-2,0.8c-1.5,0.7-3.5,1.5-5.2,1
			c-2-0.6-2.9-2.4-3.7-3.9c-0.3-0.6-0.8-1.5-1.1-1.7c-0.3-0.2-1.3-0.4-2-0.5c-1.6-0.3-3.6-0.7-4.8-2.3c-1.2-1.6-0.9-3.6-0.7-5.3
			c0.1-0.8,0.2-1.7,0.1-2.1c-0.1-0.3-0.8-1-1.2-1.5c-1.2-1.2-2.6-2.7-2.6-4.8c0-2.1,1.4-3.6,2.6-4.8c0.5-0.5,1.1-1.2,1.2-1.5
			c0.1-0.4,0-1.3-0.1-2.1c-0.2-1.6-0.5-3.6,0.7-5.3c1.2-1.7,3.2-2,4.8-2.3c0.7-0.1,1.7-0.3,2-0.5c0.3-0.2,0.8-1.1,1.1-1.7
			c0.8-1.5,1.7-3.3,3.7-3.9c1.7-0.5,3.7,0.2,5.2,1c0.7,0.3,1.6,0.8,2,0.8c0.4,0,1.3-0.4,2-0.8c1.5-0.7,3.5-1.5,5.2-1
			c2,0.6,2.9,2.5,3.7,3.9C63,7.2,63.5,8,63.8,8.2c0.3,0.2,1.3,0.4,2,0.5c1.6,0.3,3.6,0.7,4.8,2.3c1.2,1.6,0.9,3.7,0.7,5.3
			c-0.1,0.7-0.2,1.7-0.1,2.1c0.1,0.3,0.8,1,1.2,1.5c1.2,1.2,2.6,2.7,2.6,4.8c0,2.1-1.4,3.6-2.6,4.8c-0.5,0.5-1.1,1.2-1.2,1.5
			c-0.1,0.4,0,1.3,0.1,2.1c0.2,1.6,0.5,3.6-0.7,5.3c-1.2,1.7-3.2,2-4.8,2.3c-0.7,0.1-1.7,0.3-2,0.5c-0.3,0.2-0.8,1.1-1.1,1.7
			c-0.8,1.5-1.7,3.3-3.7,3.9C58.5,46.9,58.1,46.9,57.6,46.9z M51.8,40.5c1.5,0,2.8,0.6,3.9,1.2c0.6,0.3,1.5,0.7,1.9,0.7v2.3l0-2.3
			c0.2-0.1,0.8-1.1,1.1-1.7c0.6-1.1,1.3-2.4,2.4-3.2c1.1-0.8,2.6-1.1,3.8-1.3c0.7-0.1,1.7-0.3,2-0.5c0.1-0.3,0-1.3-0.1-2
			c-0.2-1.3-0.4-2.7,0.1-4.1c0.4-1.3,1.4-2.3,2.3-3.2c0.4-0.5,1.3-1.3,1.3-1.7c0-0.3-0.9-1.2-1.3-1.6c-0.9-0.9-1.8-1.9-2.3-3.2
			c-0.4-1.4-0.2-2.8-0.1-4.1c0.1-0.6,0.2-1.7,0.1-2c-0.2-0.2-1.3-0.4-2-0.5c-1.3-0.2-2.7-0.5-3.8-1.3C60,11,59.3,9.8,58.7,8.7
			c-0.3-0.6-0.8-1.6-1.1-1.8c-0.3,0-1.2,0.4-1.8,0.7c-1.2,0.6-2.5,1.2-3.9,1.2c-1.5,0-2.8-0.6-3.9-1.2c-0.6-0.3-1.5-0.7-1.9-0.7
			c-0.2,0.1-0.8,1.1-1.1,1.7c-0.6,1.1-1.3,2.4-2.4,3.2c-1.1,0.8-2.6,1.1-3.8,1.3c-0.7,0.1-1.7,0.3-2,0.5c-0.1,0.3,0,1.3,0.1,2
			c0.2,1.3,0.4,2.7-0.1,4.1c-0.4,1.3-1.4,2.3-2.3,3.2c-0.4,0.5-1.3,1.3-1.3,1.7c0,0.3,0.9,1.2,1.3,1.6c0.9,0.9,1.9,1.9,2.3,3.2
			c0.4,1.4,0.2,2.8,0.1,4.1c-0.1,0.6-0.2,1.7-0.1,2c0.2,0.2,1.3,0.4,2,0.5c1.3,0.2,2.7,0.5,3.8,1.3c1.1,0.8,1.8,2.1,2.4,3.2
			c0.3,0.6,0.8,1.6,1.1,1.7c0.3,0,1.2-0.4,1.8-0.7C49,41.2,50.3,40.5,51.8,40.5z"/>
	</g>
	<path fill="#FFFFFF" d="M46.4,97.3c-0.8,0-1.6-0.5-2-1.3c-9.8-20.2-3.5-47.9-1.4-52c0.2-0.4,0.7-1.5,2-1.7c1.2-0.2,2.4,0.6,2.6,1.8
		c0.2,0.8-0.1,1.5-0.6,2c-1.6,3.2-7.5,29.3,1.5,47.9c0.5,1.1,0.1,2.5-1,3C47.1,97.2,46.7,97.3,46.4,97.3z"/>
	<path fill="#FFFFFF" d="M42.1,76.3c-0.1,0-0.2,0-0.2,0c-1.2,0-2.2-1.1-2.2-2.3c0-1.2,1-2.2,2.3-2.2c0,0,0,0,0,0
		c0.5,0,10.3-0.2,21.3-12.6c0.8-0.9,2.3-1,3.2-0.2c0.9,0.8,1,2.3,0.2,3.2C54.7,75.8,43.7,76.3,42.1,76.3z"/>
	<path fill="#FFFFFF" d="M57.7,75.6L57.7,75.6c-5,0-8-2.3-8.3-2.6c-0.6-0.5-0.9-1.3-0.8-2c3-23.3,23-25.1,29-25.1
		c1.2,0,1.9,0.1,1.9,0.1c1.1,0.1,2,1,2,2.2c0,0.6,0.4,14.4-11.4,22.9C65.9,74,61.7,75.6,57.7,75.6z M53.2,70.1c0.9,0.4,2.4,1,4.4,1
		c3.1,0,6.4-1.3,9.8-3.7c7.4-5.3,9.1-13.3,9.5-17C70.3,50.4,56.2,52.8,53.2,70.1z"/>
	<path fill="#FFFFFF" d="M42,86.3c-0.5,0-0.9-0.1-1.4-0.5c-10.5-7.9-15-20.9-15.2-21.4c-0.4-1.2,0.2-2.5,1.4-2.9
		c1.2-0.4,2.5,0.2,2.9,1.4c0,0.1,4.3,12.2,13.7,19.3c1,0.7,1.2,2.2,0.4,3.2C43.4,86,42.7,86.3,42,86.3z"/>
	<path fill="#FFFFFF" d="M34.5,77.7c0,0-0.1,0-0.1,0c-5.1-0.3-9.2-2.4-12.2-6.2C14.6,62,17.4,45,17.5,44.3c0.1-0.7,0.6-1.3,1.2-1.6
		c0.6-0.3,1.4-0.3,2,0c0.5,0.2,4.8,2.4,12.6,12c8.5,10.4,3.4,21.3,3.2,21.8C36.1,77.2,35.3,77.7,34.5,77.7z M21.6,48.8
		c-0.4,5.1-0.3,14.4,4.1,20c1.8,2.3,4.2,3.7,7.3,4.2c0.9-2.8,1.9-9.2-3.2-15.5C26.2,53.1,23.5,50.4,21.6,48.8z"/>
</g>
</svg>
