<?xml version="1.0" encoding="UTF-8" standalone="no"?>
<svg
   xmlns:dc="http://purl.org/dc/elements/1.1/"
   xmlns:cc="http://creativecommons.org/ns#"
   xmlns:rdf="http://www.w3.org/1999/02/22-rdf-syntax-ns#"
   xmlns:svg="http://www.w3.org/2000/svg"
   xmlns="http://www.w3.org/2000/svg"
   xmlns:sodipodi="http://sodipodi.sourceforge.net/DTD/sodipodi-0.dtd"
   xmlns:inkscape="http://www.inkscape.org/namespaces/inkscape"
   version="1.1"
   id="Layer_1"
   x="0px"
   y="0px"
   viewBox="0 0 100 100"
   enable-background="new 0 0 100 100"
   xml:space="preserve"
   sodipodi:docname="Durazno color.svg"
   inkscape:version="1.0.1 (3bc2e813f5, 2020-09-07)"><metadata
   id="metadata13"><rdf:RDF><cc:Work
       rdf:about=""><dc:format>image/svg+xml</dc:format><dc:type
         rdf:resource="http://purl.org/dc/dcmitype/StillImage" /><dc:title></dc:title></cc:Work></rdf:RDF></metadata><defs
   id="defs11" /><sodipodi:namedview
   pagecolor="#ffffff"
   bordercolor="#666666"
   borderopacity="1"
   objecttolerance="10"
   gridtolerance="10"
   guidetolerance="10"
   inkscape:pageopacity="0"
   inkscape:pageshadow="2"
   inkscape:window-width="1920"
   inkscape:window-height="1017"
   id="namedview9"
   showgrid="false"
   inkscape:zoom="4.06"
   inkscape:cx="50"
   inkscape:cy="50"
   inkscape:window-x="-8"
   inkscape:window-y="-8"
   inkscape:window-maximized="1"
   inkscape:current-layer="Layer_1" />
<g
   id="g6"
   transform="translate(-108.867,-0.24630542)">
	<path
   fill="#2c3136"
   d="M 86.3,29.6 C 78.9,21.7 69.7,17.7 60.9,17.7 54.3,17.7 48,20 42.8,24.7 38,15.6 30.4,6.3 24.9,3.2 c -1.4,-0.8 -3.2,-0.3 -4,1.1 -0.8,1.4 -0.3,3.2 1.1,4 2.9,1.6 6.4,5.4 9.7,9.8 -10,-1.9 -20.5,1.1 -27.5,5.8 -1,0.7 -1.5,2 -1.2,3.2 2.2,8.4 11.8,17.7 17.5,21.5 -5.9,11.7 -2.2,26.6 9.1,37.6 7.2,7.1 16.3,10.8 25.3,10.8 7.5,0 14.9,-2.7 20.8,-8.4 2.4,-2.3 4.2,-4.9 5.6,-7.7 2.7,-1.3 5.2,-3.1 7.4,-5.3 12.5,-12.4 10.5,-32.2 -2.4,-46 z M 33.8,82 C 27.1,75.5 23.4,67.3 23.6,59.7 23.8,53.8 26.4,48.6 31,44.6 35.9,40.4 42.2,38 48.7,38 c 7.5,0 14.8,3.1 20.4,8.7 5.9,5.9 9.3,13.8 9.2,21.7 -0.1,6.3 -2.4,12 -6.6,16 -4.6,4.4 -10.4,6.7 -16.8,6.7 C 47.4,91.2 39.7,87.8 33.8,82 Z M 73.3,42.6 C 66.2,35.5 57.4,32.1 48.7,32.1 c -1.8,0 -3.6,0.2 -5.4,0.5 0.4,-0.5 0.8,-1.1 1.3,-1.6 4.3,-4.9 9.9,-7.5 16.2,-7.5 7.4,0 15.1,3.7 21.2,10.1 11.2,11.9 12.3,28.2 2.6,37.9 -0.2,0.2 -0.4,0.4 -0.6,0.6 C 85.2,62 81.6,50.9 73.3,42.6 Z M 9.4,27.7 c 7.5,-4.2 18.3,-6.1 27.3,-1.7 0.6,1.1 1.2,2.2 1.7,3.3 -0.4,0.6 -0.8,1.2 -1.2,1.8 -5.4,-2.5 -10.9,-4.1 -16.3,-4.8 -1.6,-0.2 -3.1,0.9 -3.3,2.6 -0.2,1.6 0.9,3.1 2.6,3.3 4.4,0.5 8.8,1.8 13.3,3.7 -2.2,1.2 -4.3,2.5 -6.3,4.2 -1.3,1.1 -2.4,2.3 -3.4,3.6 C 19.3,40.8 12,33.8 9.4,27.7 Z"
   id="path2" />
	<path
   fill="#2c3136"
   d="m 69.6,82.3 c 1.2,-1.1 1.2,-3 0.1,-4.2 -1.1,-1.2 -3,-1.2 -4.2,-0.1 -2.9,2.8 -6.6,4.3 -10.7,4.3 -5.2,0 -10.7,-2.4 -15,-6.6 C 35,70.9 32.3,65.2 32.4,60 c 0.1,-3.5 1.5,-6.3 4.3,-8.7 1.2,-1.1 1.4,-2.9 0.3,-4.2 -1.1,-1.2 -2.9,-1.4 -4.2,-0.3 -4.1,3.5 -6.2,7.9 -6.4,13 -0.2,6.8 3.2,14.1 9.3,20.1 5.4,5.3 12.4,8.3 19.1,8.3 5.7,0 10.8,-2 14.8,-5.9 z"
   id="path4" />
</g>
<path
   style="fill:#ffccaa;stroke:#000000;stroke-width:0.246693"
   d="M 51.369446,97.085418 C 43.410621,96.080945 36.274175,92.594634 30.189823,86.738703 23.31437,80.121373 19.292189,72.626543 18.190313,64.37912 c -0.577226,-4.320476 0.214058,-10.172919 1.862172,-13.772875 0.343829,-0.751022 0.625143,-1.447697 0.625143,-1.54817 0,-0.10047 -0.758287,-0.746542 -1.685084,-1.435714 C 15.178913,44.786519 10.389847,39.908132 7.582774,35.999787 5.82518,33.552654 3.5172683,28.94962 3.2908434,27.43971 2.9731453,25.321148 3.7474908,24.519177 8.328238,22.222605 15.344594,18.704933 22.855654,17.433136 30.762313,18.423993 l 1.340843,0.168033 -1.21769,-1.567099 C 29.031151,14.638524 24.723276,10.255542 23.300165,9.3073771 21.405247,8.0448653 20.865698,7.3692592 20.835598,6.2213252 c -0.05232,-1.9953809 1.90851,-3.3582362 3.734304,-2.5954895 2.616667,1.0931432 7.601034,5.943306 11.650313,11.3366303 2.070778,2.758115 6.067667,8.960263 6.44466,10.000466 0.1353,0.373323 0.123505,0.380157 2.543034,-1.473179 0.935685,-0.716726 2.812224,-1.852826 4.170084,-2.524666 14.134574,-6.993476 32.517805,0.119534 42.357562,16.38938 3.201535,5.293677 4.938825,10.875431 5.212955,16.748768 0.39678,8.500946 -2.38557,15.871904 -8.177576,21.663907 -1.861042,1.861042 -5.812003,4.801963 -6.93148,5.159487 -0.246148,0.07861 -0.768757,0.725754 -1.161358,1.438094 -4.07767,7.398603 -11.85494,12.895761 -20.468448,14.467581 -2.050133,0.374114 -6.80317,0.510205 -8.840202,0.253114 z m 7.485522,-5.780552 c 9.347631,-1.426343 16.54137,-7.74948 18.905963,-16.617929 0.545128,-2.044505 0.628564,-2.863404 0.629151,-6.174835 9.85e-4,-5.163941 -0.80966,-8.632879 -3.06566,-13.11984 C 69.59836,44.003693 57.793941,37.167312 46.084313,38.458221 c -8.326332,0.917923 -15.882209,5.527948 -19.73529,12.040985 -3.714824,6.279337 -3.602959,14.501921 0.303699,22.323241 3.295283,6.597315 9.320379,12.615148 15.778099,15.759069 5.607881,2.73018 10.769926,3.586118 16.424147,2.72335 z M 86.865885,69.620477 c 1.463433,-1.925968 3.134647,-5.406409 3.784615,-7.881774 0.660055,-2.513773 0.888027,-7.221359 0.483636,-9.987 -1.719847,-11.762116 -11.21431,-22.989581 -22.550104,-26.666121 -2.848271,-0.923781 -4.800539,-1.215513 -8.004926,-1.196194 -4.300862,0.02593 -7.926948,1.10953 -11.398049,3.406134 -1.759916,1.164425 -5.076485,4.283351 -5.605103,5.271085 -0.269168,0.502944 -0.245614,0.507707 1.529913,0.309431 0.991808,-0.110756 3.078505,-0.18129 4.637104,-0.156744 15.955694,0.251284 30.587153,13.116552 33.908103,29.815 0.29805,1.498653 0.432747,3.38216 0.439897,6.151173 l 0.01029,3.991096 0.820845,-0.789126 c 0.451466,-0.434019 1.32616,-1.454152 1.943766,-2.26696 z M 25.107175,42.901058 c 1.346612,-1.608379 4.273446,-3.946931 6.716205,-5.366269 1.696606,-0.985795 1.902263,-1.176665 1.547416,-1.436135 -0.851638,-0.622734 -7.525703,-2.649606 -10.591957,-3.216709 -1.756896,-0.324939 -3.456425,-0.762513 -3.77673,-0.972385 -0.320306,-0.209872 -0.747951,-0.777867 -0.950322,-1.262206 -0.741505,-1.774673 0.693236,-3.760867 2.716687,-3.760867 2.41786,0 9.299029,1.783064 13.374307,3.465581 3.427643,1.415135 3.156057,1.396416 3.902168,0.268965 L 38.70187,29.628358 37.795269,27.903095 36.88867,26.177833 34.879207,25.451682 c -3.171231,-1.145977 -5.793948,-1.590389 -9.398623,-1.592573 -3.795944,-0.0023 -6.862848,0.490763 -10.387066,1.669916 -2.011312,0.672957 -5.275923,2.089769 -5.707307,2.476922 -0.04649,0.04172 0.313264,0.832155 0.799447,1.756522 1.297925,2.467712 3.870189,5.779407 6.670622,8.588178 2.548018,2.555606 6.41216,5.777219 6.929444,5.777219 0.16187,0 0.756523,-0.552064 1.321451,-1.226808 z"
   id="path850" /><path
   style="fill:#ffccaa;stroke:#000000;stroke-width:0.246693"
   d="M 50.593267,87.688076 C 40.575708,85.785052 31.103543,77.291382 27.714833,67.173032 25.296651,59.952581 26.69196,53.166023 31.627723,48.141359 c 1.21825,-1.240192 1.870659,-1.713728 2.532006,-1.837797 2.247611,-0.421655 4.139112,1.939188 3.122555,3.897359 -0.153611,0.295898 -0.932075,1.223846 -1.72992,2.062107 -2.137506,2.245785 -2.963625,4.170461 -3.11192,7.250093 -0.0684,1.420363 0.0083,3.064889 0.184959,3.968488 1.387186,7.093393 7.94218,14.774704 14.8971,17.456805 6.401916,2.46884 12.437421,1.747273 17.150261,-2.050377 0.82147,-0.661951 1.763128,-1.306027 2.092571,-1.431281 0.935692,-0.355751 2.012931,-0.0086 2.817786,0.908094 1.5405,1.754532 0.779995,3.486293 -2.57549,5.864707 -3.496784,2.478569 -6.871483,3.572576 -11.465759,3.716963 -2.03965,0.0641 -3.709911,-0.02313 -4.948605,-0.258444 z"
   id="path852" /></svg>
