<?xml version="1.0" encoding="utf-8"?>
<!-- Generator: Adobe Illustrator 18.0.0, SVG Export Plug-In . SVG Version: 6.00 Build 0)  -->
<!DOCTYPE svg PUBLIC "-//W3C//DTD SVG 1.1//EN" "http://www.w3.org/Graphics/SVG/1.1/DTD/svg11.dtd">
<svg version="1.1" id="Layer_1" xmlns="http://www.w3.org/2000/svg" xmlns:xlink="http://www.w3.org/1999/xlink" x="0px" y="0px"
	 viewBox="0 0 100 100" enable-background="new 0 0 100 100" xml:space="preserve">
<g>
	<path fill="#FFFFFF" d="M86.3,29.6c-7.4-7.9-16.6-11.9-25.4-11.9c-6.6,0-12.9,2.3-18.1,7C38,15.6,30.4,6.3,24.9,3.2
		c-1.4-0.8-3.2-0.3-4,1.1c-0.8,1.4-0.3,3.2,1.1,4c2.9,1.6,6.4,5.4,9.7,9.8c-10-1.9-20.5,1.1-27.5,5.8c-1,0.7-1.5,2-1.2,3.2
		c2.2,8.4,11.8,17.7,17.5,21.5c-5.9,11.7-2.2,26.6,9.1,37.6c7.2,7.1,16.3,10.8,25.3,10.8c7.5,0,14.9-2.7,20.8-8.4
		c2.4-2.3,4.2-4.9,5.6-7.7c2.7-1.3,5.2-3.1,7.4-5.3C101.2,63.2,99.2,43.4,86.3,29.6z M33.8,82c-6.7-6.5-10.4-14.7-10.2-22.3
		c0.2-5.9,2.8-11.1,7.4-15.1c4.9-4.2,11.2-6.6,17.7-6.6c7.5,0,14.8,3.1,20.4,8.7c5.9,5.9,9.3,13.8,9.2,21.7c-0.1,6.3-2.4,12-6.6,16
		c-4.6,4.4-10.4,6.7-16.8,6.7C47.4,91.2,39.7,87.8,33.8,82z M73.3,42.6c-7.1-7.1-15.9-10.5-24.6-10.5c-1.8,0-3.6,0.2-5.4,0.5
		c0.4-0.5,0.8-1.1,1.3-1.6c4.3-4.9,9.9-7.5,16.2-7.5c7.4,0,15.1,3.7,21.2,10.1c11.2,11.9,12.3,28.2,2.6,37.9
		c-0.2,0.2-0.4,0.4-0.6,0.6C85.2,62,81.6,50.9,73.3,42.6z M9.4,27.7c7.5-4.2,18.3-6.1,27.3-1.7c0.6,1.1,1.2,2.2,1.7,3.3
		c-0.4,0.6-0.8,1.2-1.2,1.8c-5.4-2.5-10.9-4.1-16.3-4.8c-1.6-0.2-3.1,0.9-3.3,2.6c-0.2,1.6,0.9,3.1,2.6,3.3
		c4.4,0.5,8.8,1.8,13.3,3.7c-2.2,1.2-4.3,2.5-6.3,4.2c-1.3,1.1-2.4,2.3-3.4,3.6C19.3,40.8,12,33.8,9.4,27.7z"/>
	<path fill="#FFFFFF" d="M69.6,82.3c1.2-1.1,1.2-3,0.1-4.2c-1.1-1.2-3-1.2-4.2-0.1c-2.9,2.8-6.6,4.3-10.7,4.3
		c-5.2,0-10.7-2.4-15-6.6C35,70.9,32.3,65.2,32.4,60c0.1-3.5,1.5-6.3,4.3-8.7c1.2-1.1,1.4-2.9,0.3-4.2c-1.1-1.2-2.9-1.4-4.2-0.3
		c-4.1,3.5-6.2,7.9-6.4,13c-0.2,6.8,3.2,14.1,9.3,20.1c5.4,5.3,12.4,8.3,19.1,8.3C60.5,88.2,65.6,86.2,69.6,82.3z"/>
</g>
</svg>
