<?xml version="1.0" encoding="UTF-8" standalone="no"?>
<svg
   xmlns:dc="http://purl.org/dc/elements/1.1/"
   xmlns:cc="http://creativecommons.org/ns#"
   xmlns:rdf="http://www.w3.org/1999/02/22-rdf-syntax-ns#"
   xmlns:svg="http://www.w3.org/2000/svg"
   xmlns="http://www.w3.org/2000/svg"
   xmlns:sodipodi="http://sodipodi.sourceforge.net/DTD/sodipodi-0.dtd"
   xmlns:inkscape="http://www.inkscape.org/namespaces/inkscape"
   version="1.1"
   id="Layer_1"
   x="0px"
   y="0px"
   viewBox="0 0 100 100"
   enable-background="new 0 0 100 100"
   xml:space="preserve"
   sodipodi:docname="Esparrago color.svg"
   inkscape:version="1.0.1 (3bc2e813f5, 2020-09-07)"><metadata
   id="metadata13"><rdf:RDF><cc:Work
       rdf:about=""><dc:format>image/svg+xml</dc:format><dc:type
         rdf:resource="http://purl.org/dc/dcmitype/StillImage" /><dc:title></dc:title></cc:Work></rdf:RDF></metadata><defs
   id="defs11" /><sodipodi:namedview
   pagecolor="#ffffff"
   bordercolor="#666666"
   borderopacity="1"
   objecttolerance="10"
   gridtolerance="10"
   guidetolerance="10"
   inkscape:pageopacity="0"
   inkscape:pageshadow="2"
   inkscape:window-width="1920"
   inkscape:window-height="1017"
   id="namedview9"
   showgrid="false"
   inkscape:zoom="4.06"
   inkscape:cx="-42.465438"
   inkscape:cy="50"
   inkscape:window-x="-8"
   inkscape:window-y="-8"
   inkscape:window-maximized="1"
   inkscape:current-layer="Layer_1" />
<g
   id="g6"
   transform="translate(-99.769585,-2.764977)">
	<path
   fill="#2c3136"
   d="M 91.7,75 54,39.8 c 1.5,-2.3 2.2,-5 1.9,-7.9 C 55.4,27.4 52.5,22.7 48.1,19.2 46.5,12.7 42.5,7.4 36.1,3.4 35.4,2.9 34.5,2.8 33.7,3.1 32.9,3.4 32.2,4 31.9,4.8 L 30,9.7 C 22.8,7.1 15.5,5.9 7.3,5.9 5.7,5.9 4.4,7.2 4.4,8.8 4.4,18 5.8,26 8.8,33.6 l -2.6,1 c -0.8,0.3 -1.4,1 -1.7,1.8 -0.3,0.8 -0.2,1.7 0.3,2.4 3.6,5.6 8.2,9.3 13.6,11.2 3.6,4.1 8.2,6.8 12.6,7.2 0.4,0 0.7,0 1.1,0 2.3,0 4.4,-0.7 6.3,-1.9 l 35.2,37.8 c 2.8,2.8 5.9,3.9 9,3.9 3.5,0 6.8,-1.5 9.2,-3.9 C 96.3,88.7 97.7,81 91.7,75 Z m -14,14.2 -37,-39.7 c 0,0 0,0 -0.1,0 0,0 0,0 0,0 0,0 0,0 0,0 -0.1,-0.1 -0.3,-0.2 -0.4,-0.3 -0.2,-0.1 -0.3,-0.2 -0.5,-0.3 -0.2,-0.1 -0.3,-0.1 -0.5,-0.1 -0.2,0 -0.4,-0.1 -0.6,-0.1 -0.2,0 -0.3,0.1 -0.5,0.1 -0.2,0 -0.4,0 -0.5,0.1 -0.2,0.1 -0.3,0.2 -0.5,0.3 0,0 -0.1,0 -0.1,0.1 v 0 c -0.1,0.1 -0.3,0.2 -0.4,0.3 -1.5,1.5 -3.1,2.2 -5.1,2 -0.8,-0.1 -1.7,-0.3 -2.5,-0.6 0.7,-0.5 1.2,-1.3 1.2,-2.2 0,-1.6 -1.3,-2.9 -2.9,-2.9 -6.4,0 -11.5,-2.4 -15.5,-7.2 l 8,-3.1 C 21.3,35 22,33.4 21.4,31.9 20.8,30.4 19.2,29.7 17.7,30.3 l -3.5,1.4 C 11.9,25.8 10.6,19.8 10.3,13 c 0,-0.4 0,-0.7 0,-1.1 0.4,0 0.8,0 1.1,0 5.8,0.3 11.2,1.4 16.6,3.3 l -0.5,1.2 c -0.6,1.5 0.1,3.1 1.6,3.7 1.5,0.6 3.1,-0.1 3.7,-1.6 l 3.1,-8 c 4.9,4 7.2,9.1 7.2,15.5 0,1.6 1.3,2.9 2.9,2.9 0.9,0 1.7,-0.4 2.2,-1.1 1.1,1.6 1.8,3.3 2,4.9 0.2,2.1 -0.5,3.9 -2.1,5.5 -0.1,0.1 -0.2,0.3 -0.3,0.4 v 0 c 0,0 0,0.1 -0.1,0.1 -0.1,0.2 -0.2,0.3 -0.3,0.5 -0.1,0.2 -0.1,0.3 -0.1,0.5 0,0.2 -0.1,0.4 -0.1,0.5 0,0.2 0.1,0.4 0.1,0.5 0,0.2 0.1,0.4 0.1,0.5 0.1,0.2 0.2,0.3 0.3,0.5 0.1,0.1 0.1,0.3 0.3,0.4 0,0 0,0 0,0 0,0 0,0 0,0 0,0 0,0 0,0.1 l 39.6,36.9 c 3.5,3.5 2.5,7.6 0,10.1 -2.4,2.5 -6.5,3.5 -9.9,0 z"
   id="path2" />
	<path
   fill="#2c3136"
   d="m 44.2,32.6 c 0.6,-1.5 -0.1,-3.1 -1.6,-3.7 L 28.3,23.2 C 27.8,23 27.3,23 26.8,23 c -0.6,0.1 -1.1,0.3 -1.6,0.8 -0.8,0.8 -1.1,2 -0.6,3.1 l 4.8,12 0.9,2.3 c 0.4,0.9 1.1,1.5 2,1.7 0.2,0 0.4,0.1 0.6,0.1 0.4,0 0.7,-0.1 1.1,-0.2 1.5,-0.6 2.2,-2.2 1.6,-3.7 l -0.5,-1.1 -2.7,-7 6.9,2.8 1.1,0.5 c 0.6,0.2 1.1,0.2 1.7,0.1 0.9,-0.3 1.7,-0.9 2.1,-1.8 z"
   id="path4" />
</g>
<path
   style="fill:#806600;stroke:#000000;stroke-width:0.115389"
   d="M 80.361249,96.957555 C 78.14942,96.477743 76.200974,95.489363 74.53749,94.003363 74.160752,93.66682 66.157203,85.122457 56.751828,75.01589 47.346452,64.909323 39.402303,56.385374 39.098165,56.073781 l -0.55298,-0.566534 -1.189007,0.58608 c -1.878142,0.925763 -3.396391,1.288931 -5.407788,1.293553 -3.986572,0.0092 -8.867697,-2.438307 -12.546809,-6.291156 -0.754316,-0.789936 -0.97887,-0.951298 -1.72811,-1.241796 C 12.962578,48.027404 8.6380617,44.426457 5.3733019,39.6118 4.6452919,38.538177 4.6050332,38.443502 4.5649763,37.710879 c -0.036689,-0.671018 2.304e-4,-0.851606 0.2846268,-1.392271 0.4516413,-0.858612 0.9296703,-1.201676 2.5228996,-1.810599 0.756422,-0.289099 1.42004,-0.568525 1.474708,-0.620945 0.05502,-0.05276 -0.159695,-0.807639 -0.480888,-1.690715 C 6.0935842,25.947774 4.9682943,19.883277 4.6397205,12.112664 4.5196565,9.2732095 4.525165,8.8783916 4.6928064,8.3077283 4.9381752,7.4724758 5.5232943,6.8002796 6.2946466,6.4675029 6.8924597,6.2095943 6.9613467,6.2058004 9.7846817,6.2752897 16.715007,6.4458623 23.356113,7.6280383 29.336825,9.7557455 c 0.425338,0.1513188 0.796826,0.2371255 0.82553,0.1906814 0.0287,-0.046444 0.464266,-1.1482114 0.967915,-2.4483718 0.503649,-1.3001605 0.996112,-2.5175475 1.094363,-2.7053044 0.441775,-0.8442272 1.577699,-1.5459932 2.502445,-1.5459932 0.666594,0 1.161004,0.2369723 2.666619,1.27812 4.178165,2.8892408 7.313687,6.4678615 9.171843,10.4679715 0.491168,1.057355 1.525593,3.971186 1.525593,4.297388 0,0.08783 0.41224,0.507576 0.916089,0.932766 2.533096,2.137638 4.802049,5.235747 5.930353,8.097512 1.504845,3.8168 1.429664,7.116736 -0.239232,10.500816 -0.354086,0.717994 -0.598753,1.345027 -0.543704,1.393408 0.05505,0.04838 8.654236,8.070672 19.109305,17.827313 18.819592,17.562388 19.724833,18.437853 20.651885,19.972588 2.220206,3.675554 2.41244,7.752503 0.54648,11.589789 -1.874448,3.854738 -5.395792,6.572144 -9.53366,7.357085 -1.138669,0.216001 -3.563116,0.2139 -4.5674,-0.004 z m 4.490966,-5.567179 c 0.979243,-0.377179 1.99051,-1.034989 2.768344,-1.800753 2.95137,-2.905574 3.204418,-6.715377 0.644815,-9.708062 -0.33028,-0.386162 -9.465716,-8.95458 -20.300969,-19.04093 -14.90669,-13.87638 -19.79858,-18.494448 -20.103687,-18.978394 -0.357151,-0.566495 -0.402782,-0.726294 -0.399343,-1.398492 0.0046,-0.903826 0.113693,-1.128116 1.143862,-2.352214 2.135704,-2.537749 2.346875,-5.097423 0.69545,-8.429742 -0.34542,-0.697005 -0.707147,-1.368068 -0.803836,-1.491254 -0.171393,-0.218357 -0.185179,-0.214894 -0.549976,0.138171 -1.135675,1.099153 -3.098187,0.90371 -4.08421,-0.40674 -0.466826,-0.620423 -0.608788,-1.130558 -0.609599,-2.19057 -8.06e-4,-1.106782 -0.191289,-2.813325 -0.466882,-4.183715 -0.619821,-3.082061 -2.103826,-6.022593 -4.308891,-8.537987 -0.779582,-0.889296 -2.282849,-2.280111 -2.463347,-2.279075 -0.04245,2.42e-4 -0.802963,1.879564 -1.690018,4.176268 -1.720286,4.454047 -1.90805,4.803696 -2.833028,5.275585 -1.404845,0.716698 -3.154784,0.06671 -3.788902,-1.40734 -0.328824,-0.764371 -0.274281,-1.576021 0.175008,-2.604297 C 28.050738,15.773221 28.17258,15.4288 28.147768,15.405456 28.01752,15.282917 24.504519,14.220095 22.803115,13.788487 19.288892,12.897007 15.20824,12.27366 12.060027,12.147408 l -1.756912,-0.07046 0.0011,0.392281 c 0.005,1.727372 0.436493,5.930082 0.874141,8.5144 0.516621,3.050652 1.875036,8.022339 2.837438,10.384789 l 0.264699,0.649766 1.957144,-0.788161 c 2.103213,-0.846984 2.858648,-0.979909 3.660153,-0.644037 1.932447,0.809798 2.332544,3.502387 0.704895,4.743837 -0.287907,0.219593 -1.996945,0.947305 -4.573203,1.947281 -2.262428,0.878161 -4.113504,1.649888 -4.113504,1.714948 0,0.1495 1.304898,1.515228 2.361751,2.471847 1.629174,1.474661 4.012192,2.865152 6.227038,3.633477 1.872419,0.649537 4.65022,1.112366 6.717196,1.119198 1.290686,0.0043 2.218022,0.569316 2.737415,1.667977 0.479785,1.014881 0.267379,2.166667 -0.556931,3.019999 l -0.357639,0.370228 0.335355,0.127625 c 0.76952,0.292856 1.897352,0.487271 2.869916,0.494714 1.595834,0.01221 2.646072,-0.405689 4.089862,-1.6274 1.311393,-1.10968 1.509723,-1.208248 2.419668,-1.202552 0.734165,0.0046 0.864125,0.04378 1.485946,0.448077 0.522074,0.33944 4.968172,5.049832 19.013279,20.143502 10.082523,10.835254 18.665614,19.990398 19.073534,20.344764 0.850301,0.73867 1.825727,1.291544 2.720975,1.542256 0.911879,0.255371 2.948712,0.172055 3.798832,-0.155391 z"
   id="path838" /><path
   style="fill:#806600;stroke:#000000;stroke-width:0.115389"
   d="m 32.39833,42.850112 c -0.647773,-0.157764 -1.033393,-0.388135 -1.483303,-0.886132 -0.330472,-0.365792 -0.956119,-1.828361 -3.43522,-8.030474 -3.398933,-8.503314 -3.324624,-8.244482 -2.697878,-9.397225 0.560277,-1.030491 1.608847,-1.594438 2.693837,-1.448814 0.604506,0.08113 15.112115,5.825117 15.681262,6.208665 0.678421,0.457189 1.065738,1.140447 1.118791,1.973644 0.02574,0.404295 -0.01228,0.914119 -0.0845,1.132942 -0.289879,0.878344 -1.421936,1.799556 -2.43501,1.981491 -0.573838,0.103054 -1.113846,-0.0807 -5.3875,-1.833234 -2.11121,-0.865763 -3.880212,-1.558021 -3.931115,-1.538351 -0.08261,0.03192 2.337407,6.422283 2.980298,7.869864 0.679135,1.529195 0.20668,3.009756 -1.171644,3.671646 -0.732339,0.351679 -1.26743,0.437379 -1.848019,0.295978 z"
   id="path840" /></svg>
