<?xml version="1.0" encoding="utf-8"?>
<!-- Generator: Adobe Illustrator 18.0.0, SVG Export Plug-In . SVG Version: 6.00 Build 0)  -->
<!DOCTYPE svg PUBLIC "-//W3C//DTD SVG 1.1//EN" "http://www.w3.org/Graphics/SVG/1.1/DTD/svg11.dtd">
<svg version="1.1" id="Layer_1" xmlns="http://www.w3.org/2000/svg" xmlns:xlink="http://www.w3.org/1999/xlink" x="0px" y="0px"
	 viewBox="0 0 100 100" enable-background="new 0 0 100 100" xml:space="preserve">
<g>
	<path fill="#2C3136" d="M91.7,75L54,39.8c1.5-2.3,2.2-5,1.9-7.9c-0.5-4.5-3.4-9.2-7.8-12.7c-1.6-6.5-5.6-11.8-12-15.8
		c-0.7-0.5-1.6-0.6-2.4-0.3c-0.8,0.3-1.5,0.9-1.8,1.7L30,9.7C22.8,7.1,15.5,5.9,7.3,5.9c-1.6,0-2.9,1.3-2.9,2.9
		c0,9.2,1.4,17.2,4.4,24.8l-2.6,1c-0.8,0.3-1.4,1-1.7,1.8c-0.3,0.8-0.2,1.7,0.3,2.4C8.4,44.4,13,48.1,18.4,50
		c3.6,4.1,8.2,6.8,12.6,7.2c0.4,0,0.7,0,1.1,0c2.3,0,4.4-0.7,6.3-1.9l35.2,37.8c2.8,2.8,5.9,3.9,9,3.9c3.5,0,6.8-1.5,9.2-3.9
		C96.3,88.7,97.7,81,91.7,75z M77.7,89.2l-37-39.7c0,0,0,0-0.1,0c0,0,0,0,0,0c0,0,0,0,0,0c-0.1-0.1-0.3-0.2-0.4-0.3
		c-0.2-0.1-0.3-0.2-0.5-0.3c-0.2-0.1-0.3-0.1-0.5-0.1c-0.2,0-0.4-0.1-0.6-0.1c-0.2,0-0.3,0.1-0.5,0.1c-0.2,0-0.4,0-0.5,0.1
		c-0.2,0.1-0.3,0.2-0.5,0.3c0,0-0.1,0-0.1,0.1l0,0c-0.1,0.1-0.3,0.2-0.4,0.3c-1.5,1.5-3.1,2.2-5.1,2c-0.8-0.1-1.7-0.3-2.5-0.6
		c0.7-0.5,1.2-1.3,1.2-2.2c0-1.6-1.3-2.9-2.9-2.9c-6.4,0-11.5-2.4-15.5-7.2l8-3.1c1.5-0.6,2.2-2.2,1.6-3.7c-0.6-1.5-2.2-2.2-3.7-1.6
		l-3.5,1.4c-2.3-5.9-3.6-11.9-3.9-18.7c0-0.4,0-0.7,0-1.1c0.4,0,0.8,0,1.1,0c5.8,0.3,11.2,1.4,16.6,3.3l-0.5,1.2
		c-0.6,1.5,0.1,3.1,1.6,3.7c1.5,0.6,3.1-0.1,3.7-1.6l3.1-8c4.9,4,7.2,9.1,7.2,15.5c0,1.6,1.3,2.9,2.9,2.9c0.9,0,1.7-0.4,2.2-1.1
		c1.1,1.6,1.8,3.3,2,4.9c0.2,2.1-0.5,3.9-2.1,5.5c-0.1,0.1-0.2,0.3-0.3,0.4l0,0c0,0,0,0.1-0.1,0.1c-0.1,0.2-0.2,0.3-0.3,0.5
		c-0.1,0.2-0.1,0.3-0.1,0.5c0,0.2-0.1,0.4-0.1,0.5c0,0.2,0.1,0.4,0.1,0.5c0,0.2,0.1,0.4,0.1,0.5c0.1,0.2,0.2,0.3,0.3,0.5
		c0.1,0.1,0.1,0.3,0.3,0.4c0,0,0,0,0,0c0,0,0,0,0,0c0,0,0,0,0,0.1l39.6,36.9c3.5,3.5,2.5,7.6,0,10.1C85.2,91.7,81.1,92.7,77.7,89.2z
		"/>
	<path fill="#2C3136" d="M44.2,32.6c0.6-1.5-0.1-3.1-1.6-3.7l-14.3-5.7c-0.5-0.2-1-0.2-1.5-0.2c-0.6,0.1-1.1,0.3-1.6,0.8
		c-0.8,0.8-1.1,2-0.6,3.1l4.8,12l0.9,2.3c0.4,0.9,1.1,1.5,2,1.7c0.2,0,0.4,0.1,0.6,0.1c0.4,0,0.7-0.1,1.1-0.2
		c1.5-0.6,2.2-2.2,1.6-3.7l-0.5-1.1L32.4,31l6.9,2.8l1.1,0.5c0.6,0.2,1.1,0.2,1.7,0.1C43,34.1,43.8,33.5,44.2,32.6z"/>
</g>
</svg>
