<?xml version="1.0" encoding="utf-8"?>
<!-- Generator: Adobe Illustrator 18.0.0, SVG Export Plug-In . SVG Version: 6.00 Build 0)  -->
<!DOCTYPE svg PUBLIC "-//W3C//DTD SVG 1.1//EN" "http://www.w3.org/Graphics/SVG/1.1/DTD/svg11.dtd">
<svg version="1.1" id="Layer_1" xmlns="http://www.w3.org/2000/svg" xmlns:xlink="http://www.w3.org/1999/xlink" x="0px" y="0px"
	 viewBox="0 0 100 100" enable-background="new 0 0 100 100" xml:space="preserve">
<g>
	<path fill="#2C3136" d="M88.6,70.2c3.4-2.8,5.7-6.9,5.7-11.7c0-5-3.3-10.2-7.7-13.7c1.1-2.1,1.8-4.5,1.8-7
		c0-8.3-9.1-17.4-17.4-17.4c-1,0-2,0.1-3,0.3c-3.3-5.1-9.2-9.2-14.7-9.2c-1.3,0-2.6,0.2-3.8,0.5l0.5-3c0.2-1.3-0.5-2.7-1.7-3.2
		c-1.3-0.5-2.7-0.1-3.5,0.9L39,14.5l-4-9.9c-0.5-1.2-1.6-1.9-2.8-1.9c-1.2,0-2.3,0.8-2.7,2l-4.9,14.7C17.9,16,12.9,9,11.5,4.7
		C11,3.2,9.3,2.3,7.8,2.9C6.2,3.4,5.4,5.1,5.9,6.6c1.9,5.6,7.1,12.5,13.9,16.8L7.4,29.6c-1,0.5-1.6,1.4-1.6,2.5
		c0,1.1,0.5,2.1,1.4,2.6l10.5,6.3L7.2,47.4c-1.2,0.7-1.7,2.2-1.3,3.5c0.5,1.3,1.9,2.1,3.3,1.9l3-0.5c-0.3,1.2-0.5,2.5-0.5,3.8
		c0,5.5,4,11.4,9.2,14.7c-0.2,1-0.3,2-0.3,3c0,8.3,9.1,17.4,17.4,17.4c1.7,0,3.3-0.3,4.8-0.9c3.4,3.9,8.3,6.8,12.9,6.8
		c4.7,0,8.9-2.3,11.7-5.7c3.3,3.4,7.7,5.7,11.9,5.7c8.3,0,15-6.7,15-15C94.3,77.9,92,73.5,88.6,70.2z M79.3,91.2
		c-3.3,0-7.2-2.8-9.5-6.1c6.4-1,11.5-6.1,12.5-12.5c3.3,2.3,6.1,6.2,6.1,9.5C88.4,87.1,84.3,91.2,79.3,91.2z M55.7,91.2
		c-2.5,0-5.4-1.6-7.7-3.9c2.6-2.3,4.3-5.5,4.8-9.2c0.4-0.2,0.7-0.4,1-0.6c2.3,3,5.5,5.5,8.9,6.8c0.3,0.7,0.6,1.3,0.9,2
		C62.1,89.3,59.1,91.2,55.7,91.2z M26.5,73.2c0.9,0.2,1.8,0.3,2.6,0.3c1.7,0,3.3-0.3,4.8-0.9c3.3,3.8,8,6.6,12.6,6.7
		c-1.3,3.5-4.6,5.9-8.5,5.9c-5.1,0-11.5-6.5-11.5-11.5C26.4,73.6,26.5,73.4,26.5,73.2z M24.8,47.2c2.5,5.4,7.8,10.1,13.4,11.3
		c0,0,0,0,0,0.1c0,5-4.1,9.1-9.1,9.1c-5.1,0-11.5-6.5-11.5-11.5C17.6,51.7,20.7,48,24.8,47.2z M27.7,26c0.1,0,0.1-0.1,0.1-0.1
		c0.2-0.1,0.4-0.3,0.6-0.5c0.1-0.1,0.2-0.1,0.2-0.2c0.2-0.3,0.4-0.6,0.5-0.9l3.4-10.1l2.9,7.3c0.4,1,1.3,1.7,2.4,1.8
		c0.3,0,0.5,0,0.8,0c-0.2,1-0.3,2-0.4,3c-7,0.1-12.8,5-14.3,11.5l-9.1-5.4L27.7,26z M76.2,46.5c-1-4-3.8-7.8-7.3-10.5
		c1.1-2.1,1.8-4.5,1.8-7c0-0.9-0.1-1.7-0.3-2.6c0.2,0,0.4-0.1,0.6-0.1c5.1,0,11.5,6.5,11.5,11.5C82.5,41.9,79.8,45.3,76.2,46.5z
		 M83.6,66.5c-0.7-0.3-1.3-0.7-2-0.9c-1.3-3.4-3.8-6.6-6.8-8.9c0.7-1.3,1.2-2.6,1.5-4.1c2.5-0.5,4.7-1.6,6.6-3.2
		c3.1,2.3,5.5,6,5.5,9.1C88.4,62,86.4,65,83.6,66.5z M67.5,79.4c-3.1,0-6.8-2.5-9.1-5.5c2.1-2.5,3.4-5.7,3.5-9.2
		c3.5-0.1,6.7-1.4,9.2-3.5c3.1,2.3,5.5,6,5.5,9.1C76.6,75.3,72.5,79.4,67.5,79.4z M46.8,73.5c-2.5,0-5.4-1.6-7.7-3.9
		c3.1-2.8,5-6.7,5-11.1c0,0,0-0.1,0-0.1c1.3-0.3,2.6-0.8,3.8-1.4c2.1,2.7,4.9,5,7.9,6.3c0.1,0.4,0.2,0.7,0.2,1.1
		C55.9,69.4,51.8,73.5,46.8,73.5z M29.4,41.3c0-5,4.1-9.1,9.1-9.1c5.1,0,11.5,6.5,11.5,11.5c0,5-4.1,9.1-9.1,9.1
		C35.8,52.9,29.4,46.4,29.4,41.3z M65.1,40.5c3.1,2.3,5.5,6,5.5,9.1c0,5-4.1,9.1-9.1,9.1c-3.1,0-6.8-2.5-9.1-5.5
		c2.1-2.5,3.4-5.7,3.5-9.2C59.4,43.9,62.6,42.6,65.1,40.5z M64.8,29c0,5-4.1,9.1-9.1,9.1c-0.4,0-0.7-0.1-1.1-0.2
		c-2-4.4-5.9-8.3-10.3-10.3c-0.1-0.4-0.2-0.7-0.2-1.1c0-5,4.1-9.1,9.1-9.1C58.3,17.5,64.8,23.9,64.8,29z"/>
</g>
</svg>
