<?xml version="1.0" encoding="UTF-8" standalone="no"?>
<svg
   xmlns:dc="http://purl.org/dc/elements/1.1/"
   xmlns:cc="http://creativecommons.org/ns#"
   xmlns:rdf="http://www.w3.org/1999/02/22-rdf-syntax-ns#"
   xmlns:svg="http://www.w3.org/2000/svg"
   xmlns="http://www.w3.org/2000/svg"
   xmlns:sodipodi="http://sodipodi.sourceforge.net/DTD/sodipodi-0.dtd"
   xmlns:inkscape="http://www.inkscape.org/namespaces/inkscape"
   version="1.1"
   id="Layer_1"
   x="0px"
   y="0px"
   viewBox="0 0 100 100"
   enable-background="new 0 0 100 100"
   xml:space="preserve"
   sodipodi:docname="Frambuesa color.svg"
   inkscape:version="1.0.1 (3bc2e813f5, 2020-09-07)"><metadata
   id="metadata11"><rdf:RDF><cc:Work
       rdf:about=""><dc:format>image/svg+xml</dc:format><dc:type
         rdf:resource="http://purl.org/dc/dcmitype/StillImage" /><dc:title></dc:title></cc:Work></rdf:RDF></metadata><defs
   id="defs9" /><sodipodi:namedview
   pagecolor="#ffffff"
   bordercolor="#666666"
   borderopacity="1"
   objecttolerance="10"
   gridtolerance="10"
   guidetolerance="10"
   inkscape:pageopacity="0"
   inkscape:pageshadow="2"
   inkscape:window-width="1920"
   inkscape:window-height="1017"
   id="namedview7"
   showgrid="false"
   inkscape:zoom="4.66"
   inkscape:cx="8.7279267"
   inkscape:cy="50"
   inkscape:window-x="-8"
   inkscape:window-y="-8"
   inkscape:window-maximized="1"
   inkscape:current-layer="Layer_1" />
<g
   id="g4"
   transform="translate(-110.94421,0.42918455)">
	<path
   fill="#2c3136"
   d="m 88.6,70.2 c 3.4,-2.8 5.7,-6.9 5.7,-11.7 0,-5 -3.3,-10.2 -7.7,-13.7 1.1,-2.1 1.8,-4.5 1.8,-7 0,-8.3 -9.1,-17.4 -17.4,-17.4 -1,0 -2,0.1 -3,0.3 -3.3,-5.1 -9.2,-9.2 -14.7,-9.2 -1.3,0 -2.6,0.2 -3.8,0.5 L 50,9 C 50.2,7.7 49.5,6.3 48.3,5.8 47,5.3 45.6,5.7 44.8,6.7 L 39,14.5 35,4.6 C 34.5,3.4 33.4,2.7 32.2,2.7 31,2.7 29.9,3.5 29.5,4.7 L 24.6,19.4 C 17.9,16 12.9,9 11.5,4.7 11,3.2 9.3,2.3 7.8,2.9 6.2,3.4 5.4,5.1 5.9,6.6 7.8,12.2 13,19.1 19.8,23.4 L 7.4,29.6 c -1,0.5 -1.6,1.4 -1.6,2.5 0,1.1 0.5,2.1 1.4,2.6 L 17.7,41 7.2,47.4 C 6,48.1 5.5,49.6 5.9,50.9 6.4,52.2 7.8,53 9.2,52.8 l 3,-0.5 c -0.3,1.2 -0.5,2.5 -0.5,3.8 0,5.5 4,11.4 9.2,14.7 -0.2,1 -0.3,2 -0.3,3 0,8.3 9.1,17.4 17.4,17.4 1.7,0 3.3,-0.3 4.8,-0.9 3.4,3.9 8.3,6.8 12.9,6.8 4.7,0 8.9,-2.3 11.7,-5.7 3.3,3.4 7.7,5.7 11.9,5.7 8.3,0 15,-6.7 15,-15 0,-4.2 -2.3,-8.6 -5.7,-11.9 z m -9.3,21 c -3.3,0 -7.2,-2.8 -9.5,-6.1 6.4,-1 11.5,-6.1 12.5,-12.5 3.3,2.3 6.1,6.2 6.1,9.5 0,5 -4.1,9.1 -9.1,9.1 z m -23.6,0 c -2.5,0 -5.4,-1.6 -7.7,-3.9 2.6,-2.3 4.3,-5.5 4.8,-9.2 0.4,-0.2 0.7,-0.4 1,-0.6 2.3,3 5.5,5.5 8.9,6.8 0.3,0.7 0.6,1.3 0.9,2 -1.5,3 -4.5,4.9 -7.9,4.9 z m -29.2,-18 c 0.9,0.2 1.8,0.3 2.6,0.3 1.7,0 3.3,-0.3 4.8,-0.9 3.3,3.8 8,6.6 12.6,6.7 -1.3,3.5 -4.6,5.9 -8.5,5.9 -5.1,0 -11.5,-6.5 -11.5,-11.5 -0.1,-0.1 0,-0.3 0,-0.5 z m -1.7,-26 c 2.5,5.4 7.8,10.1 13.4,11.3 0,0 0,0 0,0.1 0,5 -4.1,9.1 -9.1,9.1 -5.1,0 -11.5,-6.5 -11.5,-11.5 0,-4.5 3.1,-8.2 7.2,-9 z M 27.7,26 c 0.1,0 0.1,-0.1 0.1,-0.1 0.2,-0.1 0.4,-0.3 0.6,-0.5 0.1,-0.1 0.2,-0.1 0.2,-0.2 0.2,-0.3 0.4,-0.6 0.5,-0.9 l 3.4,-10.1 2.9,7.3 c 0.4,1 1.3,1.7 2.4,1.8 0.3,0 0.5,0 0.8,0 -0.2,1 -0.3,2 -0.4,3 -7,0.1 -12.8,5 -14.3,11.5 l -9.1,-5.4 z m 48.5,20.5 c -1,-4 -3.8,-7.8 -7.3,-10.5 1.1,-2.1 1.8,-4.5 1.8,-7 0,-0.9 -0.1,-1.7 -0.3,-2.6 0.2,0 0.4,-0.1 0.6,-0.1 5.1,0 11.5,6.5 11.5,11.5 0,4.1 -2.7,7.5 -6.3,8.7 z m 7.4,20 c -0.7,-0.3 -1.3,-0.7 -2,-0.9 -1.3,-3.4 -3.8,-6.6 -6.8,-8.9 0.7,-1.3 1.2,-2.6 1.5,-4.1 2.5,-0.5 4.7,-1.6 6.6,-3.2 3.1,2.3 5.5,6 5.5,9.1 0,3.5 -2,6.5 -4.8,8 z M 67.5,79.4 c -3.1,0 -6.8,-2.5 -9.1,-5.5 2.1,-2.5 3.4,-5.7 3.5,-9.2 3.5,-0.1 6.7,-1.4 9.2,-3.5 3.1,2.3 5.5,6 5.5,9.1 0,5 -4.1,9.1 -9.1,9.1 z M 46.8,73.5 c -2.5,0 -5.4,-1.6 -7.7,-3.9 3.1,-2.8 5,-6.7 5,-11.1 0,0 0,-0.1 0,-0.1 1.3,-0.3 2.6,-0.8 3.8,-1.4 2.1,2.7 4.9,5 7.9,6.3 0.1,0.4 0.2,0.7 0.2,1.1 -0.1,5 -4.2,9.1 -9.2,9.1 z M 29.4,41.3 c 0,-5 4.1,-9.1 9.1,-9.1 5.1,0 11.5,6.5 11.5,11.5 0,5 -4.1,9.1 -9.1,9.1 -5.1,0.1 -11.5,-6.4 -11.5,-11.5 z m 35.7,-0.8 c 3.1,2.3 5.5,6 5.5,9.1 0,5 -4.1,9.1 -9.1,9.1 -3.1,0 -6.8,-2.5 -9.1,-5.5 2.1,-2.5 3.4,-5.7 3.5,-9.2 3.5,-0.1 6.7,-1.4 9.2,-3.5 z M 64.8,29 c 0,5 -4.1,9.1 -9.1,9.1 -0.4,0 -0.7,-0.1 -1.1,-0.2 -2,-4.4 -5.9,-8.3 -10.3,-10.3 -0.1,-0.4 -0.2,-0.7 -0.2,-1.1 0,-5 4.1,-9.1 9.1,-9.1 5.1,0.1 11.6,6.5 11.6,11.6 z"
   id="path2" />
</g>
<path
   style="fill:#800080;stroke:#000000;stroke-width:0.21493"
   d="m 52.594797,97.028672 c -3.083743,-0.811167 -5.830254,-2.408998 -8.514848,-4.953663 l -1.51303,-1.434163 -1.308043,0.407109 c -1.583912,0.492968 -4.87738,0.542816 -6.475238,0.098 C 28.099659,89.285273 22.261824,83.266455 20.82863,76.758322 20.548929,75.4882 20.487718,74.569408 20.58559,73.110254 l 0.130821,-1.950369 -1.75876,-1.39485 c -3.01354,-2.39 -5.248492,-5.434805 -6.519079,-8.881318 -0.66853,-1.81341 -0.922883,-5.162169 -0.530913,-6.989867 0.134967,-0.629328 0.212635,-1.176996 0.172594,-1.217036 -0.04004,-0.04004 -0.85562,0.06483 -1.812399,0.233051 C 8.135385,53.28479 7.289208,53.097902 6.367815,52.048492 5.876046,51.4884 5.706385,51.085043 5.706385,50.475998 c 0,-1.531019 0.567661,-2.027212 6.332067,-5.534865 2.94421,-1.791558 5.382699,-3.346148 5.418864,-3.454643 0.03617,-0.108498 -2.409911,-1.67911 -5.435725,-3.490249 C 8.995777,36.185101 6.373286,34.479178 6.193835,34.205301 6.014383,33.931423 5.826002,33.298327 5.775211,32.798419 5.597507,31.0494 5.820801,30.879736 13.099349,27.233288 c 3.604971,-1.806037 6.554727,-3.339084 6.555013,-3.40677 2.79e-4,-0.06769 -0.697187,-0.598802 -1.549941,-1.180258 C 17.251667,22.064805 15.596827,20.671687 14.426998,19.550442 10.886014,16.156519 8.796738,13.361875 6.92995,9.5222879 6.020503,7.6517469 5.813681,7.0188432 5.813681,6.1063533 c 0,-0.9448013 0.09785,-1.2221389 0.625524,-1.7729114 1.766245,-1.8435621 3.890372,-1.2306872 4.946302,1.4271575 2.015071,5.0720636 6.609634,10.3802636 11.652459,13.4623426 0.739451,0.451938 1.378059,0.782935 1.419128,0.735547 0.04107,-0.04739 1.214178,-3.513331 2.606909,-7.702098 2.739244,-8.2385433 2.934581,-8.6280086 4.472038,-8.9164373 0.962798,-0.180622 1.895545,0.1718352 2.567221,0.9700759 0.270155,0.3210609 1.387908,2.7951235 2.483897,5.4979173 1.09599,2.7027931 2.065693,4.9915201 2.154897,5.0860601 0.0892,0.09454 1.484249,-1.615673 3.100101,-3.800474 1.615852,-2.184801 3.188326,-4.1693409 3.494388,-4.4100885 0.385651,-0.3033539 0.87467,-0.4377232 1.593028,-0.4377232 0.851449,0 1.170829,0.1178925 1.788447,0.6601693 0.942845,0.8278294 1.114015,1.6624316 0.773661,3.7722734 -0.142923,0.885981 -0.214945,1.655793 -0.160045,1.710692 0.0549,0.0549 0.925506,-0.01956 1.93468,-0.165476 1.434034,-0.20734 2.193586,-0.209525 3.476972,-0.01 4.093912,0.636466 8.567951,3.41548 11.600279,7.205424 l 1.384397,1.730282 2.411957,-0.05881 c 2.761592,-0.06734 4.128204,0.214632 6.530217,1.347363 3.111427,1.467273 5.668122,3.556632 7.77724,6.355642 2.23276,2.963095 3.66244,6.617972 3.66244,9.362769 0,1.573667 -0.563101,4.219914 -1.194959,5.615605 -0.286979,0.633899 -0.521779,1.25233 -0.521779,1.374296 0,0.121963 0.575959,0.742966 1.279908,1.380004 2.614939,2.366384 5.129191,6.365296 5.903382,9.389318 0.470524,1.837871 0.422764,4.823395 -0.107769,6.737905 -0.742697,2.68011 -1.988139,4.804846 -3.98962,6.806327 l -1.160429,1.160429 1.310328,1.55753 c 1.58979,1.889714 2.732683,3.810667 3.54399,5.956671 0.562268,1.487262 0.608554,1.837511 0.609714,4.613734 0.001,2.855513 -0.03232,3.092213 -0.676659,4.779646 -1.434133,3.755811 -4.05086,6.672189 -7.463918,8.318633 -4.18811,2.020324 -8.160174,2.086249 -12.269238,0.203633 -1.796908,-0.823274 -3.136065,-1.694601 -4.827552,-3.141064 -0.66933,-0.572371 -1.266433,-1.040676 -1.326899,-1.040676 -0.06047,0 -0.623345,0.500264 -1.25085,1.111695 -3.744197,3.648314 -8.928431,5.217979 -13.372671,4.048938 z m 6.599279,-6.070058 c 1.372487,-0.633165 3.317266,-2.350547 3.911669,-3.45429 0.373247,-0.693075 0.373243,-0.755643 -1.16e-4,-1.733268 -0.352463,-0.922914 -0.524292,-1.083152 -1.908313,-1.779596 -2.360586,-1.187857 -3.942964,-2.347485 -5.852803,-4.289163 -1.647174,-1.674636 -1.790143,-1.770779 -2.292736,-1.541782 -0.394839,0.1799 -0.574822,0.473915 -0.683352,1.116299 -0.394616,2.33571 -1.530667,4.718948 -3.286822,6.895182 l -1.377813,1.707389 0.943359,0.826019 c 1.143457,1.001232 2.402783,1.768747 4.021143,2.450749 1.049777,0.442392 1.489914,0.502174 3.252685,0.441789 1.656506,-0.05674 2.270015,-0.176579 3.273099,-0.639328 z m 23.817191,-0.104416 c 3.163783,-1.483979 5.313143,-4.817195 5.313143,-8.239592 0,-2.051466 -1.139148,-4.603867 -3.085088,-6.91252 -0.842077,-0.999036 -2.817364,-2.718167 -3.123184,-2.718167 -0.07899,0 -0.258942,0.555257 -0.399886,1.233905 -0.326144,1.570408 -1.296966,3.619625 -2.540179,5.361831 -1.82583,2.558674 -5.137388,4.777519 -8.292236,5.556056 -1.700708,0.419691 -1.695628,0.457289 0.341312,2.526628 1.529723,1.554052 3.208257,2.720024 5.003493,3.475606 1.097343,0.461854 1.520419,0.521165 3.297485,0.462287 1.758204,-0.05825 2.237601,-0.160875 3.48514,-0.746034 z m -41.221204,-6.01471 c 1.678189,-0.82617 3.395727,-2.477917 4.149508,-3.990558 l 0.549236,-1.102172 -1.56074,-0.251648 c -3.64741,-0.588095 -6.938204,-2.360635 -10.15241,-5.468459 l -1.08094,-1.045166 -1.816056,0.459243 c -1.487487,0.376154 -2.175476,0.435633 -3.802665,0.328747 l -1.986613,-0.130496 0.130354,0.906375 c 0.388195,2.6992 1.381049,4.632801 3.552746,6.919033 1.713166,1.803515 3.216436,2.89821 5.023309,3.65801 1.125736,0.47338 1.528674,0.528749 3.433747,0.471848 1.925693,-0.05752 2.309489,-0.138876 3.560524,-0.754757 z m 29.366965,-5.770103 c 2.573678,-1.219127 4.349477,-3.325039 5.033833,-5.969608 0.681646,-2.634092 0.187112,-5.02021 -1.591646,-7.679674 -1.004996,-1.502592 -3.194461,-3.809575 -3.615517,-3.809575 -0.109464,0 -0.833183,0.425251 -1.608266,0.945 -1.989719,1.334254 -5.311487,2.471833 -7.255547,2.484751 -0.532503,0.0035 -0.566309,0.07128 -0.671116,1.344927 -0.188739,2.293618 -1.38014,5.231689 -3.090213,7.620663 -0.33897,0.473543 -0.308096,0.524249 1.256522,2.063694 1.678991,1.651976 2.829618,2.430154 4.855789,3.284015 1.04802,0.441652 1.492867,0.502386 3.252685,0.444079 1.749292,-0.05796 2.236592,-0.16132 3.433476,-0.728272 z M 48.95529,73.725906 c 2.534796,-0.655951 4.877343,-2.572554 5.970996,-4.88529 0.675811,-1.429137 1.100204,-3.488781 0.918472,-4.457493 -0.119577,-0.637406 -0.303494,-0.835691 -1.15956,-1.250148 -1.643153,-0.795522 -3.691734,-2.353616 -5.416582,-4.119702 l -1.609442,-1.647921 -1.502146,0.614185 c -0.82618,0.337802 -1.660807,0.617002 -1.854723,0.620442 -0.445053,0.0079 -0.613088,0.443182 -0.613088,1.588165 0,2.692874 -1.789659,6.569013 -4.233343,9.168798 l -0.725801,0.772166 0.811331,0.712358 c 3.107341,2.728281 6.271204,3.697697 9.413886,2.88444 z M 30.856767,68.02497 c 3.363856,-0.703787 6.294824,-3.636161 7.011768,-7.015133 0.4228,-1.992667 0.395101,-2.062369 -0.992623,-2.49777 -4.671369,-1.465652 -9.342635,-5.467929 -11.628683,-9.963296 -0.452761,-0.890326 -0.514298,-0.931185 -1.228023,-0.815363 -2.781563,0.451384 -5.591179,3.330848 -6.421349,6.580983 -0.877913,3.437051 0.29693,6.652139 3.648804,9.985356 3.341791,3.323191 6.212651,4.436039 9.610106,3.725223 z m 53.999824,-1.901079 c 1.978332,-1.563783 3.187287,-3.858167 3.405703,-6.463434 0.162524,-1.938579 -0.457688,-3.945547 -1.873412,-6.062227 -1.002367,-1.498665 -3.215618,-3.790277 -3.660667,-3.790277 -0.108242,0 -0.665601,0.336798 -1.238575,0.748438 -1.220723,0.877002 -3.135925,1.787021 -4.485461,2.131292 -0.942818,0.240515 -0.96214,0.263867 -1.439651,1.739968 -0.266201,0.822901 -0.611092,1.764665 -0.76642,2.092811 -0.276037,0.58315 -0.246271,0.631637 1.317399,2.145923 1.996787,1.933729 3.231865,3.560055 4.384019,5.7728 0.743401,1.427721 1.040271,1.789704 1.732262,2.112206 1.197511,0.558099 1.424749,0.521088 2.624803,-0.4275 z m -21.28544,-7.173219 c 1.63862,-0.436298 3.167907,-1.349865 4.347504,-2.597116 2.740135,-2.897287 3.303436,-6.71841 1.510978,-10.249644 -0.781568,-1.539734 -2.39918,-3.596412 -3.631191,-4.616804 l -0.848577,-0.70282 -1.02732,0.731281 c -2.03259,1.446869 -5.330989,2.712985 -7.067686,2.712985 -1.129395,0 -1.363067,0.181989 -1.363067,1.061594 0,2.004833 -1.195006,5.236994 -2.736815,7.402331 l -0.755114,1.060489 1.799614,1.730577 c 3.344079,3.215797 6.504317,4.337095 9.771674,3.467127 z M 43.260033,52.979286 c 4.74489,-1.425432 7.629864,-6.41385 6.310416,-10.911354 -0.999811,-3.407981 -4.165537,-6.931822 -7.75471,-8.631947 -1.347962,-0.638504 -1.615161,-0.688118 -3.705921,-0.688118 -2.079311,0 -2.360876,0.05151 -3.648069,0.66746 -2.581319,1.235203 -4.350465,3.335594 -5.033832,5.976339 -0.911949,3.52406 0.221079,6.676264 3.634403,10.111285 1.503713,1.513275 2.301687,2.128665 3.574311,2.756485 2.242571,1.10632 4.51488,1.353281 6.623402,0.71985 z M 77.343367,46.50044 c 1.72099,-0.872092 3.160552,-2.341354 4.042548,-4.12595 0.673577,-1.362891 0.807753,-1.874631 0.886901,-3.382614 0.06476,-1.233813 -0.01077,-2.131468 -0.247144,-2.937434 -1.332036,-4.541789 -7.066094,-9.423023 -11.068536,-9.422319 l -0.765773,1.33e-4 -0.0052,2.95051 c -0.0051,2.874095 -0.02541,3.002556 -0.784127,4.960125 l -0.77889,2.009618 0.784126,0.664448 c 2.815702,2.38596 5.204556,5.759462 6.142745,8.674687 0.199414,0.619635 0.454586,1.12661 0.567049,1.12661 0.112464,0 0.664316,-0.233018 1.226337,-0.517814 z M 57.777159,38.349814 c 3.442219,-0.916526 6.107408,-3.780876 6.746796,-7.250964 0.592874,-3.217629 -0.584916,-6.135611 -3.758952,-9.312852 -1.589131,-1.590735 -2.293586,-2.120537 -3.832361,-2.882218 -1.664794,-0.824061 -2.09486,-0.944222 -3.67659,-1.027241 -2.816515,-0.14783 -5.027305,0.768823 -7.037579,2.917969 -1.474091,1.575922 -2.158024,3.215908 -2.271174,5.445988 l -0.09446,1.86173 1.260818,0.636457 c 3.2838,1.657659 7.035343,5.439105 8.767622,8.837511 0.210567,0.41309 0.490082,0.822019 0.621144,0.908731 0.382931,0.253348 2.078541,0.183389 3.274738,-0.135111 z m -33.51272,-1.490929 c 0.771852,-2.208908 1.780592,-3.771743 3.636909,-5.634646 2.309483,-2.317679 4.820837,-3.611668 8.019045,-4.131861 l 2.156431,-0.350747 0.131921,-0.966839 c 0.07256,-0.531762 0.184219,-1.232397 0.24814,-1.556968 0.108652,-0.551708 0.06828,-0.590128 -0.62017,-0.590128 -0.407202,0 -1.062345,-0.217165 -1.465549,-0.485795 -0.640075,-0.426445 -0.925788,-0.977007 -2.338599,-4.506438 -0.885191,-2.211354 -1.657723,-4.020206 -1.716738,-4.019671 -0.05901,5.36e-4 -0.917271,2.370298 -1.907238,5.266142 -0.989966,2.895844 -1.975968,5.488955 -2.191116,5.762472 -0.22212,0.28238 -3.269818,1.918983 -7.051993,3.786895 -3.663448,1.809274 -6.658894,3.343944 -6.656547,3.410375 0.0054,0.153977 9.089267,5.55558 9.193921,5.467069 0.04291,-0.03629 0.295622,-0.688727 0.561583,-1.44986 z"
   id="path836" /></svg>
