<?xml version="1.0" encoding="utf-8"?>
<!-- Generator: Adobe Illustrator 18.0.0, SVG Export Plug-In . SVG Version: 6.00 Build 0)  -->
<!DOCTYPE svg PUBLIC "-//W3C//DTD SVG 1.1//EN" "http://www.w3.org/Graphics/SVG/1.1/DTD/svg11.dtd">
<svg version="1.1" id="Layer_1" xmlns="http://www.w3.org/2000/svg" xmlns:xlink="http://www.w3.org/1999/xlink" x="0px" y="0px"
	 viewBox="0 0 100 100" enable-background="new 0 0 100 100" xml:space="preserve">
<g>
	<path fill="#FFFFFF" d="M84.5,27.7C84.5,27.7,84.5,27.7,84.5,27.7C79.2,19.3,70.9,14.1,62,12.6c0.1-0.6,0-1.3-0.3-1.9
		c-0.6-1.2-2-1.8-3.3-1.5L40,12.9l-2.5-7.8C37.1,4,36.1,3.2,34.9,3c-1.2-0.1-2.3,0.4-2.9,1.5l-5.5,9.3c-3.7-2.8-8.3-4.8-12.9-4.8
		c-1.7,0-3,1.4-3,3c0,1.7,1.4,3,3,3c3.5,0,7,1.7,9.8,4L5.8,30.8c-1.1,0.7-1.6,2.1-1.2,3.4c0.4,1.3,1.6,2.2,2.9,2.2h8.1l-5,17.4
		c-0.4,1.3,0.2,2.7,1.4,3.4c0.5,0.3,1,0.4,1.6,0.4c0,9.9,4.4,19.5,12.5,25.7C38,92.4,55.5,97,77.9,97c0.8,0,1.7,0,2.6,0
		c7-0.1,13-5.5,13.9-12.5C97.2,61.6,93.9,42.5,84.5,27.7z M88.3,83.8c-0.5,4-3.9,7.1-8,7.2c-22.3,0.3-39.3-3.9-50.6-12.5
		c-7.9-6.1-11.5-16.2-9.7-26l4.4-4.2c-4,10-1.1,21.4,7.2,27.8c10.3,7.9,25.9,11.9,46.3,11.9c0.8,0,1.6,0,2.5,0c1.7,0,3-1.4,3-3.1
		c0-1.7-1.4-3-3-3c0,0,0,0-0.1,0c-20.2,0.4-35.3-3.3-45-10.6c-6.5-5-8.5-14.2-4.7-21.9l7.9,10.2c0.6,0.8,1.5,1.2,2.4,1.2
		c0.3,0,0.7-0.1,1-0.2c1.2-0.4,2.1-1.6,2.1-2.9V36l21.6-2.7c1.4-0.2,2.4-1.2,2.6-2.6c0.2-1.4-0.6-2.7-1.9-3.2l-12.8-5.2l3.9-4
		c8.6,0.2,17,4.7,22.1,12.7C88,44.6,91,62.3,88.3,83.8z M27.3,23.7C27.4,23.7,27.4,23.7,27.3,23.7c0.9,1.2,1.4,2.5,1.4,3.5
		c0,1.7,1.4,3,3,3c1.7,0,3-1.4,3-3c0-2.9-1.4-6.1-3.8-9.1l2.8-4.8l1.3,4c0.5,1.5,2,2.3,3.5,2L50,17.1l-4.1,4.2
		c-0.7,0.7-1,1.7-0.8,2.7c0.2,1,0.9,1.8,1.8,2.2l6.2,2.5l-12.8,1.6c-1.5,0.2-2.7,1.5-2.7,3v15.4l-7.6-9.8c-0.5-0.7-1.3-1.1-2.2-1.2
		c-0.1,0-0.1,0-0.2,0c-0.8,0-1.5,0.3-2.1,0.9l-6.1,5.9l2.9-10.3c0.3-0.9,0.1-1.9-0.5-2.7c-0.6-0.8-1.5-1.2-2.4-1.2h-2.1L27.3,23.7z"
		/>
	<path fill="#FFFFFF" d="M53.8,47.6c0.6,0.6,1.4,0.9,2.1,0.9c0.8,0,1.6-0.3,2.1-0.9c1.2-1.2,1.2-3.1,0-4.3l-3-3
		c-1.2-1.2-3.1-1.2-4.3,0c-1.2,1.2-1.2,3.1,0,4.3L53.8,47.6z"/>
	<path fill="#FFFFFF" d="M72,44.6c0.6,0.6,1.4,0.9,2.1,0.9c0.8,0,1.6-0.3,2.1-0.9c1.2-1.2,1.2-3.1,0-4.3l-3-3
		c-1.2-1.2-3.1-1.2-4.3,0c-1.2,1.2-1.2,3.1,0,4.3L72,44.6z"/>
	<path fill="#FFFFFF" d="M58.1,64.6l-3-3c-1.2-1.2-3.1-1.2-4.3,0c-1.2,1.2-1.2,3.1,0,4.3l3,3c0.6,0.6,1.4,0.9,2.1,0.9
		c0.8,0,1.6-0.3,2.1-0.9C59.3,67.7,59.3,65.7,58.1,64.6z"/>
	<path fill="#FFFFFF" d="M65.9,59.7c0.6,0.6,1.4,0.9,2.1,0.9c0.8,0,1.6-0.3,2.1-0.9c1.2-1.2,1.2-3.1,0-4.3l-3-3
		c-1.2-1.2-3.1-1.2-4.3,0c-1.2,1.2-1.2,3.1,0,4.3L65.9,59.7z"/>
	<path fill="#FFFFFF" d="M78.1,59.7l3,3c0.6,0.6,1.4,0.9,2.1,0.9c0.8,0,1.6-0.3,2.1-0.9c1.2-1.2,1.2-3.1,0-4.3l-3-3
		c-1.2-1.2-3.1-1.2-4.3,0C76.9,56.6,76.9,58.6,78.1,59.7z"/>
	<path fill="#FFFFFF" d="M73.3,67.6c-1.2-1.2-3.1-1.2-4.3,0c-1.2,1.2-1.2,3.1,0,4.3l3,3c0.6,0.6,1.4,0.9,2.1,0.9
		c0.8,0,1.6-0.3,2.1-0.9c1.2-1.2,1.2-3.1,0-4.3L73.3,67.6z"/>
</g>
</svg>
