<?xml version="1.0" encoding="UTF-8" standalone="no"?>
<svg
   xmlns:dc="http://purl.org/dc/elements/1.1/"
   xmlns:cc="http://creativecommons.org/ns#"
   xmlns:rdf="http://www.w3.org/1999/02/22-rdf-syntax-ns#"
   xmlns:svg="http://www.w3.org/2000/svg"
   xmlns="http://www.w3.org/2000/svg"
   xmlns:sodipodi="http://sodipodi.sourceforge.net/DTD/sodipodi-0.dtd"
   xmlns:inkscape="http://www.inkscape.org/namespaces/inkscape"
   version="1.1"
   id="Layer_1"
   x="0px"
   y="0px"
   viewBox="0 0 100 100"
   enable-background="new 0 0 100 100"
   xml:space="preserve"
   sodipodi:docname="Fresa N.svg"
   inkscape:version="1.0.1 (3bc2e813f5, 2020-09-07)"><metadata
   id="metadata23"><rdf:RDF><cc:Work
       rdf:about=""><dc:format>image/svg+xml</dc:format><dc:type
         rdf:resource="http://purl.org/dc/dcmitype/StillImage" /><dc:title></dc:title></cc:Work></rdf:RDF></metadata><defs
   id="defs21" /><sodipodi:namedview
   pagecolor="#ffffff"
   bordercolor="#666666"
   borderopacity="1"
   objecttolerance="10"
   gridtolerance="10"
   guidetolerance="10"
   inkscape:pageopacity="0"
   inkscape:pageshadow="2"
   inkscape:window-width="1920"
   inkscape:window-height="1017"
   id="namedview19"
   showgrid="false"
   inkscape:zoom="8.5"
   inkscape:cx="75.428886"
   inkscape:cy="50"
   inkscape:window-x="-8"
   inkscape:window-y="-8"
   inkscape:window-maximized="1"
   inkscape:current-layer="Layer_1" />
<g
   id="g16"
   transform="translate(96.588235,1.8823529)">
	<path
   fill="#2c3136"
   d="m 84.5,27.7 c 0,0 0,0 0,0 C 79.2,19.3 70.9,14.1 62,12.6 62.1,12 62,11.3 61.7,10.7 61.1,9.5 59.7,8.9 58.4,9.2 L 40,12.9 37.5,5.1 C 37.1,4 36.1,3.2 34.9,3 33.7,2.9 32.6,3.4 32,4.5 l -5.5,9.3 C 22.8,11 18.2,9 13.6,9 c -1.7,0 -3,1.4 -3,3 0,1.7 1.4,3 3,3 3.5,0 7,1.7 9.8,4 L 5.8,30.8 c -1.1,0.7 -1.6,2.1 -1.2,3.4 0.4,1.3 1.6,2.2 2.9,2.2 h 8.1 l -5,17.4 c -0.4,1.3 0.2,2.7 1.4,3.4 0.5,0.3 1,0.4 1.6,0.4 0,9.9 4.4,19.5 12.5,25.7 C 38,92.4 55.5,97 77.9,97 c 0.8,0 1.7,0 2.6,0 7,-0.1 13,-5.5 13.9,-12.5 2.8,-22.9 -0.5,-42 -9.9,-56.8 z m 3.8,56.1 c -0.5,4 -3.9,7.1 -8,7.2 C 58,91.3 41,87.1 29.7,78.5 21.8,72.4 18.2,62.3 20,52.5 l 4.4,-4.2 c -4,10 -1.1,21.4 7.2,27.8 C 41.9,84 57.5,88 77.9,88 c 0.8,0 1.6,0 2.5,0 1.7,0 3,-1.4 3,-3.1 0,-1.7 -1.4,-3 -3,-3 0,0 0,0 -0.1,0 C 60.1,82.3 45,78.6 35.3,71.3 28.8,66.3 26.8,57.1 30.6,49.4 l 7.9,10.2 c 0.6,0.8 1.5,1.2 2.4,1.2 0.3,0 0.7,-0.1 1,-0.2 C 43.1,60.2 44,59 44,57.7 V 36 L 65.6,33.3 C 67,33.1 68,32.1 68.2,30.7 68.4,29.3 67.6,28 66.3,27.5 l -12.8,-5.2 3.9,-4 C 66,18.5 74.4,23 79.5,31 88,44.6 91,62.3 88.3,83.8 Z m -61,-60.1 c 0.1,0 0.1,0 0,0 0.9,1.2 1.4,2.5 1.4,3.5 0,1.7 1.4,3 3,3 1.7,0 3,-1.4 3,-3 0,-2.9 -1.4,-6.1 -3.8,-9.1 l 2.8,-4.8 1.3,4 c 0.5,1.5 2,2.3 3.5,2 L 50,17.1 45.9,21.3 c -0.7,0.7 -1,1.7 -0.8,2.7 0.2,1 0.9,1.8 1.8,2.2 l 6.2,2.5 -12.8,1.6 c -1.5,0.2 -2.7,1.5 -2.7,3 V 48.7 L 30,38.9 c -0.5,-0.7 -1.3,-1.1 -2.2,-1.2 -0.1,0 -0.1,0 -0.2,0 -0.8,0 -1.5,0.3 -2.1,0.9 l -6.1,5.9 2.9,-10.3 c 0.3,-0.9 0.1,-1.9 -0.5,-2.7 -0.6,-0.8 -1.5,-1.2 -2.4,-1.2 h -2.1 z"
   id="path2" />
	<path
   fill="#2c3136"
   d="m 53.8,47.6 c 0.6,0.6 1.4,0.9 2.1,0.9 0.8,0 1.6,-0.3 2.1,-0.9 1.2,-1.2 1.2,-3.1 0,-4.3 l -3,-3 c -1.2,-1.2 -3.1,-1.2 -4.3,0 -1.2,1.2 -1.2,3.1 0,4.3 z"
   id="path4" />
	<path
   fill="#2c3136"
   d="m 72,44.6 c 0.6,0.6 1.4,0.9 2.1,0.9 0.8,0 1.6,-0.3 2.1,-0.9 1.2,-1.2 1.2,-3.1 0,-4.3 l -3,-3 c -1.2,-1.2 -3.1,-1.2 -4.3,0 -1.2,1.2 -1.2,3.1 0,4.3 z"
   id="path6" />
	<path
   fill="#2c3136"
   d="m 58.1,64.6 -3,-3 c -1.2,-1.2 -3.1,-1.2 -4.3,0 -1.2,1.2 -1.2,3.1 0,4.3 l 3,3 c 0.6,0.6 1.4,0.9 2.1,0.9 0.8,0 1.6,-0.3 2.1,-0.9 1.3,-1.2 1.3,-3.2 0.1,-4.3 z"
   id="path8" />
	<path
   fill="#2c3136"
   d="m 65.9,59.7 c 0.6,0.6 1.4,0.9 2.1,0.9 0.8,0 1.6,-0.3 2.1,-0.9 1.2,-1.2 1.2,-3.1 0,-4.3 l -3,-3 c -1.2,-1.2 -3.1,-1.2 -4.3,0 -1.2,1.2 -1.2,3.1 0,4.3 z"
   id="path10" />
	<path
   fill="#2c3136"
   d="m 78.1,59.7 3,3 c 0.6,0.6 1.4,0.9 2.1,0.9 0.8,0 1.6,-0.3 2.1,-0.9 1.2,-1.2 1.2,-3.1 0,-4.3 l -3,-3 c -1.2,-1.2 -3.1,-1.2 -4.3,0 -1.1,1.2 -1.1,3.2 0.1,4.3 z"
   id="path12" />
	<path
   fill="#2c3136"
   d="m 73.3,67.6 c -1.2,-1.2 -3.1,-1.2 -4.3,0 -1.2,1.2 -1.2,3.1 0,4.3 l 3,3 c 0.6,0.6 1.4,0.9 2.1,0.9 0.8,0 1.6,-0.3 2.1,-0.9 1.2,-1.2 1.2,-3.1 0,-4.3 z"
   id="path14" />
</g>
<path
   style="fill:#ffaacc;stroke:#ffffff;stroke-width:0.117647"
   d="M 71.588235,96.463004 C 52.162074,95.551184 37.3655,91.170221 26.621345,83.149233 18.93554,77.411438 14.34145,68.635652 13.808932,58.674527 l -0.07863,-1.470789 -0.514238,-0.07049 c -1.397103,-0.191494 -2.510184,-1.42995 -2.510184,-2.792926 0,-0.441348 0.695337,-3.028167 2.529412,-9.410016 1.391177,-4.84074 2.529412,-8.82798 2.529412,-8.860534 0,-0.03255 -1.99853,-0.07481 -4.441177,-0.09389 L 6.882353,35.941177 6.2384263,35.575943 C 4.4182962,34.543566 4.1057727,32.152591 5.6160846,30.814688 5.8662503,30.59308 9.9966692,27.791177 14.794793,24.588235 c 4.798125,-3.202941 8.725201,-5.87647 8.726836,-5.941176 0.0042,-0.165296 -1.358867,-1.154258 -2.60912,-1.893054 -2.148686,-1.269697 -4.319351,-1.967967 -6.68587,-2.150745 -0.81769,-0.06315 -1.50524,-0.179443 -1.72119,-0.291115 C 10.98201,13.524344 10.398712,11.821022 11.147059,10.345434 11.698387,9.2583242 12.657364,8.7075436 14,8.7068699 c 3.486355,-0.00175 8.400252,1.7632401 11.785382,4.2331141 0.455199,0.332124 0.843873,0.587379 0.863721,0.567233 0.01985,-0.02015 1.282796,-2.143203 2.80655,-4.7179054 1.523755,-2.5747021 2.88187,-4.8377332 3.018034,-5.0289579 0.380161,-0.5338869 1.186999,-0.9497045 1.982788,-1.0218642 0.57548,-0.052183 0.798126,-0.013248 1.323576,0.2314605 0.676451,0.3150309 1.31024,0.8750812 1.579461,1.3956975 0.09133,0.1766198 0.730364,2.0857202 1.420069,4.2424455 0.689705,2.156726 1.267679,3.938136 1.284388,3.95869 0.01671,0.02055 4.34621,-0.825351 9.621112,-1.87979 9.212562,-1.8415661 9.613126,-1.9113197 10.158707,-1.769023 1.26423,0.3297324 2.119053,1.367352 2.241817,2.721207 l 0.06179,0.681397 0.838069,0.147134 c 0.460938,0.08092 1.632186,0.374159 2.602774,0.651635 8.011476,2.290357 14.720453,7.408498 19.197479,14.645363 7.115193,11.501314 10.625605,25.108438 10.625982,41.188634 1.18e-4,5.856544 -0.648461,14.360687 -1.283955,16.83467 -1.351522,5.261476 -5.456936,9.220127 -10.910632,10.520587 -0.654711,0.15612 -1.619524,0.197815 -5.158286,0.222922 -2.394117,0.01698 -5.305882,-0.01385 -6.470588,-0.06852 z m 11.176471,-6.151146 c 2.667546,-0.932948 4.463073,-2.725411 5.369682,-5.360518 0.26302,-0.764481 0.477471,-2.332321 0.797934,-5.833693 C 90.363465,63.481088 88.659529,49.95491 83.826707,38.588235 82.438103,35.322277 80.182616,31.196924 78.634262,29.091098 73.897578,22.649013 66.870635,18.660919 59.06276,17.983424 l -1.584298,-0.137472 -1.96409,2.047613 c -1.481514,1.544514 -1.922614,2.071108 -1.795283,2.143245 0.09284,0.0526 3.039619,1.260648 6.548389,2.684556 3.508769,1.423908 6.508015,2.672022 6.664989,2.773586 1.852421,1.198529 1.711974,4.052118 -0.248328,5.045479 -0.546005,0.276681 -1.506266,0.415483 -11.57702,1.67342 l -10.981632,1.371714 -0.03333,11.177806 c -0.03323,11.142913 -0.03412,11.179459 -0.285006,11.707217 -0.897074,1.887049 -3.20755,2.476276 -4.645098,1.184613 -0.257032,-0.230949 -2.226285,-2.692356 -4.376117,-5.469794 -2.149831,-2.777437 -3.967522,-5.069466 -4.039314,-5.093396 -0.162804,-0.05427 -0.894926,1.675641 -1.277195,3.017844 -1.477151,5.1865 -0.660485,10.598573 2.263641,15.001218 1.852446,2.789093 4.834689,5.125178 9.678699,7.581628 9.193773,4.662264 21.193823,6.939022 36.647058,6.953009 1.617648,0.0015 3.132965,0.05593 3.367373,0.121045 0.568522,0.157919 1.437196,0.939452 1.740422,1.565832 0.278936,0.576206 0.32262,1.499178 0.105288,2.224568 -0.181983,0.607405 -1.02997,1.544037 -1.6069,1.774878 -0.769386,0.307847 -1.675515,0.336561 -6.547361,0.207479 C 66.785187,87.318738 61.646625,86.79706 55.294118,85.526985 49.180098,84.304591 44.405348,82.750839 39.564193,80.40831 32.105286,76.799108 27.792622,72.932523 25.180386,67.512286 23.457798,63.938015 22.715055,60.33183 22.859098,56.24189 c 0.09232,-2.621475 0.551121,-5.059083 1.379322,-7.32841 0.191542,-0.524839 0.327108,-0.975402 0.301258,-1.001253 -0.02585,-0.02585 -1.049527,0.90924 -2.274838,2.07798 l -2.227837,2.124983 -0.151222,0.971816 c -0.253832,1.631232 -0.291839,5.677906 -0.06935,7.383582 0.645817,4.951035 2.40371,9.260683 5.346886,13.108425 4.998928,6.535318 15.485077,12.023642 28.193334,14.756054 7.475517,1.607317 15.457891,2.36776 24.408054,2.32524 l 4.058823,-0.01928 z M 37.790995,40.264706 c 0.03239,-8.052655 0.03366,-8.090341 0.28872,-8.566848 0.338591,-0.632563 1.05528,-1.266713 1.696333,-1.500971 0.292572,-0.106914 3.283275,-0.527809 6.871011,-0.966989 3.494117,-0.42772 6.432353,-0.803484 6.529412,-0.835031 0.09706,-0.03155 -1.301002,-0.658609 -3.1068,-1.393473 -1.8058,-0.734863 -3.420506,-1.437781 -3.588236,-1.562039 -0.558402,-0.413672 -1.046859,-1.174535 -1.18681,-1.848675 -0.112113,-0.540047 -0.102527,-0.760689 0.05687,-1.308987 0.21912,-0.753748 0.419634,-0.99448 3.048409,-3.659853 0.970942,-0.984457 1.734782,-1.82049 1.697422,-1.857849 -0.03736,-0.03736 -2.699903,0.437224 -5.916765,1.05463 -3.216862,0.617405 -6.042595,1.120232 -6.279405,1.117392 -0.881948,-0.01058 -1.932345,-0.597799 -2.382613,-1.331993 -0.124373,-0.202799 -0.540693,-1.320766 -0.925154,-2.484372 -0.384463,-1.163604 -0.741431,-2.127607 -0.793264,-2.142227 -0.05183,-0.01462 -0.72001,1.055735 -1.484841,2.378567 l -1.390601,2.405151 0.519434,0.678254 c 1.902308,2.48395 3.110032,5.381086 3.230592,7.749674 0.07095,1.393954 -0.03402,1.805157 -0.642227,2.515706 -0.866987,1.012881 -2.229548,1.326441 -3.38542,0.779073 -1.122892,-0.531749 -1.637168,-1.323306 -1.775741,-2.733156 -0.04376,-0.445232 -0.197889,-1.128417 -0.342504,-1.518187 -0.337081,-0.908513 -0.987843,-1.967995 -1.166651,-1.899379 -0.07612,0.02921 -2.359328,1.527968 -5.073807,3.330579 l -4.935415,3.277474 1.470588,0.06448 c 1.599204,0.07012 2.078054,0.225631 2.753733,0.894277 0.485514,0.480461 0.891498,1.413166 0.888501,2.041239 -0.0015,0.315835 -0.612965,2.688908 -1.515677,5.882353 -0.832233,2.944117 -1.494224,5.37312 -1.47109,5.397783 0.02313,0.02466 1.477172,-1.351807 3.231196,-3.058823 1.754022,-1.707017 3.410314,-3.236019 3.680647,-3.397784 0.664108,-0.397396 1.902054,-0.411942 2.624244,-0.03084 0.644609,0.340164 0.819036,0.548417 4.984917,5.951614 1.973529,2.55969 3.626536,4.657014 3.673348,4.66072 0.04681,0.0037 0.09975,-3.632969 0.117647,-8.081498 z"
   id="path848" /><path
   style="fill:#ffaacc;stroke:#ffffff;stroke-width:0.117647"
   d="m 55.293356,48.366347 c -0.162184,-0.05246 -0.478687,-0.19043 -0.703341,-0.306603 -0.580283,-0.300076 -3.957273,-3.548326 -4.317246,-4.152662 -0.67575,-1.13447 -0.423036,-2.719202 0.577817,-3.623413 0.621328,-0.561332 1.186499,-0.787732 1.972943,-0.790336 1.135456,-0.0038 1.610947,0.304044 3.654258,2.365534 1.065095,1.074571 1.922584,2.043821 2.050368,2.317604 0.856596,1.835299 -0.362329,4.013532 -2.364029,4.224547 -0.31674,0.03339 -0.708586,0.01779 -0.87077,-0.03467 z"
   id="path850" /><path
   style="fill:#ffaacc;stroke:#ffffff;stroke-width:0.117647"
   d="m 73.159083,45.248127 c -0.593105,-0.211879 -0.853621,-0.431484 -2.850349,-2.402727 -1.930232,-1.905597 -2.184498,-2.294713 -2.188503,-3.349179 -0.0079,-2.087132 1.920028,-3.496707 3.893092,-2.846334 0.552966,0.182272 0.867976,0.439914 2.471638,2.02152 2.175213,2.145296 2.513041,2.656837 2.509025,3.799181 -0.0031,0.894389 -0.260274,1.471167 -0.954606,2.141315 -0.79189,0.764309 -1.860815,1.000423 -2.880297,0.636224 z"
   id="path852" /><path
   style="fill:#ffaacc;stroke:#ffffff;stroke-width:0.117647"
   d="m 67.449576,60.477653 c -0.673873,-0.16499 -1.216184,-0.579584 -3.053495,-2.334382 -2.022568,-1.931734 -2.396543,-2.47658 -2.395425,-3.4899 0.0011,-0.959867 0.196857,-1.443186 0.860985,-2.125312 0.987114,-1.013864 2.201435,-1.23245 3.432477,-0.617868 0.258823,0.129214 1.274292,1.036105 2.256596,2.015313 1.920598,1.914543 2.387045,2.608274 2.389313,3.553538 0.0044,1.847954 -1.81302,3.40931 -3.490451,2.998611 z"
   id="path854" /><path
   style="fill:#ffaacc;stroke:#ffffff;stroke-width:0.117647"
   d="m 82.058824,63.256369 c -0.420052,-0.204065 -1.146766,-0.853393 -2.541733,-2.27107 -2.176325,-2.211754 -2.277063,-2.380312 -2.203253,-3.686553 0.08511,-1.50619 1.118947,-2.58288 2.581682,-2.688684 1.221774,-0.08838 1.557562,0.114683 3.735763,2.259104 2.095438,2.06294 2.48312,2.626594 2.485215,3.613278 0.0046,2.160498 -2.20752,3.672749 -4.057674,2.773925 z"
   id="path856" /><path
   style="fill:#ffaacc;stroke:#ffffff;stroke-width:0.117647"
   d="m 73.238507,75.574575 c -0.501086,-0.158636 -0.860956,-0.457893 -2.50823,-2.085774 -1.057764,-1.045311 -2.023947,-2.06331 -2.147074,-2.26222 -0.661085,-1.067973 -0.502145,-2.454223 0.393302,-3.430316 0.920092,-1.002958 2.240355,-1.286759 3.415772,-0.734248 0.67096,0.315388 4.018157,3.740885 4.338387,4.439872 0.495722,1.082048 0.328468,2.27836 -0.444842,3.181798 -0.783274,0.91508 -1.920616,1.247584 -3.047315,0.890888 z"
   id="path858" /><path
   style="fill:#ffaacc;stroke:#ffffff;stroke-width:0.117647"
   d="m 55.003213,69.575452 c -0.500303,-0.159138 -0.862434,-0.460305 -2.500658,-2.079677 -2.160078,-2.135221 -2.503303,-2.646305 -2.501406,-3.724757 0.0021,-1.177266 0.780499,-2.343274 1.867614,-2.7975 0.6128,-0.256044 1.672673,-0.222109 2.282451,0.07308 0.325038,0.157348 1.234187,0.981253 2.512003,2.276471 1.750901,1.774745 2.021887,2.100321 2.156041,2.590379 0.278095,1.015863 0.0044,1.981417 -0.802809,2.831816 -0.840154,0.885146 -1.912034,1.180464 -3.013236,0.830189 z"
   id="path860" /></svg>
