<?xml version="1.0" encoding="UTF-8" standalone="no"?>
<svg
   xmlns:dc="http://purl.org/dc/elements/1.1/"
   xmlns:cc="http://creativecommons.org/ns#"
   xmlns:rdf="http://www.w3.org/1999/02/22-rdf-syntax-ns#"
   xmlns:svg="http://www.w3.org/2000/svg"
   xmlns="http://www.w3.org/2000/svg"
   xmlns:sodipodi="http://sodipodi.sourceforge.net/DTD/sodipodi-0.dtd"
   xmlns:inkscape="http://www.inkscape.org/namespaces/inkscape"
   version="1.1"
   id="Layer_1"
   x="0px"
   y="0px"
   viewBox="0 0 100 100"
   enable-background="new 0 0 100 100"
   xml:space="preserve"
   sodipodi:docname="Frijol color.svg"
   inkscape:version="1.0.1 (3bc2e813f5, 2020-09-07)"><metadata
   id="metadata13"><rdf:RDF><cc:Work
       rdf:about=""><dc:format>image/svg+xml</dc:format><dc:type
         rdf:resource="http://purl.org/dc/dcmitype/StillImage" /><dc:title></dc:title></cc:Work></rdf:RDF></metadata><defs
   id="defs11" /><sodipodi:namedview
   pagecolor="#ffffff"
   bordercolor="#666666"
   borderopacity="1"
   objecttolerance="10"
   gridtolerance="10"
   guidetolerance="10"
   inkscape:pageopacity="0"
   inkscape:pageshadow="2"
   inkscape:window-width="1920"
   inkscape:window-height="1017"
   id="namedview9"
   showgrid="false"
   inkscape:zoom="8.5"
   inkscape:cx="28.285557"
   inkscape:cy="50"
   inkscape:window-x="-8"
   inkscape:window-y="-8"
   inkscape:window-maximized="1"
   inkscape:current-layer="Layer_1" />
<g
   id="g6"
   transform="translate(-99.529412,-0.35294118)">
	<path
   fill="#2c3136"
   d="M 91.1,50.8 C 86.5,46.2 80.1,44.1 73.7,44.9 71.9,41.7 69.2,38.9 65.9,37 65.8,36.9 65.7,36.9 65.6,36.8 L 64.5,36.3 C 58,33.6 47.2,29 44,17.6 43.7,16.6 43.3,15.5 42.9,14.8 42.7,14.2 42,13.1 42,13.1 v 0 C 38.4,6.7 31.4,2.6 24,2.6 12.4,2.6 3,12 3,23.6 3,37.2 6.8,48.6 13.5,57.4 10.4,64.9 11.9,73.9 17.9,80 29,91.1 41.8,96.7 54.5,96.7 67.2,96.7 80,91.1 91.1,80 c 8.1,-8.1 8.1,-21.2 0,-29.2 z m -69,25 c -5.8,-5.8 -5.8,-15.1 0,-20.9 2.8,-2.8 6.6,-4.3 10.5,-4.3 1.3,0 2.6,0.2 3.9,0.5 0,0 0.5,0.1 1,0.3 0.8,0.3 1.5,0.6 2.1,0.9 0.5,0.3 1,0.5 1.6,0.8 -0.1,5.9 2.4,10.5 7.1,12.9 2.2,1.1 4.6,1.6 7.1,1.6 4.2,0 8.4,-1.5 11.4,-4.3 3.2,-3 4.3,-7 3.4,-11.2 0.6,-0.2 1.2,-0.5 1.8,-0.7 L 72.9,51 c 5.1,-1.3 10.5,0.2 14.2,3.8 5.8,5.8 5.8,15.1 0,20.9 -20.1,20.1 -45,20.1 -65,0.1 z M 37,16.1 c 0,0 0.3,0.5 0.5,1 0.4,0.7 0.6,1.5 0.8,2.2 0.1,0.3 0.2,0.6 0.3,0.9 -5.1,4.2 -7,9.5 -5.3,14.8 2,6.4 9.2,11.6 16.1,11.6 0.1,0 0.1,0 0.1,0 4.4,0 7.9,-2.2 9.9,-6.1 1,0.4 1.9,0.8 2.8,1.2 l 0.9,0.4 c 1.9,1.1 3.5,2.7 4.8,4.5 -6.5,2.6 -16.2,5.8 -25.5,0.6 -0.9,-0.5 -1.9,-1 -2.7,-1.2 -0.6,-0.3 -1.8,-0.6 -1.8,-0.6 0,0 0,0 0,0 -4.8,-1.3 -9.8,-0.8 -14.2,1.3 -3.9,-6 -6,-13.8 -6,-23.1 0,-1.6 -1.3,-2.9 -2.9,-2.9 -1.6,0 -2.9,1.3 -2.9,2.9 0,10.4 2.5,19.3 7.1,26.3 -0.3,0.3 -0.7,0.6 -1,0.9 -0.4,0.4 -0.8,0.8 -1.1,1.3 C 11.8,44.6 9,35 9,23.7 9,15.4 15.8,8.6 24.1,8.6 29.3,8.5 34.3,11.4 37,16.1 Z m 2,17.2 c -1,-3 0.4,-5.5 2.2,-7.4 3.3,5.7 8.3,9.5 13,12.1 -1,1.8 -2.6,2.8 -4.7,2.8 -4.3,0 -9.2,-3.5 -10.5,-7.5 z m 12,27.5 c -2.1,-1.1 -3.4,-2.9 -3.8,-5.5 6.3,1.4 12.3,0.4 17.3,-1.1 0.2,1.9 -0.3,3.6 -1.8,4.9 -2.8,2.7 -8.1,3.5 -11.7,1.7 z"
   id="path2" />
	<path
   fill="#2c3136"
   d="m 85,56.9 c -1.1,-1.1 -3,-1.1 -4.2,0 -1.1,1.1 -1.1,3 0,4.2 1.2,1.2 1.8,2.7 1.8,4.3 0,1.6 -0.6,3.2 -1.8,4.3 -16.7,16.7 -35.9,16.7 -52.6,0 -1.1,-1.1 -3,-1.1 -4.2,0 -1.1,1.1 -1.1,3 0,4.2 9.4,9.4 19.9,14.1 30.5,14.1 10.5,0 21.1,-4.7 30.4,-14.1 2.3,-2.3 3.5,-5.3 3.5,-8.5 0.1,-3.2 -1.2,-6.2 -3.4,-8.5 z"
   id="path4" />
</g>
<path
   style="fill:#d38d5f;stroke:#ffffff;stroke-width:0.117647"
   d="M 49.788351,96.175587 C 38.547617,94.898039 27.833982,89.543008 18.722738,80.64796 16.209074,78.193942 15.150074,76.80411 13.948166,74.381807 11.449916,69.34688 11.081423,63.721951 12.898851,58.364344 l 0.415173,-1.223892 -0.38628,-0.540814 C 10.950662,53.831612 9.7477588,51.837711 8.4139208,49.117647 4.9372879,42.027834 3.1131281,34.177968 2.8641151,25.235294 2.7862568,22.439211 2.8984687,20.86775 3.3133607,18.943875 4.8838744,11.661329 10.292896,5.7169586 17.429134,3.4310179 c 2.383565,-0.7635235 3.299943,-0.8940512 6.276748,-0.8940512 2.378103,0 2.85493,0.032483 3.936292,0.2681544 2.9092,0.6340286 5.886712,1.9254954 8.107946,3.5167427 3.650773,2.6153405 6.468005,6.5063782 7.889141,10.8961402 0.690713,2.133549 0.966627,2.835091 1.658127,4.215982 1.175286,2.346985 2.677846,4.331115 4.838727,6.389544 3.036767,2.892784 6.961151,5.271016 12.805062,7.760047 3.148209,1.340881 4.849856,2.452416 6.941195,4.53407 1.09124,1.086185 2.421122,2.756608 3.128461,3.929559 l 0.347724,0.576618 2.703075,0.01678 c 2.445047,0.01518 2.844107,0.0468 4.180528,0.331264 8.532564,1.816176 14.917173,8.397402 16.348214,16.85166 0.227736,1.345409 0.25133,1.812491 0.19611,3.882352 -0.05103,1.912964 -0.117386,2.597348 -0.354842,3.659992 -0.588518,2.633691 -1.555748,4.922999 -3.008148,7.119899 -1.022133,1.546078 -2.17043,2.856908 -4.020284,4.589327 -9.158592,8.577167 -18.897665,13.493904 -29.697328,14.99259 -1.949274,0.270503 -7.91568,0.335415 -9.917531,0.107897 z m 7.741061,-5.710753 c 9.503885,-0.8612 18.424079,-5.030088 26.85043,-12.548655 3.552471,-3.169758 5.144857,-5.295835 6.085666,-8.125295 1.155592,-3.475407 1.055856,-7.009583 -0.292156,-10.352593 -1.860925,-4.615018 -5.855373,-7.859031 -10.996881,-8.930904 -0.72796,-0.151761 -1.512076,-0.206542 -2.882353,-0.201373 -2.240326,0.0084 -3.003094,0.153657 -5.002246,0.952257 -1.338746,0.534788 -1.411284,0.580722 -1.345645,0.852123 0.18473,0.763813 0.297059,2.40386 0.226117,3.301371 -0.23157,2.929653 -1.387586,5.340299 -3.569662,7.443825 -2.154076,2.076535 -4.716949,3.388467 -8.014447,4.102587 -1.043428,0.225969 -1.58248,0.267297 -3.470588,0.266088 -1.989369,-0.0013 -2.377672,-0.03492 -3.529412,-0.305786 -3.663361,-0.861559 -6.385313,-2.656217 -8.262801,-5.447891 -1.338692,-1.990527 -2.093015,-4.41248 -2.228396,-7.154851 l -0.07443,-1.507792 -0.904936,-0.454993 c -1.599993,-0.804461 -3.178541,-1.407057 -4.339014,-1.656377 -1.656327,-0.355851 -4.337219,-0.433582 -5.906112,-0.171244 -3.151116,0.526904 -5.888231,1.935815 -8.112384,4.175793 -4.482836,4.514729 -5.570287,11.328294 -2.719737,17.04084 0.996447,1.996895 2.015631,3.24304 4.574319,5.59297 8.721115,8.009576 17.855177,12.329392 27.855848,13.174004 1.126126,0.09511 4.819207,0.06822 6.058824,-0.0441 z m 0.201146,-29.162109 c 1.969086,-0.406351 3.730381,-1.33518 5.034148,-2.654787 1.096682,-1.110006 1.584234,-2.314591 1.586839,-3.920572 0.0012,-0.764328 -0.02169,-0.854236 -0.204486,-0.801725 -2.352473,0.675792 -3.425294,0.927836 -5.285414,1.241729 -3.763503,0.635087 -7.170721,0.6528 -10.724117,0.05575 -0.60377,-0.101447 -1.131526,-0.150688 -1.172788,-0.109426 -0.131408,0.131408 0.315918,1.620008 0.75867,2.524682 0.91501,1.869636 2.931928,3.289834 5.34426,3.763125 0.989589,0.194153 3.501241,0.140949 4.662888,-0.09877 z M 16.82353,51.753013 c 0,-0.07114 0.451587,-0.571869 1.003525,-1.112738 l 1.003527,-0.983396 -0.835417,-1.387262 c -3.806633,-6.321159 -5.946059,-14.16307 -6.193608,-22.702227 -0.08202,-2.829098 -0.01218,-3.278968 0.624433,-4.022711 1.406122,-1.642737 4.08715,-1.142644 4.796132,0.894622 0.09394,0.269925 0.183839,1.350621 0.230072,2.76563 0.237754,7.276667 1.731107,13.524182 4.478304,18.735203 0.91538,1.73634 1.389976,2.521858 1.526609,2.526736 0.05729,0.002 0.630927,-0.207619 1.274747,-0.46592 2.935977,-1.177919 6.201313,-1.68327 9.150499,-1.41615 3.026833,0.274152 5.393658,0.993952 8.647059,2.62975 2.270615,1.141657 3.797219,1.690954 6,2.158898 1.441923,0.306313 1.701022,0.324892 4.529412,0.324786 3.365526,-1.17e-4 4.580601,-0.150235 7.705882,-0.951979 1.576712,-0.404481 4.912676,-1.498629 6.341286,-2.07985 l 0.676762,-0.275337 -0.696237,-0.872004 c -0.883992,-1.107159 -2.358171,-2.511727 -3.326073,-3.169017 -0.632177,-0.429303 -4.265553,-2.114753 -4.558838,-2.114753 -0.05164,0 -0.291024,0.336988 -0.531959,0.748861 -2.182828,3.731486 -6.222148,5.709524 -10.724167,5.251577 -4.047234,-0.411686 -7.826026,-2.24975 -10.884841,-5.294555 -4.291125,-4.271475 -5.645174,-9.807789 -3.567931,-14.588236 0.884007,-2.034402 1.785024,-3.306855 3.623882,-5.117795 l 1.314218,-1.294267 -0.450611,-1.397493 C 37.201864,16.129527 35.999817,14.229174 34.0947,12.400687 31.28168,9.7008168 27.928978,8.3529412 24.026342,8.3529412 c -4.231245,0 -7.721805,1.3922626 -10.690499,4.2640678 -3.071127,2.970893 -4.6282702,6.760657 -4.6287202,11.265344 -8.98e-4,8.992544 2.1490832,18.007054 5.9059082,24.762485 1.33689,2.403963 2.210499,3.632341 2.210499,3.108175 z M 50.976759,40.351565 C 51.398195,40.221397 51.99936,39.939095 52.31268,39.72423 52.875614,39.338186 54,38.072597 54,37.825012 54,37.754702 53.642647,37.493445 53.205882,37.24444 51.813205,36.450459 49.511586,34.87918 48.176471,33.810941 45.679066,31.812742 42.929244,28.75873 41.487798,26.382353 41.242492,25.977941 40.995082,25.647059 40.938,25.647059 c -0.172238,0 -1.256589,1.408821 -1.644441,2.136505 -1.096093,2.056481 -1.198659,3.871278 -0.335915,5.94368 1.279691,3.073958 4.826871,5.898138 8.392035,6.68154 1.118792,0.245841 2.728082,0.220453 3.62708,-0.05722 z"
   id="path838" /><path
   style="fill:#d38d5f;stroke:#ffffff;stroke-width:0.117647"
   d="M 52.647059,87.872898 C 43.076762,87.387426 34.000666,83.137587 25.327496,75.080646 23.531541,73.412293 23.24579,72.918329 23.312494,71.597405 c 0.03761,-0.744761 0.09764,-0.952636 0.398939,-1.381325 0.195067,-0.277547 0.613584,-0.664707 0.930038,-0.860355 0.509245,-0.314841 0.67784,-0.355457 1.46695,-0.35339 1.134058,0.003 1.384543,0.136896 2.828728,1.512419 7.185253,6.843638 14.39828,10.61101 22.121675,11.554174 2.144427,0.261873 6.140754,0.178181 8.182897,-0.171368 7.170915,-1.227429 13.558478,-4.660546 20.371333,-10.948958 2.363507,-2.181568 2.985444,-3.318866 2.998912,-5.483935 0.0106,-1.704675 -0.443884,-2.911557 -1.609494,-4.273979 -0.908046,-1.061367 -1.144705,-1.933724 -0.824521,-3.039294 0.483344,-1.668948 2.461174,-2.495111 4.042262,-1.6885 0.618854,0.315716 1.717573,1.54514 2.414154,2.701346 1.649312,2.737575 2.129959,6.072203 1.324442,9.188701 -0.638707,2.471119 -1.580369,3.954461 -4.035273,6.356512 -5.637128,5.515765 -11.757322,9.331909 -18.377817,11.45918 -2.843747,0.913741 -6.076475,1.539218 -8.572293,1.658591 -0.69715,0.03334 -1.585191,0.07606 -1.973426,0.09492 -0.388235,0.01886 -1.447059,-0.0033 -2.352941,-0.04925 z"
   id="path840" /></svg>
