<?xml version="1.0" encoding="utf-8"?>
<!-- Generator: Adobe Illustrator 18.0.0, SVG Export Plug-In . SVG Version: 6.00 Build 0)  -->
<!DOCTYPE svg PUBLIC "-//W3C//DTD SVG 1.1//EN" "http://www.w3.org/Graphics/SVG/1.1/DTD/svg11.dtd">
<svg version="1.1" id="Layer_1" xmlns="http://www.w3.org/2000/svg" xmlns:xlink="http://www.w3.org/1999/xlink" x="0px" y="0px"
	 viewBox="0 0 100 100" enable-background="new 0 0 100 100" xml:space="preserve">
<g>
	<path fill="#2C3136" d="M91.1,50.8c-4.6-4.6-11-6.7-17.4-5.9c-1.8-3.2-4.5-6-7.8-7.9c-0.1-0.1-0.2-0.1-0.3-0.2l-1.1-0.5
		c-6.5-2.7-17.3-7.3-20.5-18.7c-0.3-1-0.7-2.1-1.1-2.8c-0.2-0.6-0.9-1.7-0.9-1.7l0,0C38.4,6.7,31.4,2.6,24,2.6C12.4,2.6,3,12,3,23.6
		c0,13.6,3.8,25,10.5,33.8c-3.1,7.5-1.6,16.5,4.4,22.6c11.1,11.1,23.9,16.7,36.6,16.7c12.7,0,25.5-5.6,36.6-16.7
		C99.2,71.9,99.2,58.8,91.1,50.8z M22.1,75.8c-5.8-5.8-5.8-15.1,0-20.9c2.8-2.8,6.6-4.3,10.5-4.3c1.3,0,2.6,0.2,3.9,0.5
		c0,0,0.5,0.1,1,0.3c0.8,0.3,1.5,0.6,2.1,0.9c0.5,0.3,1,0.5,1.6,0.8C41.1,59,43.6,63.6,48.3,66c2.2,1.1,4.6,1.6,7.1,1.6
		c4.2,0,8.4-1.5,11.4-4.3c3.2-3,4.3-7,3.4-11.2c0.6-0.2,1.2-0.5,1.8-0.7l0.9-0.4c5.1-1.3,10.5,0.2,14.2,3.8c5.8,5.8,5.8,15.1,0,20.9
		C67,95.8,42.1,95.8,22.1,75.8z M37,16.1c0,0,0.3,0.5,0.5,1c0.4,0.7,0.6,1.5,0.8,2.2c0.1,0.3,0.2,0.6,0.3,0.9
		c-5.1,4.2-7,9.5-5.3,14.8c2,6.4,9.2,11.6,16.1,11.6c0.1,0,0.1,0,0.1,0c4.4,0,7.9-2.2,9.9-6.1c1,0.4,1.9,0.8,2.8,1.2l0.9,0.4
		c1.9,1.1,3.5,2.7,4.8,4.5c-6.5,2.6-16.2,5.8-25.5,0.6c-0.9-0.5-1.9-1-2.7-1.2c-0.6-0.3-1.8-0.6-1.8-0.6s0,0,0,0
		c-4.8-1.3-9.8-0.8-14.2,1.3c-3.9-6-6-13.8-6-23.1c0-1.6-1.3-2.9-2.9-2.9c-1.6,0-2.9,1.3-2.9,2.9c0,10.4,2.5,19.3,7.1,26.3
		c-0.3,0.3-0.7,0.6-1,0.9c-0.4,0.4-0.8,0.8-1.1,1.3c-5.1-7.5-7.9-17.1-7.9-28.4c0-8.3,6.8-15.1,15.1-15.1
		C29.3,8.5,34.3,11.4,37,16.1z M39,33.3c-1-3,0.4-5.5,2.2-7.4c3.3,5.7,8.3,9.5,13,12.1c-1,1.8-2.6,2.8-4.7,2.8
		C45.2,40.8,40.3,37.3,39,33.3z M51,60.8c-2.1-1.1-3.4-2.9-3.8-5.5c6.3,1.4,12.3,0.4,17.3-1.1c0.2,1.9-0.3,3.6-1.8,4.9
		C59.9,61.8,54.6,62.6,51,60.8z"/>
	<path fill="#2C3136" d="M85,56.9c-1.1-1.1-3-1.1-4.2,0c-1.1,1.1-1.1,3,0,4.2c1.2,1.2,1.8,2.7,1.8,4.3c0,1.6-0.6,3.2-1.8,4.3
		c-16.7,16.7-35.9,16.7-52.6,0c-1.1-1.1-3-1.1-4.2,0c-1.1,1.1-1.1,3,0,4.2c9.4,9.4,19.9,14.1,30.5,14.1c10.5,0,21.1-4.7,30.4-14.1
		c2.3-2.3,3.5-5.3,3.5-8.5C88.5,62.2,87.2,59.2,85,56.9z"/>
</g>
</svg>
