<?xml version="1.0" encoding="UTF-8" standalone="no"?>
<svg
   xmlns:dc="http://purl.org/dc/elements/1.1/"
   xmlns:cc="http://creativecommons.org/ns#"
   xmlns:rdf="http://www.w3.org/1999/02/22-rdf-syntax-ns#"
   xmlns:svg="http://www.w3.org/2000/svg"
   xmlns="http://www.w3.org/2000/svg"
   xmlns:sodipodi="http://sodipodi.sourceforge.net/DTD/sodipodi-0.dtd"
   xmlns:inkscape="http://www.inkscape.org/namespaces/inkscape"
   version="1.1"
   id="Layer_1"
   x="0px"
   y="0px"
   viewBox="0 0 100 100"
   enable-background="new 0 0 100 100"
   xml:space="preserve"
   sodipodi:docname="Gladiola color.svg"
   inkscape:version="1.0.1 (3bc2e813f5, 2020-09-07)"><metadata
   id="metadata9"><rdf:RDF><cc:Work
       rdf:about=""><dc:format>image/svg+xml</dc:format><dc:type
         rdf:resource="http://purl.org/dc/dcmitype/StillImage" /><dc:title></dc:title></cc:Work></rdf:RDF></metadata><defs
   id="defs7" /><sodipodi:namedview
   pagecolor="#ffffff"
   bordercolor="#666666"
   borderopacity="1"
   objecttolerance="10"
   gridtolerance="10"
   guidetolerance="10"
   inkscape:pageopacity="0"
   inkscape:pageshadow="2"
   inkscape:window-width="1920"
   inkscape:window-height="1017"
   id="namedview5"
   showgrid="false"
   inkscape:zoom="8.5"
   inkscape:cx="10.983021"
   inkscape:cy="50"
   inkscape:window-x="-8"
   inkscape:window-y="-8"
   inkscape:window-maximized="1"
   inkscape:current-layer="Layer_1" />
<path
   fill="#2c3136"
   d="m -36.223529,63.147059 c -0.9,0 -1.7,0.8 -1.7,1.7 0,0.9 0.8,1.7 1.7,1.7 0.9,0 1.7,-0.8 1.7,-1.7 0,-1 -0.7,-1.7 -1.7,-1.7 z m 28.0999996,15.1 c -1.2,-3.3 -5.7999996,-4.4 -10.4999996,-2.7 -4.1,1.5 -6.7,4.7 -6.5,7.7 -0.8,0.5 -1.6,1.1 -2.4,1.7 0.3,-3.2 -0.1,-6.1 -0.6,-8.5 1.4,0 2.6,-0.2 3.4,-0.6 0.1,0 0.2,-0.1 0.3,-0.1 v 0 c 0.3,-0.2 0.6,-0.4 0.7,-0.6 0.1,-0.1 0.2,-0.3 0.2,-0.4 1.1,-2.2 1.3,-4.4 0.7,-6.7 -0.6,-1.9 -1.9,-3.8 -3.8,-5.6 v 0 c 3,0 5.5,-0.6 7.4,-1.8 2,-1.3 3.3,-3.1 3.8,-5.6 0.1,-0.1 0.1,-0.3 0.1,-0.5 0,-0.3 0,-0.6 -0.2,-0.9 v 0 c 0,-0.1 -0.1,-0.2 -0.2,-0.3 -0.5,-1 -1.5,-2.3 -3.1,-3.2 0.8,-1.6 1.1,-3.2 1.1,-4.3 0,-0.1 0,-0.2 0,-0.3 v 0 c -0.1,-0.4 -0.2,-0.7 -0.3,-0.9 -0.1,-0.1 -0.2,-0.2 -0.3,-0.3 -1.8,-1.9 -3.9,-2.9 -6.4,-3 -2.9,-0.1 -6,1.3 -8.8,3.1 1.1,-3.2 1.6,-6.5 0.8,-9.3 -0.7,-2.4 -2.2,-4.2 -4.5,-5.4 -0.1,-0.1 -0.3,-0.2 -0.4,-0.2 -0.2,-0.1 -0.6,-0.1 -0.9,-0.1 v 0 c -0.1,0 -0.2,0 -0.3,0.1 -1.1,0.2 -2.6,0.9 -3.9,2.1 -1.3,-1.2 -2.8,-1.9 -3.9,-2.1 -0.1,0 -0.2,-0.1 -0.3,-0.1 v 0 c -0.4,0 -0.7,0 -0.9,0.1 -0.2,0.1 -0.3,0.1 -0.4,0.2 -1.6,0.9 -2.8,2 -3.7,3.4 -0.4,-0.9 -0.7,-2 -0.9,-3.2 2.1,-0.5 3.6,-1.4 4.5,-2.2 0.7,0.4 1.4,0.6 2.2,0.6 1.4,0 2.9,-0.6 4.2,-1.7 2.4,-2.2 2.9,-5.4 1.1,-7.5 -1.8,-2 -5.1,-1.9 -7.6,0.2 -1.7,1.5 -2.4,3.6 -2.1,5.3 -0.5,0.4 -1.3,1 -2.5,1.4 0,-0.5 0.1,-1 0.2,-1.5 0.9,-4.2 3.8,-7.9 8.8,-10.9 0.1,0 0.1,-0.1 0.2,-0.2 0.8,0.5 1.7,0.8 2.6,0.8 0.8,0 1.6,-0.2 2.4,-0.6 0,0 0,0 0,0 2.3,-1.3 3.1,-4.3000002 1.7,-6.6000002 -0.7,-1.1 -1.7,-1.9 -2.9,-2.3 -1.3,-0.4 -2.6,-0.2 -3.7,0.5 -1.1,0.6 -1.9,1.7 -2.2,3 -0.2,0.8 -0.2,1.6 0,2.3000002 -3.5,2.1 -6.1,4.5 -7.9,7.2 -0.2,-0.4 -0.4,-0.9 -0.6,-1.4 1,-0.4 1.9,-1 2.5,-2 0.7,-1.1 1,-2.4 0.7,-3.7 -0.6,-2.7000002 -3.2,-4.4000002 -5.9,-3.8000002 -2.7,0.6 -4.4,3.2000002 -3.8,5.9000002 0.3,1.3 1,2.4 2.2,3.1 0.2,0.1 0.3,0.2 0.5,0.3 0.3,1.4 1,3.7 2.6,5.3 -0.3,0.8 -0.5,1.6 -0.7,2.4 -0.6,3 -0.4,5.8 0.2,8.2 -0.6,-0.2 -1.1,-0.5 -1.6,-0.8 0.6,-2 0.2,-4.3 -1.4,-6.3 -1.1,-1.3 -2.5,-2.3 -4,-2.7 -1.7,-0.4 -3.3,-0.1 -4.6,0.9 -1.2,1 -2,2.5 -2,4.2 0,1.6 0.6,3.2 1.6,4.5 1.4,1.8 3.5,2.8 5.5,2.8 0.9,0 1.7,-0.2 2.4,-0.6 1.3,0.8 3.5,1.9 5.6,2.1 0.6,1.2 1.2,2.1 1.3,2.3 0,0.1 0.1,0.1 0.1,0.1 0.1,1.9 0.5,3.8 1.2,5.7 -2.8,-1.9 -5.9,-3.2 -8.8,-3.1 -2.5,0.1 -4.6,1.1 -6.4,3 -0.1,0.1 -0.2,0.2 -0.3,0.3 -0.2,0.2 -0.3,0.5 -0.3,0.9 v 0 c 0,0.1 0,0.2 0,0.3 -0.1,1.1 0.2,2.7 1.1,4.3 -1.5,1 -2.6,2.2 -3.1,3.2 0,0.4 0,0.5 -0.1,0.6 v 0 c -0.1,0.4 -0.2,0.7 -0.2,0.9 0,0.2 0.1,0.3 0.1,0.5 0.6,2.4 1.9,4.3 3.8,5.6 1.9,1.2 4.4,1.8 7.4,1.8 v 0 c -1.9,1.8 -3.2,3.6 -3.8,5.6 -0.7,2.2 -0.5,4.4 0.7,6.7 0,0.1 0.1,0.3 0.2,0.4 0.1,0.2 0.4,0.4 0.7,0.6 v 0 c 0.1,0.1 0.2,0.1 0.3,0.1 1,0.5 2.6,0.7 4.4,0.5 0.4,1.8 1.2,3.2 1.9,4 0.1,0.1 0.1,0.2 0.2,0.3 v 0 c 0.3,0.2 0.6,0.4 0.8,0.5 0.2,0 0.3,0.1 0.5,0.1 0.2,0 0.4,0 0.6,0 1.4,0 3.3,-0.5 5.3,-2.4 1.5,-1.5 2.8,-3.5 3.8,-5.6 1.9,5 5.3,7.8 9.9,7.9 0.3,0 0.5,0 0.8,0 0.3,-0.1 0.5,-0.2 0.8,-0.5 v 0 c 0,0 0.1,-0.1 0.1,-0.1 0.4,4.5 -0.4,9.8 -4.2,15.5 -0.6,0.9 -0.3,2 0.5,2.6 0.3,0.2 0.7,0.3 1,0.3 0.6,0 1.2,-0.3 1.5,-0.8 1.5,-2.2 2.6,-4.5 3.4,-6.6 0.2,-0.1 0.4,-0.2 0.5,-0.4 1.5,-1.8 3.2,-3.4 5.2,-4.6 1.2,0.9 2.9,1.4 4.7,1.4 1.4,0 2.8,-0.3 4.3,-0.8 2.1,-0.8 3.9,-2 4.9999996,-3.5 1.8,-1.8 2.2,-3.8 1.6,-5.5 z m -37.6999996,-56 c 0.6,-0.5 1.2,-0.7 1.7,-0.7 0.3,0 0.5,0.1 0.6,0.2 0.3,0.3 0.2,1.4 -0.8,2.2 -0.9,0.8 -2,0.9 -2.3,0.5 -0.3,-0.3 -0.2,-1.4 0.8,-2.2 z m 3.5,-13.0000002 c 0,-0.2 0.2,-0.5 0.5,-0.7 0.2,-0.1 0.4,-0.1 0.5,-0.1 0.1,0 0.2,0 0.3,0 0.3,0.1 0.6,0.3 0.7,0.6 0.3,0.6 0.2,1.3000002 -0.4,1.6000002 -0.4,0.2 -1.1,0 -1.4,-0.5 -0.2,-0.3000002 -0.2,-0.6000002 -0.2,-0.9000002 z m -19.5,21.6000002 c -0.7,0.6 -2.3,0.2 -3.4,-1.2 -0.5,-0.7 -0.8,-1.5 -0.8,-2.2 0,-0.3 0.1,-1 0.5,-1.3 0.3,-0.2 0.6,-0.3 0.9,-0.3 0.2,0 0.4,0 0.5,0.1 0.7,0.2 1.4,0.7 2,1.4 1.1,1.3 1.1,2.9 0.3,3.5 z m 6.8,-18.4 c -0.2,0.3 -0.5,0.5 -0.8,0.5 -0.3,0.1 -0.7,0 -0.9,-0.2 -0.3,-0.2 -0.5,-0.5 -0.5,-0.8 -0.1,-0.7 0.3,-1.3 0.9,-1.5 0.1,0 0.2,0 0.3,0 0.6,0 1.1,0.4 1.2,1 v 0 c 0,0.4 0,0.7 -0.2,1 z m 25.6,60.2 c 0,0 0,0 0,0 -0.4,-1 -1.5,-1.5 -2.4,-1.1 -1,0.4 -1.4,1.5 -1,2.4 0.1,0.2 0.2,0.4 0.3,0.7 -0.1,1.3 -0.5,2.2 -0.8,2.8 -5.6,-0.6 -7,-7.7 -7.3,-12.5 0,-0.4 0,-0.7 -0.1,-1 -0.1,-1 -1,-1.7 -2,-1.6 -1,0.1 -1.8,0.9 -1.7,1.9 v 0.1 c 0,0.2 0,0.5 0,0.7 -0.1,2.9 -2,8.4 -4.9,11.1 -0.8,0.8 -1.7,1.3 -2.4,1.3 -0.4,-0.6 -0.9,-1.7 -0.9,-3.3 0,-0.6 -0.3,-1.2 -0.8,-1.5 -0.3,-0.2 -0.7,-0.3 -1.1,-0.3 -0.2,0 -0.4,0 -0.6,0.1 -1.6,0.6 -2.8,0.4 -3.5,0.2 -0.5,-1.2 -0.6,-2.3 -0.2,-3.5 0.8,-2.6 3.8,-5.4 8.7,-7.9 0.8,-0.4 1.2,-1.4 0.9,-2.3 -0.3,-0.9 -1.3,-1.4 -2.2,-1.2 -5.7,1.4 -10.2,1.3 -12.6,-0.2 -1,-0.7 -1.7,-1.6 -2.1,-2.9 0.4,-0.6 1.3,-1.5 2.8,-2.1 0.6,-0.2 1,-0.7 1.1,-1.3 0.2,-0.6 0,-1.2 -0.4,-1.7 -1.1,-1.3 -1.4,-2.5 -1.5,-3.2 1,-1 2.1,-1.4 3.4,-1.5 0,0 0.1,0 0.1,0 3.4,0 7.9,2.9 12.9,8.1 0.7,0.7 1.7,0.8 2.5,0.2 0.8,-0.6 0.9,-1.6 0.4,-2.4 -3.9,-6.2 -5.5,-11.5 -4.5,-14.7 0.4,-1.2 1.1,-2.2 2.3,-2.9 0.6,0.2 1.7,0.8 2.7,2.2 0.3,0.5 0.9,0.8 1.5,0.8 0.6,0 1.2,-0.3 1.5,-0.8 1,-1.4 2.1,-2 2.7,-2.2 1.2,0.7 1.9,1.7 2.3,2.9 0.9,3.2 -0.7,8.5 -4.5,14.7 -0.5,0.8 -0.3,1.9 0.4,2.4 0.8,0.6 1.8,0.5 2.5,-0.2 5,-5.2 9.6,-8.1 12.9,-8.1 0,0 0.1,0 0.1,0 1.3,0 2.4,0.5 3.4,1.5 -0.1,0.7 -0.4,1.9 -1.5,3.2 -0.4,0.5 -0.5,1.1 -0.4,1.7 0.2,0.6 0.6,1.1 1.1,1.3 1.6,0.6 2.4,1.5 2.8,2.1 -0.4,1.3 -1.1,2.2 -2.1,2.9 -2.4,1.5 -6.9,1.6 -12.6,0.2 -0.9,-0.2 -1.8,0.3 -2.2,1.2 -0.3,0.9 0,1.9 0.9,2.3 4.9,2.5 7.9,5.3 8.7,7.9 0.4,1.2 0.3,2.3 -0.2,3.5 -0.2,0.2 -1.2,0.3 -2.4,0 z m 17.2,8.7 c -0.7,1 -2,1.8 -3.4,2.3 -3,1.1 -5.4,0.5 -5.7,-0.5 -0.4,-0.9 1,-3 4,-4.1 1.1,-0.4 2.1,-0.6 3,-0.6 1.5,0 2.5,0.5 2.7,1.1 0.2,0.5 -0.1,1.1 -0.6,1.8 z m -30.4,-33.6 c 0.9,0 1.7,-0.8 1.7,-1.7 0,-0.9 -0.8,-1.7 -1.7,-1.7 -0.9,0 -1.7,0.8 -1.7,1.7 0,0.9 0.8,1.7 1.7,1.7 z m 9.7,8 c 0.9,0 1.7,-0.8 1.7,-1.7 0,-0.9 -0.8,-1.7 -1.7,-1.7 -0.9,0 -1.7,0.8 -1.7,1.7 0,0.9 0.7,1.7 1.7,1.7 z m -16.1,7.4 c -0.9,0 -1.7,0.8 -1.7,1.7 0,0.9 0.8,1.7 1.7,1.7 0.9,0 1.7,-0.8 1.7,-1.7 -0.1,-1 -0.8,-1.7 -1.7,-1.7 z m 6.4,-8 c -1.2,0 -2.2,1 -2.2,2.2 0,1.2 1,2.2 2.2,2.2 1.2,0 2.2,-1 2.2,-2.2 0,-1.2 -1,-2.2 -2.2,-2.2 z m -9.7,-3.3 c -0.9,0 -1.7,0.8 -1.7,1.7 0,0.9 0.8,1.7 1.7,1.7 0.9,0 1.7,-0.8 1.7,-1.7 0,-0.9 -0.7,-1.7 -1.7,-1.7 z"
   id="path2" />
<path
   style="fill:#44aa00;stroke:#ffffff;stroke-width:0.117647"
   d="m 54.055444,97.520352 c -0.502536,-0.3219 -0.90952,-1.169675 -0.821603,-1.711448 0.0367,-0.226178 0.382403,-0.924238 0.768219,-1.551245 1.965543,-3.194286 3.134159,-6.329609 3.597552,-9.651995 0.177812,-1.274852 0.262928,-5.1939 0.112806,-5.1939 -0.03919,0 -0.236764,0.139269 -0.439054,0.309485 -0.359521,0.302517 -0.395663,0.30799 -1.605219,0.243093 -1.548733,-0.08309 -2.478173,-0.31784 -3.825652,-0.966235 -2.246713,-1.081098 -4.190333,-3.262233 -5.344248,-5.997327 -0.177838,-0.421525 -0.352538,-0.795605 -0.388221,-0.831288 -0.03568,-0.03568 -0.300526,0.378089 -0.588538,0.919496 -1.184574,2.226767 -2.834853,4.359961 -4.120748,5.326586 -1.964365,1.47664 -4.381054,2.093599 -5.699932,1.455141 -0.849354,-0.411165 -2.166369,-2.54086 -2.520782,-4.076261 l -0.131892,-0.571384 -1.02908,0.0492 c -1.740548,0.08322 -3.59222,-0.407939 -4.259995,-1.129962 -0.352906,-0.381575 -0.96364,-1.831134 -1.207709,-2.866462 -0.09678,-0.41054 -0.176748,-1.227674 -0.177704,-1.815853 -0.004,-2.440102 1.058873,-4.7726 3.222935,-7.073012 0.491135,-0.522079 0.892973,-0.981551 0.892973,-1.02105 0,-0.0395 -0.324088,-0.07182 -0.720196,-0.07182 -1.050262,0 -3.054084,-0.322714 -4.150122,-0.668373 C 22.489019,59.638557 20.483773,57.628691 19.50146,54.49387 L 19.195403,53.51716 19.427248,52.632 c 0.320628,-1.224123 1.074739,-2.187552 2.750816,-3.514359 l 0.445849,-0.352941 -0.362869,-0.795 c -0.496468,-1.087696 -0.70887,-2.073112 -0.71093,-3.298276 l -0.0017,-1.034451 0.558823,-0.599786 c 1.222883,-1.312521 2.904773,-2.328809 4.558824,-2.754683 1.17245,-0.301875 3.210612,-0.282306 4.537397,0.04356 1.680212,0.412675 3.235897,1.086172 5.023727,2.174902 0.53509,0.325853 0.995778,0.569571 1.023752,0.541597 0.02797,-0.02797 -0.102489,-0.539998 -0.28992,-1.137828 -0.321309,-1.024856 -0.824368,-3.598117 -0.824368,-4.21683 0,-0.438404 -1.388471,-2.738836 -1.689978,-2.799972 -1.173193,-0.237885 -1.683969,-0.381444 -2.596929,-0.729896 -0.578386,-0.220754 -1.441543,-0.616618 -1.918125,-0.879696 l -0.866512,-0.478326 -0.611287,0.272943 c -0.506438,0.226127 -0.813077,0.27316 -1.787757,0.274208 -1.902016,0.002 -3.311298,-0.604261 -4.771998,-2.053033 -2.369807,-2.350454 -2.916096,-5.685111 -1.32423,-8.08336 1.093367,-1.647227 3.075526,-2.50199 5.047374,-2.176569 2.419654,0.399322 5.004067,2.714015 5.823463,5.215701 0.234088,0.714691 0.280085,1.075223 0.2608,2.044201 -0.01288,0.647059 -0.03935,1.335295 -0.05882,1.529412 -0.0326,0.324932 0.02363,0.384158 0.708485,0.746303 0.409141,0.216348 0.767014,0.37024 0.795273,0.341981 0.02826,-0.02826 -0.05502,-0.673767 -0.18507,-1.434464 -0.439616,-2.57148 -0.2738,-5.84891 0.405089,-8.006761 0.162859,-0.517647 0.296901,-1.007205 0.297872,-1.087905 9.41e-4,-0.0807 -0.242181,-0.47776 -0.540338,-0.882353 -0.298156,-0.404594 -0.702863,-1.053271 -0.899349,-1.441507 -0.391985,-0.774523 -1.029136,-2.569615 -1.029136,-2.899462 0,-0.121693 -0.214877,-0.334193 -0.516924,-0.511204 -0.579969,-0.339884 -1.484861,-1.258012 -1.75111,-1.776721 -0.384851,-0.749774 -0.569771,-1.53386 -0.56785,-2.407772 0.0046,-2.1126726 1.368609,-3.9560425 3.388923,-4.580054 2.870944,-0.8867443 5.738706,0.871515 6.294308,3.8591162 0.3535,1.9008498 -0.75688,4.0984518 -2.542171,5.0313258 -0.361657,0.188977 -0.657166,0.396536 -0.656689,0.461242 0.0011,0.148238 0.558476,1.352941 0.625964,1.352941 0.02749,0 0.357732,-0.408882 0.733869,-0.908627 1.46683,-1.94886 3.582129,-3.875569 6.018959,-5.482337 l 1.177261,-0.7762497 -0.05832,-0.8150777 c -0.177625,-2.4825421 1.420351,-4.5842748 3.87732,-5.0996292 1.802561,-0.3780912 4.152052,0.8954604 5.055376,2.7402872 1.414386,2.8885532 -0.323271,6.1841104 -3.533288,6.7010694 -0.832756,0.134111 -1.650634,3.17e-4 -2.598552,-0.42508 l -0.672566,-0.30183 -0.931374,0.61479 c -3.399025,2.243663 -5.672802,4.629916 -6.994905,7.340919 -0.315557,0.647059 -0.710989,1.652942 -0.878737,2.235294 -0.325577,1.130272 -0.513402,2.529649 -0.339449,2.52905 0.193249,-7.06e-4 1.646012,-0.774985 2.091452,-1.114739 0.405155,-0.309027 0.433907,-0.369669 0.365957,-0.771866 -0.111287,-0.658701 0.144578,-1.832605 0.614414,-2.818915 0.837974,-1.759134 2.821259,-3.2188 4.827393,-3.552885 2.07266,-0.345163 4.010083,0.597324 4.831784,2.350492 0.282652,0.60306 0.315424,0.808391 0.315424,1.97628 0,1.295312 -0.003,1.309441 -0.496799,2.305568 -0.84895,1.712721 -2.306327,2.935424 -4.251485,3.566887 -0.867157,0.281508 -2.46385,0.205034 -3.151462,-0.150941 l -0.487981,-0.252626 -0.512019,0.390664 c -0.812042,0.619576 -1.719318,1.083374 -2.923783,1.494635 -0.614706,0.209888 -1.129909,0.389492 -1.144896,0.399118 -0.05973,0.03836 0.553893,2.385086 0.73814,2.82293 l 0.196841,0.467768 0.368824,-0.467768 c 0.748354,-0.949119 1.528045,-1.701187 2.350243,-2.266982 1.12418,-0.773602 1.520299,-0.965493 1.993064,-0.965493 0.922948,0 2.733314,0.774883 3.823309,1.636474 0.334762,0.264657 0.642686,0.481184 0.684239,0.481184 0.04155,0 0.400464,-0.246244 0.797579,-0.547207 1.278334,-0.968817 3.044839,-1.660692 3.935193,-1.541269 1.094525,0.146805 3.402414,2.006758 4.240319,3.417317 0.961762,1.619063 1.312594,3.008648 1.313001,5.200571 3.53e-4,1.88557 -0.364506,4.017306 -0.991958,5.795694 -0.09672,0.274133 -0.126289,0.498423 -0.06571,0.498423 0.06058,0 0.389113,-0.178303 0.730075,-0.39623 1.750988,-1.119146 4.581829,-2.276379 6.208167,-2.537865 2.914871,-0.468658 5.651799,0.410728 7.83343,2.516912 0.865001,0.835087 1.04508,1.314026 0.921196,2.450014 -0.09103,0.834696 -0.508328,2.36472 -0.855968,3.138389 l -0.235527,0.524162 0.609611,0.409189 c 0.901323,0.604995 1.777979,1.555627 2.37483,2.575226 0.603609,1.031147 0.629409,1.256346 0.285934,2.495819 -1.100071,3.969739 -4.610554,6.390364 -9.6688,6.667046 -0.760294,0.04159 -1.382353,0.100089 -1.382353,0.130005 0,0.02992 0.410294,0.48833 0.911765,1.018698 3.2955,3.485406 4.044172,7.149522 2.264789,11.084228 -0.262408,0.580256 -0.429907,0.783074 -0.850052,1.029296 -0.693277,0.406288 -2.18185,0.777464 -3.117955,0.777464 -0.663798,0 -0.746194,0.02459 -0.690001,0.205883 0.0351,0.113235 0.180228,0.894117 0.322512,1.735294 0.208591,1.233187 0.26043,2.02496 0.267643,4.087929 0.0049,1.407185 0.04916,2.558656 0.09832,2.558824 0.04915,1.17e-4 0.472684,-0.279499 0.941177,-0.621483 0.468491,-0.341983 0.997391,-0.713791 1.175332,-0.826241 0.284756,-0.17995 0.323893,-0.278153 0.326568,-0.819388 0.0065,-1.310804 0.841311,-3.014269 2.114609,-4.314811 1.3858,-1.41545 3.443548,-2.569297 5.614429,-3.148195 0.973158,-0.259507 1.412947,-0.308406 2.856159,-0.317569 1.48166,-0.0094 1.821672,0.02552 2.586812,0.265762 0.484511,0.152127 1.090973,0.383751 1.347694,0.51472 0.721146,0.367901 1.79196,1.460313 2.153934,2.197379 0.290464,0.591453 0.323325,0.784168 0.323325,1.896135 0,1.15424 -0.02534,1.289205 -0.375552,2 -0.53637,1.088633 -2.012586,2.814706 -3.122622,3.651144 -2.397464,1.806543 -5.923581,2.834175 -8.532872,2.486771 -1.207906,-0.160821 -2.157861,-0.462743 -3.062732,-0.973421 l -0.637587,-0.359831 -0.604906,0.401765 c -1.414726,0.939631 -3.016348,2.397418 -4.50796,4.103118 -0.205503,0.234999 -0.418369,0.446225 -0.473034,0.469391 -0.05467,0.02316 -0.252225,0.412707 -0.439021,0.865648 -1.083366,2.62694 -3.059239,6.014194 -3.702174,6.346669 -0.49673,0.25687 -1.286825,0.228899 -1.740354,-0.06161 z M 73.430728,82.601987 c 1.417659,-0.480375 2.486765,-1.112274 3.253517,-1.923 1.092718,-1.155387 1.350172,-2.009998 0.801834,-2.661659 -0.445211,-0.529104 -1.299563,-0.774281 -2.643586,-0.758642 -3.56697,0.04151 -7.415893,2.716228 -6.895022,4.791543 0.04138,0.164854 0.207222,0.38622 0.368547,0.491925 0.65948,0.432108 1.140206,0.521254 2.585299,0.47942 1.214569,-0.03516 1.567877,-0.09377 2.529411,-0.419587 z M 38.8766,75.907309 c 0.721619,-0.387697 2.159058,-1.891454 2.923277,-3.058147 0.825206,-1.259795 1.660797,-3.031446 2.209816,-4.685322 0.59728,-1.799261 0.832975,-2.970748 0.918763,-4.566552 0.06727,-1.251431 0.07941,-1.296492 0.463535,-1.721676 1.036277,-1.147036 2.791093,-0.647691 3.087994,0.87871 0.06404,0.32924 0.174388,1.286854 0.245215,2.128031 0.23302,2.767416 0.998619,5.786941 1.894164,7.470588 1.172052,2.203487 2.828386,3.50492 5.017406,3.942332 0.367667,0.07347 0.39207,0.05438 0.628816,-0.491773 0.135467,-0.312513 0.326161,-0.954467 0.423762,-1.426565 0.170066,-0.822601 0.16715,-0.882322 -0.06999,-1.433575 -0.288952,-0.671687 -0.308852,-1.039259 -0.08524,-1.574445 0.318265,-0.761715 1.242661,-1.214008 2.034398,-0.9954 0.422826,0.116748 0.939462,0.537321 1.170453,0.952821 0.148996,0.268007 1.328343,0.467573 2.047876,0.346536 0.502664,-0.08456 0.535227,-0.114785 0.726968,-0.674816 0.287362,-0.839313 0.272293,-2.234347 -0.03401,-3.148827 -0.832747,-2.486179 -3.38503,-4.90337 -7.770235,-7.358961 -1.571368,-0.879922 -1.867075,-1.205092 -1.867075,-2.053099 0,-0.576383 0.249643,-1.052287 0.753646,-1.436709 0.577673,-0.440613 1.019399,-0.463772 2.540472,-0.133191 5.906156,1.28361 10.344272,0.894903 12.318035,-1.078862 0.595982,-0.595983 1.329024,-1.857947 1.329024,-2.287977 0,-0.400621 -1.208087,-1.442236 -2.293522,-1.977481 -0.851463,-0.419869 -1.058645,-0.580103 -1.314442,-1.016588 -0.456269,-0.778564 -0.353252,-1.329955 0.474882,-2.54178 0.63851,-0.934344 1.133082,-2.077001 1.133082,-2.617871 0,-0.343933 -0.688643,-0.944547 -1.524044,-1.329227 -0.504306,-0.23222 -0.895159,-0.311368 -1.721583,-0.348623 -1.478623,-0.06666 -2.630997,0.238334 -4.577903,1.211604 -2.329936,1.16475 -4.493332,2.804838 -7.461174,5.65638 -1.166793,1.121069 -1.745134,1.594224 -2.052306,1.679038 -1.160922,0.320546 -2.347073,-0.746589 -2.153786,-1.937679 0.0359,-0.221215 0.312892,-0.810076 0.61554,-1.30858 3.712982,-6.115783 5.199718,-11.874044 3.824532,-14.812749 -0.362362,-0.77435 -1.163852,-1.724515 -1.738322,-2.060781 -0.318534,-0.186454 -0.365518,-0.185714 -0.80404,0.01266 -0.626061,0.283207 -1.425625,0.97162 -2.157392,1.857484 -0.467494,0.565939 -0.712092,0.7601 -1.08356,0.860126 -0.827155,0.222729 -1.116264,0.07396 -2.399845,-1.234929 -0.752377,-0.76721 -1.381254,-1.297373 -1.740856,-1.467595 l -0.562975,-0.266491 -0.545565,0.425046 c -0.71111,0.554022 -1.365173,1.43464 -1.691611,2.277556 -0.393616,1.016383 -0.447987,3.208824 -0.119188,4.806228 0.518065,2.51692 1.920771,5.846766 3.824093,9.077909 0.489826,0.831547 0.923392,1.675891 0.963476,1.876319 0.235157,1.175782 -1.149231,2.322091 -2.249281,1.86246 -0.232769,-0.09726 -1.17441,-0.888632 -2.092536,-1.75861 -2.023846,-1.917712 -3.160824,-2.876566 -4.786968,-4.037022 -1.488249,-1.062048 -3.71734,-2.18065 -4.989408,-2.503783 -1.848675,-0.469604 -3.55146,-0.21478 -4.813689,0.720372 -0.604462,0.447829 -0.650065,0.514201 -0.585861,0.85267 0.145469,0.766878 0.559191,1.670447 1.186076,2.590387 0.785813,1.153165 0.880439,1.635811 0.475184,2.423712 -0.240296,0.467185 -0.392949,0.588778 -1.298726,1.034478 -0.668265,0.328829 -1.274834,0.741446 -1.738328,1.182491 l -0.711905,0.677426 0.182891,0.518369 c 0.646411,1.832122 2.200607,3.011798 4.590512,3.484321 2.140494,0.42321 5.707301,0.222976 9.018199,-0.506265 1.662543,-0.366184 2.076996,-0.320679 2.693397,0.295722 0.572968,0.572969 0.691193,1.204384 0.364001,1.944057 -0.256186,0.579148 -0.375436,0.668726 -2.431167,1.826214 -5.065001,2.851871 -7.75884,6.29222 -7.243603,9.250934 0.175805,1.009546 0.336654,1.338514 0.704949,1.441764 0.558528,0.156581 2.163453,0.05576 2.971843,-0.186683 0.846384,-0.25384 1.373118,-0.214168 1.920769,0.144667 0.498681,0.326747 0.671521,0.730426 0.781284,1.824736 0.105843,1.05522 0.421105,2.174968 0.756453,2.686774 0.152243,0.23235 0.244826,0.265509 0.557206,0.199561 0.206046,-0.0435 0.628212,-0.215328 0.938147,-0.381845 z M 27.626055,29.622855 c 0.863268,-0.863268 0.51287,-2.582154 -0.78815,-3.866292 -1.478032,-1.458851 -3.151005,-1.497761 -3.532189,-0.08215 -0.384998,1.429773 0.852413,3.573016 2.387757,4.135687 0.717927,0.263106 1.564228,0.181108 1.932582,-0.187245 z M 44.35387,23.244433 c 1.613589,-0.817667 2.220643,-2.761583 0.896691,-2.871393 -0.661853,-0.0549 -1.22371,0.143995 -1.799798,0.637104 -0.849266,0.72694 -1.232233,1.878497 -0.776337,2.334393 0.272833,0.272833 1.032888,0.22753 1.679444,-0.100104 z M 33.769688,11.751951 c 0.460735,-0.160613 0.719864,-0.632951 0.719864,-1.31216 0,-0.5609482 -0.269476,-0.9573876 -0.783662,-1.1528806 -0.531606,-0.2021162 -0.871792,-0.125574 -1.286926,0.2895602 -0.341427,0.3414268 -0.4,0.4809684 -0.4,0.9529414 0,0.471972 0.05857,0.611514 0.4,0.952941 0.426722,0.426722 0.727682,0.486792 1.350724,0.269598 z M 48.943603,9.2093376 C 49.344551,8.7598038 49.246692,7.9614093 48.734557,7.5038166 48.325867,7.1386527 47.935559,7.091883 47.439143,7.34859 47.052083,7.5487468 46.96014,7.7383489 46.96014,8.336386 c 0,0.5296006 0.261124,0.9277963 0.750388,1.1442934 0.473205,0.20939 0.885152,0.1187397 1.233075,-0.2713418 z"
   id="path834" /><path
   style="fill:#44aa00;stroke:#ffffff;stroke-width:0.117647"
   d="m 45.388528,45.776719 c -1.144536,-0.754578 -1.014106,-2.302347 0.240796,-2.85745 0.539351,-0.23858 0.55108,-0.238782 1.082282,-0.01863 1.295224,0.536792 1.454159,2.10905 0.290735,2.876081 -0.432776,0.285324 -1.181037,0.285324 -1.613813,-10e-7 z"
   id="path836" /><path
   style="fill:#44aa00;stroke:#ffffff;stroke-width:0.117647"
   d="m 35.830288,53.36125 c -0.450596,-0.196148 -0.863207,-0.756733 -0.949817,-1.290449 -0.14916,-0.919162 0.96226,-1.960967 1.903604,-1.784369 1.552978,0.29134 1.791308,2.472934 0.336562,3.080766 -0.480698,0.200848 -0.818875,0.199289 -1.290349,-0.0059 z"
   id="path838" /><path
   style="fill:#44aa00;stroke:#ffffff;stroke-width:0.117647"
   d="m 45.621304,57.740849 c -0.617238,-0.168214 -1.288006,-0.861883 -1.473265,-1.523563 -0.200739,-0.716966 -0.01724,-1.371854 0.55186,-1.969508 1.155455,-1.213435 3.117697,-0.692946 3.55845,0.943886 0.409863,1.522114 -1.089025,2.971062 -2.637045,2.549185 z"
   id="path840" /><path
   style="fill:#44aa00;stroke:#ffffff;stroke-width:0.117647"
   d="m 54.964941,53.691869 c -0.896362,-0.75424 -0.932162,-1.705722 -0.09364,-2.488796 0.654331,-0.611064 1.578212,-0.547724 2.191006,0.15021 0.476326,0.542506 0.573294,1.096291 0.292321,1.66946 -0.467437,0.953546 -1.656117,1.286383 -2.389686,0.669126 z"
   id="path842" /><path
   style="fill:#44aa00;stroke:#ffffff;stroke-width:0.117647"
   d="M 39.124406,64.655368 C 38.718885,64.478841 38.311019,63.973 38.192071,63.499072 c -0.184261,-0.734157 0.570285,-1.760105 1.410406,-1.917713 0.828246,-0.15538 1.822024,0.744815 1.825877,1.653935 0.0032,0.746587 -0.843625,1.59195 -1.585861,1.583191 -0.194117,-0.0023 -0.517257,-0.07569 -0.718087,-0.163117 z"
   id="path844" /><path
   style="fill:#44aa00;stroke:#ffffff;stroke-width:0.117647"
   d="m 51.771656,64.556478 c -0.776667,-0.518847 -1.005181,-1.501399 -0.521031,-2.240304 0.293363,-0.44773 1.150376,-0.829561 1.651097,-0.735625 0.537025,0.100747 1.069342,0.564896 1.239636,1.080892 0.467017,1.415076 -1.151128,2.709098 -2.369702,1.895037 z"
   id="path846" /></svg>
