<?xml version="1.0" encoding="utf-8"?>
<!-- Generator: Adobe Illustrator 18.0.0, SVG Export Plug-In . SVG Version: 6.00 Build 0)  -->
<!DOCTYPE svg PUBLIC "-//W3C//DTD SVG 1.1//EN" "http://www.w3.org/Graphics/SVG/1.1/DTD/svg11.dtd">
<svg version="1.1" id="Layer_1" xmlns="http://www.w3.org/2000/svg" xmlns:xlink="http://www.w3.org/1999/xlink" x="0px" y="0px"
	 viewBox="0 0 100 100" enable-background="new 0 0 100 100" xml:space="preserve">
<path fill="#FFFFFF" d="M52.6,61.5c-0.9,0-1.7,0.8-1.7,1.7c0,0.9,0.8,1.7,1.7,1.7c0.9,0,1.7-0.8,1.7-1.7
	C54.3,62.2,53.6,61.5,52.6,61.5z M80.7,76.6c-1.2-3.3-5.8-4.4-10.5-2.7c-4.1,1.5-6.7,4.7-6.5,7.7c-0.8,0.5-1.6,1.1-2.4,1.7
	c0.3-3.2-0.1-6.1-0.6-8.5c1.4,0,2.6-0.2,3.4-0.6c0.1,0,0.2-0.1,0.3-0.1l0,0c0.3-0.2,0.6-0.4,0.7-0.6c0.1-0.1,0.2-0.3,0.2-0.4
	c1.1-2.2,1.3-4.4,0.7-6.7c-0.6-1.9-1.9-3.8-3.8-5.6h0c3,0,5.5-0.6,7.4-1.8c2-1.3,3.3-3.1,3.8-5.6c0.1-0.1,0.1-0.3,0.1-0.5
	c0-0.3,0-0.6-0.2-0.9l0,0c0-0.1-0.1-0.2-0.2-0.3c-0.5-1-1.5-2.3-3.1-3.2c0.8-1.6,1.1-3.2,1.1-4.3c0-0.1,0-0.2,0-0.3l0,0
	c-0.1-0.4-0.2-0.7-0.3-0.9c-0.1-0.1-0.2-0.2-0.3-0.3c-1.8-1.9-3.9-2.9-6.4-3c-2.9-0.1-6,1.3-8.8,3.1c1.1-3.2,1.6-6.5,0.8-9.3
	c-0.7-2.4-2.2-4.2-4.5-5.4c-0.1-0.1-0.3-0.2-0.4-0.2c-0.2-0.1-0.6-0.1-0.9-0.1l0,0c-0.1,0-0.2,0-0.3,0.1c-1.1,0.2-2.6,0.9-3.9,2.1
	c-1.3-1.2-2.8-1.9-3.9-2.1c-0.1,0-0.2-0.1-0.3-0.1l0,0c-0.4,0-0.7,0-0.9,0.1c-0.2,0.1-0.3,0.1-0.4,0.2c-1.6,0.9-2.8,2-3.7,3.4
	c-0.4-0.9-0.7-2-0.9-3.2c2.1-0.5,3.6-1.4,4.5-2.2c0.7,0.4,1.4,0.6,2.2,0.6c1.4,0,2.9-0.6,4.2-1.7c2.4-2.2,2.9-5.4,1.1-7.5
	c-1.8-2-5.1-1.9-7.6,0.2c-1.7,1.5-2.4,3.6-2.1,5.3c-0.5,0.4-1.3,1-2.5,1.4c0-0.5,0.1-1,0.2-1.5c0.9-4.2,3.8-7.9,8.8-10.9
	c0.1,0,0.1-0.1,0.2-0.2c0.8,0.5,1.7,0.8,2.6,0.8c0.8,0,1.6-0.2,2.4-0.6c0,0,0,0,0,0c2.3-1.3,3.1-4.3,1.7-6.6
	c-0.7-1.1-1.7-1.9-2.9-2.3c-1.3-0.4-2.6-0.2-3.7,0.5c-1.1,0.6-1.9,1.7-2.2,3c-0.2,0.8-0.2,1.6,0,2.3c-3.5,2.1-6.1,4.5-7.9,7.2
	c-0.2-0.4-0.4-0.9-0.6-1.4c1-0.4,1.9-1,2.5-2c0.7-1.1,1-2.4,0.7-3.7c-0.6-2.7-3.2-4.4-5.9-3.8c-2.7,0.6-4.4,3.2-3.8,5.9
	c0.3,1.3,1,2.4,2.2,3.1c0.2,0.1,0.3,0.2,0.5,0.3c0.3,1.4,1,3.7,2.6,5.3c-0.3,0.8-0.5,1.6-0.7,2.4c-0.6,3-0.4,5.8,0.2,8.2
	c-0.6-0.2-1.1-0.5-1.6-0.8c0.6-2,0.2-4.3-1.4-6.3c-1.1-1.3-2.5-2.3-4-2.7c-1.7-0.4-3.3-0.1-4.6,0.9c-1.2,1-2,2.5-2,4.2
	c0,1.6,0.6,3.2,1.6,4.5c1.4,1.8,3.5,2.8,5.5,2.8c0.9,0,1.7-0.2,2.4-0.6c1.3,0.8,3.5,1.9,5.6,2.1c0.6,1.2,1.2,2.1,1.3,2.3
	c0,0.1,0.1,0.1,0.1,0.1c0.1,1.9,0.5,3.8,1.2,5.7c-2.8-1.9-5.9-3.2-8.8-3.1c-2.5,0.1-4.6,1.1-6.4,3c-0.1,0.1-0.2,0.2-0.3,0.3
	c-0.2,0.2-0.3,0.5-0.3,0.9l0,0c0,0.1,0,0.2,0,0.3c-0.1,1.1,0.2,2.7,1.1,4.3c-1.5,1-2.6,2.2-3.1,3.2C19,51.9,19,52,18.9,52.1l0,0
	c-0.1,0.4-0.2,0.7-0.2,0.9c0,0.2,0.1,0.3,0.1,0.5c0.6,2.4,1.9,4.3,3.8,5.6c1.9,1.2,4.4,1.8,7.4,1.8h0c-1.9,1.8-3.2,3.6-3.8,5.6
	c-0.7,2.2-0.5,4.4,0.7,6.7c0,0.1,0.1,0.3,0.2,0.4c0.1,0.2,0.4,0.4,0.7,0.6l0,0c0.1,0.1,0.2,0.1,0.3,0.1c1,0.5,2.6,0.7,4.4,0.5
	c0.4,1.8,1.2,3.2,1.9,4c0.1,0.1,0.1,0.2,0.2,0.3l0,0c0.3,0.2,0.6,0.4,0.8,0.5c0.2,0,0.3,0.1,0.5,0.1c0.2,0,0.4,0,0.6,0
	c1.4,0,3.3-0.5,5.3-2.4c1.5-1.5,2.8-3.5,3.8-5.6c1.9,5,5.3,7.8,9.9,7.9c0.3,0,0.5,0,0.8,0c0.3-0.1,0.5-0.2,0.8-0.5l0,0
	c0,0,0.1-0.1,0.1-0.1c0.4,4.5-0.4,9.8-4.2,15.5c-0.6,0.9-0.3,2,0.5,2.6c0.3,0.2,0.7,0.3,1,0.3c0.6,0,1.2-0.3,1.5-0.8
	c1.5-2.2,2.6-4.5,3.4-6.6c0.2-0.1,0.4-0.2,0.5-0.4c1.5-1.8,3.2-3.4,5.2-4.6c1.2,0.9,2.9,1.4,4.7,1.4c1.4,0,2.8-0.3,4.3-0.8
	c2.1-0.8,3.9-2,5-3.5C80.9,80.3,81.3,78.3,80.7,76.6z M43,20.6c0.6-0.5,1.2-0.7,1.7-0.7c0.3,0,0.5,0.1,0.6,0.2
	c0.3,0.3,0.2,1.4-0.8,2.2c-0.9,0.8-2,0.9-2.3,0.5C41.9,22.5,42,21.4,43,20.6z M46.5,7.6c0-0.2,0.2-0.5,0.5-0.7
	c0.2-0.1,0.4-0.1,0.5-0.1c0.1,0,0.2,0,0.3,0c0.3,0.1,0.6,0.3,0.7,0.6c0.3,0.6,0.2,1.3-0.4,1.6C47.7,9.2,47,9,46.7,8.5
	C46.5,8.2,46.5,7.9,46.5,7.6z M27,29.2c-0.7,0.6-2.3,0.2-3.4-1.2c-0.5-0.7-0.8-1.5-0.8-2.2c0-0.3,0.1-1,0.5-1.3
	c0.3-0.2,0.6-0.3,0.9-0.3c0.2,0,0.4,0,0.5,0.1c0.7,0.2,1.4,0.7,2,1.4C27.8,27,27.8,28.6,27,29.2z M33.8,10.8
	c-0.2,0.3-0.5,0.5-0.8,0.5c-0.3,0.1-0.7,0-0.9-0.2c-0.3-0.2-0.5-0.5-0.5-0.8c-0.1-0.7,0.3-1.3,0.9-1.5c0.1,0,0.2,0,0.3,0
	c0.6,0,1.1,0.4,1.2,1v0C34,10.2,34,10.5,33.8,10.8z M59.4,71C59.4,71,59.4,71,59.4,71c-0.4-1-1.5-1.5-2.4-1.1c-1,0.4-1.4,1.5-1,2.4
	c0.1,0.2,0.2,0.4,0.3,0.7c-0.1,1.3-0.5,2.2-0.8,2.8c-5.6-0.6-7-7.7-7.3-12.5c0-0.4,0-0.7-0.1-1c-0.1-1-1-1.7-2-1.6
	c-1,0.1-1.8,0.9-1.7,1.9l0,0.1c0,0.2,0,0.5,0,0.7c-0.1,2.9-2,8.4-4.9,11.1c-0.8,0.8-1.7,1.3-2.4,1.3c-0.4-0.6-0.9-1.7-0.9-3.3
	c0-0.6-0.3-1.2-0.8-1.5c-0.3-0.2-0.7-0.3-1.1-0.3c-0.2,0-0.4,0-0.6,0.1c-1.6,0.6-2.8,0.4-3.5,0.2c-0.5-1.2-0.6-2.3-0.2-3.5
	c0.8-2.6,3.8-5.4,8.7-7.9c0.8-0.4,1.2-1.4,0.9-2.3c-0.3-0.9-1.3-1.4-2.2-1.2c-5.7,1.4-10.2,1.3-12.6-0.2c-1-0.7-1.7-1.6-2.1-2.9
	c0.4-0.6,1.3-1.5,2.8-2.1c0.6-0.2,1-0.7,1.1-1.3c0.2-0.6,0-1.2-0.4-1.7c-1.1-1.3-1.4-2.5-1.5-3.2c1-1,2.1-1.4,3.4-1.5
	c0,0,0.1,0,0.1,0c3.4,0,7.9,2.9,12.9,8.1c0.7,0.7,1.7,0.8,2.5,0.2c0.8-0.6,0.9-1.6,0.4-2.4c-3.9-6.2-5.5-11.5-4.5-14.7
	c0.4-1.2,1.1-2.2,2.3-2.9c0.6,0.2,1.7,0.8,2.7,2.2c0.3,0.5,0.9,0.8,1.5,0.8c0.6,0,1.2-0.3,1.5-0.8c1-1.4,2.1-2,2.7-2.2
	c1.2,0.7,1.9,1.7,2.3,2.9c0.9,3.2-0.7,8.5-4.5,14.7c-0.5,0.8-0.3,1.9,0.4,2.4c0.8,0.6,1.8,0.5,2.5-0.2c5-5.2,9.6-8.1,12.9-8.1
	c0,0,0.1,0,0.1,0c1.3,0,2.4,0.5,3.4,1.5c-0.1,0.7-0.4,1.9-1.5,3.2c-0.4,0.5-0.5,1.1-0.4,1.7c0.2,0.6,0.6,1.1,1.1,1.3
	c1.6,0.6,2.4,1.5,2.8,2.1c-0.4,1.3-1.1,2.2-2.1,2.9c-2.4,1.5-6.9,1.6-12.6,0.2c-0.9-0.2-1.8,0.3-2.2,1.2c-0.3,0.9,0,1.9,0.9,2.3
	c4.9,2.5,7.9,5.3,8.7,7.9c0.4,1.2,0.3,2.3-0.2,3.5C61.6,71.2,60.6,71.3,59.4,71z M76.6,79.7c-0.7,1-2,1.8-3.4,2.3
	c-3,1.1-5.4,0.5-5.7-0.5c-0.4-0.9,1-3,4-4.1c1.1-0.4,2.1-0.6,3-0.6c1.5,0,2.5,0.5,2.7,1.1C77.4,78.4,77.1,79,76.6,79.7z M46.2,46.1
	c0.9,0,1.7-0.8,1.7-1.7c0-0.9-0.8-1.7-1.7-1.7s-1.7,0.8-1.7,1.7C44.5,45.3,45.3,46.1,46.2,46.1z M55.9,54.1c0.9,0,1.7-0.8,1.7-1.7
	s-0.8-1.7-1.7-1.7c-0.9,0-1.7,0.8-1.7,1.7S54.9,54.1,55.9,54.1z M39.8,61.5c-0.9,0-1.7,0.8-1.7,1.7c0,0.9,0.8,1.7,1.7,1.7
	c0.9,0,1.7-0.8,1.7-1.7C41.4,62.2,40.7,61.5,39.8,61.5z M46.2,53.5c-1.2,0-2.2,1-2.2,2.2c0,1.2,1,2.2,2.2,2.2c1.2,0,2.2-1,2.2-2.2
	C48.4,54.5,47.4,53.5,46.2,53.5z M36.5,50.2c-0.9,0-1.7,0.8-1.7,1.7c0,0.9,0.8,1.7,1.7,1.7c0.9,0,1.7-0.8,1.7-1.7
	C38.2,51,37.5,50.2,36.5,50.2z"/>
</svg>
