<?xml version="1.0" encoding="UTF-8" standalone="no"?>
<svg
   xmlns:dc="http://purl.org/dc/elements/1.1/"
   xmlns:cc="http://creativecommons.org/ns#"
   xmlns:rdf="http://www.w3.org/1999/02/22-rdf-syntax-ns#"
   xmlns:svg="http://www.w3.org/2000/svg"
   xmlns="http://www.w3.org/2000/svg"
   xmlns:sodipodi="http://sodipodi.sourceforge.net/DTD/sodipodi-0.dtd"
   xmlns:inkscape="http://www.inkscape.org/namespaces/inkscape"
   version="1.1"
   id="Layer_1"
   x="0px"
   y="0px"
   viewBox="0 0 100 100"
   enable-background="new 0 0 100 100"
   xml:space="preserve"
   sodipodi:docname="Jitomate (Tomate) color.svg"
   inkscape:version="1.0.1 (3bc2e813f5, 2020-09-07)"><metadata
   id="metadata11"><rdf:RDF><cc:Work
       rdf:about=""><dc:format>image/svg+xml</dc:format><dc:type
         rdf:resource="http://purl.org/dc/dcmitype/StillImage" /><dc:title></dc:title></cc:Work></rdf:RDF></metadata><defs
   id="defs9" /><sodipodi:namedview
   pagecolor="#ffffff"
   bordercolor="#666666"
   borderopacity="1"
   objecttolerance="10"
   gridtolerance="10"
   guidetolerance="10"
   inkscape:pageopacity="0"
   inkscape:pageshadow="2"
   inkscape:window-width="1920"
   inkscape:window-height="1017"
   id="namedview7"
   showgrid="false"
   inkscape:zoom="8.5"
   inkscape:cx="48.649045"
   inkscape:cy="45.294118"
   inkscape:window-x="-8"
   inkscape:window-y="-8"
   inkscape:window-maximized="1"
   inkscape:current-layer="Layer_1" />
<g
   id="g4"
   transform="translate(-106.47059,-2.4705882)">
	<path
   fill="#2c3136"
   d="M 61.7,10.1 C 61,9.4 60,9.1 59,9.3 L 58,9.5 C 56.5,9.3 54.9,9.2 53.3,9.2 c -4.9,0 -9.6,0.8 -14,2.3 L 37.2,5.1 c -0.4,-1.2 -1.4,-2 -2.6,-2.2 -1.2,-0.1 -2.4,0.5 -3,1.5 l -5.7,9.7 c -3.9,-2.9 -8.6,-5 -13.4,-5 -1.7,0 -3.1,1.4 -3.1,3.1 0,1.7 1.4,3.1 3.1,3.1 3.6,0 7.3,1.8 10.2,4.1 L 4.5,31.8 c -1.2,0.8 -1.7,2.2 -1.3,3.5 0.4,1.3 1.6,2.2 3,2.2 h 6.1 c -1.9,4.9 -2.9,10.2 -2.9,15.7 0,0.8 0.1,1.5 0.1,2.3 -0.2,0.7 -0.1,1.4 0.1,2 2.2,22.3 20.9,39.7 43.8,39.7 24.3,0 44,-19.7 44,-44 C 97.3,31.8 82,14 61.7,10.1 Z M 53.3,90.9 C 34,90.9 18,76.2 15.9,57.4 l 3,-2.9 c 0.3,8.4 3.6,16.7 10,23.1 6.7,6.7 15.6,10.1 24.4,10.1 8.8,0 17.7,-3.4 24.4,-10.1 1.2,-1.2 1.2,-3.2 0,-4.4 -1.2,-1.2 -3.2,-1.2 -4.4,0 -11,11 -29,11 -40,0 C 26.5,66.4 23.9,56.9 25.5,48 l 1.4,-1.3 11.3,14.7 c 0.6,0.8 1.5,1.2 2.5,1.2 0.3,0 0.7,-0.1 1,-0.2 1.3,-0.4 2.1,-1.6 2.1,-3 V 37.1 L 66.2,34.3 C 67.6,34.1 68.7,33 68.9,31.6 69.1,30.2 68.3,28.8 67,28.3 L 53.7,22.9 60.2,16.2 C 77.8,19.5 91,34.8 91,53.2 91,74 74.1,90.9 53.3,90.9 Z M 26.8,24.4 c 0,0 0.1,-0.1 0,0 0.9,1.3 1.4,2.6 1.4,3.7 0,1.7 1.4,3.1 3.1,3.1 1.7,0 3.1,-1.4 3.1,-3.1 0,-3 -1.5,-6.3 -3.9,-9.4 l 2.9,-5 1.3,4.1 c 0.5,1.5 2,2.4 3.6,2.1 L 50.2,17.5 46,21.9 c -0.7,0.8 -1,1.8 -0.8,2.8 0.2,1 0.9,1.9 1.9,2.3 l 6.5,2.6 -13.2,1.7 c -1.6,0.2 -2.8,1.5 -2.8,3.1 V 50.3 L 29.7,40.1 c -0.5,-0.7 -1.4,-1.2 -2.3,-1.2 -0.1,0 -0.2,0 -0.2,0 -0.8,0 -1.6,0.3 -2.2,0.9 l -6.3,6.2 3,-10.7 c 0.3,-0.9 0.1,-2 -0.5,-2.8 -0.6,-0.8 -1.5,-1.2 -2.5,-1.2 h -2.2 z"
   id="path2" />
</g>
<path
   style="fill:#ff5555;stroke:#ffffff;stroke-width:0.117647"
   d="M 51.176471,96.86304 C 42.121525,96.37869 33.828398,93.393317 26.764706,88.075252 23.022292,85.257688 19.421967,81.477457 16.832807,77.647059 13.236161,72.32619 10.81903,66.294113 9.8361983,60.186658 c -0.4946,-3.073511 -0.575618,-3.844367 -0.60077,-5.71607 -0.07665,-5.704141 0.651491,-10.676109 2.2420937,-15.309676 0.296927,-0.864972 0.568599,-1.665324 0.603717,-1.778559 0.05977,-0.192731 -0.149342,-0.205925 -3.2733997,-0.206539 -1.935894,-3.53e-4 -3.5212594,-0.05176 -3.7754562,-0.122356 -1.1778397,-0.327116 -2.0912066,-1.579463 -2.0912066,-2.867323 0,-0.794261 0.3581301,-1.698069 0.8535126,-2.153997 0.145274,-0.133704 4.3670752,-3.03447 9.3817819,-6.446146 5.014706,-3.411678 9.165697,-6.247261 9.224426,-6.301299 0.165482,-0.152265 -0.08221,-0.379205 -1.320811,-1.21016 C 19.214791,16.823141 16.93622,15.779655 15.117647,15.343999 14.729412,15.250989 13.764713,15.123638 12.973871,15.060987 11.35596,14.932817 10.9382,14.797508 10.255161,14.180423 8.5370213,12.628188 9.1347653,9.8348689 11.341946,9.101761 11.80865,8.9467468 12.189262,8.9219505 13.228027,8.9788852 c 2.309323,0.1265739 4.989093,0.8330407 7.420044,1.9561438 1.09488,0.505836 3.41247,1.854869 4.343226,2.528124 0.318742,0.23056 0.617808,0.4192 0.664589,0.4192 0.04678,0 1.374228,-2.20405 2.94988,-4.8978892 1.575652,-2.6938391 3.038287,-5.0758333 3.2503,-5.2933206 0.984147,-1.0095601 2.374784,-1.2292404 3.552567,-0.5612027 1.035382,0.587268 1.272621,1.0445707 2.487422,4.7947593 0.589822,1.8208269 1.092617,3.3325352 1.117323,3.3593512 0.02471,0.02682 0.667096,-0.14431 1.427535,-0.380281 2.359459,-0.732158 4.966108,-1.2764086 7.794381,-1.6274123 C 49.485817,9.1211612 54.520804,9.0637799 57,9.1764707 c 0.711765,0.032353 1.585294,0.013447 1.941177,-0.042014 0.772464,-0.1203803 1.416607,0.025554 2.070028,0.4689774 0.287732,0.1952608 0.910553,0.4117349 1.692609,0.5883009 3.323639,0.750383 6.29434,1.788733 9.371671,3.275681 4.874222,2.355195 8.39511,4.862004 12.220648,8.700879 6.875394,6.899367 11.145094,15.622007 12.471762,25.478764 0.26589,1.975472 0.36309,6.805273 0.18058,8.972543 -1.092411,12.971975 -7.776318,24.604655 -18.559914,32.30169 -3.63393,2.593801 -8.480043,4.918989 -13.016635,6.245446 -4.462529,1.304802 -9.735292,1.934876 -14.195455,1.696302 z m 6.764706,-6.446006 C 66.398467,89.235721 73.860062,85.554251 79.758302,79.652699 88.743211,70.662747 92.552965,57.986426 90.054938,45.392364 88.645066,38.284344 85.035525,31.59857 79.773202,26.348015 74.91223,21.497912 68.811305,18.043382 62.235294,16.417514 61.361765,16.201541 60.48209,15.995518 60.28046,15.959686 c -0.351178,-0.06241 -0.503495,0.07649 -3.620956,3.301921 -1.789896,1.851888 -3.213162,3.405144 -3.162812,3.451679 0.05035,0.04653 3.103319,1.306245 6.784376,2.799355 3.681058,1.493111 6.87235,2.835643 7.091758,2.983406 1.297953,0.874115 1.605118,2.873019 0.648168,4.218001 -0.357792,0.502871 -0.98629,0.968745 -1.550406,1.149234 -0.22647,0.07246 -5.308823,0.74096 -11.294117,1.485556 -5.985294,0.744596 -11.054412,1.383408 -11.264706,1.419582 l -0.382353,0.06577 v 11.328912 c 0,12.157195 0.01006,11.93963 -0.592714,12.819321 -0.588941,0.859503 -1.982905,1.454237 -2.972559,1.268242 -0.663726,-0.124741 -1.278322,-0.429388 -1.64402,-0.814919 -0.165955,-0.174955 -2.824347,-3.600454 -5.907537,-7.612218 -3.083189,-4.011765 -5.672774,-7.294118 -5.754631,-7.294118 -0.08186,0 -0.447478,0.272945 -0.812489,0.606543 l -0.663655,0.606544 -0.196837,1.45228 c -0.404851,2.987014 -0.212002,7.035696 0.481052,10.099252 1.798915,7.951862 7.037189,14.831582 14.181037,18.624753 2.991062,1.588164 6.129091,2.601907 9.588235,3.097488 1.709639,0.244934 5.585743,0.277978 7.235294,0.06168 6.138485,-0.804908 11.29151,-3.188238 15.901074,-7.354418 0.669116,-0.604755 1.391478,-1.18984 1.605251,-1.300189 0.591299,-0.305227 1.417481,-0.361828 2.150498,-0.147328 1.729286,0.506034 2.626231,2.464622 1.88957,4.126105 -0.295976,0.667552 -1.425088,1.801771 -3.311099,3.326076 C 66.407925,86.434739 55.460471,88.92173 45.117647,86.44991 36.581362,84.409833 29.192822,79.256472 24.400341,71.999998 21.110851,67.01926 19.249454,61.46056 18.756934,55.147057 c -0.03912,-0.501471 -0.10711,-0.911765 -0.15109,-0.911765 -0.04398,0 -0.73954,0.661165 -1.545691,1.469256 l -1.465728,1.469256 0.202993,1.383685 c 2.041933,13.918679 11.961447,25.746208 25.342097,30.216642 2.671077,0.892399 5.603127,1.511833 8.566367,1.809758 1.528579,0.153683 6.689019,0.04913 8.235295,-0.166857 z M 37.725378,32.877065 c 0.329709,-0.615804 1.180374,-1.396534 1.713247,-1.572398 0.230354,-0.07603 3.446148,-0.528275 7.146207,-1.005003 3.700059,-0.476727 6.752141,-0.891538 6.782405,-0.921803 0.03026,-0.03026 -1.425171,-0.647547 -3.234298,-1.37174 -1.809128,-0.724193 -3.529355,-1.468939 -3.822727,-1.654989 -1.040484,-0.659855 -1.562975,-2.094373 -1.207814,-3.31609 0.214648,-0.738363 0.691268,-1.325938 3.179337,-3.919477 0.963778,-1.004632 1.731425,-1.846997 1.705883,-1.871921 -0.02554,-0.02493 -2.746441,0.507136 -6.046441,1.182358 -6.749162,1.380964 -7.031487,1.408749 -8.03164,0.790402 -0.92896,-0.574332 -1.190379,-1.044262 -1.96836,-3.538351 -0.388236,-1.244622 -0.733516,-2.263701 -0.767289,-2.264619 -0.03377,-9.18e-4 -0.714203,1.123331 -1.512066,2.498331 -1.340648,2.310415 -1.43859,2.519815 -1.291534,2.761302 0.08752,0.143715 0.464284,0.706644 0.837258,1.250951 1.49554,2.182546 2.531339,4.666324 2.804413,6.724806 0.175485,1.322829 0.08251,1.968203 -0.399839,2.77539 -0.689954,1.15461 -2.05079,1.714121 -3.291176,1.353176 -1.410893,-0.410563 -2.115898,-1.335162 -2.311487,-3.031471 -0.06223,-0.539667 -0.18966,-1.195775 -0.283189,-1.458018 -0.164477,-0.461176 -0.773342,-1.697897 -1.007802,-2.04704 -0.09278,-0.138167 -1.107787,0.490759 -5.298969,3.283399 -2.851312,1.899866 -5.184203,3.498832 -5.184203,3.553257 0,0.05442 0.677841,0.09895 1.506313,0.09895 1.384903,0 1.5556,0.02456 2.117832,0.304733 1.009243,0.502927 1.669973,1.553671 1.669973,2.655723 0,0.246375 -0.691364,2.914326 -1.536362,5.92878 -0.844999,3.014454 -1.517302,5.538008 -1.494005,5.607899 0.0233,0.06989 1.48624,-1.297198 3.250986,-3.037973 3.677696,-3.627742 4.008131,-3.871331 5.249969,-3.870132 1.54262,0.0015 1.453315,-0.08554 6.19746,6.039705 l 4.155481,5.365214 0.05882,-8.40874 c 0.05836,-8.342698 0.06083,-8.412476 0.313613,-8.884615 z"
   id="path836" /></svg>
