<?xml version="1.0" encoding="utf-8"?>
<!-- Generator: Adobe Illustrator 18.0.0, SVG Export Plug-In . SVG Version: 6.00 Build 0)  -->
<!DOCTYPE svg PUBLIC "-//W3C//DTD SVG 1.1//EN" "http://www.w3.org/Graphics/SVG/1.1/DTD/svg11.dtd">
<svg version="1.1" id="Layer_1" xmlns="http://www.w3.org/2000/svg" xmlns:xlink="http://www.w3.org/1999/xlink" x="0px" y="0px"
	 viewBox="0 0 100 100" enable-background="new 0 0 100 100" xml:space="preserve">
<g>
	<path fill="#FFFFFF" d="M61.7,10.1C61,9.4,60,9.1,59,9.3L58,9.5c-1.5-0.2-3.1-0.3-4.7-0.3c-4.9,0-9.6,0.8-14,2.3l-2.1-6.4
		c-0.4-1.2-1.4-2-2.6-2.2c-1.2-0.1-2.4,0.5-3,1.5l-5.7,9.7c-3.9-2.9-8.6-5-13.4-5c-1.7,0-3.1,1.4-3.1,3.1s1.4,3.1,3.1,3.1
		c3.6,0,7.3,1.8,10.2,4.1L4.5,31.8c-1.2,0.8-1.7,2.2-1.3,3.5c0.4,1.3,1.6,2.2,3,2.2h6.1c-1.9,4.9-2.9,10.2-2.9,15.7
		c0,0.8,0.1,1.5,0.1,2.3c-0.2,0.7-0.1,1.4,0.1,2c2.2,22.3,20.9,39.7,43.8,39.7c24.3,0,44-19.7,44-44C97.3,31.8,82,14,61.7,10.1z
		 M53.3,90.9C34,90.9,18,76.2,15.9,57.4l3-2.9c0.3,8.4,3.6,16.7,10,23.1c6.7,6.7,15.6,10.1,24.4,10.1c8.8,0,17.7-3.4,24.4-10.1
		c1.2-1.2,1.2-3.2,0-4.4c-1.2-1.2-3.2-1.2-4.4,0c-11,11-29,11-40,0c-6.8-6.8-9.4-16.3-7.8-25.2l1.4-1.3l11.3,14.7
		c0.6,0.8,1.5,1.2,2.5,1.2c0.3,0,0.7-0.1,1-0.2c1.3-0.4,2.1-1.6,2.1-3V37.1l22.4-2.8c1.4-0.2,2.5-1.3,2.7-2.7
		c0.2-1.4-0.6-2.8-1.9-3.3l-13.3-5.4l6.5-6.7C77.8,19.5,91,34.8,91,53.2C91,74,74.1,90.9,53.3,90.9z M26.8,24.4
		C26.8,24.4,26.9,24.3,26.8,24.4c0.9,1.3,1.4,2.6,1.4,3.7c0,1.7,1.4,3.1,3.1,3.1s3.1-1.4,3.1-3.1c0-3-1.5-6.3-3.9-9.4l2.9-5l1.3,4.1
		c0.5,1.5,2,2.4,3.6,2.1l11.9-2.4l-4.2,4.4c-0.7,0.8-1,1.8-0.8,2.8c0.2,1,0.9,1.9,1.9,2.3l6.5,2.6l-13.2,1.7
		c-1.6,0.2-2.8,1.5-2.8,3.1v15.9l-7.9-10.2c-0.5-0.7-1.4-1.2-2.3-1.2c-0.1,0-0.2,0-0.2,0c-0.8,0-1.6,0.3-2.2,0.9l-6.3,6.2l3-10.7
		c0.3-0.9,0.1-2-0.5-2.8c-0.6-0.8-1.5-1.2-2.5-1.2h-2.2L26.8,24.4z"/>
</g>
</svg>
