<?xml version="1.0" encoding="utf-8"?>
<!-- Generator: Adobe Illustrator 18.0.0, SVG Export Plug-In . SVG Version: 6.00 Build 0)  -->
<!DOCTYPE svg PUBLIC "-//W3C//DTD SVG 1.1//EN" "http://www.w3.org/Graphics/SVG/1.1/DTD/svg11.dtd">
<svg version="1.1" id="Layer_1" xmlns="http://www.w3.org/2000/svg" xmlns:xlink="http://www.w3.org/1999/xlink" x="0px" y="0px"
	 viewBox="0 0 100 100" enable-background="new 0 0 100 100" xml:space="preserve">
<g>
	<path fill="#2C3136" d="M97,44.3c0-14.5-5.5-20.3-8.8-22.4c0.1-2.8-0.2-7.7-3.4-11.4c-2.6-3.1-6.5-4.7-11.5-4.7
		c-5.5,0-9.4,1.9-12.1,4.5c-9.6-8.3-22-8.9-30.5-5.6c-8,3.2-12.9,9.7-13.3,17.7c-5.3,2.3-9.6,6.4-12.2,12.1
		C1.1,43.8,2.6,54.9,8.9,63C7,65.6,5.7,69,5.7,73.5c0,5,1.6,8.9,4.7,11.5c3.7,3.1,8.6,3.5,11.4,3.4c2.1,3.2,7.9,8.8,22.4,8.8
		c8.5,0,14.5-2.9,18.5-6.3c1.3,0.1,2.5,0.2,3.7,0.2c7.2,0,13.4-2.4,18-7c5.2-5.3,7.4-12.8,6.4-21.3C94.1,58.7,97,52.8,97,44.3z
		 M73.4,11.7c3.2,0,5.5,0.9,7,2.6c2.8,3.3,1.9,8.8,1.9,8.8c-0.2,1.4,0.7,2.8,2,3.3c0.3,0.1,6.9,2.6,6.9,17.9c0,8.7-3.7,14-7.1,17
		c0.7-2.7,1.1-5.4,1.1-8.3c0-2.4-0.3-4.7-0.8-6.9c0.3-0.3,0.5-0.6,0.6-1l2.9-8.8c0.5-1.5-0.3-3.2-1.9-3.7c-1.6-0.5-3.2,0.3-3.7,1.9
		l-1.1,3.2c-1.9-3.6-4.6-6.8-7.7-9.4l2.5-10c0.4-1.6-0.6-3.2-2.1-3.6c-1.6-0.4-3.2,0.6-3.6,2.1l-2,7.8c-2.1-1.2-4.4-2.1-6.7-2.8
		C62.3,18.5,64.6,11.7,73.4,11.7z M64.4,56.9C64.4,56.9,64.4,56.8,64.4,56.9l3-8.9c0.5-1.5-0.3-3.2-1.9-3.7
		c-1.6-0.5-3.2,0.3-3.7,1.9l-1.9,5.7c-2.1-2.1-4.1-3.7-5.7-4.5c-1.5-0.7-3.2-0.1-3.9,1.3c-0.7,1.5-0.1,3.2,1.3,3.9
		c2.5,1.2,6.5,5.3,9.9,10l-6.6,2.2c-1.5,0.5-2.4,2.2-1.9,3.7c0.4,1.2,1.6,2,2.8,2c0.3,0,0.6,0,0.9-0.2l8-2.7c1.4,2.5,2.4,5,2.7,7.2
		c-4.2,2.8-9.2,4.4-14.6,4.4c-1,0-2-0.1-2.9-0.2c-4.5-1.6-8.3-5.9-8.8-10.3c-0.4-3.2,1.1-5.7,4.3-7.5c1.1-0.6,1.7-1.8,1.5-3
		c-0.2-1.2-1.1-2.2-2.4-2.4c-3.1-0.6-6.3-4-6.3-9.3c0-2.9,2-5.9,4.9-7.4c3.3-1.7,7.2-1.2,11,1.4c0.8,0.6,1.9,0.7,2.9,0.3
		c0.9-0.4,1.6-1.3,1.7-2.3c0.1-0.7,0.4-2.7,3.9-3.2c4.8-0.7,11.9,2.1,14,7c0.2,0.5,0.5,0.8,0.9,1.1c1.1,2.9,1.8,6.1,1.8,9.5
		c0,6.9-2.6,13.1-6.9,17.8C70.8,66.1,67.7,61.1,64.4,56.9z M26.4,53c0-14.6,11.9-26.5,26.5-26.5c4.4,0,8.5,1.1,12.2,3
		c-1.1-0.1-2.2,0-3.3,0.1c-3.4,0.5-6,2.1-7.5,4.4c-4.7-2.2-9.6-2.2-13.9,0c-4.8,2.5-8,7.6-8,12.6c0,5.8,2.7,10.2,6.1,12.8
		c-2.5,2.8-3.7,6.3-3.2,10.2c0.2,1.3,0.5,2.6,1,3.9C30.2,68.7,26.4,61.3,26.4,53z M10.7,37c3-6.5,8.7-10.4,15.7-10.6
		c1.6-0.1,2.9-1.4,2.8-3c-0.1-1.6-1.4-2.9-3-2.8c-0.9,0-1.7,0.1-2.6,0.3c0.9-4.7,4.2-8.5,9.3-10.5c6.7-2.7,17-2.1,24.9,4.9
		c-1,1.9-1.5,3.9-1.9,5.7c-1-0.1-2.1-0.2-3.1-0.2C35,20.6,20.5,35.1,20.5,53c0,1.1,0.1,2.1,0.2,3.1c-2.3,0.4-5,1.3-7.4,2.9
		C8.5,52.6,7.4,44.1,10.7,37z M26.3,84.5c-0.4-1.4-1.8-2.3-3.3-2.1c0,0-5.5,0.9-8.8-1.9c-1.7-1.5-2.6-3.8-2.6-7
		c0-8.8,6.8-11.1,10.2-11.7c0.7,2.4,1.6,4.7,2.9,6.9l-7.8,1.9c-1.6,0.4-2.5,2-2.1,3.6c0.3,1.3,1.5,2.2,2.8,2.2c0.2,0,0.5,0,0.7-0.1
		l9.9-2.5c2.6,3,5.7,5.6,9.3,7.5l-3.2,1.1c-1.5,0.5-2.4,2.2-1.9,3.7c0.4,1.2,1.6,2,2.8,2c0.3,0,0.6,0,0.9-0.2l8.8-2.9
		c0.4-0.1,0.7-0.3,1-0.6c0.8,0.2,1.7,0.3,2.5,0.4c0.2,0.1,0.4,0.2,0.6,0.2c0.3,0.1,0.5,0.1,0.8,0.1c0.2,0,0.5-0.1,0.7-0.1
		c0.7,0.1,1.5,0.1,2.3,0.1c2.9,0,5.7-0.4,8.3-1.1c-3.1,3.4-8.4,7.1-17,7.1C28.8,91.3,26.3,84.7,26.3,84.5z M80.2,79.9
		c-3.1,3.1-7.4,4.9-12.4,5.2c1.7-2.5,2.4-4.4,2.5-4.6c0-0.1,0-0.3,0.1-0.4c0.7-0.5,1.4-1,2.1-1.5c0,0,0.1,0,0.1-0.1
		c2.9-2.2,5.4-5,7.4-8c0.1,0,0.3,0,0.4-0.1c0.2-0.1,2.2-0.8,4.7-2.5C84.9,72.7,83.2,76.9,80.2,79.9z"/>
</g>
</svg>
