<?xml version="1.0" encoding="UTF-8" standalone="no"?>
<svg
   xmlns:dc="http://purl.org/dc/elements/1.1/"
   xmlns:cc="http://creativecommons.org/ns#"
   xmlns:rdf="http://www.w3.org/1999/02/22-rdf-syntax-ns#"
   xmlns:svg="http://www.w3.org/2000/svg"
   xmlns="http://www.w3.org/2000/svg"
   xmlns:sodipodi="http://sodipodi.sourceforge.net/DTD/sodipodi-0.dtd"
   xmlns:inkscape="http://www.inkscape.org/namespaces/inkscape"
   version="1.1"
   id="Layer_1"
   x="0px"
   y="0px"
   viewBox="0 0 100 100"
   enable-background="new 0 0 100 100"
   xml:space="preserve"
   sodipodi:docname="Lechuga color.svg"
   inkscape:version="1.0.1 (3bc2e813f5, 2020-09-07)"><metadata
   id="metadata11"><rdf:RDF><cc:Work
       rdf:about=""><dc:format>image/svg+xml</dc:format><dc:type
         rdf:resource="http://purl.org/dc/dcmitype/StillImage" /><dc:title></dc:title></cc:Work></rdf:RDF></metadata><defs
   id="defs9" /><sodipodi:namedview
   pagecolor="#ffffff"
   bordercolor="#666666"
   borderopacity="1"
   objecttolerance="10"
   gridtolerance="10"
   guidetolerance="10"
   inkscape:pageopacity="0"
   inkscape:pageshadow="2"
   inkscape:window-width="1920"
   inkscape:window-height="1017"
   id="namedview7"
   showgrid="false"
   inkscape:zoom="8.5"
   inkscape:cx="54.410536"
   inkscape:cy="50"
   inkscape:window-x="-8"
   inkscape:window-y="-8"
   inkscape:window-maximized="1"
   inkscape:current-layer="Layer_1" />
<g
   id="g4"
   transform="translate(-99.411765,0.58823529)">
	<path
   fill="#2c3136"
   d="M 97,44.3 C 97,29.8 91.5,24 88.2,21.9 88.3,19.1 88,14.2 84.8,10.5 82.2,7.4 78.3,5.8 73.3,5.8 67.8,5.8 63.9,7.7 61.2,10.3 51.6,2 39.2,1.4 30.7,4.7 22.7,7.9 17.8,14.4 17.4,22.4 12.1,24.7 7.8,28.8 5.2,34.5 1.1,43.8 2.6,54.9 8.9,63 7,65.6 5.7,69 5.7,73.5 c 0,5 1.6,8.9 4.7,11.5 3.7,3.1 8.6,3.5 11.4,3.4 2.1,3.2 7.9,8.8 22.4,8.8 8.5,0 14.5,-2.9 18.5,-6.3 1.3,0.1 2.5,0.2 3.7,0.2 7.2,0 13.4,-2.4 18,-7 5.2,-5.3 7.4,-12.8 6.4,-21.3 3.3,-4.1 6.2,-10 6.2,-18.5 z M 73.4,11.7 c 3.2,0 5.5,0.9 7,2.6 2.8,3.3 1.9,8.8 1.9,8.8 -0.2,1.4 0.7,2.8 2,3.3 0.3,0.1 6.9,2.6 6.9,17.9 0,8.7 -3.7,14 -7.1,17 0.7,-2.7 1.1,-5.4 1.1,-8.3 0,-2.4 -0.3,-4.7 -0.8,-6.9 0.3,-0.3 0.5,-0.6 0.6,-1 l 2.9,-8.8 c 0.5,-1.5 -0.3,-3.2 -1.9,-3.7 -1.6,-0.5 -3.2,0.3 -3.7,1.9 l -1.1,3.2 c -1.9,-3.6 -4.6,-6.8 -7.7,-9.4 l 2.5,-10 c 0.4,-1.6 -0.6,-3.2 -2.1,-3.6 -1.6,-0.4 -3.2,0.6 -3.6,2.1 l -2,7.8 c -2.1,-1.2 -4.4,-2.1 -6.7,-2.8 0.7,-3.3 3,-10.1 11.8,-10.1 z m -9,45.2 c 0,0 0,-0.1 0,0 l 3,-8.9 c 0.5,-1.5 -0.3,-3.2 -1.9,-3.7 -1.6,-0.5 -3.2,0.3 -3.7,1.9 l -1.9,5.7 c -2.1,-2.1 -4.1,-3.7 -5.7,-4.5 -1.5,-0.7 -3.2,-0.1 -3.9,1.3 -0.7,1.5 -0.1,3.2 1.3,3.9 2.5,1.2 6.5,5.3 9.9,10 l -6.6,2.2 c -1.5,0.5 -2.4,2.2 -1.9,3.7 0.4,1.2 1.6,2 2.8,2 0.3,0 0.6,0 0.9,-0.2 l 8,-2.7 c 1.4,2.5 2.4,5 2.7,7.2 -4.2,2.8 -9.2,4.4 -14.6,4.4 -1,0 -2,-0.1 -2.9,-0.2 -4.5,-1.6 -8.3,-5.9 -8.8,-10.3 -0.4,-3.2 1.1,-5.7 4.3,-7.5 1.1,-0.6 1.7,-1.8 1.5,-3 -0.2,-1.2 -1.1,-2.2 -2.4,-2.4 -3.1,-0.6 -6.3,-4 -6.3,-9.3 0,-2.9 2,-5.9 4.9,-7.4 3.3,-1.7 7.2,-1.2 11,1.4 0.8,0.6 1.9,0.7 2.9,0.3 0.9,-0.4 1.6,-1.3 1.7,-2.3 0.1,-0.7 0.4,-2.7 3.9,-3.2 4.8,-0.7 11.9,2.1 14,7 0.2,0.5 0.5,0.8 0.9,1.1 1.1,2.9 1.8,6.1 1.8,9.5 0,6.9 -2.6,13.1 -6.9,17.8 -1.6,-4.6 -4.7,-9.6 -8,-13.8 z M 26.4,53 c 0,-14.6 11.9,-26.5 26.5,-26.5 4.4,0 8.5,1.1 12.2,3 -1.1,-0.1 -2.2,0 -3.3,0.1 -3.4,0.5 -6,2.1 -7.5,4.4 -4.7,-2.2 -9.6,-2.2 -13.9,0 -4.8,2.5 -8,7.6 -8,12.6 0,5.8 2.7,10.2 6.1,12.8 -2.5,2.8 -3.7,6.3 -3.2,10.2 0.2,1.3 0.5,2.6 1,3.9 C 30.2,68.7 26.4,61.3 26.4,53 Z M 10.7,37 c 3,-6.5 8.7,-10.4 15.7,-10.6 1.6,-0.1 2.9,-1.4 2.8,-3 -0.1,-1.6 -1.4,-2.9 -3,-2.8 -0.9,0 -1.7,0.1 -2.6,0.3 0.9,-4.7 4.2,-8.5 9.3,-10.5 6.7,-2.7 17,-2.1 24.9,4.9 -1,1.9 -1.5,3.9 -1.9,5.7 -1,-0.1 -2.1,-0.2 -3.1,-0.2 C 35,20.6 20.5,35.1 20.5,53 c 0,1.1 0.1,2.1 0.2,3.1 -2.3,0.4 -5,1.3 -7.4,2.9 C 8.5,52.6 7.4,44.1 10.7,37 Z m 15.6,47.5 c -0.4,-1.4 -1.8,-2.3 -3.3,-2.1 0,0 -5.5,0.9 -8.8,-1.9 -1.7,-1.5 -2.6,-3.8 -2.6,-7 0,-8.8 6.8,-11.1 10.2,-11.7 0.7,2.4 1.6,4.7 2.9,6.9 l -7.8,1.9 c -1.6,0.4 -2.5,2 -2.1,3.6 0.3,1.3 1.5,2.2 2.8,2.2 0.2,0 0.5,0 0.7,-0.1 l 9.9,-2.5 c 2.6,3 5.7,5.6 9.3,7.5 l -3.2,1.1 c -1.5,0.5 -2.4,2.2 -1.9,3.7 0.4,1.2 1.6,2 2.8,2 0.3,0 0.6,0 0.9,-0.2 L 44.9,85 c 0.4,-0.1 0.7,-0.3 1,-0.6 0.8,0.2 1.7,0.3 2.5,0.4 0.2,0.1 0.4,0.2 0.6,0.2 0.3,0.1 0.5,0.1 0.8,0.1 0.2,0 0.5,-0.1 0.7,-0.1 0.7,0.1 1.5,0.1 2.3,0.1 2.9,0 5.7,-0.4 8.3,-1.1 -3.1,3.4 -8.4,7.1 -17,7.1 -15.3,0.2 -17.8,-6.4 -17.8,-6.6 z m 53.9,-4.6 c -3.1,3.1 -7.4,4.9 -12.4,5.2 1.7,-2.5 2.4,-4.4 2.5,-4.6 0,-0.1 0,-0.3 0.1,-0.4 0.7,-0.5 1.4,-1 2.1,-1.5 0,0 0.1,0 0.1,-0.1 2.9,-2.2 5.4,-5 7.4,-8 0.1,0 0.3,0 0.4,-0.1 0.2,-0.1 2.2,-0.8 4.7,-2.5 -0.2,4.8 -1.9,9 -4.9,12 z"
   id="path2" />
</g>
<path
   style="fill:#2aff80;stroke:#ffffff;stroke-width:0.117647"
   d="M 40.731343,96.929929 C 34.365974,96.545486 28.891805,94.825488 25.177326,92.04282 c -1.106281,-0.828761 -2.405888,-2.093747 -3.0737,-2.991818 l -0.580795,-0.781053 -1.614357,-0.06874 C 12.083547,87.868026 6.9437064,83.760539 5.6963523,76.84364 5.5951739,76.282579 5.482479,75.054468 5.4459194,74.114506 5.2929008,70.180338 6.1825879,66.652589 8.0595297,63.751135 c 0.353428,-0.546344 0.518555,-0.908357 0.453885,-0.995071 -0.055907,-0.07496 -0.534848,-0.78057 -1.064313,-1.568011 C 5.0286656,57.588285 3.5116035,53.592866 2.8659632,49.117647 2.5858798,47.176265 2.5896224,43.504126 2.8736371,41.588235 4.1142361,33.219472 8.7986997,26.488413 15.853543,22.93754 17.177277,22.271272 17.115372,22.358175 17.233719,21 c 0.240062,-2.755031 1.4093,-5.954113 3.100008,-8.481749 2.969499,-4.439449 8.017561,-7.7194046 13.901567,-9.0324809 2.426681,-0.5415388 4.217741,-0.6967182 7.235294,-0.6268736 2.892356,0.066947 4.144631,0.2183646 6.470589,0.7823864 4.351704,1.0552454 8.185444,2.9167547 11.757318,5.7088787 L 60.8372,10.240284 61.683306,9.5447209 C 63.871746,7.7456584 66.142877,6.689036 69.114867,6.087256 70.230464,5.8613655 70.77359,5.8254104 73,5.8300587 c 2.217601,0.00463 2.760643,0.042718 3.792197,0.2659791 4.638168,1.0038475 7.907974,3.6242287 9.671694,7.7507752 0.838273,1.961295 1.29673,4.291574 1.303155,6.623775 l 0.0037,1.352941 0.614615,0.411765 c 0.338036,0.226471 1.119433,0.914706 1.736435,1.529412 3.979326,3.964515 6.164765,10.384658 6.42762,18.882353 0.234302,7.574599 -1.604873,13.937421 -5.545202,19.184219 l -0.624288,0.831277 0.0978,0.933429 c 0.05379,0.513385 0.100588,1.833428 0.103999,2.933428 0.03108,10.024229 -4.704709,17.968741 -13.076418,21.936321 -3.919881,1.857738 -8.641106,2.707073 -13.267248,2.386742 l -1.919056,-0.132882 -0.958232,0.748241 c -2.553697,1.994072 -5.953038,3.638643 -9.360728,4.528635 -3.464682,0.904878 -6.954929,1.193998 -11.268725,0.93346 z m 6.90778,-6.161472 c 3.474116,-0.504702 6.467317,-1.62903 9.198076,-3.455052 1.706339,-1.141006 4.283722,-3.431052 3.861554,-3.431052 -0.09401,0 -0.752928,0.129879 -1.464255,0.288619 -2.512263,0.560637 -3.894024,0.693805 -7.293321,0.70289 -2.162554,0.0058 -3.32668,-0.03677 -3.647059,-0.133297 -0.258824,-0.07798 -0.991397,-0.223772 -1.62794,-0.323972 -1.117792,-0.175956 -1.167353,-0.174316 -1.449939,0.04797 -0.449302,0.35342 -9.890674,3.418343 -10.52042,3.41521 -1.376506,-0.0068 -2.686348,-1.314947 -2.693235,-2.689649 -0.0043,-0.867371 0.23518,-1.435723 0.875783,-2.078085 0.553208,-0.554727 0.714284,-0.635884 2.445163,-1.23199 1.019117,-0.350979 1.850293,-0.666101 1.847056,-0.700271 -0.0032,-0.03417 -0.586018,-0.402027 -1.295071,-0.817459 -2.07982,-1.218563 -4.102312,-2.81336 -6.169284,-4.864663 l -1.882006,-1.86774 -5.235641,1.312908 c -4.118211,1.032698 -5.33449,1.297128 -5.698781,1.238966 -1.467357,-0.234274 -2.411353,-1.352308 -2.416631,-2.862167 -0.004,-1.154228 0.548542,-2.054647 1.588912,-2.589118 0.131206,-0.0674 2.037088,-0.558252 4.235294,-1.090773 2.198207,-0.532521 4.020237,-0.988395 4.048957,-1.013054 0.02872,-0.02466 -0.244054,-0.612513 -0.606162,-1.306342 -0.701149,-1.343459 -1.55204,-3.419452 -1.975718,-4.820332 -0.144467,-0.477674 -0.323924,-0.852941 -0.407888,-0.852941 -0.418174,0 -2.483822,0.617087 -3.41539,1.020306 -4.650938,2.013108 -7.02134,6.07362 -6.718663,11.509106 0.147191,2.643262 0.853474,4.493376 2.245825,5.882961 1.805084,1.801497 4.331791,2.528745 8.202867,2.360982 2.126165,-0.09214 2.546031,-0.01279 3.286695,0.621195 0.337867,0.289202 0.620564,0.709263 0.92953,1.381198 0.763109,1.659599 2.545629,3.287494 4.739961,4.328795 2.462296,1.16846 5.456306,1.879573 9.196138,2.184193 1.911384,0.155687 6.228268,0.06326 7.815593,-0.167338 z m 22.546851,-6.069993 c 2.756265,-0.458956 5.790287,-1.743898 7.938258,-3.361943 3.796315,-2.859724 6.006903,-6.977904 6.581352,-12.26063 0.07286,-0.670026 0.107274,-1.243425 0.07648,-1.274222 -0.0308,-0.0308 -0.502898,0.212975 -1.049114,0.541715 -0.991859,0.596948 -3.843996,2.009557 -4.057409,2.009557 -0.06205,0 -0.298004,0.278918 -0.524348,0.619817 -1.849033,2.784846 -5.087153,6.049215 -8.239425,8.306219 -0.628984,0.450348 -1.029412,0.818076 -1.029412,0.945349 0,0.299392 -1.035152,2.373258 -1.809125,3.624479 -0.363804,0.588134 -0.661463,1.103617 -0.661463,1.145519 0,0.09845 1.129732,-0.02203 2.774209,-0.29586 z M 56.064348,78.882421 c 3.740904,-0.519307 6.974315,-1.670129 10.200358,-3.630469 0.914233,-0.555544 0.918121,-0.569135 0.564346,-1.972817 -0.322026,-1.277709 -0.990909,-3.013368 -1.739758,-4.514429 -0.355084,-0.711765 -0.659171,-1.309324 -0.67575,-1.327908 -0.01658,-0.01858 -2.009056,0.634343 -4.427726,1.450949 -3.680768,1.242725 -4.471508,1.473011 -4.851108,1.412779 -0.992663,-0.157507 -1.883793,-0.815364 -2.281633,-1.684361 -0.378689,-0.827164 -0.326378,-1.760327 0.143637,-2.562347 0.526992,-0.899244 0.966967,-1.12046 4.687413,-2.356794 1.888437,-0.627543 3.45462,-1.159253 3.480408,-1.18158 0.07071,-0.06122 -0.475328,-0.816986 -1.675004,-2.318347 -2.626338,-3.286788 -5.200313,-5.843304 -7.195413,-7.146609 -0.582353,-0.380423 -1.26064,-0.827189 -1.507304,-0.992813 -0.970821,-0.65186 -1.31862,-2.303888 -0.729706,-3.466055 0.618125,-1.219809 2.094265,-1.831802 3.366513,-1.395722 1.031286,0.353487 2.833399,1.64932 4.869931,3.501786 l 1.293551,1.176637 1.05939,-3.15397 c 0.687031,-2.045402 1.171948,-3.300923 1.37963,-3.572058 1.183136,-1.544633 3.841856,-1.276486 4.726063,0.476649 0.585699,1.161279 0.607053,1.044236 -1.160359,6.359971 l -1.603108,4.821567 0.989902,1.332054 c 2.814459,3.787251 5.146593,7.79214 6.496139,11.155584 0.246645,0.614706 0.487241,1.162988 0.534659,1.218404 0.109487,0.127957 0.768173,-0.593636 1.793613,-1.964913 2.634676,-3.523238 4.328286,-7.687878 4.959135,-12.194668 0.218184,-1.558709 0.253423,-5.084324 0.06526,-6.529412 -0.400644,-3.076971 -1.273684,-6.162894 -1.947089,-6.882352 -0.211973,-0.226471 -0.530566,-0.702942 -0.707983,-1.058824 -0.816602,-1.638035 -2.201517,-3.13474 -3.962803,-4.282679 -2.676371,-1.744356 -5.726661,-2.614943 -8.797787,-2.510987 -3.186184,0.107852 -4.625253,1.009226 -5.113264,3.202738 -0.328449,1.476319 -1.202996,2.366961 -2.450626,2.495728 -0.94494,0.09753 -1.341256,-0.01495 -2.383714,-0.676527 -4.493211,-2.851521 -9.025597,-2.866621 -12.450649,-0.04148 -1.346759,1.11087 -2.280009,2.455432 -2.85086,4.107324 -0.288966,0.836191 -0.324825,1.105215 -0.321464,2.411764 0.01142,4.441734 2.426851,8.10244 5.982342,9.066549 1.212583,0.328804 1.47499,0.469629 1.984717,1.06513 0.544908,0.636604 0.699216,1.131468 0.640472,2.054008 -0.06715,1.05458 -0.442205,1.550323 -1.922275,2.54084 -2.272773,1.521023 -3.43231,3.092873 -3.783706,5.129136 -0.64861,3.758555 1.875181,8.429355 5.993859,11.092877 1.526176,0.98697 2.559368,1.390854 3.884366,1.518437 1.32849,0.127917 3.854889,0.04772 5.443385,-0.17279 z M 35.945427,73.205882 c -0.216829,-0.559784 -0.665013,-2.260354 -0.83721,-3.176671 -0.265337,-1.411943 -0.175022,-4.051505 0.184156,-5.382152 0.44081,-1.633068 1.557222,-3.746957 2.615384,-4.952135 l 0.364187,-0.414786 -0.459501,-0.366323 C 37.01525,58.278279 35.939959,57.137837 35.211207,56.154968 32.285321,52.208826 31.329903,46.663882 32.83886,42.386622 c 0.806052,-2.284818 1.84184,-3.91319 3.620559,-5.691909 2.941327,-2.941327 6.325515,-4.363904 10.364111,-4.356656 2.224528,0.004 4.1343,0.383171 6.226165,1.236188 0.415568,0.16946 0.812626,0.307747 0.882353,0.307304 0.06973,-4.7e-4 0.252766,-0.185807 0.406755,-0.411922 0.462571,-0.679238 1.825158,-1.888175 2.711767,-2.405982 1.753591,-1.024153 3.613887,-1.520411 6.124254,-1.633725 l 1.705422,-0.07698 -1.192719,-0.552907 C 60.367515,27.260979 57.160841,26.504205 53.466201,26.387803 48.801247,26.240831 45.009028,27.045146 40.863346,29.06082 31.793365,33.47074 26,42.781817 26,52.949143 c 0,7.397667 3.161787,14.525773 8.588219,19.361754 1.236839,1.102257 1.506328,1.279968 1.357208,0.894985 z M 84.325801,60.760644 c 1.162984,-0.995472 3.221216,-3.756643 4.105537,-5.507687 1.059715,-2.098339 1.842729,-4.66765 2.230105,-7.317662 0.273238,-1.869207 0.269809,-6.252346 -0.0067,-8.582354 -0.808738,-6.814454 -2.995479,-11.189232 -6.525831,-13.055529 -1.097956,-0.580428 -1.593349,-1.050548 -1.925029,-1.826824 -0.07563,-0.177011 -0.131611,-1.394908 -0.140593,-3.058823 -0.01396,-2.585414 -0.03478,-2.837719 -0.321064,-3.890568 -0.838725,-3.084529 -2.573074,-4.847859 -5.565737,-5.658746 -0.802617,-0.217475 -1.261597,-0.255631 -3.117647,-0.259174 -2.36247,-0.0045 -3.364246,0.158532 -4.961251,0.807453 -3.041396,1.23583 -5.2671,3.824788 -6.423288,7.471623 -0.607857,1.917295 -0.617674,1.801862 0.174327,2.049651 1.292499,0.404376 3.683858,1.380378 4.915662,2.006265 0.67965,0.345333 1.236052,0.619613 1.23645,0.609511 3.53e-4,-0.01011 0.476614,-1.871309 1.058257,-4.136015 1.167189,-4.544599 1.264804,-4.776157 2.277297,-5.402133 1.176542,-0.727401 2.588583,-0.520332 3.520583,0.516276 0.545319,0.606526 0.792229,1.22101 0.786889,1.95833 -0.0018,0.251316 -0.580215,2.756336 -1.285322,5.566711 l -1.282014,5.109772 1.652644,1.592239 c 2.362133,2.275797 4.246272,4.644754 5.55253,6.981287 0.243856,0.436188 0.48511,0.818865 0.53612,0.850391 0.05101,0.03153 0.371952,-0.767951 0.713202,-1.776614 0.703282,-2.078763 1.055051,-2.64153 1.933814,-3.093757 1.754362,-0.902827 3.903766,0.303985 4.14328,2.326299 0.05788,0.488725 -0.124317,1.127876 -1.548738,5.432986 -0.887885,2.683505 -1.716468,5.022533 -1.841298,5.197839 -0.2244,0.315141 -0.224277,0.333075 0.01086,1.58838 0.815897,4.355868 0.705258,8.732984 -0.328721,13.004935 -0.121375,0.501471 -0.184552,0.911765 -0.140392,0.911765 0.04416,0 0.298903,-0.187123 0.566093,-0.415827 z M 13.631669,58.542691 c 1.58561,-0.953802 3.398926,-1.69482 5.364245,-2.192119 l 1.290031,-0.326427 0.0143,-3.217954 c 0.01877,-4.223327 0.368172,-6.456979 1.584108,-10.126802 3.435452,-10.368552 11.936893,-18.30386 22.4703,-20.973941 3.472265,-0.880174 7.393402,-1.176664 10.650112,-0.805291 l 0.593001,0.06762 0.214614,-0.925066 c 0.311617,-1.343182 0.857999,-3.010594 1.315457,-4.014418 L 57.52666,15.153132 57.26333,14.922965 C 57.118499,14.796374 56.489118,14.305436 55.864707,13.831991 48.743933,8.4328405 38.874667,7.1954988 31.346558,10.758072 c -3.396284,1.607244 -5.89758,4.064639 -7.244838,7.117679 -0.428733,0.971558 -0.982796,2.811801 -0.878102,2.916494 0.02611,0.02611 0.353549,-0.0091 0.727649,-0.07827 1.093904,-0.20222 2.617705,-0.156039 3.172946,0.09616 0.655867,0.297904 1.314737,1.103645 1.54215,1.885915 0.323077,1.11135 -0.09879,2.277211 -1.064418,2.941578 -0.606357,0.417185 -1.123773,0.55326 -2.453841,0.645336 -6.431286,0.445219 -11.859963,4.249007 -14.719774,10.313913 -2.2205783,4.709263 -2.6254603,9.861996 -1.1779643,14.99136 0.360833,1.278653 1.2000763,3.366177 1.7736543,4.411765 0.45931,0.837287 1.814902,2.941177 1.895078,2.941177 0.02757,0 0.348225,-0.179319 0.712571,-0.398486 z"
   id="path836" /></svg>
