<?xml version="1.0" encoding="utf-8"?>
<!-- Generator: Adobe Illustrator 18.0.0, SVG Export Plug-In . SVG Version: 6.00 Build 0)  -->
<!DOCTYPE svg PUBLIC "-//W3C//DTD SVG 1.1//EN" "http://www.w3.org/Graphics/SVG/1.1/DTD/svg11.dtd">
<svg version="1.1" id="Layer_1" xmlns="http://www.w3.org/2000/svg" xmlns:xlink="http://www.w3.org/1999/xlink" x="0px" y="0px"
	 viewBox="0 0 100 100" enable-background="new 0 0 100 100" xml:space="preserve">
<g>
	<path fill="#2C3136" d="M42.6,16c-4-0.4-7.9-0.3-11.7,0.3c-0.9,0.1-1.5,1-1.4,1.9c0.1,0.9,1,1.5,1.9,1.4c3.5-0.5,7.2-0.6,10.9-0.3
		c10.9,1,20.4,5.7,24.3,11.9c0.3,0.5,0.8,0.8,1.4,0.8c0.3,0,0.6-0.1,0.9-0.2c0.8-0.5,1-1.5,0.5-2.2C65,22.3,54.5,17.1,42.6,16z"/>
	<circle fill="#2C3136" cx="74.7" cy="77.4" r="2.2"/>
	<circle fill="#2C3136" cx="57.5" cy="83.8" r="2.2"/>
	<circle fill="#2C3136" cx="40.4" cy="71" r="2.2"/>
	<circle fill="#2C3136" cx="22.7" cy="61.1" r="2.2"/>
	<circle fill="#2C3136" cx="83" cy="67.6" r="2.2"/>
	<path fill="#2C3136" d="M96.4,82.7l0-0.1c0-0.1-2.3-6.1-1.7-11.9c0.2-1.2,3.7-30.4-20.5-51C73.2,18.8,58.6,6,35.4,6
		c-4.9,0-10,0.6-15,1.8c0,0-0.8,0.2-1.9,0.2c-1.1,0-2.7-0.2-4.3-1C14,6.8,11.8,5.8,9.4,5.8C7,5.8,5.5,6.9,4.8,7.9
		c-1.6,2-1.9,5.1-1,9.6c0,0.1,1.1,5.5,0,10.7C3.3,30-3,57.6,26.1,82.6C26.7,83.1,40.7,95,61.8,95h0c3.9,0,7.9-0.4,11.8-1.3l0.3-0.1
		c0,0,3.3-1.2,7.7-1.2c1.9,0,3.7,0.2,5.4,0.6c0.1,0,1.2,0.3,2.7,0.3c3.6,0,5.4-1.5,6.3-2.7C97.4,88.7,97.6,86.1,96.4,82.7z
		 M92.1,87.8c-0.3,0.4-1.2,0.7-2.4,0.7c-0.9,0-1.6-0.1-1.6-0.1h0c-2.1-0.5-4.3-0.7-6.5-0.7c-4.8,0-8.4,1.1-9.2,1.4
		c-3.5,0.8-7.1,1.1-10.6,1.1h0c-19.2,0-32.4-11.2-32.5-11.3C2.1,55.6,8.2,30.3,8.5,29.3l0-0.1c1.3-6.1,0.1-12.4,0-12.7
		c-0.9-4.1-0.2-5.3,0-5.5c0.1-0.1,0.2-0.3,0.9-0.3c1,0,2.2,0.5,2.6,0.7c1.9,1,4.2,1.5,6.5,1.5c1.7,0,3-0.3,3-0.3
		c4.6-1.1,9.3-1.6,13.8-1.6C57,10.9,70.8,23.2,71,23.3l0.1,0.1c22.2,18.9,18.9,46.4,18.9,46.8c-0.8,6.8,1.6,13.4,1.9,14.2
		C92.6,86.8,92.2,87.6,92.1,87.8z"/>
</g>
</svg>
