<?xml version="1.0" encoding="UTF-8" standalone="no"?>
<svg
   xmlns:dc="http://purl.org/dc/elements/1.1/"
   xmlns:cc="http://creativecommons.org/ns#"
   xmlns:rdf="http://www.w3.org/1999/02/22-rdf-syntax-ns#"
   xmlns:svg="http://www.w3.org/2000/svg"
   xmlns="http://www.w3.org/2000/svg"
   xmlns:sodipodi="http://sodipodi.sourceforge.net/DTD/sodipodi-0.dtd"
   xmlns:inkscape="http://www.inkscape.org/namespaces/inkscape"
   version="1.1"
   id="Layer_1"
   x="0px"
   y="0px"
   viewBox="0 0 100 100"
   enable-background="new 0 0 100 100"
   xml:space="preserve"
   sodipodi:docname="Limon color.svg"
   inkscape:version="1.0.1 (3bc2e813f5, 2020-09-07)"><metadata
   id="metadata23"><rdf:RDF><cc:Work
       rdf:about=""><dc:format>image/svg+xml</dc:format><dc:type
         rdf:resource="http://purl.org/dc/dcmitype/StillImage" /><dc:title></dc:title></cc:Work></rdf:RDF></metadata><defs
   id="defs21" /><sodipodi:namedview
   pagecolor="#ffffff"
   bordercolor="#666666"
   borderopacity="1"
   objecttolerance="10"
   gridtolerance="10"
   guidetolerance="10"
   inkscape:pageopacity="0"
   inkscape:pageshadow="2"
   inkscape:window-width="1920"
   inkscape:window-height="1017"
   id="namedview19"
   showgrid="false"
   inkscape:zoom="6.1376869"
   inkscape:cx="8.1187079"
   inkscape:cy="40.93564"
   inkscape:window-x="-8"
   inkscape:window-y="-8"
   inkscape:window-maximized="1"
   inkscape:current-layer="Layer_1" />
<g
   id="g16"
   transform="translate(-108.99872,-0.16292783)">
	<path
   fill="#2c3136"
   d="m 42.6,16 c -4,-0.4 -7.9,-0.3 -11.7,0.3 -0.9,0.1 -1.5,1 -1.4,1.9 0.1,0.9 1,1.5 1.9,1.4 3.5,-0.5 7.2,-0.6 10.9,-0.3 10.9,1 20.4,5.7 24.3,11.9 0.3,0.5 0.8,0.8 1.4,0.8 0.3,0 0.6,-0.1 0.9,-0.2 0.8,-0.5 1,-1.5 0.5,-2.2 C 65,22.3 54.5,17.1 42.6,16 Z"
   id="path2" />
	<circle
   fill="#2c3136"
   cx="74.699997"
   cy="77.400002"
   r="2.2"
   id="circle4" />
	<circle
   fill="#2c3136"
   cx="57.5"
   cy="83.800003"
   r="2.2"
   id="circle6" />
	<circle
   fill="#2c3136"
   cx="40.400002"
   cy="71"
   r="2.2"
   id="circle8" />
	<circle
   fill="#2c3136"
   cx="22.700001"
   cy="61.099998"
   r="2.2"
   id="circle10" />
	<circle
   fill="#2c3136"
   cx="83"
   cy="67.599998"
   r="2.2"
   id="circle12" />
	<path
   fill="#2c3136"
   d="m 96.4,82.7 v -0.1 c 0,-0.1 -2.3,-6.1 -1.7,-11.9 0.2,-1.2 3.7,-30.4 -20.5,-51 C 73.2,18.8 58.6,6 35.4,6 30.5,6 25.4,6.6 20.4,7.8 20.4,7.8 19.6,8 18.5,8 17.4,8 15.8,7.8 14.2,7 14,6.8 11.8,5.8 9.4,5.8 7,5.8 5.5,6.9 4.8,7.9 c -1.6,2 -1.9,5.1 -1,9.6 0,0.1 1.1,5.5 0,10.7 C 3.3,30 -3,57.6 26.1,82.6 26.7,83.1 40.7,95 61.8,95 v 0 c 3.9,0 7.9,-0.4 11.8,-1.3 l 0.3,-0.1 c 0,0 3.3,-1.2 7.7,-1.2 1.9,0 3.7,0.2 5.4,0.6 0.1,0 1.2,0.3 2.7,0.3 3.6,0 5.4,-1.5 6.3,-2.7 1.4,-1.9 1.6,-4.5 0.4,-7.9 z m -4.3,5.1 c -0.3,0.4 -1.2,0.7 -2.4,0.7 -0.9,0 -1.6,-0.1 -1.6,-0.1 v 0 c -2.1,-0.5 -4.3,-0.7 -6.5,-0.7 -4.8,0 -8.4,1.1 -9.2,1.4 -3.5,0.8 -7.1,1.1 -10.6,1.1 v 0 C 42.6,90.2 29.4,79 29.3,78.9 2.1,55.6 8.2,30.3 8.5,29.3 v -0.1 c 1.3,-6.1 0.1,-12.4 0,-12.7 -0.9,-4.1 -0.2,-5.3 0,-5.5 0.1,-0.1 0.2,-0.3 0.9,-0.3 1,0 2.2,0.5 2.6,0.7 1.9,1 4.2,1.5 6.5,1.5 1.7,0 3,-0.3 3,-0.3 C 26.1,11.5 30.8,11 35.3,11 57,10.9 70.8,23.2 71,23.3 l 0.1,0.1 C 93.3,42.3 90,69.8 90,70.2 c -0.8,6.8 1.6,13.4 1.9,14.2 0.7,2.4 0.3,3.2 0.2,3.4 z"
   id="path14" />
</g>
<path
   style="fill:#e9ddaf;stroke:#000000;stroke-width:0.115389"
   d="M 58.05266,95.325856 C 53.668844,95.017291 48.664293,94.031049 44.302237,92.616076 38.753763,90.81625 32.645539,87.745515 28.24648,84.5445 24.846008,82.070116 19.699854,77.002675 16.275034,72.756165 9.3199889,64.13245 4.8480706,54.014568 3.5635076,43.995866 2.8515323,38.442951 2.9520028,34.13784 3.9072799,29.265382 4.3617237,26.94746 4.4791634,25.800467 4.4802861,23.669031 4.481394,21.565932 4.3398634,19.990683 3.9428259,17.687041 3.5513285,15.415542 3.4589904,12.786538 3.7240302,11.457594 4.1962563,9.0897891 5.4871911,7.4450272 7.4479679,6.7129772 c 0.560035,-0.2090873 0.90244,-0.2465931 2.217595,-0.242907 1.8382681,0.00515 2.7751761,0.2180778 4.4930881,1.0211176 1.687562,0.7888529 2.656716,1.01129 4.435484,1.018018 1.234896,0.00467 1.725603,-0.048267 2.796545,-0.3016931 4.205399,-0.9951604 8.154681,-1.464442 13.019814,-1.547107 5.946839,-0.1010446 10.484585,0.3868986 15.923272,1.7122269 8.977084,2.1875844 18.251197,6.8352894 24.307589,12.1817064 11.721688,10.347582 18.299723,23.157543 20.121044,39.183393 0.290053,2.552186 0.341224,8.28179 0.09786,10.957417 -0.361969,3.979609 0.02028,7.192662 1.382796,11.623228 0.800415,2.602756 1.005495,3.596122 1.010855,4.896313 0.0123,2.976499 -1.585725,5.174322 -4.457193,6.13028 -0.855633,0.284855 -1.084002,0.310288 -2.831615,0.315364 -1.534708,0.0045 -2.133966,-0.04352 -3.110599,-0.24904 -1.908527,-0.401626 -2.863674,-0.493882 -5.106262,-0.493214 -2.30151,6.91e-4 -4.403465,0.248483 -6.241664,0.735821 -0.570276,0.15119 -1.451613,0.385542 -1.958525,0.52078 -1.783229,0.475746 -4.982885,0.948705 -7.834102,1.158002 -1.836565,0.134816 -5.697858,0.131375 -7.66129,-0.0068 z m 10.023042,-4.875873 c 1.9678,-0.247811 3.738415,-0.587575 5.20891,-0.999539 2.750414,-0.770538 5.511881,-1.141284 8.500767,-1.141284 2.097245,0 4.277809,0.199828 5.760768,0.527917 0.49434,0.109368 1.430201,0.196827 2.188541,0.204524 1.195435,0.01213 1.381167,-0.01455 1.900921,-0.273091 0.784186,-0.390078 0.889581,-0.633343 0.822938,-1.899442 -0.04272,-0.811629 -0.167362,-1.387932 -0.573779,-2.652979 C 91.227117,82.169033 90.968478,81.15034 90.61319,79.207778 90.028167,76.009118 89.97584,74.223371 90.311048,68.896718 90.652229,63.47516 89.799426,56.223947 88.127696,50.332109 85.500831,41.073995 80.998499,33.338499 74.42246,26.785024 71.582362,23.954671 69.507788,22.285877 66.426397,20.352962 57.225538,14.581389 46.451938,11.471424 35.644826,11.46739 c -4.484354,-0.0017 -9.471372,0.542873 -13.364055,1.459258 -1.698768,0.39991 -4.534163,0.500263 -6.163595,0.218148 -1.167979,-0.202221 -2.706456,-0.704539 -4.205069,-1.372969 -1.195449,-0.533208 -2.4033201,-0.733604 -2.9769961,-0.493907 -0.357921,0.149549 -0.435143,0.256576 -0.603853,0.836918 -0.255109,0.877543 -0.170748,2.674034 0.221087,4.708147 0.475383,2.467825 0.589382,3.756262 0.591217,6.682028 0.0018,2.908652 -0.06302,3.59521 -0.625687,6.624424 -0.554691,2.986289 -0.638347,3.967301 -0.633669,7.430876 0.0046,3.437523 0.132067,4.911623 0.697116,8.064516 1.6230621,9.056463 5.9058591,17.742532 12.6940061,25.7451 2.26845,2.674281 6.691378,7.000291 8.879981,8.685395 2.889932,2.225089 6.97683,4.575884 10.904264,6.27216 5.251803,2.268279 10.518514,3.643951 16.186635,4.227971 2.097302,0.216098 8.793894,0.150878 10.829494,-0.105472 z"
   id="path864" /><path
   style="fill:#e9ddaf;stroke:#000000;stroke-width:0.115389"
   d="M 67.123017,31.619132 C 66.931298,31.457812 66.477149,30.900497 66.113796,30.380653 65.237474,29.126912 63.302525,27.199116 61.820175,26.102902 57.019411,22.552684 50.703377,20.248185 43.260369,19.33108 41.379575,19.099335 34.393241,19.138495 32.50993,19.39134 c -1.441091,0.193473 -1.488342,0.192842 -1.984254,-0.02652 -1.059663,-0.468739 -1.284296,-1.657537 -0.477679,-2.52796 0.348796,-0.376387 0.571007,-0.443987 2.119852,-0.644895 7.911507,-1.026238 17.154794,0.220529 24.283764,3.27548 5.634036,2.414333 9.971549,5.751352 12.56816,9.66918 0.634563,0.957442 0.723543,1.533123 0.329838,2.133993 -0.442431,0.675234 -1.619379,0.859457 -2.226594,0.348519 z"
   id="path866" /><path
   style="fill:#e9ddaf;stroke:#000000;stroke-width:0.115389"
   d="m 21.888413,63.033988 c -0.254,-0.115389 -0.627307,-0.398281 -0.829571,-0.628647 -1.162427,-1.323931 -0.115515,-3.419166 1.708433,-3.419166 1.364562,0 2.424189,1.555429 1.937377,2.843883 -0.270522,0.715996 -1.261946,1.41373 -2.008799,1.41373 -0.190093,0 -0.553441,-0.09441 -0.80744,-0.2098 z"
   id="path868" /><path
   style="fill:#e9ddaf;stroke:#000000;stroke-width:0.115389"
   d="m 39.79419,73.046576 c -0.517189,-0.156735 -0.91147,-0.482109 -1.21797,-1.005112 -0.252178,-0.43031 -0.289371,-0.609538 -0.247271,-1.191565 0.05647,-0.780663 0.434217,-1.364127 1.132463,-1.749178 0.556735,-0.307014 1.551823,-0.238716 2.119647,0.145483 0.428556,0.289967 0.988584,1.230181 0.987423,1.657753 -0.0039,1.445561 -1.432856,2.549141 -2.774292,2.142619 z"
   id="path870" /><path
   style="fill:#e9ddaf;stroke:#000000;stroke-width:0.115389"
   d="m 56.677262,85.728149 c -0.862595,-0.391822 -1.405554,-1.331201 -1.285741,-2.224474 0.251851,-1.877687 2.801848,-2.466843 3.846251,-0.888644 0.26759,0.404355 0.32444,0.614586 0.32444,1.19977 0,0.593084 -0.0541,0.787571 -0.329681,1.185237 -0.596248,0.860387 -1.621144,1.152426 -2.555269,0.728111 z"
   id="path872" /><path
   style="fill:#e9ddaf;stroke:#000000;stroke-width:0.115389"
   d="m 73.727809,79.278465 c -1.300762,-0.79323 -1.529695,-2.340634 -0.498806,-3.371524 1.339084,-1.339083 3.556711,-0.414371 3.556711,1.483087 0,0.339243 -0.07314,0.756801 -0.162526,0.927905 -0.21822,0.417707 -0.743749,0.902505 -1.141057,1.052618 -0.508874,0.192266 -1.361417,0.147515 -1.754322,-0.09209 z"
   id="path876" /><path
   style="fill:#e9ddaf;stroke:#000000;stroke-width:0.115389"
   d="m 82.140715,69.539912 c -0.483349,-0.210609 -1.059008,-0.900767 -1.20569,-1.445503 -0.373287,-1.386281 0.987954,-2.857006 2.407052,-2.600651 1.016429,0.183615 1.764256,1.096032 1.756149,2.142659 -0.0092,1.187967 -0.921237,2.070818 -2.127615,2.059534 -0.265173,-0.0025 -0.638626,-0.0727 -0.829896,-0.156039 z"
   id="path878" /></svg>
