<?xml version="1.0" encoding="UTF-8" standalone="no"?>
<svg
   xmlns:dc="http://purl.org/dc/elements/1.1/"
   xmlns:cc="http://creativecommons.org/ns#"
   xmlns:rdf="http://www.w3.org/1999/02/22-rdf-syntax-ns#"
   xmlns:svg="http://www.w3.org/2000/svg"
   xmlns="http://www.w3.org/2000/svg"
   xmlns:sodipodi="http://sodipodi.sourceforge.net/DTD/sodipodi-0.dtd"
   xmlns:inkscape="http://www.inkscape.org/namespaces/inkscape"
   version="1.1"
   id="Layer_1"
   x="0px"
   y="0px"
   viewBox="0 0 100 100"
   enable-background="new 0 0 100 100"
   xml:space="preserve"
   sodipodi:docname="Mango color.svg"
   inkscape:version="1.0.1 (3bc2e813f5, 2020-09-07)"><metadata
   id="metadata9"><rdf:RDF><cc:Work
       rdf:about=""><dc:format>image/svg+xml</dc:format><dc:type
         rdf:resource="http://purl.org/dc/dcmitype/StillImage" /><dc:title></dc:title></cc:Work></rdf:RDF></metadata><defs
   id="defs7" /><sodipodi:namedview
   pagecolor="#ffffff"
   bordercolor="#666666"
   borderopacity="1"
   objecttolerance="10"
   gridtolerance="10"
   guidetolerance="10"
   inkscape:pageopacity="0"
   inkscape:pageshadow="2"
   inkscape:window-width="1920"
   inkscape:window-height="1017"
   id="namedview5"
   showgrid="false"
   inkscape:zoom="4.34"
   inkscape:cx="59.276413"
   inkscape:cy="28.472156"
   inkscape:window-x="-8"
   inkscape:window-y="-8"
   inkscape:window-maximized="1"
   inkscape:current-layer="Layer_1" />
<path
   fill="#2c3136"
   d="m -67.990783,98.912903 c 0,0 0,0 0,0 -15.8,0 -26.6,-7.8 -27,-8.2 -4.1,-3 -4.9,-6.5 -4.9,-8.9 0.1,-5.4 4.6,-9.2 6.1,-10.3 3.7,-3.3 6.2,-9.7 6.8,-11.9 5.5,-22.1 17.2,-31.4 17.7,-31.8 7.6,-6.2 15.7,-9.3 23.9,-9.3 5.8,0 10.6,1.7 13.9,3.3 3.5,-5.5 4.8,-10.4 4.8,-10.4 l 2,-7.0999998 13.4,9.1999998 -1,3.6 c -1.4,5 -5,9.9 -8.6,13.9 7.5,11.3 4.4,25.7 4.2,26.3 -4.6,18.9 -19.8,30.6 -20.5,31 -9.8,7 -20.2,10.6 -30.8,10.6 z m -21.4,-17.1 c 0.1,0.1 0.3,0.3 0.5,0.4 0.1,0.1 8.6,6.1 20.8,6.1 0,0 0,0 0,0 8.4,0 16.7,-2.9 24.7,-8.5 0,0 12.8,-9.9 16.5,-25 0,0 1,-4.8 0.2,-10.2 -0.2,0.1 -0.4,0.2 -0.6,0.2 -0.6,0.2 -1.2,0.3 -1.9,0.3 -3,0 -5.6,-2 -6.5,-4.9 -0.2,-0.8 -0.8,-1.6 -1.6,-2.3 -1,-0.9 -2.1,-1.3 -2.7,-1.3 -3.7,-0.3 -6.4,-3.6 -6.1,-7.3 0,-0.1 0,-0.3 0,-0.4 -5.6,0.2 -11.2,2.5 -16.8,7.1 -0.2,0.1 -9.5,7.7 -14.1,26.3 -0.4,1.3 -3.5,11.5 -10.3,17.3 l -0.4,0.3 c -0.6,0.5 -1.4,1.4 -1.7,1.9 z"
   id="path2" />
<path
   style="fill:#55ddff;stroke:#000000;stroke-width:0.115389"
   d="M 34.313364,97.530415 C 27.076125,96.919717 21.268277,95.351543 15.361751,92.413301 10.897041,90.1923 8.3143291,88.169754 6.8542521,85.751 3.979653,80.988959 5.5057443,75.245076 10.808684,70.867362 c 2.402212,-1.98309 4.414395,-4.887673 6.143534,-8.868183 0.722857,-1.664033 1.252151,-3.247257 1.923919,-5.754827 3.252742,-12.141817 10.167138,-24.015461 17.368421,-29.825664 11.472546,-9.256384 24.477888,-11.542937 36.194423,-6.363575 0.724021,0.320058 1.328451,0.569569 1.343178,0.554469 0.161532,-0.165624 1.591717,-2.715834 2.163515,-3.857838 1.527891,-3.05152 2.284156,-5.1633 3.770992,-10.5300428 l 0.850561,-3.0701038 0.865004,0.6054717 c 0.59287,0.4149879 11.866187,8.1564139 12.406963,8.5199039 0.06169,0.04147 -1.192352,4.315531 -1.541027,5.25216 -1.146556,3.07994 -3.445945,6.782646 -6.360105,10.24168 -1.753403,2.081247 -1.677881,1.973892 -1.541843,2.191724 2.738506,4.385045 4.283649,9.233994 4.749818,14.90582 0.319097,3.882417 -0.0026,8.527609 -0.809017,11.681179 -2.368387,9.262036 -7.792496,18.428949 -15.428704,26.074989 -3.297379,3.301626 -5.149756,4.740093 -9.389883,7.291734 -6.694613,4.028712 -13.772547,6.517822 -21.025345,7.394018 -1.467196,0.177248 -6.941915,0.324588 -8.179724,0.220138 z m 5.725292,-10.537273 c 6.372062,-0.523721 12.535361,-2.621069 18.749754,-6.380473 2.411077,-1.458584 3.324057,-2.126675 5.036456,-3.685529 6.269163,-5.707028 11.365636,-13.315121 13.74284,-20.515519 0.895567,-2.712614 1.173829,-4.326464 1.291173,-7.488479 0.07004,-1.887341 -0.107458,-5.314678 -0.284607,-5.495511 -0.04351,-0.04442 -0.464384,0.02038 -0.935264,0.14401 -3.154607,0.828215 -6.547868,-0.916484 -7.774579,-3.997422 -0.615366,-1.545517 -0.8867,-1.983408 -1.710586,-2.760621 -0.964987,-0.91032 -1.886072,-1.374329 -3.056242,-1.539623 -1.717241,-0.242572 -2.956703,-0.868096 -4.069185,-2.053614 -1.190864,-1.269046 -1.825172,-2.885596 -1.828556,-4.660122 l -0.0017,-0.892858 -0.662443,0.0021 c -1.586227,0.0051 -4.209834,0.541683 -6.489421,1.327338 -1.497015,0.515944 -4.061799,1.761686 -5.578551,2.70956 -1.933392,1.208248 -4.53207,3.231748 -5.709229,4.445578 -5.143979,5.304222 -9.719848,14.077714 -12.188899,23.370252 -2.104501,7.920519 -6.322139,15.215631 -11.025265,19.070041 -0.447036,0.366366 -1.041312,0.962323 -1.320614,1.324348 l -0.50782,0.658231 0.272509,0.220664 c 1.553002,1.257545 5.773438,3.290439 9.023257,4.346311 3.255535,1.05773 5.568906,1.512774 9.647305,1.897645 0.967238,0.09128 4.025995,0.06494 5.37967,-0.04632 z"
   id="path834" /></svg>
