<?xml version="1.0" encoding="utf-8"?>
<!-- Generator: Adobe Illustrator 18.0.0, SVG Export Plug-In . SVG Version: 6.00 Build 0)  -->
<!DOCTYPE svg PUBLIC "-//W3C//DTD SVG 1.1//EN" "http://www.w3.org/Graphics/SVG/1.1/DTD/svg11.dtd">
<svg version="1.1" id="Layer_1" xmlns="http://www.w3.org/2000/svg" xmlns:xlink="http://www.w3.org/1999/xlink" x="0px" y="0px"
	 viewBox="0 0 100 100" enable-background="new 0 0 100 100" xml:space="preserve">
<path fill="#2C3136" d="M38,97.3C38,97.3,38,97.3,38,97.3c-15.8,0-26.6-7.8-27-8.2c-4.1-3-4.9-6.5-4.9-8.9c0.1-5.4,4.6-9.2,6.1-10.3
	c3.7-3.3,6.2-9.7,6.8-11.9c5.5-22.1,17.2-31.4,17.7-31.8c7.6-6.2,15.7-9.3,23.9-9.3c5.8,0,10.6,1.7,13.9,3.3
	c3.5-5.5,4.8-10.4,4.8-10.4l2-7.1l13.4,9.2l-1,3.6c-1.4,5-5,9.9-8.6,13.9c7.5,11.3,4.4,25.7,4.2,26.3c-4.6,18.9-19.8,30.6-20.5,31
	C59,93.7,48.6,97.3,38,97.3z M16.6,80.2c0.1,0.1,0.3,0.3,0.5,0.4c0.1,0.1,8.6,6.1,20.8,6.1c0,0,0,0,0,0c8.4,0,16.7-2.9,24.7-8.5
	c0,0,12.8-9.9,16.5-25c0,0,1-4.8,0.2-10.2c-0.2,0.1-0.4,0.2-0.6,0.2c-0.6,0.2-1.2,0.3-1.9,0.3c-3,0-5.6-2-6.5-4.9
	c-0.2-0.8-0.8-1.6-1.6-2.3c-1-0.9-2.1-1.3-2.7-1.3c-3.7-0.3-6.4-3.6-6.1-7.3c0-0.1,0-0.3,0-0.4c-5.6,0.2-11.2,2.5-16.8,7.1
	c-0.2,0.1-9.5,7.7-14.1,26.3c-0.4,1.3-3.5,11.5-10.3,17.3l-0.4,0.3C17.7,78.8,16.9,79.7,16.6,80.2z"/>
</svg>
