<?xml version="1.0" encoding="utf-8"?>
<!-- Generator: Adobe Illustrator 18.0.0, SVG Export Plug-In . SVG Version: 6.00 Build 0)  -->
<!DOCTYPE svg PUBLIC "-//W3C//DTD SVG 1.1//EN" "http://www.w3.org/Graphics/SVG/1.1/DTD/svg11.dtd">
<svg version="1.1" id="Layer_1" xmlns="http://www.w3.org/2000/svg" xmlns:xlink="http://www.w3.org/1999/xlink" x="0px" y="0px"
	 viewBox="0 0 100 100" enable-background="new 0 0 100 100" xml:space="preserve">
<g>
	<path fill="#2C3136" d="M68.7,17.9c-1.8-0.2-3.5-0.4-5.1-0.4c-8.1,0-14.4,3.1-19,11C40.3,18.5,31.2,6.6,24.9,3.1
		c-1.4-0.8-3.2-0.3-4,1.1c-0.8,1.4-0.3,3.2,1.1,4c2.9,1.6,6.4,5.4,9.6,9.8c-10-1.9-20.4,1.1-27.4,5.7c-1,0.7-1.5,2-1.2,3.2
		C5,34.6,13.2,43,19,47.3c-2.2,3.4-3.4,7.4-4,12c-2.4,17.9,8.7,33.5,26.5,35.8c5.4,0.7,11.9,1.6,18.2,1.6c8.6,0,16.7-1.6,20.5-7.6
		c11.6-3.7,14.8-21.7,16.5-34.6C99,36.7,86.5,20.3,68.7,17.9z M90.8,53.8c-1,7.3-3.5,26.9-12.5,29.8c-1.3,0.4-2.4,1.3-3.1,2.4
		c-2.1,3.2-7.3,4.9-15.6,4.9c-5.9,0-12.3-0.9-17.4-1.5C27.8,87.4,18.8,75.1,20.8,60c1.3-9.7,5.4-16.6,21.5-18.9
		c0.4-0.1,0.8-0.2,1.2-0.3c0.2,0,0.4,0.1,0.6,0.1c0.5,0,1-0.1,1.4-0.4C46.4,40,47,39,47,37.9c0-0.2,0-0.4,0-0.5c0,0,0,0,0-0.1
		c4.5-12.2,10.7-13.9,16.6-13.9c1.3,0,2.8,0.1,4.3,0.3C82.5,25.7,92.7,39.1,90.8,53.8z M9.4,27.5c7.5-4.2,18.2-6.1,27.3-1.7
		c1.2,2.2,2.3,4.4,3,6.3C33.5,29,27.2,27,20.9,26.2c-1.6-0.2-3.1,0.9-3.3,2.5c-0.2,1.6,0.9,3.1,2.5,3.3c5,0.6,10.1,2.1,15.1,4.5
		c-5.4,1.4-9.4,3.5-12.5,6.3C18.3,39.6,11.9,33.2,9.4,27.5z"/>
	<path fill="#2C3136" d="M79.4,66.7c-2,7.2-3.8,8.4-3.8,8.4h0l-4,1.3c-0.6,0.2-1.2,0.6-1.6,1.2L68,80.8c-0.8,0.4-3.3,1.2-8.4,1.2
		c-5.3,0-11.4-0.8-16.3-1.5c-9.3-1.2-15.2-9.4-13.9-19.3c1.5-11.5,6.2-11.5,8-11.5c1.6,0,2.9-1.3,2.9-2.9c0-1.6-1.3-2.9-2.9-2.9
		c-7.7,0-12.4,5.6-13.8,16.6c-1.8,13.3,6.2,24.2,19,25.9c5,0.7,11.3,1.5,17,1.5c6.9,0,11.6-1.3,13.1-3.5l1.7-2.6l3-1
		c3.1-1,5.6-5.2,7.6-12.5c0.4-1.6-0.5-3.2-2.1-3.6C81.4,64.2,79.8,65.1,79.4,66.7z"/>
</g>
</svg>
