<?xml version="1.0" encoding="UTF-8" standalone="no"?>
<svg
   xmlns:dc="http://purl.org/dc/elements/1.1/"
   xmlns:cc="http://creativecommons.org/ns#"
   xmlns:rdf="http://www.w3.org/1999/02/22-rdf-syntax-ns#"
   xmlns:svg="http://www.w3.org/2000/svg"
   xmlns="http://www.w3.org/2000/svg"
   xmlns:sodipodi="http://sodipodi.sourceforge.net/DTD/sodipodi-0.dtd"
   xmlns:inkscape="http://www.inkscape.org/namespaces/inkscape"
   version="1.1"
   id="Layer_1"
   x="0px"
   y="0px"
   viewBox="0 0 100 100"
   enable-background="new 0 0 100 100"
   xml:space="preserve"
   sodipodi:docname="Manzana color.svg"
   inkscape:version="1.0.1 (3bc2e813f5, 2020-09-07)"><metadata
   id="metadata13"><rdf:RDF><cc:Work
       rdf:about=""><dc:format>image/svg+xml</dc:format><dc:type
         rdf:resource="http://purl.org/dc/dcmitype/StillImage" /><dc:title></dc:title></cc:Work></rdf:RDF></metadata><defs
   id="defs11" /><sodipodi:namedview
   pagecolor="#ffffff"
   bordercolor="#666666"
   borderopacity="1"
   objecttolerance="10"
   gridtolerance="10"
   guidetolerance="10"
   inkscape:pageopacity="0"
   inkscape:pageshadow="2"
   inkscape:window-width="1920"
   inkscape:window-height="1017"
   id="namedview9"
   showgrid="false"
   inkscape:zoom="4.34"
   inkscape:cx="18.671837"
   inkscape:cy="48.42924"
   inkscape:window-x="-8"
   inkscape:window-y="-8"
   inkscape:window-maximized="1"
   inkscape:current-layer="Layer_1" />
<g
   id="g6"
   transform="translate(-100.34562,-0.34562212)">
	<path
   fill="#2c3136"
   d="m 68.7,17.9 c -1.8,-0.2 -3.5,-0.4 -5.1,-0.4 -8.1,0 -14.4,3.1 -19,11 C 40.3,18.5 31.2,6.6 24.9,3.1 c -1.4,-0.8 -3.2,-0.3 -4,1.1 -0.8,1.4 -0.3,3.2 1.1,4 2.9,1.6 6.4,5.4 9.6,9.8 -10,-1.9 -20.4,1.1 -27.4,5.7 -1,0.7 -1.5,2 -1.2,3.2 2,7.7 10.2,16.1 16,20.4 -2.2,3.4 -3.4,7.4 -4,12 -2.4,17.9 8.7,33.5 26.5,35.8 5.4,0.7 11.9,1.6 18.2,1.6 8.6,0 16.7,-1.6 20.5,-7.6 C 91.8,85.4 95,67.4 96.7,54.5 99,36.7 86.5,20.3 68.7,17.9 Z M 90.8,53.8 C 89.8,61.1 87.3,80.7 78.3,83.6 77,84 75.9,84.9 75.2,86 73.1,89.2 67.9,90.9 59.6,90.9 53.7,90.9 47.3,90 42.2,89.4 27.8,87.4 18.8,75.1 20.8,60 c 1.3,-9.7 5.4,-16.6 21.5,-18.9 0.4,-0.1 0.8,-0.2 1.2,-0.3 0.2,0 0.4,0.1 0.6,0.1 0.5,0 1,-0.1 1.4,-0.4 C 46.4,40 47,39 47,37.9 c 0,-0.2 0,-0.4 0,-0.5 0,0 0,0 0,-0.1 4.5,-12.2 10.7,-13.9 16.6,-13.9 1.3,0 2.8,0.1 4.3,0.3 14.6,2 24.8,15.4 22.9,30.1 z M 9.4,27.5 c 7.5,-4.2 18.2,-6.1 27.3,-1.7 1.2,2.2 2.3,4.4 3,6.3 C 33.5,29 27.2,27 20.9,26.2 c -1.6,-0.2 -3.1,0.9 -3.3,2.5 -0.2,1.6 0.9,3.1 2.5,3.3 5,0.6 10.1,2.1 15.1,4.5 C 29.8,37.9 25.8,40 22.7,42.8 18.3,39.6 11.9,33.2 9.4,27.5 Z"
   id="path2" />
	<path
   fill="#2c3136"
   d="m 79.4,66.7 c -2,7.2 -3.8,8.4 -3.8,8.4 v 0 l -4,1.3 C 71,76.6 70.4,77 70,77.6 l -2,3.2 C 67.2,81.2 64.7,82 59.6,82 54.3,82 48.2,81.2 43.3,80.5 34,79.3 28.1,71.1 29.4,61.2 c 1.5,-11.5 6.2,-11.5 8,-11.5 1.6,0 2.9,-1.3 2.9,-2.9 0,-1.6 -1.3,-2.9 -2.9,-2.9 -7.7,0 -12.4,5.6 -13.8,16.6 -1.8,13.3 6.2,24.2 19,25.9 5,0.7 11.3,1.5 17,1.5 6.9,0 11.6,-1.3 13.1,-3.5 l 1.7,-2.6 3,-1 c 3.1,-1 5.6,-5.2 7.6,-12.5 0.4,-1.6 -0.5,-3.2 -2.1,-3.6 -1.5,-0.5 -3.1,0.4 -3.5,2 z"
   id="path4" />
</g>
<path
   style="fill:#782121;stroke:#000000;stroke-width:0.115389"
   d="M 56.797235,96.93444 C 52.029235,96.683537 42.629591,95.630237 39.385652,94.983343 28.526109,92.817775 19.966519,85.195335 16.557318,74.654378 14.700019,68.911763 14.480558,62.586546 15.913762,56.105991 c 0.595138,-2.691054 1.779061,-5.808849 2.905812,-7.652296 0.391945,-0.64125 0.458257,-0.823858 0.338532,-0.932235 -0.08189,-0.07413 -0.796931,-0.658091 -1.588981,-1.297696 C 13.128413,42.637758 8.9602266,38.037448 6.2200915,33.698157 5.3539626,32.326551 4.0823523,29.703814 3.6227288,28.341014 2.8295868,25.989319 3.244525,24.84373 5.3642911,23.532793 10.222374,20.528386 16.358792,18.527691 22.447215,17.963144 c 2.547134,-0.236183 7.324904,-0.02059 9.148407,0.412816 0.142569,0.03389 0.259217,0.01466 0.259217,-0.04272 0,-0.14284 -1.412938,-1.985649 -2.737199,-3.569963 C 26.82444,12.019748 24.815956,10.128888 22.776953,8.7939222 22.052796,8.3198057 21.559787,7.9039471 21.347971,7.5885621 20.550384,6.400982 20.659121,5.0975065 21.643082,4.0509644 c 0.583482,-0.6205909 1.173439,-0.8742957 2.032033,-0.8738533 0.927666,4.781e-4 1.634261,0.3385876 3.293588,1.5760032 5.530101,4.1239796 12.295512,12.9192217 16.575063,21.5480987 l 1.302432,2.626097 0.6644,-1.052967 c 3.076489,-4.875739 7.221824,-8.010204 12.241463,-9.256289 3.217541,-0.798729 6.284701,-0.899576 10.738723,-0.353083 10.88374,1.335396 20.238753,7.950775 25.155819,17.788893 2.064928,4.131529 3.119709,8.033684 3.42945,12.687219 0.200976,3.019469 -0.171211,6.845751 -1.287442,13.235604 -2.599458,14.880558 -6.874591,23.299915 -13.530546,26.646775 -0.443549,0.223032 -1.031961,0.473037 -1.307582,0.555564 -0.416562,0.124728 -0.603401,0.287345 -1.107164,0.963622 -1.997508,2.681567 -5.083194,4.57608 -9.202407,5.649986 -3.029049,0.789692 -5.609394,1.086934 -9.926626,1.143493 -1.71083,0.02241 -3.473502,0.02165 -3.917051,-0.0017 z m 8.923281,-5.970705 c 3.748643,-0.538726 6.511748,-1.525366 8.281042,-2.956969 0.368705,-0.298333 1.039712,-1.026912 1.491127,-1.619066 0.961512,-1.261285 1.677831,-1.815384 3.102913,-2.400215 1.740323,-0.714201 2.215664,-1.027734 3.492394,-2.303569 4.154617,-4.151705 6.713141,-11.664738 8.76928,-25.750736 0.330714,-2.265627 0.370786,-2.821834 0.377651,-5.241936 0.0078,-2.736917 -0.10918,-3.960115 -0.572286,-5.985954 -1.186119,-5.188642 -3.757181,-9.748428 -7.59067,-13.462083 -4.018289,-3.892676 -8.98125,-6.331664 -14.696391,-7.222368 -1.662206,-0.259055 -5.761099,-0.359818 -7.216282,-0.177399 -4.554013,0.570882 -7.75779,2.647168 -10.584168,6.859325 -1.499293,2.234401 -3.397706,6.343706 -3.397706,7.354677 0,0.85014 -0.312099,1.661706 -0.842883,2.191791 -0.681192,0.680293 -1.208098,0.900968 -2.133275,0.89344 -0.422445,-0.0034 -0.949534,0.04234 -1.171308,0.101729 -0.221774,0.05939 -1.174491,0.24063 -2.117147,0.402759 -9.272675,1.594822 -14.835352,4.910445 -17.626749,10.50639 -1.024978,2.054785 -1.673111,4.192214 -2.141726,7.063039 -1.023423,6.269689 -0.257023,12.103484 2.265745,17.246732 1.2193,2.485825 2.753472,4.589989 4.774242,6.54802 3.666307,3.552476 8.287813,5.833129 13.52075,6.672315 2.128854,0.341396 10.103584,1.220572 13.076037,1.441571 2.218529,0.164946 9.40628,0.05884 10.93941,-0.161493 z M 23.970914,42.375139 c 2.774667,-2.23148 6.620858,-4.137663 10.446651,-5.17739 0.554084,-0.150582 0.993181,-0.317383 0.975771,-0.370667 -0.04633,-0.141789 -2.896419,-1.386895 -4.530613,-1.979269 -3.120229,-1.13104 -6.521491,-1.99663 -9.491755,-2.415562 -1.988459,-0.280456 -2.787733,-0.755806 -3.289308,-1.956245 -0.233562,-0.558992 -0.208126,-1.632041 0.05197,-2.192596 0.245208,-0.528465 0.816359,-1.138365 1.329409,-1.419605 0.544485,-0.29847 2.20204,-0.243109 4.269676,0.142603 4.92229,0.918239 10.093816,2.60309 14.566244,4.74559 0.851296,0.407811 1.589217,0.727389 1.639822,0.710176 0.124148,-0.04223 -0.803195,-2.156446 -1.933967,-4.409179 L 37.079549,26.209677 36.224105,25.78081 c -1.783354,-0.894064 -5.008234,-1.758259 -7.619338,-2.04181 -1.615309,-0.175414 -4.8665,-0.149256 -6.596131,0.05307 -2.812689,0.329017 -5.899643,1.104856 -8.469091,2.12852 -1.471411,0.586208 -3.8153168,1.743976 -3.8833749,1.918185 -0.088031,0.225337 0.9458599,2.139901 2.0228249,3.745878 2.484813,3.705365 5.929347,7.394551 9.922384,10.62713 0.665322,0.538615 1.2391,0.981928 1.275061,0.985141 0.03596,0.0032 0.528472,-0.366591 1.09447,-0.821785 z"
   id="path838" /><path
   style="fill:#782121;stroke:#000000;stroke-width:0.115389"
   d="M 54.435484,87.665643 C 50.004037,87.323081 43.075425,86.479396 40.76095,86.00052 32.447189,84.280358 26.164702,78.258747 24.125855,70.056185 23.106809,65.956422 23.245041,61.00451 24.518489,55.990783 c 1.935154,-7.618949 6.028594,-11.687948 12.019445,-11.947679 1.405376,-0.06093 1.553188,-0.04714 2.044622,0.19076 1.419868,0.687346 2.038839,2.431497 1.345329,3.790891 -0.55135,1.080736 -1.338922,1.510435 -2.999989,1.636792 -1.739134,0.132296 -2.630945,0.489489 -3.729995,1.493959 -1.570709,1.435539 -2.700274,3.911945 -3.414161,7.485047 -0.515293,2.579112 -0.616914,3.693406 -0.544493,5.97048 0.07024,2.208621 0.267179,3.371519 0.881464,5.205037 1.747966,5.217331 5.950176,9.104566 11.21038,10.370109 2.066791,0.497245 10.168435,1.47943 14.31407,1.735335 2.732063,0.168647 7.145929,0.08188 8.904838,-0.17504 1.278668,-0.186777 3.181564,-0.671063 3.422506,-0.871026 0.06743,-0.05596 0.613413,-0.886814 1.213297,-1.846339 0.746964,-1.194783 1.235025,-1.85117 1.548668,-2.082786 0.29997,-0.221518 1.214157,-0.581582 2.64977,-1.043646 2.110525,-0.67929 2.21017,-0.725124 2.687297,-1.236089 0.922814,-0.988263 2.234839,-4.015541 3.300977,-7.616457 0.348038,-1.17551 0.788234,-1.761811 1.610106,-2.144512 1.82745,-0.850947 4.025092,0.568178 4.019418,2.595534 -0.0025,0.879796 -0.863795,3.705041 -1.899817,6.231566 -1.29332,3.153992 -3.054959,5.599167 -4.703603,6.528653 -0.348503,0.196482 -1.400529,0.608858 -2.337838,0.916393 l -1.704197,0.559153 -0.912182,1.392589 c -0.501699,0.765924 -1.167142,1.631075 -1.47876,1.922559 -1.220603,1.14173 -3.407504,1.926277 -6.873475,2.46585 -1.366052,0.212662 -8.531674,0.311995 -10.656682,0.147727 z"
   id="path840" /></svg>
