<?xml version="1.0" encoding="UTF-8" standalone="no"?>
<svg
   xmlns:dc="http://purl.org/dc/elements/1.1/"
   xmlns:cc="http://creativecommons.org/ns#"
   xmlns:rdf="http://www.w3.org/1999/02/22-rdf-syntax-ns#"
   xmlns:svg="http://www.w3.org/2000/svg"
   xmlns="http://www.w3.org/2000/svg"
   xmlns:sodipodi="http://sodipodi.sourceforge.net/DTD/sodipodi-0.dtd"
   xmlns:inkscape="http://www.inkscape.org/namespaces/inkscape"
   version="1.1"
   id="Layer_1"
   x="0px"
   y="0px"
   viewBox="0 0 100 100"
   enable-background="new 0 0 100 100"
   xml:space="preserve"
   sodipodi:docname="Maíz (Grano) color.svg"
   inkscape:version="1.0.1 (3bc2e813f5, 2020-09-07)"><metadata
   id="metadata19"><rdf:RDF><cc:Work
       rdf:about=""><dc:format>image/svg+xml</dc:format><dc:type
         rdf:resource="http://purl.org/dc/dcmitype/StillImage" /><dc:title></dc:title></cc:Work></rdf:RDF></metadata><defs
   id="defs17" /><sodipodi:namedview
   pagecolor="#ffffff"
   bordercolor="#666666"
   borderopacity="1"
   objecttolerance="10"
   gridtolerance="10"
   guidetolerance="10"
   inkscape:pageopacity="0"
   inkscape:pageshadow="2"
   inkscape:window-width="1920"
   inkscape:window-height="1017"
   id="namedview15"
   showgrid="false"
   inkscape:zoom="8.5"
   inkscape:cx="40.946795"
   inkscape:cy="50"
   inkscape:window-x="-8"
   inkscape:window-y="-8"
   inkscape:window-maximized="1"
   inkscape:current-layer="Layer_1" />
<g
   id="g12"
   transform="translate(-98.588235,-1.0588235)">
	<path
   fill="#2c3136"
   d="M 88.2,47.1 C 87.8,46.3 87.4,45.7 87.1,45.2 86.1,43.3 84.9,41.3 83.6,39.5 83,38.7 82.5,37.9 81.9,37 81.4,35.1 73.6,9.3 59.8,3 59.1,2.7 58.3,2.6 57.5,2.9 56.8,3.2 56.2,3.7 55.9,4.5 54.7,7.1 53.8,9.7 52.9,12.2 41.6,6 29.8,2.8 18.8,2.8 c -0.1,0 -0.3,0 -0.4,0 -8.8,0 -15.5,6.7 -15.5,15.5 0,11 4.1,24 11.6,36.7 -3.3,1 -6.6,2.2 -9.9,3.7 -0.7,0.3 -1.3,0.9 -1.5,1.7 -0.3,0.7 -0.2,1.6 0.2,2.3 6.4,12.7 33.8,21.1 37,22 0,0 0,0 0,0 2.8,2.1 5.6,3.9 8.3,5.3 2.9,1.5 13.2,6.5 23.7,6.5 6.3,0 12.6,-1.8 17.6,-7.1 13.9,-15.1 2.5,-34.8 -1.7,-42.3 z M 60,9.9 c 8.3,6.2 14.4,22.3 16.3,28.7 0.1,0.5 0.2,0.9 0.5,1.3 0.7,0.9 1.4,1.9 2,2.8 1.2,1.7 2.2,3.5 3.2,5.2 0.3,0.6 0.7,1.3 1.2,2.1 3.4,6 9.8,17.1 6.9,27.4 C 81.4,70.3 72.9,64.6 64.4,60.6 64.3,60.4 64.3,60.2 64.2,60 55.7,43.2 52.3,29.3 60,9.9 Z M 8.8,18.3 c 0,-5.6 4,-9.6 9.7,-9.6 10.4,0.1 21.8,3.1 32.8,9.3 0,0 0.1,0 0.1,0 -0.4,1.8 -0.8,3.7 -1,5.4 -0.9,-0.2 -1.9,0 -2.6,0.8 L 33.1,38.8 c -1.1,1.1 -1.1,3 0,4.1 0.6,0.6 1.3,0.9 2.1,0.9 0.7,0 1.5,-0.3 2.1,-0.9 L 50,30.2 c 0,2.9 0.2,5.8 0.7,8.6 L 42,47.5 c -1.1,1.1 -1.1,3 0,4.1 0.6,0.6 1.3,0.9 2.1,0.9 0.7,0 1.5,-0.3 2.1,-0.9 l 6,-6.1 c 1.1,3.8 2.6,7.7 4.3,11.6 C 47.8,53.9 39.3,52.3 30.9,52.4 22,39.3 17.6,28.8 17.7,20.2 c 0,-1.6 -1.3,-2.9 -2.9,-3 -1.7,0.1 -2.9,1.3 -3,2.9 -0.1,9.1 4,19.9 12.4,32.7 C 23,53 21.7,53.1 20.5,53.3 12.9,41.2 8.8,28.7 8.8,18.3 Z M 51.2,84.9 C 48.5,83.5 45.7,81.7 42.9,79.5 42.4,79.1 41.8,79 41.2,78.9 33.9,76.7 16.7,70.2 10.1,62.6 33.8,53 59.8,59.9 87.3,82.9 c -0.6,0.9 -1.2,1.7 -2,2.6 C 75,96.9 53.6,86.1 51.2,84.9 Z"
   id="path2" />
	<path
   fill="#2c3136"
   d="m 27.2,31.2 c 0.6,0.6 1.3,0.9 2.1,0.9 0.7,0 1.5,-0.3 2.1,-0.9 l 8.8,-8.8 c 1.1,-1.1 1.1,-3 0,-4.1 -1.1,-1.1 -3,-1.1 -4.1,0 l -8.8,8.8 c -1.2,1.1 -1.2,3 -0.1,4.1 z"
   id="path4" />
	<path
   fill="#2c3136"
   d="m 23.4,23.3 c 0.7,0 1.5,-0.3 2.1,-0.9 l 2.9,-2.9 c 1.1,-1.1 1.1,-3 0,-4.1 -1.1,-1.1 -3,-1.1 -4.1,0 l -2.9,2.9 c -1.1,1.1 -1.1,3 0,4.1 0.5,0.6 1.3,0.9 2,0.9 z"
   id="path6" />
	<path
   fill="#2c3136"
   d="M 73.5,81.9 C 66.6,81.3 57.7,77.8 45.4,70.6 45.1,70.4 44.7,70.3 44.3,70.2 37.2,69.3 32.8,66.7 25,61.8 c -1.4,-0.9 -3.2,-0.4 -4,0.9 -0.9,1.4 -0.4,3.2 0.9,4 8.1,5.1 13.2,8 21.1,9.1 12.8,7.4 22.3,11.2 30,11.8 0.1,0 0.2,0 0.2,0 1.5,0 2.8,-1.2 2.9,-2.7 0.2,-1.5 -1,-2.9 -2.6,-3 z"
   id="path8" />
	<path
   fill="#2c3136"
   d="m 70.3,58.4 c 0.7,0 1.5,-0.3 2.1,-0.9 1.1,-1.1 1.1,-3 0,-4.1 -2.2,-2.2 -6.3,-11.4 -8,-19.1 -0.3,-1.6 -1.9,-2.6 -3.5,-2.2 -1.6,0.3 -2.6,1.9 -2.2,3.5 1.6,7.5 6,18.3 9.6,22 0.5,0.5 1.3,0.8 2,0.8 z"
   id="path10" />
</g>
<path
   style="fill:#ffdd55;stroke:#ffffff;stroke-width:0.117647"
   d="M 70.215628,96.108344 C 60.96792,95.348402 50.006186,91.085121 41.876206,85.086464 41.098926,84.512953 40.795197,84.378924 38.993853,83.81455 33.180288,81.993117 26.908063,79.469007 21.627393,76.825827 12.510392,72.262413 6.5831192,67.463102 4.0721039,62.611317 3.7087773,61.909297 3.6273925,61.62825 3.6273925,61.075592 c 0,-0.820765 0.4142952,-1.739527 0.976339,-2.165179 0.7706479,-0.583634 6.5806065,-2.891265 9.5236615,-3.782659 0.566177,-0.171483 1.029412,-0.327053 1.029412,-0.345709 0,-0.01866 -0.377848,-0.691955 -0.839661,-1.496219 C 13.093285,51.154438 11.181192,47.40569 10.180872,45.176471 6.0487201,35.96795 3.9447492,27.793995 3.564193,19.470588 3.3323058,14.398821 4.7993641,10.335537 8.0282056,7.1066955 10.258698,4.876204 12.595472,3.6338397 15.909268,2.9166663 16.943724,2.6927892 17.449121,2.6600774 19.803864,2.6645896 30.002593,2.6841326 40.854646,5.5403118 51.501944,11.007287 52.5653,11.553279 53.472797,12 53.518603,12 c 0.04581,0 0.11965,-0.145588 0.164101,-0.323529 0.145723,-0.583358 1.922103,-5.2421692 2.479416,-6.5026256 0.673425,-1.5230637 0.968912,-1.9207346 1.703952,-2.2932073 0.907156,-0.4596912 1.70762,-0.40973 2.933509,0.1830959 7.398465,3.5778144 14.533456,13.861613 20.015229,28.848331 0.443831,1.213401 0.992096,2.816867 1.218366,3.563259 0.394022,1.299761 0.477887,1.455018 1.985715,3.676169 1.821494,2.683205 2.706966,4.156669 5.35282,8.907331 4.049493,7.27091 6.296749,13.028168 7.252197,18.579437 1.254606,7.289404 0.04912,13.702798 -3.603648,19.172047 -3.329317,4.98495 -7.778224,8.167911 -13.435372,9.61231 -2.44595,0.624506 -6.501885,0.921355 -9.36926,0.685726 z m 5.649652,-5.807171 c 3.957194,-0.526891 7.161879,-2.040131 9.633112,-4.548719 0.769318,-0.780946 1.756379,-1.998052 2.284626,-2.81708 l 0.193439,-0.29992 -0.851003,-0.697053 C 76.263826,73.041679 66.36504,66.968162 56.215628,62.973317 44.302813,58.284388 32.492751,56.982994 21.333276,59.129501 c -1.788628,0.34404 -4.565904,1.048005 -6.235295,1.580478 -2.1775,0.694542 -4.411764,1.555916 -4.411764,1.700866 0,0.180893 1.773165,1.889796 2.941176,2.834585 4.291672,3.471476 11.162734,7.14542 19.529412,10.44234 3.87554,1.527169 7.917756,2.904077 9.38222,3.195883 0.210467,0.04194 1.029882,0.554391 1.823529,1.140417 3.074046,2.269861 5.59258,3.819664 8.46304,5.20781 5.524832,2.671792 11.819079,4.583524 16.801799,5.103157 1.585163,0.165311 4.876171,0.147445 6.237887,-0.03386 z M 91.023473,75.993241 C 92.017945,71.322922 91.324491,65.926345 88.960801,59.941177 87.717185,56.792177 84.516965,50.691714 81.18458,45.117647 80.590085,44.123238 78.767738,41.397148 78.016407,40.378308 77.252317,39.342165 77.235065,39.302575 76.39035,36.647059 75.279879,33.156092 73.66389,29.091407 71.963866,25.513164 69.325804,19.960518 66.723373,15.821337 63.826546,12.570711 62.855172,11.4807 60.945717,9.7421488 60.643312,9.6723888 c -0.309226,-0.071333 -2.274833,5.8884762 -3.061599,9.2829052 -0.9703,4.186265 -1.29387,7.009574 -1.292763,11.28 0.0012,4.457259 0.360782,7.369172 1.465308,11.864644 1.153541,4.694963 2.866661,9.137372 6.40998,16.622162 l 0.815246,1.7221 1.823955,0.906661 c 6.961984,3.460701 14.071859,8.111244 21.959251,14.363461 1.014502,0.804182 1.881514,1.462149 1.926691,1.462149 0.04518,0 0.195519,-0.532453 0.334092,-1.18323 z M 57.156805,56.899142 c 0,-0.02312 -0.310392,-0.777531 -0.689759,-1.67647 -1.059422,-2.510381 -2.15359,-5.423172 -2.889914,-7.69326 -0.367288,-1.132353 -0.693361,-2.134105 -0.724605,-2.226114 -0.03644,-0.107323 -1.193822,0.995855 -3.228697,3.077495 -3.21734,3.291278 -3.617707,3.621655 -4.604164,3.799302 -0.730099,0.13148 -1.68183,-0.222777 -2.319826,-0.863495 -0.607733,-0.610328 -0.837153,-1.186175 -0.837153,-2.101268 0,-1.10818 0.234977,-1.397282 5.030296,-6.188998 L 51.340579,38.58208 51.13808,37.175347 c -0.274039,-1.903706 -0.451863,-4.227446 -0.451863,-5.904746 0,-0.763536 -0.03988,-1.388248 -0.08863,-1.388248 -0.04875,0 -3.02669,2.941787 -6.617647,6.537304 -3.590958,3.595517 -6.716771,6.635215 -6.946251,6.754883 -0.615002,0.320711 -1.209098,0.397424 -1.862986,0.240558 -1.219436,-0.292538 -2.102104,-1.314981 -2.215582,-2.566431 -0.12301,-1.356568 -0.380141,-1.055269 8.150363,-9.550367 5.631693,-5.608319 7.826469,-7.720921 8.19502,-7.888199 0.287519,-0.130497 0.765926,-0.22957 1.115679,-0.231047 0.598666,-0.0025 0.613733,-0.01111 0.675877,-0.384936 0.03496,-0.210294 0.143851,-0.866198 0.241984,-1.457563 0.09813,-0.591365 0.302544,-1.63816 0.454246,-2.32621 l 0.275824,-1.251 -1.188947,-0.637306 C 41.713751,12.211289 32.343192,9.3335366 23.097981,8.5915068 c -2.073542,-0.1664244 -5.144905,-0.1689964 -6.04893,-0.00507 -1.01146,0.1834125 -2.437692,0.7020917 -3.264655,1.1872595 -0.377528,0.221491 -1.164481,0.8791941 -1.748785,1.4615641 -1.268055,1.263857 -1.913443,2.396466 -2.3648654,4.150167 -0.259595,1.008487 -0.293936,1.38285 -0.289944,3.160787 0.02187,9.742732 3.7612904,21.352422 10.5497464,32.753568 l 1.089139,1.829199 1.824892,-0.240964 c 1.003691,-0.132529 1.857687,-0.274403 1.897771,-0.315274 0.04008,-0.04087 -0.584923,-1.126164 -1.388904,-2.411764 -2.047948,-3.274756 -3.41745,-5.694887 -4.88704,-8.636183 -3.812497,-7.630484 -5.71868,-14.029955 -5.975072,-20.059619 -0.09103,-2.140667 0.05099,-2.739243 0.836168,-3.524423 1.365971,-1.365972 3.506232,-1.077361 4.492645,0.605825 0.288604,0.492464 0.323778,0.69119 0.410551,2.319542 0.121005,2.270693 0.275526,3.495372 0.699713,5.545639 1.413248,6.830809 5.429503,15.216196 12.044407,25.147059 l 0.450594,0.67647 1.600991,0.0012 c 6.460625,0.0047 14.385537,1.416643 21.462828,3.823944 2.61351,0.888959 2.667574,0.905958 2.667574,0.838727 z"
   id="path844" /><path
   style="fill:#ffdd55;stroke:#ffffff;stroke-width:0.117647"
   d="M 71.92151,87.446479 C 64.501563,86.444128 56.39937,83.261532 45.154035,76.932033 l -2.061594,-1.160379 -1.644289,-0.301335 c -5.67849,-1.040647 -9.900325,-2.872823 -17.557717,-7.61963 -1.345893,-0.834317 -2.410681,-1.579061 -2.621689,-1.833686 -0.195425,-0.235822 -0.439306,-0.715782 -0.541957,-1.066576 -0.559062,-1.910511 1.158255,-3.791375 3.184296,-3.487552 0.377061,0.05654 1.165424,0.478118 2.906265,1.554114 7.549841,4.666478 11.175155,6.240102 16.221807,7.041328 1.71986,0.273051 1.8278,0.314905 3.941177,1.528199 2.920323,1.676563 5.150929,2.858862 8.411764,4.45853 6.973273,3.420878 12.327996,5.212826 17.47037,5.846427 1.307967,0.161158 1.737588,0.305167 2.285293,0.766029 1.553221,1.306951 0.960015,3.995985 -1.039169,4.710602 -0.402721,0.143954 -1.429303,0.180742 -2.187082,0.07837 z"
   id="path846" /><path
   style="fill:#ffdd55;stroke:#ffffff;stroke-width:0.117647"
   d="m 69.626631,58.243019 c -0.609676,-0.185455 -1.042223,-0.486748 -1.649455,-1.148937 -2.593787,-2.828534 -6.226207,-10.673054 -8.272543,-17.865259 -1.15069,-4.0443 -1.223964,-4.760843 -0.591462,-5.783889 0.485735,-0.785659 1.267416,-1.245342 2.220916,-1.306057 0.918659,-0.0585 1.483535,0.12082 2.081005,0.660598 0.63121,0.570261 0.707896,0.74927 1.271512,2.968146 1.21374,4.77832 3.590993,10.988931 5.584497,14.589586 0.767328,1.385942 1.33091,2.232911 2.101291,3.157881 0.618849,0.74303 0.844724,1.428873 0.745765,2.264426 -0.199627,1.685533 -1.961763,2.928838 -3.491526,2.463505 z"
   id="path848" /><path
   style="fill:#ffdd55;stroke:#ffffff;stroke-width:0.117647"
   d="m 28.156804,31.776146 c -0.996441,-0.463054 -1.709021,-1.569128 -1.703298,-2.643879 0.0055,-1.026669 0.220028,-1.285687 5.208134,-6.287275 2.629418,-2.636524 4.929981,-4.847104 5.179681,-4.977084 1.87558,-0.976325 4.07789,0.365745 4.07789,2.485033 0,1.234022 -0.128576,1.393074 -5.249808,6.494086 -3.50067,3.486848 -4.823244,4.731033 -5.218481,4.90918 -0.676708,0.305018 -1.66223,0.313582 -2.294118,0.01994 z"
   id="path850" /><path
   style="fill:#ffdd55;stroke:#ffffff;stroke-width:0.117647"
   d="m 22.888275,23.159406 c -0.91342,-0.202172 -1.659659,-0.831171 -2.02584,-1.707565 -0.256076,-0.612877 -0.225874,-1.701711 0.06433,-2.319087 0.352857,-0.750673 3.780548,-4.105369 4.406512,-4.312674 2.041628,-0.676142 4.031215,0.879535 3.784882,2.959434 -0.105294,0.889042 -0.477638,1.405194 -2.334219,3.235749 -2.072296,2.043245 -2.725989,2.403033 -3.895663,2.144143 z"
   id="path852" /></svg>
