<?xml version="1.0" encoding="utf-8"?>
<!-- Generator: Adobe Illustrator 18.0.0, SVG Export Plug-In . SVG Version: 6.00 Build 0)  -->
<!DOCTYPE svg PUBLIC "-//W3C//DTD SVG 1.1//EN" "http://www.w3.org/Graphics/SVG/1.1/DTD/svg11.dtd">
<svg version="1.1" id="Layer_1" xmlns="http://www.w3.org/2000/svg" xmlns:xlink="http://www.w3.org/1999/xlink" x="0px" y="0px"
	 viewBox="0 0 100 100" enable-background="new 0 0 100 100" xml:space="preserve">
<g>
	<path fill="#FFFFFF" d="M88.2,47.1c-0.4-0.8-0.8-1.4-1.1-1.9c-1-1.9-2.2-3.9-3.5-5.7c-0.6-0.8-1.1-1.6-1.7-2.5
		c-0.5-1.9-8.3-27.7-22.1-34c-0.7-0.3-1.5-0.4-2.3-0.1c-0.7,0.3-1.3,0.8-1.6,1.6c-1.2,2.6-2.1,5.2-3,7.7C41.6,6,29.8,2.8,18.8,2.8
		c-0.1,0-0.3,0-0.4,0C9.6,2.8,2.9,9.5,2.9,18.3c0,11,4.1,24,11.6,36.7c-3.3,1-6.6,2.2-9.9,3.7c-0.7,0.3-1.3,0.9-1.5,1.7
		c-0.3,0.7-0.2,1.6,0.2,2.3c6.4,12.7,33.8,21.1,37,22c0,0,0,0,0,0c2.8,2.1,5.6,3.9,8.3,5.3c2.9,1.5,13.2,6.5,23.7,6.5
		c6.3,0,12.6-1.8,17.6-7.1C103.8,74.3,92.4,54.6,88.2,47.1z M60,9.9c8.3,6.2,14.4,22.3,16.3,28.7c0.1,0.5,0.2,0.9,0.5,1.3
		c0.7,0.9,1.4,1.9,2,2.8c1.2,1.7,2.2,3.5,3.2,5.2c0.3,0.6,0.7,1.3,1.2,2.1c3.4,6,9.8,17.1,6.9,27.4c-8.7-7.1-17.2-12.8-25.7-16.8
		c-0.1-0.2-0.1-0.4-0.2-0.6C55.7,43.2,52.3,29.3,60,9.9z M8.8,18.3c0-5.6,4-9.6,9.7-9.6c10.4,0.1,21.8,3.1,32.8,9.3c0,0,0.1,0,0.1,0
		c-0.4,1.8-0.8,3.7-1,5.4c-0.9-0.2-1.9,0-2.6,0.8L33.1,38.8c-1.1,1.1-1.1,3,0,4.1c0.6,0.6,1.3,0.9,2.1,0.9c0.7,0,1.5-0.3,2.1-0.9
		l12.7-12.7c0,2.9,0.2,5.8,0.7,8.6l-8.7,8.7c-1.1,1.1-1.1,3,0,4.1c0.6,0.6,1.3,0.9,2.1,0.9c0.7,0,1.5-0.3,2.1-0.9l6-6.1
		c1.1,3.8,2.6,7.7,4.3,11.6c-8.7-3.2-17.2-4.8-25.6-4.7c-8.9-13.1-13.3-23.6-13.2-32.2c0-1.6-1.3-2.9-2.9-3c-1.7,0.1-2.9,1.3-3,2.9
		c-0.1,9.1,4,19.9,12.4,32.7c-1.2,0.2-2.5,0.3-3.7,0.5C12.9,41.2,8.8,28.7,8.8,18.3z M51.2,84.9c-2.7-1.4-5.5-3.2-8.3-5.4
		c-0.5-0.4-1.1-0.5-1.7-0.6c-7.3-2.2-24.5-8.7-31.1-16.3c23.7-9.6,49.7-2.7,77.2,20.3c-0.6,0.9-1.2,1.7-2,2.6
		C75,96.9,53.6,86.1,51.2,84.9z"/>
	<path fill="#FFFFFF" d="M27.2,31.2c0.6,0.6,1.3,0.9,2.1,0.9c0.7,0,1.5-0.3,2.1-0.9l8.8-8.8c1.1-1.1,1.1-3,0-4.1
		c-1.1-1.1-3-1.1-4.1,0l-8.8,8.8C26.1,28.2,26.1,30.1,27.2,31.2z"/>
	<path fill="#FFFFFF" d="M23.4,23.3c0.7,0,1.5-0.3,2.1-0.9l2.9-2.9c1.1-1.1,1.1-3,0-4.1c-1.1-1.1-3-1.1-4.1,0l-2.9,2.9
		c-1.1,1.1-1.1,3,0,4.1C21.9,23,22.7,23.3,23.4,23.3z"/>
	<path fill="#FFFFFF" d="M73.5,81.9c-6.9-0.6-15.8-4.1-28.1-11.3c-0.3-0.2-0.7-0.3-1.1-0.4c-7.1-0.9-11.5-3.5-19.3-8.4
		c-1.4-0.9-3.2-0.4-4,0.9c-0.9,1.4-0.4,3.2,0.9,4c8.1,5.1,13.2,8,21.1,9.1c12.8,7.4,22.3,11.2,30,11.8c0.1,0,0.2,0,0.2,0
		c1.5,0,2.8-1.2,2.9-2.7C76.3,83.4,75.1,82,73.5,81.9z"/>
	<path fill="#FFFFFF" d="M70.3,58.4c0.7,0,1.5-0.3,2.1-0.9c1.1-1.1,1.1-3,0-4.1c-2.2-2.2-6.3-11.4-8-19.1c-0.3-1.6-1.9-2.6-3.5-2.2
		c-1.6,0.3-2.6,1.9-2.2,3.5c1.6,7.5,6,18.3,9.6,22C68.8,58.1,69.6,58.4,70.3,58.4z"/>
</g>
</svg>
