<?xml version="1.0" encoding="utf-8"?>
<!-- Generator: Adobe Illustrator 18.0.0, SVG Export Plug-In . SVG Version: 6.00 Build 0)  -->
<!DOCTYPE svg PUBLIC "-//W3C//DTD SVG 1.1//EN" "http://www.w3.org/Graphics/SVG/1.1/DTD/svg11.dtd">
<svg version="1.1" id="Layer_1" xmlns="http://www.w3.org/2000/svg" xmlns:xlink="http://www.w3.org/1999/xlink" x="0px" y="0px"
	 viewBox="0 0 100 100" enable-background="new 0 0 100 100" xml:space="preserve">
<g>
	<path fill="#2C3136" d="M96.3,69.8L82,55.5c-2.8-2.8-7.4-3-10.4-0.5c0,0,0,0,0,0c-4.2,3.6-9.6,5.1-15.2,4.2
		c-8-1.2-14.4-7.7-15.7-15.7C40,38,41.6,32.3,45.3,28.1c2.5-2.8,2.3-7.1-0.4-9.9L30.2,3.7c-1-1-2.6-1.2-3.9-0.5
		C11.8,12.1,2.8,28.8,2.8,46.9c0,13.5,5.2,26.2,14.7,35.7C27,92,39.7,97.2,53.2,97.2c0,0,0,0,0,0c18,0,34.7-9,43.6-23.5
		C97.6,72.4,97.4,70.9,96.3,69.8z M53.2,90.9C53.2,90.9,53.2,90.9,53.2,90.9c-11.8,0-22.9-4.6-31.2-12.9
		C13.7,69.8,9.1,58.7,9.1,46.9c0-15,7-28.9,18.5-36.9l12.8,12.8c0.4,0.4,0.4,0.9,0.2,1.3c-4.9,5.6-7.1,13.1-5.9,20.5
		c1.6,10.7,10.2,19.3,20.9,20.9c7.3,1.1,14.6-0.9,20.2-5.6c0.5-0.4,1.3-0.4,1.9,0.1l12.5,12.5C82.1,83.9,68.2,90.9,53.2,90.9z"/>
	<path fill="#2C3136" d="M78.7,70.2c-6.6,7.3-15.7,11.3-25.5,11.3c-19.1,0-34.6-15.5-34.6-34.6c0-9.9,4-18.9,11.3-25.5
		c1.3-1.2,1.4-3.2,0.2-4.4c-1.2-1.3-3.2-1.4-4.4-0.2c-8.5,7.7-13.3,18.7-13.3,30.2c0,22.6,18.4,40.9,40.9,40.9
		c11.5,0,22.5-4.9,30.2-13.3c1.2-1.3,1.1-3.3-0.2-4.4C81.9,68.8,79.9,68.9,78.7,70.2z"/>
	<circle fill="#2C3136" cx="50" cy="31.1" r="3.1"/>
	<circle fill="#2C3136" cx="46.9" cy="37.4" r="3.1"/>
	<circle fill="#2C3136" cx="46.9" cy="43.7" r="3.1"/>
	<circle fill="#2C3136" cx="50" cy="50" r="3.1"/>
	<circle fill="#2C3136" cx="56.3" cy="53.2" r="3.1"/>
	<circle fill="#2C3136" cx="62.6" cy="53.2" r="3.1"/>
	<circle fill="#2C3136" cx="68.9" cy="50" r="3.1"/>
</g>
</svg>
