<?xml version="1.0" encoding="UTF-8" standalone="no"?>
<svg
   xmlns:dc="http://purl.org/dc/elements/1.1/"
   xmlns:cc="http://creativecommons.org/ns#"
   xmlns:rdf="http://www.w3.org/1999/02/22-rdf-syntax-ns#"
   xmlns:svg="http://www.w3.org/2000/svg"
   xmlns="http://www.w3.org/2000/svg"
   xmlns:sodipodi="http://sodipodi.sourceforge.net/DTD/sodipodi-0.dtd"
   xmlns:inkscape="http://www.inkscape.org/namespaces/inkscape"
   version="1.1"
   id="Layer_1"
   x="0px"
   y="0px"
   viewBox="0 0 100 100"
   enable-background="new 0 0 100 100"
   xml:space="preserve"
   sodipodi:docname="Melón color.svg"
   inkscape:version="1.0.1 (3bc2e813f5, 2020-09-07)"><metadata
   id="metadata27"><rdf:RDF><cc:Work
       rdf:about=""><dc:format>image/svg+xml</dc:format><dc:type
         rdf:resource="http://purl.org/dc/dcmitype/StillImage" /><dc:title></dc:title></cc:Work></rdf:RDF></metadata><defs
   id="defs25" /><sodipodi:namedview
   pagecolor="#ffffff"
   bordercolor="#666666"
   borderopacity="1"
   objecttolerance="10"
   gridtolerance="10"
   guidetolerance="10"
   inkscape:pageopacity="0"
   inkscape:pageshadow="2"
   inkscape:window-width="1920"
   inkscape:window-height="1017"
   id="namedview23"
   showgrid="false"
   inkscape:zoom="8.5"
   inkscape:cx="23.07252"
   inkscape:cy="50"
   inkscape:window-x="-8"
   inkscape:window-y="-8"
   inkscape:window-maximized="1"
   inkscape:current-layer="Layer_1" />
<g
   id="g20"
   transform="translate(-99.058824,0.82352941)">
	<path
   fill="#2c3136"
   d="M 96.3,69.8 82,55.5 c -2.8,-2.8 -7.4,-3 -10.4,-0.5 0,0 0,0 0,0 C 67.4,58.6 62,60.1 56.4,59.2 48.4,58 42,51.5 40.7,43.5 40,38 41.6,32.3 45.3,28.1 47.8,25.3 47.6,21 44.9,18.2 L 30.2,3.7 C 29.2,2.7 27.6,2.5 26.3,3.2 11.8,12.1 2.8,28.8 2.8,46.9 2.8,60.4 8,73.1 17.5,82.6 27,92 39.7,97.2 53.2,97.2 c 0,0 0,0 0,0 18,0 34.7,-9 43.6,-23.5 0.8,-1.3 0.6,-2.8 -0.5,-3.9 z M 53.2,90.9 c 0,0 0,0 0,0 C 41.4,90.9 30.3,86.3 22,78 13.7,69.8 9.1,58.7 9.1,46.9 9.1,31.9 16.1,18 27.6,10 l 12.8,12.8 c 0.4,0.4 0.4,0.9 0.2,1.3 -4.9,5.6 -7.1,13.1 -5.9,20.5 1.6,10.7 10.2,19.3 20.9,20.9 7.3,1.1 14.6,-0.9 20.2,-5.6 0.5,-0.4 1.3,-0.4 1.9,0.1 l 12.5,12.5 c -8.1,11.4 -22,18.4 -37,18.4 z"
   id="path2" />
	<path
   fill="#2c3136"
   d="M 78.7,70.2 C 72.1,77.5 63,81.5 53.2,81.5 34.1,81.5 18.6,66 18.6,46.9 18.6,37 22.6,28 29.9,21.4 31.2,20.2 31.3,18.2 30.1,17 28.9,15.7 26.9,15.6 25.7,16.8 17.2,24.5 12.4,35.5 12.4,47 c 0,22.6 18.4,40.9 40.9,40.9 11.5,0 22.5,-4.9 30.2,-13.3 1.2,-1.3 1.1,-3.3 -0.2,-4.4 -1.4,-1.4 -3.4,-1.3 -4.6,0 z"
   id="path4" />
	<circle
   fill="#2c3136"
   cx="50"
   cy="31.1"
   r="3.0999999"
   id="circle6" />
	<circle
   fill="#2c3136"
   cx="46.900002"
   cy="37.400002"
   r="3.0999999"
   id="circle8" />
	<circle
   fill="#2c3136"
   cx="46.900002"
   cy="43.700001"
   r="3.0999999"
   id="circle10" />
	<circle
   fill="#2c3136"
   cx="50"
   cy="50"
   r="3.0999999"
   id="circle12" />
	<circle
   fill="#2c3136"
   cx="56.299999"
   cy="53.200001"
   r="3.0999999"
   id="circle14" />
	<circle
   fill="#2c3136"
   cx="62.599998"
   cy="53.200001"
   r="3.0999999"
   id="circle16" />
	<circle
   fill="#2c3136"
   cx="68.900002"
   cy="50"
   r="3.0999999"
   id="circle18" />
</g>
<path
   style="fill:#ff7f2a;stroke:#ffffff;stroke-width:0.117647"
   d="M 50.847059,97.082353 C 46.318239,96.884476 40.96862,95.869073 36.664138,94.390313 24.066886,90.06266 13.979915,81.233528 8.0785218,69.369305 4.5782504,62.332323 2.8825353,55.050297 2.8667302,46.987949 2.852789,39.876401 4.0270577,33.664525 6.6363326,27.046773 10.386583,17.535229 16.793986,9.5534825 25.114597,4.0282711 27.130653,2.6895302 28.122431,2.5124587 29.411219,3.2611535 29.943173,3.5701811 44.205117,17.524595 45.234354,18.743096 c 0.606564,0.718102 1.249266,1.986059 1.49329,2.946041 0.225136,0.885684 0.227488,2.632668 0.0047,3.469948 -0.270639,1.016972 -0.839009,2.051344 -1.703684,3.10052 -2.841971,3.448378 -4.341828,7.372871 -4.549765,11.904815 -0.150734,3.285181 0.525635,6.163457 2.192309,9.329341 2.370758,4.503302 6.787372,8.025569 11.671254,9.307868 1.974263,0.518358 2.997965,0.644953 5.210514,0.644353 2.80822,-7.06e-4 4.847649,-0.410612 7.352942,-1.477673 1.512863,-0.644362 2.441035,-1.202355 4.19839,-2.523966 1.695761,-1.275289 1.996159,-1.445649 3.214798,-1.823163 0.691768,-0.214298 1.146182,-0.271892 2.116223,-0.268217 1.479469,0.0056 2.381735,0.224715 3.705883,0.89996 0.903684,0.46083 1.249497,0.787307 8.681124,8.195722 8.641524,8.614535 8.381697,8.309202 8.300072,9.753752 -0.04059,0.718418 -0.108199,0.907918 -0.630977,1.76869 -2.922826,4.812518 -7.866333,10.014884 -12.899024,13.574461 -9.363153,6.622474 -21.114587,10.044983 -32.745314,9.536805 z m 5.89468,-6.272385 C 69.983312,89.76992 81.914855,83.478287 89.466738,73.553718 89.870032,73.023715 90.2,72.546124 90.2,72.492407 c 0,-0.05372 -2.872059,-2.964685 -6.382353,-6.468814 -5.597063,-5.587233 -6.436272,-6.380998 -6.820575,-6.451228 -0.621511,-0.113577 -0.964073,0.04132 -2.28086,1.031365 -3.476515,2.613857 -7.309814,4.21063 -11.692682,4.870626 -1.836865,0.276606 -5.219142,0.27664 -7.105166,7.2e-5 -6.82244,-1.000447 -12.839037,-4.668358 -16.849077,-10.271737 -4.01555,-5.611078 -5.511493,-12.666787 -4.148716,-19.567683 0.728411,-3.688573 2.694256,-7.84719 5.078824,-10.743923 0.736159,-0.894274 0.844924,-1.12976 0.733497,-1.588097 -0.08159,-0.33563 -12.94358,-13.3150391 -13.194579,-13.3150391 -0.173521,0 -2.032583,1.4180821 -3.397136,2.5913161 -1.425964,1.226034 -3.906776,3.790219 -5.063738,5.233915 -5.386496,6.721449 -8.691051,14.708227 -9.7590042,23.586534 -0.265663,2.20856 -0.360142,6.591748 -0.188922,8.764706 0.730837,9.275056 4.1136172,17.728805 9.8860942,24.705882 1.165701,1.40896 3.784755,4.075534 5.243217,5.338351 4.409827,3.818272 9.483473,6.696111 15.03978,8.530763 2.951655,0.974615 7.109684,1.814345 10.195514,2.059022 1.80225,0.142902 5.500134,0.148784 7.247621,0.01153 z"
   id="path852" /><path
   style="fill:#ff7f2a;stroke:#ffffff;stroke-width:0.117647"
   d="m 51.470588,87.80306 c -8.52513,-0.420313 -16.512233,-3.394045 -23.352941,-8.694687 -1.622428,-1.257168 -5.37649,-4.963389 -6.604298,-6.520138 -5.02125,-6.366482 -7.802964,-13.038995 -8.82829,-21.17647 -0.236011,-1.873097 -0.198303,-7.418898 0.06359,-9.352941 1.064881,-7.863877 3.943411,-14.688779 8.700041,-20.627518 1.484615,-1.853569 4.308893,-4.714532 5.021894,-5.087125 1.138608,-0.595002 2.731866,-0.250907 3.642956,0.786766 0.535748,0.610185 0.710411,1.092522 0.707402,1.95351 -0.0037,1.060175 -0.291777,1.599484 -1.42306,2.664179 -5.682297,5.347828 -9.274054,12.173704 -10.470254,19.897964 -0.352436,2.2758 -0.436288,6.727685 -0.170633,9.059282 1.531241,13.439366 10.553906,24.676899 23.301825,29.021917 1.645677,0.560914 4.176042,1.170514 6.117647,1.473826 1.41377,0.220854 2.1303,0.257299 5.058823,0.257299 3.858722,0 5.337621,-0.16509 8.421148,-0.940049 6.440464,-1.618633 12.284169,-5.06685 16.710983,-9.860714 C 79.292206,69.656702 79.990652,69.2958 81,69.297851 c 0.859152,0.0017 1.497905,0.270302 2.214946,0.931247 0.998681,0.920553 1.295316,2.387389 0.726894,3.594431 -0.268264,0.569658 -2.716169,3.043195 -4.389582,4.435545 -4.070905,3.387162 -8.448171,5.811968 -13.552258,7.50733 -3.424599,1.137507 -6.659025,1.757455 -10.411765,1.995642 -1.789197,0.113561 -2.502169,0.120662 -4.117647,0.04101 z"
   id="path854" /><path
   style="fill:#ff7f2a;stroke:#ffffff;stroke-width:0.117647"
   d="m 48.758164,33.838388 c -1.530151,-0.71252 -2.22022,-2.603228 -1.476214,-4.044647 0.298418,-0.578148 1.019909,-1.265879 1.567212,-1.493879 0.604126,-0.251672 1.799307,-0.230982 2.386132,0.04131 0.580469,0.269339 1.180429,0.854777 1.482226,1.446348 0.980444,1.92183 -0.530326,4.327831 -2.71752,4.327831 -0.432643,0 -0.84415,-0.09178 -1.241836,-0.27696 z"
   id="path856" /><path
   style="fill:#ff7f2a;stroke:#ffffff;stroke-width:0.117647"
   d="m 45.996398,40.289889 c -0.722494,-0.222721 -1.499031,-0.915247 -1.834786,-1.636288 -0.677732,-1.455441 -0.05521,-3.193881 1.426623,-3.983946 0.740478,-0.394799 1.934537,-0.357522 2.735804,0.08541 1.044276,0.577263 1.558314,1.459528 1.558314,2.674602 0,1.313049 -0.871942,2.483618 -2.127828,2.856576 -0.742184,0.220405 -1.052886,0.22105 -1.758127,0.0036 z"
   id="path858" /><path
   style="fill:#ff7f2a;stroke:#ffffff;stroke-width:0.117647"
   d="m 45.956899,46.584637 c -1.146059,-0.343329 -2.074546,-1.630225 -2.074546,-2.875353 0,-1.67032 1.330809,-3.004936 2.993687,-3.002252 3.281025,0.0053 4.18283,4.411579 1.182784,5.779163 -0.499237,0.227579 -1.51245,0.275032 -2.101925,0.09844 z"
   id="path860" /><path
   style="fill:#ff7f2a;stroke:#ffffff;stroke-width:0.117647"
   d="m 49.159686,52.902415 c -1.095386,-0.409283 -1.828681,-1.185726 -2.11139,-2.235629 -0.338469,-1.256979 0.364663,-2.743729 1.586093,-3.353741 1.488882,-0.743583 3.281057,-0.168579 4.020077,1.289809 0.562317,1.109677 0.496272,2.066012 -0.214889,3.11164 -0.701197,1.030978 -2.223912,1.58248 -3.279891,1.187921 z"
   id="path862" /><path
   style="fill:#ff7f2a;stroke:#ffffff;stroke-width:0.117647"
   d="m 55.117647,55.957861 c -1.113914,-0.521008 -1.717794,-1.397725 -1.799968,-2.613202 -0.08421,-1.245602 0.671908,-2.461473 1.842372,-2.962618 0.546903,-0.234162 1.717312,-0.235863 2.26027,-0.0033 1.110522,0.475695 1.870609,1.62473 1.872647,2.830906 0.0021,1.214013 -0.562144,2.112556 -1.675946,2.669129 -0.898529,0.449 -1.657156,0.473001 -2.499375,0.07907 z"
   id="path864" /><path
   style="fill:#ff7f2a;stroke:#ffffff;stroke-width:0.117647"
   d="m 61.574747,56.052221 c -2.077295,-0.767535 -2.652244,-3.427213 -1.080612,-4.998845 1.783324,-1.783324 4.813038,-0.6705 5.114957,1.87874 0.132026,1.114754 -0.600942,2.435917 -1.647684,2.969925 -0.624619,0.318657 -1.740627,0.388881 -2.386661,0.15018 z"
   id="path866" /><path
   style="fill:#ff7f2a;stroke:#ffffff;stroke-width:0.117647"
   d="m 67.996398,52.885029 c -2.234495,-0.717767 -2.825519,-3.636544 -1.044976,-5.160622 1.264367,-1.082252 2.951643,-0.985774 4.131069,0.236212 0.574255,0.594978 0.799862,1.1702 0.799862,2.039381 0,0.869181 -0.225607,1.444403 -0.799862,2.03938 -0.848299,0.878911 -2.000044,1.194511 -3.086093,0.845649 z"
   id="path868" /></svg>
