<?xml version="1.0" encoding="UTF-8" standalone="no"?>
<svg
   xmlns:dc="http://purl.org/dc/elements/1.1/"
   xmlns:cc="http://creativecommons.org/ns#"
   xmlns:rdf="http://www.w3.org/1999/02/22-rdf-syntax-ns#"
   xmlns:svg="http://www.w3.org/2000/svg"
   xmlns="http://www.w3.org/2000/svg"
   xmlns:sodipodi="http://sodipodi.sourceforge.net/DTD/sodipodi-0.dtd"
   xmlns:inkscape="http://www.inkscape.org/namespaces/inkscape"
   version="1.1"
   id="Layer_1"
   x="0px"
   y="0px"
   viewBox="0 0 100 100"
   enable-background="new 0 0 100 100"
   xml:space="preserve"
   sodipodi:docname="Naranja color.svg"
   inkscape:version="1.0.1 (3bc2e813f5, 2020-09-07)"><metadata
   id="metadata25"><rdf:RDF><cc:Work
       rdf:about=""><dc:format>image/svg+xml</dc:format><dc:type
         rdf:resource="http://purl.org/dc/dcmitype/StillImage" /><dc:title></dc:title></cc:Work></rdf:RDF></metadata><defs
   id="defs23" /><sodipodi:namedview
   pagecolor="#ffffff"
   bordercolor="#666666"
   borderopacity="1"
   objecttolerance="10"
   gridtolerance="10"
   guidetolerance="10"
   inkscape:pageopacity="0"
   inkscape:pageshadow="2"
   inkscape:window-width="1920"
   inkscape:window-height="1017"
   id="namedview21"
   showgrid="false"
   inkscape:zoom="6.1376869"
   inkscape:cx="41.219436"
   inkscape:cy="45.896041"
   inkscape:window-x="-8"
   inkscape:window-y="-8"
   inkscape:window-maximized="1"
   inkscape:current-layer="Layer_1" />
<g
   id="g18"
   transform="translate(-87.166389,-1.3034226)">
	<path
   fill="#2c3136"
   d="m 33,42.7 c -5.2,3.1 -8.8,10.2 -9,18.1 -0.1,2.6 0.2,5.2 0.8,7.7 0.2,0.7 0.8,1.1 1.4,1.1 0.1,0 0.2,0 0.4,0 0.8,-0.2 1.3,-1 1.1,-1.8 -0.6,-2.2 -0.8,-4.5 -0.7,-6.9 0.2,-6.9 3.2,-13 7.6,-15.6 0.7,-0.4 0.9,-1.3 0.5,-2 -0.5,-0.8 -1.4,-1 -2.1,-0.6 z"
   id="path2" />
	<path
   fill="#2c3136"
   d="M 52.6,27.8 C 53.1,23.4 54.5,17.6 58.2,12.5 59.4,10.9 59,8.6 57.4,7.4 55.8,6.2 53.5,6.6 52.3,8.2 49,12.8 47.1,17.8 46.1,22.2 39.3,9 33.3,2.5 27.8,2.5 c 0,0 0,0 0,0 -3.6,0 -5.8,2.7 -6.6,4.4 -1.9,3.4 -2.2,6.8 -0.9,10.2 2.2,5.7 8.8,10.4 15.2,13.6 C 23.4,36.3 15.3,48.6 15.3,62.2 15.2,81.5 30.7,97 49.8,97 69,97 84.5,81.5 84.5,62.3 84.5,44.1 70.4,29.2 52.6,27.8 Z M 24.3,15.6 C 23.5,13.4 23.7,11.3 25,9.1 l 0.1,-0.2 c 0,-0.1 0.9,-2 2.6,-2 0,0 0,0 0,0 1.6,0 7.3,1.8 17.3,23.2 0,0 0,0.1 0,0.2 C 38.5,27.8 26.9,22.4 24.3,15.6 Z m 25.5,77 C 33.1,92.6 19.5,79 19.5,62.3 c 0,-13.2 8.8,-25.1 21.4,-28.9 1.5,0.6 3,1.2 4.2,1.6 0,0.1 0,0.2 0,0.2 0.2,1.9 1.8,3.3 3.6,3.3 0.1,0 0.3,0 0.4,0 2,-0.2 3.5,-2 3.2,-4.1 0,0 -0.1,-0.9 -0.1,-2.3 15.5,1.3 27.7,14.3 27.7,30.2 C 80.1,79 66.5,92.6 49.8,92.6 Z"
   id="path4" />
	<circle
   fill="#2c3136"
   cx="74.800003"
   cy="65.699997"
   r="1.7"
   id="circle6" />
	<circle
   fill="#2c3136"
   cx="49.099998"
   cy="86.099998"
   r="1.7"
   id="circle8" />
	<circle
   fill="#2c3136"
   cx="65"
   cy="80.400002"
   r="1.7"
   id="circle10" />
	<circle
   fill="#2c3136"
   cx="68.699997"
   cy="61.299999"
   r="1.7"
   id="circle12" />
	<circle
   fill="#2c3136"
   cx="68.699997"
   cy="45.900002"
   r="1.7"
   id="circle14" />
	<circle
   fill="#2c3136"
   cx="56.900002"
   cy="76.199997"
   r="1.7"
   id="circle16" />
</g>
<path
   style="fill:#aa4400;stroke:#000000;stroke-width:0.163184"
   d="M 47.003374,96.944779 C 42.82482,96.516471 38.131586,95.1662 34.584373,93.371757 30.594796,91.353534 26.249471,87.834947 23.42217,84.333267 16.84437,76.186504 14.283116,65.296925 16.527623,55.019999 18.701886,45.064698 25.683356,36.059832 34.77849,31.479595 l 1.189558,-0.599051 -1.715978,-0.9524 C 27.552404,26.209699 23.298919,22.4149 21.239406,18.318733 19.487619,14.834601 19.522369,11.405051 21.347475,7.6530614 23.370139,3.4949395 26.956036,1.840638 30.805698,3.2896468 c 1.698527,0.6393238 3.267691,1.7685495 5.289529,3.8065294 2.906582,2.9297858 5.689792,6.9296278 8.870891,12.7486468 0.78332,1.432885 1.454931,2.574533 1.49247,2.536996 0.03754,-0.03754 0.252067,-0.755902 0.476733,-1.596365 1.002875,-3.751705 2.896725,-8.014651 4.925191,-11.0863195 1.435236,-2.173352 2.130215,-2.6613812 3.789936,-2.6613812 0.896338,0 1.18165,0.073272 1.750083,0.4494426 0.373535,0.2471935 0.881403,0.7550619 1.128596,1.1285964 0.391763,0.5919932 0.449443,0.8382663 0.449443,1.9189577 v 1.239803 l -1.115499,1.704796 c -1.880094,2.873316 -3.207433,5.929842 -4.094078,9.42764 -0.484032,1.909498 -0.948558,4.706014 -0.832113,5.009464 0.05088,0.132587 0.335033,0.220454 0.712927,0.220454 0.999445,0 4.06753,0.600812 6.167799,1.207817 15.513017,4.483468 25.904386,19.31093 24.819071,35.414379 -0.714658,10.603788 -6.240988,20.289698 -14.975943,26.248094 -5.936692,4.04961 -12.593871,6.080388 -19.724659,6.017026 -1.299349,-0.01155 -2.619065,-0.0473 -2.932701,-0.07944 z m 8.635175,-4.608348 c 3.479727,-0.643792 7.777989,-2.320726 10.671773,-4.16351 7.547119,-4.806067 12.688657,-12.869629 13.760461,-21.580772 0.252,-2.048137 0.209328,-6.452586 -0.08192,-8.455611 C 78.545462,48.209748 72.440593,39.739904 63.540549,35.31629 60.23483,33.673237 56.766246,32.632964 53.406285,32.276891 l -1.010306,-0.107068 0.09627,1.700072 c 0.110897,1.958281 -0.046,2.629823 -0.820553,3.511986 -1.839004,2.09451 -5.358382,1.199671 -6.053822,-1.539248 l -0.188791,-0.743533 -2.101259,-0.818727 -2.10126,-0.818728 -1.357119,0.460776 c -3.191391,1.083561 -6.931,3.275762 -9.649988,5.656931 -4.617921,4.044172 -7.916903,9.350571 -9.441815,15.187117 -0.798029,3.054431 -0.902368,3.978419 -0.893342,7.911138 0.0076,3.329031 0.0482,3.853332 0.441452,5.705955 2.732094,12.871127 12.807333,22.350944 25.700051,24.18124 2.428264,0.344724 7.117234,0.233329 9.612742,-0.228371 z M 43.453117,26.2273 C 39.523579,18.391932 36.420303,13.545174 33.170953,10.168415 30.979971,7.8915215 28.958305,6.7597085 27.553128,7.0233212 26.425362,7.2348914 25.403681,8.5136191 24.49608,10.849498 c -0.483073,1.243278 -0.482772,3.441022 6.52e-4,4.794167 1.032915,2.891192 3.852739,5.816983 8.576308,8.898602 3.35405,2.188155 12.145204,6.331877 12.271343,5.784114 0.02847,-0.123612 -0.822608,-1.9682 -1.891271,-4.099081 z"
   id="path854" /><path
   style="fill:#aa4400;fill-opacity:1;stroke:#000000;stroke-width:0.163184"
   d="m 25.405398,69.14595 c -0.548827,-0.472082 -0.958759,-2.220119 -1.232864,-5.257204 -0.424785,-4.706625 0.551505,-9.922879 2.616206,-13.978223 1.4156,-2.780424 2.959972,-4.691582 5.085324,-6.293083 1.686722,-1.270983 2.559207,-1.31574 3.155885,-0.161893 0.399669,0.772875 0.168818,1.221081 -1.121245,2.176941 -3.258193,2.414125 -5.431434,6.075882 -6.490082,10.935326 -0.472995,2.171158 -0.587575,7.121919 -0.21305,9.205422 0.500053,2.781823 0.500707,2.856195 0.02927,3.327633 -0.530342,0.530343 -1.244824,0.547949 -1.829443,0.04508 z"
   id="path856" /><path
   style="fill:#aa4400;fill-opacity:1;stroke:#000000;stroke-width:0.163184"
   d="m 68.102528,47.371294 c -1.012185,-0.414279 -1.313068,-1.784057 -0.557787,-2.539339 0.226806,-0.226806 0.681428,-0.456035 1.010273,-0.5094 0.528825,-0.08582 0.664276,-0.03065 1.172469,0.477546 0.773309,0.773309 0.779378,1.412501 0.02062,2.171263 -0.55604,0.556041 -1.000336,0.66402 -1.645571,0.39993 z"
   id="path858" /><path
   style="fill:#aa4400;fill-opacity:1;stroke:#000000;stroke-width:0.163184"
   d="m 67.656588,62.458653 c -0.54696,-0.506906 -0.675396,-0.972254 -0.453723,-1.643929 0.549067,-1.663689 3.099189,-1.270377 3.099189,0.477997 0,1.31992 -1.680257,2.060457 -2.645466,1.165932 z"
   id="path860" /><path
   style="fill:#aa4400;fill-opacity:1;stroke:#000000;stroke-width:0.163184"
   d="m 73.711005,66.763336 c -0.657302,-0.657303 -0.657302,-1.485825 0,-2.143128 0.640271,-0.640271 1.448362,-0.651023 2.119424,-0.0282 1.070071,0.993151 0.444471,2.647577 -1.001147,2.647577 -0.492371,0 -0.753039,-0.111013 -1.118277,-0.476249 z"
   id="path862" /><path
   style="fill:#aa4400;fill-opacity:1;stroke:#000000;stroke-width:0.163184"
   d="m 64.436652,81.885541 c -1.056514,-0.414553 -1.320178,-1.782966 -0.501317,-2.601828 0.657303,-0.657303 1.485825,-0.657303 2.143128,0 0.855485,0.855485 0.546356,2.190081 -0.609033,2.629359 -0.474791,0.180515 -0.504583,0.179721 -1.032778,-0.02753 z"
   id="path864" /><path
   style="fill:#aa4400;fill-opacity:1;stroke:#000000;stroke-width:0.163184"
   d="m 56.098982,77.559282 c -1.507273,-0.963928 -0.58248,-3.291135 1.156099,-2.909279 0.529812,0.116366 1.101378,0.716998 1.251503,1.315147 0.09672,0.385365 -0.242151,1.185044 -0.643228,1.517908 -0.412308,0.342186 -1.289256,0.380071 -1.764374,0.07622 z"
   id="path866" /><path
   style="fill:#aa4400;fill-opacity:1;stroke:#000000;stroke-width:0.163184"
   d="m 48.53296,87.608812 c -0.485635,-0.196218 -1.040803,-0.952689 -1.040803,-1.418197 0,-0.916923 0.775221,-1.680679 1.705908,-1.680679 0.52732,0 1.342869,0.719204 1.469541,1.295935 0.135426,0.616591 -0.267517,1.394026 -0.889126,1.715472 -0.532851,0.275548 -0.74343,0.290337 -1.24552,0.08747 z"
   id="path868" /></svg>
