<?xml version="1.0" encoding="utf-8"?>
<!-- Generator: Adobe Illustrator 18.0.0, SVG Export Plug-In . SVG Version: 6.00 Build 0)  -->
<!DOCTYPE svg PUBLIC "-//W3C//DTD SVG 1.1//EN" "http://www.w3.org/Graphics/SVG/1.1/DTD/svg11.dtd">
<svg version="1.1" id="Layer_1" xmlns="http://www.w3.org/2000/svg" xmlns:xlink="http://www.w3.org/1999/xlink" x="0px" y="0px"
	 viewBox="0 0 100 100" enable-background="new 0 0 100 100" xml:space="preserve">
<g>
	<path fill="#FFFFFF" d="M33,42.7c-5.2,3.1-8.8,10.2-9,18.1c-0.1,2.6,0.2,5.2,0.8,7.7c0.2,0.7,0.8,1.1,1.4,1.1c0.1,0,0.2,0,0.4,0
		c0.8-0.2,1.3-1,1.1-1.8c-0.6-2.2-0.8-4.5-0.7-6.9c0.2-6.9,3.2-13,7.6-15.6c0.7-0.4,0.9-1.3,0.5-2C34.6,42.5,33.7,42.3,33,42.7z"/>
	<path fill="#FFFFFF" d="M52.6,27.8c0.5-4.4,1.9-10.2,5.6-15.3c1.2-1.6,0.8-3.9-0.8-5.1c-1.6-1.2-3.9-0.8-5.1,0.8
		c-3.3,4.6-5.2,9.6-6.2,14C39.3,9,33.3,2.5,27.8,2.5c0,0,0,0,0,0c-3.6,0-5.8,2.7-6.6,4.4c-1.9,3.4-2.2,6.8-0.9,10.2
		c2.2,5.7,8.8,10.4,15.2,13.6c-12.1,5.6-20.2,17.9-20.2,31.5C15.2,81.5,30.7,97,49.8,97C69,97,84.5,81.5,84.5,62.3
		C84.5,44.1,70.4,29.2,52.6,27.8z M24.3,15.6c-0.8-2.2-0.6-4.3,0.7-6.5l0.1-0.2c0-0.1,0.9-2,2.6-2c0,0,0,0,0,0
		c1.6,0,7.3,1.8,17.3,23.2c0,0,0,0.1,0,0.2C38.5,27.8,26.9,22.4,24.3,15.6z M49.8,92.6c-16.7,0-30.3-13.6-30.3-30.3
		c0-13.2,8.8-25.1,21.4-28.9c1.5,0.6,3,1.2,4.2,1.6c0,0.1,0,0.2,0,0.2c0.2,1.9,1.8,3.3,3.6,3.3c0.1,0,0.3,0,0.4,0
		c2-0.2,3.5-2,3.2-4.1c0,0-0.1-0.9-0.1-2.3c15.5,1.3,27.7,14.3,27.7,30.2C80.1,79,66.5,92.6,49.8,92.6z"/>
	<circle fill="#FFFFFF" cx="74.8" cy="65.7" r="1.7"/>
	<circle fill="#FFFFFF" cx="49.1" cy="86.1" r="1.7"/>
	<circle fill="#FFFFFF" cx="65" cy="80.4" r="1.7"/>
	<circle fill="#FFFFFF" cx="68.7" cy="61.3" r="1.7"/>
	<circle fill="#FFFFFF" cx="68.7" cy="45.9" r="1.7"/>
	<circle fill="#FFFFFF" cx="56.9" cy="76.2" r="1.7"/>
</g>
</svg>
