<?xml version="1.0" encoding="UTF-8" standalone="no"?>
<svg
   xmlns:dc="http://purl.org/dc/elements/1.1/"
   xmlns:cc="http://creativecommons.org/ns#"
   xmlns:rdf="http://www.w3.org/1999/02/22-rdf-syntax-ns#"
   xmlns:svg="http://www.w3.org/2000/svg"
   xmlns="http://www.w3.org/2000/svg"
   xmlns:sodipodi="http://sodipodi.sourceforge.net/DTD/sodipodi-0.dtd"
   xmlns:inkscape="http://www.inkscape.org/namespaces/inkscape"
   version="1.1"
   id="Layer_1"
   x="0px"
   y="0px"
   viewBox="0 0 100 100"
   enable-background="new 0 0 100 100"
   xml:space="preserve"
   sodipodi:docname="Nogal (Nuez) color.svg"
   inkscape:version="1.0.1 (3bc2e813f5, 2020-09-07)"><metadata
   id="metadata11"><rdf:RDF><cc:Work
       rdf:about=""><dc:format>image/svg+xml</dc:format><dc:type
         rdf:resource="http://purl.org/dc/dcmitype/StillImage" /><dc:title></dc:title></cc:Work></rdf:RDF></metadata><defs
   id="defs9" /><sodipodi:namedview
   pagecolor="#ffffff"
   bordercolor="#666666"
   borderopacity="1"
   objecttolerance="10"
   gridtolerance="10"
   guidetolerance="10"
   inkscape:pageopacity="0"
   inkscape:pageshadow="2"
   inkscape:window-width="1920"
   inkscape:window-height="1017"
   id="namedview7"
   showgrid="false"
   inkscape:zoom="6.1376869"
   inkscape:cx="-7.507882"
   inkscape:cy="44.225825"
   inkscape:window-x="-8"
   inkscape:window-y="-8"
   inkscape:window-maximized="1"
   inkscape:current-layer="Layer_1" />
<g
   id="g4"
   transform="translate(-117.14511,1.1404948)">
	<path
   fill="#2C3136"
   d="m 92.7,64.6 c -0.1,-0.3 -0.3,-0.5 -0.4,-0.7 0.1,-0.1 0.1,-0.2 0.2,-0.4 0.3,-0.6 0.8,-1.4 1.4,-2.5 5,-9.7 4.3,-20.6 -1.8,-30.8 C 82.8,15 62.7,3.9 44.3,3.9 c 0,0 -0.1,0 -0.1,0 -13.2,0 -24.1,5 -30.8,14.4 -1.1,0.1 -2.2,0.4 -3.2,1.1 C 8.2,20.6 6.1,23.1 6.1,26 6,30 7.3,31.9 8.4,33.4 6.3,36.7 4.9,40.2 4,43.7 3.4,44.5 3.2,45.5 3.5,46.5 2.4,53.8 3.8,61.3 7.8,68.4 16.1,83.5 35.3,95 51.9,95 c 0.4,0 0.9,0 1.3,0 10.8,-0.4 19.3,-4.2 28.4,-12.5 0.7,-0.6 1,-1.5 0.9,-2.4 4.5,-0.7 8.3,-2.9 10.5,-6.2 1.5,-2.3 1.9,-4.6 1,-6.5 -0.5,-1.3 -1,-2.2 -1.3,-2.8 z M 53,89.1 C 38.2,89.6 20.6,79.3 12.9,65.6 11.5,63.1 10.3,60.2 9.6,56.9 c 4.5,6.2 9.6,10.8 15.6,14.2 0.5,0.3 0.9,0.4 1.4,0.4 1,0 2,-0.5 2.6,-1.5 C 30,68.6 29.5,66.8 28.1,66 20.6,61.8 14.7,55.3 9.6,45.7 c 0.5,-2.2 1.3,-4.6 2.5,-6.9 7.7,10.9 18.7,21.4 31,29.5 11.3,7.4 21.4,11.1 32.2,11.9 -3.2,2.7 -6.3,4.8 -9.6,6.2 0,0 0,0 -0.1,0 l -0.4,-0.1 c -5.6,-1.6 -15,-4.2 -19,-8 -1.2,-1.1 -3,-1.1 -4.2,0.1 -1.1,1.2 -1.1,3 0.1,4.2 3,2.9 7.6,5 12.2,6.6 C 53.9,89 53.5,89.1 53,89.1 Z M 79.6,74.4 C 68.3,74.4 58,71 46.3,63.3 33.2,54.7 21.6,43.2 14.4,31.7 c 0,0 0,0 0,0 0,0 0,0 0,0 C 14,31.1 13.7,30.6 13.3,30.2 12.4,29 11.9,28.4 12,26.1 c 0,-0.5 0.7,-1.3 1.2,-1.7 15.7,25.6 41.5,44.1 66,47.1 0.1,0 0.2,0 0.4,0 1.5,0 2.7,-1.1 2.9,-2.6 0.2,-1.6 -0.9,-3.1 -2.6,-3.3 -22.7,-2.8 -46.7,-20.1 -61.5,-44 1.3,-1.7 2.7,-3.3 4.3,-4.7 2.4,4.6 6.3,9.9 11.2,12.9 0.5,0.3 1,0.4 1.5,0.4 1,0 2,-0.5 2.5,-1.4 0.9,-1.4 0.4,-3.2 -1,-4 -3.9,-2.4 -7.3,-7.1 -9.4,-11.2 3,-1.6 6.3,-2.7 10,-3.3 4.9,7.2 10.9,15.1 20.1,19.6 0.4,0.2 0.9,0.3 1.3,0.3 1.1,0 2.1,-0.6 2.6,-1.6 0.7,-1.5 0.1,-3.2 -1.3,-3.9 -6.3,-3.1 -11,-8.1 -15.9,-15 16.2,0.1 34.6,10.2 42.7,23.6 1.7,2.8 3.3,6.3 4,10.3 -3.8,-1.8 -6.8,-3.9 -9.4,-6.5 -1.1,-1.2 -3,-1.2 -4.2,-0.1 -1.2,1.1 -1.2,3 -0.1,4.2 3.6,3.7 8.1,6.5 13.8,8.9 -0.3,2.3 -0.9,4.7 -2,7.2 C 82,54.9 74.4,50.5 69.7,45.9 c -1.2,-1.1 -3,-1.1 -4.2,0 -1.1,1.2 -1.1,3 0,4.2 5.2,5.1 13.1,9.8 20.8,12.5 -0.5,1.5 -0.1,2.6 0.9,4.6 0.3,0.6 0.7,1.3 1.1,2.4 0.1,1.2 -2.8,4.8 -8.7,4.8 z"
   id="path2" />
</g>
<path
   style="fill:#d38d5f;stroke:#000000;stroke-width:0.163184"
   d="M 48.726837,95.606539 C 42.802706,95.078754 35.732447,92.906173 29.908673,89.82401 20.244231,84.709219 12.566867,77.478633 7.8625977,69.060892 4.405961,62.875643 2.8260758,56.139592 3.3609076,49.86734 3.4684516,48.606116 3.5426688,47.157314 3.5258347,46.647782 3.5072817,46.086228 3.5915017,45.535185 3.7396714,45.248655 3.8741155,44.98867 4.3565941,43.645939 4.811846,42.264811 5.6219593,39.807115 7.0337327,36.642403 8.0354767,35.038534 L 8.5381801,34.233667 8.0514962,33.526296 C 6.8238096,31.741915 6.2739874,29.863744 6.2684944,27.435629 c -0.00453,-1.999842 0.2738431,-3.000816 1.238805,-4.454594 1.1746655,-1.769707 3.3894626,-3.327498 5.2034826,-3.659898 0.600444,-0.110025 0.890923,-0.265501 1.140495,-0.610439 0.866099,-1.197048 2.827176,-3.407563 3.886681,-4.381046 5.414474,-4.9748679 12.145699,-8.0047069 20.317106,-9.1450763 2.903138,-0.4051503 9.393059,-0.40315 12.301052,0.00379 9.106929,1.2744144 17.596901,4.4915267 25.416741,9.6311873 9.795032,6.437875 16.75074,14.818853 19.705477,23.743261 2.728965,8.242491 2.14734,15.69155 -1.832191,23.465542 l -1.394094,2.723352 0.427804,0.786014 c 0.807971,1.48451 1.586179,3.493085 1.687553,4.355616 0.285417,2.428459 -1.582041,5.729349 -4.488272,7.933401 -1.740822,1.320219 -4.221786,2.368528 -7.018916,2.96578 -0.332057,0.0709 -0.414963,0.195305 -0.448687,0.673266 -0.06721,0.952549 -0.425545,1.430252 -2.262459,3.016106 -7.611936,6.57158 -14.958242,10.002562 -23.520235,10.984767 -1.968201,0.225786 -6.113994,0.299173 -7.902,0.139879 z m 3.340021,-6.544863 c -4.141797,-1.651681 -7.229887,-3.374607 -9.251815,-5.161831 -1.721945,-1.522062 -1.985728,-3.18775 -0.717149,-4.528528 0.635583,-0.671757 1.211986,-0.922289 2.121924,-0.922289 0.855772,0 0.799647,-0.03095 3.448821,1.901938 2.046926,1.493478 5.399405,3.046882 9.607202,4.451594 2.823043,0.942431 7.951304,2.444571 8.345695,2.444571 0.417602,0 3.186101,-1.396424 4.728915,-2.385252 0.652456,-0.418176 1.910145,-1.317293 2.794864,-1.998038 0.884721,-0.680747 1.746202,-1.33831 1.914402,-1.461253 0.168202,-0.122943 0.30582,-0.277795 0.30582,-0.344115 0,-0.06632 -0.56821,-0.170691 -1.26269,-0.231935 C 64.002639,79.935819 53.602174,75.919415 42.704132,68.701131 31.384727,61.203756 20.657121,51.08846 13.053826,40.743204 l -0.949161,-1.291456 -0.306332,0.597105 c -0.586741,1.143673 -1.446708,3.429103 -1.8569688,4.935033 L 9.5283297,46.5 9.8852053,47.199534 c 0.1962807,0.384742 0.9260037,1.655431 1.6216047,2.823752 4.436353,7.451229 9.877163,13.035863 16.313886,16.745136 1.857776,1.070576 2.223183,2.988108 0.857481,4.499777 -0.629873,0.697192 -1.693076,1.089037 -2.483729,0.915381 C 25.574369,72.047388 23.152945,70.619728 21.309547,69.303467 17.308255,66.446381 13.599803,62.820611 10.593391,58.82623 10.0799,58.143997 9.6297009,57.615876 9.5929468,57.652631 c -0.1047999,0.1048 0.5505792,2.541293 1.1095702,4.125036 3.084619,8.739381 11.575698,17.717703 21.713478,22.959463 5.868477,3.034306 10.876135,4.568077 16.88109,5.170425 0.313636,0.03146 1.596692,0.06598 2.851237,0.07671 l 2.280989,0.01951 z M 82.932751,74.8669 c 1.531333,-0.391649 2.960673,-1.134783 4.027505,-2.093957 0.79671,-0.716312 1.439508,-1.716642 1.439508,-2.240182 0,-0.149404 -0.438876,-1.198066 -0.97528,-2.330362 -1.057903,-2.23313 -1.341746,-3.290306 -1.132506,-4.218044 0.07406,-0.328351 0.120368,-0.604327 0.102916,-0.613278 -0.01745,-0.0089 -0.948197,-0.375943 -2.068326,-0.815533 C 78.208949,60.154698 71.707532,56.259536 67.137682,52.257255 64.79366,50.204358 64.31897,49.060582 65.154039,47.477634 c 0.491969,-0.93257 1.369623,-1.444945 2.48126,-1.448564 0.982735,-0.0032 1.576288,0.35414 3.657043,2.201662 1.552433,1.37842 3.659561,2.913767 6.100138,4.44483 2.0228,1.268977 7.617678,4.044322 9.703861,4.81361 0.851298,0.31392 1.668842,0.617674 1.816766,0.67501 0.215721,0.08362 0.368386,-0.153592 0.771344,-1.198498 0.594035,-1.540385 1.246085,-3.980309 1.399497,-5.23682 l 0.109407,-0.896103 -1.763384,-0.774158 c -3.589223,-1.575737 -7.626656,-4.116232 -10.292066,-6.476131 -2.059838,-1.823739 -2.360217,-2.251553 -2.43515,-3.468275 -0.05282,-0.857578 -0.0036,-1.098778 0.322396,-1.57861 0.477597,-0.703068 1.294493,-1.265985 2.040186,-1.405878 0.963229,-0.180703 1.721826,0.17852 3.154276,1.493662 1.633094,1.499353 2.745306,2.361575 4.550872,3.527977 1.649017,1.065271 4.223792,2.475332 4.328594,2.37053 0.04092,-0.04092 -0.13911,-0.919801 -0.400066,-1.953069 C 87.84434,31.26555 77.39668,20.620561 63.227414,14.578338 57.504098,12.137736 49.544886,10.340718 45.33002,10.537493 l -1.115826,0.05209 1.666499,2.199525 c 2.272311,2.999105 3.888053,4.849411 6.01132,6.88401 2.567968,2.460726 4.362479,3.767037 7.90899,5.757331 1.467388,0.823494 1.917646,1.525515 1.835361,2.861606 -0.09827,1.595609 -1.16636,2.582043 -2.795785,2.582043 -0.553679,0 -1.073558,-0.180448 -2.139316,-0.742551 -3.491841,-1.841667 -6.288602,-3.978966 -9.777066,-7.471681 -2.828932,-2.832381 -4.933031,-5.365426 -7.657776,-9.218911 -1.266333,-1.790919 -1.807997,-2.434153 -2.003044,-2.378653 -0.147039,0.04184 -0.890542,0.198551 -1.65223,0.348247 -2.552698,0.501686 -8.146392,2.579276 -8.146392,3.025703 0,0.295619 1.908004,3.426727 3.0669,5.032898 1.504846,2.085642 4.266282,4.881767 5.824421,5.897583 1.370005,0.893165 1.736771,1.396684 1.829362,2.511453 0.140105,1.686865 -0.898282,2.854531 -2.636938,2.96524 -0.973623,0.062 -1.034574,0.04133 -2.2207,-0.752847 -3.475779,-2.327233 -6.608767,-5.804972 -9.367741,-10.398557 -0.57724,-0.961084 -1.07431,-1.821768 -1.104599,-1.912633 -0.124908,-0.374727 -2.007277,1.4687 -3.925352,3.844145 l -0.621338,0.769497 0.369768,0.61539 c 1.809037,3.010703 5.59788,8.195439 8.843615,12.1018 2.442973,2.940206 9.578495,10.101791 12.406581,12.451898 12.394913,10.300024 24.882927,16.42679 38.008569,18.647444 2.360927,0.399432 2.903124,0.544938 3.376751,0.90619 1.444505,1.101778 1.521622,2.92844 0.18026,4.269804 -0.964202,0.9642 -1.418645,1.012824 -4.586542,0.490733 C 60.550567,69.180523 43.886471,59.99255 29.735981,45.867498 23.943797,40.085727 19.807071,35.034897 15.287682,28.226524 c -1.115309,-1.680193 -2.093901,-3.054896 -2.174648,-3.054896 -0.08075,0 -0.367225,0.304271 -0.636618,0.676157 -0.428452,0.59146 -0.489805,0.812908 -0.489805,1.767894 0,1.276083 0.200397,1.953235 0.843758,2.851103 0.256838,0.358441 1.278533,1.851551 2.270431,3.318022 4.546087,6.721151 9.566636,12.584772 15.404233,17.990968 11.676452,10.813563 24.212136,18.573569 34.758979,21.51697 6.639387,1.852911 14.010943,2.509665 17.668739,1.574158 z"
   id="path840" /></svg>
