<?xml version="1.0" encoding="utf-8"?>
<!-- Generator: Adobe Illustrator 18.0.0, SVG Export Plug-In . SVG Version: 6.00 Build 0)  -->
<!DOCTYPE svg PUBLIC "-//W3C//DTD SVG 1.1//EN" "http://www.w3.org/Graphics/SVG/1.1/DTD/svg11.dtd">
<svg version="1.1" id="Layer_1" xmlns="http://www.w3.org/2000/svg" xmlns:xlink="http://www.w3.org/1999/xlink" x="0px" y="0px"
	 viewBox="0 0 100 100" enable-background="new 0 0 100 100" xml:space="preserve">
<g>
	<path fill="#FFFFFF" d="M92.7,64.6c-0.1-0.3-0.3-0.5-0.4-0.7c0.1-0.1,0.1-0.2,0.2-0.4c0.3-0.6,0.8-1.4,1.4-2.5
		c5-9.7,4.3-20.6-1.8-30.8C82.8,15,62.7,3.9,44.3,3.9c0,0-0.1,0-0.1,0C31,3.9,20.1,8.9,13.4,18.3c-1.1,0.1-2.2,0.4-3.2,1.1
		c-2,1.2-4.1,3.7-4.1,6.6c-0.1,4,1.2,5.9,2.3,7.4C6.3,36.7,4.9,40.2,4,43.7c-0.6,0.8-0.8,1.8-0.5,2.8c-1.1,7.3,0.3,14.8,4.3,21.9
		C16.1,83.5,35.3,95,51.9,95c0.4,0,0.9,0,1.3,0c10.8-0.4,19.3-4.2,28.4-12.5c0.7-0.6,1-1.5,0.9-2.4c4.5-0.7,8.3-2.9,10.5-6.2
		c1.5-2.3,1.9-4.6,1-6.5C93.5,66.1,93,65.2,92.7,64.6z M53,89.1c-14.8,0.5-32.4-9.8-40.1-23.5c-1.4-2.5-2.6-5.4-3.3-8.7
		c4.5,6.2,9.6,10.8,15.6,14.2c0.5,0.3,0.9,0.4,1.4,0.4c1,0,2-0.5,2.6-1.5c0.8-1.4,0.3-3.2-1.1-4c-7.5-4.2-13.4-10.7-18.5-20.3
		c0.5-2.2,1.3-4.6,2.5-6.9c7.7,10.9,18.7,21.4,31,29.5c11.3,7.4,21.4,11.1,32.2,11.9c-3.2,2.7-6.3,4.8-9.6,6.2c0,0,0,0-0.1,0
		l-0.4-0.1c-5.6-1.6-15-4.2-19-8c-1.2-1.1-3-1.1-4.2,0.1c-1.1,1.2-1.1,3,0.1,4.2c3,2.9,7.6,5,12.2,6.6C53.9,89,53.5,89.1,53,89.1z
		 M79.6,74.4C68.3,74.4,58,71,46.3,63.3c-13.1-8.6-24.7-20.1-31.9-31.6c0,0,0,0,0,0c0,0,0,0,0,0c-0.4-0.6-0.7-1.1-1.1-1.5
		c-0.9-1.2-1.4-1.8-1.3-4.1c0-0.5,0.7-1.3,1.2-1.7c15.7,25.6,41.5,44.1,66,47.1c0.1,0,0.2,0,0.4,0c1.5,0,2.7-1.1,2.9-2.6
		c0.2-1.6-0.9-3.1-2.6-3.3c-22.7-2.8-46.7-20.1-61.5-44c1.3-1.7,2.7-3.3,4.3-4.7c2.4,4.6,6.3,9.9,11.2,12.9c0.5,0.3,1,0.4,1.5,0.4
		c1,0,2-0.5,2.5-1.4c0.9-1.4,0.4-3.2-1-4c-3.9-2.4-7.3-7.1-9.4-11.2c3-1.6,6.3-2.7,10-3.3c4.9,7.2,10.9,15.1,20.1,19.6
		c0.4,0.2,0.9,0.3,1.3,0.3c1.1,0,2.1-0.6,2.6-1.6c0.7-1.5,0.1-3.2-1.3-3.9c-6.3-3.1-11-8.1-15.9-15c16.2,0.1,34.6,10.2,42.7,23.6
		c1.7,2.8,3.3,6.3,4,10.3c-3.8-1.8-6.8-3.9-9.4-6.5c-1.1-1.2-3-1.2-4.2-0.1c-1.2,1.1-1.2,3-0.1,4.2c3.6,3.7,8.1,6.5,13.8,8.9
		c-0.3,2.3-0.9,4.7-2,7.2c-7.1-2.4-14.7-6.8-19.4-11.4c-1.2-1.1-3-1.1-4.2,0c-1.1,1.2-1.1,3,0,4.2c5.2,5.1,13.1,9.8,20.8,12.5
		c-0.5,1.5-0.1,2.6,0.9,4.6c0.3,0.6,0.7,1.3,1.1,2.4C88.4,70.8,85.5,74.4,79.6,74.4z"/>
</g>
</svg>
