<?xml version="1.0" encoding="utf-8"?>
<!-- Generator: Adobe Illustrator 18.0.0, SVG Export Plug-In . SVG Version: 6.00 Build 0)  -->
<!DOCTYPE svg PUBLIC "-//W3C//DTD SVG 1.1//EN" "http://www.w3.org/Graphics/SVG/1.1/DTD/svg11.dtd">
<svg version="1.1" id="Layer_1" xmlns="http://www.w3.org/2000/svg" xmlns:xlink="http://www.w3.org/1999/xlink" x="0px" y="0px"
	 viewBox="0 0 100 100" enable-background="new 0 0 100 100" xml:space="preserve">
<g>
	<path fill="#2C3136" d="M43.6,2.9c-0.7,0.2-1.3,0.6-1.7,1.3l-4.1,7.6L27.3,9.2c-0.8-0.2-1.5,0-2.2,0.4c-0.6,0.5-1,1.2-1,2
		l-0.5,11.8l-8.2,4.9c-0.6,0.4-1,0.9-1.2,1.6s-0.1,1.3,0.3,2l5,8.3l-5.7,13.2c-0.6,1.3,0,2.8,1.3,3.4l10.4,4.9L24.8,73
		c0,0.8,0.3,1.5,0.8,2c0.6,0.5,1.3,0.8,2.1,0.7l11.8-1.6l4.3,10.1c0.3,0.7,1,1.3,1.8,1.5c0.8,0.2,1.6,0,2.3-0.5l8.8-7.1l10.4,4.9
		c0.5,0.2,1.1,0.2,1.6,0.1c2.4,5.9,6.7,11,10.7,13.5c1.2,0.8,2.8,0.4,3.6-0.8c0.8-1.2,0.4-2.8-0.8-3.6C78.4,89.9,72.8,83,72,75.7
		l1.3-5.1l8.6,0c0.7,0,1.5-0.3,1.9-0.9c0.5-0.6,0.7-1.3,0.6-2l-1.7-12.4l5.9-5.4c1-0.9,1.1-2.5,0.3-3.5l-7.3-9L84.4,26
		c0.3-1.4-0.5-2.8-1.9-3.1l-11-2.7l-2.2-9.7c-0.3-1.4-1.7-2.3-3.1-2l-10.1,2.3L45.7,3.3C45.1,2.9,44.4,2.7,43.6,2.9z M41.5,16
		l3.6-6.8l8.9,6.4c0.6,0.4,1.4,0.6,2.1,0.4l8.8-2l2,8.8c0.2,1,0.9,1.7,1.9,1.9l10,2.5l-2.5,10c-0.2,0.8,0,1.6,0.5,2.3l6.6,8.1
		l-5.1,4.6c-0.6,0.6-0.9,1.4-0.8,2.3L79,65.5l-7.7,0c-1.2,0-2.2,0.8-2.5,2l-2.4,9.5l-9.1-4.3c-0.9-0.4-2-0.3-2.7,0.3l-7.3,6
		l-3.7-8.7c-0.5-1.1-1.6-1.7-2.7-1.6l-10.7,1.5l0.5-10.1c0-1-0.5-2-1.5-2.5l-9.7-4.6l5.3-12.1c0.1-0.1,0.1-0.3,0.1-0.4
		c0.2-0.7,0.1-1.4-0.3-2l-4.3-7.2l7.2-4.3c0.7-0.4,1.2-1.2,1.2-2.1l0.5-10l9.5,2.4C39.8,17.6,41,17.1,41.5,16z"/>
	<path fill="#2C3136" d="M36.6,21.6l-0.4,7.9c0,0.9-0.5,1.6-1.2,2.1L30.9,34l2.4,4c0.4,0.7,0.5,1.6,0.2,2.4l-3.9,8.9l7.5,3.6
		c0.9,0.4,1.5,1.4,1.5,2.5l-0.3,5.9l7.4-1c1.2-0.2,2.3,0.5,2.7,1.6l2,4.7l3.1-2.5c0.8-0.6,1.8-0.8,2.7-0.3l7.8,3.7
		c1.3,0.6,1.8,2.2,1.2,3.4c-0.6,1.3-2.1,1.8-3.4,1.2l-6.3-3L51,72.6c-0.6,0.5-1.5,0.7-2.3,0.5c-0.8-0.2-1.4-0.8-1.8-1.5l-2.5-6
		l-8.5,1.2c-0.8,0.1-1.5-0.1-2.1-0.7c-0.6-0.5-0.9-1.3-0.8-2l0.3-7.3l-8.2-3.9c-1.3-0.6-1.8-2.1-1.3-3.4l4.3-10l-3-5
		c-0.4-0.6-0.5-1.3-0.3-2c0.2-0.7,0.6-1.2,1.2-1.6l5.1-3.1l0.3-6.5c0.1-1.4,1.3-2.5,2.7-2.5C35.5,19,36.6,20.2,36.6,21.6z"/>
	<path fill="#2C3136" d="M61.9,19.9l-0.6,13.2c0,0.9-0.5,1.7-1.2,2.1c-0.7,0.4-1.7,0.5-2.4,0.1l-11.9-5.6c-1.1-0.5-1.7-1.8-1.4-3
		c0-0.2,0.1-0.3,0.2-0.5c0.6-1.3,2.1-1.8,3.4-1.2l8.4,4l0.4-9.3c0.1-1.4,1.3-2.5,2.7-2.5C60.8,17.3,62,18.5,61.9,19.9z"/>
	<path fill="#2C3136" d="M46.7,38.5c0.1-1.4,1.3-2.5,2.7-2.5s2.5,1.3,2.5,2.7l-0.6,13.2c0,0.9-0.5,1.6-1.2,2.1
		c-0.7,0.4-1.7,0.5-2.4,0.1l-11.9-5.6c-1.1-0.5-1.7-1.8-1.4-3c0-0.2,0.1-0.3,0.2-0.5c0.6-1.3,2.1-1.8,3.4-1.2l8.4,4L46.7,38.5z"/>
	<path fill="#2C3136" d="M55.7,53.5c-1.1-0.5-1.7-1.8-1.4-3c0-0.2,0.1-0.3,0.2-0.5c0.6-1.3,2.1-1.8,3.4-1.2l8.4,4l0.4-9.3
		c0.1-1.4,1.3-2.5,2.7-2.5c1.4,0.1,2.5,1.3,2.5,2.7l-0.6,13.2c0,0.9-0.5,1.6-1.2,2.1c-0.7,0.4-1.7,0.5-2.4,0.1L55.7,53.5z"/>
</g>
</svg>
