<?xml version="1.0" encoding="UTF-8" standalone="no"?>
<svg
   xmlns:dc="http://purl.org/dc/elements/1.1/"
   xmlns:cc="http://creativecommons.org/ns#"
   xmlns:rdf="http://www.w3.org/1999/02/22-rdf-syntax-ns#"
   xmlns:svg="http://www.w3.org/2000/svg"
   xmlns="http://www.w3.org/2000/svg"
   xmlns:sodipodi="http://sodipodi.sourceforge.net/DTD/sodipodi-0.dtd"
   xmlns:inkscape="http://www.inkscape.org/namespaces/inkscape"
   version="1.1"
   id="Layer_1"
   x="0px"
   y="0px"
   viewBox="0 0 100 100"
   enable-background="new 0 0 100 100"
   xml:space="preserve"
   sodipodi:docname="Palma de Aceite color.svg"
   inkscape:version="1.0.1 (3bc2e813f5, 2020-09-07)"><metadata
   id="metadata19"><rdf:RDF><cc:Work
       rdf:about=""><dc:format>image/svg+xml</dc:format><dc:type
         rdf:resource="http://purl.org/dc/dcmitype/StillImage" /><dc:title></dc:title></cc:Work></rdf:RDF></metadata><defs
   id="defs17" /><sodipodi:namedview
   pagecolor="#ffffff"
   bordercolor="#666666"
   borderopacity="1"
   objecttolerance="10"
   gridtolerance="10"
   guidetolerance="10"
   inkscape:pageopacity="0"
   inkscape:pageshadow="2"
   inkscape:window-width="1920"
   inkscape:window-height="1017"
   id="namedview15"
   showgrid="false"
   inkscape:zoom="4.34"
   inkscape:cx="-24.710791"
   inkscape:cy="75.434762"
   inkscape:window-x="-8"
   inkscape:window-y="-8"
   inkscape:window-maximized="1"
   inkscape:current-layer="Layer_1" />
<g
   id="g12">
	<path
   fill="#2c3136"
   d="m -47.759447,-0.21059908 c -0.7,0.2 -1.3,0.6 -1.7,1.29999998 l -4.1,7.6 -10.5,-2.6 c -0.8,-0.2 -1.5,0 -2.2,0.4 -0.6,0.5 -1,1.2 -1,2 l -0.5,11.8000001 -8.2,4.9 c -0.6,0.4 -1,0.9 -1.2,1.6 -0.2,0.7 -0.1,1.3 0.3,2 l 5,8.3 -5.7,13.2 c -0.6,1.3 0,2.8 1.3,3.4 l 10.4,4.9 -0.7,11.3 c 0,0.8 0.3,1.5 0.8,2 0.6,0.5 1.3,0.8 2.1,0.7 l 11.8,-1.6 4.3,10.1 c 0.3,0.7 1,1.3 1.8,1.5 0.8,0.2 1.6,0 2.3,-0.5 l 8.8,-7.1 10.4,4.9 c 0.5,0.2 1.1,0.2 1.6,0.1 2.4,5.9 6.7,11 10.7,13.5 1.2,0.8 2.8,0.4 3.6,-0.8 0.8,-1.2 0.4,-2.8 -0.8,-3.6 -3.8,-2.3 -9.4,-9.2 -10.2,-16.5 l 1.3,-5.1 h 8.6 c 0.7,0 1.5,-0.3 1.9,-0.9 0.5,-0.6 0.7,-1.3 0.6,-2 l -1.7,-12.4 5.9,-5.4 c 1,-0.9 1.1,-2.5 0.3,-3.5 l -7.3,-9 2.8,-11.4 c 0.3,-1.4 -0.5,-2.8 -1.9,-3.1 l -11,-2.7 -2.2,-9.7000001 c -0.3,-1.4 -1.7,-2.3 -3.1,-2 l -10.1,2.3 -10.4,-7.49999998 c -0.6,-0.4 -1.3,-0.6 -2.1,-0.4 z m -2.1,13.10000008 3.6,-6.8000001 8.9,6.4000001 c 0.6,0.4 1.4,0.6 2.1,0.4 l 8.8,-2 2,8.8 c 0.2,1 0.9,1.7 1.9,1.9 l 10,2.5 -2.5,10 c -0.2,0.8 0,1.6 0.5,2.3 l 6.6,8.1 -5.1,4.6 c -0.6,0.6 -0.9,1.4 -0.8,2.3 l 1.5,11 h -7.7 c -1.2,0 -2.2,0.8 -2.5,2 l -2.4,9.5 -9.1,-4.3 c -0.9,-0.4 -2,-0.3 -2.7,0.3 l -7.3,6 -3.7,-8.7 c -0.5,-1.1 -1.6,-1.7 -2.7,-1.6 l -10.7,1.5 0.5,-10.1 c 0,-1 -0.5,-2 -1.5,-2.5 l -9.7,-4.6 5.3,-12.1 c 0.1,-0.1 0.1,-0.3 0.1,-0.4 0.2,-0.7 0.1,-1.4 -0.3,-2 l -4.3,-7.2 7.2,-4.3 c 0.7,-0.4 1.2,-1.2 1.2,-2.1 l 0.5,-10 9.5,2.4 c 1.1,0.3 2.3,-0.2 2.8,-1.3 z"
   id="path2" />
	<path
   fill="#2C3136"
   d="M36.6,21.6l-0.4,7.9c0,0.9-0.5,1.6-1.2,2.1L30.9,34l2.4,4c0.4,0.7,0.5,1.6,0.2,2.4l-3.9,8.9l7.5,3.6   c0.9,0.4,1.5,1.4,1.5,2.5l-0.3,5.9l7.4-1c1.2-0.2,2.3,0.5,2.7,1.6l2,4.7l3.1-2.5c0.8-0.6,1.8-0.8,2.7-0.3l7.8,3.7   c1.3,0.6,1.8,2.2,1.2,3.4c-0.6,1.3-2.1,1.8-3.4,1.2l-6.3-3L51,72.6c-0.6,0.5-1.5,0.7-2.3,0.5c-0.8-0.2-1.4-0.8-1.8-1.5l-2.5-6   l-8.5,1.2c-0.8,0.1-1.5-0.1-2.1-0.7c-0.6-0.5-0.9-1.3-0.8-2l0.3-7.3l-8.2-3.9c-1.3-0.6-1.8-2.1-1.3-3.4l4.3-10l-3-5   c-0.4-0.6-0.5-1.3-0.3-2c0.2-0.7,0.6-1.2,1.2-1.6l5.1-3.1l0.3-6.5c0.1-1.4,1.3-2.5,2.7-2.5C35.5,19,36.6,20.2,36.6,21.6z"
   id="path4" />
	<path
   fill="#2C3136"
   d="M61.9,19.9l-0.6,13.2c0,0.9-0.5,1.7-1.2,2.1c-0.7,0.4-1.7,0.5-2.4,0.1l-11.9-5.6c-1.1-0.5-1.7-1.8-1.4-3   c0-0.2,0.1-0.3,0.2-0.5c0.6-1.3,2.1-1.8,3.4-1.2l8.4,4l0.4-9.3c0.1-1.4,1.3-2.5,2.7-2.5C60.8,17.3,62,18.5,61.9,19.9z"
   id="path6" />
	<path
   fill="#2C3136"
   d="M46.7,38.5c0.1-1.4,1.3-2.5,2.7-2.5s2.5,1.3,2.5,2.7l-0.6,13.2c0,0.9-0.5,1.6-1.2,2.1   c-0.7,0.4-1.7,0.5-2.4,0.1l-11.9-5.6c-1.1-0.5-1.7-1.8-1.4-3c0-0.2,0.1-0.3,0.2-0.5c0.6-1.3,2.1-1.8,3.4-1.2l8.4,4L46.7,38.5z"
   id="path8" />
	<path
   fill="#2C3136"
   d="M55.7,53.5c-1.1-0.5-1.7-1.8-1.4-3c0-0.2,0.1-0.3,0.2-0.5c0.6-1.3,2.1-1.8,3.4-1.2l8.4,4l0.4-9.3   c0.1-1.4,1.3-2.5,2.7-2.5c1.4,0.1,2.5,1.3,2.5,2.7l-0.6,13.2c0,0.9-0.5,1.6-1.2,2.1c-0.7,0.4-1.7,0.5-2.4,0.1L55.7,53.5z"
   id="path10" />
</g>
<path
   style="fill:#beb7c8;stroke:#000000;stroke-width:0.115389"
   d="m 77.583847,97.305711 c -0.990401,-0.315586 -3.233744,-2.089842 -5.027081,-3.975907 -2.156881,-2.26841 -4.050564,-5.023432 -5.490109,-7.987283 l -0.880021,-1.811857 -0.660954,-0.0027 c -0.617669,-0.0025 -0.99114,-0.158165 -5.702765,-2.377156 -2.772996,-1.305973 -5.177988,-2.444551 -5.344426,-2.530175 -0.296578,-0.152573 -0.390817,-0.08431 -4.723502,3.421424 -2.431489,1.967408 -4.680104,3.701678 -4.996924,3.853935 -0.978868,0.470422 -1.891591,0.332554 -2.7395,-0.413806 -0.498226,-0.438556 -0.624507,-0.699975 -2.740197,-5.672599 -1.219846,-2.86707 -2.235874,-5.234676 -2.257841,-5.261348 -0.02197,-0.02667 -2.800376,0.32451 -6.174242,0.7804 -4.515521,0.610156 -6.227286,0.801557 -6.486656,0.725308 -0.597033,-0.175516 -1.038047,-0.448541 -1.411412,-0.87378 -0.658435,-0.749916 -0.662695,-0.840195 -0.315657,-6.689425 0.172933,-2.914747 0.322724,-5.545843 0.332868,-5.846881 l 0.01844,-0.547338 -5.351518,-2.521428 c -3.48625,-1.642586 -5.483006,-2.646538 -5.72876,-2.880371 -0.558412,-0.531326 -0.774368,-1.017275 -0.773634,-1.740846 5.81e-4,-0.573437 0.281519,-1.282752 2.956833,-7.465444 l 2.956191,-6.831802 -2.654584,-4.412613 c -2.848568,-4.735067 -2.916849,-4.888274 -2.631999,-5.90566 0.254403,-0.908635 0.786423,-1.312108 5.200879,-3.94423 l 4.111657,-2.451577 0.06151,-0.594568 c 0.03383,-0.327012 0.164533,-3.119958 0.290448,-6.206545 0.206903,-5.071858 0.250588,-5.65398 0.453896,-6.048387 0.460919,-0.89416 1.256568,-1.4084476 2.186257,-1.4131415 0.275626,-0.00139 2.915015,0.5939695 5.865306,1.3230235 2.95029,0.729055 5.375561,1.312292 5.38949,1.296083 0.01393,-0.01621 0.918129,-1.688457 2.009334,-3.7161067 1.091206,-2.0276498 2.117659,-3.8843261 2.281008,-4.1259476 0.635347,-0.9397925 1.951844,-1.3446969 2.944476,-0.9056089 0.295887,0.1308849 2.844177,1.9011693 5.662866,3.9339653 2.818689,2.0327959 5.195876,3.7232319 5.282637,3.7565259 0.08676,0.03329 2.451877,-0.460621 5.255811,-1.097588 2.803936,-0.6369663 5.301443,-1.1581209 5.550016,-1.1581209 0.877695,0 1.855294,0.6485758 2.205512,1.4632189 0.103493,0.240736 0.685777,2.639706 1.293966,5.331044 0.608188,2.691339 1.117878,4.905423 1.132643,4.920188 0.01476,0.01477 2.590988,0.652793 5.724938,1.417838 6.321702,1.543224 6.371639,1.56193 6.897358,2.583501 0.205215,0.398768 0.287473,0.735847 0.280885,1.15102 -0.0053,0.335216 -0.610335,3.008849 -1.410181,6.231725 -0.770477,3.10454 -1.386553,5.70786 -1.36906,5.785156 0.01749,0.0773 1.653086,2.137339 3.634647,4.577871 1.981561,2.440533 3.718229,4.63272 3.859263,4.871526 0.360727,0.610799 0.352328,1.640598 -0.01871,2.293504 -0.210089,0.369696 -4.473384,4.426676 -6.225535,5.924262 -0.202781,0.17332 -0.179493,0.404665 0.637826,6.336406 0.46656,3.386085 0.849055,6.378517 0.849988,6.64985 0.002,0.591217 -0.196691,1.101573 -0.628208,1.613341 -0.661407,0.78441 -0.543893,0.767445 -5.756985,0.831115 l -4.716384,0.0576 -0.615955,2.419355 c -0.338777,1.330645 -0.616088,2.637802 -0.616248,2.904793 -4.61e-4,0.686141 0.539001,3.007213 0.984486,4.236214 1.611469,4.445708 5.104679,9.2766 8.3556,11.555273 1.520753,1.065945 1.973752,1.687705 1.983044,2.721816 0.01459,1.624144 -1.689422,2.924586 -3.201041,2.442915 z M 48.339852,76.612903 c 1.886933,-1.55242 3.62327,-2.965721 3.858527,-3.140672 0.512024,-0.380768 1.330674,-0.556878 1.94599,-0.418627 0.244728,0.05499 2.531466,1.085832 5.08164,2.290766 2.550174,1.204934 4.649364,2.177694 4.664866,2.161688 0.0155,-0.016 0.581815,-2.206519 1.258475,-4.86781 0.676661,-2.66129 1.308843,-5.005982 1.404848,-5.210426 0.24245,-0.516297 0.97099,-1.144582 1.496404,-1.290481 0.271236,-0.07532 1.97675,-0.122479 4.443638,-0.122874 3.027283,-4.61e-4 4.003456,-0.03421 4.003456,-0.138313 0,-0.07572 -0.340831,-2.629001 -0.757402,-5.673963 -0.482672,-3.528138 -0.731651,-5.700878 -0.686409,-5.990037 0.03905,-0.24956 0.180255,-0.648153 0.313798,-0.885763 0.135195,-0.240547 1.413272,-1.486441 2.883739,-2.811125 1.611529,-1.451761 2.618068,-2.438686 2.582278,-2.531954 -0.03226,-0.08407 -1.531519,-1.958769 -3.331689,-4.166006 -1.80017,-2.207237 -3.359642,-4.180756 -3.465492,-4.385598 -0.429343,-0.830857 -0.396412,-1.053501 0.954965,-6.456419 0.701689,-2.805412 1.275797,-5.16486 1.275797,-5.243218 0,-0.09189 -1.856115,-0.605771 -5.228247,-1.447483 -2.875536,-0.717757 -5.387862,-1.402079 -5.582947,-1.520718 -0.746617,-0.454044 -0.865871,-0.797134 -1.979017,-5.693536 -0.575766,-2.532631 -1.062056,-4.61999 -1.080644,-4.638578 -0.01859,-0.01859 -2.088913,0.43346 -4.600724,1.004551 -2.51181,0.571091 -4.740261,1.038347 -4.952112,1.038347 -0.211851,0 -0.614325,-0.116648 -0.894384,-0.259217 -0.368595,-0.187639 -7.857583,-5.481589 -9.280443,-6.5603256 -0.09006,-0.068281 -0.714346,1.0046936 -2.005312,3.4466026 -1.030996,1.950163 -1.957169,3.656955 -2.058164,3.792871 -0.342537,0.460973 -0.925561,0.77029 -1.544741,0.819542 -0.479446,0.03814 -1.56151,-0.19413 -5.479868,-1.176269 -2.685351,-0.673085 -4.903096,-1.203151 -4.928323,-1.177924 -0.02523,0.02523 -0.166105,2.398974 -0.313061,5.274994 -0.282856,5.535646 -0.307008,5.705483 -0.9012,6.337194 -0.156036,0.165888 -1.955522,1.297464 -3.998859,2.514613 -2.718935,1.619581 -3.697792,2.25825 -3.650399,2.381753 0.03562,0.09282 1.061303,1.838544 2.279304,3.879396 2.187018,3.664514 2.215103,3.71995 2.259261,4.459489 l 0.04471,0.748848 -2.718315,6.20106 c -1.495074,3.410583 -2.718316,6.238432 -2.718316,6.28411 0,0.04568 2.241121,1.143451 4.980269,2.439494 5.404967,2.55739 5.652415,2.711825 6.010594,3.751305 0.183624,0.532901 0.180371,0.848205 -0.05963,5.777545 -0.139619,2.867635 -0.231992,5.235744 -0.205273,5.262463 0.02672,0.02672 2.406855,-0.284285 5.28919,-0.691119 2.882335,-0.406833 5.462608,-0.740091 5.733941,-0.740573 0.895064,-0.0016 1.797189,0.564515 2.219855,1.393007 0.18079,0.354379 1.45949,3.334783 3.643855,8.493125 0.08906,0.210319 0.206672,0.365849 0.261354,0.345622 0.05468,-0.02023 1.643277,-1.306938 3.530212,-2.859357 z"
   id="path844" /><path
   style="fill:#beb7c8;stroke:#000000;stroke-width:0.115389"
   d="m 51.900922,32.50446 c -6.996107,-3.286605 -7.048844,-3.318421 -7.378144,-4.451173 -0.236846,-0.81472 -0.145892,-1.390651 0.332303,-2.104184 0.489086,-0.729784 1.197475,-1.117166 2.03432,-1.112464 0.580686,0.0033 1.002661,0.179585 5.049281,2.109833 2.428602,1.158449 4.438065,2.083847 4.465472,2.05644 0.02741,-0.02741 0.145052,-2.222397 0.261434,-4.877754 0.199282,-4.546816 0.226614,-4.857279 0.469407,-5.332105 0.651816,-1.274735 2.008493,-1.828761 3.176065,-1.297009 0.59665,0.271735 1.280295,1.034938 1.432122,1.598783 0.08793,0.326532 0.03267,2.328707 -0.208462,7.553951 l -0.328099,7.10966 -0.333134,0.545896 c -0.246446,0.403843 -0.495754,0.62834 -0.95807,0.862717 -1.159797,0.587975 -0.938862,0.661374 -8.014495,-2.662591 z"
   id="path846" /><path
   style="fill:#beb7c8;stroke:#000000;stroke-width:0.115389"
   d="m 48.773985,73.051729 c -0.529097,-0.133403 -1.126024,-0.533891 -1.472156,-0.987692 -0.166889,-0.218803 -0.868211,-1.751916 -1.558495,-3.406916 -0.690283,-1.655001 -1.278986,-3.03302 -1.30823,-3.062264 -0.02925,-0.02924 -1.912666,0.212184 -4.185382,0.536507 -2.272716,0.324324 -4.393282,0.592804 -4.712371,0.596623 -0.700141,0.0084 -1.369015,-0.303464 -1.866708,-0.870305 -0.627052,-0.714172 -0.648079,-0.90677 -0.50351,-4.611896 0.07198,-1.844745 0.140743,-3.612559 0.152809,-3.928477 l 0.02194,-0.574397 -4.199741,-1.997337 c -2.309858,-1.098536 -4.362925,-2.12177 -4.562372,-2.273854 -0.511692,-0.390181 -0.879963,-1.208387 -0.879963,-1.955059 0,-0.536624 0.264884,-1.225477 2.205398,-5.735307 1.212969,-2.818989 2.205398,-5.187728 2.205398,-5.263867 0,-0.07614 -0.738767,-1.364792 -1.641705,-2.863675 l -1.641705,-2.725242 0.0049,-0.748847 c 0.0092,-1.395736 0.265158,-1.65631 3.619282,-3.684358 1.496083,-0.904595 2.606903,-1.650176 2.660489,-1.785714 0.0506,-0.127981 0.150385,-1.658385 0.221748,-3.400896 0.07136,-1.742512 0.18727,-3.363008 0.257569,-3.601104 0.279042,-0.945083 1.407112,-1.816348 2.344937,-1.811113 0.958329,0.0053 2.048075,0.814794 2.424728,1.801045 0.183198,0.479698 0.182933,0.76461 -0.0044,4.739347 -0.137314,2.913374 -0.252252,4.396455 -0.369467,4.767356 -0.240776,0.761885 -0.807971,1.228961 -3.123568,2.572211 -1.092319,0.63364 -1.986443,1.187764 -1.986944,1.231384 -4.95e-4,0.04362 0.550419,0.996073 1.224264,2.116559 1.315157,2.186876 1.588801,2.839649 1.495516,3.567534 -0.0327,0.255125 -0.965622,2.528761 -2.073168,5.052524 l -2.013719,4.58866 1.63356,0.780321 c 6.594494,3.150067 6.772664,3.254582 7.171496,4.206796 0.224651,0.536359 0.2311,1.220373 0.04381,4.646969 -0.07043,1.288552 -0.110895,2.355814 -0.08992,2.371692 0.02097,0.01588 1.645273,-0.193351 3.609559,-0.464953 4.797483,-0.66335 4.92952,-0.660638 5.792441,0.11896 0.379505,0.34286 0.618228,0.807555 1.574211,3.064328 1.018967,2.405458 1.144939,2.64481 1.315592,2.499666 1.296137,-1.102395 3.24889,-2.568728 3.667347,-2.753832 0.915136,-0.404808 1.178255,-0.319054 5.840973,1.90366 2.33776,1.114408 4.377656,2.144863 4.533102,2.2899 1.05714,0.98635 0.975811,2.87436 -0.161178,3.741583 -0.539427,0.411441 -1.385554,0.621548 -1.972217,0.489734 -0.252319,-0.05669 -1.923769,-0.802933 -3.714332,-1.658314 l -3.255569,-1.555237 -2.317098,1.808347 c -1.274403,0.994592 -2.498549,1.898754 -2.720323,2.009252 -0.498003,0.248126 -1.207564,0.34054 -1.686844,0.219698 z"
   id="path848" /><path
   style="fill:#beb7c8;stroke:#000000;stroke-width:0.115389"
   d="M 47.753456,54.046309 C 43.955644,52.304903 35.568544,48.29476 35.294052,48.089067 c -0.529113,-0.396498 -0.885211,-1.208406 -0.877743,-2.001265 0.01436,-1.524362 1.479923,-2.732896 2.921374,-2.409023 0.259227,0.05824 2.387202,1.018077 4.728832,2.132962 2.341629,1.114884 4.286828,1.997743 4.322662,1.961908 0.03584,-0.03584 0.134783,-2.154693 0.219884,-4.708572 0.08705,-2.612285 0.212448,-4.852238 0.286682,-5.120805 0.183815,-0.665012 0.736481,-1.289202 1.425586,-1.610082 1.340741,-0.624312 2.652922,-0.07508 3.296204,1.379666 l 0.247399,0.559478 -0.308229,6.871398 c -0.169526,3.779268 -0.355687,7.05782 -0.413691,7.285669 -0.367618,1.444038 -2.032946,2.237952 -3.389556,1.615908 z"
   id="path850" /><path
   style="fill:#beb7c8;stroke:#000000;stroke-width:0.115389"
   d="m 68.202765,59.225521 c -0.15841,-0.05237 -3.087558,-1.399158 -6.509217,-2.99287 -5.569466,-2.5941 -6.270159,-2.950245 -6.688565,-3.399635 -0.961562,-1.032768 -0.979247,-2.269636 -0.04759,-3.328059 0.569764,-0.647285 1.265325,-0.940577 2.039372,-0.859925 0.399411,0.04162 1.744002,0.626797 4.927195,2.144369 l 4.37788,2.087135 0.07265,-0.948637 c 0.03996,-0.52175 0.135276,-2.607623 0.211818,-4.635272 0.162049,-4.292762 0.229759,-4.667757 0.977931,-5.415929 1.097785,-1.097784 2.651093,-1.03702 3.62608,0.141848 0.702518,0.849425 0.698157,0.743654 0.345737,8.38468 -0.19116,4.144656 -0.371932,7.050627 -0.451471,7.257554 -0.209549,0.54515 -0.66918,1.078204 -1.134289,1.315486 -0.512581,0.261499 -1.349423,0.38086 -1.747535,0.249255 z"
   id="path852" /></svg>
