<?xml version="1.0" encoding="UTF-8" standalone="no"?>
<svg
   xmlns:dc="http://purl.org/dc/elements/1.1/"
   xmlns:cc="http://creativecommons.org/ns#"
   xmlns:rdf="http://www.w3.org/1999/02/22-rdf-syntax-ns#"
   xmlns:svg="http://www.w3.org/2000/svg"
   xmlns="http://www.w3.org/2000/svg"
   xmlns:sodipodi="http://sodipodi.sourceforge.net/DTD/sodipodi-0.dtd"
   xmlns:inkscape="http://www.inkscape.org/namespaces/inkscape"
   version="1.1"
   id="Layer_1"
   x="0px"
   y="0px"
   viewBox="0 0 100 100"
   enable-background="new 0 0 100 100"
   xml:space="preserve"
   sodipodi:docname="Papa color.svg"
   inkscape:version="1.0.1 (3bc2e813f5, 2020-09-07)"><metadata
   id="metadata33"><rdf:RDF><cc:Work
       rdf:about=""><dc:format>image/svg+xml</dc:format><dc:type
         rdf:resource="http://purl.org/dc/dcmitype/StillImage" /><dc:title></dc:title></cc:Work></rdf:RDF></metadata><defs
   id="defs31" /><sodipodi:namedview
   pagecolor="#ffffff"
   bordercolor="#666666"
   borderopacity="1"
   objecttolerance="10"
   gridtolerance="10"
   guidetolerance="10"
   inkscape:pageopacity="0"
   inkscape:pageshadow="2"
   inkscape:window-width="1920"
   inkscape:window-height="1017"
   id="namedview29"
   showgrid="false"
   inkscape:zoom="8.5"
   inkscape:cx="33.982792"
   inkscape:cy="50"
   inkscape:window-x="-8"
   inkscape:window-y="-8"
   inkscape:window-maximized="1"
   inkscape:current-layer="Layer_1" />
<g
   id="g26"
   transform="translate(-100.82353,2.9411765)">
	<path
   fill="#2c3136"
   d="M 78.1,21.6 C 65.8,9.3 50.4,2.8 36.7,2.8 27.3,2.8 18.6,5.9 12.3,12.2 -3.3,27.8 0.9,57.3 21.7,78 34,90.4 49.4,96.9 63.1,96.9 c 9.4,0 18.1,-3.1 24.4,-9.4 15.6,-15.6 11.4,-45.1 -9.4,-65.9 z m -52,52 C 7.8,55.3 3.6,29.7 16.7,16.6 c 5,-5 11.9,-7.6 20,-7.6 12.5,0 26.4,6.3 37,17 18.3,18.3 22.5,43.9 9.4,57 -5,5 -11.9,7.6 -20,7.6 -12.5,0 -26.4,-6.4 -37,-17 z"
   id="path2" />
	<path
   fill="#2c3136"
   d="m 84.4,59.2 c 0,0 -0.1,0 0,0 -1.8,0 -3.2,1.5 -3.1,3.2 0.1,5.8 -1.5,10.6 -4.8,13.9 -4,4 -9.4,4.8 -13.3,4.8 C 53,81.2 41.7,75.9 32.8,67 24.2,58.4 18.8,47.3 18.6,37.4 c 0,-1.7 -1.6,-3 -3.2,-3.1 -1.7,0 -3.1,1.5 -3.1,3.2 0.3,11.5 6.3,24.2 16.1,33.9 10.1,10.1 23.1,16.1 34.8,16.1 5.1,0 12.3,-1.2 17.8,-6.7 4.5,-4.5 6.8,-10.9 6.7,-18.5 -0.2,-1.7 -1.6,-3.1 -3.3,-3.1 z"
   id="path4" />
	<path
   fill="#2c3136"
   d="m 31.1,24.7 c 0.8,0 1.6,-0.3 2.2,-0.9 l 3.1,-3.1 c 1.2,-1.2 1.2,-3.2 0,-4.4 -1.2,-1.2 -3.2,-1.2 -4.4,0 l -3.1,3.1 c -1.2,1.2 -1.2,3.2 0,4.4 0.6,0.6 1.4,0.9 2.2,0.9 z"
   id="path6" />
	<path
   fill="#2c3136"
   d="m 27.9,40.4 c 0.8,0 1.6,-0.3 2.2,-0.9 l 3.1,-3.1 c 1.2,-1.2 1.2,-3.2 0,-4.4 C 32,30.8 30,30.8 28.8,32 l -3.1,3.1 c -1.2,1.2 -1.2,3.2 0,4.4 0.6,0.6 1.4,0.9 2.2,0.9 z"
   id="path8" />
	<path
   fill="#2c3136"
   d="m 49.9,27.9 c 0.8,0 1.6,-0.3 2.2,-0.9 l 3.1,-3.1 c 1.2,-1.2 1.2,-3.2 0,-4.4 -1.2,-1.2 -3.2,-1.2 -4.4,0 l -3.1,3.1 c -1.2,1.2 -1.2,3.2 0,4.4 0.6,0.6 1.4,0.9 2.2,0.9 z"
   id="path10" />
	<path
   fill="#2c3136"
   d="m 65.6,37.3 c 0.8,0 1.6,-0.3 2.2,-0.9 l 3.1,-3.1 c 1.2,-1.2 1.2,-3.2 0,-4.4 -1.2,-1.2 -3.2,-1.2 -4.4,0 L 63.4,32 c -1.2,1.2 -1.2,3.2 0,4.4 0.6,0.6 1.4,0.9 2.2,0.9 z"
   id="path12" />
	<path
   fill="#2c3136"
   d="m 72.8,52 c 0.6,0.6 1.4,0.9 2.2,0.9 0.8,0 1.6,-0.3 2.2,-0.9 l 3.1,-3.1 c 1.2,-1.2 1.2,-3.2 0,-4.4 -1.2,-1.2 -3.2,-1.2 -4.4,0 l -3.1,3.1 c -1.3,1.2 -1.3,3.2 0,4.4 z"
   id="path14" />
	<path
   fill="#2c3136"
   d="m 66.5,63.3 -3.1,3.1 c -1.2,1.2 -1.2,3.2 0,4.4 0.6,0.6 1.4,0.9 2.2,0.9 0.8,0 1.6,-0.3 2.2,-0.9 l 3.1,-3.1 c 1.2,-1.2 1.2,-3.2 0,-4.4 -1.2,-1.2 -3.2,-1.2 -4.4,0 z"
   id="path16" />
	<path
   fill="#2c3136"
   d="M 35.1,50.7 32,53.9 c -1.2,1.2 -1.2,3.2 0,4.4 0.6,0.6 1.4,0.9 2.2,0.9 0.8,0 1.6,-0.3 2.2,-0.9 l 3.1,-3.1 c 1.2,-1.2 1.2,-3.2 0,-4.4 -1.2,-1.3 -3.1,-1.3 -4.4,-0.1 z"
   id="path18" />
	<path
   fill="#2c3136"
   d="m 47.7,63.3 -3.1,3.1 c -1.2,1.2 -1.2,3.2 0,4.4 0.6,0.6 1.4,0.9 2.2,0.9 0.8,0 1.6,-0.3 2.2,-0.9 l 3.1,-3.1 c 1.2,-1.2 1.2,-3.2 0,-4.4 -1.2,-1.2 -3.2,-1.2 -4.4,0 z"
   id="path20" />
	<path
   fill="#2c3136"
   d="m 43.6,46.7 c 0.8,0 1.6,-0.3 2.2,-0.9 l 6.3,-6.3 c 1.2,-1.2 1.2,-3.2 0,-4.4 -1.2,-1.2 -3.2,-1.2 -4.4,0 l -6.3,6.3 c -1.2,1.2 -1.2,3.2 0,4.4 0.6,0.6 1.4,0.9 2.2,0.9 z"
   id="path22" />
	<path
   fill="#2c3136"
   d="m 53.9,58.3 c 0.6,0.6 1.4,0.9 2.2,0.9 0.8,0 1.6,-0.3 2.2,-0.9 L 64.6,52 c 1.2,-1.2 1.2,-3.2 0,-4.4 -1.2,-1.2 -3.2,-1.2 -4.4,0 l -6.3,6.3 c -1.2,1.2 -1.2,3.2 0,4.4 z"
   id="path24" />
</g>
<path
   style="fill:#803300;stroke:#ffffff;stroke-width:0.117647"
   d="M 59.882353,96.51457 C 52.586599,95.868293 45.975937,93.957021 39.189946,90.531988 32.936985,87.375987 27.592031,83.514797 22.261255,78.302719 16.457437,72.62813 12.129671,66.740464 8.7197983,59.880375 5.745,53.895584 4.0152709,48.313353 3.161097,41.941177 2.8041644,39.278444 2.7743113,33.868297 3.1033206,31.470588 3.8226904,26.228062 5.2725758,21.893647 7.6345601,17.924504 10.000805,13.948199 13.845818,10.063624 17.837902,7.6161767 24.609761,3.4645183 33.224866,1.8406801 42.321922,3.0012483 56.792292,4.8473232 71.559857,13.385546 82.145955,26.026473 c 8.220427,9.816061 13.31158,21.333327 14.385446,32.542925 0.202085,2.109477 0.227545,5.947237 0.05242,7.90119 -1.069007,11.927165 -7.335913,21.524622 -17.271831,26.450954 -3.559358,1.764768 -7.116056,2.825713 -11.342163,3.383315 -1.373948,0.18128 -6.815541,0.322384 -8.087474,0.209713 z m 4.825628,-6.159132 c 2.984171,-0.158604 5.212108,-0.524051 7.606888,-1.247754 10.189738,-3.079343 16.747819,-11.163473 18.115988,-22.331533 0.254404,-2.076654 0.247902,-6.176007 -0.01325,-8.353009 -0.259639,-2.16437 -0.57516,-3.893402 -1.072312,-5.876176 C 87.296235,44.374761 83.078799,36.478841 76.884492,29.217742 75.24384,27.294534 71.901107,23.948937 70,22.32735 61.12892,14.760587 51.026884,10.128412 40.764706,8.9218317 38.834512,8.6948883 33.942061,8.7284026 32.117647,8.9810658 26.728184,9.7274532 22.098546,11.641541 18.352941,14.671977 c -1.15611,0.935368 -3.056216,2.903489 -3.983056,4.125633 -2.702847,3.564007 -4.3795201,7.729447 -5.1484817,12.790625 -0.2510884,1.652623 -0.3454958,6.240639 -0.1685535,8.19137 0.8192296,9.031729 4.6938782,18.512235 10.9657832,26.831123 2.575634,3.416252 6.528984,7.617044 9.628426,10.231074 9.632719,8.124112 20.786083,12.946255 31.235294,13.504539 0.905882,0.0484 1.673529,0.09489 1.705882,0.103316 0.03235,0.0084 0.986239,-0.03398 2.119746,-0.09422 z"
   id="path858" /><path
   style="fill:#803300;stroke:#ffffff;stroke-width:0.117647"
   d="M 59.823529,87.283333 C 51.508584,86.425185 42.904501,82.890725 35.2324,77.181573 30.672413,73.788285 26.175042,69.335133 22.811051,64.882353 20.197675,61.423132 17.808849,57.351753 16.13985,53.512338 13.897045,48.352921 12.476862,42.462431 12.428227,38.117647 c -0.01468,-1.310938 0.01178,-1.523393 0.2437,-1.956994 1.050836,-1.964674 3.3209,-2.333962 4.902858,-0.797584 0.760238,0.738334 0.911608,1.190119 1.021189,3.047891 0.524534,8.892585 4.792769,18.219795 12.113602,26.471393 5.899895,6.650001 13.758146,11.935573 21.494916,14.457787 6.493432,2.116881 13.137328,2.398704 18.089626,0.767328 5.639856,-1.857868 9.332381,-6.135875 10.591358,-12.27071 0.202249,-0.985532 0.334417,-2.18691 0.428569,-3.895582 0.119728,-2.172848 0.168567,-2.536087 0.405261,-3.014087 0.959476,-1.937651 3.686189,-2.197611 5.09795,-0.486029 0.200196,0.242711 0.474884,0.732469 0.610418,1.088352 0.225572,0.5923 0.240293,0.80138 0.17396,2.470588 -0.389286,9.795884 -4.803473,17.139947 -12.54281,20.867988 -2.642717,1.272998 -5.221922,2.002113 -8.352942,2.361294 -1.693144,0.194232 -5.25317,0.222191 -6.882353,0.05405 z"
   id="path860" /><path
   style="fill:#803300;stroke:#ffffff;stroke-width:0.117647"
   d="m 73.888655,52.620264 c -0.298474,-0.10538 -0.75851,-0.420091 -1.071291,-0.732872 -0.944292,-0.944292 -1.176973,-2.256683 -0.599143,-3.379346 0.127168,-0.247072 1.149209,-1.354182 2.271202,-2.460243 1.715216,-1.69086 2.132292,-2.042043 2.61977,-2.205882 0.714553,-0.240159 1.150124,-0.245152 1.898866,-0.02177 1.76454,0.526438 2.644193,2.649207 1.765685,4.260931 -0.214092,0.392776 -1.009268,1.277685 -2.229724,2.481339 -1.583377,1.561578 -1.992804,1.903103 -2.476742,2.065978 -0.710849,0.239244 -1.486156,0.236349 -2.178623,-0.0081 z"
   id="path862" /><path
   style="fill:#803300;stroke:#ffffff;stroke-width:0.117647"
   d="m 64.822768,71.544138 c -0.938095,-0.30763 -1.851626,-1.17576 -2.096178,-1.992002 -0.205744,-0.686713 -0.1639,-1.542591 0.104642,-2.140371 0.287835,-0.640726 3.804884,-4.2367 4.521709,-4.62318 0.66821,-0.360268 2.037958,-0.358154 2.722654,0.0042 1.468933,0.777392 2.055588,2.606145 1.311026,4.086805 -0.33522,0.66663 -3.62554,3.962131 -4.349085,4.355933 -0.621513,0.33827 -1.676184,0.485231 -2.214768,0.308613 z"
   id="path864" /><path
   style="fill:#803300;stroke:#ffffff;stroke-width:0.117647"
   d="m 55.470588,59.072013 c -1.954487,-0.510781 -2.963787,-2.60959 -2.078274,-4.321707 0.132389,-0.25597 1.827828,-2.037389 3.862991,-4.05889 3.933411,-3.907009 3.942734,-3.913975 5.214889,-3.896284 2.09036,0.02907 3.437075,2.036715 2.747352,4.095675 -0.170582,0.509223 -0.617911,1.006378 -3.675726,4.085154 -3.678294,3.703508 -4.076762,4.020995 -5.188879,4.134335 -0.291176,0.02968 -0.688235,0.01245 -0.882353,-0.03828 z"
   id="path866" /><path
   style="fill:#803300;stroke:#ffffff;stroke-width:0.117647"
   d="m 45.999238,71.544138 c -0.833438,-0.27331 -1.539555,-0.873731 -1.95432,-1.661785 -0.301071,-0.572037 -0.300418,-2.018293 0.0012,-2.588235 0.301996,-0.570715 3.777065,-4.066181 4.424501,-4.450471 0.705848,-0.41896 2.036693,-0.446452 2.764706,-0.05711 1.375457,0.735592 2.002218,2.253321 1.526869,3.697376 -0.183435,0.557253 -0.443477,0.871592 -2.154715,2.60461 -1.232484,1.24817 -2.132686,2.061196 -2.454928,2.217191 -0.553075,0.267739 -1.68253,0.3928 -2.153282,0.238426 z"
   id="path868" /><path
   style="fill:#803300;stroke:#ffffff;stroke-width:0.117647"
   d="m 33.378056,59.01519 c -1.767615,-0.49429 -2.688736,-2.493361 -1.914803,-4.155619 0.343489,-0.737746 3.739188,-4.273229 4.476878,-4.661167 0.640104,-0.33662 1.929077,-0.351308 2.577916,-0.02938 0.587904,0.291698 1.174255,0.879408 1.507074,1.510567 0.373119,0.707587 0.36719,1.94134 -0.01285,2.673346 -0.406148,0.782297 -3.812848,4.16031 -4.503939,4.466012 -0.727129,0.321644 -1.44525,0.387796 -2.130278,0.196237 z"
   id="path870" /><path
   style="fill:#803300;stroke:#ffffff;stroke-width:0.117647"
   d="m 42.261155,46.284971 c -0.69345,-0.345562 -1.137111,-0.819125 -1.470607,-1.569725 -0.32121,-0.72295 -0.237722,-1.906601 0.184674,-2.618207 0.434664,-0.732275 6.96409,-7.188777 7.583225,-7.498533 0.729797,-0.365119 1.405788,-0.424506 2.200924,-0.193354 1.7649,0.51307 2.687811,2.639939 1.846937,4.256306 -0.130583,0.251014 -1.815085,2.02814 -3.745343,3.951284 -2.574785,2.565295 -3.648863,3.558307 -4.037436,3.732711 -0.776893,0.348692 -1.789219,0.324796 -2.562374,-0.06048 z"
   id="path872" /><path
   style="fill:#803300;stroke:#ffffff;stroke-width:0.117647"
   d="m 26.941176,40.172167 c -1.720458,-0.534213 -2.580037,-2.666092 -1.71492,-4.253248 0.214092,-0.392776 1.009268,-1.277685 2.229724,-2.481339 1.583377,-1.561578 1.992804,-1.903103 2.476742,-2.065978 2.058206,-0.692711 4.069529,0.691603 4.066129,2.798556 -0.0019,1.184461 -0.293712,1.625806 -2.544089,3.84791 -1.801314,1.778681 -2.043064,1.976553 -2.623174,2.147058 -0.764504,0.224703 -1.184384,0.226267 -1.890412,0.007 z"
   id="path874" /><path
   style="fill:#803300;stroke:#ffffff;stroke-width:0.117647"
   d="m 30.025302,24.44038 c -0.557689,-0.1787 -1.369191,-0.939342 -1.658277,-1.554347 -0.330516,-0.703141 -0.333286,-1.805408 -0.0064,-2.533092 0.326337,-0.726386 3.712308,-4.138041 4.521695,-4.555992 1.099368,-0.567692 2.390203,-0.380443 3.331848,0.483321 0.979891,0.898845 1.265334,2.235963 0.73383,3.437516 -0.342739,0.774819 -3.693866,4.163825 -4.528603,4.579792 -0.636375,0.317119 -1.65964,0.378154 -2.394126,0.142802 z"
   id="path876" /><path
   style="fill:#803300;stroke:#ffffff;stroke-width:0.117647"
   d="m 49.141027,27.71907 c -1.350784,-0.373886 -2.272337,-1.58398 -2.243616,-2.946098 0.0083,-0.392781 0.10619,-0.925913 0.217573,-1.184737 0.302649,-0.70327 3.832329,-4.240504 4.590898,-4.600722 1.092996,-0.519025 2.520535,-0.30076 3.397233,0.519422 0.852063,0.797136 1.146024,2.344175 0.652271,3.432724 -0.315086,0.694651 -3.717803,4.146712 -4.464921,4.529667 -0.696822,0.357176 -1.446577,0.44429 -2.149438,0.249744 z"
   id="path880" /><path
   style="fill:#803300;stroke:#ffffff;stroke-width:0.117647"
   d="m 65.058824,37.181761 c -1.034222,-0.205047 -1.920514,-0.951824 -2.29575,-1.934366 -0.286261,-0.749565 -0.192093,-1.880672 0.213649,-2.566242 0.457312,-0.772707 3.80691,-4.033284 4.437018,-4.319097 0.687393,-0.311797 1.872097,-0.323168 2.530046,-0.02428 1.372351,0.623415 2.06868,2.155658 1.645769,3.621445 -0.186563,0.646617 -0.319385,0.809652 -2.216231,2.720363 -1.235534,1.244565 -2.200715,2.117696 -2.489667,2.252226 -0.56901,0.264918 -1.267082,0.360535 -1.824834,0.249953 z"
   id="path882" /></svg>
