<?xml version="1.0" encoding="UTF-8" standalone="no"?>
<svg
   xmlns:dc="http://purl.org/dc/elements/1.1/"
   xmlns:cc="http://creativecommons.org/ns#"
   xmlns:rdf="http://www.w3.org/1999/02/22-rdf-syntax-ns#"
   xmlns:svg="http://www.w3.org/2000/svg"
   xmlns="http://www.w3.org/2000/svg"
   xmlns:sodipodi="http://sodipodi.sourceforge.net/DTD/sodipodi-0.dtd"
   xmlns:inkscape="http://www.inkscape.org/namespaces/inkscape"
   version="1.1"
   id="Layer_1"
   x="0px"
   y="0px"
   viewBox="0 0 100 100"
   enable-background="new 0 0 100 100"
   xml:space="preserve"
   sodipodi:docname="Papaya color.svg"
   inkscape:version="1.0.1 (3bc2e813f5, 2020-09-07)"><metadata
   id="metadata71"><rdf:RDF><cc:Work
       rdf:about=""><dc:format>image/svg+xml</dc:format><dc:type
         rdf:resource="http://purl.org/dc/dcmitype/StillImage" /><dc:title></dc:title></cc:Work></rdf:RDF></metadata><defs
   id="defs69" /><sodipodi:namedview
   pagecolor="#ffffff"
   bordercolor="#666666"
   borderopacity="1"
   objecttolerance="10"
   gridtolerance="10"
   guidetolerance="10"
   inkscape:pageopacity="0"
   inkscape:pageshadow="2"
   inkscape:window-width="1920"
   inkscape:window-height="1017"
   id="namedview67"
   showgrid="false"
   inkscape:zoom="3.0688434"
   inkscape:cx="-113.84102"
   inkscape:cy="81.579904"
   inkscape:window-x="-8"
   inkscape:window-y="-8"
   inkscape:window-maximized="1"
   inkscape:current-layer="Layer_1" />
<g
   id="g64"
   transform="translate(-99.654378,-1.2672811)">
	<path
   fill="#2c3136"
   d="m 93.6,60.6 v 0 C 93.5,60.4 86.7,51.9 85,43.2 84.7,40.7 81.2,12.8 49.4,3.9 H 49.2 C 49,3.9 44.3,3 38.6,3 34.5,2.8 31,3.3 28,4.2 28,4.2 25.3,5 22.7,5 21.8,5 20.9,4.9 20.3,4.7 19.8,4.5 18.6,4.1 16.9,4.1 14.8,4.1 11.6,4.8 8.3,8 2.8,13.5 4.6,18.9 5,20 5.8,22.5 4.9,26.4 4.5,27.7 1.7,36.5 4,48.4 4.1,48.9 v 0.2 c 8.9,31.7 36.8,35.3 39.3,35.6 8.7,1.8 17.3,8.5 17.3,8.6 l 0.1,0.1 c 4.5,3.4 9.7,3.6 11.1,3.6 0.2,0 0.3,0 0.3,0 9.2,-0.6 15.6,-7.3 16.5,-8.3 1.1,-1 7.8,-7.4 8.3,-16.6 0.2,-0.4 0.4,-6.4 -3.4,-11.5 z M 92.4,71.7 C 91.9,79.4 85.7,85 85.6,85 l -0.2,0.2 c -0.1,0.1 -5.6,6.3 -13.2,6.8 h -0.1 c -0.8,0 -4.8,-0.1 -8.2,-2.6 -0.8,-0.6 -9.8,-7.7 -19.5,-9.6 h -0.3 c -0.3,0 -26.8,-2.2 -35.2,-32 -0.2,-1.1 -2,-11.4 0.3,-18.7 0.2,-0.6 2,-6.4 0.5,-10.8 L 9.6,18.1 C 9.5,17.8 8.4,14.8 11.8,11.4 13.4,9.8 15.1,9 16.9,9 c 0.9,0 1.5,0.2 1.5,0.2 v 0 l 0.3,0.1 c 1.2,0.4 2.5,0.6 4,0.6 3.4,0 6.6,-1 6.8,-1.1 2.4,-0.8 5.5,-1.2 9.1,-1.2 4.8,0 8.9,0.7 9.6,0.8 29.7,8.4 31.9,34.1 32,35.2 v 0.3 c 1.9,9.7 9,18.7 9.6,19.5 2.7,3.8 2.6,8.3 2.6,8.3 z"
   id="path2" />
	<path
   fill="#2c3136"
   d="M 74.7,60.1 C 73.8,59 69.3,53 68,46.3 V 45.9 C 68,45.7 66.7,29.7 48.5,24.5 H 48.3 C 47.6,24.4 45.2,24 42.5,24 c -2.1,0 -4,0.2 -5.4,0.7 -0.4,0.1 -2.6,0.8 -5.1,0.8 -1.2,0 -2.3,-0.2 -3.3,-0.5 L 28.1,24.8 27.6,25 c -0.5,0.1 -0.9,0.5 -1.4,0.9 -0.5,0.5 -0.8,1 -0.9,1.4 l -0.2,0.5 0.2,0.6 C 26.5,32 25.1,36.3 25,36.8 23.6,41.1 24.8,47.7 24.8,48 v 0.2 C 30,66.1 45.6,67.6 46.2,67.7 l 0.4,0.1 c 6.7,1.3 12.6,5.8 13.8,6.7 1.6,1.1 3.5,1.3 4,1.3 h 0.1 0.1 c 3.8,-0.3 6.6,-3.2 7.2,-3.7 l 0.4,-0.4 c 0.4,-0.3 3.5,-3.3 3.8,-7.2 v -0.1 -0.1 c 0.1,-0.5 0,-2.5 -1.3,-4.2 z m -4.5,9.1 -0.5,0.4 -0.2,0.3 c -0.4,0.4 -2.5,2.4 -4.9,2.7 -0.5,0 -1.5,-0.2 -2.1,-0.6 -1.2,-1 -7.7,-5.9 -15.1,-7.3 L 47,64.5 h -0.5 c -0.6,0 -14,-1.4 -18.6,-17.1 -0.4,-2.1 -0.8,-6.7 0.1,-9.6 0.3,-0.9 1.6,-5.3 0.6,-9.5 1.1,0.3 2.2,0.4 3.4,0.4 2.9,0 5.4,-0.7 6.1,-1 1.1,-0.3 2.6,-0.5 4.4,-0.5 2.3,0 4.4,0.3 5.2,0.4 15.8,4.6 17.1,18 17.1,18.5 v 0.3 l 0.1,0.5 c 1.5,7.4 6.4,13.9 7.3,15.1 0.5,0.7 0.7,1.7 0.7,2.1 -0.3,2.7 -2.5,4.9 -2.7,5.1 z"
   id="path4" />
	<circle
   fill="#2c3136"
   cx="34.400002"
   cy="33.700001"
   r="2.5"
   id="circle6" />
	<circle
   fill="#2c3136"
   cx="32.799999"
   cy="39.5"
   r="2.5"
   id="circle8" />
	<circle
   fill="#2c3136"
   cx="38.700001"
   cy="38.700001"
   r="2.5"
   id="circle10" />
	<circle
   fill="#2c3136"
   cx="45"
   cy="37.900002"
   r="2.5"
   id="circle12" />
	<circle
   fill="#2c3136"
   cx="51"
   cy="40.299999"
   r="2.5"
   id="circle14" />
	<circle
   fill="#2c3136"
   cx="53.799999"
   cy="45.799999"
   r="2.5"
   id="circle16" />
	<circle
   fill="#2c3136"
   cx="49.099998"
   cy="48.799999"
   r="2.5"
   id="circle18" />
	<circle
   fill="#2c3136"
   cx="56.200001"
   cy="51.700001"
   r="2.5"
   id="circle20" />
	<circle
   fill="#2c3136"
   cx="58.299999"
   cy="57.700001"
   r="2.5"
   id="circle22" />
	<circle
   fill="#2c3136"
   cx="51.400002"
   cy="55.200001"
   r="2.5"
   id="circle24" />
	<circle
   fill="#2c3136"
   cx="45.5"
   cy="53.599998"
   r="2.5"
   id="circle26" />
	<circle
   fill="#2c3136"
   cx="45.5"
   cy="44"
   r="2.5"
   id="circle28" />
	<circle
   fill="#2c3136"
   cx="32.799999"
   cy="45.700001"
   r="2.5"
   id="circle30" />
	<circle
   fill="#2c3136"
   cx="38.700001"
   cy="44.5"
   r="2.5"
   id="circle32" />
	<circle
   fill="#2c3136"
   cx="35.299999"
   cy="52"
   r="2.5"
   id="circle34" />
	<circle
   fill="#2c3136"
   cx="41"
   cy="49.900002"
   r="2.5"
   id="circle36" />
	<circle
   fill="#2c3136"
   cx="39.400002"
   cy="57"
   r="2.5"
   id="circle38" />
	<circle
   fill="#2c3136"
   cx="45.200001"
   cy="59.5"
   r="2.5"
   id="circle40" />
	<circle
   fill="#2c3136"
   cx="51.200001"
   cy="60.900002"
   r="2.5"
   id="circle42" />
	<circle
   fill="#2c3136"
   cx="57.200001"
   cy="63.299999"
   r="2.5"
   id="circle44" />
	<circle
   fill="#2c3136"
   cx="62.700001"
   cy="66.800003"
   r="2.5"
   id="circle46" />
	<circle
   fill="#2c3136"
   cx="67.099998"
   cy="61.900002"
   r="2.5"
   id="circle48" />
	<circle
   fill="#2c3136"
   cx="64.199997"
   cy="56.299999"
   r="2.5"
   id="circle50" />
	<circle
   fill="#2c3136"
   cx="62"
   cy="50.200001"
   r="2.5"
   id="circle52" />
	<circle
   fill="#2c3136"
   cx="59.700001"
   cy="43.5"
   r="2.5"
   id="circle54" />
	<circle
   fill="#2c3136"
   cx="56.799999"
   cy="37.900002"
   r="2.5"
   id="circle56" />
	<circle
   fill="#2c3136"
   cx="52.099998"
   cy="34.400002"
   r="2.5"
   id="circle58" />
	<circle
   fill="#2c3136"
   cx="46.099998"
   cy="32.200001"
   r="2.5"
   id="circle60" />
	<circle
   fill="#2c3136"
   cx="40.299999"
   cy="32.200001"
   r="2.5"
   id="circle62" />
</g>
<path
   style="fill:#80b3ff;stroke:#000000;stroke-width:0.115389"
   d="M 68.940325,97.284842 C 65.511885,96.719581 62.625421,95.476336 60.230932,93.533573 59.282582,92.76413 56.26887,90.764869 54.712214,89.872519 50.206019,87.289349 46.070553,85.691956 42.230029,85.051065 39.296758,84.561572 36.759676,83.894045 33.983734,82.8814 21.495474,78.325766 12.098249,69.504021 6.7235828,57.29064 3.9367227,50.957784 3.0613327,46.543838 3.0574665,38.805119 3.05521,34.288333 3.3338782,31.927696 4.2474652,28.724474 5.2628631,25.164281 5.4427728,22.274586 4.7780951,20.201551 3.9500465,17.618985 4.1526834,15.075235 5.3931803,12.480234 6.9545228,9.2140547 10.267371,6.2820523 13.585907,5.2293439 c 2.065865,-0.6553351 3.927676,-0.6686045 6.046761,-0.043096 1.187606,0.3505556 1.373424,0.3733943 2.994293,0.368023 1.954689,-0.00648 3.007843,-0.1660147 5.645161,-0.855158 3.810852,-0.9957931 6.347887,-1.2300918 11.347926,-1.0479963 5.678029,0.2067872 8.966909,0.6329069 11.693549,1.5150609 12.48008,4.0376992 21.754608,11.3672525 27.768835,21.9453935 2.686212,4.724652 4.6639,10.315871 5.521675,15.610599 0.447478,2.762113 1.099784,4.924633 2.31128,7.662343 1.516749,3.427511 3.202494,6.249685 6.674509,11.174062 1.759442,2.495424 2.834255,5.457593 3.178175,8.759046 0.21967,2.108624 -0.22057,5.207022 -1.12867,7.943658 -0.880294,2.652835 -2.732264,5.895485 -4.79003,8.386959 -1.138036,1.377892 -4.004418,4.213966 -5.30571,5.249606 -3.225675,2.567168 -6.98301,4.402526 -10.670156,5.212085 -1.398784,0.307121 -4.565151,0.400466 -5.93318,0.174913 z m 5.645161,-5.069247 c 4.037415,-0.992416 7.587345,-3.191431 11.296057,-6.997378 2.113836,-2.169258 3.426624,-4.015477 4.617494,-6.493743 1.179856,-2.455345 1.705255,-4.535153 1.702554,-6.739632 -0.002,-1.641697 -0.199952,-2.769877 -0.809264,-4.612445 -0.524644,-1.586533 -0.973054,-2.374381 -2.843235,-4.995513 -3.276694,-4.592416 -5.83762,-9.393612 -7.318973,-13.721535 -0.604429,-1.765896 -1.128247,-3.906432 -1.226387,-5.01152 -0.203419,-2.29054 -1.184942,-6.116763 -2.308141,-8.99771 C 73.877084,24.851844 66.890081,17.251285 57.280671,12.438486 53.790345,10.690383 49.285357,9.089804 46.842672,8.7299659 43.755785,8.2752288 41.285159,8.1309357 37.661523,8.1937548 c -4.198648,0.072787 -5.65222,0.2670491 -8.410698,1.1240424 -2.023887,0.6287737 -3.786323,0.9232218 -5.961855,0.9960398 -2.171943,0.0727 -3.110614,-0.02661 -4.673608,-0.4944312 -2.263632,-0.6775349 -4.464171,-0.1596582 -6.388115,1.5033842 -2.6370942,2.279484 -3.7145732,5.209675 -2.7839072,7.570794 0.5604792,1.421946 0.7311562,4.335874 0.395095,6.745334 -0.168947,1.211301 -0.295794,1.770717 -1.130678,4.986477 -0.669412,2.578404 -0.827535,4.144212 -0.826027,8.179724 0.0026,7.008923 0.671934,10.494983 3.1057302,16.175899 2.284064,5.33141 5.288396,9.806368 9.213714,13.723841 3.823491,3.81585 8.226258,6.763979 13.297861,8.904356 2.875659,1.213619 7.031878,2.390269 9.428874,2.669371 4.816929,0.560872 10.902351,3.102973 17.003816,7.103108 1.001492,0.656579 2.21981,1.493509 2.707373,1.859843 1.990166,1.49532 3.102138,2.098055 4.918738,2.666161 2.428154,0.759358 4.773034,0.862091 7.02765,0.307897 z"
   id="path896" /><path
   style="fill:#80b3ff;stroke:#000000;stroke-width:0.115389"
   d="M 62.615207,75.418877 C 61.477825,75.076603 60.974578,74.805676 59.389401,73.682245 57.466418,72.319407 55.982333,71.415721 54.087181,70.45363 51.066105,68.919954 48.882766,68.175054 45.502288,67.524685 35.669013,65.632866 28.447694,59.156182 25.256269,49.366359 24.951896,48.432681 24.795193,47.663434 24.66099,46.444165 c -0.446836,-4.059653 -0.348753,-6.734221 0.3455,-9.421177 0.96054,-3.717559 1.077954,-6.276513 0.390163,-8.503322 l -0.234087,-0.757884 0.356265,-0.746487 c 0.271681,-0.569255 0.520312,-0.879223 1.047218,-1.305562 1.013844,-0.82034 1.268361,-0.870022 2.617617,-0.510962 0.95667,0.254586 1.362424,0.297664 2.843984,0.301938 1.847452,0.0053 3.321008,-0.214072 5.189082,-0.772614 1.684594,-0.503684 2.487061,-0.592238 5.352392,-0.590649 3.581609,0.002 5.340734,0.222653 7.48848,0.939368 8.199752,2.736305 14.185163,8.525838 16.820751,16.270277 0.509683,1.49766 1.036297,3.772229 1.03654,4.477066 2.31e-4,0.585321 0.470841,2.477802 0.975834,3.923922 1.188408,3.403176 2.638213,6.029135 5.879486,10.649225 1.805537,2.573602 1.500391,5.813509 -0.870559,9.24321 -0.658105,0.951983 -2.609241,2.895193 -3.85433,3.838675 -0.989665,0.749931 -3.078632,1.785161 -4.096465,2.030086 -1.066992,0.256754 -2.290292,0.223582 -3.333654,-0.0904 z M 65.237358,72.5224 c 1.443595,-0.340362 2.908917,-1.249005 4.484581,-2.780877 1.721639,-1.673789 2.620172,-3.083554 3.050856,-4.786677 0.201225,-0.795734 0.212813,-0.989675 0.0903,-1.511064 -0.189288,-0.805553 -0.337382,-1.080141 -1.37889,-2.556685 -2.384065,-3.379879 -4.187786,-6.75502 -5.386246,-10.078795 -0.606591,-1.682303 -1.293809,-4.32083 -1.293809,-4.967494 0,-0.248348 -0.106479,-0.930544 -0.236619,-1.515991 -1.201445,-5.404779 -4.678639,-10.337238 -9.498404,-13.473646 -1.871551,-1.217891 -5.098209,-2.703602 -6.935266,-3.193335 -0.882393,-0.235234 -3.637306,-0.466421 -5.564734,-0.466983 -2.049604,-5.99e-4 -3.614013,0.183752 -4.872806,0.57421 -2.819294,0.874502 -6.355465,1.110925 -8.660825,0.579049 -0.251678,-0.05806 -0.465563,-0.09548 -0.4753,-0.08314 -0.0097,0.01234 0.05155,0.41126 0.136202,0.88649 0.205288,1.152521 0.201993,3.937727 -0.0063,5.319502 -0.09239,0.612938 -0.37465,1.915072 -0.627236,2.893631 -0.733144,2.84031 -0.842111,5.184359 -0.406116,8.736168 0.114972,0.936616 0.304835,1.746183 0.63213,2.695373 2.216376,6.427734 6.22409,11.121154 11.803287,13.822787 2.099599,1.016696 4.253053,1.693819 6.01913,1.89263 1.050551,0.118262 3.571108,0.75806 5.040778,1.279509 3.641572,1.292056 7.260351,3.237243 10.483871,5.635347 1.244213,0.92562 1.377868,0.985242 2.82258,1.259114 0.03168,0.006 0.382157,-0.0656 0.778833,-0.159126 z"
   id="path898" /><path
   style="fill:#80b3ff;stroke:#000000;stroke-width:0.115389"
   d="M 33.684916,36.022251 C 32.600348,35.61884 31.8947,34.580433 31.995098,33.535575 c 0.221232,-2.302415 3.079942,-3.06891 4.405316,-1.181181 0.313487,0.446499 0.350738,0.589217 0.350738,1.343763 0,0.754546 -0.03725,0.897263 -0.350738,1.343762 -0.618797,0.881352 -1.817838,1.314223 -2.715498,0.980332 z"
   id="path900" /><path
   style="fill:#80b3ff;stroke:#000000;stroke-width:0.115389"
   d="m 31.99031,41.80438 c -0.21063,-0.06068 -0.6005,-0.32818 -0.866379,-0.594449 -0.961684,-0.963094 -1.010176,-2.320769 -0.118156,-3.308128 1.064652,-1.178443 2.890443,-1.047796 3.81284,0.272833 0.425547,0.609271 0.503514,1.680736 0.169566,2.330249 -0.596758,1.160664 -1.747809,1.659612 -2.997871,1.299495 z"
   id="path902" /><path
   style="fill:#80b3ff;stroke:#000000;stroke-width:0.115389"
   d="m 37.903226,40.988303 c -1.395768,-0.494864 -2.032788,-2.145594 -1.32194,-3.425584 0.639429,-1.151388 2.098865,-1.611286 3.222861,-1.015589 0.610396,0.323498 1.201647,1.1298 1.30572,1.780638 0.276446,1.7288 -1.553121,3.246783 -3.206641,2.660535 z"
   id="path904" /><path
   style="fill:#80b3ff;stroke:#000000;stroke-width:0.115389"
   d="m 39.560602,34.502764 c -0.89904,-0.285493 -1.713695,-1.37996 -1.713695,-2.302303 0,-0.524247 0.27444,-1.148774 0.714696,-1.626396 1.500604,-1.627962 4.122729,-0.593547 4.122729,1.626396 0,1.660049 -1.549611,2.802169 -3.12373,2.302303 z"
   id="path906" /><path
   style="fill:#80b3ff;stroke:#000000;stroke-width:0.115389"
   d="m 45.56377,34.569776 c -2.003622,-0.609474 -2.536012,-2.956393 -0.964498,-4.251767 0.983171,-0.810413 2.361911,-0.701608 3.244654,0.256056 0.936259,1.015721 0.936805,2.236479 0.0015,3.251215 -0.622689,0.675539 -1.532424,0.972388 -2.281609,0.744496 z"
   id="path908" /><path
   style="fill:#80b3ff;stroke:#000000;stroke-width:0.115389"
   d="m 44.009217,40.104163 c -1.936993,-0.896798 -1.886304,-3.618868 0.0827,-4.441369 1.52789,-0.638237 3.320952,0.55612 3.313382,2.20704 -0.0081,1.76183 -1.829026,2.959855 -3.396087,2.234329 z"
   id="path910" /><path
   style="fill:#80b3ff;stroke:#000000;stroke-width:0.115389"
   d="m 51.408809,36.719434 c -2.052408,-0.666453 -2.325452,-3.499584 -0.429546,-4.457005 1.029627,-0.519956 2.086438,-0.3337 2.858393,0.503773 0.794857,0.862317 0.907035,1.881785 0.317715,2.887384 -0.534911,0.912755 -1.757238,1.387099 -2.746562,1.065848 z"
   id="path912" /><path
   style="fill:#80b3ff;stroke:#000000;stroke-width:0.115389"
   d="m 50.173994,42.59038 c -0.221123,-0.07042 -0.610993,-0.337303 -0.866378,-0.593077 -0.709249,-0.710332 -0.929753,-1.707152 -0.568786,-2.57128 0.744366,-1.781955 3.150087,-2.066888 4.251253,-0.503518 0.459568,0.65247 0.546781,1.714307 0.197099,2.39974 -0.585067,1.146826 -1.795046,1.65606 -3.013188,1.268135 z"
   id="path914" /><path
   style="fill:#80b3ff;stroke:#000000;stroke-width:0.115389"
   d="m 56.02435,40.215565 c -0.522692,-0.169047 -0.996245,-0.572504 -1.319604,-1.124275 -0.635303,-1.084062 -0.281958,-2.523301 0.794361,-3.235575 0.405832,-0.268567 0.594509,-0.31424 1.298128,-0.31424 0.703619,0 0.892296,0.04567 1.298128,0.31424 1.93681,1.28172 1.20132,4.264949 -1.088837,4.416445 -0.368566,0.02438 -0.810545,-0.0011 -0.982176,-0.0566 z"
   id="path916" /><path
   style="fill:#80b3ff;stroke:#000000;stroke-width:0.115389"
   d="m 53.065317,48.09866 c -1.171658,-0.365346 -1.904798,-1.65677 -1.618368,-2.850747 0.196759,-0.820182 0.981681,-1.609675 1.79413,-1.804578 0.870225,-0.208764 1.562064,9.09e-4 2.240034,0.67888 0.674799,0.674798 0.886863,1.389352 0.669049,2.254369 -0.192799,0.765676 -0.988828,1.570804 -1.740082,1.759972 -0.649191,0.163468 -0.70394,0.161925 -1.344763,-0.0379 z"
   id="path918" /><path
   style="fill:#80b3ff;stroke:#000000;stroke-width:0.115389"
   d="m 59.012495,45.814879 c -2.048728,-0.637263 -2.324431,-3.494162 -0.429546,-4.451067 0.630567,-0.318433 1.157069,-0.370297 1.805192,-0.177826 0.725928,0.215578 1.460057,0.96194 1.653768,1.681325 0.339371,1.260331 -0.452271,2.618532 -1.741802,2.988365 -0.485041,0.139108 -0.734664,0.131199 -1.287612,-0.0408 z"
   id="path920" /><path
   style="fill:#80b3ff;stroke:#000000;stroke-width:0.115389"
   d="m 55.112861,53.82555 c -1.803194,-0.941999 -1.774345,-3.374102 0.05107,-4.305359 0.686029,-0.349985 1.746887,-0.26248 2.402289,0.198154 1.303352,0.91603 1.381606,2.758614 0.162612,3.828905 -0.759655,0.666985 -1.683755,0.765296 -2.61597,0.2783 z"
   id="path922" /><path
   style="fill:#80b3ff;stroke:#000000;stroke-width:0.115389"
   d="m 61.189489,52.480518 c -0.533017,-0.189994 -1.144578,-0.755462 -1.400643,-1.29508 -0.292788,-0.617005 -0.24198,-1.559148 0.117127,-2.171918 0.434864,-0.74204 1.068201,-1.124809 1.954508,-1.181245 0.858201,-0.05465 1.465433,0.204044 1.999319,0.851741 0.99624,1.208611 0.617231,2.958013 -0.793119,3.66082 -0.677077,0.337402 -1.204356,0.375513 -1.877192,0.135682 z"
   id="path924" /><path
   style="fill:#80b3ff;stroke:#000000;stroke-width:0.115389"
   d="m 57.242288,59.854366 c -1.674072,-0.848 -1.834231,-3.061583 -0.299556,-4.140193 1.172509,-0.82407 2.83509,-0.399824 3.511112,0.895941 1.057265,2.02651 -1.171287,4.277749 -3.211556,3.244252 z"
   id="path926" /><path
   style="fill:#80b3ff;stroke:#000000;stroke-width:0.115389"
   d="m 63.44918,58.608168 c -0.571822,-0.21681 -1.153203,-0.731515 -1.422478,-1.259337 -0.342274,-0.670912 -0.271953,-1.724653 0.158503,-2.375116 0.637494,-0.963318 1.999842,-1.361257 3.01351,-0.88024 0.914626,0.434018 1.542007,1.54343 1.413716,2.499907 -0.194751,1.45198 -1.856346,2.510309 -3.163251,2.014786 z"
   id="path928" /><path
   style="fill:#80b3ff;stroke:#000000;stroke-width:0.115389"
   d="m 61.808756,69.055956 c -0.527857,-0.228641 -1.002216,-0.68715 -1.290024,-1.246923 -0.346025,-0.673 -0.256329,-1.739737 0.200863,-2.388832 0.913118,-1.296393 2.766548,-1.376319 3.829959,-0.165161 0.643562,0.732977 0.756689,1.627579 0.323469,2.557982 -0.547787,1.176453 -1.926579,1.735722 -3.064267,1.242934 z"
   id="path930" /><path
   style="fill:#80b3ff;stroke:#000000;stroke-width:0.115389"
   d="m 65.962639,64.026251 c -1.521558,-0.804619 -1.709423,-2.94971 -0.35204,-4.019682 0.596589,-0.470268 1.361653,-0.643339 2.044931,-0.4626 1.478898,0.391194 2.270313,1.971709 1.653243,3.301653 -0.249961,0.53873 -0.853938,1.143946 -1.315121,1.317819 -0.559753,0.211035 -1.491529,0.148096 -2.031013,-0.13719 z"
   id="path932" /><path
   style="fill:#80b3ff;stroke:#000000;stroke-width:0.115389"
   d="m 56.638624,65.670452 c -0.598192,-0.145045 -1.292003,-0.696094 -1.598433,-1.26953 -0.396141,-0.741317 -0.332243,-1.752415 0.154566,-2.445787 1.007874,-1.435537 3.08607,-1.408266 4.053214,0.05319 0.268567,0.405833 0.314241,0.59451 0.314241,1.298129 0,0.703618 -0.04567,0.892295 -0.314241,1.298128 -0.546737,0.826176 -1.683255,1.290424 -2.609347,1.065872 z"
   id="path934" /><path
   style="fill:#80b3ff;stroke:#000000;stroke-width:0.115389"
   d="m 50.490678,63.206201 c -0.653391,-0.242412 -0.978176,-0.491584 -1.326149,-1.017406 -0.271163,-0.409756 -0.316603,-0.596578 -0.316603,-1.301698 0,-0.703619 0.04567,-0.892296 0.314241,-1.298128 0.980262,-1.481276 3.139371,-1.466054 4.062611,0.02864 0.29453,0.476834 0.346605,0.676421 0.34635,1.327444 -2.54e-4,0.641017 -0.0516,0.843751 -0.314241,1.240623 -0.593124,0.896271 -1.850648,1.360203 -2.766209,1.020522 z"
   id="path936" /><path
   style="fill:#80b3ff;stroke:#000000;stroke-width:0.115389"
   d="m 50.311488,57.358503 c -1.431469,-0.708561 -1.764138,-2.653375 -0.649185,-3.79519 1.114306,-1.141154 2.823452,-1.015176 3.696902,0.27249 0.654788,0.965309 0.615265,2.029028 -0.107991,2.906463 -0.691482,0.838887 -1.954879,1.103726 -2.939726,0.616237 z"
   id="path938" /><path
   style="fill:#80b3ff;stroke:#000000;stroke-width:0.115389"
   d="m 44.682056,61.871244 c -1.741243,-0.41489 -2.478238,-2.576828 -1.339691,-3.929914 1.053716,-1.252271 3.084628,-1.093195 3.904511,0.305829 0.820092,1.399382 0.16063,3.106254 -1.376485,3.562728 -0.630279,0.187172 -0.654955,0.188446 -1.188335,0.06136 z"
   id="path940" /><path
   style="fill:#80b3ff;stroke:#000000;stroke-width:0.115389"
   d="m 44.470046,55.799351 c -1.29041,-0.680286 -1.765136,-2.205295 -1.060686,-3.407348 0.557338,-0.951026 1.800874,-1.450766 2.794244,-1.122924 0.239798,0.07914 0.660626,0.350949 0.935175,0.604018 1.285568,1.184996 0.9263,3.268524 -0.679278,3.939377 -0.545896,0.22809 -1.5444,0.221504 -1.989455,-0.01312 z"
   id="path942" /><path
   style="fill:#80b3ff;stroke:#000000;stroke-width:0.115389"
   d="m 48.413417,51.114418 c -2.058028,-0.640155 -2.333032,-3.489818 -0.429546,-4.451067 0.630567,-0.318433 1.157069,-0.370297 1.805191,-0.177825 0.725928,0.215577 1.460058,0.96194 1.653768,1.681325 0.339372,1.26033 -0.45227,2.618531 -1.741801,2.988364 -0.485042,0.139108 -0.734665,0.131199 -1.287612,-0.0408 z"
   id="path944" /><path
   style="fill:#80b3ff;stroke:#000000;stroke-width:0.115389"
   d="m 44.700461,46.29404 c -0.578113,-0.215335 -0.962986,-0.545513 -1.293719,-1.109865 -0.632244,-1.078843 -0.309681,-2.437471 0.756408,-3.185972 0.445116,-0.312516 0.590413,-0.350738 1.333298,-0.350738 0.715014,0 0.901364,0.04475 1.308593,0.314241 1.473095,0.974849 1.4659,3.138929 -0.01348,4.053558 -0.611056,0.377787 -1.505245,0.496996 -2.091102,0.278776 z"
   id="path946" /><path
   style="fill:#80b3ff;stroke:#000000;stroke-width:0.115389"
   d="m 37.597008,46.656582 c -0.88661,-0.46839 -1.464914,-1.595612 -1.304802,-2.543303 0.248408,-1.470319 1.923414,-2.439469 3.256425,-1.884152 2.020442,0.841693 2.091781,3.655442 0.113635,4.481964 -0.587119,0.245314 -1.545612,0.220016 -2.065258,-0.05451 z"
   id="path948" /><path
   style="fill:#80b3ff;stroke:#000000;stroke-width:0.115389"
   d="m 39.968809,52.092386 c -0.992033,-0.463907 -1.602678,-1.721719 -1.329103,-2.737699 0.499157,-1.853729 2.687675,-2.485781 4.041753,-1.167273 1.104035,1.075032 0.928506,2.885905 -0.362547,3.740284 -0.621161,0.411065 -1.666582,0.484324 -2.350103,0.164688 z"
   id="path950" /><path
   style="fill:#80b3ff;stroke:#000000;stroke-width:0.115389"
   d="m 31.725764,47.834767 c -1.567622,-0.818935 -1.809775,-2.767799 -0.488427,-3.930895 1.570897,-1.382759 3.958516,-0.286928 3.958516,1.816815 0,1.331702 -1.136015,2.435995 -2.505971,2.435995 -0.191347,0 -0.625199,-0.144862 -0.964118,-0.321915 z"
   id="path952" /><path
   style="fill:#80b3ff;stroke:#000000;stroke-width:0.115389"
   d="m 34.71435,54.329611 c -1.9167,-0.506271 -2.474814,-2.934579 -0.961225,-4.182207 1.109158,-0.914262 2.712251,-0.693452 3.542575,0.487954 1.255162,1.785878 -0.468305,4.252386 -2.58135,3.694253 z"
   id="path954" /><path
   style="fill:#80b3ff;stroke:#000000;stroke-width:0.115389"
   d="m 38.479263,59.230548 c -0.944181,-0.433123 -1.474293,-1.221545 -1.481165,-2.202898 -0.0097,-1.391124 1.010983,-2.419355 2.401692,-2.419355 1.637226,0 2.768666,1.476051 2.31848,3.024636 -0.412403,1.418615 -1.962498,2.183189 -3.239007,1.597617 z"
   id="path956" /></svg>
