<?xml version="1.0" encoding="utf-8"?>
<!-- Generator: Adobe Illustrator 18.0.0, SVG Export Plug-In . SVG Version: 6.00 Build 0)  -->
<!DOCTYPE svg PUBLIC "-//W3C//DTD SVG 1.1//EN" "http://www.w3.org/Graphics/SVG/1.1/DTD/svg11.dtd">
<svg version="1.1" id="Layer_1" xmlns="http://www.w3.org/2000/svg" xmlns:xlink="http://www.w3.org/1999/xlink" x="0px" y="0px"
	 viewBox="0 0 100 100" enable-background="new 0 0 100 100" xml:space="preserve">
<g>
	<path fill="#FFFFFF" d="M78.1,21.6C65.8,9.3,50.4,2.8,36.7,2.8c-9.4,0-18.1,3.1-24.4,9.4C-3.3,27.8,0.9,57.3,21.7,78
		C34,90.4,49.4,96.9,63.1,96.9c9.4,0,18.1-3.1,24.4-9.4C103.1,71.9,98.9,42.4,78.1,21.6z M26.1,73.6c-18.3-18.3-22.5-43.9-9.4-57
		c5-5,11.9-7.6,20-7.6c12.5,0,26.4,6.3,37,17C92,44.3,96.2,69.9,83.1,83c-5,5-11.9,7.6-20,7.6C50.6,90.6,36.7,84.2,26.1,73.6z"/>
	<path fill="#FFFFFF" d="M84.4,59.2C84.4,59.2,84.3,59.2,84.4,59.2c-1.8,0-3.2,1.5-3.1,3.2c0.1,5.8-1.5,10.6-4.8,13.9
		c-4,4-9.4,4.8-13.3,4.8C53,81.2,41.7,75.9,32.8,67c-8.6-8.6-14-19.7-14.2-29.6c0-1.7-1.6-3-3.2-3.1c-1.7,0-3.1,1.5-3.1,3.2
		c0.3,11.5,6.3,24.2,16.1,33.9c10.1,10.1,23.1,16.1,34.8,16.1c5.1,0,12.3-1.2,17.8-6.7c4.5-4.5,6.8-10.9,6.7-18.5
		C87.5,60.6,86.1,59.2,84.4,59.2z"/>
	<path fill="#FFFFFF" d="M31.1,24.7c0.8,0,1.6-0.3,2.2-0.9l3.1-3.1c1.2-1.2,1.2-3.2,0-4.4c-1.2-1.2-3.2-1.2-4.4,0l-3.1,3.1
		c-1.2,1.2-1.2,3.2,0,4.4C29.5,24.4,30.3,24.7,31.1,24.7z"/>
	<path fill="#FFFFFF" d="M27.9,40.4c0.8,0,1.6-0.3,2.2-0.9l3.1-3.1c1.2-1.2,1.2-3.2,0-4.4c-1.2-1.2-3.2-1.2-4.4,0l-3.1,3.1
		c-1.2,1.2-1.2,3.2,0,4.4C26.3,40.1,27.1,40.4,27.9,40.4z"/>
	<path fill="#FFFFFF" d="M49.9,27.9c0.8,0,1.6-0.3,2.2-0.9l3.1-3.1c1.2-1.2,1.2-3.2,0-4.4c-1.2-1.2-3.2-1.2-4.4,0l-3.1,3.1
		c-1.2,1.2-1.2,3.2,0,4.4C48.3,27.6,49.1,27.9,49.9,27.9z"/>
	<path fill="#FFFFFF" d="M65.6,37.3c0.8,0,1.6-0.3,2.2-0.9l3.1-3.1c1.2-1.2,1.2-3.2,0-4.4c-1.2-1.2-3.2-1.2-4.4,0l-3.1,3.1
		c-1.2,1.2-1.2,3.2,0,4.4C64,37,64.8,37.3,65.6,37.3z"/>
	<path fill="#FFFFFF" d="M72.8,52c0.6,0.6,1.4,0.9,2.2,0.9c0.8,0,1.6-0.3,2.2-0.9l3.1-3.1c1.2-1.2,1.2-3.2,0-4.4
		c-1.2-1.2-3.2-1.2-4.4,0l-3.1,3.1C71.5,48.8,71.5,50.8,72.8,52z"/>
	<path fill="#FFFFFF" d="M66.5,63.3l-3.1,3.1c-1.2,1.2-1.2,3.2,0,4.4c0.6,0.6,1.4,0.9,2.2,0.9c0.8,0,1.6-0.3,2.2-0.9l3.1-3.1
		c1.2-1.2,1.2-3.2,0-4.4C69.7,62.1,67.7,62.1,66.5,63.3z"/>
	<path fill="#FFFFFF" d="M35.1,50.7L32,53.9c-1.2,1.2-1.2,3.2,0,4.4c0.6,0.6,1.4,0.9,2.2,0.9c0.8,0,1.6-0.3,2.2-0.9l3.1-3.1
		c1.2-1.2,1.2-3.2,0-4.4C38.3,49.5,36.4,49.5,35.1,50.7z"/>
	<path fill="#FFFFFF" d="M47.7,63.3l-3.1,3.1c-1.2,1.2-1.2,3.2,0,4.4c0.6,0.6,1.4,0.9,2.2,0.9c0.8,0,1.6-0.3,2.2-0.9l3.1-3.1
		c1.2-1.2,1.2-3.2,0-4.4C50.9,62.1,48.9,62.1,47.7,63.3z"/>
	<path fill="#FFFFFF" d="M43.6,46.7c0.8,0,1.6-0.3,2.2-0.9l6.3-6.3c1.2-1.2,1.2-3.2,0-4.4c-1.2-1.2-3.2-1.2-4.4,0l-6.3,6.3
		c-1.2,1.2-1.2,3.2,0,4.4C42,46.4,42.8,46.7,43.6,46.7z"/>
	<path fill="#FFFFFF" d="M53.9,58.3c0.6,0.6,1.4,0.9,2.2,0.9c0.8,0,1.6-0.3,2.2-0.9l6.3-6.3c1.2-1.2,1.2-3.2,0-4.4
		c-1.2-1.2-3.2-1.2-4.4,0l-6.3,6.3C52.7,55.1,52.7,57.1,53.9,58.3z"/>
</g>
</svg>
