<?xml version="1.0" encoding="utf-8"?>
<!-- Generator: Adobe Illustrator 18.0.0, SVG Export Plug-In . SVG Version: 6.00 Build 0)  -->
<!DOCTYPE svg PUBLIC "-//W3C//DTD SVG 1.1//EN" "http://www.w3.org/Graphics/SVG/1.1/DTD/svg11.dtd">
<svg version="1.1" id="Layer_1" xmlns="http://www.w3.org/2000/svg" xmlns:xlink="http://www.w3.org/1999/xlink" x="0px" y="0px"
	 viewBox="0 0 100 100" enable-background="new 0 0 100 100" xml:space="preserve">
<g>
	<path fill="#2C3136" d="M93.6,60.6L93.6,60.6c-0.1-0.2-6.9-8.7-8.6-17.4c-0.3-2.5-3.8-30.4-35.6-39.3l-0.2,0
		c-0.2,0-4.9-0.9-10.6-0.9C34.5,2.8,31,3.3,28,4.2c0,0-2.7,0.8-5.3,0.8c-0.9,0-1.8-0.1-2.4-0.3c-0.5-0.2-1.7-0.6-3.4-0.6
		c-2.1,0-5.3,0.7-8.6,3.9c-5.5,5.5-3.7,10.9-3.3,12c0.8,2.5-0.1,6.4-0.5,7.7C1.7,36.5,4,48.4,4.1,48.9l0,0.2
		c8.9,31.7,36.8,35.3,39.3,35.6c8.7,1.8,17.3,8.5,17.3,8.6l0.1,0.1c4.5,3.4,9.7,3.6,11.1,3.6c0.2,0,0.3,0,0.3,0
		c9.2-0.6,15.6-7.3,16.5-8.3c1.1-1,7.8-7.4,8.3-16.6C97.2,71.7,97.4,65.7,93.6,60.6z M92.4,71.7c-0.5,7.7-6.7,13.3-6.8,13.3
		l-0.2,0.2c-0.1,0.1-5.6,6.3-13.2,6.8l-0.1,0c-0.8,0-4.8-0.1-8.2-2.6c-0.8-0.6-9.8-7.7-19.5-9.6l-0.3,0c-0.3,0-26.8-2.2-35.2-32
		c-0.2-1.1-2-11.4,0.3-18.7c0.2-0.6,2-6.4,0.5-10.8l-0.1-0.2c-0.1-0.3-1.2-3.3,2.2-6.7C13.4,9.8,15.1,9,16.9,9
		c0.9,0,1.5,0.2,1.5,0.2h0l0.3,0.1c1.2,0.4,2.5,0.6,4,0.6c3.4,0,6.6-1,6.8-1.1c2.4-0.8,5.5-1.2,9.1-1.2c4.8,0,8.9,0.7,9.6,0.8
		c29.7,8.4,31.9,34.1,32,35.2l0,0.3c1.9,9.7,9,18.7,9.6,19.5C92.5,67.2,92.4,71.7,92.4,71.7z"/>
	<path fill="#2C3136" d="M74.7,60.1c-0.9-1.1-5.4-7.1-6.7-13.8L68,45.9c0-0.2-1.3-16.2-19.5-21.4l-0.2,0c-0.7-0.1-3.1-0.5-5.8-0.5
		c-2.1,0-4,0.2-5.4,0.7c-0.4,0.1-2.6,0.8-5.1,0.8c-1.2,0-2.3-0.2-3.3-0.5l-0.6-0.2l-0.5,0.2c-0.5,0.1-0.9,0.5-1.4,0.9
		c-0.5,0.5-0.8,1-0.9,1.4l-0.2,0.5l0.2,0.6c1.2,3.6-0.2,7.9-0.3,8.4c-1.4,4.3-0.2,10.9-0.2,11.2l0,0.2C30,66.1,45.6,67.6,46.2,67.7
		l0.4,0.1c6.7,1.3,12.6,5.8,13.8,6.7c1.6,1.1,3.5,1.3,4,1.3l0.1,0l0.1,0c3.8-0.3,6.6-3.2,7.2-3.7l0.4-0.4c0.4-0.3,3.5-3.3,3.8-7.2
		l0-0.1l0-0.1C76.1,63.8,76,61.8,74.7,60.1z M70.2,69.2l-0.5,0.4l-0.2,0.3c-0.4,0.4-2.5,2.4-4.9,2.7c-0.5,0-1.5-0.2-2.1-0.6
		c-1.2-1-7.7-5.9-15.1-7.3L47,64.5l-0.5,0c-0.6,0-14-1.4-18.6-17.1c-0.4-2.1-0.8-6.7,0.1-9.6c0.3-0.9,1.6-5.3,0.6-9.5
		c1.1,0.3,2.2,0.4,3.4,0.4c2.9,0,5.4-0.7,6.1-1c1.1-0.3,2.6-0.5,4.4-0.5c2.3,0,4.4,0.3,5.2,0.4c15.8,4.6,17.1,18,17.1,18.5l0,0.3
		l0.1,0.5c1.5,7.4,6.4,13.9,7.3,15.1c0.5,0.7,0.7,1.7,0.7,2.1C72.6,66.8,70.4,69,70.2,69.2z"/>
	<circle fill="#2C3136" cx="34.4" cy="33.7" r="2.5"/>
	<circle fill="#2C3136" cx="32.8" cy="39.5" r="2.5"/>
	<circle fill="#2C3136" cx="38.7" cy="38.7" r="2.5"/>
	<circle fill="#2C3136" cx="45" cy="37.9" r="2.5"/>
	<circle fill="#2C3136" cx="51" cy="40.3" r="2.5"/>
	<circle fill="#2C3136" cx="53.8" cy="45.8" r="2.5"/>
	<circle fill="#2C3136" cx="49.1" cy="48.8" r="2.5"/>
	<circle fill="#2C3136" cx="56.2" cy="51.7" r="2.5"/>
	<circle fill="#2C3136" cx="58.3" cy="57.7" r="2.5"/>
	<circle fill="#2C3136" cx="51.4" cy="55.2" r="2.5"/>
	<circle fill="#2C3136" cx="45.5" cy="53.6" r="2.5"/>
	<circle fill="#2C3136" cx="45.5" cy="44" r="2.5"/>
	<circle fill="#2C3136" cx="32.8" cy="45.7" r="2.5"/>
	<circle fill="#2C3136" cx="38.7" cy="44.5" r="2.5"/>
	<circle fill="#2C3136" cx="35.3" cy="52" r="2.5"/>
	<circle fill="#2C3136" cx="41" cy="49.9" r="2.5"/>
	<circle fill="#2C3136" cx="39.4" cy="57" r="2.5"/>
	<circle fill="#2C3136" cx="45.2" cy="59.5" r="2.5"/>
	<circle fill="#2C3136" cx="51.2" cy="60.9" r="2.5"/>
	<circle fill="#2C3136" cx="57.2" cy="63.3" r="2.5"/>
	<circle fill="#2C3136" cx="62.7" cy="66.8" r="2.5"/>
	<circle fill="#2C3136" cx="67.1" cy="61.9" r="2.5"/>
	<circle fill="#2C3136" cx="64.2" cy="56.3" r="2.5"/>
	<circle fill="#2C3136" cx="62" cy="50.2" r="2.5"/>
	<circle fill="#2C3136" cx="59.7" cy="43.5" r="2.5"/>
	<circle fill="#2C3136" cx="56.8" cy="37.9" r="2.5"/>
	<circle fill="#2C3136" cx="52.1" cy="34.4" r="2.5"/>
	<circle fill="#2C3136" cx="46.1" cy="32.2" r="2.5"/>
	<circle fill="#2C3136" cx="40.3" cy="32.2" r="2.5"/>
</g>
</svg>
