<?xml version="1.0" encoding="utf-8"?>
<!-- Generator: Adobe Illustrator 18.0.0, SVG Export Plug-In . SVG Version: 6.00 Build 0)  -->
<!DOCTYPE svg PUBLIC "-//W3C//DTD SVG 1.1//EN" "http://www.w3.org/Graphics/SVG/1.1/DTD/svg11.dtd">
<svg version="1.1" id="Layer_1" xmlns="http://www.w3.org/2000/svg" xmlns:xlink="http://www.w3.org/1999/xlink" x="0px" y="0px"
	 viewBox="0 0 100 100" enable-background="new 0 0 100 100" xml:space="preserve">
<g>
	<path fill="#FFFFFF" d="M4.6,97.1c-0.2,0-0.4,0-0.5-0.1c-0.9-0.3-1.4-1.3-1.1-2.2c0.4-1.2,0.7-2,36.5-3.7
		c13.9-0.7,39.7-1.6,55.6-0.6c0.9,0.1,1.7,0.9,1.6,1.8c-0.1,0.9-0.8,1.6-1.8,1.6c-26.8-1.7-85.4,2.1-89.5,3
		C5.1,97,4.9,97.1,4.6,97.1z"/>
	<path fill="#FFFFFF" d="M15.8,95.5c-0.5,0-1.1-0.3-1.4-0.7c-8-11.4-6.3-41-6.2-42.3c0.1-0.9,0.7-1.5,1.6-1.6
		c0.8-0.1,1.6,0.5,1.8,1.4c2,9.9,9.2,36.1,18.4,38.3c0.9,0.2,1.5,1.1,1.3,2.1c-0.2,0.9-1.1,1.5-2.1,1.3
		c-8.3-1.9-14.2-16.6-17.6-27.9c0.3,9.3,1.6,21,5.7,26.9c0.5,0.8,0.4,1.8-0.4,2.4C16.4,95.4,16.1,95.5,15.8,95.5z"/>
	<path fill="#FFFFFF" d="M40.1,93.9c-0.8,0-1.5-0.6-1.7-1.4c-5.3-30.7-17.1-48.2-24.1-56.4c4.4,13.2,10.6,38.2,9.6,47.2
		c-0.1,0.9-1,1.6-1.9,1.5c-0.9-0.1-1.6-1-1.5-1.9c1.3-12.1-10.3-50.1-12.1-52.7c-0.7-0.6-0.7-1.6-0.1-2.3c0.6-0.7,1.7-0.8,2.4-0.2
		c0.9,0.7,23,17.7,31.1,64.2c0.2,0.9-0.5,1.8-1.4,2C40.3,93.9,40.2,93.9,40.1,93.9z"/>
	<path fill="#FFFFFF" d="M48.1,93.9c-0.6,0-1.2-0.3-1.5-0.9c-6.1-12-7.7-33.7-9.3-56.6c-0.3-4.7-0.7-9.5-1-14.2
		c-7.8,13.1-8.2,28.5-8.2,28.7c0,0.9-0.7,1.7-1.7,1.7c-0.9,0-1.7-0.8-1.7-1.7c0-0.8,0.5-20,11.5-34.7c0.4-0.6,1.2-0.8,1.8-0.6
		c0.7,0.2,1.2,0.8,1.2,1.5c0.6,6.2,1,12.8,1.5,19.1c1.5,21.6,3.1,43.9,8.9,55.3c0.4,0.8,0.1,1.9-0.7,2.3
		C48.6,93.8,48.4,93.9,48.1,93.9z"/>
	<path fill="#FFFFFF" d="M45.3,82.4c-0.2,0-0.4,0-0.6-0.1c-0.9-0.3-1.4-1.3-1.1-2.2c0.2-0.5,17.9-52.7,6.4-74.9
		C49.7,4.4,50,3.4,50.7,3c0.8-0.5,1.8-0.2,2.3,0.5C60.8,15.2,66.5,29.2,70,45.2c0.2,0.9-0.4,1.8-1.3,2c-0.9,0.2-1.8-0.4-2-1.3
		c-2.3-10.5-5.5-20.2-9.7-28.8c3,25.6-9.4,62.2-10,64.1C46.7,81.9,46,82.4,45.3,82.4z"/>
	<path fill="#FFFFFF" d="M39.4,43.4c-0.2,0-0.4,0-0.6-0.1c-0.9-0.3-1.4-1.3-1.1-2.2c0.3-1,8.8-25,28.1-34.3c0.7-0.3,1.4-0.2,2,0.3
		c0.5,0.5,0.6,1.3,0.3,2c-4.9,10.1-5.3,12.8-5.3,13.2c0.1,0.8-0.3,1.5-1,1.8c-0.9,0.4-1.9,0-2.2-0.9c-0.2-0.5-0.8-1.8,3.2-10.7
		C48,22.6,41.1,42.1,41,42.3C40.8,43,40.1,43.4,39.4,43.4z"/>
	<path fill="#FFFFFF" d="M75.4,93.5c-0.9,0-1.7-0.7-1.7-1.6c-1.9-34.1,5.4-55.5,8.9-63.8C72.9,32.6,69,42.2,69,42.3
		c-0.3,0.9-1.3,1.3-2.2,1c-0.9-0.3-1.3-1.3-1-2.2c0.2-0.6,5.5-13.8,19.7-17.7c0.7-0.2,1.4,0.1,1.8,0.6s0.5,1.3,0.1,1.9
		C87.4,26.1,74.8,49,77.2,91.7C77.2,92.7,76.5,93.5,75.4,93.5C75.5,93.5,75.5,93.5,75.4,93.5z"/>
</g>
</svg>
