<?xml version="1.0" encoding="UTF-8" standalone="no"?>
<svg
   xmlns:dc="http://purl.org/dc/elements/1.1/"
   xmlns:cc="http://creativecommons.org/ns#"
   xmlns:rdf="http://www.w3.org/1999/02/22-rdf-syntax-ns#"
   xmlns:svg="http://www.w3.org/2000/svg"
   xmlns="http://www.w3.org/2000/svg"
   xmlns:sodipodi="http://sodipodi.sourceforge.net/DTD/sodipodi-0.dtd"
   xmlns:inkscape="http://www.inkscape.org/namespaces/inkscape"
   version="1.1"
   id="Layer_1"
   x="0px"
   y="0px"
   viewBox="0 0 100 100"
   enable-background="new 0 0 100 100"
   xml:space="preserve"
   sodipodi:docname="Pastos y Praderas color.svg"
   inkscape:version="1.0.1 (3bc2e813f5, 2020-09-07)"><metadata
   id="metadata23"><rdf:RDF><cc:Work
       rdf:about=""><dc:format>image/svg+xml</dc:format><dc:type
         rdf:resource="http://purl.org/dc/dcmitype/StillImage" /><dc:title></dc:title></cc:Work></rdf:RDF></metadata><defs
   id="defs21" /><sodipodi:namedview
   pagecolor="#ffffff"
   bordercolor="#666666"
   borderopacity="1"
   objecttolerance="10"
   gridtolerance="10"
   guidetolerance="10"
   inkscape:pageopacity="0"
   inkscape:pageshadow="2"
   inkscape:window-width="1920"
   inkscape:window-height="1017"
   id="namedview19"
   showgrid="false"
   inkscape:zoom="4.34"
   inkscape:cx="-4.2245725"
   inkscape:cy="45.403084"
   inkscape:window-x="-8"
   inkscape:window-y="-8"
   inkscape:window-maximized="1"
   inkscape:current-layer="Layer_1" />
<g
   id="g16"
   transform="translate(-100.34562,-0.92165899)">
	<path
   fill="#2c3136"
   d="M 4.6,97.1 C 4.4,97.1 4.2,97.1 4.1,97 3.2,96.7 2.7,95.7 3,94.8 c 0.4,-1.2 0.7,-2 36.5,-3.7 13.9,-0.7 39.7,-1.6 55.6,-0.6 0.9,0.1 1.7,0.9 1.6,1.8 -0.1,0.9 -0.8,1.6 -1.8,1.6 C 68.1,92.2 9.5,96 5.4,96.9 5.1,97 4.9,97.1 4.6,97.1 Z"
   id="path2" />
	<path
   fill="#2c3136"
   d="m 15.8,95.5 c -0.5,0 -1.1,-0.3 -1.4,-0.7 -8,-11.4 -6.3,-41 -6.2,-42.3 0.1,-0.9 0.7,-1.5 1.6,-1.6 0.8,-0.1 1.6,0.5 1.8,1.4 2,9.9 9.2,36.1 18.4,38.3 0.9,0.2 1.5,1.1 1.3,2.1 -0.2,0.9 -1.1,1.5 -2.1,1.3 C 20.9,92.1 15,77.4 11.6,66.1 c 0.3,9.3 1.6,21 5.7,26.9 0.5,0.8 0.4,1.8 -0.4,2.4 -0.5,0 -0.8,0.1 -1.1,0.1 z"
   id="path4" />
	<path
   fill="#2c3136"
   d="m 40.1,93.9 c -0.8,0 -1.5,-0.6 -1.7,-1.4 C 33.1,61.8 21.3,44.3 14.3,36.1 c 4.4,13.2 10.6,38.2 9.6,47.2 -0.1,0.9 -1,1.6 -1.9,1.5 -0.9,-0.1 -1.6,-1 -1.5,-1.9 C 21.8,70.8 10.2,32.8 8.4,30.2 7.7,29.6 7.7,28.6 8.3,27.9 c 0.6,-0.7 1.7,-0.8 2.4,-0.2 0.9,0.7 23,17.7 31.1,64.2 0.2,0.9 -0.5,1.8 -1.4,2 -0.1,0 -0.2,0 -0.3,0 z"
   id="path6" />
	<path
   fill="#2C3136"
   d="M 48.1,93.9 C 47.5,93.9 46.9,93.6 46.6,93 40.5,81 38.9,59.3 37.3,36.4 37,31.7 36.6,26.9 36.3,22.2 c -7.8,13.1 -8.2,28.5 -8.2,28.7 0,0.9 -0.7,1.7 -1.7,1.7 -0.9,0 -1.7,-0.8 -1.7,-1.7 0,-0.8 0.5,-20 11.5,-34.7 0.4,-0.6 1.2,-0.8 1.8,-0.6 0.7,0.2 1.2,0.8 1.2,1.5 0.6,6.2 1,12.8 1.5,19.1 1.5,21.6 3.1,43.9 8.9,55.3 0.4,0.8 0.1,1.9 -0.7,2.3 -0.3,0 -0.5,0.1 -0.8,0.1 z"
   id="path8" />
	<path
   fill="#2c3136"
   d="m 45.3,82.4 c -0.2,0 -0.4,0 -0.6,-0.1 C 43.8,82 43.3,81 43.6,80.1 43.8,79.6 61.5,27.4 50,5.2 49.7,4.4 50,3.4 50.7,3 51.5,2.5 52.5,2.8 53,3.5 c 7.8,11.7 13.5,25.7 17,41.7 0.2,0.9 -0.4,1.8 -1.3,2 -0.9,0.2 -1.8,-0.4 -2,-1.3 C 64.4,35.4 61.2,25.7 57,17.1 c 3,25.6 -9.4,62.2 -10,64.1 -0.3,0.7 -1,1.2 -1.7,1.2 z"
   id="path10" />
	<path
   fill="#2c3136"
   d="m 39.4,43.4 c -0.2,0 -0.4,0 -0.6,-0.1 -0.9,-0.3 -1.4,-1.3 -1.1,-2.2 0.3,-1 8.8,-25 28.1,-34.3 0.7,-0.3 1.4,-0.2 2,0.3 0.5,0.5 0.6,1.3 0.3,2 -4.9,10.1 -5.3,12.8 -5.3,13.2 0.1,0.8 -0.3,1.5 -1,1.8 -0.9,0.4 -1.9,0 -2.2,-0.9 C 59.4,22.7 58.8,21.4 62.8,12.5 48,22.6 41.1,42.1 41,42.3 40.8,43 40.1,43.4 39.4,43.4 Z"
   id="path12" />
	<path
   fill="#2c3136"
   d="m 75.4,93.5 c -0.9,0 -1.7,-0.7 -1.7,-1.6 C 71.8,57.8 79.1,36.4 82.6,28.1 72.9,32.6 69,42.2 69,42.3 c -0.3,0.9 -1.3,1.3 -2.2,1 -0.9,-0.3 -1.3,-1.3 -1,-2.2 0.2,-0.6 5.5,-13.8 19.7,-17.7 0.7,-0.2 1.4,0.1 1.8,0.6 0.4,0.5 0.5,1.3 0.1,1.9 0,0.2 -12.6,23.1 -10.2,65.8 0,1 -0.7,1.8 -1.8,1.8 0.1,0 0.1,0 0,0 z"
   id="path14" />
</g>
<path
   style="fill:#2ca089;stroke:#000000;stroke-width:0.115389"
   d="M 3.9447995,96.544401 C 3.1964757,96.088143 2.8954813,95.10501 3.2777796,94.365727 3.4823207,93.970188 4.2166695,93.637019 5.4379507,93.385674 6.593983,93.147756 9.409824,92.791153 11.549539,92.611691 c 0.93462,-0.07839 1.699309,-0.177265 1.699309,-0.219726 0,-0.04246 -0.234528,-0.579078 -0.521174,-1.192481 C 9.780817,84.893382 8.179709,73.927389 8.184115,60.080645 c 0.0016,-5.103765 0.135442,-7.958398 0.396757,-8.463725 0.38465,-0.74383 1.393353,-1.092367 2.102451,-0.726458 0.607911,0.313696 0.882829,0.779712 1.116147,1.891994 0.323839,1.543817 1.505558,6.346051 2.011186,8.172998 1.811762,6.546303 3.920724,12.530379 6.040074,17.138409 0.965893,2.100107 0.998285,2.074319 0.774864,-0.616905 C 19.89272,68.64909 16.376791,53.370083 11.56772,38.114572 10.040958,33.271322 9.064571,30.695106 8.370493,29.678623 7.655386,28.631345 8.305113,27.320061 9.590128,27.217128 c 0.735194,-0.05889 0.989585,0.09449 2.784158,1.678656 3.620755,3.196238 8.153342,8.733576 11.728148,14.327958 0.64087,1.002928 1.184857,1.803866 1.208861,1.779863 0.024,-0.024 0.145497,-0.711191 0.269986,-1.527081 1.486832,-9.744588 4.921956,-18.951659 9.644465,-25.849796 1.164337,-1.700737 1.480347,-2.050984 1.987644,-2.202974 0.588148,-0.176213 1.379663,0.102699 1.744174,0.614607 0.306948,0.43107 0.436761,1.712814 1.131398,11.171151 0.262095,3.568754 0.503363,6.61617 0.536151,6.772034 0.04866,0.231326 0.223145,-0.03325 0.949731,-1.440092 C 44.652368,26.58263 48.431017,21.126918 52.402266,16.908537 53.3036,15.951113 53.423701,15.775121 53.375083,15.483016 52.72271,11.563513 51.644315,7.8744267 50.472161,5.5524022 49.937657,4.4935574 50.006875,3.557133 50.663575,2.9628286 c 0.574323,-0.5197556 1.569485,-0.467934 2.149342,0.111924 0.421674,0.421673 2.567084,3.8242185 3.872619,6.1418373 0.588944,1.0455071 1.140662,2.0165331 1.22604,2.1578351 0.15434,0.255434 0.160702,0.252719 1.104548,-0.471374 2.396535,-1.8385587 6.367172,-4.1928439 7.429963,-4.4054021 0.847226,-0.1694452 1.742545,0.4991352 1.841264,1.374965 0.05309,0.4709897 -0.04634,0.740134 -1.120434,3.0329501 -2.158648,4.607961 -3.68883,8.391443 -4.107331,10.15566 l -0.182793,0.770573 0.691341,1.728111 c 1.391517,3.478307 2.897806,7.881153 4.034883,11.793862 l 0.447659,1.540408 0.377796,-0.618749 c 1.048563,-1.717322 3.143001,-4.266458 4.880189,-5.93967 3.267397,-3.147068 7.017624,-5.403705 11.253551,-6.771638 1.731992,-0.559323 2.334842,-0.468627 2.885253,0.434073 0.367703,0.60305 0.288568,1.063969 -0.45088,2.626169 -2.222688,4.695774 -4.523142,11.611537 -6.126719,18.418504 -1.951468,8.283726 -3.052234,16.22917 -3.703373,26.731326 -0.164254,2.649235 -0.203731,15.448632 -0.05262,17.061522 l 0.09276,0.990094 5.146685,0.07774 c 5.501089,0.08309 10.760524,0.259518 12.331014,0.41365 1.054858,0.103527 1.383618,0.271006 1.840562,0.937639 0.46814,0.682966 0.17732,1.614776 -0.656365,2.102994 -0.430995,0.252399 -0.581201,0.254164 -4.509079,0.053 -3.863787,-0.197883 -23.940117,-0.197857 -30.126728,3.7e-5 C 49.024454,93.801375 41.697036,94.108688 31.797235,94.645387 18.730844,95.353757 6.503817,96.28744 5.368753,96.663524 4.8490678,96.835713 4.3547677,96.794361 3.9447995,96.544401 Z M 20.794931,91.935484 c 1.900921,-0.124482 3.68326,-0.227249 3.960752,-0.228373 l 0.50453,-0.002 -1.05412,-0.992305 C 19.977527,86.73217 15.936087,78.957447 12.555644,68.300205 c -0.388828,-1.225827 -0.730125,-2.301001 -0.758438,-2.389276 -0.141086,-0.439882 -0.151981,0.157094 -0.04201,2.302089 0.491182,9.580758 1.93586,17.289371 4.10039,21.879148 0.726073,1.539602 1.057934,2.074061 1.286368,2.07169 0.108217,-0.0011 1.752057,-0.103891 3.652979,-0.228372 z m 14.746543,-0.818846 c 1.520738,-0.07067 2.777273,-0.139331 2.792302,-0.152577 0.01503,-0.01325 -0.259305,-1.446122 -0.609629,-3.184166 C 33.65329,67.583371 26.161732,50.365894 15.850563,37.508913 c -0.758328,-0.945558 -1.395399,-1.669338 -1.415712,-1.608399 -0.02031,0.06094 0.250853,1.016028 0.60259,2.122422 5.302825,16.680102 9.386357,36.558684 8.999513,43.8095 -0.07537,1.412745 -0.146686,1.66624 -0.608206,2.162 l -0.275816,0.296279 0.738247,1.028606 c 1.981798,2.76125 3.749786,4.270799 5.860354,5.003703 0.696371,0.241818 1.0284,0.426506 1.23925,0.689321 0.281304,0.350632 0.305477,0.35753 1.036866,0.295893 0.411867,-0.03471 1.993088,-0.120929 3.513825,-0.1916 z m 8.803961,-0.409003 c 1.214833,-0.06532 1.401525,-0.101085 1.35319,-0.259217 C 45.667786,90.347525 45.356329,89.513249 45.006498,88.59447 42.247136,81.347401 40.34842,70.780535 38.889318,54.550691 38.569554,50.993903 37.950281,43.217199 37.793004,40.78341 37.427598,35.128875 36.455199,21.889401 36.405298,21.889401 c -0.128622,0 -2.015765,3.64761 -2.774188,5.362155 -2.654493,6.000945 -4.491942,13.07359 -5.228197,20.1242 -0.294386,2.819135 -0.387924,2.409158 1.352216,5.926785 5.080941,10.270933 8.938738,22.029152 11.427863,34.831099 0.22792,1.172235 0.439616,2.247984 0.470434,2.390553 0.0647,0.299322 0.272955,0.313513 2.692009,0.183442 z M 55.817972,90.264772 C 60.12475,90.13307 71.402281,89.8768 73.502304,89.862914 c 0.152059,-0.001 0.172811,-1.035317 0.172811,-8.612904 0,-9.068832 0.06495,-10.781235 0.643386,-16.964296 0.927112,-9.910039 2.734662,-19.290339 5.350214,-27.764977 0.742303,-2.405131 2.036477,-6.056734 2.68891,-7.586948 0.502289,-1.178066 0.48607,-1.23579 -0.24357,-0.866904 -2.318825,1.17233 -4.535716,2.777835 -6.580707,4.765844 -2.339642,2.274449 -4.344718,4.943136 -5.707976,7.597119 l -0.567832,1.10545 0.390082,1.668987 c 0.214545,0.917943 0.391773,1.87636 0.39384,2.129816 0.01144,1.402746 -1.656881,2.112136 -2.641678,1.123272 C 67.009912,46.065891 66.9402,45.895598 66.656985,44.642857 66.485084,43.882488 66.246858,42.897465 66.127594,42.453917 66.00833,42.010368 65.797193,41.154954 65.658401,40.552995 64.611774,36.013641 60.852263,24.566961 60.020142,23.38604 59.908111,23.227049 59.754404,22.864146 59.67857,22.579588 c -0.272933,-1.024152 -2.381991,-5.681506 -2.531106,-5.589349 -0.0434,0.02682 -0.03979,0.375416 0.008,0.774655 0.513958,4.291735 0.411119,12.33705 -0.242339,18.958594 -1.073193,10.874759 -4.005451,24.886939 -8.011942,38.286126 -1.447977,4.842565 -1.871617,6.059904 -2.264665,6.507561 l -0.35197,0.400872 0.195571,0.717244 c 0.646859,2.37231 1.737628,5.552467 2.412075,7.032443 0.375819,0.824682 0.392461,0.842036 0.774727,0.807988 0.214861,-0.01914 2.982823,-0.114066 6.151026,-0.21095 z M 46.271566,71.774193 c 4.252358,-14.715226 6.970812,-29.38637 7.640682,-41.235762 0.130079,-2.300969 0.142964,-7.655082 0.02217,-9.2123 l -0.07497,-0.966496 -0.986512,1.196911 c -4.262403,5.171469 -8.426818,12.179502 -11.082965,18.650827 l -0.638371,1.5553 0.16172,2.131336 c 1.10492,14.561967 2.059306,23.226384 3.354942,30.457909 l 0.307029,1.713669 0.157077,-0.446388 c 0.08639,-0.245514 0.599033,-1.975766 1.139198,-3.845006 z m 15.462732,-56.56682 c 0.378294,-0.918779 0.821327,-1.968606 0.984518,-2.332949 0.163192,-0.364344 0.256862,-0.662443 0.208157,-0.662443 -0.116792,0 -2.9261,2.11083 -3.119583,2.343962 -0.126864,0.152861 -0.05572,0.379497 0.460216,1.465993 0.46799,0.985538 0.629933,1.235142 0.69458,1.070563 0.04637,-0.118041 0.393817,-0.966347 0.772112,-1.885126 z"
   id="path848" /></svg>
