<?xml version="1.0" encoding="utf-8"?>
<!-- Generator: Adobe Illustrator 18.0.0, SVG Export Plug-In . SVG Version: 6.00 Build 0)  -->
<!DOCTYPE svg PUBLIC "-//W3C//DTD SVG 1.1//EN" "http://www.w3.org/Graphics/SVG/1.1/DTD/svg11.dtd">
<svg version="1.1" id="Layer_1" xmlns="http://www.w3.org/2000/svg" xmlns:xlink="http://www.w3.org/1999/xlink" x="0px" y="0px"
	 viewBox="0 0 100 100" enable-background="new 0 0 100 100" xml:space="preserve">
<g>
	<circle fill="#2C3136" cx="32.4" cy="26.4" r="2.9"/>
	<circle fill="#2C3136" cx="35.3" cy="41.1" r="2.9"/>
	<circle fill="#2C3136" cx="50" cy="44.1" r="2.9"/>
	<circle fill="#2C3136" cx="53" cy="58.8" r="2.9"/>
	<circle fill="#2C3136" cx="67.7" cy="58.8" r="2.9"/>
	<circle fill="#2C3136" cx="70.6" cy="70.6" r="2.9"/>
	<circle fill="#2C3136" cx="85.4" cy="73.5" r="2.9"/>
	<path fill="#2C3136" d="M87.2,59.6c-1.9-1.8-3.7-3.4-5.4-4.9c0.4-0.5,0.7-1.1,0.7-1.8c0-1.6-1.3-2.9-2.9-2.9
		c-0.8,0-1.6,0.4-2.1,0.9c-2.4-2.1-4.6-4.1-6.7-5.9c-2.2-1.9-4.3-3.7-6.2-5.5c0.2-0.4,0.4-0.9,0.4-1.3c0-1.6-1.3-2.9-2.9-2.9
		c-0.6,0-1.1,0.2-1.6,0.5c-4.4-4-8.7-8.1-13.8-13.5c0.4-0.5,0.7-1.1,0.7-1.8c0-1.6-1.3-2.9-2.9-2.9c-0.6,0-1.2,0.2-1.7,0.6
		c-1.5-1.7-3.1-3.4-4.9-5.3C28.2,0.7,17.5,1.4,11.2,5.7c-7.4,5-11.6,16.6-4.9,28c2.6,4.9,5.2,9.3,7.8,13.4c-1.3,0.3-2.3,1.4-2.3,2.8
		c0,1.6,1.3,2.9,2.9,2.9c1,0,1.8-0.5,2.3-1.2c4.2,6.3,8.7,11.7,13.4,16.7c-0.6,0.5-1,1.3-1,2.2c0,1.6,1.3,2.9,2.9,2.9
		c0.9,0,1.7-0.4,2.2-1.1c5.6,5.2,11.8,9.8,18.9,14.2c-0.3,0.5-0.6,1-0.6,1.6c0,1.6,1.3,2.9,2.9,2.9c1.1,0,2.1-0.7,2.6-1.6
		c2.5,1.4,5,2.8,7.7,4.2c4.1,2.3,8,3.3,11.6,3.3c7.1,0,12.9-3.9,16.1-8.9C99,80.4,98.9,68.2,87.2,59.6z M89,85
		c-3.5,5.4-11,8.7-20,3.5C41.5,74.4,27,59.9,11.4,30.9c0,0,0-0.1-0.1-0.1c-4.9-8.4-2-16.7,3.1-20.3c1.6-1.1,3.6-1.8,5.8-1.8
		c3.8,0,8.4,2.1,12.9,7.8c14.5,16.2,22.6,23.2,33.6,32.8c4.7,4.1,9.9,8.6,16.6,14.7c0.1,0.1,0.2,0.1,0.3,0.2
		C92.4,70.7,92.7,79.3,89,85z"/>
	<path fill="#2C3136" d="M79.5,82.3c-1.4,0-4.4-0.5-6-1.4l-0.4-0.2c-26-13.4-39.1-26.5-53.9-54L19,26.4c-1.1-1.9-1.6-3.8-1.4-5.4
		c0.2-1.6-0.9-3.1-2.5-3.4c-1.6-0.2-3.1,0.9-3.4,2.5c-0.4,2.9,0.3,6.1,2.1,9.2l0.1,0.2c15.4,28.7,29.1,42.4,56.3,56.4l0.3,0.2
		c2.6,1.5,6.8,2.2,8.9,2.2c1.6,0,2.9-1.3,2.9-2.9S81.1,82.3,79.5,82.3z"/>
</g>
</svg>
