<?xml version="1.0" encoding="UTF-8" standalone="no"?>
<svg
   xmlns:dc="http://purl.org/dc/elements/1.1/"
   xmlns:cc="http://creativecommons.org/ns#"
   xmlns:rdf="http://www.w3.org/1999/02/22-rdf-syntax-ns#"
   xmlns:svg="http://www.w3.org/2000/svg"
   xmlns="http://www.w3.org/2000/svg"
   xmlns:sodipodi="http://sodipodi.sourceforge.net/DTD/sodipodi-0.dtd"
   xmlns:inkscape="http://www.inkscape.org/namespaces/inkscape"
   version="1.1"
   id="Layer_1"
   x="0px"
   y="0px"
   viewBox="0 0 100 100"
   enable-background="new 0 0 100 100"
   xml:space="preserve"
   sodipodi:docname="Pepino color.svg"
   inkscape:version="1.0.1 (3bc2e813f5, 2020-09-07)"><metadata
   id="metadata27"><rdf:RDF><cc:Work
       rdf:about=""><dc:format>image/svg+xml</dc:format><dc:type
         rdf:resource="http://purl.org/dc/dcmitype/StillImage" /><dc:title></dc:title></cc:Work></rdf:RDF></metadata><defs
   id="defs25" /><sodipodi:namedview
   pagecolor="#ffffff"
   bordercolor="#666666"
   borderopacity="1"
   objecttolerance="10"
   gridtolerance="10"
   guidetolerance="10"
   inkscape:pageopacity="0"
   inkscape:pageshadow="2"
   inkscape:window-width="1920"
   inkscape:window-height="1017"
   id="namedview23"
   showgrid="false"
   inkscape:zoom="8.5"
   inkscape:cx="55.339069"
   inkscape:cy="50"
   inkscape:window-x="-8"
   inkscape:window-y="-8"
   inkscape:window-maximized="1"
   inkscape:current-layer="Layer_1" />
<g
   id="g20"
   transform="translate(-99.411765,-3.8823529)">
	<circle
   fill="#2c3136"
   cx="32.400002"
   cy="26.4"
   r="2.9000001"
   id="circle2" />
	<circle
   fill="#2c3136"
   cx="35.299999"
   cy="41.099998"
   r="2.9000001"
   id="circle4" />
	<circle
   fill="#2c3136"
   cx="50"
   cy="44.099998"
   r="2.9000001"
   id="circle6" />
	<circle
   fill="#2c3136"
   cx="53"
   cy="58.799999"
   r="2.9000001"
   id="circle8" />
	<circle
   fill="#2c3136"
   cx="67.699997"
   cy="58.799999"
   r="2.9000001"
   id="circle10" />
	<circle
   fill="#2c3136"
   cx="70.599998"
   cy="70.599998"
   r="2.9000001"
   id="circle12" />
	<circle
   fill="#2c3136"
   cx="85.400002"
   cy="73.5"
   r="2.9000001"
   id="circle14" />
	<path
   fill="#2c3136"
   d="m 87.2,59.6 c -1.9,-1.8 -3.7,-3.4 -5.4,-4.9 0.4,-0.5 0.7,-1.1 0.7,-1.8 0,-1.6 -1.3,-2.9 -2.9,-2.9 -0.8,0 -1.6,0.4 -2.1,0.9 -2.4,-2.1 -4.6,-4.1 -6.7,-5.9 -2.2,-1.9 -4.3,-3.7 -6.2,-5.5 0.2,-0.4 0.4,-0.9 0.4,-1.3 0,-1.6 -1.3,-2.9 -2.9,-2.9 -0.6,0 -1.1,0.2 -1.6,0.5 -4.4,-4 -8.7,-8.1 -13.8,-13.5 0.4,-0.5 0.7,-1.1 0.7,-1.8 0,-1.6 -1.3,-2.9 -2.9,-2.9 -0.6,0 -1.2,0.2 -1.7,0.6 C 41.3,16.5 39.7,14.8 37.9,12.9 28.2,0.7 17.5,1.4 11.2,5.7 c -7.4,5 -11.6,16.6 -4.9,28 2.6,4.9 5.2,9.3 7.8,13.4 -1.3,0.3 -2.3,1.4 -2.3,2.8 0,1.6 1.3,2.9 2.9,2.9 1,0 1.8,-0.5 2.3,-1.2 4.2,6.3 8.7,11.7 13.4,16.7 -0.6,0.5 -1,1.3 -1,2.2 0,1.6 1.3,2.9 2.9,2.9 0.9,0 1.7,-0.4 2.2,-1.1 5.6,5.2 11.8,9.8 18.9,14.2 -0.3,0.5 -0.6,1 -0.6,1.6 0,1.6 1.3,2.9 2.9,2.9 1.1,0 2.1,-0.7 2.6,-1.6 2.5,1.4 5,2.8 7.7,4.2 4.1,2.3 8,3.3 11.6,3.3 C 84.7,96.9 90.5,93 93.7,88 99,80.4 98.9,68.2 87.2,59.6 Z M 89,85 C 85.5,90.4 78,93.7 69,88.5 41.5,74.4 27,59.9 11.4,30.9 c 0,0 0,-0.1 -0.1,-0.1 C 6.4,22.4 9.3,14.1 14.4,10.5 16,9.4 18,8.7 20.2,8.7 c 3.8,0 8.4,2.1 12.9,7.8 14.5,16.2 22.6,23.2 33.6,32.8 4.7,4.1 9.9,8.6 16.6,14.7 0.1,0.1 0.2,0.1 0.3,0.2 8.8,6.5 9.1,15.1 5.4,20.8 z"
   id="path16" />
	<path
   fill="#2c3136"
   d="m 79.5,82.3 c -1.4,0 -4.4,-0.5 -6,-1.4 L 73.1,80.7 C 47.1,67.3 34,54.2 19.2,26.7 L 19,26.4 c -1.1,-1.9 -1.6,-3.8 -1.4,-5.4 0.2,-1.6 -0.9,-3.1 -2.5,-3.4 -1.6,-0.2 -3.1,0.9 -3.4,2.5 -0.4,2.9 0.3,6.1 2.1,9.2 l 0.1,0.2 C 29.3,58.2 43,71.9 70.2,85.9 l 0.3,0.2 c 2.6,1.5 6.8,2.2 8.9,2.2 1.6,0 2.9,-1.3 2.9,-2.9 0,-1.6 -1.2,-3.1 -2.8,-3.1 z"
   id="path18" />
</g>
<path
   style="fill:#9dac93;stroke:#ffffff;stroke-width:0.117647"
   d="m 75.411765,96.231832 c -3.978595,-0.548548 -6.89,-1.788376 -15.405873,-6.560624 l -1.464697,-0.820807 -0.502429,0.558823 c -0.674691,0.750417 -1.509858,1.112444 -2.363158,1.024376 -1.208186,-0.124696 -2.213465,-1.007486 -2.49802,-2.193648 -0.150961,-0.629278 -0.119453,-0.830161 0.265357,-1.691809 0.217674,-0.487405 0.22952,-0.58389 0.08217,-0.669286 -0.09469,-0.05488 -1.05798,-0.672132 -2.140634,-1.371672 -4.038885,-2.60966 -7.380283,-5.006434 -10.796244,-7.744108 -1.751434,-1.403663 -2.537046,-2.071578 -5.101106,-4.336879 l -0.782641,-0.691451 -0.235055,0.298824 c -0.55122,0.700763 -2.05158,1.016862 -2.981768,0.628206 -1.812627,-0.757365 -2.332753,-3.15726 -1.000091,-4.614484 0.225073,-0.24611 0.223078,-0.249695 -0.689747,-1.239428 -4.522109,-4.903107 -8.26754,-9.547077 -11.493272,-14.250537 l -1.029756,-1.501496 -0.529669,0.466233 c -0.661165,0.581981 -1.168555,0.753431 -2.042606,0.690208 -1.778877,-0.128673 -2.949994,-1.84095 -2.458867,-3.595085 0.188917,-0.674743 1.032552,-1.5742 1.675539,-1.786404 0.23856,-0.07873 0.433745,-0.181516 0.433745,-0.228408 0,-0.04689 -0.430118,-0.770729 -0.955817,-1.608524 C 11.140248,41.397123 7.1956917,34.487033 5.6647451,31.44824 4.6671993,29.4682 3.8120602,26.771358 3.4708614,24.529412 3.2358305,22.985073 3.2360628,20.009412 3.471338,18.424914 4.0871545,14.277604 6.0628086,10.306363 8.9467855,7.4187787 11.333004,5.0295751 14.190919,3.4748972 17.529412,2.7499135 18.93994,2.4436044 22.349374,2.4430116 23.764706,2.7488335 28.620662,3.7980839 33.019278,6.5925134 36.90684,11.098 c 0.567641,0.657867 1.962448,2.202004 3.099572,3.431416 1.137123,1.229412 2.277707,2.465385 2.534629,2.746606 l 0.467131,0.511313 0.525326,-0.276019 c 0.691907,-0.363544 1.734496,-0.370167 2.407678,-0.0153 1.455582,0.767314 1.99234,2.348967 1.276983,3.762848 l -0.311254,0.615181 1.298433,1.386507 c 1.853577,1.979306 7.450977,7.483347 10.171007,10.001366 l 2.316298,2.14427 0.506619,-0.229922 c 1.573385,-0.714058 3.430991,0.201371 3.879444,1.911791 0.117379,0.447689 0.116882,0.657987 -0.0025,1.058823 -0.08193,0.275099 -0.175912,0.606061 -0.208839,0.735473 -0.06641,0.261024 1.012885,1.277624 5.309105,5.000686 1.294117,1.121469 3.438235,2.99634 4.764706,4.16638 3.073433,2.710981 2.783044,2.493101 3.031618,2.274642 0.457086,-0.401709 1.234346,-0.693809 1.846186,-0.693809 2.110898,0 3.457893,2.165639 2.497891,4.016 -0.313495,0.604249 -0.318402,0.639027 -0.116212,0.823686 0.116108,0.10604 0.740517,0.665103 1.387575,1.242365 0.647059,0.577261 1.785295,1.607462 2.529412,2.289335 0.744118,0.681873 1.75,1.552355 2.235294,1.934407 1.297206,1.021233 3.197836,2.904906 4.235846,4.198054 4.515812,5.625777 5.803525,12.424855 3.569036,18.84438 -1.044372,3.000401 -2.908858,5.815813 -5.454306,8.236114 -2.540437,2.415534 -5.792487,4.099388 -9.260519,4.794932 -1.423877,0.285571 -4.697278,0.406226 -6.031234,0.222307 z m 5.647058,-5.864734 C 88.228073,88.736977 92.829887,81.301026 91.187768,74 90.389135,70.449196 87.957258,66.837971 84.651616,64.294118 84.14712,63.905883 82.642649,62.606974 81.30835,61.407656 77.483292,57.969545 74.199514,55.070672 67.117647,48.880297 57.386168,40.373852 55.263378,38.453131 49.931661,33.330241 45.100248,28.688061 36.518822,19.630183 32.509878,14.941177 29.445915,11.357455 26.064305,9.1219905 22.63397,8.4125598 22.094427,8.3009763 21.154548,8.2211898 20.388948,8.2219797 c -4.232728,0.00437 -7.747517,2.3775753 -9.864202,6.6603733 -2.1576113,4.365608 -2.0784299,9.35771 0.222992,14.058824 1.056123,2.157342 5.36913,9.6932 7.600425,13.279766 5.244511,8.429984 10.446095,15.247051 16.12109,21.127903 9.058872,9.387477 18.827128,16.401805 33.745673,24.23188 1.444681,0.758247 2.979975,1.528621 3.411764,1.711941 1.497717,0.635867 3.389623,1.147269 4.961545,1.341157 0.893051,0.110153 3.496106,-0.04515 4.470588,-0.266726 z"
   id="path852" /><path
   style="fill:#9dac93;stroke:#ffffff;stroke-width:0.117647"
   d="M 77.176471,88.057745 C 73.530255,87.557606 72.114826,86.968778 64.647059,82.845431 44.338794,71.632169 31.985932,59.772753 19.907963,39.893479 17.063785,35.212212 13.343058,28.496538 12.717272,26.914743 c -1.103294,-2.78879 -1.390469,-6.076139 -0.661039,-7.567039 0.499717,-1.021386 1.578198,-1.700645 2.700165,-1.700645 0.614333,0 1.599104,0.476749 2.023738,0.979735 0.612535,0.72556 0.743885,1.19663 0.746692,2.677916 0.0039,2.039934 0.417097,3.41059 1.699074,5.635682 0.279848,0.485726 0.945933,1.677255 1.480187,2.647843 1.393503,2.531597 3.719124,6.493946 5.213316,8.882353 11.893667,19.011548 24.152091,30.171668 45.49236,41.416432 3.39372,1.788242 4.700384,2.208887 7.605231,2.448296 0.979137,0.0807 1.292411,0.156346 1.744423,0.421244 0.868917,0.509219 1.473213,1.623348 1.472069,2.714028 -5.88e-4,0.57576 -0.438559,1.536563 -0.895079,1.963653 -0.850174,0.795368 -1.834222,0.94279 -4.161938,0.623504 z"
   id="path854" /><path
   style="fill:#9dac93;stroke:#ffffff;stroke-width:0.117647"
   d="m 33.881373,43.5 c -1.910099,-1.145386 -1.86105,-3.733466 0.09245,-4.878295 0.709244,-0.415644 1.846537,-0.446731 2.555586,-0.06985 2.671141,1.419778 1.74234,5.330502 -1.265999,5.330502 -0.63062,0 -0.841878,-0.05845 -1.38204,-0.382353 z"
   id="path856" /><path
   style="fill:#9dac93;stroke:#ffffff;stroke-width:0.117647"
   d="m 32.058824,29.213647 c -1.023691,-0.228449 -1.765891,-0.771852 -2.209086,-1.617387 -0.328111,-0.625974 -0.341545,-1.707474 -0.02919,-2.349601 0.899687,-1.849521 3.204916,-2.22766 4.614663,-0.756968 1.05536,1.100984 1.011309,2.895351 -0.09686,3.945523 -0.590106,0.559222 -1.646028,0.919807 -2.27953,0.778433 z"
   id="path858" /><path
   style="fill:#9dac93;stroke:#ffffff;stroke-width:0.117647"
   d="m 48.875811,46.661918 c -1.140403,-0.531033 -1.805593,-1.688564 -1.66287,-2.893642 0.22972,-1.939627 2.294312,-3.048439 4.0485,-2.17429 2.12582,1.059341 2.044775,4.051862 -0.137252,5.067932 -0.765691,0.356547 -1.482687,0.356547 -2.248378,0 z"
   id="path860" /><path
   style="fill:#9dac93;stroke:#ffffff;stroke-width:0.117647"
   d="m 52.069498,61.46197 c -0.685262,-0.251076 -1.157162,-0.660434 -1.499494,-1.300764 -0.431393,-0.806919 -0.501791,-1.34271 -0.2777,-2.113554 0.792506,-2.726124 4.622886,-2.726124 5.415392,0 0.224091,0.770844 0.153693,1.306635 -0.2777,2.113554 -0.651489,1.218607 -2.077853,1.770717 -3.360498,1.300764 z"
   id="path862" /><path
   style="fill:#9dac93;stroke:#ffffff;stroke-width:0.117647"
   d="M 66.805271,61.472318 C 66.165782,61.237117 65.768275,60.944066 65.401005,60.437065 64.077751,58.610366 65.421732,56 67.685485,56 c 2.145444,0 3.500642,2.241714 2.484196,4.109259 -0.686649,1.2616 -2.092107,1.831008 -3.36441,1.363059 z"
   id="path864" /><path
   style="fill:#9dac93;stroke:#ffffff;stroke-width:0.117647"
   d="m 69.466034,73.19709 c -0.261328,-0.122183 -0.688774,-0.46485 -0.94988,-0.761482 -0.77135,-0.8763 -0.953229,-1.919606 -0.506635,-2.906196 0.321824,-0.710954 0.754081,-1.15009 1.461069,-1.484319 1.047498,-0.495205 2.080752,-0.319822 3.003503,0.50981 0.720894,0.648146 0.985054,1.298692 0.915847,2.255459 -0.06646,0.91886 -0.539154,1.700677 -1.320183,2.183551 -0.739192,0.457007 -1.871794,0.545388 -2.603721,0.203177 z"
   id="path866" /><path
   style="fill:#9dac93;stroke:#ffffff;stroke-width:0.117647"
   d="m 84.705121,76.249871 c -0.951257,-0.311465 -1.79125,-1.124519 -2.013148,-1.948585 -0.633727,-2.353481 1.772386,-4.374335 3.94352,-3.312098 2.09086,1.022963 2.106027,3.962081 0.02596,5.031636 -0.507215,0.260807 -1.503198,0.377416 -1.956337,0.229047 z"
   id="path868" /></svg>
