<?xml version="1.0" encoding="UTF-8" standalone="no"?>
<svg
   xmlns:dc="http://purl.org/dc/elements/1.1/"
   xmlns:cc="http://creativecommons.org/ns#"
   xmlns:rdf="http://www.w3.org/1999/02/22-rdf-syntax-ns#"
   xmlns:svg="http://www.w3.org/2000/svg"
   xmlns="http://www.w3.org/2000/svg"
   xmlns:sodipodi="http://sodipodi.sourceforge.net/DTD/sodipodi-0.dtd"
   xmlns:inkscape="http://www.inkscape.org/namespaces/inkscape"
   version="1.1"
   id="Layer_1"
   x="0px"
   y="0px"
   viewBox="0 0 100 100"
   enable-background="new 0 0 100 100"
   xml:space="preserve"
   sodipodi:docname="Piña color.svg"
   inkscape:version="1.0.1 (3bc2e813f5, 2020-09-07)"><metadata
   id="metadata15"><rdf:RDF><cc:Work
       rdf:about=""><dc:format>image/svg+xml</dc:format><dc:type
         rdf:resource="http://purl.org/dc/dcmitype/StillImage" /><dc:title></dc:title></cc:Work></rdf:RDF></metadata><defs
   id="defs13" /><sodipodi:namedview
   pagecolor="#ffffff"
   bordercolor="#666666"
   borderopacity="1"
   objecttolerance="10"
   gridtolerance="10"
   guidetolerance="10"
   inkscape:pageopacity="0"
   inkscape:pageshadow="2"
   inkscape:window-width="1920"
   inkscape:window-height="1017"
   id="namedview11"
   showgrid="false"
   inkscape:zoom="6.1376869"
   inkscape:cx="-13.565823"
   inkscape:cy="49.331914"
   inkscape:window-x="-8"
   inkscape:window-y="-8"
   inkscape:window-maximized="1"
   inkscape:current-layer="Layer_1" />
<g
   id="g8"
   transform="translate(-104.59967,0.48878349)">
	<path
   fill="#4d4d4d"
   d="m -16.026471,25.938021 c -8.4,-8.4 -19.4,-12.7 -30,-12.7 -0.9,0 -1.8,0.1 -2.7,0.1 -4.1,-6.7000002 -10.4,-13.20000023 -15.6,-14.8000002 -0.9,-0.3 -1.9,-0.1 -2.6,0.4 -0.8,0.59999997 -1.2,1.39999997 -1.2,2.4 v 4.5 c -0.4,-0.3 -0.8,-0.7 -1.2,-1 -6.2,-4.40000003 -14.5,-6.5 -25.4,-6.5 -1.6,0 -2.9,1.29999997 -2.9,2.9 0,11.9000002 2,19.7000002 6.5,25.4000002 0.3,0.4 0.6,0.7 0.9,1.1 h -4.5 c -0.9,0 -1.8,0.4 -2.4,1.2 -0.6,0.8 -0.7,1.7 -0.4,2.6 1.6,5.2 8,11.5 14.7,15.5 -0.8,11.5 3.4,23.6 12.6,32.8 8.4,8.4 19.4,12.7 30,12.7 9.7,0 19.1,-3.5 26.2,-10.6 15.00000006,-14.8 14.10000006,-39.9 -2,-56 z m -50,49.9 c -7,-7 -11,-16.3 -11,-25.8 0,-8.5 3.2,-16.3 8.9,-22 5.8,-5.7 13.6,-8.9 22.1,-8.9 9.4,0 18.9,4 25.8,10.9 7,7 11.0000001,16.3 11.0000001,25.8 0,8.5 -3.2000001,16.3 -8.9000001,22 -5.8,5.7 -13.6,8.9 -22.1,8.9 -9.4,0.1 -18.9,-3.9 -25.8,-10.9 z m 3.7,-69.5000002 c 2.4,2 5,4.9000002 7.1,8.0000002 -1.4,0.3 -2.7,0.7 -4,1.2 -1,-1.6 -2.1,-3.1 -3.3,-4.5 0.1,-0.3 0.2,-0.6 0.2,-1 z m -29.4,-2 c 8.2,0.3 14.4,2.1 18.9,5.3 3.2,2.3000002 6,5.1000002 8.3,8.5000002 -2.8,1.6 -5.4,3.5 -7.7,5.8 -0.2,0.2 -0.4,0.4 -0.6,0.7 -4.7,-3.6 -8.8,-8.1 -10.2,-12.4 -0.5,-1.5 -2.2,-2.4000002 -3.7,-1.9 -1.5,0.5 -2.4,2.2 -1.9,3.7 1.8,5.5 6.6,10.9 12.1,15.1 -0.6,0.9 -1.2,1.8 -1.7,2.8 -2.5,-2.2 -5.3,-5.2 -8.2,-8.9 -3.3,-4.1 -5,-9.9 -5.3,-18.7000002 z m 2.1,29.4000002 h 3.8 c 0.3,0 0.5,-0.1 0.8,-0.2 1.5,1.5 2.9,2.8 4.3,3.9 -0.4,1.1 -0.7,2.2 -1,3.3 -3.1,-2.1 -6,-4.6 -7.9,-7 z"
   id="path2" />
	<path
   fill="#4d4d4d"
   d="M 76.1,76.2 C 72,80.3 66.4,82.5 60.3,82.5 53.2,82.5 46,79.4 40.7,74.1 35.4,68.8 32.3,61.7 32.3,54.6 c 0,-6.1 2.2,-11.7 6.3,-15.7 1.2,-1.2 1.2,-3 0,-4.2 -1.2,-1.2 -3,-1.2 -4.2,0 -5.2,5.2 -8.1,12.3 -8.1,19.9 0,8.6 3.7,17.3 10.1,23.7 6.4,6.4 15.1,10.1 23.8,10.1 7.7,0 14.8,-2.9 20,-8 1.2,-1.1 1.2,-3 0,-4.2 -1,-1.2 -2.9,-1.2 -4.1,0 z"
   id="path4" />
	<path
   fill="#4d4d4d"
   d="m 79.5,56 h -5.9 v -8.8 h 5.9 c 1.6,0 2.9,-1.3 2.9,-2.9 0,-1.6 -1.3,-2.9 -2.9,-2.9 h -5.9 v -5.9 c 0,-1.6 -1.3,-2.9 -2.9,-2.9 -1.6,0 -2.9,1.3 -2.9,2.9 v 5.9 H 59 v -5.9 c 0,-1.6 -1.3,-2.9 -2.9,-2.9 -1.6,0 -2.9,1.3 -2.9,2.9 v 5.9 h -12 c -1.6,0 -2.9,1.3 -2.9,2.9 V 56 c -1.6,0 -2.9,1.3 -2.9,2.9 0,1.6 1.3,2.9 2.9,2.9 v 2.9 c 0,1.6 1.3,2.9 2.9,2.9 1.6,0 2.9,-1.3 2.9,-2.9 V 61.8 H 53 v 8.8 h -5.9 c -1.6,0 -2.9,1.3 -2.9,2.9 0,1.6 1.3,2.9 2.9,2.9 H 53 c 0,1.6 1.3,2.9 2.9,2.9 1.6,0 2.9,-1.3 2.9,-2.9 h 11.8 c 1.6,0 2.9,-1.3 2.9,-2.9 V 61.9 h 5.9 c 1.6,0 2.9,-1.3 2.9,-2.9 0.2,-1.7 -1.2,-3 -2.8,-3 z M 67.7,47.1 V 56 h -8.8 v -8.8 h 8.8 z M 44.1,56 V 47.2 H 53 V 56 Z m 23.6,14.7 h -8.8 v -8.8 h 8.8 z"
   id="path6" />
</g>
<path
   style="fill:#ffdd55;stroke:#000000;stroke-width:0.163184"
   d="M 56.88202,96.892098 C 56.613189,96.854169 55.571797,96.710461 54.567812,96.57275 45.750124,95.363273 37.090306,90.976479 30.477825,84.369509 27.921671,81.815488 26.74791,80.385391 24.743339,77.382682 22.091545,73.41048 20.073164,68.834844 18.934305,64.213707 18.099511,60.826373 17.849985,58.892382 17.739467,54.952924 L 17.641197,51.449975 15.8366,50.261746 C 13.182894,48.514426 11.365727,47.014324 8.8997734,44.535284 5.8945374,41.514097 3.9057994,38.610785 3.1057509,36.076726 2.7811376,35.048552 2.9356914,34.271139 3.628367,33.447941 4.4045596,32.525489 4.8216024,32.409509 7.7100614,32.312828 L 10.349152,32.224488 9.4557184,31.083994 C 5.8079414,26.427501 3.8544759,20.482307 3.1977732,12.038513 2.9512487,8.868734 2.9844124,5.1764563 3.2642182,4.6408653 3.5728284,4.0501383 4.3160394,3.364531 4.8779164,3.1522391 6.3235684,2.606034 14.903044,3.331966 19.327155,4.3748274 c 4.733899,1.1158851 9.5272,3.2726869 12.328472,5.5473393 0.373522,0.3033023 0.72178,0.5514593 0.773907,0.5514593 0.05213,0 0.09478,-1.1754349 0.09478,-2.6120781 0,-2.9060997 0.115404,-3.3989613 0.962821,-4.1120169 0.87979,-0.7402945 1.667225,-0.8563755 2.969255,-0.4377172 2.450488,0.7879371 5.101549,2.6576121 8.295987,5.8507871 2.462851,2.4618801 3.784343,4.0573961 5.725419,6.9126491 l 1.315973,1.935747 1.485097,-0.08536 c 1.965043,-0.112943 5.406064,0.123254 7.893557,0.541827 8.655461,1.456462 16.848352,5.730875 23.244814,12.127337 8.097184,8.097184 12.626502,18.739555 12.626502,29.66804 0,4.498759 -0.56551,8.109722 -1.89861,12.123358 -2.502715,7.535017 -7.500497,14.015143 -14.365956,18.6269 -1.700069,1.14199 -5.750455,3.154144 -7.745702,3.847913 -4.064678,1.413333 -7.402603,1.979207 -12.078251,2.047609 -1.971426,0.02884 -3.804364,0.0214 -4.073195,-0.01653 z m 6.517113,-5.694011 c 2.067386,-0.136027 4.551022,-0.642508 6.924433,-1.41208 10.426398,-3.380728 17.88637,-11.593318 20.262444,-22.306674 1.976253,-8.910615 0.04071,-18.803007 -5.240801,-26.785328 -1.582551,-2.39182 -2.691397,-3.767351 -4.644944,-5.762088 -5.602932,-5.721064 -12.516504,-9.392861 -20.315297,-10.789451 -2.419444,-0.433267 -7.092946,-0.590367 -9.449814,-0.317655 -7.517029,0.86979 -14.09566,4.057129 -19.063253,9.236121 -4.21118,4.39039 -6.888465,9.783161 -7.996976,16.108054 -0.488773,2.788829 -0.53205,7.703811 -0.09181,10.427381 1.48103,9.162523 6.139078,17.290339 13.384638,23.354823 5.752039,4.814415 13.335497,7.880633 20.598141,8.328442 2.005851,0.123679 2.657577,0.114245 5.63324,-0.08155 z M 19.386904,43.583253 19.858468,41.933446 19.310652,41.47802 c -0.301299,-0.250484 -1.282325,-1.115283 -2.180058,-1.921776 l -1.632243,-1.466351 -2.321722,0.04932 c -1.516239,0.03221 -2.321721,0.110071 -2.321721,0.224425 0,0.09631 0.89814,1.066894 1.995866,2.15686 1.946888,1.933121 5.582717,4.867008 5.903886,4.764065 0.08837,-0.02832 0.372884,-0.793915 0.632244,-1.70131 z m 3.786553,-8.378135 c 0.438428,-0.735329 0.817683,-1.383496 0.842789,-1.440367 0.02511,-0.05687 -0.524775,-0.571597 -1.221959,-1.143832 -1.735595,-1.424541 -4.754773,-4.37628 -5.988268,-5.85451 -2.535274,-3.038289 -4.983377,-7.525064 -4.969966,-9.108733 0.0099,-1.171553 1.183396,-2.544342 2.334625,-2.731161 1.589415,-0.257926 2.74747,0.604697 3.53673,2.634472 1.031093,2.651711 2.664194,4.91809 5.754837,7.986434 1.265308,1.256176 2.722114,2.603122 3.237349,2.99321 l 0.936789,0.709253 1.146728,-1.081768 c 1.608714,-1.517578 3.378298,-2.904086 5.352875,-4.194096 0.931227,-0.608379 1.77418,-1.133158 1.873227,-1.166174 0.211663,-0.07055 -1.256869,-2.061889 -2.873579,-3.896584 C 31.705447,17.288239 29.00179,14.958356 27.097731,13.708084 22.865218,10.928868 17.442872,9.3654447 10.46362,8.9119747 l -1.7761756,-0.115405 0.116577,1.8568273 c 0.439694,7.003455 1.8486886,12.127687 4.3468606,15.80866 0.743936,1.096165 2.516896,3.28529 4.205124,5.192187 1.384852,1.564226 4.716714,4.887835 4.899972,4.887835 0.06619,0 0.479052,-0.601632 0.917479,-1.336961 z M 45.12192,18.966936 c 0.257403,-0.09491 0.149838,-0.306181 -0.814639,-1.600049 -0.611159,-0.819885 -1.72921,-2.189875 -2.484555,-3.044422 -1.338037,-1.513763 -3.552014,-3.621221 -3.675025,-3.498211 -0.03373,0.03373 -0.07719,1.142585 -0.09657,2.464116 l -0.03524,2.402782 1.300459,1.749557 c 0.715252,0.962256 1.431659,1.976482 1.592015,2.253836 l 0.291558,0.504279 1.812717,-0.56127 c 0.996995,-0.308699 1.94617,-0.610477 2.109277,-0.670618 z"
   id="path840" /><path
   style="fill:#ffdd55;stroke:#000000;stroke-width:0.163184"
   d="M 54.751152,78.920205 C 53.938049,78.550913 53.419469,77.91854 53.1725,76.995148 l -0.186868,-0.698679 h -3.229998 c -3.456725,0 -3.949059,-0.08882 -4.637374,-0.836597 -1.003601,-1.090301 -1.077866,-2.632216 -0.176236,-3.659116 0.882441,-1.005045 1.059433,-1.043833 4.76308,-1.043833 h 3.348112 V 66.276408 61.795893 H 48.5727 44.092185 l -9.12e-4,1.425618 c -0.0015,2.290772 -0.436661,3.343035 -1.6356,3.954689 -1.081622,0.551802 -2.254851,0.379314 -3.143152,-0.462106 -0.748037,-0.708559 -0.833541,-0.990631 -0.921019,-3.038379 l -0.08326,-1.948982 -0.511887,-0.104165 c -1.261682,-0.256741 -2.344643,-1.503299 -2.335772,-2.68862 0.0092,-1.228603 1.158485,-2.59583 2.34373,-2.788169 l 0.585393,-0.09499 v -6.176432 c 0,-5.739298 0.02184,-6.219212 0.308519,-6.780919 0.169685,-0.332468 0.458102,-0.739765 0.640926,-0.905103 0.767319,-0.69393 1.279893,-0.743769 7.726462,-0.751265 l 6.150526,-0.0072 9.77e-4,-2.973433 c 4.89e-4,-1.635388 0.0787,-3.253563 0.173769,-3.595944 0.09508,-0.342381 0.424492,-0.901035 0.732038,-1.241452 1.341699,-1.485101 3.656011,-1.118538 4.486793,0.710662 0.260706,0.57402 0.302296,1.102739 0.305387,3.882342 l 0.0035,3.217825 h 4.480515 4.480515 l 0.0036,-3.217825 c 0.0031,-2.779603 0.04468,-3.308322 0.305387,-3.882342 0.981932,-2.162001 3.848899,-2.174958 5.025434,-0.02271 0.240968,0.440807 0.29501,1.049714 0.339352,3.82359 l 0.05274,3.299289 3.124351,0.0124 c 3.828982,0.01519 4.381553,0.177852 5.175521,1.523529 0.806096,1.366229 0.258156,3.117129 -1.195756,3.820956 -0.653377,0.31629 -0.985846,0.345594 -3.921025,0.345594 H 73.58212 v 4.480515 4.480516 l 3.299289,0.0027 c 3.11309,0.0025 3.335204,0.02322 3.935681,0.366587 0.826035,0.472349 1.239635,1.046411 1.350742,1.874776 0.134345,1.001616 -0.07071,1.769121 -0.648471,2.427153 -0.841181,0.958059 -1.184588,1.031286 -4.836379,1.031286 h -3.26379 v 6.115026 c 0,4.829991 -0.04714,6.225202 -0.224325,6.63931 -0.271283,0.63403 -0.995059,1.337124 -1.619219,1.572947 -0.294505,0.111272 -2.658604,0.173293 -6.605516,0.173293 h -6.14686 l -0.186869,0.698679 c -0.246969,0.923392 -0.765549,1.555765 -1.578651,1.925057 -0.840496,0.381734 -1.466106,0.381734 -2.306602,0 z M 67.71672,66.276408 V 61.795893 H 63.236205 58.75569 v 4.480515 4.480515 h 4.480515 4.480515 z M 53.053216,51.612903 V 47.132388 H 48.5727 44.092185 v 4.480515 4.480516 h 4.480515 4.480516 z m 14.663504,0 V 47.132388 H 63.236205 58.75569 v 4.480515 4.480516 h 4.480515 4.480515 z"
   id="path842" /><path
   style="fill:#ffdd55;stroke:#000000;stroke-width:0.163184"
   d="M 57.48086,88.177788 C 49.785025,87.434812 42.338641,83.860549 36.6636,78.185508 30.779543,72.30145 27.310421,64.869647 26.640838,56.71402 c -0.63206,-7.698601 2.185941,-15.843337 7.33715,-21.206218 1.240986,-1.29198 1.705042,-1.572568 2.60082,-1.572568 1.683968,0 2.951398,1.261752 2.951398,2.938179 0,0.86301 -0.13239,1.0917 -1.596653,2.758056 -5.570601,6.339436 -7.022911,14.960664 -3.99185,23.696489 3.663596,10.558863 13.801951,18.4062 24.727034,19.139339 6.695509,0.44931 12.410379,-1.457246 17.151849,-5.72208 1.358701,-1.222117 2.167375,-1.532552 3.23103,-1.240326 1.402304,0.385264 2.36328,2.083039 1.996638,3.527495 -0.142935,0.563121 -0.444169,0.946261 -1.581097,2.01101 -5.562261,5.209137 -13.900927,7.914972 -21.986297,7.134392 z"
   id="path844" /></svg>
