<?xml version="1.0" encoding="utf-8"?>
<!-- Generator: Adobe Illustrator 18.0.0, SVG Export Plug-In . SVG Version: 6.00 Build 0)  -->
<!DOCTYPE svg PUBLIC "-//W3C//DTD SVG 1.1//EN" "http://www.w3.org/Graphics/SVG/1.1/DTD/svg11.dtd">
<svg version="1.1" id="Layer_1" xmlns="http://www.w3.org/2000/svg" xmlns:xlink="http://www.w3.org/1999/xlink" x="0px" y="0px"
	 viewBox="0 0 100 100" enable-background="new 0 0 100 100" xml:space="preserve">
<g>
	<path fill="#4D4D4D" d="M84.5,30.5c-8.4-8.4-19.4-12.7-30-12.7c-0.9,0-1.8,0.1-2.7,0.1C47.7,11.2,41.4,4.7,36.2,3.1
		c-0.9-0.3-1.9-0.1-2.6,0.4c-0.8,0.6-1.2,1.4-1.2,2.4v4.5c-0.4-0.3-0.8-0.7-1.2-1C25,5,16.7,2.9,5.8,2.9c-1.6,0-2.9,1.3-2.9,2.9
		c0,11.9,2,19.7,6.5,25.4c0.3,0.4,0.6,0.7,0.9,1.1H5.8c-0.9,0-1.8,0.4-2.4,1.2c-0.6,0.8-0.7,1.7-0.4,2.6c1.6,5.2,8,11.5,14.7,15.5
		c-0.8,11.5,3.4,23.6,12.6,32.8c8.4,8.4,19.4,12.7,30,12.7c9.7,0,19.1-3.5,26.2-10.6C101.5,71.7,100.6,46.6,84.5,30.5z M34.5,80.4
		c-7-7-11-16.3-11-25.8c0-8.5,3.2-16.3,8.9-22c5.8-5.7,13.6-8.9,22.1-8.9c9.4,0,18.9,4,25.8,10.9c7,7,11,16.3,11,25.8
		c0,8.5-3.2,16.3-8.9,22c-5.8,5.7-13.6,8.9-22.1,8.9C50.9,91.4,41.4,87.4,34.5,80.4z M38.2,10.9c2.4,2,5,4.9,7.1,8
		c-1.4,0.3-2.7,0.7-4,1.2c-1-1.6-2.1-3.1-3.3-4.5c0.1-0.3,0.2-0.6,0.2-1V10.9z M8.8,8.9C17,9.2,23.2,11,27.7,14.2
		c3.2,2.3,6,5.1,8.3,8.5c-2.8,1.6-5.4,3.5-7.7,5.8c-0.2,0.2-0.4,0.4-0.6,0.7c-4.7-3.6-8.8-8.1-10.2-12.4c-0.5-1.5-2.2-2.4-3.7-1.9
		c-1.5,0.5-2.4,2.2-1.9,3.7c1.8,5.5,6.6,10.9,12.1,15.1c-0.6,0.9-1.2,1.8-1.7,2.8c-2.5-2.2-5.3-5.2-8.2-8.9
		C10.8,23.5,9.1,17.7,8.8,8.9z M10.9,38.3h3.8c0.3,0,0.5-0.1,0.8-0.2c1.5,1.5,2.9,2.8,4.3,3.9c-0.4,1.1-0.7,2.2-1,3.3
		C15.7,43.2,12.8,40.7,10.9,38.3z"/>
	<path fill="#4D4D4D" d="M76.1,76.2c-4.1,4.1-9.7,6.3-15.8,6.3c-7.1,0-14.3-3.1-19.6-8.4c-5.3-5.3-8.4-12.4-8.4-19.5
		c0-6.1,2.2-11.7,6.3-15.7c1.2-1.2,1.2-3,0-4.2c-1.2-1.2-3-1.2-4.2,0c-5.2,5.2-8.1,12.3-8.1,19.9c0,8.6,3.7,17.3,10.1,23.7
		c6.4,6.4,15.1,10.1,23.8,10.1c7.7,0,14.8-2.9,20-8c1.2-1.1,1.2-3,0-4.2C79.2,75,77.3,75,76.1,76.2z"/>
	<path fill="#4D4D4D" d="M79.5,56h-5.9v-8.8h5.9c1.6,0,2.9-1.3,2.9-2.9c0-1.6-1.3-2.9-2.9-2.9h-5.9v-5.9c0-1.6-1.3-2.9-2.9-2.9
		c-1.6,0-2.9,1.3-2.9,2.9v5.9h-8.8v-5.9c0-1.6-1.3-2.9-2.9-2.9c-1.6,0-2.9,1.3-2.9,2.9v5.9H41.2c-1.6,0-2.9,1.3-2.9,2.9V56
		c-1.6,0-2.9,1.3-2.9,2.9c0,1.6,1.3,2.9,2.9,2.9v2.9c0,1.6,1.3,2.9,2.9,2.9c1.6,0,2.9-1.3,2.9-2.9v-2.9H53v8.8h-5.9
		c-1.6,0-2.9,1.3-2.9,2.9c0,1.6,1.3,2.9,2.9,2.9H53c0,1.6,1.3,2.9,2.9,2.9c1.6,0,2.9-1.3,2.9-2.9h11.8c1.6,0,2.9-1.3,2.9-2.9V61.9
		h5.9c1.6,0,2.9-1.3,2.9-2.9C82.5,57.3,81.1,56,79.5,56z M67.7,47.1V56h-8.8v-8.8H67.7z M44.1,56v-8.8H53V56H44.1z M67.7,70.7h-8.8
		v-8.8h8.8V70.7z"/>
</g>
</svg>
