<?xml version="1.0" encoding="UTF-8" standalone="no"?>
<svg
   xmlns:dc="http://purl.org/dc/elements/1.1/"
   xmlns:cc="http://creativecommons.org/ns#"
   xmlns:rdf="http://www.w3.org/1999/02/22-rdf-syntax-ns#"
   xmlns:svg="http://www.w3.org/2000/svg"
   xmlns="http://www.w3.org/2000/svg"
   xmlns:sodipodi="http://sodipodi.sourceforge.net/DTD/sodipodi-0.dtd"
   xmlns:inkscape="http://www.inkscape.org/namespaces/inkscape"
   version="1.1"
   id="Layer_1"
   x="0px"
   y="0px"
   viewBox="0 0 100 100"
   enable-background="new 0 0 100 100"
   xml:space="preserve"
   sodipodi:docname="Plátano .svg"
   inkscape:version="1.0.1 (3bc2e813f5, 2020-09-07)"><metadata
   id="metadata11"><rdf:RDF><cc:Work
       rdf:about=""><dc:format>image/svg+xml</dc:format><dc:type
         rdf:resource="http://purl.org/dc/dcmitype/StillImage" /><dc:title></dc:title></cc:Work></rdf:RDF></metadata><defs
   id="defs9" /><sodipodi:namedview
   pagecolor="#ffffff"
   bordercolor="#666666"
   borderopacity="1"
   objecttolerance="10"
   gridtolerance="10"
   guidetolerance="10"
   inkscape:pageopacity="0"
   inkscape:pageshadow="2"
   inkscape:window-width="1920"
   inkscape:window-height="1017"
   id="namedview7"
   showgrid="false"
   inkscape:zoom="3.0688434"
   inkscape:cx="-115.30695"
   inkscape:cy="90.265027"
   inkscape:window-x="-8"
   inkscape:window-y="-8"
   inkscape:window-maximized="1"
   inkscape:current-layer="Layer_1" />
<g
   id="g4"
   transform="translate(-98.732719,1.1520737)">
	<path
   fill="#2c3136"
   d="M 91.8,60 C 88.5,59.5 85.3,59.1 82.3,58.7 75.4,57.8 69.5,57 64.2,55.6 63.7,55.5 63.3,55.4 62.9,55.2 58.9,52 56.1,40.1 56.1,29.5 56.1,28.3 55.4,27.3 54.3,26.8 53.2,26.3 52,26.5 51.1,27.3 46.3,31.7 42.9,36.1 40.6,40.6 38.5,38 36.5,35.1 34.4,31.7 32.3,28.3 30.3,24.5 28.2,20.5 25.9,16.2 23.3,11.3 20.2,6.1 20.2,6.1 20.1,5.9 20.1,5.9 19.5,4.9 18.6,4.1 17.6,3.6 16.1,2.8 14.4,2.7 12.8,3.2 11.2,3.9 9.9,5 9.1,6.6 6.3,12.3 4.5,18.2 3.7,24 l -0.6,4.3 c 0,0.1 0,0.2 0,0.4 v 4.5 0.7 c 0.1,2.8 0.1,5.8 0.8,8.7 0.5,2.8 1,6.2 2.3,9.5 1,2.9 2.2,6.2 4.1,9.4 l 0.5,0.9 c 0.7,1.2 1.3,2.3 2.2,3.6 1.1,1.5 2.2,2.9 3.2,4.1 1.1,1.4 2.3,2.7 3.6,3.9 -4.7,5.4 -7.8,12.3 -7.8,20.4 0,1.1 0.6,2.1 1.5,2.6 0.4,0.2 0.9,0.4 1.4,0.4 0.6,0 1.1,-0.2 1.6,-0.5 7.5,-5 22.3,-8.3 36.6,-8.3 0.2,0 0.4,-0.1 0.5,-0.1 0.6,0 1.3,0.1 1.9,0.1 2.8,0 5.6,-0.2 8.3,-0.7 12.7,-2.2 23.7,-8.1 31.8,-17.1 0.9,-0.9 1.4,-2.1 1.6,-3.4 0.5,-3.6 -1.8,-6.8 -5.4,-7.4 z m -40,22.3 0.1,0.2 C 39.4,82.7 27,85.1 18.4,89 21,77 32.3,69 43.3,67.9 c 4.8,4.6 10.8,8.5 19.8,8.5 4.2,0 9,-0.9 14.7,-3 1.5,-0.6 2.3,-2.3 1.7,-3.8 -0.6,-1.5 -2.3,-2.3 -3.8,-1.7 -15.9,5.9 -23.1,0.9 -29,-4.9 -5,-8.9 -3.8,-17.6 3.9,-26.7 0.9,8.5 3.4,19.9 9.4,24 l -0.2,0.1 c 0.2,0.1 0.4,0.1 0.6,0.2 1.3,0.8 2.9,1.3 4.6,1.3 0.1,0 0.2,-0.1 0.3,-0.1 4.9,1.1 10.2,1.9 16.3,2.7 3,0.4 6.1,0.8 9.6,1.3 0.2,0 0.4,0.3 0.3,0.5 0,0 -0.1,0.3 -0.1,0.3 C 84,74.7 74.2,80 62.9,82 59.3,82.5 55.6,82.6 51.8,82.3 Z M 15.9,59.4 15.3,58.4 C 13.6,55.7 12.6,52.7 11.7,50 10.7,47.4 10.2,44.7 9.6,41.4 9,38.9 9,36.4 9,33.8 V 33.2 29 L 9.6,24.8 C 10.3,19.6 11.9,14.4 14.4,9.3 14.5,9.1 14.6,9 14.7,9 l 0.5,0.2 0.1,0.1 c 0,0 0,0 0,0 3,5 5.5,9.6 7.9,14.1 2.2,4.1 4.2,8 6.4,11.5 2.9,4.8 5.8,8.8 8.9,12.1 -1.2,5.1 -0.7,10.3 1.5,15.5 -2.7,0.5 -5.4,1.4 -8,2.5 -1.5,-1.3 -3,-2.6 -4,-4 l -0.3,-0.4 c -0.9,-1 -1.7,-2 -2.4,-2.9 -0.6,-0.9 -1.1,-1.8 -1.6,-2.8 L 23,54 C 21.8,52.1 21.1,50.1 20.1,47.3 L 20,46.8 C 19.3,44.9 18.9,42.8 18.4,40 L 18.3,39.5 C 17.9,37.9 17.9,35.9 17.9,33.6 V 33 29.6 L 18.4,26 c 0.2,-1.6 -0.9,-3.1 -2.5,-3.3 -1.6,-0.2 -3.1,0.9 -3.3,2.5 L 12,28.9 c 0,0.1 0,0.2 0,0.4 v 3.7 0.8 c 0,2.5 0.1,4.8 0.6,6.9 l 0.1,0.4 c 0.5,3.1 1,5.5 1.9,7.8 l 0.1,0.3 c 1,3.1 2,5.5 3.4,7.8 l 0.5,0.9 c 0.6,1 1.1,2 1.9,3.1 0.8,1.2 1.8,2.3 2.7,3.3 l 0.2,0.3 c 0.9,1.2 2,2.3 3.2,3.4 -0.8,0.6 -1.6,1.2 -2.4,1.8 C 23,68.7 21.9,67.5 21,66.3 20,65 18.9,63.8 18.1,62.6 c -0.9,-1 -1.5,-2.1 -2.2,-3.2 z"
   id="path2" />
</g>
<path
   style="fill:#d3bc5f;stroke:#000000;stroke-width:0.115389"
   d="m 13.840087,97.171967 c -0.776564,-0.274174 -1.561229,-1.121802 -1.800546,-1.945022 -0.445271,-1.53168 0.183286,-6.506818 1.242866,-9.837494 1.221053,-3.83825 3.390371,-7.776555 5.908484,-10.726599 L 19.70157,74.064575 18.48743,72.797521 C 17.306756,71.565391 15.165739,68.997955 13.760448,67.129082 12.67087,65.680069 11.995786,64.632387 10.753932,62.463183 8.6936804,58.864445 7.9577654,57.254629 6.3876945,52.912019 5.0795231,49.293788 4.8089957,48.213506 3.7018247,42.186686 3.1866313,39.382261 3.111831,38.346349 3.0446387,33.085303 l -0.061063,-4.781106 0.420965,-2.937788 C 4.0825214,20.634987 4.7405138,17.721649 5.9498233,14.096873 7.3278524,9.9663762 9.0458384,6.2373506 10.090691,5.1087846 c 0.770271,-0.8319845 2.102258,-1.6990536 2.96141,-1.927757 0.81598,-0.217211 2.321506,-0.207935 3.093853,0.019062 1.9905,0.5850194 3.078253,1.6048844 4.683699,4.3913814 2.368564,4.111007 4.56637,8.107719 7.462118,13.569869 4.017051,7.577225 5.343665,9.881442 7.926275,13.767281 1.303149,1.960737 4.088256,5.760369 4.222317,5.760369 0.04166,0 0.194783,-0.246256 0.340271,-0.547235 0.360923,-0.746667 1.280363,-2.271846 2.205338,-3.658243 1.671642,-2.505534 3.774477,-4.975135 6.579353,-7.72689 1.912817,-1.876591 2.315968,-2.125757 3.430818,-2.120402 0.990621,0.0048 2.069702,0.704151 2.573493,1.667977 0.210956,0.40359 0.252502,0.761339 0.334484,2.880184 0.299137,7.731284 1.58348,14.500133 3.679794,19.393551 0.785606,1.833838 1.527507,3.038987 2.464287,4.003002 l 0.806451,0.829899 1.958526,0.467255 c 4.942206,1.179085 7.666739,1.625255 19.470046,3.18842 7.513426,0.995036 8.036494,1.086779 9.114149,1.598554 3.249591,1.543224 4.55342,5.509374 2.897338,8.813484 -0.678889,1.354479 -4.785803,5.364475 -8.009184,7.820178 -6.558884,4.996825 -14.471466,8.528017 -22.896313,10.218068 -4.079282,0.818315 -5.682901,0.963015 -11.520737,1.039545 -8.244843,0.108084 -13.442534,0.595498 -19.736693,1.850814 -7.041,1.404266 -13.584786,3.710203 -17.194212,6.058997 -1.365212,0.888395 -2.103722,1.056678 -3.097485,0.705819 z m 5.498124,-8.5517 c 5.986783,-2.596609 14.820502,-4.661795 23.643169,-5.527403 2.846438,-0.279268 5.891516,-0.46839 7.54163,-0.46839 0.667772,0 1.214123,-0.03888 1.214111,-0.08641 -1e-5,-0.04752 1.775623,-0.0864 3.945853,-0.0864 5.190695,0 6.768818,-0.175291 10.973521,-1.218889 8.989854,-2.231261 17.524325,-7.112426 23.663234,-13.533836 0.828781,-0.866921 1.048748,-1.16716 1.048748,-1.431472 0,-0.183954 -0.05691,-0.369633 -0.126458,-0.412619 -0.143971,-0.08898 -1.109744,-0.228032 -8.341284,-1.201 -8.215874,-1.105403 -12.847571,-1.834341 -15.812321,-2.488547 -0.774658,-0.170937 -1.821678,-0.313294 -2.448048,-0.332847 -1.347423,-0.04206 -2.288872,-0.275729 -3.606512,-0.895141 -1.119892,-0.52645 -1.553508,-0.858 -2.874705,-2.198045 -3.44246,-3.491564 -6.07727,-10.59136 -7.29311,-19.65211 -0.411805,-3.068885 -0.357349,-2.8469 -0.636426,-2.594339 -0.885384,0.801262 -3.249677,4.310076 -4.302386,6.385112 -1.712002,3.374592 -2.42012,6.200563 -2.410487,9.619816 0.0093,3.284889 0.746264,6.206987 2.392022,9.483885 0.427369,0.850946 0.676561,1.171977 1.568737,2.020999 0.583364,0.555147 1.534176,1.389293 2.112916,1.853659 6.680912,5.360591 14.050738,6.138152 24.614305,2.59696 1.132932,-0.379789 2.182711,-0.690527 2.332842,-0.690527 1.191901,0 2.457788,0.965517 2.797359,2.1336 0.471192,1.620843 -0.371957,2.948591 -2.336144,3.678844 -3.105324,1.154509 -6.956359,2.113162 -10.227074,2.545868 -1.797797,0.237842 -5.485004,0.272998 -7.085254,0.06756 -5.851456,-0.751219 -10.795276,-3.116409 -15.537481,-7.433339 -0.530062,-0.482526 -1.035876,-0.877321 -1.12403,-0.877321 -0.432701,0 -2.656705,0.387188 -3.730194,0.649408 -9.089018,2.220163 -16.762873,8.613557 -19.924399,16.599812 -0.611605,1.544958 -1.293917,3.948937 -1.120814,3.948937 0.02076,0 0.510662,-0.205119 1.08868,-0.45582 z m 5.891107,-19.606153 c 0.607529,-0.452288 1.145798,-0.858984 1.196154,-0.903771 0.05036,-0.04479 -0.329404,-0.491086 -0.843914,-0.99178 -0.514511,-0.500693 -1.229675,-1.268572 -1.589255,-1.706396 -0.359578,-0.437824 -1.120802,-1.345757 -1.691607,-2.017629 -1.35194,-1.591318 -2.254635,-2.858527 -3.248583,-4.560387 -2.356924,-4.035575 -2.919229,-5.237382 -4.290598,-9.170238 -1.023768,-2.935997 -1.337721,-4.075166 -1.79083,-6.497965 -0.165904,-0.887096 -0.380454,-1.975806 -0.476778,-2.419355 -0.419278,-1.93067 -0.521562,-3.242665 -0.579316,-7.430875 l -0.05799,-4.205069 0.355389,-2.165461 c 0.387655,-2.362061 0.550756,-2.810509 1.252899,-3.444853 0.557359,-0.50354 1.150975,-0.716166 1.981927,-0.709901 1.304895,0.0098 2.502373,1.078553 2.713131,2.421393 0.03919,0.249681 -0.05991,1.36766 -0.227362,2.564891 -0.247608,1.770363 -0.296203,2.544083 -0.293053,4.665898 0.0069,4.671952 0.152094,6.018567 1.162141,10.780936 0.867611,4.090788 2.871941,9.363606 4.247941,11.175115 0.264718,0.348502 0.638731,0.944701 0.831139,1.324885 0.551501,1.089726 1.476876,2.437296 2.524572,3.676387 0.531,0.628005 1.230117,1.484165 1.553591,1.902578 0.56499,0.73081 2.996963,3.138565 3.613732,3.577742 0.293433,0.208943 0.308966,0.207091 1.100877,-0.131168 1.27944,-0.546504 4.369866,-1.541357 5.843568,-1.881127 0.744527,-0.171655 1.353686,-0.343339 1.353686,-0.381521 0,-0.03818 -0.178733,-0.538586 -0.397185,-1.11201 -0.809519,-2.124939 -1.308692,-4.161709 -1.566857,-6.393232 -0.197205,-1.704595 -0.08428,-5.002167 0.228489,-6.671892 L 38.38028,47.001058 37.829446,46.37014 C 32.966141,40.799766 29.709855,35.784088 23.968993,25.020787 19.111482,15.913642 15.31934,9.2305309 14.922952,9.0784224 14.434383,8.8909406 14.310635,8.996816 13.828242,10.015026 c -1.305021,2.754577 -2.579509,6.263713 -3.336925,9.187789 -0.5686786,2.195436 -0.8025396,3.444239 -1.3268376,7.085253 l -0.423036,2.937788 0.05886,4.608295 c 0.06552,5.129914 0.07185,5.192441 0.99098,9.792627 0.6550886,3.278682 0.8742036,4.09061 1.9276446,7.142857 0.88807,2.573101 1.448552,4.00763 2.096787,5.366628 0.706867,1.481918 2.684777,4.71308 3.802413,6.211713 2.441045,3.273184 6.037514,7.488479 6.389135,7.488479 0.0646,0 0.614526,-0.370053 1.222054,-0.822341 z"
   id="path836" /></svg>
