<?xml version="1.0" encoding="utf-8"?>
<!-- Generator: Adobe Illustrator 18.0.0, SVG Export Plug-In . SVG Version: 6.00 Build 0)  -->
<!DOCTYPE svg PUBLIC "-//W3C//DTD SVG 1.1//EN" "http://www.w3.org/Graphics/SVG/1.1/DTD/svg11.dtd">
<svg version="1.1" id="Layer_1" xmlns="http://www.w3.org/2000/svg" xmlns:xlink="http://www.w3.org/1999/xlink" x="0px" y="0px"
	 viewBox="0 0 100 100" enable-background="new 0 0 100 100" xml:space="preserve">
<g>
	<path fill="#FFFFFF" d="M91.8,60c-3.3-0.5-6.5-0.9-9.5-1.3c-6.9-0.9-12.8-1.7-18.1-3.1c-0.5-0.1-0.9-0.2-1.3-0.4
		c-4-3.2-6.8-15.1-6.8-25.7c0-1.2-0.7-2.2-1.8-2.7c-1.1-0.5-2.3-0.3-3.2,0.5c-4.8,4.4-8.2,8.8-10.5,13.3c-2.1-2.6-4.1-5.5-6.2-8.9
		c-2.1-3.4-4.1-7.2-6.2-11.2c-2.3-4.3-4.9-9.2-8-14.4c0,0-0.1-0.2-0.1-0.2c-0.6-1-1.5-1.8-2.5-2.3c-1.5-0.8-3.2-0.9-4.8-0.4
		C11.2,3.9,9.9,5,9.1,6.6C6.3,12.3,4.5,18.2,3.7,24l-0.6,4.3c0,0.1,0,0.2,0,0.4l0,4.5l0,0.7c0.1,2.8,0.1,5.8,0.8,8.7
		c0.5,2.8,1,6.2,2.3,9.5c1,2.9,2.2,6.2,4.1,9.4l0.5,0.9c0.7,1.2,1.3,2.3,2.2,3.6c1.1,1.5,2.2,2.9,3.2,4.1c1.1,1.4,2.3,2.7,3.6,3.9
		c-4.7,5.4-7.8,12.3-7.8,20.4c0,1.1,0.6,2.1,1.5,2.6c0.4,0.2,0.9,0.4,1.4,0.4c0.6,0,1.1-0.2,1.6-0.5c7.5-5,22.3-8.3,36.6-8.3
		c0.2,0,0.4-0.1,0.5-0.1c0.6,0,1.3,0.1,1.9,0.1c2.8,0,5.6-0.2,8.3-0.7c12.7-2.2,23.7-8.1,31.8-17.1c0.9-0.9,1.4-2.1,1.6-3.4
		C97.7,63.8,95.4,60.6,91.8,60z M51.8,82.3l0.1,0.2c-12.5,0.2-24.9,2.6-33.5,6.5c2.6-12,13.9-20,24.9-21.1
		c4.8,4.6,10.8,8.5,19.8,8.5c4.2,0,9-0.9,14.7-3c1.5-0.6,2.3-2.3,1.7-3.8c-0.6-1.5-2.3-2.3-3.8-1.7c-15.9,5.9-23.1,0.9-29-4.9
		c-5-8.9-3.8-17.6,3.9-26.7c0.9,8.5,3.4,19.9,9.4,24l-0.2,0.1c0.2,0.1,0.4,0.1,0.6,0.2c1.3,0.8,2.9,1.3,4.6,1.3
		c0.1,0,0.2-0.1,0.3-0.1c4.9,1.1,10.2,1.9,16.3,2.7c3,0.4,6.1,0.8,9.6,1.3c0.2,0,0.4,0.3,0.3,0.5c0,0-0.1,0.3-0.1,0.3
		C84,74.7,74.2,80,62.9,82C59.3,82.5,55.6,82.6,51.8,82.3z M15.9,59.4l-0.6-1c-1.7-2.7-2.7-5.7-3.6-8.4c-1-2.6-1.5-5.3-2.1-8.6
		c-0.6-2.5-0.6-5-0.6-7.6l0-0.6l0-4.2l0.6-4.2c0.7-5.2,2.3-10.4,4.8-15.5C14.5,9.1,14.6,9,14.7,9l0.5,0.2l0.1,0.1c0,0,0,0,0,0
		c3,5,5.5,9.6,7.9,14.1c2.2,4.1,4.2,8,6.4,11.5c2.9,4.8,5.8,8.8,8.9,12.1c-1.2,5.1-0.7,10.3,1.5,15.5c-2.7,0.5-5.4,1.4-8,2.5
		c-1.5-1.3-3-2.6-4-4l-0.3-0.4c-0.9-1-1.7-2-2.4-2.9c-0.6-0.9-1.1-1.8-1.6-2.8L23,54c-1.2-1.9-1.9-3.9-2.9-6.7L20,46.8
		c-0.7-1.9-1.1-4-1.6-6.8l-0.1-0.5c-0.4-1.6-0.4-3.6-0.4-5.9l0-0.6l0-3.4l0.5-3.6c0.2-1.6-0.9-3.1-2.5-3.3c-1.6-0.2-3.1,0.9-3.3,2.5
		L12,28.9c0,0.1,0,0.2,0,0.4l0,3.7l0,0.8c0,2.5,0.1,4.8,0.6,6.9l0.1,0.4c0.5,3.1,1,5.5,1.9,7.8l0.1,0.3c1,3.1,2,5.5,3.4,7.8l0.5,0.9
		c0.6,1,1.1,2,1.9,3.1c0.8,1.2,1.8,2.3,2.7,3.3l0.2,0.3c0.9,1.2,2,2.3,3.2,3.4c-0.8,0.6-1.6,1.2-2.4,1.8c-1.2-1.1-2.3-2.3-3.2-3.5
		c-1-1.3-2.1-2.5-2.9-3.7C17.2,61.6,16.6,60.5,15.9,59.4z"/>
</g>
</svg>
