<?xml version="1.0" encoding="utf-8"?>
<!-- Generator: Adobe Illustrator 18.0.0, SVG Export Plug-In . SVG Version: 6.00 Build 0)  -->
<!DOCTYPE svg PUBLIC "-//W3C//DTD SVG 1.1//EN" "http://www.w3.org/Graphics/SVG/1.1/DTD/svg11.dtd">
<svg version="1.1" id="Layer_1" xmlns="http://www.w3.org/2000/svg" xmlns:xlink="http://www.w3.org/1999/xlink" x="0px" y="0px"
	 viewBox="0 0 100 100" enable-background="new 0 0 100 100" xml:space="preserve">
<path fill="#FFFFFF" d="M89.7,65.1c-0.3-0.2-7.2-6-15-5.2c-4,0.4-7.4,2.4-10.2,5.9c-0.9,1.1-0.7,2.6,0.4,3.5
	c1.1,0.9,2.6,0.7,3.5-0.4c2-2.5,4.2-3.8,6.8-4.1c3.9-0.4,7.8,1.6,9.9,3c-2.3,4.3-6.1,6.5-11.6,6.6c-4.5,0-7.7-2-7.8-2.1
	c-0.1-0.1-0.3-0.2-0.5-0.2c-0.7-0.4-1.6-0.4-2.3,0c-5.8,3.2-10.4,7.5-13.5,11.8V62.8c2,0.9,4.3,1.2,6.2,1.2c2.3,0,4.2-0.4,4.3-0.4
	c1.1-0.2,1.9-1.2,1.9-2.4c0-0.9,0-5.6-1.3-8.3c2.9-1.3,5.1-3.1,6.3-5.5c3.8-7.1-1.7-15.8-2.3-16.8c-2.9-5.1,0.4-12.5,0.4-12.6
	c0.4-0.8,0.3-1.8-0.2-2.5c-0.5-0.7-1.4-1.1-2.3-1c-0.6,0.1-1.3,0.2-1.9,0.3c-0.2-1.2-0.6-4.1-0.3-6.5c0.2-1.3-0.7-2.6-2.1-2.8
	c-0.3,0-7.4-1.1-13.7,4.7c-1,0.9-1.1,2.5-0.2,3.5c0.9,1,2.5,1.1,3.5,0.2c2.7-2.4,5.5-3.2,7.4-3.4c0,2.6,0.4,4.9,0.5,5.5
	c-0.7,0.2-1.5,0.4-2.3,0.7c-1.3,0.4-2,1.8-1.6,3.1c0.4,1.3,1.8,2,3.1,1.6c1.4-0.5,2.8-0.8,4.2-1.1c-0.8,3.5-1.3,8.6,1.2,13
	c0,0,0.1,0.1,0.1,0.1c0,0.1,4.6,7.1,2.1,11.8c-1.8,3.4-7.3,5.2-15.8,5.2c-7.3,0-12.1-1.6-14-4.5c-2.1-3.4-0.3-8.2,0.6-10.1
	c2-4.2,7.1-8.3,14.4-11.7c1.2-0.6,1.8-2,1.2-3.3c0,0,0,0,0-0.1c-0.1-0.2-0.2-0.4-0.3-0.6c-0.1-0.2-3-4.3-6.6-6.5
	c-0.9-0.6-2.1-1.1-3.4-1.6l1.3-4c0.4,0,0.9,0.1,1.4,0.2c1.3,0.2,2.6-0.6,2.9-2c0.2-1.3-0.6-2.6-2-2.9c-2.2-0.4-4-0.3-4.2-0.3
	c-1,0.1-1.9,0.7-2.2,1.7L34,10.1c-0.2-0.1-0.3-0.1-0.5-0.2c-0.8-0.3-1.7-0.1-2.4,0.4c-0.7,0.5-1,1.4-0.9,2.2c0,0,0.5,4.4,0.8,8
	c0.1,1.4,1.2,2.4,2.6,2.3c1.4-0.1,2.4-1.2,2.3-2.6c-0.1-1.5-0.2-3.1-0.4-4.4c1.4,0.5,2.9,1.2,3.8,1.7c1.3,0.8,2.5,2,3.5,3.1
	c-5.4,2.8-11.4,7-14.1,12.7c-1.5,3.3-3.6,9.6-0.3,14.9c1.2,1.9,2.9,3.3,5.2,4.4c-1.4,2.7-1.3,7.5-1.3,8.4c0,1.1,0.8,2.1,1.9,2.4
	c0.1,0,2,0.4,4.4,0.4c0.4,0,0.7,0,1.1,0c1.4-0.1,2.4-1.2,2.3-2.6c-0.1-1.4-1.3-2.4-2.6-2.3c-0.8,0-1.5,0-2.2,0
	c0.1-1.5,0.3-3.1,0.7-4c0.1-0.2,0.2-0.4,0.2-0.7c1.8,0.4,3.9,0.7,6.1,0.8v25.1c-1.7-1.9-4-3.9-7.4-5.7c-2.9-4.8-6.2-7.9-9.9-9.4
	c-9.3-3.7-17.1,4.6-17.4,5c-0.7,0.7-0.8,1.8-0.4,2.7c3.1,6.8,9.2,8.2,11.8,8.8c0.2,0,0.4,0.1,0.6,0.1c1.1,0,2.1-0.8,2.4-1.9
	c0.3-1.3-0.5-2.7-1.8-3c-2.7-0.6-5.6-1.6-7.6-4.5c2-1.7,6.2-4.3,10.7-2.6c2.7,1.1,5.2,3.6,7.5,7.5c0.1,0.2,0.3,0.4,0.5,0.6
	c0.2,0.2,0.3,0.5,0.6,0.6c-2.8,0.1-5.2,0.9-7,2.5c-5.1,4.3-4.1,12.5-4.1,12.8c0.2,1.2,1.2,2.2,2.4,2.2c0.1,0,0.2,0,0.3,0
	c5.4,0,9.7-1.3,12.7-3.8c1-0.9,1.2-2.5,0.3-3.5c-0.9-1-2.5-1.2-3.5-0.3c-1.7,1.4-4.1,2.3-7.3,2.6c0.1-1.9,0.6-4.6,2.4-6.2
	c1.9-1.6,5-1.7,9.2-0.5c0.2,0.1,3.8,1.3,5.1,5.2v5.3c0,1.4,1.1,2.5,2.5,2.5c1.4,0,2.4-1.1,2.5-2.4c0.1-0.1,0.1-0.3,0.1-0.4
	c1.1-4.1,5.8-11.9,14.6-17.2c1.7,0.9,5,2.2,9.1,2.2c0.1,0,0.2,0,0.3,0c8.2-0.1,14.1-4.1,16.9-11.5C90.8,66.9,90.5,65.7,89.7,65.1z
	 M49.4,55.1c2.4-0.1,4.5-0.4,6.5-0.8c0,0.2,0.1,0.5,0.2,0.7c0.4,0.8,0.6,2.4,0.7,4c-2.5,0.2-6-0.1-7.2-2.2c-0.1-0.1-0.2-0.3-0.3-0.4
	V55.1z M59.9,82c-1.3,0.4-2.1,1.7-1.7,3.1c0.4,1.3,1.7,2.1,3.1,1.7c2.4-0.7,5.5-1.1,7.2,0.4c1.2,1.1,1.6,3.2,1.6,4.8
	c-2.8-0.3-4.8-1.2-5.9-2.8c-0.8-1.1-2.4-1.4-3.5-0.6c-1.1,0.8-1.4,2.4-0.6,3.5C62.5,95.4,66.5,97,72,97c0.1,0,0.3,0,0.4,0
	c1.2,0,2.2-0.9,2.4-2c0.1-0.8,1.3-7.6-2.9-11.5C69.1,81,65.1,80.5,59.9,82z"/>
</svg>
