<?xml version="1.0" encoding="UTF-8" standalone="no"?>
<svg
   xmlns:dc="http://purl.org/dc/elements/1.1/"
   xmlns:cc="http://creativecommons.org/ns#"
   xmlns:rdf="http://www.w3.org/1999/02/22-rdf-syntax-ns#"
   xmlns:svg="http://www.w3.org/2000/svg"
   xmlns="http://www.w3.org/2000/svg"
   xmlns:sodipodi="http://sodipodi.sourceforge.net/DTD/sodipodi-0.dtd"
   xmlns:inkscape="http://www.inkscape.org/namespaces/inkscape"
   version="1.1"
   id="Layer_1"
   x="0px"
   y="0px"
   viewBox="0 0 100 100"
   enable-background="new 0 0 100 100"
   xml:space="preserve"
   sodipodi:docname="Rosas (Gruesa) color.svg"
   inkscape:version="1.0.1 (3bc2e813f5, 2020-09-07)"><metadata
   id="metadata9"><rdf:RDF><cc:Work
       rdf:about=""><dc:format>image/svg+xml</dc:format><dc:type
         rdf:resource="http://purl.org/dc/dcmitype/StillImage" /><dc:title></dc:title></cc:Work></rdf:RDF></metadata><defs
   id="defs7" /><sodipodi:namedview
   pagecolor="#ffffff"
   bordercolor="#666666"
   borderopacity="1"
   objecttolerance="10"
   gridtolerance="10"
   guidetolerance="10"
   inkscape:pageopacity="0"
   inkscape:pageshadow="2"
   inkscape:window-width="1920"
   inkscape:window-height="1017"
   id="namedview5"
   showgrid="false"
   inkscape:zoom="3.0688434"
   inkscape:cx="68.831723"
   inkscape:cy="84.156808"
   inkscape:window-x="-8"
   inkscape:window-y="-8"
   inkscape:window-maximized="1"
   inkscape:current-layer="Layer_1" />
<path
   fill="#2c3136"
   d="m -3.3875576,61.758986 c -0.3,-0.2 -7.2000004,-6 -15.0000004,-5.2 -4,0.4 -7.4,2.4 -10.2,5.9 -0.9,1.1 -0.7,2.6 0.4,3.5 1.1,0.9 2.6,0.7 3.5,-0.4 2,-2.5 4.2,-3.8 6.8,-4.1 3.9,-0.4 7.8,1.6 9.9000004,3 -2.3000004,4.3 -6.1000004,6.5 -11.6000004,6.6 -4.5,0 -7.7,-2 -7.8,-2.1 -0.1,-0.1 -0.3,-0.2 -0.5,-0.2 -0.7,-0.4 -1.6,-0.4 -2.3,0 -5.8,3.2 -10.4,7.5 -13.5,11.8 v -21.1 c 2,0.9 4.3,1.2 6.2,1.2 2.3,0 4.2,-0.4 4.3,-0.4 1.1,-0.2 1.9,-1.2 1.9,-2.4 0,-0.9 0,-5.6 -1.3,-8.3 2.9,-1.3 5.1,-3.1 6.3,-5.5 3.8,-7.1 -1.7,-15.8 -2.3,-16.8 -2.9,-5.1 0.4,-12.5 0.4,-12.6 0.4,-0.8 0.3,-1.8 -0.2,-2.5 -0.5,-0.7 -1.4,-1.1 -2.3,-1 -0.6,0.1 -1.3,0.2 -1.9,0.3 -0.2,-1.2 -0.6,-4.0999998 -0.3,-6.4999998 0.2,-1.3 -0.7,-2.6 -2.1,-2.8 -0.3,0 -7.4,-1.1 -13.7,4.7 -1,0.9 -1.1,2.5 -0.2,3.4999998 0.9,1 2.5,1.1 3.5,0.2 2.7,-2.3999998 5.5,-3.1999998 7.4,-3.3999998 0,2.6 0.4,4.8999998 0.5,5.4999998 -0.7,0.2 -1.5,0.4 -2.3,0.7 -1.3,0.4 -2,1.8 -1.6,3.1 0.4,1.3 1.8,2 3.1,1.6 1.4,-0.5 2.8,-0.8 4.2,-1.1 -0.8,3.5 -1.3,8.6 1.2,13 0,0 0.1,0.1 0.1,0.1 0,0.1 4.6,7.1 2.1,11.8 -1.8,3.4 -7.3,5.2 -15.8,5.2 -7.3,0 -12.1,-1.6 -14,-4.5 -2.1,-3.4 -0.3,-8.2 0.6,-10.1 2,-4.2 7.1,-8.3 14.4,-11.7 1.2,-0.6 1.8,-2 1.2,-3.3 0,0 0,0 0,-0.1 -0.1,-0.2 -0.2,-0.4 -0.3,-0.6 -0.1,-0.2 -3,-4.3 -6.6,-6.5 -0.9,-0.5999998 -2.1,-1.0999998 -3.4,-1.5999998 l 1.3,-4 c 0.4,0 0.9,0.1 1.4,0.2 1.3,0.2 2.6,-0.6 2.9,-2 0.2,-1.3 -0.6,-2.60000002 -2,-2.90000002 -2.2,-0.4 -4,-0.3 -4.2,-0.3 -1,0.1 -1.9,0.7 -2.2,1.70000002 l -1.7,5.4 c -0.2,-0.1 -0.3,-0.1 -0.5,-0.2 -0.8,-0.3 -1.7,-0.1 -2.4,0.4 -0.7,0.5 -1,1.4 -0.9,2.2 0,0 0.5,4.3999998 0.8,7.9999998 0.1,1.4 1.2,2.4 2.6,2.3 1.4,-0.1 2.4,-1.2 2.3,-2.6 -0.1,-1.5 -0.2,-3.1 -0.4,-4.4 1.4,0.5 2.9,1.2 3.8,1.7 1.3,0.8 2.5,2 3.5,3.1 -5.4,2.8 -11.4,7 -14.1,12.7 -1.5,3.3 -3.6,9.6 -0.3,14.9 1.2,1.9 2.9,3.3 5.2,4.4 -1.4,2.7 -1.3,7.5 -1.3,8.4 0,1.1 0.8,2.1 1.9,2.4 0.1,0 2,0.4 4.4,0.4 0.4,0 0.7,0 1.1,0 1.4,-0.1 2.4,-1.2 2.3,-2.6 -0.1,-1.4 -1.3,-2.4 -2.6,-2.3 -0.8,0 -1.5,0 -2.2,0 0.1,-1.5 0.3,-3.1 0.7,-4 0.1,-0.2 0.2,-0.4 0.2,-0.7 1.8,0.4 3.9,0.7 6.1,0.8 v 25.1 c -1.7,-1.9 -4,-3.9 -7.4,-5.7 -2.9,-4.8 -6.2,-7.9 -9.9,-9.4 -9.3,-3.7 -17.1,4.6 -17.4,5 -0.7,0.7 -0.8,1.8 -0.4,2.7 3.1,6.8 9.2,8.2 11.8,8.8 0.2,0 0.4,0.1 0.6,0.1 1.1,0 2.1,-0.8 2.4,-1.9 0.3,-1.3 -0.5,-2.7 -1.8,-3 -2.7,-0.6 -5.6,-1.6 -7.6,-4.5 2,-1.7 6.2,-4.3 10.7,-2.6 2.7,1.1 5.2,3.6 7.5,7.5 0.1,0.2 0.3,0.4 0.5,0.6 0.2,0.2 0.3,0.5 0.6,0.6 -2.8,0.1 -5.2,0.9 -7,2.5 -5.1,4.3 -4.1,12.5 -4.1,12.8 0.2,1.2 1.2,2.2 2.4,2.2 0.1,0 0.2,0 0.3,0 5.4,0 9.7,-1.3 12.7,-3.8 1,-0.9 1.2,-2.5 0.3,-3.5 -0.9,-1 -2.5,-1.2 -3.5,-0.3 -1.7,1.4 -4.1,2.3 -7.3,2.6 0.1,-1.9 0.6,-4.6 2.4,-6.2 1.9,-1.6 5,-1.7 9.2,-0.5 0.2,0.1 3.8,1.3 5.1,5.2 v 5.3 c 0,1.4 1.1,2.5 2.5,2.5 1.4,0 2.4,-1.1 2.5,-2.4 0.1,-0.1 0.1,-0.3 0.1,-0.4 1.1,-4.1 5.8,-11.9 14.6,-17.2 1.7,0.9 5,2.2 9.1,2.2 0.1,0 0.2,0 0.3,0 8.2,-0.1 14.1000004,-4.1 16.9000004,-11.5 0.5,-0.9 0.2,-2.1 -0.6,-2.7 z m -40.3000004,-10 c 2.4,-0.1 4.5,-0.4 6.5,-0.8 0,0.2 0.1,0.5 0.2,0.7 0.4,0.8 0.6,2.4 0.7,4 -2.5,0.2 -6,-0.1 -7.2,-2.2 -0.1,-0.1 -0.2,-0.3 -0.3,-0.4 v -1.3 z m 10.5,26.9 c -1.3,0.4 -2.1,1.7 -1.7,3.1 0.4,1.3 1.7,2.1 3.1,1.7 2.4,-0.7 5.5,-1.1 7.2,0.4 1.2,1.1 1.6,3.2 1.6,4.8 -2.8,-0.3 -4.8,-1.2 -5.9,-2.8 -0.8,-1.1 -2.4,-1.4 -3.5,-0.6 -1.1,0.8 -1.4,2.4 -0.6,3.5 2.4,3.3 6.4,4.9 11.9,4.9 0.1,0 0.3,0 0.4,0 1.2,0 2.2,-0.9 2.4,-2 0.1,-0.8 1.3,-7.6 -2.9,-11.5 -2.8,-2.5 -6.8,-3 -12,-1.5 z"
   id="path2" />
<path
   style="fill:#bcd35f;stroke:#000000;stroke-width:0.115389"
   d="m 46.234904,96.736547 c -0.279262,-0.147434 -0.663281,-0.488706 -0.853373,-0.758383 l -0.345622,-0.490322 -0.0576,-3.190559 -0.0576,-3.190558 -0.379059,-0.769311 c -1.120454,-2.273995 -3.131711,-3.89162 -5.611725,-4.51343 -1.713117,-0.429528 -2.614984,-0.547712 -4.147465,-0.543501 -1.57229,0.0043 -2.392842,0.178914 -3.424099,0.728569 -1.710499,0.911686 -2.947478,3.25017 -3.162723,5.979062 l -0.06903,0.87521 0.390138,-0.04534 c 2.78676,-0.323879 5.040242,-1.119158 6.756799,-2.384552 0.921038,-0.678961 1.555853,-0.861796 2.300609,-0.662604 1.478605,0.395467 2.235514,1.802858 1.709852,3.179286 -0.459004,1.201882 -2.982419,2.81569 -5.826429,3.726193 -2.110692,0.675733 -5.335357,1.12757 -7.45491,1.044573 -0.950611,-0.03722 -1.098589,-0.0746 -1.548915,-0.391241 -0.329742,-0.231852 -0.612814,-0.574795 -0.83817,-1.015443 -0.335778,-0.656561 -0.340253,-0.690008 -0.33845,-2.530098 0.0076,-7.758905 3.631982,-12.602276 9.976402,-13.33177 0.52409,-0.06026 0.998071,-0.109958 1.053291,-0.110439 0.05522,-4.61e-4 -0.129225,-0.273052 -0.409878,-0.605713 -0.280653,-0.332661 -0.863089,-1.149193 -1.294302,-1.814516 -0.998949,-1.541289 -2.295881,-3.144771 -3.274934,-4.049015 -0.963448,-0.889833 -2.579558,-1.964 -3.445024,-2.28978 -1.951852,-0.734717 -4.210958,-0.754605 -6.307598,-0.05553 -1.300415,0.433592 -3.187359,1.484341 -4.201998,2.339892 l -0.400155,0.337414 0.504339,0.653716 c 1.334609,1.7299 3.437986,2.946414 6.401961,3.702651 1.168078,0.298027 1.3091,0.364568 1.801507,0.850059 1.08202,1.066821 1.039676,2.45376 -0.106464,3.487112 -0.684149,0.616824 -1.225238,0.731783 -2.314369,0.491703 -2.331007,-0.513824 -4.794247,-1.536331 -6.54169,-2.715494 -1.83184,-1.236113 -3.586405,-3.232737 -4.602608,-5.237584 -0.9766333,-1.926782 -0.849407,-2.58607 0.803021,-4.161263 1.461148,-1.392853 2.946874,-2.425456 4.854603,-3.374027 2.941905,-1.46279 5.170736,-1.944787 7.918583,-1.712437 4.746007,0.40131 9.013085,3.372428 12.713691,8.852398 l 0.97249,1.440092 1.276207,0.748848 c 1.723557,1.011341 3.402977,2.290371 4.935157,3.758565 l 1.273734,1.220542 V 67.58172 54.953917 l -0.259217,-0.0012 c -0.869245,-0.0041 -4.717331,-0.519277 -5.685653,-0.761136 -0.20738,-0.0518 -0.277835,0.03572 -0.491213,0.610166 -0.290509,0.782099 -0.53804,2.030444 -0.652682,3.291605 l -0.08116,0.892857 h 1.457329 c 1.054751,0 1.575216,0.04926 1.884083,0.17831 1.56851,0.655365 1.967012,2.769364 0.732318,3.884837 -0.707589,0.639263 -1.045685,0.701103 -3.404924,0.622778 -3.448773,-0.114496 -4.434897,-0.41305 -5.099651,-1.543944 -0.319766,-0.543992 -0.322945,-0.568599 -0.300128,-2.323428 0.03684,-2.833465 0.367025,-5.009338 0.994485,-6.553525 l 0.276479,-0.680421 -0.704616,-0.383421 C 29.01444,49.730977 26.841263,45.5777 27.350509,40.380184 c 0.230057,-2.348012 1.072366,-5.205199 2.193096,-7.439166 2.104623,-4.195175 6.684055,-8.399854 12.688411,-11.650068 0.621041,-0.336175 1.130114,-0.664286 1.131276,-0.729137 0.0027,-0.153085 -1.591555,-1.715396 -2.454366,-2.405126 -0.710659,-0.568102 -2.389814,-1.458601 -3.826672,-2.029382 -1.068371,-0.424402 -1.126271,-0.42591 -1.039519,-0.02707 0.0379,0.174252 0.142463,1.22722 0.232357,2.339932 0.214368,2.653441 0.131624,3.006019 -0.901749,3.842397 -0.365282,0.295647 -0.550477,0.355639 -1.213518,0.393105 -1.112077,0.06284 -1.768961,-0.287661 -2.229273,-1.189489 -0.226821,-0.444379 -0.368831,-1.606973 -1.077866,-8.824176 -0.04762,-0.484711 -0.02397,-0.913173 0.06535,-1.183802 0.404517,-1.225701 1.784316,-1.9133742 3.055542,-1.5228409 0.315488,0.096921 0.60614,0.1388389 0.645893,0.093151 0.03975,-0.04569 0.425107,-1.2236219 0.85634,-2.6176311 0.431233,-1.3940092 0.887773,-2.7606744 1.014535,-3.0370339 0.473533,-1.032373 1.599081,-1.4773824 3.397508,-1.3432764 2.752644,0.2052607 3.493819,0.4068659 4.100199,1.1152848 1.074091,1.2548346 0.737048,2.9461667 -0.73857,3.7062508 -0.662921,0.3414673 -0.780701,0.3474871 -2.423521,0.1238675 L 40.30265,7.9247407 39.687667,9.8667508 c -0.338241,1.0681052 -0.637698,2.0016202 -0.665461,2.0744782 -0.02796,0.07338 0.145757,0.195986 0.389447,0.274864 1.477144,0.478125 3.491882,1.643035 5.0101,2.896811 1.721716,1.421827 4.266284,4.337286 4.79669,5.495845 0.500517,1.093273 0.32321,2.248999 -0.455883,2.971552 -0.148736,0.137941 -1.177687,0.713302 -2.286558,1.27858 -4.270368,2.176939 -7.134472,4.14911 -9.565423,6.586581 -2.446337,2.4529 -3.838775,4.99087 -4.489141,8.182271 -0.279798,1.372992 -0.306164,3.415241 -0.0577,4.469077 0.770126,3.266383 4.06169,5.285296 9.925508,6.08791 1.83691,0.251429 7.585468,0.292435 9.543896,0.06808 5.126658,-0.587303 8.202854,-1.683341 10.094231,-3.59654 1.368654,-1.384447 1.903919,-2.951038 1.790104,-5.239204 -0.06898,-1.386853 -0.423539,-2.933443 -1.012547,-4.416764 -0.396415,-0.998305 -1.544291,-3.328077 -1.768865,-3.590149 -0.462396,-0.539607 -1.312592,-2.763007 -1.615258,-4.224162 -0.431133,-2.081345 -0.411103,-5.020183 0.05166,-7.579473 0.125521,-0.694187 0.207124,-1.283254 0.181341,-1.309036 -0.07239,-0.07239 -1.711805,0.303417 -3.054762,0.700253 -1.709704,0.505209 -2.262394,0.53066 -2.984842,0.137455 -0.323799,-0.176233 -0.718153,-0.517708 -0.898623,-0.778128 -0.279748,-0.403676 -0.321604,-0.572772 -0.321604,-1.299254 0,-0.742745 0.03843,-0.889858 0.347216,-1.329209 0.447289,-0.636415 0.867317,-0.873422 2.35463,-1.328636 0.668362,-0.204562 1.207323,-0.414007 1.197689,-0.465433 -0.09076,-0.484535 -0.39238,-3.33888 -0.451181,-4.269768 l -0.07459,-1.180876 h -0.320582 c -0.689217,0 -2.643182,0.608619 -3.865596,1.204053 -0.700286,0.341107 -1.70415,0.948505 -2.230809,1.349775 -1.668006,1.270879 -1.869879,1.379688 -2.559627,1.37962 -0.762162,-7.5e-5 -1.105886,-0.125573 -1.648299,-0.601819 -1.047815,-0.919992 -1.112468,-2.302237 -0.158386,-3.386131 1.013206,-1.151063 3.555564,-2.8187476 5.508615,-3.6134295 2.223032,-0.9045353 4.214023,-1.2859855 6.71224,-1.2859855 1.578875,0 1.685896,0.014861 2.281518,0.3168203 0.467558,0.2370348 0.711257,0.4582202 0.967709,0.8783054 l 0.34277,0.5614851 -0.03109,2.3763029 c -0.02196,1.6781753 0.02276,2.7810453 0.152204,3.7539743 0.100814,0.75772 0.200635,1.395011 0.221827,1.416203 0.02119,0.02119 0.546523,-0.04806 1.167402,-0.153892 1.045157,-0.178153 1.172928,-0.178535 1.722957,-0.0051 0.708285,0.223268 1.388381,0.854715 1.568668,1.456457 0.189894,0.633812 0.06876,1.413971 -0.446992,2.878761 -0.788037,2.238118 -1.088611,3.802842 -1.152711,6.000776 -0.08474,2.905587 0.146517,3.843784 1.589495,6.448536 3.563262,6.432117 4.077221,12.13275 1.486961,16.492802 -0.97987,1.649364 -3.045475,3.451994 -5.197337,4.535655 l -0.782784,0.394204 0.235545,0.59758 c 0.608098,1.542754 1.027978,4.337492 1.027978,6.842262 0,1.357442 -0.02694,1.560105 -0.268061,2.016835 -0.621822,1.177831 -1.930011,1.528248 -5.722722,1.532916 -2.437156,0.003 -3.696744,-0.18287 -5.398002,-0.796549 -0.436408,-0.15742 -0.82608,-0.28622 -0.865937,-0.28622 -0.03986,0 -0.07082,4.782547 -0.06882,10.627881 l 0.0037,10.62788 0.255273,-0.345622 c 2.139083,-2.896172 5.20786,-5.961101 8.336213,-8.325761 1.24348,-0.939921 3.320284,-2.287575 4.544324,-2.948846 1.376441,-0.743603 2.060604,-0.709674 3.56196,0.176642 0.722025,0.426245 1.766319,0.847422 2.955857,1.192136 4.313728,1.250069 9.315237,0.584273 12.424327,-1.653916 1.295547,-0.932646 2.621784,-2.411152 3.446651,-3.842374 l 0.311383,-0.540422 -0.899779,-0.530264 c -2.889453,-1.702829 -5.423535,-2.478863 -8.094542,-2.478863 -2.936187,0 -5.005949,0.989541 -7.325825,3.502434 -1.039079,1.125534 -1.490676,1.434433 -2.244983,1.535606 -1.241337,0.166499 -2.641815,-1.130107 -2.641815,-2.445874 0,-0.656514 0.320152,-1.252981 1.222631,-2.277853 2.228327,-2.530526 4.791235,-4.092284 7.988899,-4.868191 0.411866,-0.09994 1.526497,-0.211066 2.476958,-0.246949 1.434727,-0.05417 1.964443,-0.02477 3.120173,0.173134 3.087078,0.528631 6.27901,1.88398 9.378703,3.982358 1.468087,0.993842 2.021201,1.527894 2.181941,2.106748 0.189167,0.681226 0.156468,0.87945 -0.343429,2.081818 -2.060817,4.956763 -5.410449,8.229306 -10.090571,9.858349 -3.027195,1.053699 -6.849912,1.366218 -10.04116,0.8209 -1.799763,-0.307541 -3.064688,-0.70995 -5.678437,-1.80647 -0.268043,-0.112449 -0.411346,-0.04979 -1.440092,0.629675 -4.289751,2.833296 -7.762824,6.279787 -10.479219,10.399015 -1.514158,2.296117 -2.484002,4.332864 -2.944799,6.184304 -0.265561,1.066999 -0.534008,1.650453 -0.928816,2.018723 -0.695195,0.648466 -1.894456,0.79738 -2.756497,0.342276 z M 57.366257,58.266129 c -0.134052,-1.438613 -0.294635,-2.305812 -0.578174,-3.122338 -0.150764,-0.434163 -0.296892,-0.812164 -0.324728,-0.840001 -0.02784,-0.02784 -0.666275,0.05637 -1.418752,0.187121 -1.124523,0.195401 -4.483341,0.578213 -5.07328,0.578213 -0.111787,0 -0.154308,0.190407 -0.154308,0.690979 0,0.607822 0.04922,0.759481 0.408963,1.260224 0.978686,1.362258 2.918293,2.048498 5.852729,2.070717 l 1.36538,0.01033 -0.07783,-0.835254 z"
   id="path838" /><path
   style="fill:#bcd35f;stroke:#000000;stroke-width:0.115389"
   d="m 69.354839,96.810756 c -3.728488,-0.475973 -6.309751,-1.646047 -8.335184,-3.778302 -1.326283,-1.396231 -1.583007,-2.296287 -0.992799,-3.48068 0.409908,-0.822579 1.017901,-1.222434 1.94889,-1.281715 0.953298,-0.0607 1.267404,0.110113 2.482779,1.350158 0.761168,0.776618 1.1717,1.092957 1.843318,1.420384 0.855271,0.41696 2.19655,0.80879 3.254609,0.950774 l 0.547235,0.07343 -0.002,-0.669501 c -0.0025,-0.831765 -0.253318,-2.044393 -0.57284,-2.769351 -0.789785,-1.791938 -1.983702,-2.45223 -4.428785,-2.449328 -1.198185,0.0014 -1.538334,0.05114 -3.982545,0.582097 -0.91875,0.19958 -1.521055,0.01001 -2.202322,-0.693173 -1.173595,-1.211344 -0.896345,-3.05264 0.57176,-3.797221 0.97961,-0.496831 3.985122,-1.045324 5.734134,-1.046455 4.366643,-0.0028 7.665884,2.234062 9.004885,6.105312 0.553113,1.59913 0.658946,2.37793 0.657543,4.83871 -0.0014,2.533032 -0.113168,3.193152 -0.650829,3.845428 -0.632433,0.767251 -1.011976,0.880461 -2.885927,0.860812 -0.905462,-0.0095 -1.801825,-0.03712 -1.991917,-0.06138 z"
   id="path840" /></svg>
