<?xml version="1.0" encoding="utf-8"?>
<!-- Generator: Adobe Illustrator 18.0.0, SVG Export Plug-In . SVG Version: 6.00 Build 0)  -->
<!DOCTYPE svg PUBLIC "-//W3C//DTD SVG 1.1//EN" "http://www.w3.org/Graphics/SVG/1.1/DTD/svg11.dtd">
<svg version="1.1" id="Layer_1" xmlns="http://www.w3.org/2000/svg" xmlns:xlink="http://www.w3.org/1999/xlink" x="0px" y="0px"
	 viewBox="0 0 100 100" enable-background="new 0 0 100 100" xml:space="preserve">
<g>
	<path fill="#2C3136" d="M96.6,28c-0.4-0.7-1-1.2-1.8-1.4L6.9,3.2c-1-0.3-2.1,0-2.8,0.7c-0.7,0.7-1,1.8-0.8,2.8l20.5,87.9
		c0.2,0.8,0.7,1.4,1.3,1.8c0.5,0.3,1,0.4,1.5,0.4c0.2,0,0.5,0,0.7-0.1C40.6,93.3,54.7,84.7,69.3,71c13.5-12.6,23.5-27.5,27.5-40.7
		C97.1,29.5,97,28.7,96.6,28z M28.8,90.2l-2.1-8.9c1.9-0.6,3.8-1.3,5.7-2.1c0,0,0.1,0,0.1,0c0.2,0,0.5,0,0.7-0.1
		c0.6-0.2,1.1-0.6,1.5-1c19.6-9.7,39.2-31.5,46.7-49l8.8,2.4c-4.2,11.4-13.3,24.4-25,35.3C52.5,78.7,40.3,86.6,28.8,90.2z
		 M75.7,27.6C68.8,43,51.6,62.3,34.4,71.7L20.7,19.9c-0.4-1.6-2-2.5-3.6-2.1c-1.6,0.4-2.5,2-2.1,3.6L29,74.3
		c-1.2,0.5-2.4,0.9-3.6,1.3L10.1,10.1L75.7,27.6z"/>
	<path fill="#2C3136" d="M25.4,23.3l5.9,2.9c0.4,0.2,0.9,0.3,1.3,0.3c1.1,0,2.1-0.6,2.6-1.6c0.7-1.4,0.1-3.2-1.3-3.9L28,18
		c-1.4-0.7-3.2-0.1-3.9,1.3C23.3,20.8,23.9,22.5,25.4,23.3z"/>
	<path fill="#2C3136" d="M40,29.1l5.9,2.9c0.4,0.2,0.9,0.3,1.3,0.3c1.1,0,2.1-0.6,2.6-1.6c0.7-1.4,0.1-3.2-1.3-3.9l-5.9-2.9
		c-1.4-0.7-3.2-0.1-3.9,1.3C38,26.6,38.6,28.4,40,29.1z"/>
	<path fill="#2C3136" d="M38.4,44.1c1.1,0,2.1-0.6,2.6-1.6c0.7-1.4,0.1-3.2-1.3-3.9l-5.9-2.9c-1.4-0.7-3.2-0.1-3.9,1.3
		c-0.7,1.4-0.1,3.2,1.3,3.9l5.9,2.9C37.5,44,37.9,44.1,38.4,44.1z"/>
	<path fill="#2C3136" d="M47.5,39.8c-0.7,1.4-0.1,3.2,1.3,3.9l5.9,2.9c0.4,0.2,0.9,0.3,1.3,0.3c1.1,0,2.1-0.6,2.6-1.6
		c0.7-1.4,0.1-3.2-1.3-3.9l-5.9-2.9C50,37.8,48.2,38.4,47.5,39.8z"/>
	<path fill="#2C3136" d="M57.6,32l5.9,2.9c0.4,0.2,0.9,0.3,1.3,0.3c1.1,0,2.1-0.6,2.6-1.6c0.7-1.4,0.1-3.2-1.3-3.9l-5.9-2.9
		c-1.4-0.7-3.2-0.1-3.9,1.3C55.6,29.6,56.1,31.3,57.6,32z"/>
	<path fill="#2C3136" d="M45.6,53.2l-5.9-2.9c-1.4-0.7-3.2-0.1-3.9,1.3c-0.7,1.4-0.1,3.2,1.3,3.9l5.9,2.9c0.4,0.2,0.9,0.3,1.3,0.3
		c1.1,0,2.1-0.6,2.6-1.6C47.6,55.7,47,53.9,45.6,53.2z"/>
</g>
</svg>
