<?xml version="1.0" encoding="UTF-8" standalone="no"?>
<svg
   xmlns:dc="http://purl.org/dc/elements/1.1/"
   xmlns:cc="http://creativecommons.org/ns#"
   xmlns:rdf="http://www.w3.org/1999/02/22-rdf-syntax-ns#"
   xmlns:svg="http://www.w3.org/2000/svg"
   xmlns="http://www.w3.org/2000/svg"
   xmlns:sodipodi="http://sodipodi.sourceforge.net/DTD/sodipodi-0.dtd"
   xmlns:inkscape="http://www.inkscape.org/namespaces/inkscape"
   version="1.1"
   id="Layer_1"
   x="0px"
   y="0px"
   viewBox="0 0 100 100"
   enable-background="new 0 0 100 100"
   xml:space="preserve"
   sodipodi:docname="Sandía color.svg"
   inkscape:version="1.0.1 (3bc2e813f5, 2020-09-07)"><metadata
   id="metadata23"><rdf:RDF><cc:Work
       rdf:about=""><dc:format>image/svg+xml</dc:format><dc:type
         rdf:resource="http://purl.org/dc/dcmitype/StillImage" /><dc:title></dc:title></cc:Work></rdf:RDF></metadata><defs
   id="defs21" /><sodipodi:namedview
   pagecolor="#ffffff"
   bordercolor="#666666"
   borderopacity="1"
   objecttolerance="10"
   gridtolerance="10"
   guidetolerance="10"
   inkscape:pageopacity="0"
   inkscape:pageshadow="2"
   inkscape:window-width="1920"
   inkscape:window-height="1017"
   id="namedview19"
   showgrid="false"
   inkscape:zoom="8.5"
   inkscape:cx="-23.406128"
   inkscape:cy="50"
   inkscape:window-x="-8"
   inkscape:window-y="-8"
   inkscape:window-maximized="1"
   inkscape:current-layer="Layer_1" />
<g
   id="g16"
   transform="translate(-102.11765,3.8823529)">
	<path
   fill="#2c3136"
   d="m 96.6,28 c -0.4,-0.7 -1,-1.2 -1.8,-1.4 L 6.9,3.2 C 5.9,2.9 4.8,3.2 4.1,3.9 3.4,4.6 3.1,5.7 3.3,6.7 l 20.5,87.9 c 0.2,0.8 0.7,1.4 1.3,1.8 0.5,0.3 1,0.4 1.5,0.4 0.2,0 0.5,0 0.7,-0.1 C 40.6,93.3 54.7,84.7 69.3,71 82.8,58.4 92.8,43.5 96.8,30.3 97.1,29.5 97,28.7 96.6,28 Z M 28.8,90.2 26.7,81.3 c 1.9,-0.6 3.8,-1.3 5.7,-2.1 0,0 0.1,0 0.1,0 0.2,0 0.5,0 0.7,-0.1 0.6,-0.2 1.1,-0.6 1.5,-1 19.6,-9.7 39.2,-31.5 46.7,-49 l 8.8,2.4 C 86,42.9 76.9,55.9 65.2,66.8 52.5,78.7 40.3,86.6 28.8,90.2 Z M 75.7,27.6 C 68.8,43 51.6,62.3 34.4,71.7 L 20.7,19.9 c -0.4,-1.6 -2,-2.5 -3.6,-2.1 -1.6,0.4 -2.5,2 -2.1,3.6 l 14,52.9 c -1.2,0.5 -2.4,0.9 -3.6,1.3 L 10.1,10.1 Z"
   id="path2" />
	<path
   fill="#2c3136"
   d="m 25.4,23.3 5.9,2.9 c 0.4,0.2 0.9,0.3 1.3,0.3 1.1,0 2.1,-0.6 2.6,-1.6 0.7,-1.4 0.1,-3.2 -1.3,-3.9 L 28,18 c -1.4,-0.7 -3.2,-0.1 -3.9,1.3 -0.8,1.5 -0.2,3.2 1.3,4 z"
   id="path4" />
	<path
   fill="#2c3136"
   d="m 40,29.1 5.9,2.9 c 0.4,0.2 0.9,0.3 1.3,0.3 1.1,0 2.1,-0.6 2.6,-1.6 0.7,-1.4 0.1,-3.2 -1.3,-3.9 l -5.9,-2.9 c -1.4,-0.7 -3.2,-0.1 -3.9,1.3 -0.7,1.4 -0.1,3.2 1.3,3.9 z"
   id="path6" />
	<path
   fill="#2c3136"
   d="m 38.4,44.1 c 1.1,0 2.1,-0.6 2.6,-1.6 0.7,-1.4 0.1,-3.2 -1.3,-3.9 L 33.8,35.7 C 32.4,35 30.6,35.6 29.9,37 c -0.7,1.4 -0.1,3.2 1.3,3.9 l 5.9,2.9 c 0.4,0.2 0.8,0.3 1.3,0.3 z"
   id="path8" />
	<path
   fill="#2c3136"
   d="m 47.5,39.8 c -0.7,1.4 -0.1,3.2 1.3,3.9 l 5.9,2.9 c 0.4,0.2 0.9,0.3 1.3,0.3 1.1,0 2.1,-0.6 2.6,-1.6 0.7,-1.4 0.1,-3.2 -1.3,-3.9 L 51.4,38.5 C 50,37.8 48.2,38.4 47.5,39.8 Z"
   id="path10" />
	<path
   fill="#2c3136"
   d="m 57.6,32 5.9,2.9 c 0.4,0.2 0.9,0.3 1.3,0.3 1.1,0 2.1,-0.6 2.6,-1.6 0.7,-1.4 0.1,-3.2 -1.3,-3.9 l -5.9,-2.9 c -1.4,-0.7 -3.2,-0.1 -3.9,1.3 -0.7,1.5 -0.2,3.2 1.3,3.9 z"
   id="path12" />
	<path
   fill="#2c3136"
   d="m 45.6,53.2 -5.9,-2.9 c -1.4,-0.7 -3.2,-0.1 -3.9,1.3 -0.7,1.4 -0.1,3.2 1.3,3.9 l 5.9,2.9 c 0.4,0.2 0.9,0.3 1.3,0.3 1.1,0 2.1,-0.6 2.6,-1.6 0.7,-1.4 0.1,-3.2 -1.3,-3.9 z"
   id="path14" />
</g>
<path
   style="fill:#c83737;stroke:#ffffff;stroke-width:0.117647"
   d="M 25.888235,96.582353 C 25.366191,96.356583 24.753115,95.772154 24.477311,95.23736 24.359702,95.009312 22.084488,85.4799 19.421278,74.06089 16.758069,62.641879 12.115372,42.737287 9.1041743,29.828464 4.5994978,10.517191 3.6406388,6.2602701 3.6934321,5.8070981 3.860905,4.3695306 5.0315768,3.2491888 6.3729159,3.2428123 6.9468705,3.2400837 94.995734,26.614218 95.73759,26.966252 c 0.78266,0.371395 1.562905,1.649988 1.562228,2.560035 -2.35e-4,0.34628 -1.273987,4.067095 -2.040594,5.960976 C 90.435303,47.40462 81.12877,60.271149 69.501739,71.097666 55.020508,84.581878 41.808067,92.759652 28.512254,96.467905 c -1.220855,0.3405 -2.020662,0.375385 -2.624019,0.114448 z m 4.956086,-6.822094 c 8.668835,-2.968681 18.14377,-8.655936 27.804378,-16.689361 13.696984,-11.389933 23.924004,-23.912859 29.929419,-36.648395 0.921467,-1.954136 2.088766,-4.795783 2.004597,-4.879952 -0.05855,-0.05855 -8.638579,-2.419969 -8.792766,-2.419969 -0.04778,0 -0.366385,0.622058 -0.708018,1.382352 -3.092621,6.882544 -9.045076,15.720303 -15.629754,23.205883 -8.752838,9.950383 -19.39687,18.64661 -28.82687,23.551695 -0.890684,0.463295 -1.801258,0.998894 -2.023498,1.190219 -0.479087,0.41244 -1.249602,0.781302 -1.639608,0.784914 -0.153438,0.0014 -1.15932,0.340191 -2.235294,0.752821 -1.075976,0.412631 -2.340143,0.873052 -2.80926,1.023157 -0.601199,0.192368 -0.852942,0.32987 -0.852942,0.465879 0,0.106127 0.417384,1.961883 0.927519,4.123901 0.510135,2.162019 0.964343,4.103002 1.009348,4.313296 0.04501,0.210294 0.124037,0.382353 0.175625,0.382353 0.05159,0 0.801794,-0.242456 1.667124,-0.538793 z m -3.076913,-14.71616 c 0.810573,-0.292281 1.514414,-0.569839 1.564094,-0.616794 0.04968,-0.04696 -2.97747,-11.675905 -6.726995,-25.842108 -3.749528,-14.166203 -6.934456,-26.224023 -7.077619,-26.795154 -0.229393,-0.915127 -0.243576,-1.113146 -0.119453,-1.667783 0.37886,-1.692923 2.177801,-2.711057 3.737624,-2.115356 0.777692,0.297003 1.512953,1.010779 1.737451,1.686678 0.101009,0.304111 3.246475,12.133783 6.989925,26.288161 3.743448,14.154376 6.83427,25.76323 6.868494,25.797454 0.09526,0.09526 3.320447,-1.822597 5.55907,-3.305693 3.428724,-2.271541 6.965465,-5.009731 10.764706,-8.33417 2.039377,-1.78451 8.19958,-7.99106 10.138856,-10.215135 5.376856,-6.166495 9.673689,-12.211155 12.860254,-18.09143 0.998332,-1.842258 2.09742,-4.123462 2.022694,-4.198187 -0.05125,-0.05125 -65.657953,-17.560443 -65.686933,-17.530606 -0.0099,0.01023 3.430192,14.778638 7.644735,32.818678 l 7.662807,32.800073 0.29326,-0.0736 c 0.161293,-0.04048 0.956457,-0.312743 1.76703,-0.605024 z"
   id="path848" /><path
   style="fill:#c83737;stroke:#ffffff;stroke-width:0.117647"
   d="M 40.291639,56.987918 C 38.481238,56.107743 36.83982,55.26705 36.644044,55.119712 36.048352,54.6714 35.602593,53.712568 35.605004,52.884726 c 0.0046,-1.585114 1.215913,-2.767079 2.835744,-2.767079 0.637848,0 0.903848,0.106886 3.974367,1.597 1.809922,0.87835 3.450947,1.719043 3.646723,1.868206 0.597409,0.455171 1.041448,1.411722 1.03904,2.238303 -0.0046,1.584732 -1.21593,2.767079 -2.834872,2.767079 -0.637088,0 -0.902766,-0.106977 -3.974367,-1.600317 z"
   id="path850" /><path
   style="fill:#c83737;stroke:#ffffff;stroke-width:0.117647"
   d="m 34.419107,42.40164 c -1.805,-0.879098 -3.408353,-1.681268 -3.563005,-1.7826 -0.450489,-0.295172 -0.975906,-1.158333 -1.118286,-1.837133 -0.351413,-1.675371 1.017763,-3.286109 2.793291,-3.286109 0.576227,0 0.945199,0.149177 3.89716,1.575631 1.79337,0.866596 3.455862,1.71637 3.694428,1.888385 0.891409,0.642741 1.32922,2.270864 0.892022,3.317227 C 40.581245,43.314486 39.533429,44 38.381157,44 c -0.634126,0 -0.902668,-0.108335 -3.96205,-1.59836 z"
   id="path852" /><path
   style="fill:#c83737;stroke:#ffffff;stroke-width:0.117647"
   d="m 31.823529,26.300408 c -0.258823,-0.08494 -1.847058,-0.826089 -3.529411,-1.646994 -3.158331,-1.541109 -3.742347,-1.929152 -4.170533,-2.771061 -0.516016,-1.014603 -0.348128,-2.208794 0.431914,-3.072207 0.632994,-0.700649 1.23501,-0.974721 2.155266,-0.981199 0.759341,-0.0053 0.812602,0.0163 4,1.625807 1.776726,0.897174 3.415706,1.776399 3.642176,1.953834 0.564547,0.442311 1.058824,1.418518 1.058824,2.091197 0,1.306417 -0.807397,2.434388 -1.991942,2.782834 -0.753163,0.221552 -0.968118,0.223947 -1.596294,0.01779 z"
   id="path854" /><path
   style="fill:#c83737;stroke:#ffffff;stroke-width:0.117647"
   d="m 46,31.954939 c -0.355882,-0.148725 -1.976318,-0.939002 -3.600967,-1.756171 -3.158928,-1.588884 -3.390026,-1.761132 -3.756531,-2.79992 -0.364061,-1.031857 -0.138339,-2.015068 0.649395,-2.828667 0.639679,-0.660682 1.57811,-0.995795 2.430584,-0.867959 0.320729,0.0481 1.838405,0.734201 3.920916,1.772551 2.665203,1.328883 3.462179,1.778692 3.697012,2.086575 0.95111,1.246968 0.871282,2.807354 -0.198342,3.876977 C 48.351895,32.228497 47.133825,32.42877 46,31.954939 Z"
   id="path856" /><path
   style="fill:#c83737;stroke:#ffffff;stroke-width:0.117647"
   d="m 64.058824,35.016012 c -0.859633,-0.286637 -6.699139,-3.204002 -7.106142,-3.550165 -0.857718,-0.729503 -1.123732,-2.166259 -0.603715,-3.260699 0.505341,-1.063551 1.568966,-1.6769 2.755473,-1.588968 0.637251,0.04723 1.09302,0.238944 4.004696,1.684555 1.993087,0.989543 3.430726,1.776382 3.654502,2.000158 0.709412,0.709412 1.021657,1.807651 0.774697,2.724789 -0.395229,1.46777 -2.108165,2.447594 -3.479511,1.99033 z"
   id="path858" /><path
   style="fill:#c83737;stroke:#ffffff;stroke-width:0.117647"
   d="m 55.058824,46.657935 c -0.226471,-0.0854 -1.822386,-0.84971 -3.546478,-1.698475 -3.292374,-1.620825 -3.550735,-1.800644 -3.998541,-2.782989 -0.278346,-0.610603 -0.278436,-1.624366 -1.98e-4,-2.235295 0.466628,-1.024577 1.89819,-1.830012 2.952868,-1.661362 0.240235,0.03842 1.940909,0.803209 3.779276,1.699542 3.634135,1.771896 3.979185,2.016604 4.401034,3.121202 0.239511,0.62715 0.195115,1.589274 -0.09964,2.159261 -0.63257,1.223257 -2.241692,1.868191 -3.488324,1.398116 z"
   id="path860" /></svg>
