<?xml version="1.0" encoding="UTF-8" standalone="no"?>
<svg
   xmlns:dc="http://purl.org/dc/elements/1.1/"
   xmlns:cc="http://creativecommons.org/ns#"
   xmlns:rdf="http://www.w3.org/1999/02/22-rdf-syntax-ns#"
   xmlns:svg="http://www.w3.org/2000/svg"
   xmlns="http://www.w3.org/2000/svg"
   xmlns:sodipodi="http://sodipodi.sourceforge.net/DTD/sodipodi-0.dtd"
   xmlns:inkscape="http://www.inkscape.org/namespaces/inkscape"
   version="1.1"
   id="Layer_1"
   x="0px"
   y="0px"
   viewBox="0 0 100 100"
   enable-background="new 0 0 100 100"
   xml:space="preserve"
   sodipodi:docname="Sorgo color.svg"
   inkscape:version="1.0.1 (3bc2e813f5, 2020-09-07)"><metadata
   id="metadata11"><rdf:RDF><cc:Work
       rdf:about=""><dc:format>image/svg+xml</dc:format><dc:type
         rdf:resource="http://purl.org/dc/dcmitype/StillImage" /></cc:Work></rdf:RDF></metadata><defs
   id="defs9" /><sodipodi:namedview
   pagecolor="#ffffff"
   bordercolor="#666666"
   borderopacity="1"
   objecttolerance="10"
   gridtolerance="10"
   guidetolerance="10"
   inkscape:pageopacity="0"
   inkscape:pageshadow="2"
   inkscape:window-width="1920"
   inkscape:window-height="1017"
   id="namedview7"
   showgrid="false"
   inkscape:zoom="8.5"
   inkscape:cx="43.035996"
   inkscape:cy="54.705882"
   inkscape:window-x="-8"
   inkscape:window-y="-8"
   inkscape:window-maximized="1"
   inkscape:current-layer="Layer_1" />
<g
   id="g4"
   transform="translate(-82.117647,-0.94117647)">
	<path
   fill="#2c3136"
   d="m 47.5,2.8 c -2.7,0 -5.2,1.2 -7.2,3.1 -2.7,2.7 -4.4,6.8 -4.4,11.4 -2.6,0.1 -4.9,1.2 -6.8,3.1 -2.7,2.7 -4.4,6.8 -4.4,11.5 0,0.7 0.1,1.4 0.1,2.1 -2.2,0.3 -4.3,1.3 -5.9,3 -2.7,2.7 -4.4,6.8 -4.4,11.5 0,8.1 5.1,14.6 11.5,14.6 -0.2,1 -0.3,2 -0.3,3 0,8.1 5.2,14.7 11.6,14.7 1.3,0 2.5,-0.3 3.6,-0.8 -0.8,5.9 1.2,12.8 5,16.6 0.9,0.9 2.3,0.9 3.2,0 0.9,-0.9 0.9,-2.3 0,-3.2 -0.7,-0.7 -1.4,-1.7 -1.9,-2.7 -2,-3.8 -2.6,-9.3 -1,-12.9 0.1,-0.2 0.2,-0.4 0.3,-0.6 1.3,0.7 2.7,1 4.2,1 2.7,0 5.2,-1.2 7.2,-3.1 1.9,-1.9 3.2,-4.4 3.9,-7.4 0.8,0.2 1.5,0.3 2.3,0.3 2.7,0 5.2,-1.2 7.2,-3.1 2.7,-2.7 4.4,-6.8 4.4,-11.5 0,-7 -3.9,-12.8 -9,-14.3 0.3,-1.3 0.4,-2.6 0.4,-3.9 0,-6.7 -3.6,-12.3 -8.4,-14.1 0.2,-1.2 0.4,-2.4 0.4,-3.6 C 59.1,9.3 53.9,2.8 47.5,2.8 Z m 7,14.6 c 0,3.3 -1.1,6.4 -3.1,8.3 -0.8,0.8 -2.2,1.8 -4,1.8 -2.3,0 -3.9,-1.6 -4.6,-2.6 -1.5,-1.9 -2.4,-4.7 -2.4,-7.6 0,-3.3 1.2,-6.4 3.1,-8.3 0.8,-0.8 2.2,-1.8 4,-1.8 3.8,0.1 7,4.7 7,10.2 z M 22.1,40.2 c 0.8,-0.8 2.1,-1.7 3.8,-1.8 1.4,3.5 3.9,6.3 6.9,7.5 0.2,0.9 0.3,1.7 0.3,2.6 0,3.3 -1.1,6.4 -3.1,8.3 -0.8,0.8 -2.2,1.8 -4,1.8 C 23.7,58.6 22.1,57 21.4,56 19.9,54.1 19,51.3 19,48.4 c 0,-3.2 1.2,-6.3 3.1,-8.2 z m 10.6,33.5 c -1.5,-1.9 -2.4,-4.7 -2.4,-7.6 0,-1.6 0.3,-3.1 0.8,-4.4 0.8,-0.5 1.5,-1 2.2,-1.7 0.3,-0.3 0.7,-0.7 1,-1.1 1,3.1 2.8,5.7 5.2,7.2 0.4,2.7 1.4,5.2 2.8,7.2 -0.3,0.4 -0.6,0.8 -0.9,1.1 -0.8,0.8 -2.2,1.8 -4,1.8 -2.3,0.1 -4,-1.5 -4.7,-2.5 z m 18,-0.1 c -2.3,0 -3.9,-1.6 -4.6,-2.6 -0.7,-0.9 -1.2,-2 -1.7,-3.1 0.1,0 0.3,0 0.4,0 2.7,0 5.2,-1.2 7.2,-3.1 1.9,-1.9 3.4,-4.6 4,-7.7 1,1.8 1.7,4 1.7,6.4 0,3.3 -1.1,6.4 -3.1,8.3 -0.7,0.8 -2.1,1.8 -3.9,1.8 z M 62.6,35.1 c 0,3.3 -1.1,6.4 -3.1,8.3 -0.8,0.8 -2.2,1.8 -4,1.8 -3.8,0 -7,-4.6 -7,-10.1 0,-1.1 0.1,-2.2 0.4,-3.2 2.2,-0.3 4.1,-1.4 5.8,-3 1,-1 1.9,-2.2 2.6,-3.6 3,1.1 5.3,5.1 5.3,9.8 z M 37.9,53.3 c 0,-3 1,-5.9 2.7,-7.8 1,-0.5 2,-1.2 2.8,-2 0.5,-0.2 1,-0.3 1.6,-0.3 0.4,0 0.7,0.1 1.1,0.1 1.2,2.3 3,4.2 5.1,5.3 0.6,1.5 0.9,3.1 0.9,4.7 0,3.3 -1.1,6.4 -3.1,8.3 -0.8,0.8 -2.2,1.8 -4,1.8 -2.3,0 -3.9,-1.6 -4.6,-2.6 -1.7,-1.9 -2.5,-4.6 -2.5,-7.5 z m 33.3,0 c 0,3.3 -1.1,6.4 -3.1,8.3 -0.8,0.8 -2.2,1.8 -4,1.8 -0.7,0 -1.3,-0.2 -1.9,-0.4 -0.1,-4.8 -2.1,-9.1 -5,-11.6 0.1,-0.7 0.2,-1.3 0.4,-1.9 1.9,-0.4 3.6,-1.4 5,-2.9 0.9,-0.9 1.7,-2 2.4,-3.3 3.5,0.7 6.2,5 6.2,10 z M 29.3,31.9 c 0,-3.3 1.2,-6.4 3.1,-8.3 0.8,-0.8 2.2,-1.8 4,-1.8 0.1,0 0.1,0 0.2,0 1,4.2 3.6,7.6 6.8,9.3 0,0.3 0.1,0.6 0.1,0.8 0,3.3 -1.1,6.4 -3.1,8.3 -0.8,0.8 -2.2,1.8 -4,1.8 -3.9,0 -7.1,-4.6 -7.1,-10.1 z"
   id="path2" />
</g>
<path
   style="fill:#c837ab;stroke:#ffffff;stroke-width:0.117647"
   d="M 46.809896,96.627037 C 46.304172,96.377795 45.149698,95.112611 44.412741,94 43.056959,91.953133 41.87841,88.906978 41.363081,86.117647 41.135748,84.887155 41.090465,84.238894 41.08573,82.147054 c -0.0031,-1.375003 -0.01778,-2.500003 -0.03259,-2.5 -0.01481,3e-6 -0.438344,0.145149 -0.941177,0.322546 -0.837728,0.295548 -1.057006,0.322298 -2.620123,0.319619 -1.614534,-0.0028 -1.765731,-0.02345 -2.82353,-0.386293 -1.614266,-0.553716 -2.789689,-1.297273 -4.12404,-2.608808 -2.708077,-2.661774 -4.212526,-6.198817 -4.528629,-10.647059 -0.06502,-0.914992 0.08429,-3.161409 0.246696,-3.711446 0.04394,-0.148823 -0.149055,-0.207647 -1.05787,-0.322433 -7.021534,-0.886837 -11.733412,-9.295602 -10.062018,-17.956565 0.588865,-3.051429 1.899749,-5.662185 3.908633,-7.784432 1.489838,-1.573911 3.338338,-2.632324 5.285655,-3.026456 l 0.704599,-0.142608 0.02637,-2.292736 c 0.02124,-1.846462 0.07668,-2.526046 0.284824,-3.491372 1.17989,-5.47202 4.569712,-9.521101 8.893417,-10.623023 0.511821,-0.130441 1.152553,-0.237164 1.423849,-0.237164 h 0.493266 l 0.08131,-1.264706 C 36.558281,10.91158 38.834927,6.5674018 42.2817,4.2739981 c 1.843876,-1.2268734 3.437288,-1.7246706 5.50425,-1.7195815 2.783345,0.00685 5.231695,1.1471497 7.395544,3.4444075 3.063304,3.2521659 4.589787,8.4648089 3.906038,13.3383529 -0.107722,0.767798 -0.179939,1.408766 -0.160484,1.424368 0.01946,0.0156 0.483593,0.259556 1.031417,0.542119 3.464583,1.786996 5.971216,5.394102 6.960358,10.016123 0.412756,1.928704 0.423716,5.161976 0.02427,7.159211 -0.05714,0.285682 -0.0172,0.333188 0.389598,0.463477 0.85748,0.274633 2.229604,1.059686 3.164097,1.810322 2.470858,1.984727 4.217386,5.010662 5.018995,8.695626 0.221771,1.019467 0.260746,1.559141 0.260746,3.610401 0,2.05126 -0.03897,2.590934 -0.260746,3.610401 -1.23125,5.660001 -4.680182,9.647668 -9.243734,10.687638 -0.927862,0.211447 -2.835358,0.240284 -3.660615,0.05534 -0.309423,-0.06934 -0.575159,-0.111045 -0.590525,-0.09267 -0.01537,0.01837 -0.198558,0.589291 -0.40709,1.268702 -0.432266,1.408343 -1.170383,3.001562 -1.907651,4.117648 -1.177991,1.783256 -3.274955,3.539221 -5.161875,4.322471 -2.27297,0.943498 -5.047957,0.970253 -7.073319,0.0682 -0.367355,-0.163613 -0.721238,-0.264525 -0.786406,-0.22425 -0.240004,0.148331 -0.823504,1.927872 -1.020493,3.112271 -0.155016,0.932034 -0.188968,1.639896 -0.143892,3 0.122197,3.687061 1.278774,7.051803 3.282286,9.548911 1.211958,1.510538 1.369186,2.003434 0.936911,2.937105 -0.543156,1.173158 -1.84934,1.68879 -2.929486,1.156449 z M 39.173553,75.645968 c 0.42093,-0.130011 1.086959,-0.451163 1.480066,-0.71367 0.72166,-0.481906 1.892304,-1.692108 1.895377,-1.959425 9.41e-4,-0.07963 -0.192015,-0.447543 -0.428734,-0.817595 -0.926384,-1.44817 -1.769584,-3.609558 -2.134218,-5.470671 -0.178263,-0.90987 -0.238129,-1.043761 -0.548803,-1.227409 -0.617357,-0.364939 -2.260323,-2.032865 -2.86117,-2.90464 -0.770585,-1.118045 -1.20696,-1.987441 -1.919503,-3.824247 -0.101309,-0.261157 -0.131073,-0.243953 -0.767763,0.443748 -0.364302,0.393489 -1.09236,1.038421 -1.617904,1.433181 -0.525545,0.39476 -0.992293,0.780693 -1.037219,0.85763 -0.212287,0.36354 -0.573712,1.991928 -0.685047,3.086448 -0.499586,4.91137 1.962673,10.02027 5.34646,11.093283 0.967663,0.306851 2.29149,0.30821 3.278458,0.0034 z m 12.893368,-2.47662 c 1.840141,-0.424221 3.713442,-2.194224 4.791294,-4.527094 0.680138,-1.472071 0.995083,-2.909156 1.068938,-4.877548 0.09033,-2.407501 -0.240471,-4.084329 -1.230091,-6.235294 -0.464809,-1.010272 -0.394551,-1.069722 -0.972604,0.822995 -1.59691,5.228754 -5.492669,8.711816 -10.203692,9.122764 l -0.951077,0.08296 0.404588,0.887809 c 0.853939,1.873848 2.065984,3.375451 3.317288,4.109797 1.118418,0.656358 2.567974,0.891954 3.775356,0.613608 z M 46.838252,62.825774 c 2.640234,-0.908374 4.609637,-3.60696 5.318714,-7.288001 0.233659,-1.212992 0.260131,-3.740726 0.05055,-4.826693 -0.262922,-1.362342 -0.698186,-2.572025 -0.954762,-2.653459 -0.447949,-0.142174 -2.060962,-1.432567 -2.802361,-2.241858 -0.411029,-0.44867 -1.002035,-1.212822 -1.313347,-1.698116 -0.847339,-1.320892 -0.810377,-1.294216 -1.792268,-1.293461 -1.168944,9.41e-4 -1.572728,0.138309 -2.358321,0.802553 -0.371706,0.314289 -1.028093,0.777447 -1.458638,1.029239 -2.126167,1.243429 -3.60058,5.127599 -3.412973,8.991081 0.137173,2.824889 0.883974,4.908511 2.447885,6.829752 1.086785,1.335099 2.021434,2.035981 3.223223,2.417054 0.746484,0.236702 2.264856,0.202829 3.052299,-0.06809 z m 19.784429,-0.287695 c 1.810518,-0.887541 3.370234,-2.840541 4.159443,-5.208258 1.348947,-4.046991 0.696564,-8.739524 -1.643934,-11.824651 -0.948628,-1.250433 -2.508268,-2.353285 -3.570828,-2.525 -0.35575,-0.05749 -0.395699,-0.01918 -1.062834,1.019304 -1.47627,2.298005 -3.6062,4.088184 -5.676779,4.771258 -0.572987,0.189026 -1.050767,0.34456 -1.061733,0.345629 -0.01096,0.0011 -0.107365,0.43341 -0.214218,0.960754 l -0.194279,0.958808 0.760916,0.779871 c 2.317736,2.375479 3.923674,6.094306 4.156778,9.625745 0.04166,0.631081 0.13391,1.195427 0.205005,1.2541 0.290758,0.239956 1.014785,0.353268 2.083639,0.326095 1.045464,-0.02658 1.200909,-0.0631 2.058824,-0.483655 z M 27.952926,57.982624 c 0.948566,-0.325751 1.669289,-0.838258 2.660404,-1.891819 1.07076,-1.138225 1.887451,-2.694795 2.363828,-4.505332 0.266637,-1.013392 0.310826,-1.430819 0.323513,-3.056061 0.0081,-1.035294 -0.02809,-2.132747 -0.08039,-2.438785 -0.09388,-0.549396 -0.10659,-0.562416 -1.004955,-1.029796 -2.288333,-1.190523 -4.262224,-3.341381 -5.572529,-6.07213 -0.541822,-1.129187 -0.549262,-1.132384 -1.756216,-0.754784 -1.007521,0.315207 -1.735169,0.756088 -2.526475,1.530789 -3.705524,3.627767 -4.240642,10.731687 -1.157437,15.365459 1.793162,2.694956 4.221198,3.720972 6.750257,2.852459 z M 57.440261,44.585741 c 0.969689,-0.333622 1.682921,-0.828568 2.601929,-1.805607 0.958728,-1.019264 1.474682,-1.857202 1.988854,-3.230006 1.982844,-5.294054 0.347226,-11.864705 -3.532287,-14.190008 -0.384429,-0.230419 -0.781488,-0.418817 -0.882353,-0.418663 -0.101428,1.17e-4 -0.328383,0.2762 -0.507807,0.617647 -0.780993,1.486242 -2.416853,3.269149 -3.919384,4.271695 -1.183574,0.789726 -1.989398,1.161892 -3.168982,1.463579 -0.506602,0.129567 -0.943646,0.258127 -0.971208,0.28569 -0.02756,0.02756 -0.129766,0.570089 -0.227118,1.205611 -0.332395,2.169916 -0.02034,4.918405 0.788296,6.943042 1.068954,2.676425 3.084912,4.659238 5.175752,5.090656 0.716342,0.147808 1.830726,0.04972 2.654308,-0.233636 z m -18.4935,-3.448888 c 2.613978,-1.291898 4.462047,-4.513806 4.769702,-8.315461 0.153696,-1.899215 0.125614,-1.9763 -0.989333,-2.715581 -2.485333,-1.647936 -4.559677,-4.521645 -5.532602,-7.664634 L 36.87587,21.411765 h -0.503154 c -1.584405,0 -3.488623,1.166034 -4.704411,2.880712 -3.569074,5.033616 -2.595504,13.288647 1.939867,16.448395 0.994792,0.693062 1.78592,0.910536 3.18621,0.875861 1.174329,-0.02908 1.294422,-0.05585 2.152379,-0.47988 z M 49.173553,26.940086 c 1.956497,-0.604301 3.824993,-2.574726 4.731669,-4.989787 0.537117,-1.430692 0.770344,-2.626175 0.83952,-4.30324 C 54.891864,14.08029 53.788435,10.812958 51.72713,8.7116991 48.33673,5.2555836 43.807422,6.6604905 41.578906,11.85949 c -1.422809,3.319331 -1.30195,7.55104 0.311458,10.905216 1.083477,2.252481 2.536147,3.665357 4.366178,4.246567 0.728435,0.231348 2.041241,0.199311 2.917011,-0.07119 z"
   id="path836" /><path
   style="fill:#5a2ca0;stroke:#ffffff;stroke-width:0.117647"
   d="m 46.859526,96.488753 c -0.52795,-0.32348 -1.786657,-1.718533 -2.384706,-2.643025 -1.248311,-1.929689 -2.384871,-4.83855 -2.918331,-7.469039 -0.23981,-1.182507 -0.30683,-1.940161 -0.366835,-4.147058 -0.04038,-1.48512 -0.09036,-2.700219 -0.111061,-2.700219 -0.0207,0 -0.431915,0.132353 -0.913804,0.294117 -0.781137,0.262219 -1.069433,0.294118 -2.658204,0.294118 -1.599047,0 -1.874781,-0.03096 -2.685139,-0.301468 -5.485332,-1.83109 -9.202442,-8.458743 -8.622978,-15.374875 0.158367,-1.890168 0.196316,-1.799963 -0.808517,-1.921838 -4.991,-0.605355 -8.942672,-4.934853 -10.195944,-11.170793 -0.321039,-1.597406 -0.288162,-4.980693 0.06455,-6.642791 0.685718,-3.231324 1.852706,-5.552689 3.836262,-7.631066 1.570052,-1.645104 3.169758,-2.607523 5.084152,-3.058734 l 0.915848,-0.21586 0.07498,-2.357856 c 0.08068,-2.537107 0.240186,-3.589053 0.807413,-5.324834 0.908082,-2.778839 2.490204,-5.166479 4.47055,-6.746674 1.493611,-1.19181 3.955157,-2.194387 5.387699,-2.194387 h 0.458898 l 0.07606,-1.243064 c 0.330958,-5.409092 2.975983,-10.0068194 6.978991,-12.1312663 1.656269,-0.8790029 2.318082,-1.0374348 4.333649,-1.0374348 1.966374,0 2.777821,0.177582 4.289107,0.9386532 2.171576,1.093588 4.420723,3.5345683 5.557733,6.0317603 1.483806,3.2588536 1.916873,6.7680386 1.312161,10.6325846 l -0.06674,0.426525 1.100929,0.619722 c 2.53127,1.424871 4.147621,3.14573 5.506338,5.862364 1.597827,3.194711 2.109359,7.036379 1.469625,11.037058 l -0.07675,0.479948 1.218504,0.584073 c 1.39413,0.668257 2.875896,1.740173 3.754411,2.715959 1.746336,1.939693 3.072203,4.647072 3.639812,7.432374 0.338629,1.661684 0.338629,5.404509 0,7.066193 -1.131341,5.551584 -4.780063,9.737768 -9.281178,10.648308 -0.901982,0.182464 -2.468353,0.193619 -3.876414,0.02761 -0.25312,-0.02984 -0.317295,0.08445 -0.774443,1.379225 -0.934645,2.647183 -1.69604,3.99976 -3.073559,5.460002 -2.979681,3.158619 -6.806964,4.266938 -10.435544,3.021965 -1.447393,-0.496604 -1.446001,-0.497281 -1.90937,0.929798 -0.530213,1.632947 -0.684514,2.849474 -0.6118,4.823529 0.151989,4.126241 1.172042,6.977943 3.661161,10.235294 0.924756,1.210171 0.960724,1.921201 0.144222,2.851145 -0.641376,0.730487 -1.6627,0.954394 -2.371736,0.519961 z m -8.15285,-20.618762 c 0.342891,-0.07151 0.9445,-0.281289 1.33691,-0.466184 0.780659,-0.367831 2.19056,-1.582852 2.475001,-2.1329 0.175117,-0.338638 0.163871,-0.374671 -0.463619,-1.485452 -0.819793,-1.451196 -1.430462,-3.001669 -1.84931,-4.695343 l -0.330884,-1.337976 -1.360942,-1.299627 c -1.603311,-1.531075 -2.444676,-2.721538 -3.262256,-4.615831 -0.309921,-0.718074 -0.621216,-1.324831 -0.691765,-1.348347 -0.07055,-0.02352 -0.534917,0.35034 -1.031926,0.830791 -0.49701,0.480453 -1.211231,1.103656 -1.587159,1.384896 -0.375927,0.28124 -0.757212,0.65388 -0.847299,0.828088 -0.210871,0.407779 -0.603919,2.391008 -0.698945,3.526718 -0.150994,1.804596 0.281893,4.222291 1.091813,6.097838 1.549798,3.588894 4.228204,5.337307 7.220381,4.713329 z m 13.446968,-2.618385 c 1.087161,-0.290841 1.84208,-0.768915 2.882352,-1.825333 1.496018,-1.519235 2.445123,-3.435789 2.832819,-5.720391 0.212963,-1.254938 0.179363,-4.168871 -0.06105,-5.294117 -0.201241,-0.94192 -1.021201,-3.169176 -1.30991,-3.558104 -0.242825,-0.327119 -0.44449,-0.01525 -0.855355,1.32281 -1.628024,5.301925 -5.533173,8.796967 -10.270655,9.192057 -0.508248,0.04239 -0.924088,0.123453 -0.924088,0.18015 0,0.223918 1.114985,2.315801 1.594659,2.991826 1.581791,2.229281 3.963214,3.285743 6.111224,2.711102 z M 46.328353,63.059158 c 2.030723,-0.385119 4.057171,-2.288674 5.120533,-4.810005 0.764366,-1.812384 0.932919,-2.756954 0.936679,-5.249153 0.0027,-1.816206 -0.03776,-2.389695 -0.216011,-3.058824 -0.392783,-1.474445 -0.603853,-1.843322 -1.279027,-2.235294 -0.840692,-0.488063 -2.994767,-2.646523 -3.666006,-3.673468 -0.761106,-1.164433 -0.991275,-1.326687 -1.880861,-1.325875 -1.039929,9.41e-4 -1.556328,0.180467 -2.48416,0.863587 -0.452956,0.333489 -1.13644,0.817163 -1.518853,1.074832 -0.891936,0.600983 -1.509961,1.383614 -2.138427,2.707983 -0.874158,1.842117 -1.308314,4.146379 -1.185904,6.294118 0.166129,2.914766 0.869956,4.910137 2.411599,6.836953 1.776021,2.219753 3.593,3.012742 5.900438,2.575146 z M 66.631932,62.652416 C 70.949464,60.530529 72.842051,53.648286 70.661284,48 c -0.678609,-1.757626 -2.042357,-3.519102 -3.39182,-4.381019 -0.748525,-0.478089 -1.700655,-0.831056 -1.992185,-0.738529 -0.110505,0.03507 -0.505966,0.51285 -0.878804,1.061727 -1.661853,2.446516 -3.624611,4.036453 -5.950714,4.820386 l -0.764706,0.257717 -0.225495,1.00924 -0.225496,1.009242 0.740295,0.804147 c 2.300781,2.49923 3.714923,5.603677 4.117663,9.039442 0.228452,1.948908 0.218422,1.916422 0.631764,2.046219 0.659174,0.20699 0.940859,0.232352 2.020093,0.181879 0.91354,-0.04272 1.172877,-0.105572 1.890053,-0.458035 z M 27.848825,58.130052 c 0.982153,-0.30568 1.729597,-0.812996 2.69465,-1.828945 1.324301,-1.394145 2.238217,-3.194451 2.674493,-5.268436 0.205458,-0.976712 0.236444,-4.692095 0.04374,-5.244879 -0.09613,-0.275759 -0.31899,-0.470007 -0.911764,-0.794708 -2.31496,-1.268052 -3.998316,-3.042676 -5.424052,-5.718132 -0.771077,-1.446958 -0.793001,-1.464976 -1.570463,-1.290581 -2.065185,0.463244 -3.747511,1.93857 -4.914441,4.309747 -0.731153,1.485687 -1.111973,2.826968 -1.280087,4.508583 -0.362208,3.623105 0.74293,7.272723 2.89213,9.550988 1.346434,1.42729 2.503981,1.987866 4.119542,1.995007 0.622694,0.0028 1.211782,-0.07408 1.676252,-0.218644 z M 57.378236,44.718287 c 0.958926,-0.298452 1.697939,-0.791463 2.623544,-1.750222 1.004202,-1.040173 1.632051,-2.027416 2.094808,-3.293924 0.619657,-1.695921 0.852538,-3.037173 0.852424,-4.909435 -1.18e-4,-2.547607 -0.546763,-4.7542 -1.646073,-6.645027 -0.595753,-1.024699 -2.139061,-2.568043 -3.008754,-3.00882 l -0.682989,-0.346153 -0.317011,0.367947 c -0.174357,0.202371 -0.527016,0.705312 -0.783686,1.117647 -0.618897,0.994242 -2.226437,2.648784 -3.276438,3.372235 -1.14475,0.788734 -1.845207,1.126858 -3.132981,1.512346 -1.279834,0.383112 -1.233752,0.313919 -1.439121,2.160858 -0.322411,2.899505 0.402659,6.207936 1.843279,8.41073 0.908142,1.388604 2.561915,2.743842 3.8078,3.120422 0.611746,0.184907 2.316183,0.124516 3.065198,-0.108604 z M 38.967234,41.249048 c 2.88135,-1.433103 4.892292,-5.27021 4.892292,-9.335047 0,-0.972179 -0.0094,-1.005346 -0.385844,-1.366942 -0.212214,-0.203824 -0.715924,-0.603746 -1.119357,-0.888717 -0.958064,-0.676743 -2.308149,-2.098246 -3.081978,-3.245011 -0.776075,-1.150095 -1.649433,-2.962883 -2.014592,-4.181597 l -0.280582,-0.93644 -0.546431,-5.88e-4 c -2.10966,-0.0023 -4.420078,1.786121 -5.695081,4.40831 -1.028941,2.116139 -1.430503,4.140396 -1.307509,6.591102 0.157857,3.145369 1.267342,5.868066 3.140104,7.705882 1.383608,1.357788 2.526785,1.796866 4.457802,1.712175 0.978061,-0.0429 1.205257,-0.0971 1.941176,-0.463127 z m 9.664802,-14.082027 c 1.541817,-0.280714 3.255451,-1.5279 4.339183,-3.158065 3.238348,-4.871171 2.174167,-13.131483 -2.083118,-16.1694185 -2.429403,-1.7335864 -5.046261,-1.466675 -7.272154,0.7417377 -1.373142,1.3623584 -2.327031,3.1959338 -2.837986,5.4552048 -0.295036,1.304552 -0.347302,3.902581 -0.105772,5.257638 0.586009,3.287674 2.384331,6.242776 4.464109,7.335668 1.247963,0.655786 2.113769,0.788846 3.495738,0.537235 z"
   id="path838" /></svg>
