<?xml version="1.0" encoding="utf-8"?>
<!-- Generator: Adobe Illustrator 18.0.0, SVG Export Plug-In . SVG Version: 6.00 Build 0)  -->
<!DOCTYPE svg PUBLIC "-//W3C//DTD SVG 1.1//EN" "http://www.w3.org/Graphics/SVG/1.1/DTD/svg11.dtd">
<svg version="1.1" id="Layer_1" xmlns="http://www.w3.org/2000/svg" xmlns:xlink="http://www.w3.org/1999/xlink" x="0px" y="0px"
	 viewBox="0 0 100 100" enable-background="new 0 0 100 100" xml:space="preserve">
<g>
	<path fill="#FFFFFF" d="M47.5,2.8c-2.7,0-5.2,1.2-7.2,3.1c-2.7,2.7-4.4,6.8-4.4,11.4c-2.6,0.1-4.9,1.2-6.8,3.1
		c-2.7,2.7-4.4,6.8-4.4,11.5c0,0.7,0.1,1.4,0.1,2.1c-2.2,0.3-4.3,1.3-5.9,3c-2.7,2.7-4.4,6.8-4.4,11.5c0,8.1,5.1,14.6,11.5,14.6
		c-0.2,1-0.3,2-0.3,3c0,8.1,5.2,14.7,11.6,14.7c1.3,0,2.5-0.3,3.6-0.8c-0.8,5.9,1.2,12.8,5,16.6c0.9,0.9,2.3,0.9,3.2,0
		c0.9-0.9,0.9-2.3,0-3.2c-0.7-0.7-1.4-1.7-1.9-2.7c-2-3.8-2.6-9.3-1-12.9c0.1-0.2,0.2-0.4,0.3-0.6c1.3,0.7,2.7,1,4.2,1
		c2.7,0,5.2-1.2,7.2-3.1c1.9-1.9,3.2-4.4,3.9-7.4c0.8,0.2,1.5,0.3,2.3,0.3c2.7,0,5.2-1.2,7.2-3.1c2.7-2.7,4.4-6.8,4.4-11.5
		c0-7-3.9-12.8-9-14.3c0.3-1.3,0.4-2.6,0.4-3.9c0-6.7-3.6-12.3-8.4-14.1c0.2-1.2,0.4-2.4,0.4-3.6C59.1,9.3,53.9,2.8,47.5,2.8z
		 M54.5,17.4c0,3.3-1.1,6.4-3.1,8.3c-0.8,0.8-2.2,1.8-4,1.8c-2.3,0-3.9-1.6-4.6-2.6c-1.5-1.9-2.4-4.7-2.4-7.6c0-3.3,1.2-6.4,3.1-8.3
		c0.8-0.8,2.2-1.8,4-1.8C51.3,7.3,54.5,11.9,54.5,17.4z M22.1,40.2c0.8-0.8,2.1-1.7,3.8-1.8c1.4,3.5,3.9,6.3,6.9,7.5
		c0.2,0.9,0.3,1.7,0.3,2.6c0,3.3-1.1,6.4-3.1,8.3c-0.8,0.8-2.2,1.8-4,1.8c-2.3,0-3.9-1.6-4.6-2.6c-1.5-1.9-2.4-4.7-2.4-7.6
		C19,45.2,20.2,42.1,22.1,40.2z M32.7,73.7c-1.5-1.9-2.4-4.7-2.4-7.6c0-1.6,0.3-3.1,0.8-4.4c0.8-0.5,1.5-1,2.2-1.7
		c0.3-0.3,0.7-0.7,1-1.1c1,3.1,2.8,5.7,5.2,7.2c0.4,2.7,1.4,5.2,2.8,7.2c-0.3,0.4-0.6,0.8-0.9,1.1c-0.8,0.8-2.2,1.8-4,1.8
		C35.1,76.3,33.4,74.7,32.7,73.7z M50.7,73.6c-2.3,0-3.9-1.6-4.6-2.6c-0.7-0.9-1.2-2-1.7-3.1c0.1,0,0.3,0,0.4,0
		c2.7,0,5.2-1.2,7.2-3.1c1.9-1.9,3.4-4.6,4-7.7c1,1.8,1.7,4,1.7,6.4c0,3.3-1.1,6.4-3.1,8.3C53.9,72.6,52.5,73.6,50.7,73.6z
		 M62.6,35.1c0,3.3-1.1,6.4-3.1,8.3c-0.8,0.8-2.2,1.8-4,1.8c-3.8,0-7-4.6-7-10.1c0-1.1,0.1-2.2,0.4-3.2c2.2-0.3,4.1-1.4,5.8-3
		c1-1,1.9-2.2,2.6-3.6C60.3,26.4,62.6,30.4,62.6,35.1z M37.9,53.3c0-3,1-5.9,2.7-7.8c1-0.5,2-1.2,2.8-2c0.5-0.2,1-0.3,1.6-0.3
		c0.4,0,0.7,0.1,1.1,0.1c1.2,2.3,3,4.2,5.1,5.3c0.6,1.5,0.9,3.1,0.9,4.7c0,3.3-1.1,6.4-3.1,8.3c-0.8,0.8-2.2,1.8-4,1.8
		c-2.3,0-3.9-1.6-4.6-2.6C38.7,58.9,37.9,56.2,37.9,53.3z M71.2,53.3c0,3.3-1.1,6.4-3.1,8.3c-0.8,0.8-2.2,1.8-4,1.8
		c-0.7,0-1.3-0.2-1.9-0.4c-0.1-4.8-2.1-9.1-5-11.6c0.1-0.7,0.2-1.3,0.4-1.9c1.9-0.4,3.6-1.4,5-2.9c0.9-0.9,1.7-2,2.4-3.3
		C68.5,44,71.2,48.3,71.2,53.3z M29.3,31.9c0-3.3,1.2-6.4,3.1-8.3c0.8-0.8,2.2-1.8,4-1.8c0.1,0,0.1,0,0.2,0c1,4.2,3.6,7.6,6.8,9.3
		c0,0.3,0.1,0.6,0.1,0.8c0,3.3-1.1,6.4-3.1,8.3c-0.8,0.8-2.2,1.8-4,1.8C32.5,42,29.3,37.4,29.3,31.9z"/>
</g>
</svg>
