<?xml version="1.0" encoding="utf-8"?>
<!-- Generator: Adobe Illustrator 18.0.0, SVG Export Plug-In . SVG Version: 6.00 Build 0)  -->
<!DOCTYPE svg PUBLIC "-//W3C//DTD SVG 1.1//EN" "http://www.w3.org/Graphics/SVG/1.1/DTD/svg11.dtd">
<svg version="1.1" id="Layer_1" xmlns="http://www.w3.org/2000/svg" xmlns:xlink="http://www.w3.org/1999/xlink" x="0px" y="0px"
	 viewBox="0 0 100 100" enable-background="new 0 0 100 100" xml:space="preserve">
<g>
	<path fill="#FFFFFF" d="M33.2,83.2c-15,0-27.3-12.3-27.3-27.3c0-15,12.2-27.3,27.3-27.3c2.2,0,4.3,0.3,6.4,0.8
		c9.1,2.2,16.6,9,19.5,17.9c0.6,1.9,1,3.8,1.2,5.8c0.1,0.9,0.2,1.8,0.2,2.8c0,10.5-5.9,19.9-15.3,24.5
		C41.5,82.3,37.4,83.2,33.2,83.2z M33.2,35.3c-11.3,0-20.5,9.2-20.5,20.5c0,11.3,9.2,20.6,20.5,20.6c3.2,0,6.2-0.7,9.1-2.1
		c7.1-3.5,11.5-10.6,11.5-18.5c0-0.7,0-1.4-0.1-2.1c-0.1-1.5-0.5-2.9-0.9-4.4c-2.2-6.7-7.8-11.9-14.7-13.5
		C36.5,35.5,34.9,35.3,33.2,35.3z"/>
	<path fill="#FFFFFF" d="M62.6,57.4c-2.2,0-4.3-0.3-6.4-0.8l-2.3-0.6l-0.2-2.4c-0.1-1.4-0.5-2.9-0.9-4.3
		c-2.2-6.7-7.8-11.9-14.7-13.5l-2.3-0.5l-0.3-2.3c-0.1-1-0.2-1.9-0.2-2.9c0-15.1,12.2-27.3,27.3-27.3c15,0,27.3,12.3,27.3,27.3
		c0,8.3-3.7,16-10.1,21.2C75,55.3,68.9,57.4,62.6,57.4z M60,50.5c5.6,0.7,11.2-0.9,15.6-4.4c4.8-3.9,7.6-9.7,7.6-16
		c0-11.3-9.2-20.6-20.5-20.6c-11.3,0-20.5,9.2-20.5,20.5c8,2.7,14.4,9.1,17.1,17.2C59.5,48.4,59.8,49.4,60,50.5z"/>
	<path fill="#FFFFFF" d="M66.5,97.1c-11.8,0-22.2-7.5-25.9-18.7l-0.9-2.8l2.6-1.3c7.1-3.5,11.5-10.6,11.5-18.5c0-0.7,0-1.4-0.1-2.1
		l-0.6-4.8l4.7,1.2c6.1,1.5,12.8,0,17.7-4l1.7-1.4l2,1c8.9,4.7,14.5,14,14.5,24.1C93.7,84.9,81.5,97.1,66.5,97.1z M48,78.9
		c3.4,7,10.5,11.5,18.5,11.5c11.3,0,20.5-9.2,20.5-20.5c0-6.9-3.4-13.3-9.1-17.1c-5.1,3.4-11.3,5.1-17.4,4.6
		C60,66.2,55.4,74.1,48,78.9z"/>
	<path fill="#FFFFFF" d="M70.3,24.3c-2.9,0-5.2-2.3-5.2-5.2s2.3-5.2,5.2-5.2s5.2,2.3,5.2,5.2S73.1,24.3,70.3,24.3z M70.3,17.2
		c-1,0-1.8,0.8-1.8,1.8c0,1,0.8,1.8,1.8,1.8c1,0,1.8-0.8,1.8-1.8C72.1,18,71.3,17.2,70.3,17.2z"/>
	<path fill="#FFFFFF" d="M76.9,84.4c-2.9,0-5.2-2.3-5.2-5.2S74,74,76.9,74s5.2,2.3,5.2,5.2S79.8,84.4,76.9,84.4z M76.9,77.4
		c-1,0-1.8,0.8-1.8,1.8c0,1,0.8,1.8,1.8,1.8c1,0,1.8-0.8,1.8-1.8C78.8,78.2,77.9,77.4,76.9,77.4z"/>
	<path fill="#FFFFFF" d="M18.8,61.1c-2.9,0-5.2-2.3-5.2-5.2s2.3-5.2,5.2-5.2S24,53,24,55.9S21.6,61.1,18.8,61.1z M18.8,54
		c-1,0-1.8,0.8-1.8,1.8s0.8,1.8,1.8,1.8c1,0,1.8-0.8,1.8-1.8S19.8,54,18.8,54z"/>
</g>
</svg>
