<?xml version="1.0" encoding="UTF-8" standalone="no"?>
<svg
   xmlns:dc="http://purl.org/dc/elements/1.1/"
   xmlns:cc="http://creativecommons.org/ns#"
   xmlns:rdf="http://www.w3.org/1999/02/22-rdf-syntax-ns#"
   xmlns:svg="http://www.w3.org/2000/svg"
   xmlns="http://www.w3.org/2000/svg"
   xmlns:sodipodi="http://sodipodi.sourceforge.net/DTD/sodipodi-0.dtd"
   xmlns:inkscape="http://www.inkscape.org/namespaces/inkscape"
   version="1.1"
   id="Layer_1"
   x="0px"
   y="0px"
   viewBox="0 0 100 100"
   enable-background="new 0 0 100 100"
   xml:space="preserve"
   sodipodi:docname="Soya color.svg"
   inkscape:version="1.0.1 (3bc2e813f5, 2020-09-07)"><metadata
   id="metadata21"><rdf:RDF><cc:Work
       rdf:about=""><dc:format>image/svg+xml</dc:format><dc:type
         rdf:resource="http://purl.org/dc/dcmitype/StillImage" /><dc:title></dc:title></cc:Work></rdf:RDF></metadata><defs
   id="defs19" /><sodipodi:namedview
   pagecolor="#ffffff"
   bordercolor="#666666"
   borderopacity="1"
   objecttolerance="10"
   gridtolerance="10"
   guidetolerance="10"
   inkscape:pageopacity="0"
   inkscape:pageshadow="2"
   inkscape:window-width="1920"
   inkscape:window-height="1017"
   id="namedview17"
   showgrid="false"
   inkscape:zoom="8.5"
   inkscape:cx="45.821598"
   inkscape:cy="50"
   inkscape:window-x="-8"
   inkscape:window-y="-8"
   inkscape:window-maximized="1"
   inkscape:current-layer="Layer_1" />
<g
   id="g14">
	<path
   fill="#2C3136"
   d="M33.2,83.2c-15,0-27.3-12.3-27.3-27.3c0-15,12.2-27.3,27.3-27.3c2.2,0,4.3,0.3,6.4,0.8   c9.1,2.2,16.6,9,19.5,17.9c0.6,1.9,1,3.8,1.2,5.8c0.1,0.9,0.2,1.8,0.2,2.8c0,10.5-5.9,19.9-15.3,24.5   C41.5,82.3,37.4,83.2,33.2,83.2z M33.2,35.3c-11.3,0-20.5,9.2-20.5,20.5c0,11.3,9.2,20.6,20.5,20.6c3.2,0,6.2-0.7,9.1-2.1   c7.1-3.5,11.5-10.6,11.5-18.5c0-0.7,0-1.4-0.1-2.1c-0.1-1.5-0.5-2.9-0.9-4.4c-2.2-6.7-7.8-11.9-14.7-13.5   C36.5,35.5,34.9,35.3,33.2,35.3z"
   id="path2" />
	<path
   fill="#2C3136"
   d="M62.6,57.4c-2.2,0-4.3-0.3-6.4-0.8l-2.3-0.6l-0.2-2.4c-0.1-1.4-0.5-2.9-0.9-4.3   c-2.2-6.7-7.8-11.9-14.7-13.5l-2.3-0.5l-0.3-2.3c-0.1-1-0.2-1.9-0.2-2.9c0-15.1,12.2-27.3,27.3-27.3c15,0,27.3,12.3,27.3,27.3   c0,8.3-3.7,16-10.1,21.2C75,55.3,68.9,57.4,62.6,57.4z M60,50.5c5.6,0.7,11.2-0.9,15.6-4.4c4.8-3.9,7.6-9.7,7.6-16   c0-11.3-9.2-20.6-20.5-20.6c-11.3,0-20.5,9.2-20.5,20.5c8,2.7,14.4,9.1,17.1,17.2C59.5,48.4,59.8,49.4,60,50.5z"
   id="path4" />
	<path
   fill="#2C3136"
   d="M66.5,97.1c-11.8,0-22.2-7.5-25.9-18.7l-0.9-2.8l2.6-1.3c7.1-3.5,11.5-10.6,11.5-18.5c0-0.7,0-1.4-0.1-2.1   l-0.6-4.8l4.7,1.2c6.1,1.5,12.8,0,17.7-4l1.7-1.4l2,1c8.9,4.7,14.5,14,14.5,24.1C93.7,84.9,81.5,97.1,66.5,97.1z M48,78.9   c3.4,7,10.5,11.5,18.5,11.5c11.3,0,20.5-9.2,20.5-20.5c0-6.9-3.4-13.3-9.1-17.1c-5.1,3.4-11.3,5.1-17.4,4.6   C60,66.2,55.4,74.1,48,78.9z"
   id="path6" />
	<path
   fill="#2C3136"
   d="M70.3,24.3c-2.9,0-5.2-2.3-5.2-5.2s2.3-5.2,5.2-5.2s5.2,2.3,5.2,5.2S73.1,24.3,70.3,24.3z M70.3,17.2   c-1,0-1.8,0.8-1.8,1.8c0,1,0.8,1.8,1.8,1.8c1,0,1.8-0.8,1.8-1.8C72.1,18,71.3,17.2,70.3,17.2z"
   id="path8" />
	<path
   fill="#2C3136"
   d="M76.9,84.4c-2.9,0-5.2-2.3-5.2-5.2S74,74,76.9,74s5.2,2.3,5.2,5.2S79.8,84.4,76.9,84.4z M76.9,77.4   c-1,0-1.8,0.8-1.8,1.8c0,1,0.8,1.8,1.8,1.8c1,0,1.8-0.8,1.8-1.8C78.8,78.2,77.9,77.4,76.9,77.4z"
   id="path10" />
	<path
   fill="#2C3136"
   d="M18.8,61.1c-2.9,0-5.2-2.3-5.2-5.2s2.3-5.2,5.2-5.2S24,53,24,55.9S21.6,61.1,18.8,61.1z M18.8,54   c-1,0-1.8,0.8-1.8,1.8s0.8,1.8,1.8,1.8c1,0,1.8-0.8,1.8-1.8S19.8,54,18.8,54z"
   id="path12" />
</g>
<path
   style="fill:#916f7c;stroke:#ffffff;stroke-width:0.117647"
   d="M 64.056892,96.939576 C 58.497508,96.360572 53.529634,94.329958 49.292186,90.904516 46.629051,88.751708 43.829618,85.308927 42.36255,82.382353 42.192258,82.042647 41.9953,81.764706 41.924865,81.764706 c -0.07043,0 -0.559249,0.131166 -1.086254,0.29148 -2.400431,0.730208 -4.756381,1.047473 -7.722895,1.040009 -2.651832,-0.0067 -4.594136,-0.262621 -7.003055,-0.922833 C 17.218073,79.735627 10.05561,72.862746 7.2406565,64.064364 6.8228774,62.758559 6.3930327,60.835656 6.1611688,59.235294 5.9631311,57.868406 5.9617436,54.024996 6.1587692,52.588235 7.4157805,43.421782 12.847042,35.718292 20.939245,31.624184 c 4.006041,-2.026788 7.783525,-2.918302 12.365294,-2.918302 2.251906,0 2.164118,0.03438 2.164118,-0.847464 0,-0.820343 0.355246,-2.914651 0.767099,-4.522334 1.19186,-4.652477 3.45658,-8.687385 6.815897,-12.143451 4.326746,-4.4513574 9.539734,-7.1034085 15.887592,-8.0826406 1.592296,-0.2456306 5.279301,-0.280002 6.882353,-0.064159 7.166801,0.9649727 13.612692,4.5737728 17.998486,10.0766426 7.985221,10.019084 7.991948,24.085142 0.01626,33.995171 l -0.852152,1.058824 0.565764,0.466901 c 0.311169,0.256795 1.088847,0.971501 1.728171,1.588235 4.191765,4.043651 6.939711,9.204921 7.95689,14.944864 0.3257,1.837927 0.449372,5.709402 0.240945,7.542702 -1.291061,11.356074 -9.325985,20.646446 -20.28577,23.455399 -0.851114,0.218136 -2.155758,0.482941 -2.899211,0.588453 -1.618669,0.229723 -4.845979,0.321122 -6.234085,0.176551 z m 5.882353,-6.771485 C 78.22628,88.725967 84.877698,82.357182 86.588137,74.226648 87.060591,71.980842 87.15191,69.00744 86.817578,66.755832 86.330696,63.476844 84.93425,60.140738 82.918366,57.440618 81.9985,56.208529 80.094558,54.306765 78.903723,53.430568 l -0.976699,-0.71864 -0.964478,0.60595 c -4.228533,2.656644 -9.83634,4.192517 -14.876409,4.074367 l -1.676638,-0.0393 -3.53e-4,0.470588 c -5.88e-4,0.761489 -0.42645,3.434022 -0.751305,4.71508 -0.891721,3.516493 -2.508742,6.891189 -4.702344,9.813712 -1.559399,2.077578 -4.338836,4.726831 -6.383165,6.08419 -0.348186,0.231182 -0.633066,0.454537 -0.633066,0.496344 0,0.1873 1.308584,2.335153 1.960317,3.217579 3.37683,4.572121 8.577435,7.546999 14.333801,8.199298 1.310099,0.148456 4.368476,0.0511 5.705882,-0.181641 z M 35.25031,76.347622 c 9.038844,-0.912274 16.297864,-7.463567 18.16975,-16.398269 0.40421,-1.929334 0.510072,-4.959329 0.240178,-6.874358 -0.663154,-4.705376 -2.564372,-8.594201 -5.787866,-11.838723 -3.305592,-3.327156 -7.358466,-5.290236 -12.035455,-5.82958 -1.791612,-0.206606 -5.175033,-0.09047 -6.658137,0.228546 -5.543283,1.19235 -9.978642,4.171903 -13.064731,8.776527 -4.632608,6.912122 -4.613184,15.972147 0.04909,22.900017 4.262554,6.3339 11.57226,9.794306 19.087166,9.03584 z M 65.115716,50.536659 C 72.088037,49.607447 78.000306,45.481333 81.057119,39.411313 83.624231,34.313711 83.939546,28.021394 81.893381,22.723198 80.708312,19.654662 78.679164,16.72604 76.271657,14.609492 70.761339,9.7651224 63.26339,8.2211695 56.236061,10.483828 c -1.475164,0.474974 -4.142396,1.832011 -5.458701,2.777285 -5.06646,3.638361 -8.267267,9.411246 -8.563436,15.444769 l -0.06641,1.352942 1.074881,0.397123 c 2.207524,0.815587 5.205971,2.535353 7.187441,4.122372 0.420588,0.336861 1.287886,1.125429 1.927328,1.752373 3.733119,3.660147 6.204352,7.890507 7.196512,12.319287 0.223065,0.99571 0.405572,1.836253 0.405572,1.867873 0,0.201429 3.705162,0.21489 5.176471,0.01881 z"
   id="path846" /><path
   style="fill:#916f7c;stroke:#ffffff;stroke-width:0.117647"
   d="m 17.64025,60.89472 c -1.513171,-0.367617 -2.826824,-1.441244 -3.498462,-2.859236 -0.355453,-0.750448 -0.379014,-0.880636 -0.379014,-2.094308 0,-1.070068 0.04568,-1.406142 0.263868,-1.941176 0.38285,-0.938826 1.0472,-1.753124 1.895399,-2.323202 0.930229,-0.625211 1.802548,-0.883959 2.949564,-0.874903 1.486233,0.01173 2.643529,0.530765 3.693516,1.656488 1.897491,2.034361 1.780319,5.161802 -0.266539,7.114174 -1.313334,1.252708 -2.987878,1.72799 -4.658332,1.322163 z m 2.0399,-3.470813 c 1.195341,-0.609818 1.275441,-2.403325 0.141448,-3.167162 -0.349451,-0.235384 -0.523624,-0.270466 -1.15092,-0.231818 -1.071124,0.06599 -1.58169,0.576558 -1.647683,1.647683 -0.03865,0.627295 -0.0036,0.801469 0.231818,1.150919 0.528594,0.78475 1.562337,1.040648 2.425337,0.600378 z"
   id="path848" /><path
   style="fill:#916f7c;stroke:#ffffff;stroke-width:0.117647"
   d="m 69.010378,24.049116 c -2.5258,-0.679226 -4.170007,-3.163342 -3.768908,-5.694178 0.430922,-2.719009 2.638609,-4.48232 5.424689,-4.332778 0.800664,0.04298 1.128372,0.124109 1.79926,0.445459 2.067855,0.990486 3.277029,3.270022 2.888326,5.445075 -0.53026,2.96715 -3.497144,4.901814 -6.343367,4.136422 z m 2.221888,-3.443861 c 0.467249,-0.250589 0.942273,-1.050441 0.942273,-1.586615 0,-0.477758 -0.400731,-1.259612 -0.790482,-1.542286 -0.193776,-0.140539 -0.569412,-0.247203 -0.968878,-0.275117 -0.721913,-0.05045 -1.22609,0.196609 -1.696209,0.831174 -0.335682,0.453102 -0.335682,1.482076 0,1.935178 0.61691,0.832703 1.657394,1.096691 2.513296,0.637666 z"
   id="path850" /><path
   style="fill:#6c535d;stroke:#ffffff;stroke-width:0.117647"
   d="m 75.826928,84.224428 c -1.404353,-0.275289 -2.811867,-1.38316 -3.475039,-2.735246 -1.288416,-2.626843 -0.235402,-5.697 2.37867,-6.935228 0.753253,-0.356799 0.871058,-0.377483 2.149862,-0.377483 1.272544,0 1.399246,0.02194 2.132163,0.3692 2.676168,1.267989 3.75399,4.306304 2.460038,6.934694 -1.02285,2.077704 -3.328408,3.198309 -5.645694,2.744063 z m 2.0844,-3.479976 c 0.73005,-0.54506 1.045203,-1.522068 0.73362,-2.274296 -0.484429,-1.169515 -2.143898,-1.484449 -3.049594,-0.578753 -0.888565,0.888564 -0.615668,2.496216 0.510383,3.006709 0.480329,0.217756 1.414615,0.138246 1.805591,-0.15366 z"
   id="path852" /></svg>
