<?xml version="1.0" encoding="UTF-8" standalone="no"?>
<svg
   xmlns:dc="http://purl.org/dc/elements/1.1/"
   xmlns:cc="http://creativecommons.org/ns#"
   xmlns:rdf="http://www.w3.org/1999/02/22-rdf-syntax-ns#"
   xmlns:svg="http://www.w3.org/2000/svg"
   xmlns="http://www.w3.org/2000/svg"
   xmlns:sodipodi="http://sodipodi.sourceforge.net/DTD/sodipodi-0.dtd"
   xmlns:inkscape="http://www.inkscape.org/namespaces/inkscape"
   version="1.1"
   id="Layer_1"
   x="0px"
   y="0px"
   viewBox="0 0 100 100"
   enable-background="new 0 0 100 100"
   xml:space="preserve"
   sodipodi:docname="Tabaco color.svg"
   inkscape:version="1.0.1 (3bc2e813f5, 2020-09-07)"><metadata
   id="metadata17"><rdf:RDF><cc:Work
       rdf:about=""><dc:format>image/svg+xml</dc:format><dc:type
         rdf:resource="http://purl.org/dc/dcmitype/StillImage" /><dc:title></dc:title></cc:Work></rdf:RDF></metadata><defs
   id="defs15" /><sodipodi:namedview
   pagecolor="#ffffff"
   bordercolor="#666666"
   borderopacity="1"
   objecttolerance="10"
   gridtolerance="10"
   guidetolerance="10"
   inkscape:pageopacity="0"
   inkscape:pageshadow="2"
   inkscape:window-width="1920"
   inkscape:window-height="1017"
   id="namedview13"
   showgrid="false"
   inkscape:zoom="8.5"
   inkscape:cx="25.858121"
   inkscape:cy="50"
   inkscape:window-x="-8"
   inkscape:window-y="-8"
   inkscape:window-maximized="1"
   inkscape:current-layer="Layer_1" />
<g
   id="g10">
	<path
   fill="#2C3136"
   d="M51,80.3c-0.8,0-1.4,0-1.5,0c-0.3,0-0.5-0.1-0.8-0.2c-0.2,0.1-0.5,0.2-0.8,0.2c-0.5,0-11.9,0.9-20-6.6   c-5.1-4.7-7.8-11.6-7.8-20.5c0-27.6,26-48.6,27.1-49.4c0.9-0.7,2.2-0.7,3.1,0c1.1,0.9,27.1,21.8,27.1,49.4c0,8.9-2.6,15.8-7.8,20.5   C63.1,79.6,54.4,80.3,51,80.3z M47.8,75.3c0.3,0,0.7,0.1,1,0.2c0.4-0.2,0.8-0.2,1.2-0.2c0.2,0,9.8,0.7,16.3-5.3   c4.1-3.8,6.1-9.4,6.1-16.9c0-21.5-18.2-39.4-23.7-44.3c-5.5,4.9-23.7,22.7-23.7,44.3c0,7.4,2.1,13.1,6.2,16.9   c6.6,6.1,16.2,5.3,16.3,5.3C47.6,75.3,47.7,75.3,47.8,75.3z"
   id="path2" />
	<path
   fill="#2C3136"
   d="M48.8,41.5c-0.5,0-1-0.2-1.5-0.5L29.6,28c-1.1-0.8-1.3-2.3-0.5-3.4c0.8-1.1,2.3-1.3,3.4-0.5L48.8,36L65,24   c1.1-0.8,2.6-0.6,3.4,0.5c0.8,1.1,0.6,2.6-0.5,3.4L50.2,41C49.8,41.3,49.3,41.5,48.8,41.5z"
   id="path4" />
	<path
   fill="#2C3136"
   d="M48.8,66.4c-0.5,0-1-0.1-1.4-0.4L21.8,48.2c-1.1-0.8-1.4-2.3-0.6-3.4c0.8-1.1,2.3-1.4,3.4-0.6l24.2,16.8   l24.2-16.8c1.1-0.8,2.6-0.5,3.4,0.6c0.8,1.1,0.5,2.6-0.6,3.4L50.2,65.9C49.7,66.2,49.3,66.4,48.8,66.4z"
   id="path6" />
	<path
   fill="#2C3136"
   d="M48.8,97.3c-1.4,0-2.5-1.1-2.5-2.5V5.6c0-1.4,1.1-2.5,2.5-2.5c1.4,0,2.5,1.1,2.5,2.5v89.3   C51.2,96.2,50.1,97.3,48.8,97.3z"
   id="path8" />
</g>
<path
   style="fill:#ac9d93;stroke:#ffffff;stroke-width:0.117647"
   d="m 48.266469,97.156036 c -0.897997,-0.201264 -1.623861,-0.924443 -1.83325,-1.826469 -0.0571,-0.245968 -0.105076,-3.742802 -0.106619,-7.770743 l -0.0028,-7.32353 h -0.912486 c -2.346699,0 -5.99304,-0.646338 -8.675749,-1.537834 C 28.698979,76.026808 23.285641,70.179992 21.194026,61.911418 20.426093,58.875624 20.274747,57.455101 20.26965,53.235294 20.26455,49.028853 20.383229,47.722795 21.092678,44.176471 23.17855,33.749804 28.976724,22.956174 37.9034,12.882353 40.568092,9.8752289 46.672457,4.0315884 47.765813,3.4411765 48.70646,2.9332273 49.896121,3.1877204 50.662781,4.060898 c 0.217682,0.2479267 0.931934,0.9254186 1.587226,1.5055375 3.998941,3.5401956 8.601099,8.5451645 11.973778,13.0217995 9.163456,12.162873 13.693641,24.892652 13.045036,36.656437 -0.412839,7.487676 -2.493005,12.94317 -6.574948,17.243621 -4.30319,4.533539 -10.687772,7.248822 -18.105367,7.699988 l -1.32353,0.0805 -0.0026,7.424433 c -0.0025,7.218749 -0.0092,7.439099 -0.242596,7.953844 -0.53415,1.178209 -1.606618,1.765983 -2.75332,1.508977 z m -1.970851,-26.890451 -0.03065,-5.14618 -10.588235,-7.363627 -10.588235,-7.363627 -0.106617,1.186277 c -0.132543,1.474758 0.06583,4.972804 0.394179,6.950984 1.139968,6.867783 4.580343,11.757806 10.183026,14.473779 2.337091,1.132935 4.879206,1.869547 7.470588,2.164701 1.584679,0.180493 1.856741,0.203872 2.618884,0.225044 l 0.677707,0.01883 z m 6.792881,5.022844 c 5.661437,-0.484861 10.146029,-2.30218 13.431173,-5.442797 3.007133,-2.874839 4.818629,-6.649232 5.581896,-11.630314 0.274013,-1.788205 0.462097,-7.316623 0.255935,-7.522784 -0.07701,-0.07702 -3.676261,2.344347 -10.60456,7.13413 l -10.487974,7.250715 v 5.167193 c 0,4.843167 0.01291,5.167116 0.205883,5.165979 0.113235,-7.06e-4 0.841176,-0.05562 1.617647,-0.122122 z m -6.766798,-25.553135 -0.0021,-9.558823 -7.25274,-5.32172 c -5.560444,-4.079995 -7.288622,-5.291942 -7.406521,-5.194093 -0.259088,0.215023 -2.565279,4.997494 -3.312233,6.868754 -1.311795,3.286289 -2.76499,8.301568 -2.488052,8.586787 0.174957,0.180189 20.273948,14.155363 20.375494,14.167432 0.04853,0.0058 0.08729,-4.290984 0.08614,-9.548337 z m 15.183665,2.536165 c 6.309262,-4.381468 10.112544,-7.093892 10.112544,-7.21206 0,-0.367219 -0.826147,-3.548124 -1.306377,-5.02993 -0.831098,-2.564445 -1.712594,-4.686653 -3.176368,-7.647116 -0.775837,-1.569118 -1.447842,-2.851595 -1.493345,-2.849949 -0.0455,0.0016 -3.285674,2.376197 -7.20038,5.276782 l -7.117647,5.27379 -0.0301,9.605571 c -0.01655,5.283064 -10e-4,9.605571 0.03451,9.605571 0.03554,0 4.615259,-3.160197 10.177159,-7.022659 z m -15.184787,-29.712635 -0.0032,-11.676471 -1.615678,1.647059 c -3.638984,3.709662 -6.837129,7.570884 -9.714917,11.729127 l -0.789576,1.140892 0.857417,0.642921 c 1.248687,0.936309 11.203188,8.192942 11.238912,8.192942 0.01665,0 0.02882,-5.254412 0.02705,-11.67647 z m 10.94439,7.266452 c 3.138236,-2.317221 5.752139,-4.254177 5.808674,-4.304348 0.11674,-0.103595 -1.170051,-2.02415 -2.871421,-4.285634 -2.206983,-2.933555 -5.355249,-6.563771 -7.752223,-8.938969 l -1.18503,-1.174263 v 11.571022 c 0,9.238571 0.02964,11.548272 0.147059,11.458171 0.08088,-0.06207 2.714706,-2.008757 5.852941,-4.325979 z"
   id="path842" /></svg>
