<?xml version="1.0" encoding="utf-8"?>
<!-- Generator: Adobe Illustrator 18.0.0, SVG Export Plug-In . SVG Version: 6.00 Build 0)  -->
<!DOCTYPE svg PUBLIC "-//W3C//DTD SVG 1.1//EN" "http://www.w3.org/Graphics/SVG/1.1/DTD/svg11.dtd">
<svg version="1.1" id="Layer_1" xmlns="http://www.w3.org/2000/svg" xmlns:xlink="http://www.w3.org/1999/xlink" x="0px" y="0px"
	 viewBox="0 0 100 100" enable-background="new 0 0 100 100" xml:space="preserve">
<g>
	<path fill="#2C3136" d="M51,80.3c-0.8,0-1.4,0-1.5,0c-0.3,0-0.5-0.1-0.8-0.2c-0.2,0.1-0.5,0.2-0.8,0.2c-0.5,0-11.9,0.9-20-6.6
		c-5.1-4.7-7.8-11.6-7.8-20.5c0-27.6,26-48.6,27.1-49.4c0.9-0.7,2.2-0.7,3.1,0c1.1,0.9,27.1,21.8,27.1,49.4c0,8.9-2.6,15.8-7.8,20.5
		C63.1,79.6,54.4,80.3,51,80.3z M47.8,75.3c0.3,0,0.7,0.1,1,0.2c0.4-0.2,0.8-0.2,1.2-0.2c0.2,0,9.8,0.7,16.3-5.3
		c4.1-3.8,6.1-9.4,6.1-16.9c0-21.5-18.2-39.4-23.7-44.3c-5.5,4.9-23.7,22.7-23.7,44.3c0,7.4,2.1,13.1,6.2,16.9
		c6.6,6.1,16.2,5.3,16.3,5.3C47.6,75.3,47.7,75.3,47.8,75.3z"/>
	<path fill="#2C3136" d="M48.8,41.5c-0.5,0-1-0.2-1.5-0.5L29.6,28c-1.1-0.8-1.3-2.3-0.5-3.4c0.8-1.1,2.3-1.3,3.4-0.5L48.8,36L65,24
		c1.1-0.8,2.6-0.6,3.4,0.5c0.8,1.1,0.6,2.6-0.5,3.4L50.2,41C49.8,41.3,49.3,41.5,48.8,41.5z"/>
	<path fill="#2C3136" d="M48.8,66.4c-0.5,0-1-0.1-1.4-0.4L21.8,48.2c-1.1-0.8-1.4-2.3-0.6-3.4c0.8-1.1,2.3-1.4,3.4-0.6l24.2,16.8
		l24.2-16.8c1.1-0.8,2.6-0.5,3.4,0.6c0.8,1.1,0.5,2.6-0.6,3.4L50.2,65.9C49.7,66.2,49.3,66.4,48.8,66.4z"/>
	<path fill="#2C3136" d="M48.8,97.3c-1.4,0-2.5-1.1-2.5-2.5V5.6c0-1.4,1.1-2.5,2.5-2.5c1.4,0,2.5,1.1,2.5,2.5v89.3
		C51.2,96.2,50.1,97.3,48.8,97.3z"/>
</g>
</svg>
