<?xml version="1.0" encoding="UTF-8" standalone="no"?>
<svg
   xmlns:dc="http://purl.org/dc/elements/1.1/"
   xmlns:cc="http://creativecommons.org/ns#"
   xmlns:rdf="http://www.w3.org/1999/02/22-rdf-syntax-ns#"
   xmlns:svg="http://www.w3.org/2000/svg"
   xmlns="http://www.w3.org/2000/svg"
   xmlns:sodipodi="http://sodipodi.sourceforge.net/DTD/sodipodi-0.dtd"
   xmlns:inkscape="http://www.inkscape.org/namespaces/inkscape"
   version="1.1"
   id="Layer_1"
   x="0px"
   y="0px"
   viewBox="0 0 100 100"
   enable-background="new 0 0 100 100"
   xml:space="preserve"
   sodipodi:docname="Tomate Verde color.svg"
   inkscape:version="1.0.1 (3bc2e813f5, 2020-09-07)"><metadata
   id="metadata15"><rdf:RDF><cc:Work
       rdf:about=""><dc:format>image/svg+xml</dc:format><dc:type
         rdf:resource="http://purl.org/dc/dcmitype/StillImage" /><dc:title></dc:title></cc:Work></rdf:RDF></metadata><defs
   id="defs13" /><sodipodi:namedview
   pagecolor="#ffffff"
   bordercolor="#666666"
   borderopacity="1"
   objecttolerance="10"
   gridtolerance="10"
   guidetolerance="10"
   inkscape:pageopacity="0"
   inkscape:pageshadow="2"
   inkscape:window-width="1920"
   inkscape:window-height="1017"
   id="namedview11"
   showgrid="false"
   inkscape:zoom="8.5"
   inkscape:cx="-10.586831"
   inkscape:cy="50"
   inkscape:window-x="-8"
   inkscape:window-y="-8"
   inkscape:window-maximized="1"
   inkscape:current-layer="Layer_1" />
<g
   id="g8"
   transform="translate(-94,-0.11764706)">
	<path
   fill="#2c3136"
   d="M 78.6,32.5 C 78.5,31.6 77.9,30.7 77,30.3 L 66,25.5 c 0,0 -0.1,0 -0.1,-0.1 C 62.7,24.2 59.4,23.5 56.1,23 56.2,18.2 56,11.9 54.5,6.4 54,4.6 52.3,3.2 50.2,2.8 48,2.4 44.8,2.4 41.9,4.4 c -2.2,1.5 -2.7,4.1 -1.4,6.1 1.2,1.9 3.7,6.2 4.8,12.5 -5.2,0.7 -8.5,2.2 -9,2.4 l -11,4.8 c -1.2,0.5 -1.8,1.7 -1.6,2.9 -8.1,7 -12.9,16.7 -12.9,27 0,20.5 18.3,37.1 40.8,37.1 22.5,0 40.8,-16.6 40.8,-37.1 C 92.3,49.5 87.3,39.5 78.6,32.5 Z M 44.3,8.3 c 1.6,-1.1 3.6,-1.1 4.9,-0.9 0.5,0.1 0.7,0.3 0.7,0.3 2.1,7.6 1.5,17.1 1.1,21 H 50.4 C 50,18.5 46.1,11.2 44.3,8.3 c 0,0 0,0 0,0 z M 38,29.7 c 0.1,0 0.1,0 0,0 0.1,-0.1 3,-1.4 7.7,-2 0,0.6 0.1,1.3 0.1,1.9 -0.8,-0.4 -1.8,-0.2 -2.3,0.6 -0.5,0.8 -0.2,1.9 0.6,2.4 0.2,0.1 2.9,1.7 6.6,1.7 1.9,0 4,-0.4 6.3,-1.6 0.8,-0.5 1.1,-1.5 0.7,-2.3 -0.4,-0.7 -1.3,-1.1 -2,-0.8 0.1,-0.5 0.1,-1.1 0.2,-1.8 2.8,0.4 5.7,1.1 8.4,2.1 l 4.8,2.1 -4.7,0.6 c -0.8,0.1 -1.5,0.7 -1.8,1.5 -0.3,0.8 -0.1,1.7 0.4,2.3 l 2.5,2.9 -7.9,-2.7 c -0.9,-0.3 -1.9,0 -2.5,0.7 l -4.3,5.1 -2.4,-4.7 c -0.5,-1 -1.6,-1.5 -2.6,-1.2 l -7.2,1.8 1.8,-3.3 c 0.4,-0.7 0.4,-1.5 0,-2.2 -0.4,-0.7 -1.1,-1.1 -1.9,-1.2 l -3.8,-0.1 z m 13.5,61.9 c -19.3,0 -35.1,-14.1 -35.1,-31.4 0,-9.6 4.9,-18.6 13.3,-24.6 l 4.8,0.2 -1.3,2.3 c -0.7,1.2 -0.5,2.7 0.3,3.8 0.8,1.1 2.3,1.6 3.6,1.3 l 7.9,-2 2.3,4.6 c 0.5,1 1.5,1.8 2.7,1.9 0.1,0 0.3,0 0.4,0 1,0 2,-0.4 2.7,-1.2 l 4.4,-5.2 10.3,3.5 c 1.5,0.5 3.1,0 4,-1.4 0.9,-1.3 0.8,-3 -0.3,-4.2 l -2.4,-2.8 4.4,-0.6 c 8.2,5.9 13,14.9 13,24.4 0.1,17.3 -15.7,31.4 -35,31.4 z"
   id="path2" />
	<path
   fill="#2c3136"
   d="m 26.7,47.3 c -0.8,-0.6 -1.8,-0.4 -2.4,0.3 -0.3,0.4 -6.6,8.9 -3,22.2 0.2,0.8 0.9,1.3 1.7,1.3 0.2,0 0.3,0 0.5,-0.1 0.9,-0.3 1.5,-1.2 1.2,-2.1 C 21.5,57.3 26.8,50 27,49.7 c 0.6,-0.8 0.5,-1.9 -0.3,-2.4 z"
   id="path4" />
	<path
   fill="#2c3136"
   d="m 78,71.8 c -0.9,-0.4 -1.9,0 -2.3,0.9 0,0.1 -2.8,6.1 -11.9,10 -0.9,0.4 -1.3,1.4 -0.9,2.3 0.3,0.7 0.9,1 1.6,1 0.2,0 0.5,0 0.7,-0.1 C 75.7,81.4 78.8,74.4 78.9,74.1 79.2,73.2 78.8,72.2 78,71.8 Z"
   id="path6" />
</g>
<path
   style="fill:#ccff00;stroke:#ffffff;stroke-width:0.117647"
   d="M 49.882353,97.344176 C 49.591176,97.32002 48.638235,97.241935 47.764706,97.170654 35.204769,96.145755 23.482687,89.344046 16.82149,79.215933 11.514413,71.14671 9.8058556,61.353128 12.116518,52.24667 c 0.638376,-2.515876 1.444952,-4.669015 2.64955,-7.072918 1.96637,-3.924099 4.470203,-7.292403 7.754496,-10.4318 1.452156,-1.388091 1.479483,-1.423697 1.482019,-1.931 0.0033,-0.667372 0.325983,-1.367763 0.836618,-1.816106 0.381641,-0.335085 10.158071,-4.69704 12.906242,-5.758385 1.951202,-0.753555 4.957155,-1.520713 7.387082,-1.885279 l 0.485467,-0.07284 -0.289084,-1.36956 C 44.550785,18.222346 43.109507,14.558423 41.130273,11.235294 40.691209,10.498108 40.300895,9.682026 40.223316,9.3389994 c -0.423129,-1.8709381 0.441589,-3.6821437 2.32621,-4.8723898 1.63851,-1.0348126 3.471702,-1.5344829 5.629716,-1.5344829 2.321705,0 3.968666,0.5268437 5.155312,1.6491239 0.808808,0.7649376 1.166158,1.4386336 1.532593,2.8893376 0.907814,3.5940048 1.358934,7.8097518 1.387138,12.9628728 l 0.01557,2.845227 0.835661,0.136779 c 3.559429,0.5826 7.437832,1.599893 9.21787,2.417821 0.372137,0.170998 2.979555,1.315258 5.794261,2.5428 2.814706,1.227541 5.282636,2.333282 5.484292,2.457201 0.434031,0.266719 0.964457,1.028103 1.064413,1.527883 0.05247,0.262336 0.383414,0.627916 1.261214,1.393198 10.392774,9.06062 14.809381,22.38339 11.586712,34.951512 -2.453485,9.568376 -9.002217,17.851103 -18.28131,23.121897 -4.92671,2.798515 -10.684313,4.63125 -16.585909,5.279555 -1.624451,0.178449 -5.734183,0.322338 -6.764706,0.236842 z m 5,-5.585523 c 6.562428,-0.563719 12.328872,-2.519164 17.588235,-5.964303 7.928277,-5.193407 13.017697,-13.063664 14.131681,-21.853174 0.210753,-1.662875 0.179874,-5.692275 -0.05572,-7.271198 -0.472138,-3.164183 -1.33252,-5.996555 -2.651525,-8.728802 -1.42778,-2.957568 -3.208408,-5.526833 -5.491861,-7.924194 -1.223195,-1.284213 -3.809426,-3.550812 -4.429862,-3.882376 -0.257694,-0.137713 -0.591016,-0.119056 -2.439086,0.136528 -1.177332,0.162822 -2.168235,0.323672 -2.202008,0.357445 -0.03377,0.03377 0.545458,0.766453 1.287181,1.628177 1.472655,1.710914 1.829794,2.292414 1.930582,3.143406 0.146337,1.23559 -0.647342,2.678658 -1.844086,3.352923 -0.552536,0.311307 -0.76736,0.364562 -1.470588,0.364562 -0.755085,0 -1.261278,-0.150086 -6.090498,-1.805837 -2.896833,-0.993209 -5.337735,-1.778681 -5.424226,-1.74549 -0.08649,0.03319 -1.020103,1.084052 -2.074694,2.335248 -1.054589,1.251197 -2.134276,2.504359 -2.399303,2.784807 -1.347594,1.426001 -3.434679,1.580314 -4.824748,0.356725 -0.450546,-0.396586 -0.749093,-0.893032 -1.835667,-3.052474 -0.713688,-1.418374 -1.357437,-2.578861 -1.430555,-2.578861 -0.07312,0 -1.911568,0.45561 -4.085448,1.012467 -3.563679,0.912864 -4.033523,1.007283 -4.776037,0.959775 -0.959835,-0.06141 -1.566015,-0.334649 -2.200077,-0.991686 -0.795187,-0.823995 -1.197001,-2.183818 -0.932874,-3.157027 0.07025,-0.258824 0.467246,-1.079412 0.882225,-1.823529 l 0.754508,-1.352942 -0.604833,-0.07442 c -0.332659,-0.04094 -1.436768,-0.106135 -2.453576,-0.144889 l -1.848743,-0.07046 -0.798316,0.606793 c -5.584346,4.244608 -9.5708,9.904135 -11.387247,16.166358 -1.292227,4.454968 -1.457309,9.425981 -0.4645,13.987213 1.186258,5.449986 4.000136,10.484029 8.224428,14.713543 2.053764,2.056303 3.120831,2.933805 5.476061,4.503238 5.165232,3.441906 11.532706,5.584353 18,6.056409 1.26619,0.09242 4.644579,0.06743 5.941177,-0.04395 z M 53.286072,40.100118 c 1.192634,-1.425229 2.347923,-2.728236 2.56731,-2.89557 0.278584,-0.212486 0.589544,-0.320055 1.031054,-0.356669 0.568553,-0.04715 1.036312,0.0858 4.648252,1.321131 2.208846,0.755456 4.06694,1.356604 4.129098,1.335885 0.06216,-0.02072 -0.471712,-0.714741 -1.186378,-1.54227 -1.511107,-1.74975 -1.685492,-2.044098 -1.685492,-2.844978 0,-0.706587 0.225902,-1.187512 0.790765,-1.683468 0.529205,-0.464647 0.815598,-0.53375 3.566378,-0.860507 1.245588,-0.14796 2.26405,-0.29786 2.263249,-0.33311 -0.0023,-0.10143 -4.961675,-2.223023 -6.093581,-2.606802 -2.178409,-0.7386 -6.991625,-1.781465 -7.194391,-1.558785 -0.05083,0.05582 -0.122842,0.488915 -0.160026,0.962428 l -0.06761,0.860932 0.33458,-0.07349 c 0.446673,-0.09811 1.05932,0.171286 1.452681,0.638769 0.399298,0.474537 0.43518,1.260243 0.08354,1.829209 -0.632744,1.023803 -4.248837,2.177761 -6.824327,2.177761 -2.382643,0 -5.830428,-0.989726 -6.84975,-1.966299 -0.403537,-0.386611 -0.607577,-0.989241 -0.510373,-1.50738 0.157789,-0.841091 1.260892,-1.495239 2.054767,-1.218493 0.206905,0.07213 0.401781,0.105551 0.433059,0.07427 0.122123,-0.122123 -0.104585,-1.970336 -0.241689,-1.970336 -0.365117,0 -2.979394,0.519309 -4.238955,0.842041 -1.929157,0.494299 -2.948716,0.902216 -4.848834,1.93998 -1.874221,1.02362 -1.973222,1.096938 -1.498225,1.109539 4.007191,0.106307 4.436372,0.196996 5.158116,1.089948 0.32692,0.404471 0.365414,0.534602 0.365414,1.235294 0,0.760331 -0.02877,0.83572 -0.985459,2.582052 -0.542002,0.989371 -0.959491,1.824823 -0.927752,1.856562 0.03174,0.03174 1.8043,-0.378126 3.939025,-0.910811 5.240293,-1.30763 4.847788,-1.45 6.8794,2.495308 0.731543,1.420629 1.35655,2.57986 1.388903,2.576069 0.03235,-0.0038 1.034616,-1.172988 2.227249,-2.598217 z M 51.333663,28.382353 C 51.742941,25.108435 51.730727,17.419265 51.310725,13.941176 51.050296,11.78454 50.85914,10.682932 50.445179,8.9531537 50.197023,7.9162105 50.156916,7.8375985 49.799949,7.6884479 49.329823,7.492017 47.317778,7.4763599 46.450383,7.6623825 c -0.66991,0.1436702 -1.439305,0.4514503 -1.782691,0.7131287 -0.20309,0.1547642 -0.184634,0.2140611 0.342335,1.0999183 2.266282,3.8097105 4.127162,9.0328505 4.98614,13.9951585 0.2105,1.216054 0.592068,4.602207 0.592068,5.25419 0,0.159854 0.08826,0.216398 0.337785,0.216398 0.314735,0 0.342552,-0.03813 0.407643,-0.558823 z"
   id="path840" /><path
   style="fill:#ccff00;stroke:#ffffff;stroke-width:0.117647"
   d="m 22.289187,70.843347 c -0.640314,-0.298514 -0.828396,-0.626605 -1.173505,-2.047058 -0.583129,-2.400135 -0.80006,-4.293173 -0.805779,-7.031583 -0.0058,-2.783671 0.141217,-4.080832 0.740642,-6.534227 0.767719,-3.142215 2.414306,-6.72964 3.567441,-7.772401 0.371639,-0.336066 0.529904,-0.399185 1,-0.398815 1.044432,8.23e-4 1.756763,0.733695 1.648005,1.695527 -0.0309,0.273228 -0.232817,0.759627 -0.468093,1.127563 -1.140514,1.78359 -2.217116,4.510749 -2.670508,6.764706 -0.704632,3.502953 -0.642031,7.266415 0.180038,10.823529 0.454223,1.965437 0.465306,2.168141 0.144137,2.636241 -0.5909,0.861231 -1.344377,1.11787 -2.162378,0.736518 z"
   id="path842" /><path
   style="fill:#ccff00;stroke:#ffffff;stroke-width:0.117647"
   d="m 64.149711,85.873166 c -0.877521,-0.179473 -1.407135,-0.91236 -1.290062,-1.785206 0.104388,-0.778269 0.333475,-0.973288 2.28877,-1.948405 2.813007,-1.402863 4.179207,-2.291179 6.244094,-4.059967 1.726153,-1.478627 3.182048,-3.213664 4.15222,-4.948335 0.591011,-1.056729 0.995394,-1.366547 1.783656,-1.366547 0.86662,0 1.612787,0.807392 1.612787,1.74512 0,0.470482 -0.670528,1.746713 -1.617247,3.07814 -0.881807,1.240139 -3.391954,3.838397 -4.700578,4.865577 -1.484234,1.165023 -3.684829,2.537708 -5.582414,3.482193 -1.91858,0.954935 -2.261692,1.066183 -2.891226,0.93743 z"
   id="path844" /></svg>
