<?xml version="1.0" encoding="UTF-8" standalone="no"?>
<svg
   xmlns:dc="http://purl.org/dc/elements/1.1/"
   xmlns:cc="http://creativecommons.org/ns#"
   xmlns:rdf="http://www.w3.org/1999/02/22-rdf-syntax-ns#"
   xmlns:svg="http://www.w3.org/2000/svg"
   xmlns="http://www.w3.org/2000/svg"
   xmlns:sodipodi="http://sodipodi.sourceforge.net/DTD/sodipodi-0.dtd"
   xmlns:inkscape="http://www.inkscape.org/namespaces/inkscape"
   version="1.1"
   id="Layer_1"
   x="0px"
   y="0px"
   viewBox="0 0 100 100"
   enable-background="new 0 0 100 100"
   xml:space="preserve"
   sodipodi:docname="Toronja (Pomelo) color.svg"
   inkscape:version="1.0.1 (3bc2e813f5, 2020-09-07)"><metadata
   id="metadata23"><rdf:RDF><cc:Work
       rdf:about=""><dc:format>image/svg+xml</dc:format><dc:type
         rdf:resource="http://purl.org/dc/dcmitype/StillImage" /><dc:title></dc:title></cc:Work></rdf:RDF></metadata><defs
   id="defs21" /><sodipodi:namedview
   pagecolor="#ffffff"
   bordercolor="#666666"
   borderopacity="1"
   objecttolerance="10"
   gridtolerance="10"
   guidetolerance="10"
   inkscape:pageopacity="0"
   inkscape:pageshadow="2"
   inkscape:window-width="1920"
   inkscape:window-height="1017"
   id="namedview19"
   showgrid="false"
   inkscape:zoom="4.34"
   inkscape:cx="-10.431698"
   inkscape:cy="70.837024"
   inkscape:window-x="-8"
   inkscape:window-y="-8"
   inkscape:window-maximized="1"
   inkscape:current-layer="Layer_1" />
<g
   id="g16"
   transform="translate(-101.03687,1.7281106)">
	<path
   fill="#2c3136"
   d="m 50.1,3 c -26,0 -47,21 -47,47 0,26 21.1,47.1 47.1,47.1 C 76.2,97.1 97.3,76 97.3,50 97.2,24 76.1,3 50.1,3 Z m 0,87.8 C 27.6,90.8 9.3,72.5 9.3,50 9.3,27.5 27.6,9.2 50.1,9.2 72.6,9.2 90.9,27.5 90.9,50 90.9,72.5 72.6,90.8 50.1,90.8 Z"
   id="path2" />
	<path
   fill="#2c3136"
   d="m 53.2,44.6 c 0.4,0.3 1,0.4 1.5,0.4 0.5,0 1,-0.1 1.4,-0.4 L 75,30.8 c 1.3,-0.8 1.5,-2.6 0.5,-3.8 -2.3,-2.8 -4.6,-4.9 -8.4,-7.1 -3.8,-2.2 -6.8,-3 -10.4,-3.6 -0.1,0 -0.3,0 -0.4,0 -1.4,0 -2.6,1 -2.6,2.4 l -2,23.3 c 0,1.1 0.6,2.1 1.5,2.6 z m 6.4,-21.2 c 1.4,0.4 2.8,1 4.4,2 1.7,0.9 2.9,1.8 4,2.8 L 58.6,35 Z"
   id="path4" />
	<path
   fill="#2c3136"
   d="m 82.6,39.2 c -0.4,-1.1 -1.4,-1.7 -2.4,-1.7 -0.4,0 -0.8,0.1 -1.2,0.3 l -21.2,9.7 c -1,0.5 -1.5,1.5 -1.5,2.5 0,1 0.5,2 1.5,2.5 L 79,62.3 c 0.4,0.2 0.8,0.3 1.2,0.3 1,0 2,-0.7 2.4,-1.7 1.3,-3.4 2,-6.4 2,-10.8 0,-4.5 -0.7,-7.5 -2,-10.9 z M 77.9,54.9 67.4,50 77.9,45.2 c 0.3,1.4 0.5,2.9 0.5,4.8 0,1.9 -0.2,3.4 -0.5,4.9 z"
   id="path6" />
	<path
   fill="#2c3136"
   d="M 76.1,67.7 56.4,55.2 C 56,55 55.5,54.9 55.1,54.9 c -0.6,0 -1.1,0.2 -1.6,0.5 -0.8,0.5 -1.4,1.5 -1.3,2.6 l 3.2,23 c 0.1,1.3 1.2,2.3 2.6,2.3 0.2,0 0.4,0 0.6,-0.1 3.6,-0.8 6.5,-1.8 10.2,-4.1 3.7,-2.4 5.8,-4.6 8,-7.5 0.9,-1.4 0.6,-3.1 -0.7,-3.9 z m -10.7,6.1 c -1.6,1 -3,1.7 -4.3,2.2 l -1.6,-11.5 9.8,6.2 c -1.1,1.1 -2.3,2 -3.9,3.1 z"
   id="path8" />
	<path
   fill="#2c3136"
   d="m 24.2,32.3 19.6,12.6 c 0.4,0.2 0.9,0.3 1.3,0.3 0.6,0 1.1,-0.2 1.6,-0.5 0.8,-0.5 1.4,-1.5 1.3,-2.6 L 44.7,19 c -0.1,-1.3 -1.2,-2.3 -2.6,-2.3 -0.2,0 -0.4,0 -0.6,0.1 -3.6,0.8 -6.5,1.8 -10.2,4.1 -3.7,2.4 -5.8,4.6 -8,7.5 -0.8,1.4 -0.5,3.2 0.9,3.9 z m 10.7,-6 c 1.6,-1 3,-1.7 4.3,-2.2 L 40.8,35.6 31,29.3 c 1.1,-1 2.3,-2 3.9,-3 z"
   id="path10" />
	<path
   fill="#2c3136"
   d="m 43.9,50 c 0,-1 -0.5,-2 -1.5,-2.5 L 21.2,37.8 c -0.4,-0.2 -0.8,-0.3 -1.2,-0.3 -1,0 -2,0.7 -2.4,1.7 -1.3,3.4 -2,6.4 -2,10.8 0,4.4 0.7,7.4 2,10.8 0.4,1.1 1.4,1.7 2.4,1.7 0.4,0 0.8,-0.1 1.2,-0.3 L 42.4,52.5 C 43.4,52 43.9,51 43.9,50 Z M 22.3,54.9 C 22,53.5 21.8,52 21.8,50.1 c 0,-1.9 0.2,-3.4 0.5,-4.8 L 32.9,50 Z"
   id="path12" />
	<path
   fill="#2c3136"
   d="m 47,55.5 c -0.4,-0.3 -1,-0.4 -1.5,-0.4 -0.5,0 -1,0.1 -1.4,0.4 L 25.3,69.2 C 24,70 23.7,71.8 24.8,73 c 2.3,2.8 4.6,4.9 8.4,7.1 3.8,2.2 6.8,3 10.4,3.5 0.1,0 0.3,0 0.4,0 1.4,0 2.6,-1 2.6,-2.4 L 48.5,58 C 48.6,56.9 47.9,56 47,55.5 Z m -6.3,21.1 c -1.4,-0.4 -2.8,-1 -4.4,-2 -1.7,-0.9 -2.9,-1.8 -4,-2.8 L 41.7,65 Z"
   id="path14" />
</g>
<path
   style="fill:#ff2a7f;stroke:#000000;stroke-width:0.115389"
   d="M 46.947005,96.814018 C 44.507947,96.581086 43.778007,96.491271 42.310726,96.243556 34.473637,94.920445 27.132939,91.618715 20.794931,86.566087 18.79956,84.975389 15.084691,81.26089 13.49079,79.262673 9.3175791,74.030872 6.2752965,67.938768 4.6253711,61.509864 4.1590968,59.693035 3.7058344,57.241285 3.4346522,55.069125 3.1894199,53.104823 3.1526663,47.12074 3.3741532,45.218894 4.3076585,37.203144 6.7024711,30.455421 10.855968,24.137823 15.289556,17.394197 21.629267,11.693624 28.700611,8.0921866 33.626622,5.5833677 38.609467,4.0630517 44.52765,3.2631972 46.489381,2.9980653 53.302492,2.9611798 55.241935,3.2051911 64.90296,4.420694 73.149683,7.9442196 80.328311,13.923689 c 14.922427,12.4297 20.647849,32.861917 14.350032,51.210722 -5.302585,15.449176 -18.334417,27.113226 -34.252076,30.657085 -1.994752,0.444105 -4.318954,0.799267 -6.394009,0.977069 -1.25667,0.107678 -6.107816,0.138799 -7.085253,0.04545 z m 5.299539,-6.144354 c 3.35937,-0.195267 6.136712,-0.65656 9.138565,-1.51784 4.980528,-1.428991 10.188428,-4.130422 14.306135,-7.420847 1.583658,-1.265488 4.901991,-4.570866 6.121233,-6.097336 4.998235,-6.257702 7.852987,-13.004105 8.872537,-20.967742 0.289501,-2.261273 0.289501,-7.300939 0,-9.562212 C 89.663499,37.124701 86.838058,30.44684 81.813441,24.135945 80.549366,22.548272 77.004107,19.049379 75.403226,17.809564 69.421945,13.177314 62.698793,10.331567 55.509844,9.3891779 47.198682,8.2996796 38.371597,9.8380508 31.278802,13.612128 19.679374,19.784185 11.904645,30.509896 9.7979401,43.246279 c -0.383933,2.321123 -0.521369,4.071074 -0.521369,6.638514 0,6.558313 1.4019179,12.498303 4.3281739,18.338662 6.48442,12.941912 19.531306,21.570894 33.918296,22.432969 2.24681,0.134629 2.617248,0.135669 4.723503,0.01324 z"
   id="path848" /><path
   style="fill:#ff2a7f;stroke:#000000;stroke-width:0.115389"
   d="M 44.273887,44.998873 C 44.039271,44.915106 39.301614,41.924772 33.745761,38.353685 22.984589,31.436823 23.23421,31.618524 22.997568,30.529954 c -0.225952,-1.039396 0.02978,-1.689646 1.274199,-3.239958 2.839197,-3.537093 6.640207,-6.457967 10.924086,-8.39458 2.393418,-1.081993 6.47604,-2.246429 7.315668,-2.086559 0.959238,0.182645 1.781003,0.880874 2.011153,1.708818 0.06634,0.238666 0.871081,5.721956 1.788304,12.18509 1.71027,12.051257 1.715574,12.102435 1.331667,12.848333 -0.283491,0.550796 -0.973405,1.150524 -1.588122,1.380518 -0.707116,0.264567 -1.178175,0.282359 -1.780636,0.06726 z m -3.432873,-9.475772 c 0,-0.157259 -1.501831,-10.937652 -1.558272,-11.185543 -0.03246,-0.14257 -0.113788,-0.259217 -0.180727,-0.259217 -0.06694,0 -0.70103,0.276265 -1.409094,0.613922 -2.214284,1.055932 -4.628521,2.647993 -6.183078,4.077412 l -0.603356,0.554788 4.880857,3.136131 c 2.684473,1.724873 4.919741,3.136661 4.967264,3.137308 0.04752,6.91e-4 0.08641,-0.03301 0.08641,-0.0748 z"
   id="path850" /><path
   style="fill:#ff2a7f;stroke:#000000;stroke-width:0.115389"
   d="m 53.733847,44.772912 c -1.03532,-0.370079 -1.805022,-1.338644 -1.907213,-2.399967 -0.04811,-0.499642 1.755775,-22.402297 1.977991,-24.016661 0.14553,-1.057254 1.311575,-1.996535 2.474177,-1.993018 0.692032,0.0021 3.001386,0.465082 4.558905,0.913986 4.194224,1.208848 8.712551,3.82447 11.956141,6.921311 1.308412,1.249216 2.700112,2.834459 2.993943,3.410311 0.471642,0.924326 0.329322,1.978286 -0.363694,2.693355 -0.46155,0.476235 -19.065266,14.083815 -19.71689,14.421803 -0.46651,0.241973 -1.370529,0.264364 -1.97336,0.04888 z m 9.669017,-13.148488 c 2.54227,-1.837558 4.60719,-3.392857 4.588713,-3.456221 -0.01848,-0.06336 -0.4526,-0.453067 -0.96472,-0.866005 -1.070319,-0.863035 -3.478601,-2.325624 -5.023102,-3.050613 -1.057571,-0.496424 -2.341542,-0.949691 -2.425602,-0.856285 -0.0442,0.04912 -1.002408,11.032366 -0.99768,11.435729 0.0014,0.116168 0.04694,0.193933 0.10128,0.172811 0.05434,-0.02112 2.178842,-1.541858 4.721111,-3.379416 z"
   id="path852" /><path
   style="fill:#ff2a7f;stroke:#000000;stroke-width:0.115389"
   d="M 79.435484,62.398423 C 78.466433,62.040179 57.682815,52.366306 57.35638,52.121559 56.816628,51.716874 56.394009,50.785206 56.394009,50 c 0,-0.785123 0.422539,-1.716709 0.962371,-2.121773 0.199383,-0.149607 5.261708,-2.514051 11.249611,-5.254319 7.852218,-3.593442 11.036517,-4.997799 11.423116,-5.037885 0.691183,-0.07167 1.669514,0.354853 2.083004,0.908124 0.45573,0.609791 1.367358,3.251629 1.803715,5.227051 0.519825,2.353285 0.746301,6.755871 0.485076,9.429615 -0.239426,2.450619 -0.913385,5.309944 -1.728611,7.333775 -0.651159,1.616526 -1.955259,2.387606 -3.236807,1.913835 z m -1.452773,-7.646119 c 0.03325,-0.110887 0.146386,-0.797681 0.251418,-1.526207 0.309902,-2.149544 0.09085,-7.600809 -0.322016,-8.013677 C 77.846283,45.14659 67.342072,49.903835 67.340928,50 c -6.69e-4,0.05582 10.344579,4.92651 10.502691,4.944813 0.04325,0.005 0.105844,-0.08162 0.139092,-0.192509 z"
   id="path854" /><path
   style="fill:#ff2a7f;stroke:#000000;stroke-width:0.115389"
   d="M 57.546083,83.184188 C 56.662785,83.012271 55.941282,82.425296 55.651946,81.643225 55.380527,80.909581 52.213758,57.884843 52.30244,57.289852 c 0.22466,-1.5073 2.161575,-2.689055 3.591519,-2.191266 0.76345,0.265772 20.514445,12.84595 20.824285,13.263799 0.543239,0.73261 0.663201,1.592363 0.350311,2.510641 -0.219693,0.644767 -1.969971,2.819479 -3.463273,4.303101 -3.672282,3.648481 -8.660117,6.40461 -13.927863,7.69612 -1.581122,0.387649 -1.673149,0.401118 -2.131336,0.311941 z m 5.365144,-7.942129 c 1.851773,-0.917067 3.203321,-1.780106 4.830708,-3.084679 1.482189,-1.188175 1.651933,-1.375795 1.432392,-1.583235 -0.09081,-0.0858 -2.303647,-1.506731 -4.917415,-3.157614 -4.362506,-2.755405 -4.752304,-2.977785 -4.752304,-2.711198 0,0.159723 0.336982,2.702551 0.748848,5.650728 0.411867,2.948176 0.748848,5.432431 0.748848,5.520563 0,0.270638 0.246707,0.188627 1.908923,-0.634565 z"
   id="path856" /><path
   style="fill:#ff2a7f;stroke:#000000;stroke-width:0.115389"
   d="m 42.914747,83.448187 c -4.300467,-0.683556 -7.698079,-2.040755 -11.607621,-4.636741 -2.266103,-1.504721 -3.949128,-2.996432 -5.925055,-5.251538 -0.99158,-1.13168 -1.309355,-1.831173 -1.175236,-2.586953 0.182757,-1.029855 0.0182,-0.895714 10.246918,-8.352809 5.329844,-3.885643 9.852052,-7.148283 10.049351,-7.25031 0.566124,-0.292754 1.592887,-0.242577 2.3058,0.112683 0.696088,0.346875 1.355725,1.064639 1.538225,1.673773 0.103868,0.346678 -0.05917,2.711221 -0.86605,12.560103 l -0.994005,12.133023 -0.319049,0.516049 c -0.454517,0.735164 -1.303662,1.165379 -2.258369,1.14419 -0.388791,-0.0086 -0.836499,-0.03629 -0.994909,-0.06147 z m -2.138248,-7.209708 c 0.115173,-0.705406 0.981546,-11.189344 0.929008,-11.241882 -0.02886,-0.02886 -0.11853,-9.91e-4 -0.199266,0.06193 -0.08074,0.06292 -2.039075,1.478753 -4.351863,3.146296 -2.312788,1.667544 -4.374693,3.159848 -4.582012,3.316231 l -0.376942,0.284332 0.484051,0.416434 c 1.701765,1.464045 4.98267,3.394806 6.970979,4.102313 1.015801,0.361455 1.053514,0.358586 1.126045,-0.08565 z"
   id="path858" /><path
   style="fill:#ff2a7f;stroke:#000000;stroke-width:0.115389"
   d="m 19.209548,62.295452 c -0.556816,-0.212081 -1.151703,-0.728634 -1.395653,-1.211875 -0.301942,-0.598117 -1.014328,-2.747936 -1.343135,-4.053274 -1.060129,-4.208639 -1.058945,-9.856785 0.003,-14.07228 0.426778,-1.694212 1.172769,-3.792954 1.52876,-4.300953 0.190934,-0.272462 0.573544,-0.589696 0.951109,-0.788595 0.529358,-0.278862 0.724977,-0.323046 1.20771,-0.272779 0.880163,0.09165 22.02368,9.782154 22.771322,10.43656 0.846015,0.740512 1.105544,1.795425 0.720046,2.926799 -0.366632,1.076003 -0.301562,1.041375 -12.085838,6.431687 -11.438337,5.232075 -11.467442,5.243628 -12.357272,4.90471 z m 8.483879,-9.808381 c 2.859053,-1.325084 5.198278,-2.445283 5.198278,-2.489334 0,-0.07948 -10.398442,-4.721239 -10.576483,-4.721239 -0.119582,0 -0.337591,1.312198 -0.497655,2.995391 -0.142634,1.499898 -0.06251,3.709802 0.192729,5.31583 0.196163,1.23429 0.243408,1.400167 0.383653,1.346977 0.05566,-0.02111 2.440426,-1.122542 5.299478,-2.447625 z"
   id="path860" /></svg>
