<?xml version="1.0" encoding="utf-8"?>
<!-- Generator: Adobe Illustrator 18.0.0, SVG Export Plug-In . SVG Version: 6.00 Build 0)  -->
<!DOCTYPE svg PUBLIC "-//W3C//DTD SVG 1.1//EN" "http://www.w3.org/Graphics/SVG/1.1/DTD/svg11.dtd">
<svg version="1.1" id="Layer_1" xmlns="http://www.w3.org/2000/svg" xmlns:xlink="http://www.w3.org/1999/xlink" x="0px" y="0px"
	 viewBox="0 0 100 100" enable-background="new 0 0 100 100" xml:space="preserve">
<g>
	<path fill="#2C3136" d="M50.1,3C24.1,3,3.1,24,3.1,50c0,26,21.1,47.1,47.1,47.1c26,0,47.1-21.1,47.1-47.1C97.2,24,76.1,3,50.1,3z
		 M50.1,90.8C27.6,90.8,9.3,72.5,9.3,50S27.6,9.2,50.1,9.2S90.9,27.5,90.9,50S72.6,90.8,50.1,90.8z"/>
	<path fill="#2C3136" d="M53.2,44.6c0.4,0.3,1,0.4,1.5,0.4c0.5,0,1-0.1,1.4-0.4L75,30.8c1.3-0.8,1.5-2.6,0.5-3.8
		c-2.3-2.8-4.6-4.9-8.4-7.1c-3.8-2.2-6.8-3-10.4-3.6c-0.1,0-0.3,0-0.4,0c-1.4,0-2.6,1-2.6,2.4L51.7,42
		C51.7,43.1,52.3,44.1,53.2,44.6z M59.6,23.4c1.4,0.4,2.8,1,4.4,2c1.7,0.9,2.9,1.8,4,2.8L58.6,35L59.6,23.4z"/>
	<path fill="#2C3136" d="M82.6,39.2c-0.4-1.1-1.4-1.7-2.4-1.7c-0.4,0-0.8,0.1-1.2,0.3l-21.2,9.7c-1,0.5-1.5,1.5-1.5,2.5
		c0,1,0.5,2,1.5,2.5L79,62.3c0.4,0.2,0.8,0.3,1.2,0.3c1,0,2-0.7,2.4-1.7c1.3-3.4,2-6.4,2-10.8C84.6,45.6,83.9,42.6,82.6,39.2z
		 M77.9,54.9L67.4,50l10.5-4.8c0.3,1.4,0.5,2.9,0.5,4.8C78.4,51.9,78.2,53.4,77.9,54.9z"/>
	<path fill="#2C3136" d="M76.1,67.7L56.4,55.2c-0.4-0.2-0.9-0.3-1.3-0.3c-0.6,0-1.1,0.2-1.6,0.5c-0.8,0.5-1.4,1.5-1.3,2.6L55.4,81
		c0.1,1.3,1.2,2.3,2.6,2.3c0.2,0,0.4,0,0.6-0.1c3.6-0.8,6.5-1.8,10.2-4.1c3.7-2.4,5.8-4.6,8-7.5C77.7,70.2,77.4,68.5,76.1,67.7z
		 M65.4,73.8c-1.6,1-3,1.7-4.3,2.2l-1.6-11.5l9.8,6.2C68.2,71.8,67,72.7,65.4,73.8z"/>
	<path fill="#2C3136" d="M24.2,32.3l19.6,12.6c0.4,0.2,0.9,0.3,1.3,0.3c0.6,0,1.1-0.2,1.6-0.5c0.8-0.5,1.4-1.5,1.3-2.6l-3.3-23.1
		c-0.1-1.3-1.2-2.3-2.6-2.3c-0.2,0-0.4,0-0.6,0.1c-3.6,0.8-6.5,1.8-10.2,4.1c-3.7,2.4-5.8,4.6-8,7.5C22.5,29.8,22.8,31.6,24.2,32.3z
		 M34.9,26.3c1.6-1,3-1.7,4.3-2.2l1.6,11.5L31,29.3C32.1,28.3,33.3,27.3,34.9,26.3z"/>
	<path fill="#2C3136" d="M43.9,50c0-1-0.5-2-1.5-2.5l-21.2-9.7c-0.4-0.2-0.8-0.3-1.2-0.3c-1,0-2,0.7-2.4,1.7c-1.3,3.4-2,6.4-2,10.8
		c0,4.4,0.7,7.4,2,10.8c0.4,1.1,1.4,1.7,2.4,1.7c0.4,0,0.8-0.1,1.2-0.3l21.2-9.7C43.4,52,43.9,51,43.9,50z M22.3,54.9
		c-0.3-1.4-0.5-2.9-0.5-4.8c0-1.9,0.2-3.4,0.5-4.8L32.9,50L22.3,54.9z"/>
	<path fill="#2C3136" d="M47,55.5c-0.4-0.3-1-0.4-1.5-0.4c-0.5,0-1,0.1-1.4,0.4L25.3,69.2C24,70,23.7,71.8,24.8,73
		c2.3,2.8,4.6,4.9,8.4,7.1c3.8,2.2,6.8,3,10.4,3.5c0.1,0,0.3,0,0.4,0c1.4,0,2.6-1,2.6-2.4L48.5,58C48.6,56.9,47.9,56,47,55.5z
		 M40.7,76.6c-1.4-0.4-2.8-1-4.4-2c-1.7-0.9-2.9-1.8-4-2.8l9.4-6.8L40.7,76.6z"/>
</g>
</svg>
