<?xml version="1.0" encoding="UTF-8" standalone="no"?>
<svg
   xmlns:dc="http://purl.org/dc/elements/1.1/"
   xmlns:cc="http://creativecommons.org/ns#"
   xmlns:rdf="http://www.w3.org/1999/02/22-rdf-syntax-ns#"
   xmlns:svg="http://www.w3.org/2000/svg"
   xmlns="http://www.w3.org/2000/svg"
   xmlns:sodipodi="http://sodipodi.sourceforge.net/DTD/sodipodi-0.dtd"
   xmlns:inkscape="http://www.inkscape.org/namespaces/inkscape"
   version="1.1"
   id="Layer_1"
   x="0px"
   y="0px"
   viewBox="0 0 100 100"
   enable-background="new 0 0 100 100"
   xml:space="preserve"
   sodipodi:docname="Trigo Grano color.svg"
   inkscape:version="1.0.1 (3bc2e813f5, 2020-09-07)"><metadata
   id="metadata17"><rdf:RDF><cc:Work
       rdf:about=""><dc:format>image/svg+xml</dc:format><dc:type
         rdf:resource="http://purl.org/dc/dcmitype/StillImage" /><dc:title></dc:title></cc:Work></rdf:RDF></metadata><defs
   id="defs15" /><sodipodi:namedview
   pagecolor="#ffffff"
   bordercolor="#666666"
   borderopacity="1"
   objecttolerance="10"
   gridtolerance="10"
   guidetolerance="10"
   inkscape:pageopacity="0"
   inkscape:pageshadow="2"
   inkscape:window-width="1920"
   inkscape:window-height="1017"
   id="namedview13"
   showgrid="false"
   inkscape:zoom="8.5"
   inkscape:cx="1.4471765"
   inkscape:cy="50"
   inkscape:window-x="-8"
   inkscape:window-y="-8"
   inkscape:window-maximized="1"
   inkscape:current-layer="Layer_1" />
<g
   id="g10"
   transform="translate(-95.529412,1.5294118)">
	<path
   fill="#2c3136"
   d="m 96.4,92.1 -13,-13 C 92.4,65.9 87.5,56.5 81.6,50.8 80.7,50 79.4,49.8 78.4,50.2 77.2,46.9 75,44.1 72.8,41.9 71.9,41.1 70.6,40.9 69.6,41.3 68.4,38 66.2,35.2 64,33 63.1,32.2 61.8,32 60.8,32.4 59.6,29.1 57.4,26.3 55.2,24.1 54,23 52.2,23 51.1,24.1 c -2.3,2.3 -3.9,4.9 -5,7.5 -3,-3.5 -8.1,-5.4 -16.5,-5.4 -1.6,0 -2.9,1.3 -2.9,2.9 0,8.4 2,13.5 5.4,16.5 -2.5,1 -5,2.5 -7.5,5 -1.1,1.1 -1.2,3 0,4.1 2.2,2.3 4.9,4.4 8.3,5.6 -0.5,1.1 -0.3,2.3 0.6,3.2 2.2,2.3 5,4.4 8.3,5.6 -0.5,1.1 -0.3,2.3 0.6,3.2 2.2,2.3 5,4.4 8.3,5.6 -0.5,1.1 -0.3,2.3 0.6,3.2 3.4,3.6 8.2,6.8 14.4,6.8 4.1,0 8.7,-1.4 13.9,-4.9 l 13,13 c 0.6,0.6 1.3,0.9 2.1,0.9 0.8,0 1.5,-0.3 2.1,-0.9 0.7,-0.9 0.7,-2.7 -0.4,-3.9 z M 79.1,74.9 74.5,70.3 c 3.3,-4.9 4.7,-9.2 4.9,-13.1 4.2,5.3 4.1,10.9 -0.3,17.7 z M 48.5,70.5 c 3.8,-0.2 8.2,-1.6 13.1,-4.9 l 4.6,4.6 c -6.9,4.4 -12.5,4.5 -17.7,0.3 z m 4.2,-13.7 4.6,4.6 c -6.8,4.3 -12.4,4.5 -17.6,0.3 3.8,-0.2 8.1,-1.6 13,-4.9 z M 70.3,66 65.7,61.4 c 3.3,-4.9 4.7,-9.2 4.9,-13.1 4.2,5.3 4.1,10.9 -0.3,17.7 z m -8.8,-8.8 -4.6,-4.6 c 3.3,-4.9 4.7,-9.2 4.9,-13.1 4.1,5.3 4,10.9 -0.3,17.7 z M 53.1,30.9 C 57,36 57,41.4 52.9,48 50.1,43.4 49,36.7 53.1,30.9 Z M 44.1,44 C 36.3,43.6 33,41.2 32.5,32.4 41.3,33 43.7,36.3 44.1,44 Z m -3.5,6.3 c 2.6,0.2 5.2,1.1 7.5,2.4 -6.6,4.1 -12,4.2 -17.1,0.2 3.5,-2.4 7.1,-2.8 9.6,-2.6 z m 16.7,29.1 c 3.8,-0.2 8.2,-1.6 13.1,-4.9 L 75,79 c -6.8,4.4 -12.4,4.5 -17.7,0.4 z"
   id="path2" />
	<path
   fill="#2c3136"
   d="m 7.9,3.7 c -1.2,-1.2 -3,-1.2 -4.2,0 -1.2,1.2 -1.2,3 0,4.2 l 14.7,14.7 c 0.6,0.6 1.3,0.9 2.1,0.9 0.8,0 1.5,-0.3 2.1,-0.9 1.2,-1.2 1.2,-3 0,-4.2 z"
   id="path4" />
	<path
   fill="#2c3136"
   d="m 39.1,22.6 c 0.6,0.6 1.3,0.9 2.1,0.9 0.8,0 1.5,-0.3 2.1,-0.9 1.2,-1.2 1.2,-3 0,-4.2 L 28.6,3.7 c -1.2,-1.2 -3,-1.2 -4.2,0 -1.2,1.2 -1.2,3 0,4.2 z"
   id="path6" />
	<path
   fill="#2c3136"
   d="m 7.9,24.3 c -1.2,-1.2 -3,-1.2 -4.2,0 -1.2,1.2 -1.2,3 0,4.2 l 14.7,14.7 c 0.6,0.6 1.3,0.9 2.1,0.9 0.8,0 1.5,-0.3 2.1,-0.9 1.2,-1.2 1.2,-3 0,-4.2 z"
   id="path8" />
</g>
<path
   style="fill:#d4aa00;stroke:#ffffff;stroke-width:0.117647"
   d="m 93.486737,95.710022 c -0.550389,-0.196208 0.155638,0.476857 -7.47056,-7.121787 -3.474318,-3.461765 -6.402385,-6.362039 -6.506816,-6.445056 -0.161687,-0.128529 -0.35331,-0.04464 -1.290794,0.565058 -1.430372,0.930257 -4.544713,2.463973 -6.05584,2.982313 -7.416468,2.543966 -14.134928,0.993194 -20.082385,-4.635466 -1.37665,-1.302859 -1.765385,-1.904126 -1.776384,-2.747579 -0.0043,-0.330893 0.0373,-0.800153 0.09249,-1.0428 0.07794,-0.342728 0.06459,-0.441417 -0.05982,-0.442256 -0.28997,-0.002 -2.800862,-1.274032 -3.784134,-1.91713 -2.00204,-1.309411 -4.253888,-3.304174 -4.794978,-4.24755 -0.268418,-0.467978 -0.343778,-0.745191 -0.344642,-1.267758 -5.88e-4,-0.367847 0.05161,-0.807446 0.116027,-0.976888 0.107197,-0.281949 0.08547,-0.319112 -0.25615,-0.438204 -0.811573,-0.282915 -2.916648,-1.391424 -3.919804,-2.064125 -1.329896,-0.891809 -3.581529,-2.819222 -4.184317,-3.581805 -0.542093,-0.685799 -0.75107,-1.363455 -0.645279,-2.092467 0.04235,-0.291852 0.08751,-0.624481 0.100359,-0.739177 0.01767,-0.157813 -0.210988,-0.304951 -0.94009,-0.604926 -2.136284,-0.87893 -4.297751,-2.350994 -6.29989,-4.290534 -1.355794,-1.313403 -1.522167,-1.51956 -1.688746,-2.092571 -0.346191,-1.190858 -0.03225,-2.029123 1.207803,-3.224958 1.762692,-1.699844 3.383427,-2.838867 5.538396,-3.892285 0.792647,-0.387472 1.441176,-0.723104 1.441176,-0.745853 0,-0.02275 -0.321077,-0.375981 -0.713505,-0.784964 -2.932819,-3.05655 -4.516701,-8.091796 -4.600726,-14.62596 -0.02373,-1.84576 0.08633,-2.276671 0.76137,-2.980898 0.885057,-0.923319 1.592928,-1.05285 4.664758,-0.853587 6.172381,0.400387 10.048668,1.724626 12.907176,4.409422 0.543353,0.510333 0.999631,0.907392 1.013951,0.882353 0.01432,-0.02504 0.309735,-0.627879 0.656478,-1.339643 1.346643,-2.764273 3.842967,-6.013984 5.129229,-6.67722 0.696213,-0.35899 1.713606,-0.334459 2.475387,0.05969 1.647069,0.852192 5.122857,5.530764 6.122231,8.24081 0.125311,0.339809 0.265182,0.542568 0.351449,0.509465 0.516724,-0.198286 1.270714,-0.20135 1.886488,-0.0077 0.799927,0.251608 1.544854,0.89815 2.885746,2.504616 1.548885,1.855653 2.725913,3.690167 3.478779,5.42202 l 0.38311,0.881287 1.034334,0.0057 c 1.281607,0.0071 1.664047,0.19033 2.74853,1.317013 2.103036,2.184874 3.984554,4.968799 4.847473,7.172404 l 0.190687,0.486948 0.76861,-0.0617 c 1.363251,-0.109429 1.708242,0.0579 3.1894,1.54697 3.253606,3.270975 5.227857,7.037367 5.823263,11.109373 0.209655,1.43384 0.08476,4.702748 -0.236516,6.190524 -0.594593,2.753433 -2.001785,6.061491 -3.75578,8.829168 l -0.820137,1.294118 6.68614,6.705882 c 3.677377,3.688235 6.778976,6.890754 6.892441,7.116709 0.264138,0.526 0.360981,1.836479 0.176928,2.394165 -0.373477,1.131651 -2.030892,1.784516 -3.34291,1.316795 z M 67.699927,81.232788 c 1.887358,-0.389844 4.508288,-1.492004 6.458961,-2.716137 l 0.6883,-0.431939 -2.275403,-2.27765 c -1.251473,-1.252708 -2.320243,-2.277651 -2.375044,-2.277651 -0.0548,0 -0.611194,0.322788 -1.236426,0.717307 -1.629497,1.028206 -4.668525,2.487245 -6.320433,3.034443 -1.598737,0.529584 -3.374304,0.919767 -4.692608,1.031204 -0.488648,0.04131 -0.88845,0.116913 -0.88845,0.168016 0,0.165226 1.938738,1.388527 2.956376,1.865408 1.084953,0.508426 2.405139,0.905698 3.543586,1.06634 0.982816,0.138681 3.030907,0.04998 4.141141,-0.179341 z m 11.530257,-7.716756 c 0.563198,-0.851051 1.568227,-2.835595 1.989146,-3.927797 1.409642,-3.65775 1.394185,-7.084816 -0.04628,-10.2617 -0.378502,-0.83477 -1.828219,-3.091241 -1.98603,-3.091241 -0.0519,0 -0.129712,0.423853 -0.172915,0.941896 -0.278288,3.336911 -1.64024,7.020694 -4.03514,10.914173 -0.409017,0.664955 -0.743668,1.246812 -0.743668,1.293014 0,0.10323 4.497983,4.615622 4.600883,4.615622 0.04055,0 0.217856,-0.217784 0.394007,-0.483967 z M 57.844428,72.580498 c 1.817144,-0.247579 3.469625,-0.772515 5.365537,-1.704446 1.055589,-0.518873 2.789135,-1.502604 2.789652,-1.583038 2.35e-4,-0.03296 -1.045205,-1.101205 -2.323146,-2.373879 l -2.32353,-2.313953 -1.235294,0.765747 c -1.552186,0.962186 -4.435647,2.380268 -5.823529,2.864003 -1.524276,0.531275 -3.181872,0.93062 -4.6796,1.127404 -0.717863,0.09432 -1.325973,0.192255 -1.351357,0.21764 -0.02538,0.02538 0.235904,0.252521 0.580638,0.504751 2.862869,2.094656 5.855025,2.924347 9.000629,2.495771 z m 12.957073,-8.581466 c 3.413794,-5.772664 3.56552,-10.79221 0.467986,-15.482265 -0.571782,-0.865751 -0.856505,-1.20524 -0.916122,-1.092342 -0.04758,0.0901 -0.119995,0.560869 -0.160931,1.046163 -0.257736,3.055474 -1.877252,7.365522 -4.082575,10.865041 l -0.730478,1.15916 2.279766,2.282016 c 1.253872,1.25511 2.333217,2.281371 2.398545,2.280582 0.06533,-8.24e-4 0.400042,-0.47705 0.743809,-1.058355 z M 49.906025,63.598649 c 1.150079,-0.220046 2.821386,-0.781275 4.072401,-1.36752 1.410932,-0.661186 3.080398,-1.636681 3.080398,-1.799926 0,-0.07664 -1.022082,-1.160422 -2.271292,-2.4084 l -2.271292,-2.269052 -1.228708,0.772366 c -3.540361,2.22547 -7.316935,3.667102 -10.640473,4.061792 -0.647059,0.07684 -1.194949,0.157712 -1.217535,0.17971 -0.105033,0.102308 1.692435,1.287877 2.746947,1.811824 1.22742,0.609859 2.486648,1.009519 3.735256,1.185514 0.941397,0.132693 2.846035,0.05339 3.994298,-0.166308 z m 12.086172,-8.437765 c 0.81334,-1.375666 1.630208,-3.248895 2.050178,-4.701437 0.910182,-3.148028 0.690225,-6.241925 -0.643221,-9.047519 -0.44062,-0.927073 -1.729993,-3.002658 -1.813441,-2.91921 -0.02019,0.02019 -0.12012,0.677869 -0.222069,1.461512 -0.441236,3.391598 -1.845869,7.070872 -4.012313,10.509788 l -0.774071,1.228725 2.327914,2.330099 c 1.280353,1.281554 2.340137,2.330099 2.355076,2.330099 0.01494,0 0.344315,-0.536426 0.731947,-1.192057 z M 40.666142,54.765405 c 1.954582,-0.317009 4.184785,-1.179688 6.480917,-2.50692 0.404412,-0.233761 0.735294,-0.466061 0.735294,-0.516222 0,-0.135764 -2.023768,-1.077089 -3.235294,-1.504849 -1.732273,-0.611623 -2.897086,-0.82997 -4.833491,-0.906049 -2.044901,-0.08034 -3.514381,0.109522 -5.258219,0.679382 -1.032205,0.337308 -3.053797,1.313509 -3.604318,1.740478 l -0.284263,0.220467 0.754852,0.556022 c 1.439807,1.060557 3.92825,2.099542 5.57838,2.329107 0.834188,0.116051 2.669068,0.0703 3.666142,-0.09142 z M 53.34502,46.044298 c 0.810507,-1.415883 1.664857,-3.451839 2.024259,-4.823903 0.374459,-1.42955 0.505799,-3.912794 0.280738,-5.307939 -0.281291,-1.743708 -0.930277,-3.317161 -2.094498,-5.078065 l -0.653968,-0.989138 -0.265906,0.333478 c -0.469658,0.589006 -1.441661,2.569712 -1.792424,3.652518 -0.54781,1.691102 -0.667033,2.524622 -0.663586,4.639339 0.0034,2.06442 0.147325,3.030831 0.725202,4.868306 0.446493,1.419711 1.545488,3.72061 1.776593,3.719545 0.0458,-2.35e-4 0.344417,-0.456575 0.66359,-1.014141 z m -9.463209,-3.544299 c -0.0017,-1.799127 -0.784279,-5.144714 -1.492836,-6.382352 -1.490927,-2.604211 -3.97727,-3.971757 -8.236088,-4.53004 -0.737775,-0.09671 -1.47833,-0.175843 -1.645679,-0.175843 h -0.304271 l 0.08005,1.029412 c 0.384432,4.943847 1.945251,7.888392 4.938692,9.317029 1.453524,0.693704 4.026982,1.258694 5.86656,1.287977 l 0.794114,0.01264 -5.88e-4,-0.558824 z"
   id="path842" /><path
   style="fill:#d4aa00;stroke:#ffffff;stroke-width:0.117647"
   d="M 40.117647,23.225712 C 39.606026,23.005982 24.197632,7.6569375 23.888248,7.0588235 23.201978,5.7321012 23.725237,4.0775061 25.074835,3.3067187 c 0.828477,-0.4731625 1.34992,-0.5466296 2.185535,-0.3079242 0.675267,0.1928994 0.744328,0.2578352 8.487225,7.9801965 6.221045,6.204545 7.863418,7.905177 8.087086,8.37395 0.890912,1.867212 -0.54658,4.058231 -2.65821,4.051635 -0.355883,-0.0011 -0.832353,-0.0816 -1.058824,-0.178864 z"
   id="path844" /><path
   style="fill:#d4aa00;stroke:#ffffff;stroke-width:0.117647"
   d=""
   id="path846" /><path
   style="fill:#d4aa00;stroke:#ffffff;stroke-width:0.117647"
   d="M 19.529412,23.275422 C 19.20532,23.184813 17.422394,21.464926 11.155721,15.197798 3.401606,7.4431204 3.1888949,7.2184055 3.0060602,6.5882353 2.7656252,5.7595356 2.8580026,5.1287793 3.3372657,4.3267527 3.597831,3.8907075 3.8907075,3.597831 4.3267527,3.3372657 5.129402,2.8576305 5.7597506,2.7654996 6.5882353,3.0067305 c 0.6293818,0.1832579 0.8615928,0.4026514 8.4999737,8.0307955 4.515618,4.509566 7.937262,8.017898 8.051391,8.255373 0.310462,0.646003 0.340589,1.636557 0.0684,2.249147 -0.660011,1.485447 -2.114307,2.170721 -3.678593,1.733376 z"
   id="path848" /><path
   style="fill:#d4aa00;stroke:#ffffff;stroke-width:0.117647"
   d="M 19.411765,43.814593 C 18.866731,43.581368 3.4920837,28.241509 3.1486085,27.588235 2.2523006,25.883499 3.7333866,23.508953 5.7044712,23.490557 c 1.2621012,-0.01178 0.9187154,-0.308982 9.3375638,8.081732 6.229744,6.208925 7.863372,7.899478 8.087086,8.368887 0.890184,1.867832 -0.547075,4.058231 -2.658533,4.051636 -0.355882,-0.0011 -0.832353,-0.08131 -1.058823,-0.178219 z"
   id="path850" /></svg>
