<?xml version="1.0" encoding="utf-8"?>
<!-- Generator: Adobe Illustrator 18.0.0, SVG Export Plug-In . SVG Version: 6.00 Build 0)  -->
<!DOCTYPE svg PUBLIC "-//W3C//DTD SVG 1.1//EN" "http://www.w3.org/Graphics/SVG/1.1/DTD/svg11.dtd">
<svg version="1.1" id="Layer_1" xmlns="http://www.w3.org/2000/svg" xmlns:xlink="http://www.w3.org/1999/xlink" x="0px" y="0px"
	 viewBox="0 0 100 100" enable-background="new 0 0 100 100" xml:space="preserve">
<g>
	<path fill="#FFFFFF" d="M96.4,92.1l-13-13c9-13.2,4.1-22.6-1.8-28.3c-0.9-0.8-2.2-1-3.2-0.6c-1.2-3.3-3.4-6.1-5.6-8.3
		c-0.9-0.8-2.2-1-3.2-0.6c-1.2-3.3-3.4-6.1-5.6-8.3c-0.9-0.8-2.2-1-3.2-0.6c-1.2-3.3-3.4-6.1-5.6-8.3c-1.2-1.1-3-1.1-4.1,0
		c-2.3,2.3-3.9,4.9-5,7.5c-3-3.5-8.1-5.4-16.5-5.4c-1.6,0-2.9,1.3-2.9,2.9c0,8.4,2,13.5,5.4,16.5c-2.5,1-5,2.5-7.5,5
		c-1.1,1.1-1.2,3,0,4.1c2.2,2.3,4.9,4.4,8.3,5.6c-0.5,1.1-0.3,2.3,0.6,3.2c2.2,2.3,5,4.4,8.3,5.6c-0.5,1.1-0.3,2.3,0.6,3.2
		c2.2,2.3,5,4.4,8.3,5.6c-0.5,1.1-0.3,2.3,0.6,3.2c3.4,3.6,8.2,6.8,14.4,6.8c4.1,0,8.7-1.4,13.9-4.9l13,13c0.6,0.6,1.3,0.9,2.1,0.9
		s1.5-0.3,2.1-0.9C97.5,95.1,97.5,93.3,96.4,92.1z M79.1,74.9l-4.6-4.6c3.3-4.9,4.7-9.2,4.9-13.1C83.6,62.5,83.5,68.1,79.1,74.9z
		 M48.5,70.5c3.8-0.2,8.2-1.6,13.1-4.9l4.6,4.6C59.3,74.6,53.7,74.7,48.5,70.5z M52.7,56.8l4.6,4.6c-6.8,4.3-12.4,4.5-17.6,0.3
		C43.5,61.5,47.8,60.1,52.7,56.8z M70.3,66l-4.6-4.6c3.3-4.9,4.7-9.2,4.9-13.1C74.8,53.6,74.7,59.2,70.3,66z M61.5,57.2l-4.6-4.6
		c3.3-4.9,4.7-9.2,4.9-13.1C65.9,44.8,65.8,50.4,61.5,57.2z M53.1,30.9C57,36,57,41.4,52.9,48C50.1,43.4,49,36.7,53.1,30.9z
		 M44.1,44c-7.8-0.4-11.1-2.8-11.6-11.6C41.3,33,43.7,36.3,44.1,44z M40.6,50.3c2.6,0.2,5.2,1.1,7.5,2.4c-6.6,4.1-12,4.2-17.1,0.2
		C34.5,50.5,38.1,50.1,40.6,50.3z M57.3,79.4c3.8-0.2,8.2-1.6,13.1-4.9L75,79C68.2,83.4,62.6,83.5,57.3,79.4z"/>
	<path fill="#FFFFFF" d="M7.9,3.7c-1.2-1.2-3-1.2-4.2,0c-1.2,1.2-1.2,3,0,4.2l14.7,14.7c0.6,0.6,1.3,0.9,2.1,0.9
		c0.8,0,1.5-0.3,2.1-0.9c1.2-1.2,1.2-3,0-4.2L7.9,3.7z"/>
	<path fill="#FFFFFF" d="M39.1,22.6c0.6,0.6,1.3,0.9,2.1,0.9c0.8,0,1.5-0.3,2.1-0.9c1.2-1.2,1.2-3,0-4.2L28.6,3.7
		c-1.2-1.2-3-1.2-4.2,0c-1.2,1.2-1.2,3,0,4.2L39.1,22.6z"/>
	<path fill="#FFFFFF" d="M7.9,24.3c-1.2-1.2-3-1.2-4.2,0c-1.2,1.2-1.2,3,0,4.2l14.7,14.7c0.6,0.6,1.3,0.9,2.1,0.9
		c0.8,0,1.5-0.3,2.1-0.9c1.2-1.2,1.2-3,0-4.2L7.9,24.3z"/>
</g>
</svg>
