<?xml version="1.0" encoding="UTF-8" standalone="no"?>
<svg
   xmlns:dc="http://purl.org/dc/elements/1.1/"
   xmlns:cc="http://creativecommons.org/ns#"
   xmlns:rdf="http://www.w3.org/1999/02/22-rdf-syntax-ns#"
   xmlns:svg="http://www.w3.org/2000/svg"
   xmlns="http://www.w3.org/2000/svg"
   xmlns:sodipodi="http://sodipodi.sourceforge.net/DTD/sodipodi-0.dtd"
   xmlns:inkscape="http://www.inkscape.org/namespaces/inkscape"
   version="1.1"
   id="Layer_1"
   x="0px"
   y="0px"
   viewBox="0 0 100 100"
   enable-background="new 0 0 100 100"
   xml:space="preserve"
   sodipodi:docname="Uva color.svg"
   inkscape:version="1.0.1 (3bc2e813f5, 2020-09-07)"><metadata
   id="metadata13"><rdf:RDF><cc:Work
       rdf:about=""><dc:format>image/svg+xml</dc:format><dc:type
         rdf:resource="http://purl.org/dc/dcmitype/StillImage" /><dc:title></dc:title></cc:Work></rdf:RDF></metadata><defs
   id="defs11" /><sodipodi:namedview
   pagecolor="#ffffff"
   bordercolor="#666666"
   borderopacity="1"
   objecttolerance="10"
   gridtolerance="10"
   guidetolerance="10"
   inkscape:pageopacity="0"
   inkscape:pageshadow="2"
   inkscape:window-width="1920"
   inkscape:window-height="1017"
   id="namedview9"
   showgrid="false"
   inkscape:zoom="4.34"
   inkscape:cx="48.979891"
   inkscape:cy="61.667431"
   inkscape:window-x="-8"
   inkscape:window-y="-8"
   inkscape:window-maximized="1"
   inkscape:current-layer="Layer_1" />
<g
   id="g6"
   transform="translate(104.14747,-2.764977)">
	<path
   fill="#2c3136"
   d="m 93.3,64.4 c -2.5,-2.5 -5.8,-3.9 -9.4,-3.9 -1.7,0 -3.4,0.3 -4.9,1 -1.4,-5.2 -6,-9.2 -11.5,-9.7 0.2,-1 0.3,-2 0.3,-3.1 C 67.8,41 62.8,34.4 55.9,32 54.4,21.1 41.9,9.6 40.3,8.2 39.2,7.2 37.5,7.2 36.4,8.2 36,8.5 27.8,15.8 23.5,24.2 15.6,20.8 6.9,19.3 6.5,19.3 5.6,19.2 4.7,19.4 4.1,20 3.4,20.6 3.1,21.5 3.1,22.4 3,23.7 3,25.7 3,28 2.8,39.3 3,49.1 6.5,53.5 c 0.9,1.2 2,2.2 3.2,3.2 -4.6,9.4 -3.8,23.8 -3.7,24.5 0,1.5 1.2,2.7 2.7,2.8 0.5,0 1.7,0.1 3.4,0.1 5.8,0 17.2,-0.7 24,-5.7 0.7,1.8 1.7,3.4 3,4.8 2.5,2.5 5.8,3.9 9.4,3.9 2.1,0 4.1,-0.5 5.9,-1.4 0.6,1.2 1.4,2.4 2.4,3.4 2.5,2.5 5.8,3.9 9.4,3.9 3.5,0 6.9,-1.4 9.4,-3.9 1,-1 1.8,-2.2 2.4,-3.4 1.8,0.9 3.8,1.4 5.9,1.4 3.5,0 6.9,-1.4 9.4,-3.9 2.5,-2.5 3.9,-5.8 3.9,-9.4 -0.1,-3.6 -1.4,-6.9 -3.9,-9.4 z M 79.5,79.6 c 0,-2.6 -0.8,-5.2 -2.2,-7.3 0.8,-1.2 1.4,-2.5 1.7,-4 1.4,-1.2 3.1,-1.9 4.9,-1.9 2,0 3.8,0.8 5.2,2.2 0.7,0.7 1.2,1.5 1.6,2.4 -0.9,-0.2 -1.9,0 -2.6,0.8 -1.1,1.1 -1.1,3 0,4.2 0.7,0.7 1.7,0.9 2.6,0.8 -0.4,0.9 -0.9,1.7 -1.6,2.4 -2.6,2.3 -6.8,2.5 -9.6,0.4 z m -10.4,6.8 c 0.2,-0.9 -0.1,-1.9 -0.8,-2.6 -1.1,-1.1 -3,-1.1 -4.2,0 -0.7,0.7 -0.9,1.7 -0.8,2.6 -0.9,-0.3 -1.7,-0.9 -2.4,-1.5 -0.9,-0.9 -1.5,-2 -1.9,-3.2 1,-1.3 1.7,-2.8 2.1,-4.4 1.5,0.6 3.2,1 4.9,1 2.4,0 4.6,-0.7 6.6,-1.8 0.5,1 0.8,2.1 0.8,3.3 0,2 -0.8,3.8 -2.2,5.2 -0.5,0.5 -1.3,1 -2.1,1.4 z M 51.4,80.5 c 0.2,-0.9 -0.1,-1.9 -0.8,-2.6 -1.1,-1.1 -3,-1.1 -4.2,0 -0.7,0.7 -0.9,1.7 -0.8,2.6 C 44.7,80.2 43.9,79.6 43.2,79 41.8,77.6 41,75.8 41,73.8 c 0,-2 0.8,-3.8 2.2,-5.2 1.4,-1.4 3.2,-2.2 5.2,-2.2 1.8,0 3.6,0.7 4.9,1.9 0.5,1.8 1.3,3.4 2.4,4.8 0,0.2 0.1,0.5 0.1,0.7 0,2 -0.8,3.8 -2.2,5.2 -0.5,0.6 -1.3,1.1 -2.2,1.5 z m -35.3,-23 c 0.5,-0.7 0.6,-1.5 0.5,-2.3 -0.2,-0.8 -0.7,-1.5 -1.3,-1.9 -1.6,-1 -3,-2.2 -4,-3.5 C 8.7,46.7 8.8,34.6 8.9,28 c 0,-0.8 0,-1.5 0,-2.2 3.7,0.9 9.7,2.5 14.6,4.9 0.7,0.4 1.6,0.4 2.4,0.1 0.8,-0.3 1.4,-0.9 1.7,-1.7 2.3,-5.9 7.8,-11.8 10.7,-14.7 3.8,3.8 9.7,10.6 11.3,16.6 -9.5,0.2 -17.2,8.1 -17.2,17.6 0,0.1 0,0.1 0,0.1 -0.5,-0.1 -1,-0.1 -1.5,-0.1 -7.3,0 -13.2,5.9 -13.2,13.2 0,7 5.5,12.7 12.4,13.2 -5.4,2.4 -13.3,3 -18.3,3 -0.1,-5.5 0.7,-15.3 4.3,-20.5 z m 50.1,0 c 1,0 1.9,0.2 2.8,0.6 -0.8,0.5 -1.3,1.4 -1.3,2.4 0,1.6 1.3,2.9 2.9,2.9 1,0 1.9,-0.5 2.4,-1.3 0.4,0.9 0.6,1.8 0.6,2.8 0,4.1 -3.3,7.4 -7.4,7.4 -4.1,0 -7.4,-3.3 -7.4,-7.4 0,-0.3 0.1,-0.7 0.1,-1 2.6,-1.5 4.8,-3.7 6.3,-6.3 0.4,0 0.7,-0.1 1,-0.1 z m -39.7,5.9 c -1,0 -1.9,0.5 -2.4,1.3 -0.4,-0.9 -0.6,-1.8 -0.6,-2.8 0,-4.1 3.3,-7.4 7.4,-7.4 1,0 1.9,0.2 2.7,0.5 1,2.6 2.6,4.9 4.7,6.7 0,0 0,0.1 0,0.1 0,4.1 -3.3,7.4 -7.4,7.4 -1,0 -1.9,-0.2 -2.8,-0.6 0.8,-0.5 1.3,-1.4 1.3,-2.4 0,-1.4 -1.3,-2.8 -2.9,-2.8 z M 50,60.5 c -6.5,0 -11.8,-5.3 -11.8,-11.8 0,-6.5 5.3,-11.8 11.8,-11.8 6.5,0 11.8,5.3 11.8,11.8 0,6.5 -5.3,11.8 -11.8,11.8 z"
   id="path2" />
	<circle
   fill="#2c3136"
   cx="54.5"
   cy="44.299999"
   r="4.4000001"
   id="circle4" />
</g>
<path
   style="fill:#7f2aff;stroke:#000000;stroke-width:0.115389"
   d="M 65.319817,92.495345 C 62.529138,92.117361 60.416226,91.30901 58.558801,89.908742 57.400539,89.035556 55.955275,87.434501 55.250437,86.243755 l -0.618861,-1.045495 -0.315854,0.163335 c -2.057973,1.06422 -5.541559,1.517557 -8.003914,1.041593 -4.243775,-0.820308 -7.737598,-3.594837 -9.558564,-7.590681 -0.282638,-0.62021 -0.452672,-0.87015 -0.552239,-0.811755 -0.07912,0.04641 -0.428999,0.275013 -0.777501,0.508014 C 30.252856,81.965751 20.706675,83.894448 10.3659,83.571368 8.4657493,83.512001 8.3887529,83.499983 7.7826174,83.168142 7.1052323,82.797295 6.5782751,82.172128 6.3884751,81.514172 6.1921781,80.833694 6.1201368,76.341437 6.2635574,73.724725 6.6334989,66.975138 7.709809,61.545686 9.5025074,57.385823 L 9.9901411,56.254295 9.313965,55.666201 C 6.0734113,52.847774 4.8022583,50.387537 3.9788433,45.340402 3.3971955,41.775183 3.3400593,40.467115 3.3391253,30.694771 c -10e-4,-10.457288 -0.047387,-9.93199 0.9661772,-10.941165 0.8989087,-0.895017 1.6265625,-0.987126 4.072517,-0.515513 4.5533835,0.877954 9.7185135,2.378765 13.9561425,4.055181 1.58953,0.628822 1.335569,0.734897 2.276954,-0.951038 1.274676,-2.282828 3.356209,-5.182883 5.8205,-8.109297 1.76505,-2.096045 6.199867,-6.4832705 6.893009,-6.8190369 0.796749,-0.3859545 1.772246,-0.3817348 2.508831,0.010852 1.063615,0.566888 4.725607,4.2574639 7.428623,7.4866069 4.921788,5.879787 7.720688,11.072778 8.742948,16.221398 l 0.0984,0.495592 1.152074,0.49093 c 3.36458,1.433737 6.28738,3.99807 8.224768,7.216043 1.134391,1.884205 2.007736,4.346304 2.310754,6.514379 0.158484,1.133943 0.162792,3.79045 0.0076,4.71834 -0.06356,0.380184 -0.115873,0.723539 -0.11624,0.763011 -3.46e-4,0.03947 0.453543,0.154868 1.008689,0.256432 1.212012,0.221741 2.213884,0.539376 3.346386,1.06094 3.042267,1.401096 5.705942,4.343654 6.824877,7.539432 0.144207,0.411867 0.298826,0.791277 0.343598,0.843134 0.04477,0.05186 0.279166,0.01166 0.520874,-0.08933 1.313079,-0.54864 2.225842,-0.690221 4.429563,-0.687086 1.938865,0.0028 2.233059,0.03057 3.257759,0.307945 2.287595,0.619232 4.347244,1.810948 6.018759,3.482464 1.83426,1.83426 3.065527,4.097036 3.624974,6.661846 1.281037,5.872964 -1.702853,11.905256 -7.198727,14.553092 -3.4581,1.666065 -7.142437,1.787943 -10.712771,0.354379 l -0.956107,-0.383922 -0.434178,0.75639 c -1.837574,3.201272 -4.906655,5.430372 -8.586131,6.236178 -0.963868,0.211087 -3.156962,0.366256 -3.849935,0.272397 z m -1.785714,-6.883351 c 0,-1.663879 1.286958,-2.958397 2.937788,-2.955042 1.576003,0.0032 2.81375,1.20794 2.82005,2.744845 0.0029,0.709226 -0.0052,0.708465 1.031147,0.09729 1.322084,-0.779716 2.532426,-2.35048 3.036139,-3.94026 0.204891,-0.646658 0.255521,-1.080384 0.255521,-2.18894 0,-1.234438 -0.03606,-1.484273 -0.336761,-2.332949 -0.185217,-0.522754 -0.400231,-0.950461 -0.477808,-0.950461 -0.07758,0 -0.469094,0.16276 -0.870038,0.36169 -3.041359,1.508975 -6.631424,1.76154 -9.710157,0.68312 -0.374263,-0.131097 -0.740659,-0.238359 -0.814214,-0.238359 -0.07355,0 -0.226208,0.2981 -0.339228,0.662443 -0.282759,0.911518 -0.984666,2.379752 -1.497981,3.133436 l -0.427493,0.627676 0.305833,0.719599 c 0.720899,1.696208 1.801165,2.895084 3.338862,3.705455 0.639529,0.337033 0.74834,0.318198 0.74834,-0.129543 z m 23.285455,-5.343029 c 1.761954,-0.608171 2.910755,-1.55465 3.830329,-3.155745 0.423591,-0.737528 0.40157,-0.795919 -0.301268,-0.798859 -0.65465,-0.0027 -1.462937,-0.308421 -1.91617,-0.724667 -0.783127,-0.719222 -1.067193,-2.376071 -0.579942,-3.382597 0.492093,-1.01653 1.749279,-1.769199 2.697954,-1.615251 0.261167,0.04238 0.402996,0.01962 0.402996,-0.06467 0,-0.3197 -1.025009,-1.819355 -1.672936,-2.447616 -2.271878,-2.202918 -5.511823,-2.746129 -8.304217,-1.392286 -1.497387,0.72598 -1.686282,0.925462 -2.09648,2.213982 -0.19905,0.625256 -0.599308,1.551576 -0.889464,2.058489 l -0.527556,0.921659 0.244006,0.403226 c 0.441882,0.730221 1.121582,2.242526 1.371367,3.051238 0.286641,0.928033 0.583831,2.657403 0.584495,3.401213 4.61e-4,0.495131 0.02557,0.534434 0.540421,0.84542 1.338455,0.808456 2.623029,1.123701 4.356355,1.069086 1.037915,-0.0327 1.446974,-0.101956 2.26011,-0.382625 z m -40.912183,-0.6841 c 0,-1.663894 1.159412,-2.803382 2.855082,-2.806019 0.838239,-0.0013 1.316218,0.170158 1.897775,0.680769 0.569631,0.500143 0.922412,1.270145 0.933504,2.037522 0.0049,0.341879 0.05619,0.621597 0.113878,0.621597 0.05769,0 0.370419,-0.152138 0.694953,-0.338084 2.170495,-1.24362 3.636272,-3.733925 3.641354,-6.186539 0.0016,-0.787352 -0.02026,-0.853936 -0.521409,-1.585844 -0.644086,-0.94066 -1.447074,-2.571652 -1.728262,-3.510364 -0.191197,-0.638284 -0.271674,-0.745709 -0.876458,-1.169941 -1.33208,-0.934401 -2.72983,-1.37547 -4.360648,-1.376032 -1.116892,-3.46e-4 -2.148182,0.247167 -3.225806,0.774322 -1.222106,0.597834 -2.774108,2.153011 -3.377404,3.384314 -1.754998,3.581876 -0.448262,7.736647 3.037564,9.657936 0.849259,0.468088 0.915877,0.454731 0.915877,-0.183637 z M 18.833642,77.303016 c 3.119525,-0.324511 5.97791,-0.84287 8.250501,-1.496201 1.385646,-0.398351 3.270236,-1.108618 3.270236,-1.232494 0,-0.05541 -0.178062,-0.100748 -0.395693,-0.100748 -0.217633,0 -0.774949,-0.07883 -1.23848,-0.175181 -5.131474,-1.066625 -9.029957,-4.761556 -10.358569,-9.817715 -0.333264,-1.268268 -0.422068,-3.881092 -0.179248,-5.273871 0.827664,-4.747337 4.07787,-8.578792 8.679825,-10.232074 1.279391,-0.459631 2.694207,-0.689756 4.308886,-0.700862 l 1.450363,-0.01 0.138019,-1.473548 c 0.518183,-5.53235 3.345284,-10.238825 7.986276,-13.295322 2.432478,-1.601999 5.230054,-2.571919 7.955395,-2.758138 1.306139,-0.08925 1.264425,-0.02071 0.821716,-1.350047 -1.240551,-3.725038 -5.1936,-9.492402 -9.675726,-14.116555 l -1.297086,-1.338185 -0.995313,0.979263 c -1.246069,1.225976 -3.447159,3.720094 -4.737274,5.367942 -2.044697,2.611666 -4.168583,6.119931 -5.034281,8.315694 -0.274611,0.696523 -1.02931,1.471761 -1.671771,1.717265 -0.923624,0.352947 -1.641017,0.265718 -2.9575,-0.359603 -2.176058,-1.033615 -4.837029,-2.031673 -7.891705,-2.959967 -2.113035,-0.642134 -5.7072308,-1.595491 -6.0195853,-1.596688 -0.1890104,-6.92e-4 -0.2015133,0.317891 -0.2000185,5.097154 0.0032,10.225741 0.5470937,15.373578 1.9103028,18.080551 0.531398,1.055214 2.227968,2.775069 3.906075,3.959683 0.896541,0.632887 1.236799,0.952304 1.534057,1.440092 0.35743,0.586528 0.379645,0.683002 0.345619,1.500945 -0.03255,0.78248 -0.08194,0.945547 -0.471025,1.555299 -2.175944,3.410006 -3.476363,8.015607 -4.047077,14.333246 -0.191887,2.124127 -0.360654,6.028687 -0.267135,6.180382 0.08753,0.141984 4.781022,-0.02197 6.880216,-0.24034 z m 49.228409,-5.550797 c 2.609162,-0.587764 4.56301,-2.359045 5.449098,-4.939937 0.272281,-0.793068 0.316807,-1.106508 0.319136,-2.246543 0.0019,-0.933671 -0.05554,-1.511988 -0.194558,-1.958526 -0.311046,-0.999124 -0.361143,-1.040231 -0.750038,-0.615427 -0.721555,0.788181 -1.797878,1.097575 -2.799033,0.804597 -2.101822,-0.615079 -2.766194,-3.265884 -1.190891,-4.751586 0.365328,-0.344548 0.384038,-0.391244 0.196892,-0.491402 -0.483317,-0.258663 -1.688532,-0.476136 -2.638705,-0.476136 h -1.021548 l -0.689934,1.06162 c -0.931859,1.433875 -3.092903,3.606754 -4.549381,4.574293 -1.067664,0.70925 -1.09652,0.740136 -1.178157,1.26101 -0.10147,0.647422 0.05929,2.069239 0.321727,2.845422 0.393748,1.164557 0.908027,1.996371 1.790622,2.896217 1.799484,1.834656 4.417546,2.60345 6.93477,2.036398 z M 32.93871,68.6 c 1.478132,-0.378043 2.304206,-0.852498 3.408522,-1.957685 0.600436,-0.600912 1.12269,-1.250724 1.345527,-1.674171 0.472482,-0.897831 0.841344,-2.242971 0.841344,-3.068153 v -0.65425 l -0.950461,-0.965379 c -1.254618,-1.27431 -2.26909,-2.725224 -3.065484,-4.384301 l -0.649954,-1.354009 -0.576037,-0.18912 c -0.868819,-0.285244 -3.039216,-0.34069 -3.974654,-0.101539 -2.072562,0.529865 -3.914759,2.004839 -4.824435,3.862733 -0.629464,1.285599 -0.862065,2.400162 -0.781395,3.744239 0.05828,0.970974 0.283376,1.976577 0.526733,2.353121 0.08511,0.131686 0.16977,0.08852 0.427756,-0.218076 0.438296,-0.520883 1.337706,-0.923471 2.059175,-0.921712 1.0579,0.0026 2.090559,0.675714 2.5499,1.662143 0.482046,1.035188 0.310686,2.042992 -0.500852,2.945616 -0.274788,0.305632 -0.448424,0.587331 -0.385857,0.625999 0.06257,0.03867 0.491595,0.169299 0.953394,0.290288 1.114881,0.292094 2.465099,0.293692 3.596778,0.0043 z m 18.498491,-8.531372 c 2.731362,-0.28762 5.049444,-1.379312 7.067281,-3.328311 1.485725,-1.435043 2.509652,-3.155067 3.140484,-5.275491 0.429259,-1.442873 0.514859,-3.983241 0.187457,-5.563218 -1.577118,-7.610865 -9.952795,-11.676243 -16.904311,-8.204996 -3.232531,1.614167 -5.568928,4.650944 -6.302551,8.191866 -0.330182,1.593663 -0.246218,4.127649 0.184775,5.576348 0.630832,2.120424 1.654759,3.840448 3.140484,5.275491 2.246844,2.170193 4.870159,3.280575 8.10402,3.430221 0.15841,0.0073 0.780472,-0.03853 1.382361,-0.10191 z"
   id="path838" /><path
   style="fill:#7f2aff;stroke:#000000;stroke-width:0.115389"
   d="m 53.277111,48.457104 c -1.334812,-0.513592 -2.144659,-1.228303 -2.690181,-2.374155 -0.31667,-0.665154 -0.356515,-0.864731 -0.356515,-1.785714 0,-0.924756 0.03893,-1.117835 0.360046,-1.785714 1.206436,-2.509226 4.282698,-3.294334 6.507871,-1.660907 2.081638,1.528063 2.293748,4.642647 0.442265,6.49413 -0.83066,0.83066 -1.668622,1.190459 -2.874698,1.234319 -0.632893,0.02302 -1.124114,-0.02012 -1.388788,-0.121959 z"
   id="path840" /></svg>
