<?xml version="1.0" encoding="utf-8"?>
<!-- Generator: Adobe Illustrator 18.0.0, SVG Export Plug-In . SVG Version: 6.00 Build 0)  -->
<!DOCTYPE svg PUBLIC "-//W3C//DTD SVG 1.1//EN" "http://www.w3.org/Graphics/SVG/1.1/DTD/svg11.dtd">
<svg version="1.1" id="Layer_1" xmlns="http://www.w3.org/2000/svg" xmlns:xlink="http://www.w3.org/1999/xlink" x="0px" y="0px"
	 viewBox="0 0 100 100" enable-background="new 0 0 100 100" xml:space="preserve">
<g>
	<path fill="#2C3136" d="M93.3,64.4c-2.5-2.5-5.8-3.9-9.4-3.9c-1.7,0-3.4,0.3-4.9,1c-1.4-5.2-6-9.2-11.5-9.7c0.2-1,0.3-2,0.3-3.1
		c0-7.7-5-14.3-11.9-16.7c-1.5-10.9-14-22.4-15.6-23.8c-1.1-1-2.8-1-3.9,0c-0.4,0.3-8.6,7.6-12.9,16c-7.9-3.4-16.6-4.9-17-4.9
		c-0.9-0.1-1.8,0.1-2.4,0.7c-0.7,0.6-1,1.5-1,2.4C3,23.7,3,25.7,3,28C2.8,39.3,3,49.1,6.5,53.5c0.9,1.2,2,2.2,3.2,3.2
		C5.1,66.1,5.9,80.5,6,81.2C6,82.7,7.2,83.9,8.7,84c0.5,0,1.7,0.1,3.4,0.1c5.8,0,17.2-0.7,24-5.7c0.7,1.8,1.7,3.4,3,4.8
		c2.5,2.5,5.8,3.9,9.4,3.9c2.1,0,4.1-0.5,5.9-1.4c0.6,1.2,1.4,2.4,2.4,3.4c2.5,2.5,5.8,3.9,9.4,3.9c3.5,0,6.9-1.4,9.4-3.9
		c1-1,1.8-2.2,2.4-3.4c1.8,0.9,3.8,1.4,5.9,1.4c3.5,0,6.9-1.4,9.4-3.9c2.5-2.5,3.9-5.8,3.9-9.4C97.1,70.2,95.8,66.9,93.3,64.4z
		 M79.5,79.6c0-2.6-0.8-5.2-2.2-7.3c0.8-1.2,1.4-2.5,1.7-4c1.4-1.2,3.1-1.9,4.9-1.9c2,0,3.8,0.8,5.2,2.2c0.7,0.7,1.2,1.5,1.6,2.4
		c-0.9-0.2-1.9,0-2.6,0.8c-1.1,1.1-1.1,3,0,4.2c0.7,0.7,1.7,0.9,2.6,0.8c-0.4,0.9-0.9,1.7-1.6,2.4C86.5,81.5,82.3,81.7,79.5,79.6z
		 M69.1,86.4c0.2-0.9-0.1-1.9-0.8-2.6c-1.1-1.1-3-1.1-4.2,0c-0.7,0.7-0.9,1.7-0.8,2.6c-0.9-0.3-1.7-0.9-2.4-1.5
		c-0.9-0.9-1.5-2-1.9-3.2c1-1.3,1.7-2.8,2.1-4.4c1.5,0.6,3.2,1,4.9,1c2.4,0,4.6-0.7,6.6-1.8c0.5,1,0.8,2.1,0.8,3.3
		c0,2-0.8,3.8-2.2,5.2C70.7,85.5,69.9,86,69.1,86.4z M51.4,80.5c0.2-0.9-0.1-1.9-0.8-2.6c-1.1-1.1-3-1.1-4.2,0
		c-0.7,0.7-0.9,1.7-0.8,2.6c-0.9-0.3-1.7-0.9-2.4-1.5c-1.4-1.4-2.2-3.2-2.2-5.2c0-2,0.8-3.8,2.2-5.2c1.4-1.4,3.2-2.2,5.2-2.2
		c1.8,0,3.6,0.7,4.9,1.9c0.5,1.8,1.3,3.4,2.4,4.8c0,0.2,0.1,0.5,0.1,0.7c0,2-0.8,3.8-2.2,5.2C53.1,79.6,52.3,80.1,51.4,80.5z
		 M16.1,57.5c0.5-0.7,0.6-1.5,0.5-2.3c-0.2-0.8-0.7-1.5-1.3-1.9c-1.6-1-3-2.2-4-3.5C8.7,46.7,8.8,34.6,8.9,28c0-0.8,0-1.5,0-2.2
		c3.7,0.9,9.7,2.5,14.6,4.9c0.7,0.4,1.6,0.4,2.4,0.1c0.8-0.3,1.4-0.9,1.7-1.7c2.3-5.9,7.8-11.8,10.7-14.7
		c3.8,3.8,9.7,10.6,11.3,16.6c-9.5,0.2-17.2,8.1-17.2,17.6c0,0.1,0,0.1,0,0.1c-0.5-0.1-1-0.1-1.5-0.1c-7.3,0-13.2,5.9-13.2,13.2
		c0,7,5.5,12.7,12.4,13.2c-5.4,2.4-13.3,3-18.3,3C11.7,72.5,12.5,62.7,16.1,57.5z M66.2,57.5c1,0,1.9,0.2,2.8,0.6
		c-0.8,0.5-1.3,1.4-1.3,2.4c0,1.6,1.3,2.9,2.9,2.9c1,0,1.9-0.5,2.4-1.3c0.4,0.9,0.6,1.8,0.6,2.8c0,4.1-3.3,7.4-7.4,7.4
		s-7.4-3.3-7.4-7.4c0-0.3,0.1-0.7,0.1-1c2.6-1.5,4.8-3.7,6.3-6.3C65.6,57.6,65.9,57.5,66.2,57.5z M26.5,63.4c-1,0-1.9,0.5-2.4,1.3
		c-0.4-0.9-0.6-1.8-0.6-2.8c0-4.1,3.3-7.4,7.4-7.4c1,0,1.9,0.2,2.7,0.5c1,2.6,2.6,4.9,4.7,6.7c0,0,0,0.1,0,0.1
		c0,4.1-3.3,7.4-7.4,7.4c-1,0-1.9-0.2-2.8-0.6c0.8-0.5,1.3-1.4,1.3-2.4C29.4,64.8,28.1,63.4,26.5,63.4z M50,60.5
		c-6.5,0-11.8-5.3-11.8-11.8S43.5,36.9,50,36.9c6.5,0,11.8,5.3,11.8,11.8S56.5,60.5,50,60.5z"/>
	<circle fill="#2C3136" cx="54.5" cy="44.3" r="4.4"/>
</g>
</svg>
