<?xml version="1.0" encoding="utf-8"?>
<!-- Generator: Adobe Illustrator 18.0.0, SVG Export Plug-In . SVG Version: 6.00 Build 0)  -->
<!DOCTYPE svg PUBLIC "-//W3C//DTD SVG 1.1//EN" "http://www.w3.org/Graphics/SVG/1.1/DTD/svg11.dtd">
<svg version="1.1" id="Layer_1" xmlns="http://www.w3.org/2000/svg" xmlns:xlink="http://www.w3.org/1999/xlink" x="0px" y="0px"
	 viewBox="0 0 100 100" enable-background="new 0 0 100 100" xml:space="preserve">
<g>
	<path fill="#FFFFFF" d="M73.7,32.6c-8-7.9-16.1-12.1-23.4-12.1c-0.1,0-0.1,0-0.2,0c-2.5,0-5.1,0.6-7.7,1.6L35.1,7.4
		c-0.4-0.8-1.1-1.3-1.9-1.5c-0.8-0.2-1.7-0.1-2.4,0.4l-7.4,4.9L17,3.8c-0.5-0.6-1.3-1-2.1-1c-0.8,0-1.6,0.3-2.2,0.9l-8.9,8.9
		c-0.6,0.6-0.9,1.4-0.9,2.2c0,0.8,0.4,1.6,1,2.1l7.4,6.5l-4.9,7.4c-0.5,0.7-0.6,1.6-0.4,2.4c0.2,0.8,0.8,1.5,1.5,1.9l14.7,7.3
		c-1,2.6-1.5,5.2-1.6,7.7c-0.1,7.4,4.1,15.5,12.1,23.6c13.6,13.7,34.6,23.7,49.9,23.7c8.4,0,14.8-6.3,14.8-14.8
		C97.4,67.2,87.5,46.2,73.7,32.6z M31.3,13l5.9,11.7c-0.4,0.3-0.8,0.5-1.2,0.8l-8.6-9.9L31.3,13z M14.6,10.1l16.8,19.2
		c-0.3,0.3-0.7,0.6-1,1c-0.3,0.3-0.6,0.7-1,1L10.2,14.5L14.6,10.1z M13.2,31.2l2.6-4l9.9,8.6c-0.3,0.4-0.5,0.8-0.8,1.2L13.2,31.2z
		 M82.7,91.4c-13.7,0-33.4-9.4-45.7-21.9c-6.8-6.8-10.4-13.7-10.4-19.4c0.1-4.9,3-10.6,8-15.7c5-5,10.7-7.9,15.7-8c0,0,0.1,0,0.1,0
		c5.6,0,12.5,3.7,19.2,10.4c12.5,12.4,21.9,32,21.9,45.7C91.5,87.7,87.9,91.4,82.7,91.4z"/>
	<path fill="#FFFFFF" d="M79.4,77.9c0.7-1.5,0.1-3.2-1.3-4c-1.5-0.7-3.2-0.1-4,1.3l-2.6,5.2c-5.3-1.7-11-4.4-16.2-7.7l5.8-5.8
		c1.2-1.2,1.2-3,0-4.2c-1.2-1.2-3-1.2-4.2,0l-5.9,5.9c-0.2,0.2-0.4,0.5-0.5,0.8c-2.6-2-5.1-4-7.3-6.2c-1.6-1.6-2.9-3.1-3.9-4.5
		c0.4-0.1,0.8-0.4,1.1-0.7l5.9-5.9c1.2-1.2,1.2-3,0-4.2c-1.2-1.2-3-1.2-4.2,0l-5.8,5.8c-0.7-1.5-0.9-2.7-0.9-3.6
		c0-2.5,2.1-6.2,5.4-9.5c1.2-1.2,1.2-3,0-4.2c-1.2-1.2-3-1.2-4.2,0c-4.5,4.5-7.1,9.4-7.1,13.6c-0.1,4.8,3.4,11.1,9.5,17.3
		c11.7,11.8,30.8,21,43.6,21c1.6,0,3-1.3,3-3s-1.3-3-3-3c-1.6,0-3.4-0.2-5.3-0.5L79.4,77.9z"/>
	<path fill="#FFFFFF" d="M57,52.1c0.6,0.6,1.3,0.9,2.1,0.9c0.8,0,1.5-0.3,2.1-0.9l5.9-5.9c1.2-1.2,1.2-3,0-4.2c-1.2-1.2-3-1.2-4.2,0
		L57,48C55.8,49.1,55.8,51,57,52.1z"/>
	<path fill="#FFFFFF" d="M73.8,61.8c0.8,0,1.5-0.3,2.1-0.9l3-3c1.2-1.2,1.2-3,0-4.2c-1.2-1.2-3-1.2-4.2,0l-3,3c-1.2,1.2-1.2,3,0,4.2
		C72.3,61.6,73,61.8,73.8,61.8z"/>
	<path fill="#FFFFFF" d="M50.2,38.2c0.8,0,1.5-0.3,2.1-0.9l3-3c1.2-1.2,1.2-3,0-4.2c-1.2-1.2-3-1.2-4.2,0l-3,3c-1.2,1.2-1.2,3,0,4.2
		C48.7,37.9,49.4,38.2,50.2,38.2z"/>
</g>
</svg>
