<?xml version="1.0" encoding="UTF-8" standalone="no"?>
<svg
   xmlns:dc="http://purl.org/dc/elements/1.1/"
   xmlns:cc="http://creativecommons.org/ns#"
   xmlns:rdf="http://www.w3.org/1999/02/22-rdf-syntax-ns#"
   xmlns:svg="http://www.w3.org/2000/svg"
   xmlns="http://www.w3.org/2000/svg"
   xmlns:sodipodi="http://sodipodi.sourceforge.net/DTD/sodipodi-0.dtd"
   xmlns:inkscape="http://www.inkscape.org/namespaces/inkscape"
   version="1.1"
   id="Layer_1"
   x="0px"
   y="0px"
   viewBox="0 0 100 100"
   enable-background="new 0 0 100 100"
   xml:space="preserve"
   sodipodi:docname="Zanahoria color.svg"
   inkscape:version="1.0.1 (3bc2e813f5, 2020-09-07)"><metadata
   id="metadata19"><rdf:RDF><cc:Work
       rdf:about=""><dc:format>image/svg+xml</dc:format><dc:type
         rdf:resource="http://purl.org/dc/dcmitype/StillImage" /><dc:title></dc:title></cc:Work></rdf:RDF></metadata><defs
   id="defs17" /><sodipodi:namedview
   pagecolor="#ffffff"
   bordercolor="#666666"
   borderopacity="1"
   objecttolerance="10"
   gridtolerance="10"
   guidetolerance="10"
   inkscape:pageopacity="0"
   inkscape:pageshadow="2"
   inkscape:window-width="1920"
   inkscape:window-height="1017"
   id="namedview15"
   showgrid="false"
   inkscape:zoom="8.5"
   inkscape:cx="50"
   inkscape:cy="50"
   inkscape:window-x="-8"
   inkscape:window-y="-8"
   inkscape:window-maximized="1"
   inkscape:current-layer="Layer_1" />
<g
   id="g12">
	<path
   fill="#2C3136"
   d="M73.7,32.6c-8-7.9-16.1-12.1-23.4-12.1c-0.1,0-0.1,0-0.2,0c-2.5,0-5.1,0.6-7.7,1.6L35.1,7.4   c-0.4-0.8-1.1-1.3-1.9-1.5c-0.8-0.2-1.7-0.1-2.4,0.4l-7.4,4.9L17,3.8c-0.5-0.6-1.3-1-2.1-1c-0.8,0-1.6,0.3-2.2,0.9l-8.9,8.9   c-0.6,0.6-0.9,1.4-0.9,2.2c0,0.8,0.4,1.6,1,2.1l7.4,6.5l-4.9,7.4c-0.5,0.7-0.6,1.6-0.4,2.4c0.2,0.8,0.8,1.5,1.5,1.9l14.7,7.3   c-1,2.6-1.5,5.2-1.6,7.7c-0.1,7.4,4.1,15.5,12.1,23.6c13.6,13.7,34.6,23.7,49.9,23.7c8.4,0,14.8-6.3,14.8-14.8   C97.4,67.2,87.5,46.2,73.7,32.6z M31.3,13l5.9,11.7c-0.4,0.3-0.8,0.5-1.2,0.8l-8.6-9.9L31.3,13z M14.6,10.1l16.8,19.2   c-0.3,0.3-0.7,0.6-1,1c-0.3,0.3-0.6,0.7-1,1L10.2,14.5L14.6,10.1z M13.2,31.2l2.6-4l9.9,8.6c-0.3,0.4-0.5,0.8-0.8,1.2L13.2,31.2z    M82.7,91.4c-13.7,0-33.4-9.4-45.7-21.9c-6.8-6.8-10.4-13.7-10.4-19.4c0.1-4.9,3-10.6,8-15.7c5-5,10.7-7.9,15.7-8c0,0,0.1,0,0.1,0   c5.6,0,12.5,3.7,19.2,10.4c12.5,12.4,21.9,32,21.9,45.7C91.5,87.7,87.9,91.4,82.7,91.4z"
   id="path2" />
	<path
   fill="#2C3136"
   d="M79.4,77.9c0.7-1.5,0.1-3.2-1.3-4c-1.5-0.7-3.2-0.1-4,1.3l-2.6,5.2c-5.3-1.7-11-4.4-16.2-7.7l5.8-5.8   c1.2-1.2,1.2-3,0-4.2c-1.2-1.2-3-1.2-4.2,0l-5.9,5.9c-0.2,0.2-0.4,0.5-0.5,0.8c-2.6-2-5.1-4-7.3-6.2c-1.6-1.6-2.9-3.1-3.9-4.5   c0.4-0.1,0.8-0.4,1.1-0.7l5.9-5.9c1.2-1.2,1.2-3,0-4.2c-1.2-1.2-3-1.2-4.2,0l-5.8,5.8c-0.7-1.5-0.9-2.7-0.9-3.6   c0-2.5,2.1-6.2,5.4-9.5c1.2-1.2,1.2-3,0-4.2c-1.2-1.2-3-1.2-4.2,0c-4.5,4.5-7.1,9.4-7.1,13.6c-0.1,4.8,3.4,11.1,9.5,17.3   c11.7,11.8,30.8,21,43.6,21c1.6,0,3-1.3,3-3s-1.3-3-3-3c-1.6,0-3.4-0.2-5.3-0.5L79.4,77.9z"
   id="path4" />
	<path
   fill="#2C3136"
   d="M57,52.1c0.6,0.6,1.3,0.9,2.1,0.9c0.8,0,1.5-0.3,2.1-0.9l5.9-5.9c1.2-1.2,1.2-3,0-4.2c-1.2-1.2-3-1.2-4.2,0   L57,48C55.8,49.1,55.8,51,57,52.1z"
   id="path6" />
	<path
   fill="#2C3136"
   d="M73.8,61.8c0.8,0,1.5-0.3,2.1-0.9l3-3c1.2-1.2,1.2-3,0-4.2c-1.2-1.2-3-1.2-4.2,0l-3,3c-1.2,1.2-1.2,3,0,4.2   C72.3,61.6,73,61.8,73.8,61.8z"
   id="path8" />
	<path
   fill="#2C3136"
   d="M50.2,38.2c0.8,0,1.5-0.3,2.1-0.9l3-3c1.2-1.2,1.2-3,0-4.2c-1.2-1.2-3-1.2-4.2,0l-3,3c-1.2,1.2-1.2,3,0,4.2   C48.7,37.9,49.4,38.2,50.2,38.2z"
   id="path10" />
</g>
<path
   style="fill:#d4aa00;stroke:#ffffff;stroke-width:0.117647"
   d="M 77.968658,97.058666 C 55.223449,94.294051 27.618109,74.747096 21.893936,57.352941 21.106464,54.960035 20.812581,53.40086 20.736774,51.213706 c -0.09085,-2.621081 0.248399,-4.952168 1.099081,-7.552201 0.219692,-0.671467 0.399439,-1.242871 0.399439,-1.269786 0,-0.02692 -3.36176,-1.722181 -7.470578,-3.767257 C 6.9423594,34.731052 6.6633625,34.56686 6.2232146,33.597744 5.9693084,33.038692 5.9299175,31.933114 6.1465752,31.446712 6.2271914,31.265726 7.4220753,29.405195 8.8018725,27.312198 10.18167,25.2192 11.286071,23.44284 11.256097,23.364731 11.226124,23.286621 10.600358,22.692629 9.8655059,22.044752 9.1306541,21.396873 7.4039161,19.874564 6.0283102,18.661844 4.3897218,17.217279 3.4475214,16.300696 3.2961328,16.003949 2.9409064,15.307648 2.88887,14.711699 3.1147461,13.926607 3.3106656,13.245637 3.3869845,13.161752 8.2156442,8.3199914 11.655279,4.8710241 13.271998,3.3299077 13.635046,3.1540153 c 0.719733,-0.3487024 1.669613,-0.3466145 2.391833,0.00526 0.460596,0.2244062 1.126674,0.9322313 3.872019,4.114702 1.82365,2.1140198 3.353982,3.8878647 3.400737,3.9418777 0.04676,0.05401 1.768663,-1.025069 3.82646,-2.3979593 2.057798,-1.3728896 3.956547,-2.5938602 4.219443,-2.7132678 0.559727,-0.2542289 1.469761,-0.2778579 2.095877,-0.054419 1.081273,0.3858683 0.996453,0.2454493 5.090746,8.4276781 2.102568,4.201869 3.857453,7.639763 3.899745,7.639763 0.04229,0 0.716826,-0.20808 1.498965,-0.462399 2.168409,-0.705079 3.519777,-0.953276 5.614256,-1.031139 2.824628,-0.105005 4.859133,0.2103 7.925461,1.228284 1.884937,0.625776 5.094205,2.181609 7.050196,3.417891 6.753,4.268223 13.950556,11.681235 19.613195,20.200304 7.397239,11.12866 12.057057,23.185916 13.052487,33.773228 0.198088,2.106864 0.08117,5.592072 -0.229006,6.826308 -0.711784,2.832305 -1.779716,4.831161 -3.602408,6.742645 -2.008407,2.106246 -4.227324,3.368239 -7.296228,4.149675 -1.403806,0.357451 -5.536565,0.406604 -8.090166,0.09622 z m 7.078495,-5.885477 c 3.082555,-0.738965 5.252854,-2.840423 6.157751,-5.962425 0.239918,-0.82775 0.264855,-1.156244 0.257127,-3.387235 -0.0095,-2.73134 -0.152727,-4.008891 -0.819312,-7.306098 C 88.131569,62.096218 80.1386,47.507738 70.354,37.487192 63.601095,30.571446 56.904784,26.697766 51.176471,26.393379 c -2.958938,-0.15723 -6.214509,0.69563 -9.384438,2.458434 -7.178385,3.991916 -13.087937,11.193643 -14.822678,18.063785 -0.287946,1.140361 -0.318256,1.463274 -0.317121,3.37852 0.0014,2.344068 0.144467,3.166118 0.962392,5.529411 3.427123,9.90225 15.857098,21.575843 30.821459,28.945932 8.559642,4.215705 17.034894,6.588032 23.681562,6.62876 1.569998,0.0096 2.130159,-0.03341 2.929506,-0.225032 z M 25.363769,36.418733 25.788766,35.778642 25.394382,35.435359 c -6.902709,-6.008335 -9.517388,-8.258345 -9.594077,-8.255995 -0.11588,0.0036 -2.532814,3.738655 -2.551569,3.943169 -0.01095,0.119401 11.30929,5.903773 11.603004,5.928858 0.04787,0.0041 0.278281,-0.280609 0.512029,-0.632658 z m 5.156876,-6.133688 0.923514,-1.009072 -0.222079,-0.285602 c -0.122145,-0.157082 -3.901492,-4.490536 -8.398551,-9.629897 l -8.17647,-9.344294 -2.260368,2.251151 c -1.243202,1.238132 -2.231758,2.28008 -2.196791,2.315438 0.739702,0.747992 19.099818,16.700162 19.226313,16.704765 0.09951,0.0036 0.5965,-0.447499 1.104432,-1.002489 z m 6.113402,-5.122644 c 0.330686,-0.201856 0.618242,-0.382087 0.639015,-0.400513 0.03131,-0.02777 -5.817915,-11.661409 -5.937649,-11.80951 -0.02117,-0.02619 -0.937635,0.549709 -2.036578,1.279782 -1.983733,1.317875 -1.996622,1.329234 -1.795515,1.582211 0.498101,0.626569 8.426682,9.715041 8.475186,9.715041 0.02986,0 0.324855,-0.165156 0.655541,-0.367011 z"
   id="path844" /><path
   style="fill:#d4aa00;stroke:#ffffff;stroke-width:0.117647"
   d="M 80.470588,88.158179 C 75.910469,87.721184 71.885612,86.766759 67.088221,84.984787 51.510878,79.198642 36.955411,67.843365 31.593661,57.294118 c -1.418308,-2.790522 -1.997147,-4.889073 -1.995697,-7.235294 0.0014,-2.217263 0.477807,-3.990258 1.752639,-6.522218 1.061666,-2.108587 2.902021,-4.61066 4.821358,-6.554926 0.944787,-0.957057 1.140997,-1.099637 1.759965,-1.278915 0.592293,-0.171551 0.790934,-0.180668 1.326242,-0.06087 1.226543,0.274488 2.224438,1.386939 2.351896,2.621888 0.09685,0.938392 -0.268171,1.656001 -1.529676,3.007238 -2.288636,2.451428 -3.949434,5.110359 -4.496934,7.199568 -0.376209,1.435579 -0.209387,3.218184 0.44369,4.741119 l 0.242137,0.564648 3.130065,-3.101575 C 41.294061,48.797311 42.71514,47.483307 43,47.345426 c 0.319619,-0.154705 0.719038,-0.227677 1.245032,-0.227462 0.655952,2.7e-4 0.862335,0.05465 1.348879,0.355462 0.75556,0.467127 1.294881,1.191425 1.470077,1.974289 0.119728,0.535001 0.110654,0.734287 -0.06039,1.326241 -0.196001,0.678339 -0.291076,0.786818 -3.620689,4.131093 -1.880672,1.888953 -3.570017,3.496847 -3.754099,3.573097 -0.184083,0.07625 -0.333422,0.198389 -0.331864,0.271421 0.0099,0.462726 3.873544,4.633172 6.114815,6.600326 1.562407,1.371318 4.917368,4.061872 5.064913,4.061872 0.06136,0 0.111557,-0.06228 0.111557,-0.138399 0,-0.07612 1.495136,-1.639518 3.322524,-3.47422 2.426049,-2.43576 3.479808,-3.4142 3.905452,-3.626307 1.841042,-0.91743 4.071525,0.519241 4.063558,2.617368 -0.0045,1.187208 -0.196021,1.447394 -3.53275,4.799528 -1.679095,1.686849 -3.052901,3.100237 -3.052901,3.140865 0,0.105088 3.051993,1.905101 5,2.948913 1.827283,0.979122 5.10291,2.506948 7,3.264954 1.150658,0.45976 4.072487,1.526121 4.181571,1.526121 0.0267,0 0.685325,-1.266732 1.463602,-2.81496 1.168275,-2.324053 1.501571,-2.889021 1.91119,-3.23964 0.616559,-0.527752 1.566884,-0.824246 2.314445,-0.722092 1.565439,0.213919 2.768322,1.98692 2.383714,3.5135 -0.06907,0.274168 -0.604599,1.385146 -1.190055,2.468842 -0.585457,1.083695 -1.064467,2.017311 -1.064467,2.074701 0,0.181866 3.400951,0.592912 4.955796,0.598967 1.357438,0.0053 2.300324,0.496198 2.894521,1.507022 0.27813,0.47314 0.326153,0.684758 0.326153,1.43719 0,0.752431 -0.04802,0.964049 -0.326153,1.437189 -0.646374,1.099587 -1.536417,1.514139 -3.188639,1.485159 -0.590394,-0.01035 -1.258737,-0.03659 -1.485208,-0.05829 z"
   id="path846" /><path
   style="fill:#d4aa00;stroke:#ffffff;stroke-width:0.117647"
   d="m 48.967037,37.814382 c -1.375249,-0.685315 -2.047118,-2.338121 -1.491251,-3.668497 0.241936,-0.579035 3.94711,-4.308626 4.589227,-4.619469 0.30081,-0.14562 0.718418,-0.231334 1.11919,-0.229715 2.067854,0.0084 3.515948,2.159919 2.690433,3.997417 -0.342032,0.761321 -3.729063,4.16254 -4.521695,4.540635 -0.800028,0.381623 -1.59279,0.374855 -2.385904,-0.02037 z"
   id="path848" /><path
   style="fill:#d4aa00;stroke:#ffffff;stroke-width:0.117647"
   d="m 58.205643,52.773323 c -1.663164,-0.593525 -2.494899,-2.452792 -1.748708,-3.90908 0.104568,-0.204078 1.661382,-1.881291 3.459587,-3.727141 3.579479,-3.674321 3.949713,-3.962947 5.077166,-3.958048 1.566602,0.0068 2.892021,1.34104 2.886081,2.90527 -0.0046,1.212875 -0.167302,1.428279 -3.855966,5.105182 -2.971654,2.962178 -3.446297,3.389111 -3.956525,3.558824 -0.693207,0.230575 -1.264082,0.238238 -1.861635,0.02499 z"
   id="path850" /><path
   style="fill:#ffb380;stroke:#ffffff;stroke-width:0.117647"
   d="m 72.889156,61.596184 c -0.656515,-0.243813 -1.009547,-0.530454 -1.44638,-1.174377 -0.680619,-1.003279 -0.753433,-1.801959 -0.258983,-2.840714 0.137663,-0.289208 1.006366,-1.248232 2.201355,-2.430235 1.836392,-1.816438 2.021184,-1.966235 2.65168,-2.149525 0.828497,-0.240851 1.351887,-0.168971 2.169413,0.297937 1.333641,0.761674 1.889706,2.401246 1.249326,3.683668 -0.26294,0.526562 -3.894555,4.163057 -4.441167,4.447136 -0.60084,0.31226 -1.535081,0.385281 -2.125244,0.16611 z"
   id="path852" /><path
   style="fill:#ffb380;stroke:#ffffff;stroke-width:0.117647"
   d="M 79.764706,97.104753 C 69.716811,96.39598 56.817509,91.427811 45.647059,83.964333 35.482688,77.173062 27.53996,68.940845 23.661712,61.177684 21.605315,57.061356 20.669404,53.188738 20.860844,49.588235 c 0.114065,-2.145281 0.395834,-3.634316 1.143921,-6.04518 0.188414,-0.607202 0.314884,-1.148802 0.281047,-1.203554 -0.03384,-0.05475 -3.169343,-1.661168 -6.967786,-3.569814 C 11.519582,36.861042 8.0342239,35.053827 7.5727851,34.753654 6.5791096,34.107254 6.2399318,33.591328 6.1489376,32.587828 6.0710924,31.729336 6.0603271,31.750835 8.2474138,28.397225 9.1705661,26.981693 10.26151,25.271913 10.671733,24.597714 L 11.417593,23.3719 11.09115,23.025354 C 10.911606,22.834753 9.4412948,21.506959 7.8237924,20.074698 3.6781062,16.403791 3.3616642,16.08022 3.1835356,15.329911 3.060113,14.810033 3.067579,14.616556 3.2334732,14.035793 3.4252918,13.364276 3.5109826,13.270504 8.3960013,8.3864386 11.730161,5.0529293 13.505559,3.3605688 13.795605,3.2393798 c 0.53384,-0.2230525 1.497064,-0.2334753 2.003951,-0.021684 0.527763,0.220513 1.208286,0.9361265 4.519839,4.7528926 1.585984,1.8279412 2.939161,3.3235296 3.007063,3.3235296 0.199409,0 1.012801,-0.50309 4.438248,-2.745097 1.779412,-1.1646515 3.469329,-2.2211037 3.755373,-2.3476714 0.386312,-0.1709343 0.675682,-0.2140634 1.125059,-0.1676836 1.044334,0.1077847 1.41196,0.3349958 1.980706,1.2241722 0.517017,0.8083058 2.453103,4.5536458 5.705004,11.0362798 0.973758,1.941176 1.842356,3.625814 1.930216,3.743638 0.152315,0.204259 0.24164,0.189442 1.91993,-0.318483 2.683299,-0.812085 3.513391,-0.938834 6.171947,-0.942414 2.742393,-0.0037 3.981585,0.201797 6.796097,1.126979 2.046886,0.672847 5.720973,2.439211 7.553031,3.631215 9.629958,6.265601 19.391715,18.073575 25.557517,30.914778 4.857946,10.117396 7.41605,20.509568 6.813114,27.67793 -0.208628,2.480392 -0.885873,4.486724 -2.211945,6.552865 -0.718766,1.119903 -2.330583,2.842715 -3.447415,3.684815 -1.502119,1.13261 -4.131886,2.278308 -5.911464,2.575421 -0.780994,0.130393 -4.646597,0.240819 -5.73717,0.163891 z m 4.842592,-5.741105 c 2.767827,-0.531459 4.901777,-2.112386 6.041871,-4.476092 0.797459,-1.653334 0.880243,-2.127855 0.880243,-5.045571 0,-2.706698 -0.137081,-4.122149 -0.651226,-6.724338 C 88.65552,63.868302 82.540125,51.614707 74.049139,41.396799 72.071067,39.01642 67.559872,34.515696 65.529412,32.896848 60.54472,28.922646 56.041041,26.771542 51.794118,26.336427 47.348539,25.88096 42.373228,27.722669 37.377299,31.6731 c -1.513974,1.197145 -4.24419,3.921221 -5.408348,5.396189 -2.503372,3.171724 -4.34371,6.710444 -5.088432,9.784359 -0.255806,1.055866 -0.291998,1.469566 -0.292132,3.339238 -2.35e-4,2.486542 0.141332,3.40248 0.838127,5.424913 1.203841,3.494125 3.28764,6.967853 6.439732,10.735142 1.378167,1.647145 4.764059,5.064697 6.604342,6.666095 11.704584,10.185226 27.574597,17.540852 39.764706,18.430625 1.462228,0.106731 3.58578,0.06495 4.372004,-0.08601 z M 25.440584,36.520549 c 0.242321,-0.318655 0.44085,-0.636025 0.441176,-0.705269 8.49e-4,-0.180414 -9.895724,-8.756456 -10.104766,-8.756456 -0.05621,0 -0.575359,0.727941 -1.153673,1.617647 -1.40539,2.162116 -1.44685,2.23144 -1.44685,2.419174 0,0.188226 1.604229,1.054079 7.38969,3.988446 2.284919,1.158902 4.217272,2.086561 4.294118,2.061463 0.07685,-0.0251 0.337983,-0.306349 0.580305,-0.625005 z m 5.125429,-6.11577 c 0.537879,-0.553844 0.961449,-1.079594 0.941268,-1.168338 -0.02018,-0.08874 -0.883143,-1.131187 -1.917694,-2.316542 -1.034551,-1.185357 -4.812536,-5.510863 -8.395525,-9.612237 L 14.679538,9.8506189 12.381443,12.148714 c -1.593187,1.593187 -2.276741,2.353741 -2.228479,2.479511 0.0705,0.18371 4.91089,4.44905 12.847036,11.32077 5.577995,4.829853 6.327638,5.462743 6.470496,5.462758 0.06466,6e-6 0.557638,-0.453132 1.095517,-1.006974 z m 6.093651,-5.117873 c 0.346215,-0.198085 0.657549,-0.405568 0.691855,-0.461075 0.0343,-0.05551 -1.274871,-2.765497 -2.909279,-6.0222 -2.545213,-5.071561 -3.004942,-5.915457 -3.203642,-5.880714 -0.293749,0.05136 -3.457653,2.130385 -3.754104,2.466845 -0.202269,0.22957 -0.2058,0.274387 -0.04087,0.518989 0.373966,0.554635 8.415873,9.738308 8.527587,9.738308 0.03244,0 0.342242,-0.16207 0.688458,-0.360153 z"
   id="path854" /><path
   style="fill:#ffb380;stroke:#ffffff;stroke-width:0.117647"
   d="M 79.882353,87.991365 C 68.428901,86.741326 54.494878,80.280526 43.470588,71.108293 c -2.11047,-1.755917 -6.226364,-5.902065 -7.718738,-7.775477 -3.162798,-3.970332 -5.149856,-7.698968 -5.801711,-10.88668 -0.242905,-1.187856 -0.243517,-3.586618 -0.0012,-4.759683 0.683639,-3.309708 3.424788,-7.826867 6.604057,-10.882875 0.65722,-0.631738 0.946547,-0.822519 1.484603,-0.978936 0.60822,-0.176814 0.723821,-0.178028 1.285944,-0.0135 1.114576,0.326222 2.008671,1.340238 2.160878,2.450708 0.105566,0.770186 -0.296227,1.553206 -1.497566,2.918485 -2.018986,2.294506 -2.962801,3.642596 -3.813855,5.447487 -0.279585,0.592934 -0.591705,1.403352 -0.693602,1.800926 -0.210615,0.821769 -0.240572,2.179652 -0.0687,3.11402 0.146739,0.797728 0.696728,2.339587 0.834543,2.339587 0.05704,0 1.335492,-1.207848 2.841006,-2.684108 3.053034,-2.993711 3.67588,-3.572525 4.061248,-3.774146 0.447297,-0.23402 1.699131,-0.183007 2.236503,0.09114 0.65671,0.335028 1.295751,1.123312 1.511063,1.863955 0.164435,0.56564 0.163033,0.680795 -0.01578,1.295892 -0.188198,0.647378 -0.327369,0.807073 -3.390701,3.890745 -1.756947,1.768611 -3.445919,3.408054 -3.753272,3.643205 -0.307353,0.235152 -0.558823,0.492942 -0.558823,0.572865 0,0.492941 4.509662,5.258652 6.882353,7.273117 1.466501,1.24509 3.664135,3.011589 4.110255,3.303898 0.246657,0.161617 0.398255,0.02711 3.779237,-3.353065 3.647604,-3.646737 4.083824,-3.997456 4.979211,-4.003267 0.747512,-0.0048 1.344779,0.261842 1.961339,0.875783 1.008483,1.0042 1.154808,2.26592 0.388972,3.354024 -0.217517,0.309048 -1.666073,1.871023 -3.219014,3.471056 -1.552942,1.600033 -2.82353,2.969846 -2.82353,3.044028 0,0.158806 2.488559,1.672327 4.82353,2.933633 2.88984,1.561036 7.10775,3.421547 10.185898,4.49298 1.158113,0.403113 1.229069,0.414131 1.376247,0.213704 0.08535,-0.116226 0.721723,-1.319051 1.414165,-2.672941 1.48458,-2.902717 1.931012,-3.4644 2.998613,-3.772737 0.444928,-0.1285 0.843362,-0.169161 1.149986,-0.117358 1.201568,0.203004 2.284332,1.514111 2.281426,2.762557 -0.0014,0.588527 -0.108517,0.855493 -1.167775,2.909619 -0.641446,1.2439 -1.133713,2.294189 -1.093926,2.333976 0.202089,0.20209 3.545817,0.635774 4.922248,0.63842 1.968543,0.0038 3.189173,1.08495 3.189173,2.82479 0,1.215708 -0.555139,2.092297 -1.608997,2.540678 -0.568981,0.242083 -2.36584,0.315662 -3.823529,0.156569 z"
   id="path856" /><path
   style="fill:#ffb380;stroke:#ffffff;stroke-width:0.117647"
   d="m 58.058824,52.54999 c -0.695725,-0.338121 -1.270539,-0.910427 -1.52345,-1.5168 -0.257063,-0.61633 -0.235165,-1.592324 0.04608,-2.053563 0.619067,-1.01528 6.605056,-7.035201 7.397585,-7.439519 0.633527,-0.323201 1.348377,-0.311379 2.07979,0.0344 1.439408,0.680481 2.080097,2.267 1.451471,3.594233 -0.29941,0.632151 -6.613914,7.032505 -7.258827,7.357515 -0.680516,0.342954 -1.517181,0.352011 -2.192644,0.02374 z"
   id="path858" /><path
   style="fill:#d45500;stroke:#ffffff;stroke-width:0.117647"
   d="m 49.112839,37.721545 c -1.338422,-0.623251 -2.039056,-2.214317 -1.521035,-3.454113 0.111376,-0.266562 0.97508,-1.223786 2.264705,-2.509927 2.269661,-2.263526 2.527566,-2.430562 3.563406,-2.307882 1.819299,0.21547 3.056,2.099418 2.375795,3.619207 -0.457477,1.022145 -3.651998,4.238324 -4.678063,4.709778 -0.637004,0.292689 -1.29387,0.273992 -2.004808,-0.05706 z"
   id="path860" /><path
   style="fill:#d45500;stroke:#ffffff;stroke-width:0.117647"
   d="M 80.411765,87.928813 C 68.946627,86.800225 54.709273,80.274087 43.588235,71.049595 c -1.656166,-1.373728 -6.511521,-6.268951 -7.75066,-7.814301 -3.035182,-3.785223 -5.265878,-8.019007 -5.780792,-10.971742 -0.487686,-2.796597 -0.08174,-5.246293 1.359766,-8.205611 1.701499,-3.49306 5.13039,-7.639416 6.703974,-8.10672 0.517914,-0.153804 0.653944,-0.153465 1.180605,0.0029 1.013641,0.301019 1.85528,1.250974 2.055928,2.320518 0.121053,0.645271 -0.423675,1.638843 -1.719916,3.13709 -1.964671,2.270843 -2.942645,3.734349 -3.755744,5.620349 -0.566098,1.313078 -0.759141,2.358568 -0.666116,3.607588 C 35.312629,51.946785 35.930877,54 36.227107,54 c 0.06681,0 1.459213,-1.288484 3.094238,-2.863298 3.848817,-3.707081 3.750866,-3.624442 4.380102,-3.695366 1.036884,-0.116871 1.558139,0.04941 2.240414,0.714696 0.834578,0.813795 1.074853,1.5469 0.804914,2.45588 -0.157427,0.530115 -0.383469,0.817123 -1.690991,2.147059 -1.980268,2.014213 -5.125109,5.117604 -5.639662,5.565329 -0.367586,0.319846 -0.39427,0.383332 -0.27299,0.649511 0.413238,0.906958 4.977842,5.591711 7.538884,7.737321 2.961817,2.481374 3.51211,2.875066 3.820092,2.732979 0.14443,-0.06663 1.756347,-1.583522 3.58204,-3.370865 1.825694,-1.787344 3.569883,-3.408539 3.875974,-3.602657 0.908651,-0.576249 1.781137,-0.44572 2.725893,0.407811 0.904696,0.817338 1.178807,1.86612 0.740137,2.831838 -0.121945,0.268454 -1.054288,1.362073 -2.144476,2.515421 -3.649803,3.861257 -4.105205,4.363559 -4.105205,4.527976 0,0.321023 3.553589,2.426478 6.764705,4.007999 3.666351,1.805732 8.815835,3.87928 9.445685,3.803505 0.256679,-0.03088 0.47825,-0.377514 1.633251,-2.555131 0.734957,-1.385673 1.525377,-2.750166 1.756489,-3.032208 0.77733,-0.948628 1.879377,-1.284655 2.83167,-0.863411 0.720311,0.318629 1.050713,0.630077 1.403375,1.322877 0.529956,1.041092 0.441602,1.472039 -0.835572,4.075461 -0.614488,1.252588 -1.11725,2.299486 -1.11725,2.326441 0,0.206807 2.231005,0.556303 4.723105,0.739892 1.610019,0.118607 2.12442,0.291255 2.71183,0.910166 0.761339,0.802167 0.904132,2.06006 0.353501,3.114086 -0.272475,0.521579 -0.439741,0.685653 -0.970588,0.952073 -0.53817,0.270095 -0.830692,0.329766 -1.817848,0.370822 -0.647059,0.02691 -1.388236,0.02808 -1.647059,0.0026 z"
   id="path862" /><path
   style="fill:#d45500;stroke:#ffffff;stroke-width:0.117647"
   d="M 72.954762,61.470457 C 72.329178,61.275367 71.718192,60.712264 71.359266,60 c -0.408291,-0.810226 -0.448672,-1.128704 -0.235911,-1.860577 0.17685,-0.608342 0.345241,-0.81648 2.093307,-2.587418 1.045542,-1.059222 2.129994,-2.060886 2.409894,-2.22592 1.856092,-1.094384 4.403277,0.907207 3.897465,3.06265 -0.134841,0.574606 -0.274802,0.742729 -2.333732,2.803325 -2.102225,2.103926 -2.215355,2.197347 -2.813727,2.32353 -0.750853,0.158338 -0.771437,0.157684 -1.4218,-0.04513 z"
   id="path864" /><path
   style="fill:#d45500;stroke:#ffffff;stroke-width:0.117647"
   d="m 58.44567,52.565452 c -0.571891,-0.152064 -1.482021,-0.961955 -1.754085,-1.560898 -0.33583,-0.739321 -0.287789,-1.440765 0.145784,-2.12858 0.497941,-0.789926 6.749253,-7.014393 7.298058,-7.266717 0.585634,-0.269257 1.107968,-0.246315 1.805749,0.07931 1.030083,0.4807 1.703287,1.459843 1.705227,2.480167 0.0015,0.794312 -0.456638,1.359151 -3.934516,4.850771 -3.882241,3.89758 -3.899656,3.909306 -5.266217,3.545943 z"
   id="path866" /><path
   style="fill:#d45500;stroke:#ffffff;stroke-width:0.117647"
   d="M 79.588235,96.979526 C 68.138547,96.012536 53.800328,90.012233 42.058206,81.273839 37.680985,78.016346 32.95308,73.687722 30.001442,70.235294 25.128553,64.535646 22.174441,58.959659 21.213129,53.647059 c -0.143387,-0.792419 -0.2014,-1.733868 -0.199362,-3.235294 0.0033,-2.441197 0.170521,-3.588569 0.888324,-6.095656 0.255898,-0.893785 0.44879,-1.740757 0.428649,-1.882158 C 22.300656,42.22276 21.180126,41.609682 16.054811,39.000193 7.6509425,34.721471 7.4778116,34.627378 6.9447219,34.049044 6.2022145,33.243518 6.0438575,32.277396 6.5104972,31.399875 6.6618588,31.115238 7.5535899,29.691176 8.4921216,28.235294 9.4306534,26.779412 10.500864,25.099065 10.870367,24.501189 11.525155,23.441707 11.537062,23.407401 11.339923,23.148248 11.228676,23.002006 10.161205,22.008824 8.9677654,20.941176 3.3059467,15.876133 3.2372265,15.802135 3.2519085,14.786416 3.2568062,14.447588 3.3526407,13.986445 3.4648742,13.761653 3.768885,13.152752 13.385667,3.577466 13.915559,3.3560629 c 0.543583,-0.2271234 1.266528,-0.2295591 1.801415,-0.00607 0.527087,0.2202311 1.128501,0.8397106 4.15089,4.275579 1.347991,1.5324057 2.667287,3.0244271 2.931767,3.3156031 l 0.48087,0.529412 0.588351,-0.319758 c 0.323592,-0.175867 2.075755,-1.2782758 3.893696,-2.449798 3.883548,-2.5026459 4.147588,-2.6364229 4.994696,-2.5305839 0.818661,0.102285 1.281287,0.4071869 1.764892,1.163184 C 34.883152,7.8979894 38.105154,14.125111 41.075899,20 c 0.966228,1.910795 1.137686,2.180785 1.404615,2.211816 0.167224,0.01944 1.120165,-0.200871 2.117647,-0.489582 2.521537,-0.729832 3.262706,-0.817149 6.367687,-0.750178 2.317327,0.04998 2.759245,0.09168 3.798858,0.358452 2.116352,0.54307 3.959363,1.250913 6.470588,2.485151 4.28649,2.106759 7.647579,4.595937 11.981088,8.873036 2.19787,2.169259 3.570207,3.649126 5.252672,5.664246 8.324986,9.97099 14.642415,22.359818 17.34189,34.008412 1.193989,5.152221 1.53282,10.159673 0.904789,13.371525 -0.549442,2.809936 -1.599531,4.764549 -3.763733,7.005738 -1.374073,1.422955 -2.258632,2.060376 -4.030553,2.904455 -2.009288,0.957153 -2.967086,1.181077 -5.568506,1.301869 -2.23161,0.103621 -2.877081,0.109551 -3.764706,0.03459 z m 5.82031,-5.690533 c 2.764204,-0.771947 4.879536,-2.77978 5.859333,-5.561567 0.265966,-0.755118 0.303581,-1.077778 0.353369,-3.031182 0.09013,-3.536362 -0.247211,-6.28025 -1.286113,-10.46095 -2.567373,-10.331493 -8.501689,-21.663787 -16.171985,-30.882353 -1.488211,-1.78861 -6.448384,-6.797572 -8.006237,-8.084987 -3.642219,-3.00994 -7.164019,-5.087199 -10.503163,-6.195065 -3.549695,-1.177724 -6.825291,-1.178887 -10.388929,-0.0037 -2.360621,0.778474 -5.714228,2.69048 -8.041874,4.584946 -1.336888,1.088091 -3.805935,3.516807 -4.896424,4.816441 -2.773449,3.305376 -5.072263,7.758823 -5.687824,11.01891 -0.271452,1.437644 -0.177027,5.072487 0.1676,6.451679 0.953973,3.817776 3.330175,8.103482 6.816455,12.294117 1.497858,1.80048 5.823592,6.106301 7.730188,7.694606 10.390601,8.655966 23.255784,15.011841 34.529412,17.058802 1.412835,0.25653 2.848645,0.445362 4.470588,0.587955 0.291177,0.0256 1.35,0.02659 2.352941,0.0022 1.384187,-0.03366 2.035339,-0.103498 2.702663,-0.289859 z M 25.71114,36.345354 c 0.205407,-0.296402 0.276431,-0.504387 0.211007,-0.617912 -0.275533,-0.47811 -9.884468,-8.786266 -10.161901,-8.786266 -0.143986,0 -2.701422,3.858973 -2.701422,4.076236 0,0.0809 0.172058,0.275764 0.382352,0.43304 0.6398,0.478497 8.63927,4.602633 10.558557,5.443476 l 0.882087,0.386444 0.259847,-0.244114 c 0.142917,-0.134263 0.399179,-0.44517 0.569473,-0.690904 z m 4.708254,-5.668883 c 1.317288,-1.361458 1.293239,-1.323576 1.063168,-1.674706 C 31.375034,28.837654 30.403894,27.685442 29.324474,26.441294 26.167016,22.801981 15.16602,10.19813 14.924668,9.9434227 14.706325,9.7129984 14.679923,9.7341882 12.579308,11.825776 c -1.168492,1.16347 -2.23659,2.269596 -2.37355,2.458057 l -0.24902,0.342657 0.733219,0.689176 c 1.376778,1.294075 14.82659,13.008629 17.77305,15.480018 0.481124,0.40355 0.932448,0.733728 1.002944,0.733728 0.0705,0 0.499544,-0.383824 0.953443,-0.852941 z m 6.291693,-5.294791 c 0.39208,-0.233974 0.65528,-0.476588 0.676355,-0.623456 0.03806,-0.26523 -5.334351,-11.082288 -5.774309,-11.626257 -0.204214,-0.252491 -0.336041,-0.31889 -0.518286,-0.261047 -0.378863,0.120246 -3.354512,2.114693 -3.670068,2.459885 -0.269128,0.294404 -0.272757,0.320242 -0.08516,0.606542 0.537467,0.820279 8.460061,9.827359 8.644108,9.827359 0.04703,0 0.374345,-0.172362 0.727365,-0.383026 z"
   id="path868" /></svg>
