<?xml version="1.0" encoding="UTF-8" standalone="no"?>
<svg
   xmlns:dc="http://purl.org/dc/elements/1.1/"
   xmlns:cc="http://creativecommons.org/ns#"
   xmlns:rdf="http://www.w3.org/1999/02/22-rdf-syntax-ns#"
   xmlns:svg="http://www.w3.org/2000/svg"
   xmlns="http://www.w3.org/2000/svg"
   xmlns:sodipodi="http://sodipodi.sourceforge.net/DTD/sodipodi-0.dtd"
   xmlns:inkscape="http://www.inkscape.org/namespaces/inkscape"
   version="1.1"
   id="Layer_1"
   x="0px"
   y="0px"
   viewBox="0 0 100 100"
   enable-background="new 0 0 100 100"
   xml:space="preserve"
   sodipodi:docname="Zarzamora color.svg"
   inkscape:version="1.0.1 (3bc2e813f5, 2020-09-07)"><metadata
   id="metadata11"><rdf:RDF><cc:Work
       rdf:about=""><dc:format>image/svg+xml</dc:format><dc:type
         rdf:resource="http://purl.org/dc/dcmitype/StillImage" /><dc:title></dc:title></cc:Work></rdf:RDF></metadata><defs
   id="defs9" /><sodipodi:namedview
   pagecolor="#ffffff"
   bordercolor="#666666"
   borderopacity="1"
   objecttolerance="10"
   gridtolerance="10"
   guidetolerance="10"
   inkscape:pageopacity="0"
   inkscape:pageshadow="2"
   inkscape:window-width="1920"
   inkscape:window-height="1017"
   id="namedview7"
   showgrid="false"
   inkscape:zoom="4.34"
   inkscape:cx="52.759158"
   inkscape:cy="71.588008"
   inkscape:window-x="-8"
   inkscape:window-y="-8"
   inkscape:window-maximized="1"
   inkscape:current-layer="Layer_1" />
<g
   id="g4"
   transform="translate(-105.76037,-1.843318)">
	<path
   fill="#2c3136"
   d="m 87.9,70.3 c 3.4,-2.7 5.7,-6.9 5.7,-11.7 0,-5 -3.3,-10.2 -7.7,-13.6 1.1,-2.1 1.8,-4.4 1.8,-7 0,-8.3 -9.1,-17.4 -17.4,-17.4 -1,0 -2,0.1 -3,0.3 -3.3,-5.1 -9.2,-9.1 -14.7,-9.1 -1.3,0 -2.5,0.2 -3.7,0.5 l 0.5,-3 C 49.6,8 48.9,6.6 47.7,6.1 46.4,5.6 45,6 44.2,7 L 38.5,14.6 34.6,4.7 C 34,3.7 32.9,3 31.7,3 30.5,3 29.4,3.8 29,5 L 24.1,19.6 C 17.4,16.2 12.4,9.2 11,5 10.5,3.5 8.8,2.6 7.3,3.1 5.7,3.7 4.9,5.3 5.4,6.9 7.3,12.5 12.5,19.4 19.2,23.6 L 6.9,29.8 c -1,0.5 -1.6,1.4 -1.6,2.5 0,1.1 0.5,2.1 1.4,2.6 L 17.2,41.2 6.7,47.6 C 5.5,48.3 5,49.8 5.5,51.1 6,52.4 7.4,53.2 8.7,53 l 3,-0.5 c -0.3,1.2 -0.5,2.4 -0.5,3.7 0,5.5 4,11.3 9.1,14.7 -0.2,1 -0.3,2 -0.3,3 0,8.3 9.1,17.4 17.4,17.4 1.7,0 3.3,-0.3 4.8,-0.9 3.4,3.9 8.3,6.7 12.9,6.7 4.7,0 8.9,-2.2 11.7,-5.7 3.3,3.4 7.7,5.7 11.9,5.7 8.3,0 15,-6.7 15,-15 C 93.6,78 91.2,73.6 87.9,70.3 Z m -9.3,21 c -3.3,0 -7.2,-2.8 -9.5,-6.1 6.4,-1 11.5,-6 12.5,-12.5 3.3,2.3 6.1,6.2 6.1,9.5 0,5 -4.1,9.1 -9.1,9.1 z m -23.6,0 c -2.5,0 -5.4,-1.6 -7.7,-3.9 2.6,-2.3 4.3,-5.5 4.8,-9.1 0.4,-0.2 0.7,-0.4 1,-0.6 2.3,3 5.5,5.5 8.9,6.8 0.3,0.7 0.6,1.3 0.9,2 -1.4,2.8 -4.4,4.8 -7.9,4.8 z m -29.1,-18 c 0.9,0.2 1.7,0.3 2.6,0.3 1.7,0 3.3,-0.3 4.8,-0.9 3.3,3.8 8,6.6 12.5,6.7 -1.3,3.4 -4.6,5.9 -8.5,5.9 -5.1,0 -11.5,-6.5 -11.5,-11.5 0.1,-0.1 0.1,-0.3 0.1,-0.5 z m -1.6,-26 c 2.4,5.4 7.8,10.1 13.3,11.3 0,0 0,0 0,0.1 0,5 -4.1,9.1 -9.1,9.1 -5.1,0 -11.5,-6.5 -11.5,-11.5 0,-4.4 3.2,-8.1 7.3,-9 z m 2.9,-21.1 c 0.1,0 0.1,-0.1 0.1,-0.1 0.2,-0.1 0.4,-0.3 0.6,-0.5 0.1,-0.1 0.2,-0.1 0.2,-0.2 0.2,-0.3 0.4,-0.6 0.5,-0.9 l 3.3,-10 2.9,7.3 c 0.4,1 1.3,1.7 2.3,1.8 0.3,0 0.5,0 0.8,0 -0.2,1 -0.3,2 -0.3,3 -7,0.1 -12.8,5 -14.3,11.5 l -9,-5.4 z m 48.3,20.5 c -1,-3.9 -3.8,-7.8 -7.3,-10.5 1.1,-2.1 1.8,-4.4 1.8,-7 0,-0.9 -0.1,-1.7 -0.3,-2.6 0.2,0 0.4,-0.1 0.6,-0.1 5.1,0 11.5,6.5 11.5,11.5 0,4.1 -2.7,7.5 -6.3,8.7 z m 7.4,19.9 c -0.7,-0.3 -1.3,-0.7 -2,-0.9 -1.3,-3.4 -3.8,-6.6 -6.8,-8.9 0.7,-1.3 1.2,-2.6 1.5,-4.1 2.5,-0.5 4.7,-1.6 6.5,-3.2 3.1,2.3 5.5,6 5.5,9.1 0.1,3.5 -1.9,6.5 -4.7,8 z M 66.8,79.5 c -3.1,0 -6.7,-2.5 -9.1,-5.5 2.1,-2.5 3.4,-5.7 3.4,-9.2 3.5,-0.1 6.7,-1.4 9.2,-3.4 3.1,2.3 5.5,6 5.5,9.1 0.1,4.9 -4,9 -9,9 z M 46.2,73.6 c -2.5,0 -5.4,-1.6 -7.7,-3.9 3,-2.7 5,-6.7 5,-11.1 0,0 0,-0.1 0,-0.1 1.3,-0.3 2.6,-0.8 3.8,-1.4 2.1,2.7 4.9,5 7.9,6.3 0.1,0.4 0.2,0.7 0.2,1.1 -0.1,5.1 -4.2,9.1 -9.2,9.1 z M 28.8,41.5 c 0,-5 4.1,-9.1 9.1,-9.1 5.1,0 11.5,6.5 11.5,11.5 0,5 -4.1,9.1 -9.1,9.1 -5,0 -11.5,-6.4 -11.5,-11.5 z m 35.7,-0.8 c 3.1,2.3 5.5,6 5.5,9.1 0,5 -4.1,9.1 -9.1,9.1 -3.1,0 -6.7,-2.5 -9.1,-5.5 2.1,-2.5 3.4,-5.7 3.4,-9.2 3.6,-0.1 6.8,-1.4 9.3,-3.5 z M 64.1,29.2 c 0,5 -4.1,9.1 -9.1,9.1 -0.4,0 -0.7,-0.1 -1.1,-0.2 -2,-4.4 -5.9,-8.3 -10.2,-10.2 -0.1,-0.4 -0.2,-0.7 -0.2,-1.1 0,-5 4.1,-9.1 9.1,-9.1 5.1,0 11.5,6.5 11.5,11.5 z"
   id="path2" />
</g>
<path
   style="fill:#0055d4;stroke:#000000;stroke-width:0.115389"
   d="M 53.004609,96.711209 C 49.52896,95.956275 46.125104,93.950549 43.17345,90.918187 l -0.61457,-0.631373 -0.861948,0.27372 c -4.03341,1.280845 -8.251333,0.496034 -12.482646,-2.322595 -4.435567,-2.954689 -7.924576,-8.010455 -8.645021,-12.527111 -0.136262,-0.854267 -0.09393,-3.558423 0.07168,-4.57909 0.05792,-0.356967 0.02625,-0.426232 -0.27606,-0.603762 -0.642914,-0.377545 -2.221469,-1.71835 -3.267265,-2.775174 -2.436214,-2.461901 -4.293626,-5.566054 -5.041056,-8.424734 -0.523105,-2.000708 -0.569079,-3.685829 -0.159642,-5.851535 0.104785,-0.554258 0.16877,-1.027966 0.14219,-1.052686 -0.02658,-0.02472 -0.829437,0.08526 -1.784127,0.244403 -1.6551169,0.275899 -1.7648949,0.280834 -2.3617519,0.106182 -0.760703,-0.222598 -1.384081,-0.718708 -1.806941,-1.438042 -0.263998,-0.44909 -0.316707,-0.672969 -0.316707,-1.345205 0,-0.676938 0.05212,-0.895117 0.324524,-1.358544 0.178488,-0.303651 0.521475,-0.692476 0.762194,-0.864055 0.240719,-0.17158 2.749322,-1.711733 5.5746719,-3.422563 2.825351,-1.710829 5.139334,-3.146697 5.142184,-3.190818 0.0029,-0.04412 -2.392571,-1.517146 -5.323159,-3.27339 -3.2418669,-1.942789 -5.4964949,-3.367097 -5.7577649,-3.637333 -0.753518,-0.779378 -0.985311,-2.251407 -0.50176,-3.186491 0.362333,-0.700675 0.930176,-1.082622 3.568928,-2.400566 C 11.02339,27.926227 13.89528,26.472999 15.94138,25.428031 l 3.72018,-1.899942 -0.99705,-0.680366 C 13.314121,19.196733 8.4240241,13.337351 6.2713761,7.9980971 c -0.79047,-1.960619 -0.733658,-3.1159802 0.200519,-4.0778719 0.947959,-0.976082 2.205095,-1.2072051 3.347094,-0.6153595 0.8027559,0.4160317 1.1922579,0.9273865 1.7045419,2.2377964 1.621608,4.148034 5.302619,8.7753029 9.443151,11.8706539 1.33865,1.000737 3.420707,2.258763 3.532592,2.134471 0.04285,-0.04761 1.177831,-3.392781 2.522169,-7.433722 1.763814,-5.3018429 2.545562,-7.4986907 2.808178,-7.8914721 0.981175,-1.4674925 3.128967,-1.5925485 4.46173,-0.2597861 0.569803,0.5698037 0.479067,0.3598611 3.698366,8.5571802 0.441704,1.124712 0.838309,2.042663 0.881344,2.039894 0.04304,-0.0028 1.410756,-1.787741 3.039378,-3.966599 3.337326,-4.464857 3.439523,-4.5641376 4.786498,-4.6499065 1.20953,-0.077017 2.151948,0.4462843 2.684829,1.4908192 0.369758,0.7247855 0.387523,1.2562331 0.101561,3.0383143 -0.147115,0.916812 -0.236966,1.697448 -0.199668,1.734746 0.0373,0.0373 0.475024,-0.01876 0.972724,-0.124563 1.366121,-0.290429 3.349485,-0.344289 4.607176,-0.125111 4.355353,0.759007 8.784197,3.641548 11.882907,7.734065 0.651192,0.86004 0.932893,1.146793 1.111308,1.131245 0.131451,-0.01145 0.822692,-0.08168 1.536091,-0.156052 3.95674,-0.412495 8.450216,1.330671 12.154449,4.715106 3.068017,2.803146 5.130819,6.046956 6.052094,9.517074 0.271175,1.021423 0.306199,1.367647 0.308846,3.052995 0.0023,1.460908 -0.04694,2.114262 -0.2127,2.822581 -0.288998,1.23494 -0.720834,2.506589 -1.12367,3.308926 -0.182022,0.362537 -0.330948,0.727748 -0.330948,0.811581 0,0.08383 0.257353,0.348683 0.571896,0.588556 0.314543,0.239873 1.131075,1.01817 1.814516,1.729546 2.443279,2.543151 4.054621,5.287576 4.877863,8.307935 0.346713,1.27204 0.437097,3.955556 0.182602,5.421475 -0.545547,3.142406 -2.045123,5.937121 -4.438843,8.272542 l -1.046699,1.021206 0.730883,0.822112 c 3.298565,3.710297 5.026676,7.577352 5.026676,11.248379 0,5.716013 -3.75068,11.277408 -9.087034,13.473977 -4.033337,1.660218 -8.013581,1.546794 -11.938312,-0.340202 -1.803871,-0.867294 -3.019472,-1.705022 -4.96106,-3.418897 l -0.813595,-0.718176 -1.260137,1.242665 c -2.054202,2.02572 -4.211885,3.276709 -6.814574,3.950977 -1.173899,0.304117 -1.607909,0.357739 -3.201325,0.39552 -1.516391,0.03596 -2.027214,0.0038 -2.880184,-0.181508 z m 3.779775,-5.546504 c 0.965071,-0.149473 2.19934,-0.57255 3.01746,-1.034313 1.298715,-0.73302 2.680842,-2.103175 3.281887,-3.25346 l 0.250921,-0.480217 -0.457519,-0.979263 -0.457521,-0.979263 -1.654506,-0.832965 c -2.507572,-1.262444 -4.9423,-3.206815 -6.79702,-5.428089 l -0.514259,-0.615893 -0.541429,0.327036 c -0.297787,0.17987 -0.54143,0.412608 -0.54143,0.517197 0,0.104589 -0.155038,0.80485 -0.344529,1.556138 -0.604307,2.395936 -1.949318,4.803509 -3.696857,6.617387 -0.540584,0.561105 -0.680774,0.774296 -0.597748,0.909008 0.201537,0.326997 2.075149,1.785174 3.002398,2.33668 2.100016,1.249037 3.967303,1.662613 6.050152,1.340017 z m 24.446031,-0.158584 c 0.380184,-0.09966 1.075468,-0.362429 1.545075,-0.583932 3.285001,-1.54945 5.309764,-4.679109 5.309764,-8.207258 0,-2.506167 -1.538582,-5.510896 -4.062056,-7.932872 -0.936553,-0.898884 -1.869814,-1.652625 -2.046231,-1.652625 -0.04561,0 -0.145426,0.32402 -0.221807,0.720046 -0.385195,1.9972 -1.387079,4.183838 -2.741244,5.982841 -2.145563,2.850373 -5.392428,4.893746 -8.929814,5.619865 -0.364344,0.07479 -0.662443,0.175628 -0.662443,0.224085 0,0.04846 0.407976,0.576176 0.906613,1.172707 2.045126,2.446633 4.697877,4.207104 7.203951,4.78083 0.860852,0.197078 2.710538,0.135215 3.698192,-0.123687 z M 39.237327,85.13945 c 1.951176,-0.349465 3.661318,-1.297139 5.099403,-2.825831 0.764912,-0.813107 1.81304,-2.472569 1.81304,-2.87052 0,-0.06666 -0.168491,-0.144967 -0.374424,-0.174019 -1.833644,-0.258682 -2.36672,-0.370126 -3.386437,-0.707958 -2.747423,-0.91022 -5.416898,-2.629215 -7.737781,-4.982707 l -0.957168,-0.970616 -1.058961,0.29391 c -0.58243,0.161651 -1.366583,0.34797 -1.742563,0.414043 -0.886897,0.155859 -3.064496,0.154192 -3.914812,-0.003 -0.366343,-0.06772 -0.699885,-0.08905 -0.741206,-0.04739 -0.04132,0.04166 -0.07172,0.447007 -0.06755,0.90078 0.03308,3.600952 4.106863,8.649141 8.43304,10.450133 1.566527,0.652146 3.007368,0.814767 4.635417,0.523176 z m 30.122626,-5.953006 c 3.435651,-0.831258 6.047827,-3.578472 6.708023,-7.0548 0.454926,-2.39546 -0.215712,-4.86654 -2.022306,-7.451519 -0.603666,-0.863762 -2.857716,-3.161595 -3.2115,-3.273882 -0.176209,-0.05593 -0.490801,0.09641 -1.200086,0.581138 -2.136397,1.46001 -4.783618,2.406351 -7.384084,2.639697 l -0.892857,0.08012 v 0.662618 c 0,2.295235 -1.089736,5.398726 -2.670659,7.605849 -0.802874,1.12089 -0.839926,0.976738 0.632479,2.460713 1.677059,1.690237 3.682731,3.021575 5.430638,3.604784 1.553557,0.518365 2.893823,0.5606 4.610352,0.145284 z M 49.202765,73.205076 c 2.233163,-0.710197 3.995764,-2.06128 5.191105,-3.979126 0.967755,-1.552698 1.612328,-4.093003 1.358081,-5.352277 -0.103603,-0.513135 -0.116709,-0.524909 -1.282415,-1.152074 -0.647758,-0.348502 -1.656207,-0.970622 -2.240999,-1.382488 -1.012531,-0.713121 -3.475183,-3.027627 -4.195525,-3.943134 l -0.337792,-0.42931 -1.061363,0.457579 c -0.58375,0.251669 -1.445231,0.570515 -1.914403,0.708547 -0.952625,0.280267 -0.989039,0.335615 -0.989039,1.503313 0,0.76096 -0.391604,2.648625 -0.765185,3.688451 -0.79727,2.219125 -2.378503,4.643166 -3.934011,6.030864 l -0.312325,0.278632 0.633641,0.572536 c 1.611744,1.456317 3.696104,2.679031 5.312138,3.116173 1.166218,0.315466 3.354522,0.258716 4.538092,-0.117686 z m -18.69066,-5.578373 c 3.071225,-0.587622 5.68214,-2.724148 6.843915,-5.600416 0.361407,-0.89475 0.609469,-2.063832 0.612026,-2.884381 L 37.970046,58.5 36.904378,58.182984 c -2.88153,-0.857199 -6.469303,-3.197719 -8.620735,-5.62382 -1.408799,-1.588658 -2.877753,-3.744448 -3.395003,-4.982402 -0.0938,-0.224487 -0.212606,-0.408158 -0.264021,-0.408158 -0.19175,0 -1.711985,0.553515 -2.209783,0.804577 -2.485622,1.25362 -4.421846,3.807996 -4.95567,6.5378 -0.219526,1.12258 -0.08863,3.126756 0.270812,4.146423 0.945533,2.682305 3.199207,5.480568 5.818139,7.224061 2.474271,1.647189 4.639885,2.189911 6.963983,1.745238 z m 54.71803,-2.467783 c 2.791456,-2.633318 3.539201,-6.637503 1.901437,-10.182228 -0.801869,-1.735538 -2.326983,-3.698841 -3.850692,-4.957051 l -0.82972,-0.685145 -0.552768,0.460212 c -0.665606,0.554153 -1.574895,1.136253 -2.514654,1.609805 -0.637996,0.321491 -2.471022,0.963293 -3.169473,1.109735 -0.259597,0.05443 -0.327858,0.186638 -0.604446,1.170689 -0.171489,0.610131 -0.518062,1.549484 -0.770161,2.087449 l -0.458362,0.978119 0.370212,0.306976 c 2.6535,2.200252 4.645852,4.713047 5.953425,7.508586 l 0.511386,1.09332 1.028699,0.480207 1.028699,0.480207 0.586364,-0.360794 c 0.3225,-0.198436 0.939024,-0.693476 1.370054,-1.100087 z M 63.612044,58.571997 c 3.149195,-0.805429 5.816517,-3.56906 6.5583,-6.795098 0.764111,-3.323152 -0.453336,-6.537879 -3.697652,-9.763825 -0.780631,-0.77621 -1.470178,-1.41129 -1.532328,-1.41129 -0.06215,0 -0.517935,0.290879 -1.012857,0.646398 -2.164906,1.555127 -4.843547,2.542806 -7.495479,2.763761 l -0.950461,0.07919 v 0.596775 c 0,2.319415 -1.123161,5.509462 -2.726687,7.744443 -0.33788,0.470934 -0.614327,0.900636 -0.614327,0.954892 0,0.05426 0.398565,0.522324 0.885701,1.040153 2.215879,2.355493 4.835406,3.96004 7.151556,4.380564 0.771908,0.14015 2.401415,0.02819 3.434234,-0.235963 z M 43.327189,52.576761 c 2.998288,-0.929708 5.368376,-3.388493 6.182134,-6.413496 0.316234,-1.175541 0.34113,-3.110147 0.05378,-4.178993 -1.068492,-3.974441 -5.549119,-8.446329 -9.466753,-9.448291 -4.204314,-1.075282 -8.872994,1.493658 -10.416438,5.731643 -1.139927,3.130005 -0.58041,5.974698 1.796034,9.131395 2.260185,3.002265 5.652286,5.232393 8.374064,5.505506 1.098913,0.110268 2.48628,-0.02051 3.477179,-0.327764 z m 33.2696,-6.169113 c 3.870981,-1.6213 6.307155,-6.106541 5.424537,-9.987114 -0.804917,-3.538953 -4.145146,-7.420413 -7.899894,-9.179946 -1.202526,-0.563523 -2.191654,-0.805381 -3.302883,-0.807608 l -0.849655,-0.0017 0.07853,0.374424 c 0.548149,2.613686 0.12394,5.661696 -1.189818,8.549002 l -0.364604,0.801308 0.550736,0.462476 c 1.914825,1.607956 3.653231,3.627565 4.84588,5.629748 0.755755,1.268737 1.523914,2.977772 1.758461,3.912305 0.07554,0.300979 0.158673,0.547235 0.184742,0.547235 0.02607,0 0.369857,-0.135057 0.763972,-0.300127 z M 56.979263,38.134841 c 3.046652,-0.545669 5.708424,-2.714844 6.874816,-5.60254 0.742442,-1.838102 0.814,-4.095808 0.186879,-5.896221 -1.328475,-3.813943 -5.182839,-7.548855 -9.026491,-8.746748 -1.186037,-0.369633 -3.10431,-0.369218 -4.421355,9.22e-4 -3.8732,1.088668 -6.74749,4.679589 -6.74749,8.429843 0,1.484187 0.01193,1.507636 1.018441,2.002494 3.522314,1.731769 6.768064,4.965611 8.908336,8.875654 0.360405,0.658422 0.582632,0.939236 0.788665,0.99658 0.469254,0.130609 1.496299,0.105133 2.418199,-0.05998 z M 23.735056,37.923212 c 0.431305,-1.428145 0.76816,-2.303334 1.247145,-3.240237 2.299976,-4.498791 6.715925,-7.506244 11.762523,-8.010786 0.625037,-0.06249 1.1533,-0.130488 1.173921,-0.151109 0.02062,-0.02062 0.09087,-0.554734 0.156101,-1.18692 0.06523,-0.632185 0.152609,-1.317918 0.194166,-1.523851 l 0.07556,-0.374424 h -0.611668 c -0.766534,0 -1.476239,-0.330124 -1.98335,-0.922568 -0.271543,-0.317237 -0.795154,-1.489697 -1.860563,-4.166139 -0.815471,-2.048561 -1.521044,-3.798485 -1.567943,-3.88872 -0.05195,-0.09996 -0.746572,1.835519 -1.777892,4.953917 -0.930941,2.814889 -1.797403,5.299432 -1.92547,5.521206 -0.128066,0.221774 -0.418488,0.558756 -0.645381,0.748848 -0.226893,0.190092 -3.342568,1.831804 -6.923722,3.64825 l -6.51119,3.302628 0.397253,0.237292 c 0.218489,0.130512 2.237691,1.348784 4.487115,2.70727 2.249424,1.358486 4.130371,2.474335 4.179883,2.479664 0.04951,0.0053 0.109593,-0.05512 0.133514,-0.134321 z"
   id="path836" /></svg>
