<?xml version="1.0" encoding="utf-8"?>
<!-- Generator: Adobe Illustrator 18.0.0, SVG Export Plug-In . SVG Version: 6.00 Build 0)  -->
<!DOCTYPE svg PUBLIC "-//W3C//DTD SVG 1.1//EN" "http://www.w3.org/Graphics/SVG/1.1/DTD/svg11.dtd">
<svg version="1.1" id="Layer_1" xmlns="http://www.w3.org/2000/svg" xmlns:xlink="http://www.w3.org/1999/xlink" x="0px" y="0px"
	 viewBox="0 0 100 100" enable-background="new 0 0 100 100" xml:space="preserve">
<g>
	<path fill="#2C3136" d="M87.9,70.3c3.4-2.7,5.7-6.9,5.7-11.7c0-5-3.3-10.2-7.7-13.6c1.1-2.1,1.8-4.4,1.8-7
		c0-8.3-9.1-17.4-17.4-17.4c-1,0-2,0.1-3,0.3c-3.3-5.1-9.2-9.1-14.7-9.1c-1.3,0-2.5,0.2-3.7,0.5l0.5-3c0.2-1.3-0.5-2.7-1.7-3.2
		c-1.3-0.5-2.7-0.1-3.5,0.9l-5.7,7.6l-3.9-9.9C34,3.7,32.9,3,31.7,3c-1.2,0-2.3,0.8-2.7,2l-4.9,14.6C17.4,16.2,12.4,9.2,11,5
		c-0.5-1.5-2.2-2.4-3.7-1.9C5.7,3.7,4.9,5.3,5.4,6.9c1.9,5.6,7.1,12.5,13.8,16.7L6.9,29.8c-1,0.5-1.6,1.4-1.6,2.5
		c0,1.1,0.5,2.1,1.4,2.6l10.5,6.3L6.7,47.6c-1.2,0.7-1.7,2.2-1.2,3.5c0.5,1.3,1.9,2.1,3.2,1.9l3-0.5c-0.3,1.2-0.5,2.4-0.5,3.7
		c0,5.5,4,11.3,9.1,14.7c-0.2,1-0.3,2-0.3,3c0,8.3,9.1,17.4,17.4,17.4c1.7,0,3.3-0.3,4.8-0.9c3.4,3.9,8.3,6.7,12.9,6.7
		c4.7,0,8.9-2.2,11.7-5.7c3.3,3.4,7.7,5.7,11.9,5.7c8.3,0,15-6.7,15-15C93.6,78,91.2,73.6,87.9,70.3z M78.6,91.3
		c-3.3,0-7.2-2.8-9.5-6.1c6.4-1,11.5-6,12.5-12.5c3.3,2.3,6.1,6.2,6.1,9.5C87.7,87.2,83.6,91.3,78.6,91.3z M55,91.3
		c-2.5,0-5.4-1.6-7.7-3.9c2.6-2.3,4.3-5.5,4.8-9.1c0.4-0.2,0.7-0.4,1-0.6c2.3,3,5.5,5.5,8.9,6.8c0.3,0.7,0.6,1.3,0.9,2
		C61.5,89.3,58.5,91.3,55,91.3z M25.9,73.3c0.9,0.2,1.7,0.3,2.6,0.3c1.7,0,3.3-0.3,4.8-0.9c3.3,3.8,8,6.6,12.5,6.7
		c-1.3,3.4-4.6,5.9-8.5,5.9c-5.1,0-11.5-6.5-11.5-11.5C25.9,73.7,25.9,73.5,25.9,73.3z M24.3,47.3c2.4,5.4,7.8,10.1,13.3,11.3
		c0,0,0,0,0,0.1c0,5-4.1,9.1-9.1,9.1c-5.1,0-11.5-6.5-11.5-11.5C17,51.9,20.2,48.2,24.3,47.3z M27.2,26.2c0.1,0,0.1-0.1,0.1-0.1
		c0.2-0.1,0.4-0.3,0.6-0.5c0.1-0.1,0.2-0.1,0.2-0.2c0.2-0.3,0.4-0.6,0.5-0.9l3.3-10l2.9,7.3c0.4,1,1.3,1.7,2.3,1.8
		c0.3,0,0.5,0,0.8,0c-0.2,1-0.3,2-0.3,3c-7,0.1-12.8,5-14.3,11.5l-9-5.4L27.2,26.2z M75.5,46.7c-1-3.9-3.8-7.8-7.3-10.5
		c1.1-2.1,1.8-4.4,1.8-7c0-0.9-0.1-1.7-0.3-2.6c0.2,0,0.4-0.1,0.6-0.1c5.1,0,11.5,6.5,11.5,11.5C81.8,42.1,79.1,45.5,75.5,46.7z
		 M82.9,66.6c-0.7-0.3-1.3-0.7-2-0.9c-1.3-3.4-3.8-6.6-6.8-8.9c0.7-1.3,1.2-2.6,1.5-4.1c2.5-0.5,4.7-1.6,6.5-3.2
		c3.1,2.3,5.5,6,5.5,9.1C87.7,62.1,85.7,65.1,82.9,66.6z M66.8,79.5c-3.1,0-6.7-2.5-9.1-5.5c2.1-2.5,3.4-5.7,3.4-9.2
		c3.5-0.1,6.7-1.4,9.2-3.4c3.1,2.3,5.5,6,5.5,9.1C75.9,75.4,71.8,79.5,66.8,79.5z M46.2,73.6c-2.5,0-5.4-1.6-7.7-3.9
		c3-2.7,5-6.7,5-11.1c0,0,0-0.1,0-0.1c1.3-0.3,2.6-0.8,3.8-1.4c2.1,2.7,4.9,5,7.9,6.3c0.1,0.4,0.2,0.7,0.2,1.1
		C55.3,69.6,51.2,73.6,46.2,73.6z M28.8,41.5c0-5,4.1-9.1,9.1-9.1c5.1,0,11.5,6.5,11.5,11.5c0,5-4.1,9.1-9.1,9.1
		C35.3,53,28.8,46.6,28.8,41.5z M64.5,40.7c3.1,2.3,5.5,6,5.5,9.1c0,5-4.1,9.1-9.1,9.1c-3.1,0-6.7-2.5-9.1-5.5
		c2.1-2.5,3.4-5.7,3.4-9.2C58.8,44.1,62,42.8,64.5,40.7z M64.1,29.2c0,5-4.1,9.1-9.1,9.1c-0.4,0-0.7-0.1-1.1-0.2
		c-2-4.4-5.9-8.3-10.2-10.2c-0.1-0.4-0.2-0.7-0.2-1.1c0-5,4.1-9.1,9.1-9.1C57.7,17.7,64.1,24.2,64.1,29.2z"/>
</g>
</svg>
